M48
; DRILL file {KiCad (6.0.2)} date Mon May  2 15:09:35 2022
; FORMAT={-:-/ absolute / metric / decimal}
; #@! TF.CreationDate,2022-05-02T15:09:35+02:00
; #@! TF.GenerationSoftware,Kicad,Pcbnew,(6.0.2)
; #@! TF.FileFunction,Plated,1,2,PTH
FMAT,2
METRIC
; #@! TA.AperFunction,Plated,PTH,ComponentDrill
T1C0.700
; #@! TA.AperFunction,Plated,PTH,ComponentDrill
T2C0.730
; #@! TA.AperFunction,Plated,PTH,ComponentDrill
T3C0.750
; #@! TA.AperFunction,Plated,PTH,ComponentDrill
T4C0.800
; #@! TA.AperFunction,Plated,PTH,ComponentDrill
T5C0.850
; #@! TA.AperFunction,Plated,PTH,ComponentDrill
T6C1.000
; #@! TA.AperFunction,Plated,PTH,ComponentDrill
T7C1.100
; #@! TA.AperFunction,Plated,PTH,ComponentDrill
T8C1.550
; #@! TA.AperFunction,Plated,PTH,ComponentDrill
T9C3.200
%
G90
G05
T1
X66.04Y-167.64
X71.04Y-167.64
X121.92Y-167.64
X126.92Y-167.64
X167.64Y-170.18
X172.64Y-170.18
X215.9Y-170.18
X220.9Y-170.18
X264.16Y-152.4
X269.16Y-152.4
T2
X31.59Y-123.19
X31.59Y-125.73
X31.59Y-128.27
X31.59Y-130.81
X31.59Y-133.35
X31.59Y-135.89
X31.59Y-138.43
X31.59Y-140.97
X31.75Y-163.67
X31.75Y-171.61
X34.29Y-163.67
X34.29Y-171.61
X36.83Y-163.67
X36.83Y-171.61
X39.37Y-163.67
X39.37Y-171.61
X39.53Y-123.19
X39.53Y-125.73
X39.53Y-128.27
X39.53Y-130.81
X39.53Y-133.35
X39.53Y-135.89
X39.53Y-138.43
X39.53Y-140.97
X41.91Y-163.67
X41.91Y-171.61
X44.45Y-163.67
X44.45Y-171.61
X46.99Y-163.67
X46.99Y-171.61
X49.53Y-163.67
X49.53Y-171.61
X72.23Y-120.65
X72.23Y-123.19
X72.23Y-125.73
X72.23Y-128.27
X72.23Y-130.81
X72.23Y-133.35
X72.23Y-135.89
X72.23Y-138.43
X80.17Y-120.65
X80.17Y-123.19
X80.17Y-125.73
X80.17Y-128.27
X80.17Y-130.81
X80.17Y-133.35
X80.17Y-135.89
X80.17Y-138.43
X82.55Y-163.67
X82.55Y-171.61
X85.09Y-163.67
X85.09Y-171.61
X87.47Y-123.19
X87.47Y-125.73
X87.47Y-128.27
X87.47Y-130.81
X87.47Y-133.35
X87.47Y-135.89
X87.47Y-138.43
X87.47Y-140.97
X87.63Y-163.67
X87.63Y-171.61
X90.17Y-163.67
X90.17Y-171.61
X92.71Y-163.67
X92.71Y-171.61
X95.25Y-163.67
X95.25Y-171.61
X95.41Y-123.19
X95.41Y-125.73
X95.41Y-128.27
X95.41Y-130.81
X95.41Y-133.35
X95.41Y-135.89
X95.41Y-138.43
X95.41Y-140.97
X97.79Y-163.67
X97.79Y-171.61
X100.33Y-163.67
X100.33Y-171.61
X130.65Y-123.19
X130.65Y-125.73
X130.65Y-128.27
X130.65Y-130.81
X130.65Y-133.35
X130.65Y-135.89
X130.65Y-138.43
X130.65Y-140.97
X135.89Y-166.21
X135.89Y-174.15
X138.43Y-166.21
X138.43Y-174.15
X138.59Y-123.19
X138.59Y-125.73
X138.59Y-128.27
X138.59Y-130.81
X138.59Y-133.35
X138.59Y-135.89
X138.59Y-138.43
X138.59Y-140.97
X140.97Y-166.21
X140.97Y-174.15
X143.51Y-166.21
X143.51Y-174.15
X146.05Y-166.21
X146.05Y-174.15
X148.59Y-166.21
X148.59Y-174.15
X151.13Y-166.21
X151.13Y-174.15
X153.67Y-166.21
X153.67Y-174.15
X173.83Y-123.19
X173.83Y-125.73
X173.83Y-128.27
X173.83Y-130.81
X173.83Y-133.35
X173.83Y-135.89
X173.83Y-138.43
X173.83Y-140.97
X181.61Y-166.21
X181.61Y-174.15
X181.77Y-123.19
X181.77Y-125.73
X181.77Y-128.27
X181.77Y-130.81
X181.77Y-133.35
X181.77Y-135.89
X181.77Y-138.43
X181.77Y-140.97
X184.15Y-166.21
X184.15Y-174.15
X186.69Y-166.21
X186.69Y-174.15
X189.07Y-123.19
X189.07Y-125.73
X189.07Y-128.27
X189.07Y-130.81
X189.07Y-133.35
X189.07Y-135.89
X189.07Y-138.43
X189.07Y-140.97
X189.23Y-166.21
X189.23Y-174.15
X191.77Y-166.21
X191.77Y-174.15
X194.31Y-166.21
X194.31Y-174.15
X196.85Y-166.21
X196.85Y-174.15
X197.01Y-123.19
X197.01Y-125.73
X197.01Y-128.27
X197.01Y-130.81
X197.01Y-133.35
X197.01Y-135.89
X197.01Y-138.43
X197.01Y-140.97
X199.39Y-166.21
X199.39Y-174.15
X204.47Y-178.91
X204.47Y-186.85
X207.01Y-178.91
X207.01Y-186.85
X209.55Y-178.91
X209.55Y-186.85
X212.09Y-178.91
X212.09Y-186.85
X214.63Y-178.91
X214.63Y-186.85
X217.17Y-178.91
X217.17Y-186.85
X219.71Y-178.91
X219.71Y-186.85
X222.25Y-178.91
X222.25Y-186.85
X232.41Y-161.13
X232.41Y-169.07
X234.95Y-161.13
X234.95Y-169.07
X237.33Y-120.65
X237.33Y-123.19
X237.33Y-125.73
X237.33Y-128.27
X237.33Y-130.81
X237.33Y-133.35
X237.33Y-135.89
X237.33Y-138.43
X237.49Y-161.13
X237.49Y-169.07
X240.03Y-161.13
X240.03Y-169.07
X242.57Y-161.13
X242.57Y-169.07
X245.11Y-161.13
X245.11Y-169.07
X245.27Y-120.65
X245.27Y-123.19
X245.27Y-125.73
X245.27Y-128.27
X245.27Y-130.81
X245.27Y-133.35
X245.27Y-135.89
X245.27Y-138.43
X247.65Y-161.13
X247.65Y-169.07
X250.19Y-161.13
X250.19Y-169.07
T3
X55.88Y-167.64
X57.88Y-167.64
X109.22Y-165.1
X111.22Y-165.1
X158.02Y-170.18
X160.02Y-170.18
X205.74Y-170.18
X207.74Y-170.18
X254.0Y-152.4
X256.0Y-152.4
X281.94Y-170.18
X283.94Y-170.18
T4
X33.02Y-106.68
X33.02Y-116.84
X40.64Y-106.68
X40.64Y-116.84
X44.435Y-121.93
X44.435Y-124.47
X44.435Y-127.01
X44.435Y-129.55
X44.435Y-132.09
X44.435Y-134.63
X44.435Y-137.17
X44.435Y-139.71
X44.435Y-142.25
X45.72Y-106.68
X45.72Y-116.84
X50.8Y-106.68
X50.8Y-116.84
X52.055Y-121.93
X52.055Y-124.47
X52.055Y-127.01
X52.055Y-129.55
X52.055Y-132.09
X52.055Y-134.63
X52.055Y-137.17
X52.055Y-139.71
X52.055Y-142.25
X53.34Y-149.86
X53.34Y-160.02
X53.34Y-190.5
X55.88Y-106.68
X55.88Y-116.84
X58.42Y-149.86
X58.42Y-157.48
X59.7Y-135.9
X59.7Y-138.44
X59.7Y-140.98
X59.7Y-143.52
X60.96Y-106.68
X60.96Y-116.84
X63.5Y-190.5
X66.04Y-106.68
X66.04Y-116.84
X67.32Y-135.9
X67.32Y-138.44
X67.32Y-140.98
X67.32Y-143.52
X68.58Y-149.86
X68.58Y-157.48
X71.12Y-106.68
X71.12Y-116.84
X83.82Y-106.68
X83.82Y-116.84
X90.185Y-176.52
X90.185Y-184.14
X91.44Y-106.68
X91.44Y-116.84
X92.725Y-176.52
X92.725Y-184.14
X95.265Y-176.52
X95.265Y-184.14
X97.805Y-176.52
X97.805Y-184.14
X99.06Y-106.68
X99.06Y-116.84
X100.315Y-121.93
X100.315Y-124.47
X100.315Y-127.01
X100.315Y-129.55
X100.315Y-132.09
X100.315Y-134.63
X100.315Y-137.17
X100.315Y-139.71
X100.315Y-142.25
X100.345Y-176.52
X100.345Y-184.14
X101.6Y-147.32
X101.6Y-157.48
X102.885Y-176.52
X102.885Y-184.14
X104.14Y-106.68
X104.14Y-116.84
X105.425Y-176.52
X105.425Y-184.14
X107.935Y-121.93
X107.935Y-124.47
X107.935Y-127.01
X107.935Y-129.55
X107.935Y-132.09
X107.935Y-134.63
X107.935Y-137.17
X107.935Y-139.71
X107.935Y-142.25
X107.965Y-176.52
X107.965Y-184.14
X109.22Y-106.68
X109.22Y-116.84
X114.3Y-106.68
X114.3Y-116.84
X115.58Y-148.6
X115.58Y-151.14
X115.58Y-153.68
X115.58Y-156.22
X119.38Y-106.68
X119.38Y-116.84
X123.2Y-148.6
X123.2Y-151.14
X123.2Y-153.68
X123.2Y-156.22
X124.46Y-106.68
X124.46Y-116.84
X129.54Y-106.68
X129.54Y-116.84
X129.54Y-180.34
X129.54Y-185.42
X129.54Y-190.5
X137.16Y-106.68
X137.16Y-116.84
X139.7Y-180.34
X139.7Y-185.42
X139.7Y-190.5
X143.495Y-121.93
X143.495Y-124.47
X143.495Y-127.01
X143.495Y-129.55
X143.495Y-132.09
X143.495Y-134.63
X143.495Y-137.17
X143.495Y-139.71
X143.495Y-142.25
X144.78Y-106.68
X144.78Y-116.84
X144.78Y-180.34
X149.86Y-106.68
X149.86Y-116.84
X151.115Y-121.93
X151.115Y-124.47
X151.115Y-127.01
X151.115Y-129.55
X151.115Y-132.09
X151.115Y-134.63
X151.115Y-137.17
X151.115Y-139.71
X151.115Y-142.25
X154.94Y-106.68
X154.94Y-116.84
X154.94Y-144.78
X154.94Y-149.86
X154.94Y-160.02
X154.94Y-180.34
X157.48Y-180.34
X159.42Y-136.0
X160.02Y-106.68
X160.02Y-116.84
X160.02Y-149.86
X160.02Y-160.02
X165.1Y-106.68
X165.1Y-116.84
X165.1Y-144.78
X167.64Y-180.34
X168.92Y-151.14
X168.92Y-153.68
X168.92Y-156.22
X168.92Y-158.76
X169.58Y-136.0
X170.18Y-106.68
X170.18Y-116.84
X175.26Y-106.68
X175.26Y-116.84
X175.26Y-180.34
X175.26Y-190.5
X176.54Y-151.14
X176.54Y-153.68
X176.54Y-156.22
X176.54Y-158.76
X190.5Y-106.68
X190.5Y-116.84
X198.12Y-106.68
X198.12Y-116.84
X201.915Y-121.93
X201.915Y-124.47
X201.915Y-127.01
X201.915Y-129.55
X201.915Y-132.09
X201.915Y-134.63
X201.915Y-137.17
X201.915Y-139.71
X201.915Y-142.25
X203.2Y-106.68
X203.2Y-116.84
X205.74Y-147.32
X205.74Y-157.48
X208.28Y-106.68
X208.28Y-116.84
X209.535Y-121.93
X209.535Y-124.47
X209.535Y-127.01
X209.535Y-129.55
X209.535Y-132.09
X209.535Y-134.63
X209.535Y-137.17
X209.535Y-139.71
X209.535Y-142.25
X210.82Y-147.32
X210.82Y-157.48
X213.36Y-106.68
X213.36Y-116.84
X213.36Y-132.08
X213.36Y-142.24
X218.44Y-106.68
X218.44Y-116.84
X222.26Y-148.6
X222.26Y-151.14
X222.26Y-153.68
X222.26Y-156.22
X223.52Y-106.68
X223.52Y-116.84
X223.52Y-132.08
X223.52Y-142.24
X228.6Y-106.68
X228.6Y-116.84
X229.88Y-148.6
X229.88Y-151.14
X229.88Y-153.68
X229.88Y-156.22
X238.76Y-106.68
X238.76Y-116.84
X238.76Y-175.26
X246.38Y-106.68
X246.38Y-116.84
X248.92Y-175.26
X251.46Y-106.68
X251.46Y-116.84
X252.715Y-121.93
X252.715Y-124.47
X252.715Y-127.01
X252.715Y-129.55
X252.715Y-132.09
X252.715Y-134.63
X252.715Y-137.17
X252.715Y-139.71
X252.715Y-142.25
X255.28Y-161.3
X255.28Y-163.84
X255.28Y-166.38
X255.28Y-168.92
X256.54Y-106.68
X256.54Y-116.84
X260.335Y-121.93
X260.335Y-124.47
X260.335Y-127.01
X260.335Y-129.55
X260.335Y-132.09
X260.335Y-134.63
X260.335Y-137.17
X260.335Y-139.71
X260.335Y-142.25
X261.62Y-106.68
X261.62Y-116.84
X262.9Y-161.3
X262.9Y-163.84
X262.9Y-166.38
X262.9Y-168.92
X266.7Y-106.68
X266.7Y-116.84
X271.78Y-106.68
X271.78Y-116.84
X274.32Y-129.54
X274.32Y-134.62
X274.32Y-139.7
X274.32Y-144.78
X276.86Y-106.68
X276.86Y-116.84
X284.48Y-129.54
X284.48Y-134.62
X284.48Y-139.7
X284.48Y-144.78
T5
X259.08Y-177.8
X264.08Y-177.8
T6
X33.02Y-177.8
X33.02Y-185.42
X35.56Y-177.8
X35.56Y-185.42
X38.1Y-177.8
X38.1Y-185.42
X40.64Y-177.8
X40.64Y-185.42
X43.18Y-177.8
X43.18Y-185.42
X45.72Y-177.8
X45.72Y-185.42
X48.26Y-177.8
X48.26Y-185.42
X53.34Y-38.53
X53.34Y-98.63
X55.88Y-38.53
X55.88Y-98.63
X58.42Y-38.53
X58.42Y-98.63
X60.96Y-38.53
X60.96Y-98.63
X63.5Y-38.53
X63.5Y-98.63
X66.01Y-176.53
X66.01Y-184.15
X68.55Y-176.53
X68.55Y-184.15
X71.09Y-176.53
X71.09Y-184.15
X73.63Y-176.53
X73.63Y-184.15
X76.17Y-176.53
X76.17Y-184.15
X78.71Y-176.53
X78.71Y-184.15
X81.25Y-176.53
X81.25Y-184.15
X104.14Y-38.53
X104.14Y-98.63
X106.68Y-38.53
X106.68Y-98.63
X109.22Y-38.53
X109.22Y-98.63
X111.76Y-38.53
X111.76Y-98.63
X114.3Y-38.53
X114.3Y-98.63
X154.94Y-38.53
X154.94Y-98.63
X157.48Y-38.53
X157.48Y-98.63
X160.02Y-38.53
X160.02Y-98.63
X162.56Y-38.53
X162.56Y-98.63
X165.1Y-38.53
X165.1Y-98.63
X182.85Y-179.07
X182.85Y-186.69
X185.39Y-179.07
X185.39Y-186.69
X187.93Y-179.07
X187.93Y-186.69
X190.47Y-179.07
X190.47Y-186.69
X193.01Y-179.07
X193.01Y-186.69
X195.55Y-179.07
X195.55Y-186.69
X198.09Y-179.07
X198.09Y-186.69
X205.74Y-38.53
X205.74Y-98.63
X208.28Y-38.53
X208.28Y-98.63
X210.82Y-38.53
X210.82Y-98.63
X213.36Y-38.53
X213.36Y-98.63
X215.9Y-38.53
X215.9Y-98.63
X256.54Y-38.53
X256.54Y-98.63
X259.08Y-38.53
X259.08Y-98.63
X261.62Y-38.53
X261.62Y-98.63
X264.16Y-38.53
X264.16Y-98.63
X266.7Y-38.53
X266.7Y-98.63
X276.86Y-157.48
X279.4Y-157.48
X281.94Y-157.48
T7
X30.48Y-149.86
X30.48Y-154.94
X30.48Y-160.02
X40.64Y-149.86
X40.64Y-154.94
X40.64Y-160.02
X61.44Y-121.92
X61.44Y-129.54
X66.04Y-121.92
X66.04Y-129.54
X83.82Y-147.32
X83.82Y-152.4
X83.82Y-157.48
X86.84Y-190.5
X91.44Y-190.5
X93.98Y-147.32
X93.98Y-152.4
X93.98Y-157.48
X99.06Y-190.5
X103.66Y-190.5
X114.3Y-177.8
X114.3Y-182.88
X124.46Y-177.8
X124.46Y-182.88
X134.62Y-147.32
X134.62Y-152.4
X134.62Y-157.48
X144.78Y-147.32
X144.78Y-152.4
X144.78Y-157.48
X145.26Y-187.96
X149.86Y-187.96
X154.94Y-187.96
X159.54Y-187.96
X162.786Y-122.301
X163.2Y-129.54
X165.1Y-187.96
X167.386Y-122.301
X167.8Y-129.54
X169.7Y-187.96
X185.42Y-147.32
X185.42Y-152.4
X185.42Y-157.48
X195.58Y-147.32
X195.58Y-152.4
X195.58Y-157.48
X236.22Y-144.11
X236.22Y-149.19
X236.22Y-154.27
X238.76Y-182.88
X238.76Y-187.48
X246.38Y-144.11
X246.38Y-149.19
X246.38Y-154.27
X246.38Y-182.88
X246.38Y-187.48
X251.94Y-187.96
X256.54Y-187.96
X266.7Y-130.02
X266.7Y-134.62
X269.24Y-162.56
X269.24Y-172.72
T8
X228.6Y-180.34
X228.6Y-187.96
X264.72Y-187.96
X269.52Y-187.96
X274.32Y-187.96
T9
X33.0Y-191.0
X34.0Y-26.0
X282.5Y-26.5
X283.5Y-189.0
T0
M30
