G04 #@! TF.GenerationSoftware,KiCad,Pcbnew,(6.0.4)*
G04 #@! TF.CreationDate,2022-04-26T08:41:27+02:00*
G04 #@! TF.ProjectId,Kniffel_V1,4b6e6966-6665-46c5-9f56-312e6b696361,rev?*
G04 #@! TF.SameCoordinates,Original*
G04 #@! TF.FileFunction,Legend,Top*
G04 #@! TF.FilePolarity,Positive*
%FSLAX46Y46*%
G04 Gerber Fmt 4.6, Leading zero omitted, Abs format (unit mm)*
G04 Created by KiCad (PCBNEW (6.0.4)) date 2022-04-26 08:41:27*
%MOMM*%
%LPD*%
G01*
G04 APERTURE LIST*
G04 Aperture macros list*
%AMRoundRect*
0 Rectangle with rounded corners*
0 $1 Rounding radius*
0 $2 $3 $4 $5 $6 $7 $8 $9 X,Y pos of 4 corners*
0 Add a 4 corners polygon primitive as box body*
4,1,4,$2,$3,$4,$5,$6,$7,$8,$9,$2,$3,0*
0 Add four circle primitives for the rounded corners*
1,1,$1+$1,$2,$3*
1,1,$1+$1,$4,$5*
1,1,$1+$1,$6,$7*
1,1,$1+$1,$8,$9*
0 Add four rect primitives between the rounded corners*
20,1,$1+$1,$2,$3,$4,$5,0*
20,1,$1+$1,$4,$5,$6,$7,0*
20,1,$1+$1,$6,$7,$8,$9,0*
20,1,$1+$1,$8,$9,$2,$3,0*%
G04 Aperture macros list end*
G04 #@! TA.AperFunction,Profile*
%ADD10C,0.100000*%
G04 #@! TD*
%ADD11C,0.150000*%
%ADD12C,0.254000*%
%ADD13C,0.120000*%
%ADD14C,0.200000*%
%ADD15C,0.100000*%
%ADD16R,1.130000X1.130000*%
%ADD17C,1.130000*%
%ADD18C,1.200000*%
%ADD19R,1.150000X1.150000*%
%ADD20C,1.150000*%
%ADD21C,1.600000*%
%ADD22O,1.600000X1.600000*%
%ADD23RoundRect,0.250002X-1.499998X-1.499998X1.499998X-1.499998X1.499998X1.499998X-1.499998X1.499998X0*%
%ADD24RoundRect,0.250001X-0.799999X-0.799999X0.799999X-0.799999X0.799999X0.799999X-0.799999X0.799999X0*%
%ADD25C,2.100000*%
%ADD26R,2.400000X1.600000*%
%ADD27O,2.400000X1.600000*%
%ADD28R,2.200000X2.200000*%
%ADD29O,2.200000X2.200000*%
%ADD30R,1.600000X1.600000*%
%ADD31RoundRect,0.249999X-1.025001X-1.025001X1.025001X-1.025001X1.025001X1.025001X-1.025001X1.025001X0*%
%ADD32C,2.550000*%
%ADD33C,3.200000*%
%ADD34R,1.500000X2.300000*%
%ADD35O,1.500000X2.300000*%
%ADD36R,1.275000X1.275000*%
%ADD37C,1.275000*%
%ADD38R,1.800000X1.800000*%
%ADD39C,1.800000*%
%ADD40R,1.500000X1.500000*%
%ADD41C,1.500000*%
G04 APERTURE END LIST*
D10*
X289560000Y-20320000D02*
X289560000Y-195580000D01*
X27940000Y-20320000D02*
X289560000Y-20320000D01*
X27940000Y-195580000D02*
X27940000Y-20320000D01*
X289560000Y-195580000D02*
X27940000Y-195580000D01*
X289560000Y-180340000D02*
X289560000Y-180340000D01*
D11*
X156592142Y-58452380D02*
X156258809Y-57976190D01*
X156020714Y-58452380D02*
X156020714Y-57452380D01*
X156401666Y-57452380D01*
X156496904Y-57500000D01*
X156544523Y-57547619D01*
X156592142Y-57642857D01*
X156592142Y-57785714D01*
X156544523Y-57880952D01*
X156496904Y-57928571D01*
X156401666Y-57976190D01*
X156020714Y-57976190D01*
X157496904Y-57452380D02*
X157020714Y-57452380D01*
X156973095Y-57928571D01*
X157020714Y-57880952D01*
X157115952Y-57833333D01*
X157354047Y-57833333D01*
X157449285Y-57880952D01*
X157496904Y-57928571D01*
X157544523Y-58023809D01*
X157544523Y-58261904D01*
X157496904Y-58357142D01*
X157449285Y-58404761D01*
X157354047Y-58452380D01*
X157115952Y-58452380D01*
X157020714Y-58404761D01*
X156973095Y-58357142D01*
X158163571Y-57452380D02*
X158258809Y-57452380D01*
X158354047Y-57500000D01*
X158401666Y-57547619D01*
X158449285Y-57642857D01*
X158496904Y-57833333D01*
X158496904Y-58071428D01*
X158449285Y-58261904D01*
X158401666Y-58357142D01*
X158354047Y-58404761D01*
X158258809Y-58452380D01*
X158163571Y-58452380D01*
X158068333Y-58404761D01*
X158020714Y-58357142D01*
X157973095Y-58261904D01*
X157925476Y-58071428D01*
X157925476Y-57833333D01*
X157973095Y-57642857D01*
X158020714Y-57547619D01*
X158068333Y-57500000D01*
X158163571Y-57452380D01*
X71087142Y-62132380D02*
X70753809Y-61656190D01*
X70515714Y-62132380D02*
X70515714Y-61132380D01*
X70896666Y-61132380D01*
X70991904Y-61180000D01*
X71039523Y-61227619D01*
X71087142Y-61322857D01*
X71087142Y-61465714D01*
X71039523Y-61560952D01*
X70991904Y-61608571D01*
X70896666Y-61656190D01*
X70515714Y-61656190D01*
X71944285Y-61465714D02*
X71944285Y-62132380D01*
X71706190Y-61084761D02*
X71468095Y-61799047D01*
X72087142Y-61799047D01*
X72372857Y-61132380D02*
X73039523Y-61132380D01*
X72610952Y-62132380D01*
X92062380Y-112402857D02*
X91586190Y-112736190D01*
X92062380Y-112974285D02*
X91062380Y-112974285D01*
X91062380Y-112593333D01*
X91110000Y-112498095D01*
X91157619Y-112450476D01*
X91252857Y-112402857D01*
X91395714Y-112402857D01*
X91490952Y-112450476D01*
X91538571Y-112498095D01*
X91586190Y-112593333D01*
X91586190Y-112974285D01*
X91062380Y-112069523D02*
X91062380Y-111450476D01*
X91443333Y-111783809D01*
X91443333Y-111640952D01*
X91490952Y-111545714D01*
X91538571Y-111498095D01*
X91633809Y-111450476D01*
X91871904Y-111450476D01*
X91967142Y-111498095D01*
X92014761Y-111545714D01*
X92062380Y-111640952D01*
X92062380Y-111926666D01*
X92014761Y-112021904D01*
X91967142Y-112069523D01*
X91062380Y-111117142D02*
X91062380Y-110450476D01*
X92062380Y-110879047D01*
X238426666Y-166682380D02*
X238426666Y-167396666D01*
X238379047Y-167539523D01*
X238283809Y-167634761D01*
X238140952Y-167682380D01*
X238045714Y-167682380D01*
X239426666Y-167682380D02*
X238855238Y-167682380D01*
X239140952Y-167682380D02*
X239140952Y-166682380D01*
X239045714Y-166825238D01*
X238950476Y-166920476D01*
X238855238Y-166968095D01*
X189857142Y-132702380D02*
X189523809Y-132226190D01*
X189285714Y-132702380D02*
X189285714Y-131702380D01*
X189666666Y-131702380D01*
X189761904Y-131750000D01*
X189809523Y-131797619D01*
X189857142Y-131892857D01*
X189857142Y-132035714D01*
X189809523Y-132130952D01*
X189761904Y-132178571D01*
X189666666Y-132226190D01*
X189285714Y-132226190D01*
X190809523Y-132702380D02*
X190238095Y-132702380D01*
X190523809Y-132702380D02*
X190523809Y-131702380D01*
X190428571Y-131845238D01*
X190333333Y-131940476D01*
X190238095Y-131988095D01*
X191380952Y-132130952D02*
X191285714Y-132083333D01*
X191238095Y-132035714D01*
X191190476Y-131940476D01*
X191190476Y-131892857D01*
X191238095Y-131797619D01*
X191285714Y-131750000D01*
X191380952Y-131702380D01*
X191571428Y-131702380D01*
X191666666Y-131750000D01*
X191714285Y-131797619D01*
X191761904Y-131892857D01*
X191761904Y-131940476D01*
X191714285Y-132035714D01*
X191666666Y-132083333D01*
X191571428Y-132130952D01*
X191380952Y-132130952D01*
X191285714Y-132178571D01*
X191238095Y-132226190D01*
X191190476Y-132321428D01*
X191190476Y-132511904D01*
X191238095Y-132607142D01*
X191285714Y-132654761D01*
X191380952Y-132702380D01*
X191571428Y-132702380D01*
X191666666Y-132654761D01*
X191714285Y-132607142D01*
X191761904Y-132511904D01*
X191761904Y-132321428D01*
X191714285Y-132226190D01*
X191666666Y-132178571D01*
X191571428Y-132130952D01*
X104762380Y-112402857D02*
X104286190Y-112736190D01*
X104762380Y-112974285D02*
X103762380Y-112974285D01*
X103762380Y-112593333D01*
X103810000Y-112498095D01*
X103857619Y-112450476D01*
X103952857Y-112402857D01*
X104095714Y-112402857D01*
X104190952Y-112450476D01*
X104238571Y-112498095D01*
X104286190Y-112593333D01*
X104286190Y-112974285D01*
X103762380Y-112069523D02*
X103762380Y-111450476D01*
X104143333Y-111783809D01*
X104143333Y-111640952D01*
X104190952Y-111545714D01*
X104238571Y-111498095D01*
X104333809Y-111450476D01*
X104571904Y-111450476D01*
X104667142Y-111498095D01*
X104714761Y-111545714D01*
X104762380Y-111640952D01*
X104762380Y-111926666D01*
X104714761Y-112021904D01*
X104667142Y-112069523D01*
X103762380Y-110545714D02*
X103762380Y-111021904D01*
X104238571Y-111069523D01*
X104190952Y-111021904D01*
X104143333Y-110926666D01*
X104143333Y-110688571D01*
X104190952Y-110593333D01*
X104238571Y-110545714D01*
X104333809Y-110498095D01*
X104571904Y-110498095D01*
X104667142Y-110545714D01*
X104714761Y-110593333D01*
X104762380Y-110688571D01*
X104762380Y-110926666D01*
X104714761Y-111021904D01*
X104667142Y-111069523D01*
D12*
X90200238Y-132654523D02*
X90200238Y-131384523D01*
X91530714Y-132533571D02*
X91470238Y-132594047D01*
X91288809Y-132654523D01*
X91167857Y-132654523D01*
X90986428Y-132594047D01*
X90865476Y-132473095D01*
X90805000Y-132352142D01*
X90744523Y-132110238D01*
X90744523Y-131928809D01*
X90805000Y-131686904D01*
X90865476Y-131565952D01*
X90986428Y-131445000D01*
X91167857Y-131384523D01*
X91288809Y-131384523D01*
X91470238Y-131445000D01*
X91530714Y-131505476D01*
X91954047Y-131384523D02*
X92740238Y-131384523D01*
X92316904Y-131868333D01*
X92498333Y-131868333D01*
X92619285Y-131928809D01*
X92679761Y-131989285D01*
X92740238Y-132110238D01*
X92740238Y-132412619D01*
X92679761Y-132533571D01*
X92619285Y-132594047D01*
X92498333Y-132654523D01*
X92135476Y-132654523D01*
X92014523Y-132594047D01*
X91954047Y-132533571D01*
D11*
X143271666Y-86772380D02*
X143271666Y-87486666D01*
X143224047Y-87629523D01*
X143128809Y-87724761D01*
X142985952Y-87772380D01*
X142890714Y-87772380D01*
X144176428Y-86772380D02*
X143985952Y-86772380D01*
X143890714Y-86820000D01*
X143843095Y-86867619D01*
X143747857Y-87010476D01*
X143700238Y-87200952D01*
X143700238Y-87581904D01*
X143747857Y-87677142D01*
X143795476Y-87724761D01*
X143890714Y-87772380D01*
X144081190Y-87772380D01*
X144176428Y-87724761D01*
X144224047Y-87677142D01*
X144271666Y-87581904D01*
X144271666Y-87343809D01*
X144224047Y-87248571D01*
X144176428Y-87200952D01*
X144081190Y-87153333D01*
X143890714Y-87153333D01*
X143795476Y-87200952D01*
X143747857Y-87248571D01*
X143700238Y-87343809D01*
X99682380Y-153042857D02*
X99206190Y-153376190D01*
X99682380Y-153614285D02*
X98682380Y-153614285D01*
X98682380Y-153233333D01*
X98730000Y-153138095D01*
X98777619Y-153090476D01*
X98872857Y-153042857D01*
X99015714Y-153042857D01*
X99110952Y-153090476D01*
X99158571Y-153138095D01*
X99206190Y-153233333D01*
X99206190Y-153614285D01*
X99682380Y-152090476D02*
X99682380Y-152661904D01*
X99682380Y-152376190D02*
X98682380Y-152376190D01*
X98825238Y-152471428D01*
X98920476Y-152566666D01*
X98968095Y-152661904D01*
X98682380Y-151471428D02*
X98682380Y-151376190D01*
X98730000Y-151280952D01*
X98777619Y-151233333D01*
X98872857Y-151185714D01*
X99063333Y-151138095D01*
X99301428Y-151138095D01*
X99491904Y-151185714D01*
X99587142Y-151233333D01*
X99634761Y-151280952D01*
X99682380Y-151376190D01*
X99682380Y-151471428D01*
X99634761Y-151566666D01*
X99587142Y-151614285D01*
X99491904Y-151661904D01*
X99301428Y-151709523D01*
X99063333Y-151709523D01*
X98872857Y-151661904D01*
X98777619Y-151614285D01*
X98730000Y-151566666D01*
X98682380Y-151471428D01*
X102886904Y-119052380D02*
X102886904Y-119861904D01*
X102934523Y-119957142D01*
X102982142Y-120004761D01*
X103077380Y-120052380D01*
X103267857Y-120052380D01*
X103363095Y-120004761D01*
X103410714Y-119957142D01*
X103458333Y-119861904D01*
X103458333Y-119052380D01*
X104458333Y-120052380D02*
X103886904Y-120052380D01*
X104172619Y-120052380D02*
X104172619Y-119052380D01*
X104077380Y-119195238D01*
X103982142Y-119290476D01*
X103886904Y-119338095D01*
X104791666Y-119052380D02*
X105458333Y-119052380D01*
X105029761Y-120052380D01*
X143271666Y-76612380D02*
X143271666Y-77326666D01*
X143224047Y-77469523D01*
X143128809Y-77564761D01*
X142985952Y-77612380D01*
X142890714Y-77612380D01*
X144224047Y-76612380D02*
X143747857Y-76612380D01*
X143700238Y-77088571D01*
X143747857Y-77040952D01*
X143843095Y-76993333D01*
X144081190Y-76993333D01*
X144176428Y-77040952D01*
X144224047Y-77088571D01*
X144271666Y-77183809D01*
X144271666Y-77421904D01*
X144224047Y-77517142D01*
X144176428Y-77564761D01*
X144081190Y-77612380D01*
X143843095Y-77612380D01*
X143747857Y-77564761D01*
X143700238Y-77517142D01*
X264782380Y-130182857D02*
X264306190Y-130516190D01*
X264782380Y-130754285D02*
X263782380Y-130754285D01*
X263782380Y-130373333D01*
X263830000Y-130278095D01*
X263877619Y-130230476D01*
X263972857Y-130182857D01*
X264115714Y-130182857D01*
X264210952Y-130230476D01*
X264258571Y-130278095D01*
X264306190Y-130373333D01*
X264306190Y-130754285D01*
X263877619Y-129801904D02*
X263830000Y-129754285D01*
X263782380Y-129659047D01*
X263782380Y-129420952D01*
X263830000Y-129325714D01*
X263877619Y-129278095D01*
X263972857Y-129230476D01*
X264068095Y-129230476D01*
X264210952Y-129278095D01*
X264782380Y-129849523D01*
X264782380Y-129230476D01*
X263782380Y-128325714D02*
X263782380Y-128801904D01*
X264258571Y-128849523D01*
X264210952Y-128801904D01*
X264163333Y-128706666D01*
X264163333Y-128468571D01*
X264210952Y-128373333D01*
X264258571Y-128325714D01*
X264353809Y-128278095D01*
X264591904Y-128278095D01*
X264687142Y-128325714D01*
X264734761Y-128373333D01*
X264782380Y-128468571D01*
X264782380Y-128706666D01*
X264734761Y-128801904D01*
X264687142Y-128849523D01*
X63333333Y-155562380D02*
X63000000Y-155086190D01*
X62761904Y-155562380D02*
X62761904Y-154562380D01*
X63142857Y-154562380D01*
X63238095Y-154610000D01*
X63285714Y-154657619D01*
X63333333Y-154752857D01*
X63333333Y-154895714D01*
X63285714Y-154990952D01*
X63238095Y-155038571D01*
X63142857Y-155086190D01*
X62761904Y-155086190D01*
X64190476Y-154895714D02*
X64190476Y-155562380D01*
X63952380Y-154514761D02*
X63714285Y-155229047D01*
X64333333Y-155229047D01*
X151757142Y-175882380D02*
X151423809Y-175406190D01*
X151185714Y-175882380D02*
X151185714Y-174882380D01*
X151566666Y-174882380D01*
X151661904Y-174930000D01*
X151709523Y-174977619D01*
X151757142Y-175072857D01*
X151757142Y-175215714D01*
X151709523Y-175310952D01*
X151661904Y-175358571D01*
X151566666Y-175406190D01*
X151185714Y-175406190D01*
X152138095Y-174977619D02*
X152185714Y-174930000D01*
X152280952Y-174882380D01*
X152519047Y-174882380D01*
X152614285Y-174930000D01*
X152661904Y-174977619D01*
X152709523Y-175072857D01*
X152709523Y-175168095D01*
X152661904Y-175310952D01*
X152090476Y-175882380D01*
X152709523Y-175882380D01*
X153280952Y-175310952D02*
X153185714Y-175263333D01*
X153138095Y-175215714D01*
X153090476Y-175120476D01*
X153090476Y-175072857D01*
X153138095Y-174977619D01*
X153185714Y-174930000D01*
X153280952Y-174882380D01*
X153471428Y-174882380D01*
X153566666Y-174930000D01*
X153614285Y-174977619D01*
X153661904Y-175072857D01*
X153661904Y-175120476D01*
X153614285Y-175215714D01*
X153566666Y-175263333D01*
X153471428Y-175310952D01*
X153280952Y-175310952D01*
X153185714Y-175358571D01*
X153138095Y-175406190D01*
X153090476Y-175501428D01*
X153090476Y-175691904D01*
X153138095Y-175787142D01*
X153185714Y-175834761D01*
X153280952Y-175882380D01*
X153471428Y-175882380D01*
X153566666Y-175834761D01*
X153614285Y-175787142D01*
X153661904Y-175691904D01*
X153661904Y-175501428D01*
X153614285Y-175406190D01*
X153566666Y-175358571D01*
X153471428Y-175310952D01*
X57777142Y-74282380D02*
X57443809Y-73806190D01*
X57205714Y-74282380D02*
X57205714Y-73282380D01*
X57586666Y-73282380D01*
X57681904Y-73330000D01*
X57729523Y-73377619D01*
X57777142Y-73472857D01*
X57777142Y-73615714D01*
X57729523Y-73710952D01*
X57681904Y-73758571D01*
X57586666Y-73806190D01*
X57205714Y-73806190D01*
X58634285Y-73615714D02*
X58634285Y-74282380D01*
X58396190Y-73234761D02*
X58158095Y-73949047D01*
X58777142Y-73949047D01*
X59110476Y-73377619D02*
X59158095Y-73330000D01*
X59253333Y-73282380D01*
X59491428Y-73282380D01*
X59586666Y-73330000D01*
X59634285Y-73377619D01*
X59681904Y-73472857D01*
X59681904Y-73568095D01*
X59634285Y-73710952D01*
X59062857Y-74282380D01*
X59681904Y-74282380D01*
X108332142Y-60512380D02*
X107998809Y-60036190D01*
X107760714Y-60512380D02*
X107760714Y-59512380D01*
X108141666Y-59512380D01*
X108236904Y-59560000D01*
X108284523Y-59607619D01*
X108332142Y-59702857D01*
X108332142Y-59845714D01*
X108284523Y-59940952D01*
X108236904Y-59988571D01*
X108141666Y-60036190D01*
X107760714Y-60036190D01*
X109189285Y-59512380D02*
X108998809Y-59512380D01*
X108903571Y-59560000D01*
X108855952Y-59607619D01*
X108760714Y-59750476D01*
X108713095Y-59940952D01*
X108713095Y-60321904D01*
X108760714Y-60417142D01*
X108808333Y-60464761D01*
X108903571Y-60512380D01*
X109094047Y-60512380D01*
X109189285Y-60464761D01*
X109236904Y-60417142D01*
X109284523Y-60321904D01*
X109284523Y-60083809D01*
X109236904Y-59988571D01*
X109189285Y-59940952D01*
X109094047Y-59893333D01*
X108903571Y-59893333D01*
X108808333Y-59940952D01*
X108760714Y-59988571D01*
X108713095Y-60083809D01*
X109903571Y-59512380D02*
X109998809Y-59512380D01*
X110094047Y-59560000D01*
X110141666Y-59607619D01*
X110189285Y-59702857D01*
X110236904Y-59893333D01*
X110236904Y-60131428D01*
X110189285Y-60321904D01*
X110141666Y-60417142D01*
X110094047Y-60464761D01*
X109998809Y-60512380D01*
X109903571Y-60512380D01*
X109808333Y-60464761D01*
X109760714Y-60417142D01*
X109713095Y-60321904D01*
X109665476Y-60131428D01*
X109665476Y-59893333D01*
X109713095Y-59702857D01*
X109760714Y-59607619D01*
X109808333Y-59560000D01*
X109903571Y-59512380D01*
X163182380Y-132722857D02*
X162706190Y-133056190D01*
X163182380Y-133294285D02*
X162182380Y-133294285D01*
X162182380Y-132913333D01*
X162230000Y-132818095D01*
X162277619Y-132770476D01*
X162372857Y-132722857D01*
X162515714Y-132722857D01*
X162610952Y-132770476D01*
X162658571Y-132818095D01*
X162706190Y-132913333D01*
X162706190Y-133294285D01*
X163182380Y-131770476D02*
X163182380Y-132341904D01*
X163182380Y-132056190D02*
X162182380Y-132056190D01*
X162325238Y-132151428D01*
X162420476Y-132246666D01*
X162468095Y-132341904D01*
X162182380Y-130865714D02*
X162182380Y-131341904D01*
X162658571Y-131389523D01*
X162610952Y-131341904D01*
X162563333Y-131246666D01*
X162563333Y-131008571D01*
X162610952Y-130913333D01*
X162658571Y-130865714D01*
X162753809Y-130818095D01*
X162991904Y-130818095D01*
X163087142Y-130865714D01*
X163134761Y-130913333D01*
X163182380Y-131008571D01*
X163182380Y-131246666D01*
X163134761Y-131341904D01*
X163087142Y-131389523D01*
X64122380Y-112402857D02*
X63646190Y-112736190D01*
X64122380Y-112974285D02*
X63122380Y-112974285D01*
X63122380Y-112593333D01*
X63170000Y-112498095D01*
X63217619Y-112450476D01*
X63312857Y-112402857D01*
X63455714Y-112402857D01*
X63550952Y-112450476D01*
X63598571Y-112498095D01*
X63646190Y-112593333D01*
X63646190Y-112974285D01*
X64122380Y-111450476D02*
X64122380Y-112021904D01*
X64122380Y-111736190D02*
X63122380Y-111736190D01*
X63265238Y-111831428D01*
X63360476Y-111926666D01*
X63408095Y-112021904D01*
X64122380Y-110498095D02*
X64122380Y-111069523D01*
X64122380Y-110783809D02*
X63122380Y-110783809D01*
X63265238Y-110879047D01*
X63360476Y-110974285D01*
X63408095Y-111069523D01*
X213982380Y-130182857D02*
X213506190Y-130516190D01*
X213982380Y-130754285D02*
X212982380Y-130754285D01*
X212982380Y-130373333D01*
X213030000Y-130278095D01*
X213077619Y-130230476D01*
X213172857Y-130182857D01*
X213315714Y-130182857D01*
X213410952Y-130230476D01*
X213458571Y-130278095D01*
X213506190Y-130373333D01*
X213506190Y-130754285D01*
X213077619Y-129801904D02*
X213030000Y-129754285D01*
X212982380Y-129659047D01*
X212982380Y-129420952D01*
X213030000Y-129325714D01*
X213077619Y-129278095D01*
X213172857Y-129230476D01*
X213268095Y-129230476D01*
X213410952Y-129278095D01*
X213982380Y-129849523D01*
X213982380Y-129230476D01*
X212982380Y-128611428D02*
X212982380Y-128516190D01*
X213030000Y-128420952D01*
X213077619Y-128373333D01*
X213172857Y-128325714D01*
X213363333Y-128278095D01*
X213601428Y-128278095D01*
X213791904Y-128325714D01*
X213887142Y-128373333D01*
X213934761Y-128420952D01*
X213982380Y-128516190D01*
X213982380Y-128611428D01*
X213934761Y-128706666D01*
X213887142Y-128754285D01*
X213791904Y-128801904D01*
X213601428Y-128849523D01*
X213363333Y-128849523D01*
X213172857Y-128801904D01*
X213077619Y-128754285D01*
X213030000Y-128706666D01*
X212982380Y-128611428D01*
X63333333Y-147942380D02*
X63000000Y-147466190D01*
X62761904Y-147942380D02*
X62761904Y-146942380D01*
X63142857Y-146942380D01*
X63238095Y-146990000D01*
X63285714Y-147037619D01*
X63333333Y-147132857D01*
X63333333Y-147275714D01*
X63285714Y-147370952D01*
X63238095Y-147418571D01*
X63142857Y-147466190D01*
X62761904Y-147466190D01*
X63666666Y-146942380D02*
X64285714Y-146942380D01*
X63952380Y-147323333D01*
X64095238Y-147323333D01*
X64190476Y-147370952D01*
X64238095Y-147418571D01*
X64285714Y-147513809D01*
X64285714Y-147751904D01*
X64238095Y-147847142D01*
X64190476Y-147894761D01*
X64095238Y-147942380D01*
X63809523Y-147942380D01*
X63714285Y-147894761D01*
X63666666Y-147847142D01*
X118165714Y-180862380D02*
X118165714Y-179862380D01*
X118403809Y-179862380D01*
X118546666Y-179910000D01*
X118641904Y-180005238D01*
X118689523Y-180100476D01*
X118737142Y-180290952D01*
X118737142Y-180433809D01*
X118689523Y-180624285D01*
X118641904Y-180719523D01*
X118546666Y-180814761D01*
X118403809Y-180862380D01*
X118165714Y-180862380D01*
X119689523Y-180862380D02*
X119118095Y-180862380D01*
X119403809Y-180862380D02*
X119403809Y-179862380D01*
X119308571Y-180005238D01*
X119213333Y-180100476D01*
X119118095Y-180148095D01*
X120260952Y-180290952D02*
X120165714Y-180243333D01*
X120118095Y-180195714D01*
X120070476Y-180100476D01*
X120070476Y-180052857D01*
X120118095Y-179957619D01*
X120165714Y-179910000D01*
X120260952Y-179862380D01*
X120451428Y-179862380D01*
X120546666Y-179910000D01*
X120594285Y-179957619D01*
X120641904Y-180052857D01*
X120641904Y-180100476D01*
X120594285Y-180195714D01*
X120546666Y-180243333D01*
X120451428Y-180290952D01*
X120260952Y-180290952D01*
X120165714Y-180338571D01*
X120118095Y-180386190D01*
X120070476Y-180481428D01*
X120070476Y-180671904D01*
X120118095Y-180767142D01*
X120165714Y-180814761D01*
X120260952Y-180862380D01*
X120451428Y-180862380D01*
X120546666Y-180814761D01*
X120594285Y-180767142D01*
X120641904Y-180671904D01*
X120641904Y-180481428D01*
X120594285Y-180386190D01*
X120546666Y-180338571D01*
X120451428Y-180290952D01*
X114038095Y-181232380D02*
X114038095Y-180232380D01*
X114609523Y-181232380D02*
X114180952Y-180660952D01*
X114609523Y-180232380D02*
X114038095Y-180803809D01*
D12*
X140274523Y-112999761D02*
X139004523Y-112999761D01*
X140153571Y-111669285D02*
X140214047Y-111729761D01*
X140274523Y-111911190D01*
X140274523Y-112032142D01*
X140214047Y-112213571D01*
X140093095Y-112334523D01*
X139972142Y-112395000D01*
X139730238Y-112455476D01*
X139548809Y-112455476D01*
X139306904Y-112395000D01*
X139185952Y-112334523D01*
X139065000Y-112213571D01*
X139004523Y-112032142D01*
X139004523Y-111911190D01*
X139065000Y-111729761D01*
X139125476Y-111669285D01*
X139004523Y-110520238D02*
X139004523Y-111125000D01*
X139609285Y-111185476D01*
X139548809Y-111125000D01*
X139488333Y-111004047D01*
X139488333Y-110701666D01*
X139548809Y-110580714D01*
X139609285Y-110520238D01*
X139730238Y-110459761D01*
X140032619Y-110459761D01*
X140153571Y-110520238D01*
X140214047Y-110580714D01*
X140274523Y-110701666D01*
X140274523Y-111004047D01*
X140214047Y-111125000D01*
X140153571Y-111185476D01*
D11*
X123708095Y-145722380D02*
X123708095Y-146531904D01*
X123755714Y-146627142D01*
X123803333Y-146674761D01*
X123898571Y-146722380D01*
X124089047Y-146722380D01*
X124184285Y-146674761D01*
X124231904Y-146627142D01*
X124279523Y-146531904D01*
X124279523Y-145722380D01*
X125184285Y-145722380D02*
X124993809Y-145722380D01*
X124898571Y-145770000D01*
X124850952Y-145817619D01*
X124755714Y-145960476D01*
X124708095Y-146150952D01*
X124708095Y-146531904D01*
X124755714Y-146627142D01*
X124803333Y-146674761D01*
X124898571Y-146722380D01*
X125089047Y-146722380D01*
X125184285Y-146674761D01*
X125231904Y-146627142D01*
X125279523Y-146531904D01*
X125279523Y-146293809D01*
X125231904Y-146198571D01*
X125184285Y-146150952D01*
X125089047Y-146103333D01*
X124898571Y-146103333D01*
X124803333Y-146150952D01*
X124755714Y-146198571D01*
X124708095Y-146293809D01*
D12*
X67703333Y-168093571D02*
X67642857Y-168154047D01*
X67461428Y-168214523D01*
X67340476Y-168214523D01*
X67159047Y-168154047D01*
X67038095Y-168033095D01*
X66977619Y-167912142D01*
X66917142Y-167670238D01*
X66917142Y-167488809D01*
X66977619Y-167246904D01*
X67038095Y-167125952D01*
X67159047Y-167005000D01*
X67340476Y-166944523D01*
X67461428Y-166944523D01*
X67642857Y-167005000D01*
X67703333Y-167065476D01*
X68126666Y-166944523D02*
X68912857Y-166944523D01*
X68489523Y-167428333D01*
X68670952Y-167428333D01*
X68791904Y-167488809D01*
X68852380Y-167549285D01*
X68912857Y-167670238D01*
X68912857Y-167972619D01*
X68852380Y-168093571D01*
X68791904Y-168154047D01*
X68670952Y-168214523D01*
X68308095Y-168214523D01*
X68187142Y-168154047D01*
X68126666Y-168093571D01*
D11*
X204525714Y-122442380D02*
X204525714Y-121442380D01*
X204763809Y-121442380D01*
X204906666Y-121490000D01*
X205001904Y-121585238D01*
X205049523Y-121680476D01*
X205097142Y-121870952D01*
X205097142Y-122013809D01*
X205049523Y-122204285D01*
X205001904Y-122299523D01*
X204906666Y-122394761D01*
X204763809Y-122442380D01*
X204525714Y-122442380D01*
X206049523Y-122442380D02*
X205478095Y-122442380D01*
X205763809Y-122442380D02*
X205763809Y-121442380D01*
X205668571Y-121585238D01*
X205573333Y-121680476D01*
X205478095Y-121728095D01*
X207001904Y-122442380D02*
X206430476Y-122442380D01*
X206716190Y-122442380D02*
X206716190Y-121442380D01*
X206620952Y-121585238D01*
X206525714Y-121680476D01*
X206430476Y-121728095D01*
X200398095Y-122812380D02*
X200398095Y-121812380D01*
X200969523Y-122812380D02*
X200540952Y-122240952D01*
X200969523Y-121812380D02*
X200398095Y-122383809D01*
D12*
X241874523Y-112999761D02*
X240604523Y-112999761D01*
X241753571Y-111669285D02*
X241814047Y-111729761D01*
X241874523Y-111911190D01*
X241874523Y-112032142D01*
X241814047Y-112213571D01*
X241693095Y-112334523D01*
X241572142Y-112395000D01*
X241330238Y-112455476D01*
X241148809Y-112455476D01*
X240906904Y-112395000D01*
X240785952Y-112334523D01*
X240665000Y-112213571D01*
X240604523Y-112032142D01*
X240604523Y-111911190D01*
X240665000Y-111729761D01*
X240725476Y-111669285D01*
X241148809Y-110943571D02*
X241088333Y-111064523D01*
X241027857Y-111125000D01*
X240906904Y-111185476D01*
X240846428Y-111185476D01*
X240725476Y-111125000D01*
X240665000Y-111064523D01*
X240604523Y-110943571D01*
X240604523Y-110701666D01*
X240665000Y-110580714D01*
X240725476Y-110520238D01*
X240846428Y-110459761D01*
X240906904Y-110459761D01*
X241027857Y-110520238D01*
X241088333Y-110580714D01*
X241148809Y-110701666D01*
X241148809Y-110943571D01*
X241209285Y-111064523D01*
X241269761Y-111125000D01*
X241390714Y-111185476D01*
X241632619Y-111185476D01*
X241753571Y-111125000D01*
X241814047Y-111064523D01*
X241874523Y-110943571D01*
X241874523Y-110701666D01*
X241814047Y-110580714D01*
X241753571Y-110520238D01*
X241632619Y-110459761D01*
X241390714Y-110459761D01*
X241269761Y-110520238D01*
X241209285Y-110580714D01*
X241148809Y-110701666D01*
D11*
X156592142Y-54402380D02*
X156258809Y-53926190D01*
X156020714Y-54402380D02*
X156020714Y-53402380D01*
X156401666Y-53402380D01*
X156496904Y-53450000D01*
X156544523Y-53497619D01*
X156592142Y-53592857D01*
X156592142Y-53735714D01*
X156544523Y-53830952D01*
X156496904Y-53878571D01*
X156401666Y-53926190D01*
X156020714Y-53926190D01*
X157496904Y-53402380D02*
X157020714Y-53402380D01*
X156973095Y-53878571D01*
X157020714Y-53830952D01*
X157115952Y-53783333D01*
X157354047Y-53783333D01*
X157449285Y-53830952D01*
X157496904Y-53878571D01*
X157544523Y-53973809D01*
X157544523Y-54211904D01*
X157496904Y-54307142D01*
X157449285Y-54354761D01*
X157354047Y-54402380D01*
X157115952Y-54402380D01*
X157020714Y-54354761D01*
X156973095Y-54307142D01*
X158401666Y-53735714D02*
X158401666Y-54402380D01*
X158163571Y-53354761D02*
X157925476Y-54069047D01*
X158544523Y-54069047D01*
X243381904Y-160472380D02*
X243381904Y-159472380D01*
X243620000Y-159472380D01*
X243762857Y-159520000D01*
X243858095Y-159615238D01*
X243905714Y-159710476D01*
X243953333Y-159900952D01*
X243953333Y-160043809D01*
X243905714Y-160234285D01*
X243858095Y-160329523D01*
X243762857Y-160424761D01*
X243620000Y-160472380D01*
X243381904Y-160472380D01*
X244905714Y-160472380D02*
X244334285Y-160472380D01*
X244620000Y-160472380D02*
X244620000Y-159472380D01*
X244524761Y-159615238D01*
X244429523Y-159710476D01*
X244334285Y-159758095D01*
X253738095Y-165112380D02*
X253738095Y-164112380D01*
X254309523Y-165112380D02*
X253880952Y-164540952D01*
X254309523Y-164112380D02*
X253738095Y-164683809D01*
D12*
X34320238Y-132654523D02*
X34320238Y-131384523D01*
X35650714Y-132533571D02*
X35590238Y-132594047D01*
X35408809Y-132654523D01*
X35287857Y-132654523D01*
X35106428Y-132594047D01*
X34985476Y-132473095D01*
X34925000Y-132352142D01*
X34864523Y-132110238D01*
X34864523Y-131928809D01*
X34925000Y-131686904D01*
X34985476Y-131565952D01*
X35106428Y-131445000D01*
X35287857Y-131384523D01*
X35408809Y-131384523D01*
X35590238Y-131445000D01*
X35650714Y-131505476D01*
X36134523Y-131505476D02*
X36195000Y-131445000D01*
X36315952Y-131384523D01*
X36618333Y-131384523D01*
X36739285Y-131445000D01*
X36799761Y-131505476D01*
X36860238Y-131626428D01*
X36860238Y-131747380D01*
X36799761Y-131928809D01*
X36074047Y-132654523D01*
X36860238Y-132654523D01*
D11*
X34821904Y-158002380D02*
X34821904Y-157002380D01*
X35060000Y-157002380D01*
X35202857Y-157050000D01*
X35298095Y-157145238D01*
X35345714Y-157240476D01*
X35393333Y-157430952D01*
X35393333Y-157573809D01*
X35345714Y-157764285D01*
X35298095Y-157859523D01*
X35202857Y-157954761D01*
X35060000Y-158002380D01*
X34821904Y-158002380D01*
X35726666Y-157002380D02*
X36345714Y-157002380D01*
X36012380Y-157383333D01*
X36155238Y-157383333D01*
X36250476Y-157430952D01*
X36298095Y-157478571D01*
X36345714Y-157573809D01*
X36345714Y-157811904D01*
X36298095Y-157907142D01*
X36250476Y-157954761D01*
X36155238Y-158002380D01*
X35869523Y-158002380D01*
X35774285Y-157954761D01*
X35726666Y-157907142D01*
X30218095Y-158372380D02*
X30218095Y-157372380D01*
X30789523Y-158372380D02*
X30360952Y-157800952D01*
X30789523Y-157372380D02*
X30218095Y-157943809D01*
X189271904Y-117782380D02*
X189271904Y-118591904D01*
X189319523Y-118687142D01*
X189367142Y-118734761D01*
X189462380Y-118782380D01*
X189652857Y-118782380D01*
X189748095Y-118734761D01*
X189795714Y-118687142D01*
X189843333Y-118591904D01*
X189843333Y-117782380D01*
X190843333Y-118782380D02*
X190271904Y-118782380D01*
X190557619Y-118782380D02*
X190557619Y-117782380D01*
X190462380Y-117925238D01*
X190367142Y-118020476D01*
X190271904Y-118068095D01*
X191462380Y-117782380D02*
X191557619Y-117782380D01*
X191652857Y-117830000D01*
X191700476Y-117877619D01*
X191748095Y-117972857D01*
X191795714Y-118163333D01*
X191795714Y-118401428D01*
X191748095Y-118591904D01*
X191700476Y-118687142D01*
X191652857Y-118734761D01*
X191557619Y-118782380D01*
X191462380Y-118782380D01*
X191367142Y-118734761D01*
X191319523Y-118687142D01*
X191271904Y-118591904D01*
X191224285Y-118401428D01*
X191224285Y-118163333D01*
X191271904Y-117972857D01*
X191319523Y-117877619D01*
X191367142Y-117830000D01*
X191462380Y-117782380D01*
X279346666Y-172242380D02*
X279346666Y-172956666D01*
X279299047Y-173099523D01*
X279203809Y-173194761D01*
X279060952Y-173242380D01*
X278965714Y-173242380D01*
X280251428Y-172575714D02*
X280251428Y-173242380D01*
X280013333Y-172194761D02*
X279775238Y-172909047D01*
X280394285Y-172909047D01*
D12*
X272838571Y-152853571D02*
X272778095Y-152914047D01*
X272596666Y-152974523D01*
X272475714Y-152974523D01*
X272294285Y-152914047D01*
X272173333Y-152793095D01*
X272112857Y-152672142D01*
X272052380Y-152430238D01*
X272052380Y-152248809D01*
X272112857Y-152006904D01*
X272173333Y-151885952D01*
X272294285Y-151765000D01*
X272475714Y-151704523D01*
X272596666Y-151704523D01*
X272778095Y-151765000D01*
X272838571Y-151825476D01*
X274048095Y-152974523D02*
X273322380Y-152974523D01*
X273685238Y-152974523D02*
X273685238Y-151704523D01*
X273564285Y-151885952D01*
X273443333Y-152006904D01*
X273322380Y-152067380D01*
X275257619Y-152974523D02*
X274531904Y-152974523D01*
X274894761Y-152974523D02*
X274894761Y-151704523D01*
X274773809Y-151885952D01*
X274652857Y-152006904D01*
X274531904Y-152067380D01*
D11*
X32805714Y-178180000D02*
X32710476Y-178132380D01*
X32567619Y-178132380D01*
X32424761Y-178180000D01*
X32329523Y-178275238D01*
X32281904Y-178370476D01*
X32234285Y-178560952D01*
X32234285Y-178703809D01*
X32281904Y-178894285D01*
X32329523Y-178989523D01*
X32424761Y-179084761D01*
X32567619Y-179132380D01*
X32662857Y-179132380D01*
X32805714Y-179084761D01*
X32853333Y-179037142D01*
X32853333Y-178703809D01*
X32662857Y-178703809D01*
X33805714Y-179132380D02*
X33234285Y-179132380D01*
X33520000Y-179132380D02*
X33520000Y-178132380D01*
X33424761Y-178275238D01*
X33329523Y-178370476D01*
X33234285Y-178418095D01*
X48882380Y-112402857D02*
X48406190Y-112736190D01*
X48882380Y-112974285D02*
X47882380Y-112974285D01*
X47882380Y-112593333D01*
X47930000Y-112498095D01*
X47977619Y-112450476D01*
X48072857Y-112402857D01*
X48215714Y-112402857D01*
X48310952Y-112450476D01*
X48358571Y-112498095D01*
X48406190Y-112593333D01*
X48406190Y-112974285D01*
X47977619Y-112021904D02*
X47930000Y-111974285D01*
X47882380Y-111879047D01*
X47882380Y-111640952D01*
X47930000Y-111545714D01*
X47977619Y-111498095D01*
X48072857Y-111450476D01*
X48168095Y-111450476D01*
X48310952Y-111498095D01*
X48882380Y-112069523D01*
X48882380Y-111450476D01*
X47882380Y-110593333D02*
X47882380Y-110783809D01*
X47930000Y-110879047D01*
X47977619Y-110926666D01*
X48120476Y-111021904D01*
X48310952Y-111069523D01*
X48691904Y-111069523D01*
X48787142Y-111021904D01*
X48834761Y-110974285D01*
X48882380Y-110879047D01*
X48882380Y-110688571D01*
X48834761Y-110593333D01*
X48787142Y-110545714D01*
X48691904Y-110498095D01*
X48453809Y-110498095D01*
X48358571Y-110545714D01*
X48310952Y-110593333D01*
X48263333Y-110688571D01*
X48263333Y-110879047D01*
X48310952Y-110974285D01*
X48358571Y-111021904D01*
X48453809Y-111069523D01*
X153725714Y-135142380D02*
X153725714Y-134142380D01*
X153963809Y-134142380D01*
X154106666Y-134190000D01*
X154201904Y-134285238D01*
X154249523Y-134380476D01*
X154297142Y-134570952D01*
X154297142Y-134713809D01*
X154249523Y-134904285D01*
X154201904Y-134999523D01*
X154106666Y-135094761D01*
X153963809Y-135142380D01*
X153725714Y-135142380D01*
X155249523Y-135142380D02*
X154678095Y-135142380D01*
X154963809Y-135142380D02*
X154963809Y-134142380D01*
X154868571Y-134285238D01*
X154773333Y-134380476D01*
X154678095Y-134428095D01*
X155868571Y-134142380D02*
X155963809Y-134142380D01*
X156059047Y-134190000D01*
X156106666Y-134237619D01*
X156154285Y-134332857D01*
X156201904Y-134523333D01*
X156201904Y-134761428D01*
X156154285Y-134951904D01*
X156106666Y-135047142D01*
X156059047Y-135094761D01*
X155963809Y-135142380D01*
X155868571Y-135142380D01*
X155773333Y-135094761D01*
X155725714Y-135047142D01*
X155678095Y-134951904D01*
X155630476Y-134761428D01*
X155630476Y-134523333D01*
X155678095Y-134332857D01*
X155725714Y-134237619D01*
X155773333Y-134190000D01*
X155868571Y-134142380D01*
X149598095Y-135512380D02*
X149598095Y-134512380D01*
X150169523Y-135512380D02*
X149740952Y-134940952D01*
X150169523Y-134512380D02*
X149598095Y-135083809D01*
D12*
X90744523Y-168607619D02*
X91772619Y-168607619D01*
X91893571Y-168547142D01*
X91954047Y-168486666D01*
X92014523Y-168365714D01*
X92014523Y-168123809D01*
X91954047Y-168002857D01*
X91893571Y-167942380D01*
X91772619Y-167881904D01*
X90744523Y-167881904D01*
X90744523Y-167398095D02*
X90744523Y-166551428D01*
X92014523Y-167095714D01*
D11*
X88161904Y-155462380D02*
X88161904Y-154462380D01*
X88400000Y-154462380D01*
X88542857Y-154510000D01*
X88638095Y-154605238D01*
X88685714Y-154700476D01*
X88733333Y-154890952D01*
X88733333Y-155033809D01*
X88685714Y-155224285D01*
X88638095Y-155319523D01*
X88542857Y-155414761D01*
X88400000Y-155462380D01*
X88161904Y-155462380D01*
X89066666Y-154462380D02*
X89733333Y-154462380D01*
X89304761Y-155462380D01*
X83558095Y-155832380D02*
X83558095Y-154832380D01*
X84129523Y-155832380D02*
X83700952Y-155260952D01*
X84129523Y-154832380D02*
X83558095Y-155403809D01*
X99682380Y-112402857D02*
X99206190Y-112736190D01*
X99682380Y-112974285D02*
X98682380Y-112974285D01*
X98682380Y-112593333D01*
X98730000Y-112498095D01*
X98777619Y-112450476D01*
X98872857Y-112402857D01*
X99015714Y-112402857D01*
X99110952Y-112450476D01*
X99158571Y-112498095D01*
X99206190Y-112593333D01*
X99206190Y-112974285D01*
X98682380Y-112069523D02*
X98682380Y-111450476D01*
X99063333Y-111783809D01*
X99063333Y-111640952D01*
X99110952Y-111545714D01*
X99158571Y-111498095D01*
X99253809Y-111450476D01*
X99491904Y-111450476D01*
X99587142Y-111498095D01*
X99634761Y-111545714D01*
X99682380Y-111640952D01*
X99682380Y-111926666D01*
X99634761Y-112021904D01*
X99587142Y-112069523D01*
X99015714Y-110593333D02*
X99682380Y-110593333D01*
X98634761Y-110831428D02*
X99349047Y-111069523D01*
X99349047Y-110450476D01*
X143526904Y-45392380D02*
X143526904Y-46201904D01*
X143574523Y-46297142D01*
X143622142Y-46344761D01*
X143717380Y-46392380D01*
X143907857Y-46392380D01*
X144003095Y-46344761D01*
X144050714Y-46297142D01*
X144098333Y-46201904D01*
X144098333Y-45392380D01*
X145098333Y-46392380D02*
X144526904Y-46392380D01*
X144812619Y-46392380D02*
X144812619Y-45392380D01*
X144717380Y-45535238D01*
X144622142Y-45630476D01*
X144526904Y-45678095D01*
X145574523Y-46392380D02*
X145765000Y-46392380D01*
X145860238Y-46344761D01*
X145907857Y-46297142D01*
X146003095Y-46154285D01*
X146050714Y-45963809D01*
X146050714Y-45582857D01*
X146003095Y-45487619D01*
X145955476Y-45440000D01*
X145860238Y-45392380D01*
X145669761Y-45392380D01*
X145574523Y-45440000D01*
X145526904Y-45487619D01*
X145479285Y-45582857D01*
X145479285Y-45820952D01*
X145526904Y-45916190D01*
X145574523Y-45963809D01*
X145669761Y-46011428D01*
X145860238Y-46011428D01*
X145955476Y-45963809D01*
X146003095Y-45916190D01*
X146050714Y-45820952D01*
X120002380Y-130182857D02*
X119526190Y-130516190D01*
X120002380Y-130754285D02*
X119002380Y-130754285D01*
X119002380Y-130373333D01*
X119050000Y-130278095D01*
X119097619Y-130230476D01*
X119192857Y-130182857D01*
X119335714Y-130182857D01*
X119430952Y-130230476D01*
X119478571Y-130278095D01*
X119526190Y-130373333D01*
X119526190Y-130754285D01*
X119335714Y-129325714D02*
X120002380Y-129325714D01*
X118954761Y-129563809D02*
X119669047Y-129801904D01*
X119669047Y-129182857D01*
X120002380Y-128278095D02*
X120002380Y-128849523D01*
X120002380Y-128563809D02*
X119002380Y-128563809D01*
X119145238Y-128659047D01*
X119240476Y-128754285D01*
X119288095Y-128849523D01*
X114922380Y-112402857D02*
X114446190Y-112736190D01*
X114922380Y-112974285D02*
X113922380Y-112974285D01*
X113922380Y-112593333D01*
X113970000Y-112498095D01*
X114017619Y-112450476D01*
X114112857Y-112402857D01*
X114255714Y-112402857D01*
X114350952Y-112450476D01*
X114398571Y-112498095D01*
X114446190Y-112593333D01*
X114446190Y-112974285D01*
X113922380Y-112069523D02*
X113922380Y-111450476D01*
X114303333Y-111783809D01*
X114303333Y-111640952D01*
X114350952Y-111545714D01*
X114398571Y-111498095D01*
X114493809Y-111450476D01*
X114731904Y-111450476D01*
X114827142Y-111498095D01*
X114874761Y-111545714D01*
X114922380Y-111640952D01*
X114922380Y-111926666D01*
X114874761Y-112021904D01*
X114827142Y-112069523D01*
X114350952Y-110879047D02*
X114303333Y-110974285D01*
X114255714Y-111021904D01*
X114160476Y-111069523D01*
X114112857Y-111069523D01*
X114017619Y-111021904D01*
X113970000Y-110974285D01*
X113922380Y-110879047D01*
X113922380Y-110688571D01*
X113970000Y-110593333D01*
X114017619Y-110545714D01*
X114112857Y-110498095D01*
X114160476Y-110498095D01*
X114255714Y-110545714D01*
X114303333Y-110593333D01*
X114350952Y-110688571D01*
X114350952Y-110879047D01*
X114398571Y-110974285D01*
X114446190Y-111021904D01*
X114541428Y-111069523D01*
X114731904Y-111069523D01*
X114827142Y-111021904D01*
X114874761Y-110974285D01*
X114922380Y-110879047D01*
X114922380Y-110688571D01*
X114874761Y-110593333D01*
X114827142Y-110545714D01*
X114731904Y-110498095D01*
X114541428Y-110498095D01*
X114446190Y-110545714D01*
X114398571Y-110593333D01*
X114350952Y-110688571D01*
X284265714Y-178180000D02*
X284170476Y-178132380D01*
X284027619Y-178132380D01*
X283884761Y-178180000D01*
X283789523Y-178275238D01*
X283741904Y-178370476D01*
X283694285Y-178560952D01*
X283694285Y-178703809D01*
X283741904Y-178894285D01*
X283789523Y-178989523D01*
X283884761Y-179084761D01*
X284027619Y-179132380D01*
X284122857Y-179132380D01*
X284265714Y-179084761D01*
X284313333Y-179037142D01*
X284313333Y-178703809D01*
X284122857Y-178703809D01*
X284694285Y-178227619D02*
X284741904Y-178180000D01*
X284837142Y-178132380D01*
X285075238Y-178132380D01*
X285170476Y-178180000D01*
X285218095Y-178227619D01*
X285265714Y-178322857D01*
X285265714Y-178418095D01*
X285218095Y-178560952D01*
X284646666Y-179132380D01*
X285265714Y-179132380D01*
D12*
X174020238Y-132654523D02*
X174020238Y-131384523D01*
X175350714Y-132533571D02*
X175290238Y-132594047D01*
X175108809Y-132654523D01*
X174987857Y-132654523D01*
X174806428Y-132594047D01*
X174685476Y-132473095D01*
X174625000Y-132352142D01*
X174564523Y-132110238D01*
X174564523Y-131928809D01*
X174625000Y-131686904D01*
X174685476Y-131565952D01*
X174806428Y-131445000D01*
X174987857Y-131384523D01*
X175108809Y-131384523D01*
X175290238Y-131445000D01*
X175350714Y-131505476D01*
X176439285Y-131807857D02*
X176439285Y-132654523D01*
X176136904Y-131324047D02*
X175834523Y-132231190D01*
X176620714Y-132231190D01*
D11*
X71087142Y-66182380D02*
X70753809Y-65706190D01*
X70515714Y-66182380D02*
X70515714Y-65182380D01*
X70896666Y-65182380D01*
X70991904Y-65230000D01*
X71039523Y-65277619D01*
X71087142Y-65372857D01*
X71087142Y-65515714D01*
X71039523Y-65610952D01*
X70991904Y-65658571D01*
X70896666Y-65706190D01*
X70515714Y-65706190D01*
X71944285Y-65515714D02*
X71944285Y-66182380D01*
X71706190Y-65134761D02*
X71468095Y-65849047D01*
X72087142Y-65849047D01*
X72944285Y-65182380D02*
X72468095Y-65182380D01*
X72420476Y-65658571D01*
X72468095Y-65610952D01*
X72563333Y-65563333D01*
X72801428Y-65563333D01*
X72896666Y-65610952D01*
X72944285Y-65658571D01*
X72991904Y-65753809D01*
X72991904Y-65991904D01*
X72944285Y-66087142D01*
X72896666Y-66134761D01*
X72801428Y-66182380D01*
X72563333Y-66182380D01*
X72468095Y-66134761D01*
X72420476Y-66087142D01*
X170802380Y-112402857D02*
X170326190Y-112736190D01*
X170802380Y-112974285D02*
X169802380Y-112974285D01*
X169802380Y-112593333D01*
X169850000Y-112498095D01*
X169897619Y-112450476D01*
X169992857Y-112402857D01*
X170135714Y-112402857D01*
X170230952Y-112450476D01*
X170278571Y-112498095D01*
X170326190Y-112593333D01*
X170326190Y-112974285D01*
X170802380Y-111450476D02*
X170802380Y-112021904D01*
X170802380Y-111736190D02*
X169802380Y-111736190D01*
X169945238Y-111831428D01*
X170040476Y-111926666D01*
X170088095Y-112021904D01*
X169802380Y-110593333D02*
X169802380Y-110783809D01*
X169850000Y-110879047D01*
X169897619Y-110926666D01*
X170040476Y-111021904D01*
X170230952Y-111069523D01*
X170611904Y-111069523D01*
X170707142Y-111021904D01*
X170754761Y-110974285D01*
X170802380Y-110879047D01*
X170802380Y-110688571D01*
X170754761Y-110593333D01*
X170707142Y-110545714D01*
X170611904Y-110498095D01*
X170373809Y-110498095D01*
X170278571Y-110545714D01*
X170230952Y-110593333D01*
X170183333Y-110688571D01*
X170183333Y-110879047D01*
X170230952Y-110974285D01*
X170278571Y-111021904D01*
X170373809Y-111069523D01*
X114922380Y-130182857D02*
X114446190Y-130516190D01*
X114922380Y-130754285D02*
X113922380Y-130754285D01*
X113922380Y-130373333D01*
X113970000Y-130278095D01*
X114017619Y-130230476D01*
X114112857Y-130182857D01*
X114255714Y-130182857D01*
X114350952Y-130230476D01*
X114398571Y-130278095D01*
X114446190Y-130373333D01*
X114446190Y-130754285D01*
X114255714Y-129325714D02*
X114922380Y-129325714D01*
X113874761Y-129563809D02*
X114589047Y-129801904D01*
X114589047Y-129182857D01*
X113922380Y-128611428D02*
X113922380Y-128516190D01*
X113970000Y-128420952D01*
X114017619Y-128373333D01*
X114112857Y-128325714D01*
X114303333Y-128278095D01*
X114541428Y-128278095D01*
X114731904Y-128325714D01*
X114827142Y-128373333D01*
X114874761Y-128420952D01*
X114922380Y-128516190D01*
X114922380Y-128611428D01*
X114874761Y-128706666D01*
X114827142Y-128754285D01*
X114731904Y-128801904D01*
X114541428Y-128849523D01*
X114303333Y-128849523D01*
X114112857Y-128801904D01*
X114017619Y-128754285D01*
X113970000Y-128706666D01*
X113922380Y-128611428D01*
X108332142Y-68612380D02*
X107998809Y-68136190D01*
X107760714Y-68612380D02*
X107760714Y-67612380D01*
X108141666Y-67612380D01*
X108236904Y-67660000D01*
X108284523Y-67707619D01*
X108332142Y-67802857D01*
X108332142Y-67945714D01*
X108284523Y-68040952D01*
X108236904Y-68088571D01*
X108141666Y-68136190D01*
X107760714Y-68136190D01*
X109189285Y-67612380D02*
X108998809Y-67612380D01*
X108903571Y-67660000D01*
X108855952Y-67707619D01*
X108760714Y-67850476D01*
X108713095Y-68040952D01*
X108713095Y-68421904D01*
X108760714Y-68517142D01*
X108808333Y-68564761D01*
X108903571Y-68612380D01*
X109094047Y-68612380D01*
X109189285Y-68564761D01*
X109236904Y-68517142D01*
X109284523Y-68421904D01*
X109284523Y-68183809D01*
X109236904Y-68088571D01*
X109189285Y-68040952D01*
X109094047Y-67993333D01*
X108903571Y-67993333D01*
X108808333Y-68040952D01*
X108760714Y-68088571D01*
X108713095Y-68183809D01*
X109617857Y-67612380D02*
X110236904Y-67612380D01*
X109903571Y-67993333D01*
X110046428Y-67993333D01*
X110141666Y-68040952D01*
X110189285Y-68088571D01*
X110236904Y-68183809D01*
X110236904Y-68421904D01*
X110189285Y-68517142D01*
X110141666Y-68564761D01*
X110046428Y-68612380D01*
X109760714Y-68612380D01*
X109665476Y-68564761D01*
X109617857Y-68517142D01*
X169902142Y-54402380D02*
X169568809Y-53926190D01*
X169330714Y-54402380D02*
X169330714Y-53402380D01*
X169711666Y-53402380D01*
X169806904Y-53450000D01*
X169854523Y-53497619D01*
X169902142Y-53592857D01*
X169902142Y-53735714D01*
X169854523Y-53830952D01*
X169806904Y-53878571D01*
X169711666Y-53926190D01*
X169330714Y-53926190D01*
X170806904Y-53402380D02*
X170330714Y-53402380D01*
X170283095Y-53878571D01*
X170330714Y-53830952D01*
X170425952Y-53783333D01*
X170664047Y-53783333D01*
X170759285Y-53830952D01*
X170806904Y-53878571D01*
X170854523Y-53973809D01*
X170854523Y-54211904D01*
X170806904Y-54307142D01*
X170759285Y-54354761D01*
X170664047Y-54402380D01*
X170425952Y-54402380D01*
X170330714Y-54354761D01*
X170283095Y-54307142D01*
X171806904Y-54402380D02*
X171235476Y-54402380D01*
X171521190Y-54402380D02*
X171521190Y-53402380D01*
X171425952Y-53545238D01*
X171330714Y-53640476D01*
X171235476Y-53688095D01*
X108332142Y-64562380D02*
X107998809Y-64086190D01*
X107760714Y-64562380D02*
X107760714Y-63562380D01*
X108141666Y-63562380D01*
X108236904Y-63610000D01*
X108284523Y-63657619D01*
X108332142Y-63752857D01*
X108332142Y-63895714D01*
X108284523Y-63990952D01*
X108236904Y-64038571D01*
X108141666Y-64086190D01*
X107760714Y-64086190D01*
X109189285Y-63562380D02*
X108998809Y-63562380D01*
X108903571Y-63610000D01*
X108855952Y-63657619D01*
X108760714Y-63800476D01*
X108713095Y-63990952D01*
X108713095Y-64371904D01*
X108760714Y-64467142D01*
X108808333Y-64514761D01*
X108903571Y-64562380D01*
X109094047Y-64562380D01*
X109189285Y-64514761D01*
X109236904Y-64467142D01*
X109284523Y-64371904D01*
X109284523Y-64133809D01*
X109236904Y-64038571D01*
X109189285Y-63990952D01*
X109094047Y-63943333D01*
X108903571Y-63943333D01*
X108808333Y-63990952D01*
X108760714Y-64038571D01*
X108713095Y-64133809D01*
X109665476Y-63657619D02*
X109713095Y-63610000D01*
X109808333Y-63562380D01*
X110046428Y-63562380D01*
X110141666Y-63610000D01*
X110189285Y-63657619D01*
X110236904Y-63752857D01*
X110236904Y-63848095D01*
X110189285Y-63990952D01*
X109617857Y-64562380D01*
X110236904Y-64562380D01*
X121642142Y-64562380D02*
X121308809Y-64086190D01*
X121070714Y-64562380D02*
X121070714Y-63562380D01*
X121451666Y-63562380D01*
X121546904Y-63610000D01*
X121594523Y-63657619D01*
X121642142Y-63752857D01*
X121642142Y-63895714D01*
X121594523Y-63990952D01*
X121546904Y-64038571D01*
X121451666Y-64086190D01*
X121070714Y-64086190D01*
X122546904Y-63562380D02*
X122070714Y-63562380D01*
X122023095Y-64038571D01*
X122070714Y-63990952D01*
X122165952Y-63943333D01*
X122404047Y-63943333D01*
X122499285Y-63990952D01*
X122546904Y-64038571D01*
X122594523Y-64133809D01*
X122594523Y-64371904D01*
X122546904Y-64467142D01*
X122499285Y-64514761D01*
X122404047Y-64562380D01*
X122165952Y-64562380D01*
X122070714Y-64514761D01*
X122023095Y-64467142D01*
X123165952Y-63990952D02*
X123070714Y-63943333D01*
X123023095Y-63895714D01*
X122975476Y-63800476D01*
X122975476Y-63752857D01*
X123023095Y-63657619D01*
X123070714Y-63610000D01*
X123165952Y-63562380D01*
X123356428Y-63562380D01*
X123451666Y-63610000D01*
X123499285Y-63657619D01*
X123546904Y-63752857D01*
X123546904Y-63800476D01*
X123499285Y-63895714D01*
X123451666Y-63943333D01*
X123356428Y-63990952D01*
X123165952Y-63990952D01*
X123070714Y-64038571D01*
X123023095Y-64086190D01*
X122975476Y-64181428D01*
X122975476Y-64371904D01*
X123023095Y-64467142D01*
X123070714Y-64514761D01*
X123165952Y-64562380D01*
X123356428Y-64562380D01*
X123451666Y-64514761D01*
X123499285Y-64467142D01*
X123546904Y-64371904D01*
X123546904Y-64181428D01*
X123499285Y-64086190D01*
X123451666Y-64038571D01*
X123356428Y-63990952D01*
X255325714Y-132602380D02*
X255325714Y-131602380D01*
X255563809Y-131602380D01*
X255706666Y-131650000D01*
X255801904Y-131745238D01*
X255849523Y-131840476D01*
X255897142Y-132030952D01*
X255897142Y-132173809D01*
X255849523Y-132364285D01*
X255801904Y-132459523D01*
X255706666Y-132554761D01*
X255563809Y-132602380D01*
X255325714Y-132602380D01*
X256849523Y-132602380D02*
X256278095Y-132602380D01*
X256563809Y-132602380D02*
X256563809Y-131602380D01*
X256468571Y-131745238D01*
X256373333Y-131840476D01*
X256278095Y-131888095D01*
X257706666Y-131602380D02*
X257516190Y-131602380D01*
X257420952Y-131650000D01*
X257373333Y-131697619D01*
X257278095Y-131840476D01*
X257230476Y-132030952D01*
X257230476Y-132411904D01*
X257278095Y-132507142D01*
X257325714Y-132554761D01*
X257420952Y-132602380D01*
X257611428Y-132602380D01*
X257706666Y-132554761D01*
X257754285Y-132507142D01*
X257801904Y-132411904D01*
X257801904Y-132173809D01*
X257754285Y-132078571D01*
X257706666Y-132030952D01*
X257611428Y-131983333D01*
X257420952Y-131983333D01*
X257325714Y-132030952D01*
X257278095Y-132078571D01*
X257230476Y-132173809D01*
X251198095Y-132972380D02*
X251198095Y-131972380D01*
X251769523Y-132972380D02*
X251340952Y-132400952D01*
X251769523Y-131972380D02*
X251198095Y-132543809D01*
X95266904Y-55552380D02*
X95266904Y-56361904D01*
X95314523Y-56457142D01*
X95362142Y-56504761D01*
X95457380Y-56552380D01*
X95647857Y-56552380D01*
X95743095Y-56504761D01*
X95790714Y-56457142D01*
X95838333Y-56361904D01*
X95838333Y-55552380D01*
X96266904Y-55647619D02*
X96314523Y-55600000D01*
X96409761Y-55552380D01*
X96647857Y-55552380D01*
X96743095Y-55600000D01*
X96790714Y-55647619D01*
X96838333Y-55742857D01*
X96838333Y-55838095D01*
X96790714Y-55980952D01*
X96219285Y-56552380D01*
X96838333Y-56552380D01*
X97457380Y-55552380D02*
X97552619Y-55552380D01*
X97647857Y-55600000D01*
X97695476Y-55647619D01*
X97743095Y-55742857D01*
X97790714Y-55933333D01*
X97790714Y-56171428D01*
X97743095Y-56361904D01*
X97695476Y-56457142D01*
X97647857Y-56504761D01*
X97552619Y-56552380D01*
X97457380Y-56552380D01*
X97362142Y-56504761D01*
X97314523Y-56457142D01*
X97266904Y-56361904D01*
X97219285Y-56171428D01*
X97219285Y-55933333D01*
X97266904Y-55742857D01*
X97314523Y-55647619D01*
X97362142Y-55600000D01*
X97457380Y-55552380D01*
X238426666Y-174302380D02*
X238426666Y-175016666D01*
X238379047Y-175159523D01*
X238283809Y-175254761D01*
X238140952Y-175302380D01*
X238045714Y-175302380D01*
X238855238Y-174397619D02*
X238902857Y-174350000D01*
X238998095Y-174302380D01*
X239236190Y-174302380D01*
X239331428Y-174350000D01*
X239379047Y-174397619D01*
X239426666Y-174492857D01*
X239426666Y-174588095D01*
X239379047Y-174730952D01*
X238807619Y-175302380D01*
X239426666Y-175302380D01*
D12*
X263948333Y-165553571D02*
X263887857Y-165614047D01*
X263706428Y-165674523D01*
X263585476Y-165674523D01*
X263404047Y-165614047D01*
X263283095Y-165493095D01*
X263222619Y-165372142D01*
X263162142Y-165130238D01*
X263162142Y-164948809D01*
X263222619Y-164706904D01*
X263283095Y-164585952D01*
X263404047Y-164465000D01*
X263585476Y-164404523D01*
X263706428Y-164404523D01*
X263887857Y-164465000D01*
X263948333Y-164525476D01*
X264432142Y-164525476D02*
X264492619Y-164465000D01*
X264613571Y-164404523D01*
X264915952Y-164404523D01*
X265036904Y-164465000D01*
X265097380Y-164525476D01*
X265157857Y-164646428D01*
X265157857Y-164767380D01*
X265097380Y-164948809D01*
X264371666Y-165674523D01*
X265157857Y-165674523D01*
D11*
X108332142Y-56462380D02*
X107998809Y-55986190D01*
X107760714Y-56462380D02*
X107760714Y-55462380D01*
X108141666Y-55462380D01*
X108236904Y-55510000D01*
X108284523Y-55557619D01*
X108332142Y-55652857D01*
X108332142Y-55795714D01*
X108284523Y-55890952D01*
X108236904Y-55938571D01*
X108141666Y-55986190D01*
X107760714Y-55986190D01*
X109189285Y-55462380D02*
X108998809Y-55462380D01*
X108903571Y-55510000D01*
X108855952Y-55557619D01*
X108760714Y-55700476D01*
X108713095Y-55890952D01*
X108713095Y-56271904D01*
X108760714Y-56367142D01*
X108808333Y-56414761D01*
X108903571Y-56462380D01*
X109094047Y-56462380D01*
X109189285Y-56414761D01*
X109236904Y-56367142D01*
X109284523Y-56271904D01*
X109284523Y-56033809D01*
X109236904Y-55938571D01*
X109189285Y-55890952D01*
X109094047Y-55843333D01*
X108903571Y-55843333D01*
X108808333Y-55890952D01*
X108760714Y-55938571D01*
X108713095Y-56033809D01*
X110189285Y-55462380D02*
X109713095Y-55462380D01*
X109665476Y-55938571D01*
X109713095Y-55890952D01*
X109808333Y-55843333D01*
X110046428Y-55843333D01*
X110141666Y-55890952D01*
X110189285Y-55938571D01*
X110236904Y-56033809D01*
X110236904Y-56271904D01*
X110189285Y-56367142D01*
X110141666Y-56414761D01*
X110046428Y-56462380D01*
X109808333Y-56462380D01*
X109713095Y-56414761D01*
X109665476Y-56367142D01*
X169902142Y-50352380D02*
X169568809Y-49876190D01*
X169330714Y-50352380D02*
X169330714Y-49352380D01*
X169711666Y-49352380D01*
X169806904Y-49400000D01*
X169854523Y-49447619D01*
X169902142Y-49542857D01*
X169902142Y-49685714D01*
X169854523Y-49780952D01*
X169806904Y-49828571D01*
X169711666Y-49876190D01*
X169330714Y-49876190D01*
X170806904Y-49352380D02*
X170330714Y-49352380D01*
X170283095Y-49828571D01*
X170330714Y-49780952D01*
X170425952Y-49733333D01*
X170664047Y-49733333D01*
X170759285Y-49780952D01*
X170806904Y-49828571D01*
X170854523Y-49923809D01*
X170854523Y-50161904D01*
X170806904Y-50257142D01*
X170759285Y-50304761D01*
X170664047Y-50352380D01*
X170425952Y-50352380D01*
X170330714Y-50304761D01*
X170283095Y-50257142D01*
X171711666Y-49352380D02*
X171521190Y-49352380D01*
X171425952Y-49400000D01*
X171378333Y-49447619D01*
X171283095Y-49590476D01*
X171235476Y-49780952D01*
X171235476Y-50161904D01*
X171283095Y-50257142D01*
X171330714Y-50304761D01*
X171425952Y-50352380D01*
X171616428Y-50352380D01*
X171711666Y-50304761D01*
X171759285Y-50257142D01*
X171806904Y-50161904D01*
X171806904Y-49923809D01*
X171759285Y-49828571D01*
X171711666Y-49780952D01*
X171616428Y-49733333D01*
X171425952Y-49733333D01*
X171330714Y-49780952D01*
X171283095Y-49828571D01*
X171235476Y-49923809D01*
D12*
X55668333Y-168093571D02*
X55607857Y-168154047D01*
X55426428Y-168214523D01*
X55305476Y-168214523D01*
X55124047Y-168154047D01*
X55003095Y-168033095D01*
X54942619Y-167912142D01*
X54882142Y-167670238D01*
X54882142Y-167488809D01*
X54942619Y-167246904D01*
X55003095Y-167125952D01*
X55124047Y-167005000D01*
X55305476Y-166944523D01*
X55426428Y-166944523D01*
X55607857Y-167005000D01*
X55668333Y-167065476D01*
X56756904Y-167367857D02*
X56756904Y-168214523D01*
X56454523Y-166884047D02*
X56152142Y-167791190D01*
X56938333Y-167791190D01*
D11*
X156592142Y-50352380D02*
X156258809Y-49876190D01*
X156020714Y-50352380D02*
X156020714Y-49352380D01*
X156401666Y-49352380D01*
X156496904Y-49400000D01*
X156544523Y-49447619D01*
X156592142Y-49542857D01*
X156592142Y-49685714D01*
X156544523Y-49780952D01*
X156496904Y-49828571D01*
X156401666Y-49876190D01*
X156020714Y-49876190D01*
X157496904Y-49352380D02*
X157020714Y-49352380D01*
X156973095Y-49828571D01*
X157020714Y-49780952D01*
X157115952Y-49733333D01*
X157354047Y-49733333D01*
X157449285Y-49780952D01*
X157496904Y-49828571D01*
X157544523Y-49923809D01*
X157544523Y-50161904D01*
X157496904Y-50257142D01*
X157449285Y-50304761D01*
X157354047Y-50352380D01*
X157115952Y-50352380D01*
X157020714Y-50304761D01*
X156973095Y-50257142D01*
X158449285Y-49352380D02*
X157973095Y-49352380D01*
X157925476Y-49828571D01*
X157973095Y-49780952D01*
X158068333Y-49733333D01*
X158306428Y-49733333D01*
X158401666Y-49780952D01*
X158449285Y-49828571D01*
X158496904Y-49923809D01*
X158496904Y-50161904D01*
X158449285Y-50257142D01*
X158401666Y-50304761D01*
X158306428Y-50352380D01*
X158068333Y-50352380D01*
X157973095Y-50304761D01*
X157925476Y-50257142D01*
X164457142Y-175882380D02*
X164123809Y-175406190D01*
X163885714Y-175882380D02*
X163885714Y-174882380D01*
X164266666Y-174882380D01*
X164361904Y-174930000D01*
X164409523Y-174977619D01*
X164457142Y-175072857D01*
X164457142Y-175215714D01*
X164409523Y-175310952D01*
X164361904Y-175358571D01*
X164266666Y-175406190D01*
X163885714Y-175406190D01*
X164790476Y-174882380D02*
X165409523Y-174882380D01*
X165076190Y-175263333D01*
X165219047Y-175263333D01*
X165314285Y-175310952D01*
X165361904Y-175358571D01*
X165409523Y-175453809D01*
X165409523Y-175691904D01*
X165361904Y-175787142D01*
X165314285Y-175834761D01*
X165219047Y-175882380D01*
X164933333Y-175882380D01*
X164838095Y-175834761D01*
X164790476Y-175787142D01*
X166028571Y-174882380D02*
X166123809Y-174882380D01*
X166219047Y-174930000D01*
X166266666Y-174977619D01*
X166314285Y-175072857D01*
X166361904Y-175263333D01*
X166361904Y-175501428D01*
X166314285Y-175691904D01*
X166266666Y-175787142D01*
X166219047Y-175834761D01*
X166123809Y-175882380D01*
X166028571Y-175882380D01*
X165933333Y-175834761D01*
X165885714Y-175787142D01*
X165838095Y-175691904D01*
X165790476Y-175501428D01*
X165790476Y-175263333D01*
X165838095Y-175072857D01*
X165885714Y-174977619D01*
X165933333Y-174930000D01*
X166028571Y-174882380D01*
X61102380Y-181231904D02*
X61911904Y-181231904D01*
X62007142Y-181184285D01*
X62054761Y-181136666D01*
X62102380Y-181041428D01*
X62102380Y-180850952D01*
X62054761Y-180755714D01*
X62007142Y-180708095D01*
X61911904Y-180660476D01*
X61102380Y-180660476D01*
X61435714Y-179755714D02*
X62102380Y-179755714D01*
X61054761Y-179993809D02*
X61769047Y-180231904D01*
X61769047Y-179612857D01*
X121642142Y-60512380D02*
X121308809Y-60036190D01*
X121070714Y-60512380D02*
X121070714Y-59512380D01*
X121451666Y-59512380D01*
X121546904Y-59560000D01*
X121594523Y-59607619D01*
X121642142Y-59702857D01*
X121642142Y-59845714D01*
X121594523Y-59940952D01*
X121546904Y-59988571D01*
X121451666Y-60036190D01*
X121070714Y-60036190D01*
X122546904Y-59512380D02*
X122070714Y-59512380D01*
X122023095Y-59988571D01*
X122070714Y-59940952D01*
X122165952Y-59893333D01*
X122404047Y-59893333D01*
X122499285Y-59940952D01*
X122546904Y-59988571D01*
X122594523Y-60083809D01*
X122594523Y-60321904D01*
X122546904Y-60417142D01*
X122499285Y-60464761D01*
X122404047Y-60512380D01*
X122165952Y-60512380D01*
X122070714Y-60464761D01*
X122023095Y-60417142D01*
X123070714Y-60512380D02*
X123261190Y-60512380D01*
X123356428Y-60464761D01*
X123404047Y-60417142D01*
X123499285Y-60274285D01*
X123546904Y-60083809D01*
X123546904Y-59702857D01*
X123499285Y-59607619D01*
X123451666Y-59560000D01*
X123356428Y-59512380D01*
X123165952Y-59512380D01*
X123070714Y-59560000D01*
X123023095Y-59607619D01*
X122975476Y-59702857D01*
X122975476Y-59940952D01*
X123023095Y-60036190D01*
X123070714Y-60083809D01*
X123165952Y-60131428D01*
X123356428Y-60131428D01*
X123451666Y-60083809D01*
X123499285Y-60036190D01*
X123546904Y-59940952D01*
X154201904Y-124982380D02*
X154201904Y-123982380D01*
X154440000Y-123982380D01*
X154582857Y-124030000D01*
X154678095Y-124125238D01*
X154725714Y-124220476D01*
X154773333Y-124410952D01*
X154773333Y-124553809D01*
X154725714Y-124744285D01*
X154678095Y-124839523D01*
X154582857Y-124934761D01*
X154440000Y-124982380D01*
X154201904Y-124982380D01*
X155344761Y-124410952D02*
X155249523Y-124363333D01*
X155201904Y-124315714D01*
X155154285Y-124220476D01*
X155154285Y-124172857D01*
X155201904Y-124077619D01*
X155249523Y-124030000D01*
X155344761Y-123982380D01*
X155535238Y-123982380D01*
X155630476Y-124030000D01*
X155678095Y-124077619D01*
X155725714Y-124172857D01*
X155725714Y-124220476D01*
X155678095Y-124315714D01*
X155630476Y-124363333D01*
X155535238Y-124410952D01*
X155344761Y-124410952D01*
X155249523Y-124458571D01*
X155201904Y-124506190D01*
X155154285Y-124601428D01*
X155154285Y-124791904D01*
X155201904Y-124887142D01*
X155249523Y-124934761D01*
X155344761Y-124982380D01*
X155535238Y-124982380D01*
X155630476Y-124934761D01*
X155678095Y-124887142D01*
X155725714Y-124791904D01*
X155725714Y-124601428D01*
X155678095Y-124506190D01*
X155630476Y-124458571D01*
X155535238Y-124410952D01*
X149598095Y-125352380D02*
X149598095Y-124352380D01*
X150169523Y-125352380D02*
X149740952Y-124780952D01*
X150169523Y-124352380D02*
X149598095Y-124923809D01*
X87307380Y-181568095D02*
X88116904Y-181568095D01*
X88212142Y-181520476D01*
X88259761Y-181472857D01*
X88307380Y-181377619D01*
X88307380Y-181187142D01*
X88259761Y-181091904D01*
X88212142Y-181044285D01*
X88116904Y-180996666D01*
X87307380Y-180996666D01*
X88307380Y-179996666D02*
X88307380Y-180568095D01*
X88307380Y-180282380D02*
X87307380Y-180282380D01*
X87450238Y-180377619D01*
X87545476Y-180472857D01*
X87593095Y-180568095D01*
X87307380Y-179091904D02*
X87307380Y-179568095D01*
X87783571Y-179615714D01*
X87735952Y-179568095D01*
X87688333Y-179472857D01*
X87688333Y-179234761D01*
X87735952Y-179139523D01*
X87783571Y-179091904D01*
X87878809Y-179044285D01*
X88116904Y-179044285D01*
X88212142Y-179091904D01*
X88259761Y-179139523D01*
X88307380Y-179234761D01*
X88307380Y-179472857D01*
X88259761Y-179568095D01*
X88212142Y-179615714D01*
X139533333Y-163182380D02*
X139200000Y-162706190D01*
X138961904Y-163182380D02*
X138961904Y-162182380D01*
X139342857Y-162182380D01*
X139438095Y-162230000D01*
X139485714Y-162277619D01*
X139533333Y-162372857D01*
X139533333Y-162515714D01*
X139485714Y-162610952D01*
X139438095Y-162658571D01*
X139342857Y-162706190D01*
X138961904Y-162706190D01*
X140009523Y-163182380D02*
X140200000Y-163182380D01*
X140295238Y-163134761D01*
X140342857Y-163087142D01*
X140438095Y-162944285D01*
X140485714Y-162753809D01*
X140485714Y-162372857D01*
X140438095Y-162277619D01*
X140390476Y-162230000D01*
X140295238Y-162182380D01*
X140104761Y-162182380D01*
X140009523Y-162230000D01*
X139961904Y-162277619D01*
X139914285Y-162372857D01*
X139914285Y-162610952D01*
X139961904Y-162706190D01*
X140009523Y-162753809D01*
X140104761Y-162801428D01*
X140295238Y-162801428D01*
X140390476Y-162753809D01*
X140438095Y-162706190D01*
X140485714Y-162610952D01*
X88161904Y-150382380D02*
X88161904Y-149382380D01*
X88400000Y-149382380D01*
X88542857Y-149430000D01*
X88638095Y-149525238D01*
X88685714Y-149620476D01*
X88733333Y-149810952D01*
X88733333Y-149953809D01*
X88685714Y-150144285D01*
X88638095Y-150239523D01*
X88542857Y-150334761D01*
X88400000Y-150382380D01*
X88161904Y-150382380D01*
X89590476Y-149382380D02*
X89400000Y-149382380D01*
X89304761Y-149430000D01*
X89257142Y-149477619D01*
X89161904Y-149620476D01*
X89114285Y-149810952D01*
X89114285Y-150191904D01*
X89161904Y-150287142D01*
X89209523Y-150334761D01*
X89304761Y-150382380D01*
X89495238Y-150382380D01*
X89590476Y-150334761D01*
X89638095Y-150287142D01*
X89685714Y-150191904D01*
X89685714Y-149953809D01*
X89638095Y-149858571D01*
X89590476Y-149810952D01*
X89495238Y-149763333D01*
X89304761Y-149763333D01*
X89209523Y-149810952D01*
X89161904Y-149858571D01*
X89114285Y-149953809D01*
X83558095Y-150752380D02*
X83558095Y-149752380D01*
X84129523Y-150752380D02*
X83700952Y-150180952D01*
X84129523Y-149752380D02*
X83558095Y-150323809D01*
X277142380Y-130182857D02*
X276666190Y-130516190D01*
X277142380Y-130754285D02*
X276142380Y-130754285D01*
X276142380Y-130373333D01*
X276190000Y-130278095D01*
X276237619Y-130230476D01*
X276332857Y-130182857D01*
X276475714Y-130182857D01*
X276570952Y-130230476D01*
X276618571Y-130278095D01*
X276666190Y-130373333D01*
X276666190Y-130754285D01*
X276237619Y-129801904D02*
X276190000Y-129754285D01*
X276142380Y-129659047D01*
X276142380Y-129420952D01*
X276190000Y-129325714D01*
X276237619Y-129278095D01*
X276332857Y-129230476D01*
X276428095Y-129230476D01*
X276570952Y-129278095D01*
X277142380Y-129849523D01*
X277142380Y-129230476D01*
X276237619Y-128849523D02*
X276190000Y-128801904D01*
X276142380Y-128706666D01*
X276142380Y-128468571D01*
X276190000Y-128373333D01*
X276237619Y-128325714D01*
X276332857Y-128278095D01*
X276428095Y-128278095D01*
X276570952Y-128325714D01*
X277142380Y-128897142D01*
X277142380Y-128278095D01*
X32830089Y-20700000D02*
X32740803Y-20652380D01*
X32597946Y-20652380D01*
X32449136Y-20700000D01*
X32341994Y-20795238D01*
X32282470Y-20890476D01*
X32211041Y-21080952D01*
X32193184Y-21223809D01*
X32216994Y-21414285D01*
X32252708Y-21509523D01*
X32336041Y-21604761D01*
X32472946Y-21652380D01*
X32568184Y-21652380D01*
X32716994Y-21604761D01*
X32770565Y-21557142D01*
X32812232Y-21223809D01*
X32621755Y-21223809D01*
X33699136Y-20985714D02*
X33615803Y-21652380D01*
X33508660Y-20604761D02*
X33181279Y-21319047D01*
X33800327Y-21319047D01*
X31102380Y-112402857D02*
X30626190Y-112736190D01*
X31102380Y-112974285D02*
X30102380Y-112974285D01*
X30102380Y-112593333D01*
X30150000Y-112498095D01*
X30197619Y-112450476D01*
X30292857Y-112402857D01*
X30435714Y-112402857D01*
X30530952Y-112450476D01*
X30578571Y-112498095D01*
X30626190Y-112593333D01*
X30626190Y-112974285D01*
X31102380Y-111450476D02*
X31102380Y-112021904D01*
X31102380Y-111736190D02*
X30102380Y-111736190D01*
X30245238Y-111831428D01*
X30340476Y-111926666D01*
X30388095Y-112021904D01*
X30102380Y-110593333D02*
X30102380Y-110783809D01*
X30150000Y-110879047D01*
X30197619Y-110926666D01*
X30340476Y-111021904D01*
X30530952Y-111069523D01*
X30911904Y-111069523D01*
X31007142Y-111021904D01*
X31054761Y-110974285D01*
X31102380Y-110879047D01*
X31102380Y-110688571D01*
X31054761Y-110593333D01*
X31007142Y-110545714D01*
X30911904Y-110498095D01*
X30673809Y-110498095D01*
X30578571Y-110545714D01*
X30530952Y-110593333D01*
X30483333Y-110688571D01*
X30483333Y-110879047D01*
X30530952Y-110974285D01*
X30578571Y-111021904D01*
X30673809Y-111069523D01*
X204525714Y-132602380D02*
X204525714Y-131602380D01*
X204763809Y-131602380D01*
X204906666Y-131650000D01*
X205001904Y-131745238D01*
X205049523Y-131840476D01*
X205097142Y-132030952D01*
X205097142Y-132173809D01*
X205049523Y-132364285D01*
X205001904Y-132459523D01*
X204906666Y-132554761D01*
X204763809Y-132602380D01*
X204525714Y-132602380D01*
X206049523Y-132602380D02*
X205478095Y-132602380D01*
X205763809Y-132602380D02*
X205763809Y-131602380D01*
X205668571Y-131745238D01*
X205573333Y-131840476D01*
X205478095Y-131888095D01*
X206382857Y-131602380D02*
X207001904Y-131602380D01*
X206668571Y-131983333D01*
X206811428Y-131983333D01*
X206906666Y-132030952D01*
X206954285Y-132078571D01*
X207001904Y-132173809D01*
X207001904Y-132411904D01*
X206954285Y-132507142D01*
X206906666Y-132554761D01*
X206811428Y-132602380D01*
X206525714Y-132602380D01*
X206430476Y-132554761D01*
X206382857Y-132507142D01*
X200398095Y-132972380D02*
X200398095Y-131972380D01*
X200969523Y-132972380D02*
X200540952Y-132400952D01*
X200969523Y-131972380D02*
X200398095Y-132543809D01*
X225417142Y-175882380D02*
X225083809Y-175406190D01*
X224845714Y-175882380D02*
X224845714Y-174882380D01*
X225226666Y-174882380D01*
X225321904Y-174930000D01*
X225369523Y-174977619D01*
X225417142Y-175072857D01*
X225417142Y-175215714D01*
X225369523Y-175310952D01*
X225321904Y-175358571D01*
X225226666Y-175406190D01*
X224845714Y-175406190D01*
X225798095Y-174977619D02*
X225845714Y-174930000D01*
X225940952Y-174882380D01*
X226179047Y-174882380D01*
X226274285Y-174930000D01*
X226321904Y-174977619D01*
X226369523Y-175072857D01*
X226369523Y-175168095D01*
X226321904Y-175310952D01*
X225750476Y-175882380D01*
X226369523Y-175882380D01*
X226702857Y-174882380D02*
X227369523Y-174882380D01*
X226940952Y-175882380D01*
X62748095Y-133022380D02*
X62748095Y-133831904D01*
X62795714Y-133927142D01*
X62843333Y-133974761D01*
X62938571Y-134022380D01*
X63129047Y-134022380D01*
X63224285Y-133974761D01*
X63271904Y-133927142D01*
X63319523Y-133831904D01*
X63319523Y-133022380D01*
X63748095Y-133117619D02*
X63795714Y-133070000D01*
X63890952Y-133022380D01*
X64129047Y-133022380D01*
X64224285Y-133070000D01*
X64271904Y-133117619D01*
X64319523Y-133212857D01*
X64319523Y-133308095D01*
X64271904Y-133450952D01*
X63700476Y-134022380D01*
X64319523Y-134022380D01*
X34821904Y-152922380D02*
X34821904Y-151922380D01*
X35060000Y-151922380D01*
X35202857Y-151970000D01*
X35298095Y-152065238D01*
X35345714Y-152160476D01*
X35393333Y-152350952D01*
X35393333Y-152493809D01*
X35345714Y-152684285D01*
X35298095Y-152779523D01*
X35202857Y-152874761D01*
X35060000Y-152922380D01*
X34821904Y-152922380D01*
X36250476Y-152255714D02*
X36250476Y-152922380D01*
X36012380Y-151874761D02*
X35774285Y-152589047D01*
X36393333Y-152589047D01*
X30218095Y-153292380D02*
X30218095Y-152292380D01*
X30789523Y-153292380D02*
X30360952Y-152720952D01*
X30789523Y-152292380D02*
X30218095Y-152863809D01*
D12*
X39944523Y-168607619D02*
X40972619Y-168607619D01*
X41093571Y-168547142D01*
X41154047Y-168486666D01*
X41214523Y-168365714D01*
X41214523Y-168123809D01*
X41154047Y-168002857D01*
X41093571Y-167942380D01*
X40972619Y-167881904D01*
X39944523Y-167881904D01*
X39944523Y-167398095D02*
X39944523Y-166611904D01*
X40428333Y-167035238D01*
X40428333Y-166853809D01*
X40488809Y-166732857D01*
X40549285Y-166672380D01*
X40670238Y-166611904D01*
X40972619Y-166611904D01*
X41093571Y-166672380D01*
X41154047Y-166732857D01*
X41214523Y-166853809D01*
X41214523Y-167216666D01*
X41154047Y-167337619D01*
X41093571Y-167398095D01*
D11*
X59042380Y-112402857D02*
X58566190Y-112736190D01*
X59042380Y-112974285D02*
X58042380Y-112974285D01*
X58042380Y-112593333D01*
X58090000Y-112498095D01*
X58137619Y-112450476D01*
X58232857Y-112402857D01*
X58375714Y-112402857D01*
X58470952Y-112450476D01*
X58518571Y-112498095D01*
X58566190Y-112593333D01*
X58566190Y-112974285D01*
X58137619Y-112021904D02*
X58090000Y-111974285D01*
X58042380Y-111879047D01*
X58042380Y-111640952D01*
X58090000Y-111545714D01*
X58137619Y-111498095D01*
X58232857Y-111450476D01*
X58328095Y-111450476D01*
X58470952Y-111498095D01*
X59042380Y-112069523D01*
X59042380Y-111450476D01*
X59042380Y-110498095D02*
X59042380Y-111069523D01*
X59042380Y-110783809D02*
X58042380Y-110783809D01*
X58185238Y-110879047D01*
X58280476Y-110974285D01*
X58328095Y-111069523D01*
X139533333Y-158102380D02*
X139200000Y-157626190D01*
X138961904Y-158102380D02*
X138961904Y-157102380D01*
X139342857Y-157102380D01*
X139438095Y-157150000D01*
X139485714Y-157197619D01*
X139533333Y-157292857D01*
X139533333Y-157435714D01*
X139485714Y-157530952D01*
X139438095Y-157578571D01*
X139342857Y-157626190D01*
X138961904Y-157626190D01*
X140104761Y-157530952D02*
X140009523Y-157483333D01*
X139961904Y-157435714D01*
X139914285Y-157340476D01*
X139914285Y-157292857D01*
X139961904Y-157197619D01*
X140009523Y-157150000D01*
X140104761Y-157102380D01*
X140295238Y-157102380D01*
X140390476Y-157150000D01*
X140438095Y-157197619D01*
X140485714Y-157292857D01*
X140485714Y-157340476D01*
X140438095Y-157435714D01*
X140390476Y-157483333D01*
X140295238Y-157530952D01*
X140104761Y-157530952D01*
X140009523Y-157578571D01*
X139961904Y-157626190D01*
X139914285Y-157721428D01*
X139914285Y-157911904D01*
X139961904Y-158007142D01*
X140009523Y-158054761D01*
X140104761Y-158102380D01*
X140295238Y-158102380D01*
X140390476Y-158054761D01*
X140438095Y-158007142D01*
X140485714Y-157911904D01*
X140485714Y-157721428D01*
X140438095Y-157626190D01*
X140390476Y-157578571D01*
X140295238Y-157530952D01*
D12*
X210003571Y-150313571D02*
X209943095Y-150374047D01*
X209761666Y-150434523D01*
X209640714Y-150434523D01*
X209459285Y-150374047D01*
X209338333Y-150253095D01*
X209277857Y-150132142D01*
X209217380Y-149890238D01*
X209217380Y-149708809D01*
X209277857Y-149466904D01*
X209338333Y-149345952D01*
X209459285Y-149225000D01*
X209640714Y-149164523D01*
X209761666Y-149164523D01*
X209943095Y-149225000D01*
X210003571Y-149285476D01*
X211213095Y-150434523D02*
X210487380Y-150434523D01*
X210850238Y-150434523D02*
X210850238Y-149164523D01*
X210729285Y-149345952D01*
X210608333Y-149466904D01*
X210487380Y-149527380D01*
X211999285Y-149164523D02*
X212120238Y-149164523D01*
X212241190Y-149225000D01*
X212301666Y-149285476D01*
X212362142Y-149406428D01*
X212422619Y-149648333D01*
X212422619Y-149950714D01*
X212362142Y-150192619D01*
X212301666Y-150313571D01*
X212241190Y-150374047D01*
X212120238Y-150434523D01*
X211999285Y-150434523D01*
X211878333Y-150374047D01*
X211817857Y-150313571D01*
X211757380Y-150192619D01*
X211696904Y-149950714D01*
X211696904Y-149648333D01*
X211757380Y-149406428D01*
X211817857Y-149285476D01*
X211878333Y-149225000D01*
X211999285Y-149164523D01*
D11*
X284762380Y-130182857D02*
X284286190Y-130516190D01*
X284762380Y-130754285D02*
X283762380Y-130754285D01*
X283762380Y-130373333D01*
X283810000Y-130278095D01*
X283857619Y-130230476D01*
X283952857Y-130182857D01*
X284095714Y-130182857D01*
X284190952Y-130230476D01*
X284238571Y-130278095D01*
X284286190Y-130373333D01*
X284286190Y-130754285D01*
X283857619Y-129801904D02*
X283810000Y-129754285D01*
X283762380Y-129659047D01*
X283762380Y-129420952D01*
X283810000Y-129325714D01*
X283857619Y-129278095D01*
X283952857Y-129230476D01*
X284048095Y-129230476D01*
X284190952Y-129278095D01*
X284762380Y-129849523D01*
X284762380Y-129230476D01*
X283762380Y-128373333D02*
X283762380Y-128563809D01*
X283810000Y-128659047D01*
X283857619Y-128706666D01*
X284000476Y-128801904D01*
X284190952Y-128849523D01*
X284571904Y-128849523D01*
X284667142Y-128801904D01*
X284714761Y-128754285D01*
X284762380Y-128659047D01*
X284762380Y-128468571D01*
X284714761Y-128373333D01*
X284667142Y-128325714D01*
X284571904Y-128278095D01*
X284333809Y-128278095D01*
X284238571Y-128325714D01*
X284190952Y-128373333D01*
X284143333Y-128468571D01*
X284143333Y-128659047D01*
X284190952Y-128754285D01*
X284238571Y-128801904D01*
X284333809Y-128849523D01*
D12*
X260803571Y-152853571D02*
X260743095Y-152914047D01*
X260561666Y-152974523D01*
X260440714Y-152974523D01*
X260259285Y-152914047D01*
X260138333Y-152793095D01*
X260077857Y-152672142D01*
X260017380Y-152430238D01*
X260017380Y-152248809D01*
X260077857Y-152006904D01*
X260138333Y-151885952D01*
X260259285Y-151765000D01*
X260440714Y-151704523D01*
X260561666Y-151704523D01*
X260743095Y-151765000D01*
X260803571Y-151825476D01*
X262013095Y-152974523D02*
X261287380Y-152974523D01*
X261650238Y-152974523D02*
X261650238Y-151704523D01*
X261529285Y-151885952D01*
X261408333Y-152006904D01*
X261287380Y-152067380D01*
X262496904Y-151825476D02*
X262557380Y-151765000D01*
X262678333Y-151704523D01*
X262980714Y-151704523D01*
X263101666Y-151765000D01*
X263162142Y-151825476D01*
X263222619Y-151946428D01*
X263222619Y-152067380D01*
X263162142Y-152248809D01*
X262436428Y-152974523D01*
X263222619Y-152974523D01*
D11*
X57777142Y-78332380D02*
X57443809Y-77856190D01*
X57205714Y-78332380D02*
X57205714Y-77332380D01*
X57586666Y-77332380D01*
X57681904Y-77380000D01*
X57729523Y-77427619D01*
X57777142Y-77522857D01*
X57777142Y-77665714D01*
X57729523Y-77760952D01*
X57681904Y-77808571D01*
X57586666Y-77856190D01*
X57205714Y-77856190D01*
X58634285Y-77665714D02*
X58634285Y-78332380D01*
X58396190Y-77284761D02*
X58158095Y-77999047D01*
X58777142Y-77999047D01*
X59586666Y-77332380D02*
X59396190Y-77332380D01*
X59300952Y-77380000D01*
X59253333Y-77427619D01*
X59158095Y-77570476D01*
X59110476Y-77760952D01*
X59110476Y-78141904D01*
X59158095Y-78237142D01*
X59205714Y-78284761D01*
X59300952Y-78332380D01*
X59491428Y-78332380D01*
X59586666Y-78284761D01*
X59634285Y-78237142D01*
X59681904Y-78141904D01*
X59681904Y-77903809D01*
X59634285Y-77808571D01*
X59586666Y-77760952D01*
X59491428Y-77713333D01*
X59300952Y-77713333D01*
X59205714Y-77760952D01*
X59158095Y-77808571D01*
X59110476Y-77903809D01*
X56502380Y-127642857D02*
X56026190Y-127976190D01*
X56502380Y-128214285D02*
X55502380Y-128214285D01*
X55502380Y-127833333D01*
X55550000Y-127738095D01*
X55597619Y-127690476D01*
X55692857Y-127642857D01*
X55835714Y-127642857D01*
X55930952Y-127690476D01*
X55978571Y-127738095D01*
X56026190Y-127833333D01*
X56026190Y-128214285D01*
X55502380Y-127309523D02*
X55502380Y-126690476D01*
X55883333Y-127023809D01*
X55883333Y-126880952D01*
X55930952Y-126785714D01*
X55978571Y-126738095D01*
X56073809Y-126690476D01*
X56311904Y-126690476D01*
X56407142Y-126738095D01*
X56454761Y-126785714D01*
X56502380Y-126880952D01*
X56502380Y-127166666D01*
X56454761Y-127261904D01*
X56407142Y-127309523D01*
X56502380Y-125738095D02*
X56502380Y-126309523D01*
X56502380Y-126023809D02*
X55502380Y-126023809D01*
X55645238Y-126119047D01*
X55740476Y-126214285D01*
X55788095Y-126309523D01*
X57777142Y-70232380D02*
X57443809Y-69756190D01*
X57205714Y-70232380D02*
X57205714Y-69232380D01*
X57586666Y-69232380D01*
X57681904Y-69280000D01*
X57729523Y-69327619D01*
X57777142Y-69422857D01*
X57777142Y-69565714D01*
X57729523Y-69660952D01*
X57681904Y-69708571D01*
X57586666Y-69756190D01*
X57205714Y-69756190D01*
X58634285Y-69565714D02*
X58634285Y-70232380D01*
X58396190Y-69184761D02*
X58158095Y-69899047D01*
X58777142Y-69899047D01*
X59205714Y-70232380D02*
X59396190Y-70232380D01*
X59491428Y-70184761D01*
X59539047Y-70137142D01*
X59634285Y-69994285D01*
X59681904Y-69803809D01*
X59681904Y-69422857D01*
X59634285Y-69327619D01*
X59586666Y-69280000D01*
X59491428Y-69232380D01*
X59300952Y-69232380D01*
X59205714Y-69280000D01*
X59158095Y-69327619D01*
X59110476Y-69422857D01*
X59110476Y-69660952D01*
X59158095Y-69756190D01*
X59205714Y-69803809D01*
X59300952Y-69851428D01*
X59491428Y-69851428D01*
X59586666Y-69803809D01*
X59634285Y-69756190D01*
X59681904Y-69660952D01*
X175882380Y-112402857D02*
X175406190Y-112736190D01*
X175882380Y-112974285D02*
X174882380Y-112974285D01*
X174882380Y-112593333D01*
X174930000Y-112498095D01*
X174977619Y-112450476D01*
X175072857Y-112402857D01*
X175215714Y-112402857D01*
X175310952Y-112450476D01*
X175358571Y-112498095D01*
X175406190Y-112593333D01*
X175406190Y-112974285D01*
X175882380Y-111450476D02*
X175882380Y-112021904D01*
X175882380Y-111736190D02*
X174882380Y-111736190D01*
X175025238Y-111831428D01*
X175120476Y-111926666D01*
X175168095Y-112021904D01*
X174977619Y-111069523D02*
X174930000Y-111021904D01*
X174882380Y-110926666D01*
X174882380Y-110688571D01*
X174930000Y-110593333D01*
X174977619Y-110545714D01*
X175072857Y-110498095D01*
X175168095Y-110498095D01*
X175310952Y-110545714D01*
X175882380Y-111117142D01*
X175882380Y-110498095D01*
X43856904Y-58472380D02*
X43856904Y-59281904D01*
X43904523Y-59377142D01*
X43952142Y-59424761D01*
X44047380Y-59472380D01*
X44237857Y-59472380D01*
X44333095Y-59424761D01*
X44380714Y-59377142D01*
X44428333Y-59281904D01*
X44428333Y-58472380D01*
X45428333Y-59472380D02*
X44856904Y-59472380D01*
X45142619Y-59472380D02*
X45142619Y-58472380D01*
X45047380Y-58615238D01*
X44952142Y-58710476D01*
X44856904Y-58758095D01*
X45999761Y-58900952D02*
X45904523Y-58853333D01*
X45856904Y-58805714D01*
X45809285Y-58710476D01*
X45809285Y-58662857D01*
X45856904Y-58567619D01*
X45904523Y-58520000D01*
X45999761Y-58472380D01*
X46190238Y-58472380D01*
X46285476Y-58520000D01*
X46333095Y-58567619D01*
X46380714Y-58662857D01*
X46380714Y-58710476D01*
X46333095Y-58805714D01*
X46285476Y-58853333D01*
X46190238Y-58900952D01*
X45999761Y-58900952D01*
X45904523Y-58948571D01*
X45856904Y-58996190D01*
X45809285Y-59091428D01*
X45809285Y-59281904D01*
X45856904Y-59377142D01*
X45904523Y-59424761D01*
X45999761Y-59472380D01*
X46190238Y-59472380D01*
X46285476Y-59424761D01*
X46333095Y-59377142D01*
X46380714Y-59281904D01*
X46380714Y-59091428D01*
X46333095Y-58996190D01*
X46285476Y-58948571D01*
X46190238Y-58900952D01*
X284762380Y-114466666D02*
X284286190Y-114800000D01*
X284762380Y-115038095D02*
X283762380Y-115038095D01*
X283762380Y-114657142D01*
X283810000Y-114561904D01*
X283857619Y-114514285D01*
X283952857Y-114466666D01*
X284095714Y-114466666D01*
X284190952Y-114514285D01*
X284238571Y-114561904D01*
X284286190Y-114657142D01*
X284286190Y-115038095D01*
X283762380Y-114133333D02*
X283762380Y-113466666D01*
X284762380Y-113895238D01*
X38722380Y-112402857D02*
X38246190Y-112736190D01*
X38722380Y-112974285D02*
X37722380Y-112974285D01*
X37722380Y-112593333D01*
X37770000Y-112498095D01*
X37817619Y-112450476D01*
X37912857Y-112402857D01*
X38055714Y-112402857D01*
X38150952Y-112450476D01*
X38198571Y-112498095D01*
X38246190Y-112593333D01*
X38246190Y-112974285D01*
X37722380Y-112069523D02*
X37722380Y-111450476D01*
X38103333Y-111783809D01*
X38103333Y-111640952D01*
X38150952Y-111545714D01*
X38198571Y-111498095D01*
X38293809Y-111450476D01*
X38531904Y-111450476D01*
X38627142Y-111498095D01*
X38674761Y-111545714D01*
X38722380Y-111640952D01*
X38722380Y-111926666D01*
X38674761Y-112021904D01*
X38627142Y-112069523D01*
X37722380Y-111117142D02*
X37722380Y-110498095D01*
X38103333Y-110831428D01*
X38103333Y-110688571D01*
X38150952Y-110593333D01*
X38198571Y-110545714D01*
X38293809Y-110498095D01*
X38531904Y-110498095D01*
X38627142Y-110545714D01*
X38674761Y-110593333D01*
X38722380Y-110688571D01*
X38722380Y-110974285D01*
X38674761Y-111069523D01*
X38627142Y-111117142D01*
X170802380Y-180506666D02*
X170326190Y-180840000D01*
X170802380Y-181078095D02*
X169802380Y-181078095D01*
X169802380Y-180697142D01*
X169850000Y-180601904D01*
X169897619Y-180554285D01*
X169992857Y-180506666D01*
X170135714Y-180506666D01*
X170230952Y-180554285D01*
X170278571Y-180601904D01*
X170326190Y-180697142D01*
X170326190Y-181078095D01*
X170802380Y-179554285D02*
X170802380Y-180125714D01*
X170802380Y-179840000D02*
X169802380Y-179840000D01*
X169945238Y-179935238D01*
X170040476Y-180030476D01*
X170088095Y-180125714D01*
X109842380Y-112402857D02*
X109366190Y-112736190D01*
X109842380Y-112974285D02*
X108842380Y-112974285D01*
X108842380Y-112593333D01*
X108890000Y-112498095D01*
X108937619Y-112450476D01*
X109032857Y-112402857D01*
X109175714Y-112402857D01*
X109270952Y-112450476D01*
X109318571Y-112498095D01*
X109366190Y-112593333D01*
X109366190Y-112974285D01*
X108842380Y-112069523D02*
X108842380Y-111450476D01*
X109223333Y-111783809D01*
X109223333Y-111640952D01*
X109270952Y-111545714D01*
X109318571Y-111498095D01*
X109413809Y-111450476D01*
X109651904Y-111450476D01*
X109747142Y-111498095D01*
X109794761Y-111545714D01*
X109842380Y-111640952D01*
X109842380Y-111926666D01*
X109794761Y-112021904D01*
X109747142Y-112069523D01*
X108842380Y-110593333D02*
X108842380Y-110783809D01*
X108890000Y-110879047D01*
X108937619Y-110926666D01*
X109080476Y-111021904D01*
X109270952Y-111069523D01*
X109651904Y-111069523D01*
X109747142Y-111021904D01*
X109794761Y-110974285D01*
X109842380Y-110879047D01*
X109842380Y-110688571D01*
X109794761Y-110593333D01*
X109747142Y-110545714D01*
X109651904Y-110498095D01*
X109413809Y-110498095D01*
X109318571Y-110545714D01*
X109270952Y-110593333D01*
X109223333Y-110688571D01*
X109223333Y-110879047D01*
X109270952Y-110974285D01*
X109318571Y-111021904D01*
X109413809Y-111069523D01*
D12*
X194884523Y-151432380D02*
X195912619Y-151432380D01*
X196033571Y-151371904D01*
X196094047Y-151311428D01*
X196154523Y-151190476D01*
X196154523Y-150948571D01*
X196094047Y-150827619D01*
X196033571Y-150767142D01*
X195912619Y-150706666D01*
X194884523Y-150706666D01*
X196154523Y-149436666D02*
X196154523Y-150162380D01*
X196154523Y-149799523D02*
X194884523Y-149799523D01*
X195065952Y-149920476D01*
X195186904Y-150041428D01*
X195247380Y-150162380D01*
X196154523Y-148227142D02*
X196154523Y-148952857D01*
X196154523Y-148590000D02*
X194884523Y-148590000D01*
X195065952Y-148710952D01*
X195186904Y-148831904D01*
X195247380Y-148952857D01*
X221554523Y-168879761D02*
X220284523Y-168879761D01*
X221433571Y-167549285D02*
X221494047Y-167609761D01*
X221554523Y-167791190D01*
X221554523Y-167912142D01*
X221494047Y-168093571D01*
X221373095Y-168214523D01*
X221252142Y-168275000D01*
X221010238Y-168335476D01*
X220828809Y-168335476D01*
X220586904Y-168275000D01*
X220465952Y-168214523D01*
X220345000Y-168093571D01*
X220284523Y-167912142D01*
X220284523Y-167791190D01*
X220345000Y-167609761D01*
X220405476Y-167549285D01*
X220284523Y-167125952D02*
X220284523Y-166279285D01*
X221554523Y-166823571D01*
D11*
X276098095Y-158952380D02*
X276098095Y-159761904D01*
X276145714Y-159857142D01*
X276193333Y-159904761D01*
X276288571Y-159952380D01*
X276479047Y-159952380D01*
X276574285Y-159904761D01*
X276621904Y-159857142D01*
X276669523Y-159761904D01*
X276669523Y-158952380D01*
X277669523Y-159952380D02*
X277098095Y-159952380D01*
X277383809Y-159952380D02*
X277383809Y-158952380D01*
X277288571Y-159095238D01*
X277193333Y-159190476D01*
X277098095Y-159238095D01*
X255325714Y-127522380D02*
X255325714Y-126522380D01*
X255563809Y-126522380D01*
X255706666Y-126570000D01*
X255801904Y-126665238D01*
X255849523Y-126760476D01*
X255897142Y-126950952D01*
X255897142Y-127093809D01*
X255849523Y-127284285D01*
X255801904Y-127379523D01*
X255706666Y-127474761D01*
X255563809Y-127522380D01*
X255325714Y-127522380D01*
X256849523Y-127522380D02*
X256278095Y-127522380D01*
X256563809Y-127522380D02*
X256563809Y-126522380D01*
X256468571Y-126665238D01*
X256373333Y-126760476D01*
X256278095Y-126808095D01*
X257754285Y-126522380D02*
X257278095Y-126522380D01*
X257230476Y-126998571D01*
X257278095Y-126950952D01*
X257373333Y-126903333D01*
X257611428Y-126903333D01*
X257706666Y-126950952D01*
X257754285Y-126998571D01*
X257801904Y-127093809D01*
X257801904Y-127331904D01*
X257754285Y-127427142D01*
X257706666Y-127474761D01*
X257611428Y-127522380D01*
X257373333Y-127522380D01*
X257278095Y-127474761D01*
X257230476Y-127427142D01*
X251198095Y-127892380D02*
X251198095Y-126892380D01*
X251769523Y-127892380D02*
X251340952Y-127320952D01*
X251769523Y-126892380D02*
X251198095Y-127463809D01*
X264066666Y-172462380D02*
X264066666Y-173176666D01*
X264019047Y-173319523D01*
X263923809Y-173414761D01*
X263780952Y-173462380D01*
X263685714Y-173462380D01*
X264447619Y-172462380D02*
X265066666Y-172462380D01*
X264733333Y-172843333D01*
X264876190Y-172843333D01*
X264971428Y-172890952D01*
X265019047Y-172938571D01*
X265066666Y-173033809D01*
X265066666Y-173271904D01*
X265019047Y-173367142D01*
X264971428Y-173414761D01*
X264876190Y-173462380D01*
X264590476Y-173462380D01*
X264495238Y-173414761D01*
X264447619Y-173367142D01*
D12*
X191074523Y-112999761D02*
X189804523Y-112999761D01*
X190953571Y-111669285D02*
X191014047Y-111729761D01*
X191074523Y-111911190D01*
X191074523Y-112032142D01*
X191014047Y-112213571D01*
X190893095Y-112334523D01*
X190772142Y-112395000D01*
X190530238Y-112455476D01*
X190348809Y-112455476D01*
X190106904Y-112395000D01*
X189985952Y-112334523D01*
X189865000Y-112213571D01*
X189804523Y-112032142D01*
X189804523Y-111911190D01*
X189865000Y-111729761D01*
X189925476Y-111669285D01*
X189804523Y-110580714D02*
X189804523Y-110822619D01*
X189865000Y-110943571D01*
X189925476Y-111004047D01*
X190106904Y-111125000D01*
X190348809Y-111185476D01*
X190832619Y-111185476D01*
X190953571Y-111125000D01*
X191014047Y-111064523D01*
X191074523Y-110943571D01*
X191074523Y-110701666D01*
X191014047Y-110580714D01*
X190953571Y-110520238D01*
X190832619Y-110459761D01*
X190530238Y-110459761D01*
X190409285Y-110520238D01*
X190348809Y-110580714D01*
X190288333Y-110701666D01*
X190288333Y-110943571D01*
X190348809Y-111064523D01*
X190409285Y-111125000D01*
X190530238Y-111185476D01*
D11*
X240071904Y-117782380D02*
X240071904Y-118591904D01*
X240119523Y-118687142D01*
X240167142Y-118734761D01*
X240262380Y-118782380D01*
X240452857Y-118782380D01*
X240548095Y-118734761D01*
X240595714Y-118687142D01*
X240643333Y-118591904D01*
X240643333Y-117782380D01*
X241643333Y-118782380D02*
X241071904Y-118782380D01*
X241357619Y-118782380D02*
X241357619Y-117782380D01*
X241262380Y-117925238D01*
X241167142Y-118020476D01*
X241071904Y-118068095D01*
X242024285Y-117877619D02*
X242071904Y-117830000D01*
X242167142Y-117782380D01*
X242405238Y-117782380D01*
X242500476Y-117830000D01*
X242548095Y-117877619D01*
X242595714Y-117972857D01*
X242595714Y-118068095D01*
X242548095Y-118210952D01*
X241976666Y-118782380D01*
X242595714Y-118782380D01*
X62262380Y-180971904D02*
X63071904Y-180971904D01*
X63167142Y-180924285D01*
X63214761Y-180876666D01*
X63262380Y-180781428D01*
X63262380Y-180590952D01*
X63214761Y-180495714D01*
X63167142Y-180448095D01*
X63071904Y-180400476D01*
X62262380Y-180400476D01*
X62262380Y-179448095D02*
X62262380Y-179924285D01*
X62738571Y-179971904D01*
X62690952Y-179924285D01*
X62643333Y-179829047D01*
X62643333Y-179590952D01*
X62690952Y-179495714D01*
X62738571Y-179448095D01*
X62833809Y-179400476D01*
X63071904Y-179400476D01*
X63167142Y-179448095D01*
X63214761Y-179495714D01*
X63262380Y-179590952D01*
X63262380Y-179829047D01*
X63214761Y-179924285D01*
X63167142Y-179971904D01*
D12*
X123583333Y-165553571D02*
X123522857Y-165614047D01*
X123341428Y-165674523D01*
X123220476Y-165674523D01*
X123039047Y-165614047D01*
X122918095Y-165493095D01*
X122857619Y-165372142D01*
X122797142Y-165130238D01*
X122797142Y-164948809D01*
X122857619Y-164706904D01*
X122918095Y-164585952D01*
X123039047Y-164465000D01*
X123220476Y-164404523D01*
X123341428Y-164404523D01*
X123522857Y-164465000D01*
X123583333Y-164525476D01*
X124732380Y-164404523D02*
X124127619Y-164404523D01*
X124067142Y-165009285D01*
X124127619Y-164948809D01*
X124248571Y-164888333D01*
X124550952Y-164888333D01*
X124671904Y-164948809D01*
X124732380Y-165009285D01*
X124792857Y-165130238D01*
X124792857Y-165432619D01*
X124732380Y-165553571D01*
X124671904Y-165614047D01*
X124550952Y-165674523D01*
X124248571Y-165674523D01*
X124127619Y-165614047D01*
X124067142Y-165553571D01*
D11*
X34821904Y-147842380D02*
X34821904Y-146842380D01*
X35060000Y-146842380D01*
X35202857Y-146890000D01*
X35298095Y-146985238D01*
X35345714Y-147080476D01*
X35393333Y-147270952D01*
X35393333Y-147413809D01*
X35345714Y-147604285D01*
X35298095Y-147699523D01*
X35202857Y-147794761D01*
X35060000Y-147842380D01*
X34821904Y-147842380D01*
X35774285Y-146937619D02*
X35821904Y-146890000D01*
X35917142Y-146842380D01*
X36155238Y-146842380D01*
X36250476Y-146890000D01*
X36298095Y-146937619D01*
X36345714Y-147032857D01*
X36345714Y-147128095D01*
X36298095Y-147270952D01*
X35726666Y-147842380D01*
X36345714Y-147842380D01*
X30218095Y-148212380D02*
X30218095Y-147212380D01*
X30789523Y-148212380D02*
X30360952Y-147640952D01*
X30789523Y-147212380D02*
X30218095Y-147783809D01*
X56162380Y-155106666D02*
X55686190Y-155440000D01*
X56162380Y-155678095D02*
X55162380Y-155678095D01*
X55162380Y-155297142D01*
X55210000Y-155201904D01*
X55257619Y-155154285D01*
X55352857Y-155106666D01*
X55495714Y-155106666D01*
X55590952Y-155154285D01*
X55638571Y-155201904D01*
X55686190Y-155297142D01*
X55686190Y-155678095D01*
X55162380Y-154201904D02*
X55162380Y-154678095D01*
X55638571Y-154725714D01*
X55590952Y-154678095D01*
X55543333Y-154582857D01*
X55543333Y-154344761D01*
X55590952Y-154249523D01*
X55638571Y-154201904D01*
X55733809Y-154154285D01*
X55971904Y-154154285D01*
X56067142Y-154201904D01*
X56114761Y-154249523D01*
X56162380Y-154344761D01*
X56162380Y-154582857D01*
X56114761Y-154678095D01*
X56067142Y-154725714D01*
D12*
X171843333Y-150313571D02*
X171782857Y-150374047D01*
X171601428Y-150434523D01*
X171480476Y-150434523D01*
X171299047Y-150374047D01*
X171178095Y-150253095D01*
X171117619Y-150132142D01*
X171057142Y-149890238D01*
X171057142Y-149708809D01*
X171117619Y-149466904D01*
X171178095Y-149345952D01*
X171299047Y-149225000D01*
X171480476Y-149164523D01*
X171601428Y-149164523D01*
X171782857Y-149225000D01*
X171843333Y-149285476D01*
X172266666Y-149164523D02*
X173113333Y-149164523D01*
X172569047Y-150434523D01*
D11*
X43802380Y-112402857D02*
X43326190Y-112736190D01*
X43802380Y-112974285D02*
X42802380Y-112974285D01*
X42802380Y-112593333D01*
X42850000Y-112498095D01*
X42897619Y-112450476D01*
X42992857Y-112402857D01*
X43135714Y-112402857D01*
X43230952Y-112450476D01*
X43278571Y-112498095D01*
X43326190Y-112593333D01*
X43326190Y-112974285D01*
X42802380Y-112069523D02*
X42802380Y-111450476D01*
X43183333Y-111783809D01*
X43183333Y-111640952D01*
X43230952Y-111545714D01*
X43278571Y-111498095D01*
X43373809Y-111450476D01*
X43611904Y-111450476D01*
X43707142Y-111498095D01*
X43754761Y-111545714D01*
X43802380Y-111640952D01*
X43802380Y-111926666D01*
X43754761Y-112021904D01*
X43707142Y-112069523D01*
X42897619Y-111069523D02*
X42850000Y-111021904D01*
X42802380Y-110926666D01*
X42802380Y-110688571D01*
X42850000Y-110593333D01*
X42897619Y-110545714D01*
X42992857Y-110498095D01*
X43088095Y-110498095D01*
X43230952Y-110545714D01*
X43802380Y-111117142D01*
X43802380Y-110498095D01*
X240657142Y-132702380D02*
X240323809Y-132226190D01*
X240085714Y-132702380D02*
X240085714Y-131702380D01*
X240466666Y-131702380D01*
X240561904Y-131750000D01*
X240609523Y-131797619D01*
X240657142Y-131892857D01*
X240657142Y-132035714D01*
X240609523Y-132130952D01*
X240561904Y-132178571D01*
X240466666Y-132226190D01*
X240085714Y-132226190D01*
X241038095Y-131797619D02*
X241085714Y-131750000D01*
X241180952Y-131702380D01*
X241419047Y-131702380D01*
X241514285Y-131750000D01*
X241561904Y-131797619D01*
X241609523Y-131892857D01*
X241609523Y-131988095D01*
X241561904Y-132130952D01*
X240990476Y-132702380D01*
X241609523Y-132702380D01*
X242466666Y-132035714D02*
X242466666Y-132702380D01*
X242228571Y-131654761D02*
X241990476Y-132369047D01*
X242609523Y-132369047D01*
D12*
X160348333Y-150313571D02*
X160287857Y-150374047D01*
X160106428Y-150434523D01*
X159985476Y-150434523D01*
X159804047Y-150374047D01*
X159683095Y-150253095D01*
X159622619Y-150132142D01*
X159562142Y-149890238D01*
X159562142Y-149708809D01*
X159622619Y-149466904D01*
X159683095Y-149345952D01*
X159804047Y-149225000D01*
X159985476Y-149164523D01*
X160106428Y-149164523D01*
X160287857Y-149225000D01*
X160348333Y-149285476D01*
X161074047Y-149708809D02*
X160953095Y-149648333D01*
X160892619Y-149587857D01*
X160832142Y-149466904D01*
X160832142Y-149406428D01*
X160892619Y-149285476D01*
X160953095Y-149225000D01*
X161074047Y-149164523D01*
X161315952Y-149164523D01*
X161436904Y-149225000D01*
X161497380Y-149285476D01*
X161557857Y-149406428D01*
X161557857Y-149466904D01*
X161497380Y-149587857D01*
X161436904Y-149648333D01*
X161315952Y-149708809D01*
X161074047Y-149708809D01*
X160953095Y-149769285D01*
X160892619Y-149829761D01*
X160832142Y-149950714D01*
X160832142Y-150192619D01*
X160892619Y-150313571D01*
X160953095Y-150374047D01*
X161074047Y-150434523D01*
X161315952Y-150434523D01*
X161436904Y-150374047D01*
X161497380Y-150313571D01*
X161557857Y-150192619D01*
X161557857Y-149950714D01*
X161497380Y-149829761D01*
X161436904Y-149769285D01*
X161315952Y-149708809D01*
D11*
X255325714Y-122442380D02*
X255325714Y-121442380D01*
X255563809Y-121442380D01*
X255706666Y-121490000D01*
X255801904Y-121585238D01*
X255849523Y-121680476D01*
X255897142Y-121870952D01*
X255897142Y-122013809D01*
X255849523Y-122204285D01*
X255801904Y-122299523D01*
X255706666Y-122394761D01*
X255563809Y-122442380D01*
X255325714Y-122442380D01*
X256849523Y-122442380D02*
X256278095Y-122442380D01*
X256563809Y-122442380D02*
X256563809Y-121442380D01*
X256468571Y-121585238D01*
X256373333Y-121680476D01*
X256278095Y-121728095D01*
X257706666Y-121775714D02*
X257706666Y-122442380D01*
X257468571Y-121394761D02*
X257230476Y-122109047D01*
X257849523Y-122109047D01*
X251198095Y-122812380D02*
X251198095Y-121812380D01*
X251769523Y-122812380D02*
X251340952Y-122240952D01*
X251769523Y-121812380D02*
X251198095Y-122383809D01*
X139057142Y-168262380D02*
X138723809Y-167786190D01*
X138485714Y-168262380D02*
X138485714Y-167262380D01*
X138866666Y-167262380D01*
X138961904Y-167310000D01*
X139009523Y-167357619D01*
X139057142Y-167452857D01*
X139057142Y-167595714D01*
X139009523Y-167690952D01*
X138961904Y-167738571D01*
X138866666Y-167786190D01*
X138485714Y-167786190D01*
X139438095Y-167357619D02*
X139485714Y-167310000D01*
X139580952Y-167262380D01*
X139819047Y-167262380D01*
X139914285Y-167310000D01*
X139961904Y-167357619D01*
X140009523Y-167452857D01*
X140009523Y-167548095D01*
X139961904Y-167690952D01*
X139390476Y-168262380D01*
X140009523Y-168262380D01*
X140485714Y-168262380D02*
X140676190Y-168262380D01*
X140771428Y-168214761D01*
X140819047Y-168167142D01*
X140914285Y-168024285D01*
X140961904Y-167833809D01*
X140961904Y-167452857D01*
X140914285Y-167357619D01*
X140866666Y-167310000D01*
X140771428Y-167262380D01*
X140580952Y-167262380D01*
X140485714Y-167310000D01*
X140438095Y-167357619D01*
X140390476Y-167452857D01*
X140390476Y-167690952D01*
X140438095Y-167786190D01*
X140485714Y-167833809D01*
X140580952Y-167881428D01*
X140771428Y-167881428D01*
X140866666Y-167833809D01*
X140914285Y-167786190D01*
X140961904Y-167690952D01*
X208422380Y-171548095D02*
X209231904Y-171548095D01*
X209327142Y-171500476D01*
X209374761Y-171452857D01*
X209422380Y-171357619D01*
X209422380Y-171167142D01*
X209374761Y-171071904D01*
X209327142Y-171024285D01*
X209231904Y-170976666D01*
X208422380Y-170976666D01*
X209422380Y-169976666D02*
X209422380Y-170548095D01*
X209422380Y-170262380D02*
X208422380Y-170262380D01*
X208565238Y-170357619D01*
X208660476Y-170452857D01*
X208708095Y-170548095D01*
X208755714Y-169119523D02*
X209422380Y-169119523D01*
X208374761Y-169357619D02*
X209089047Y-169595714D01*
X209089047Y-168976666D01*
X57777142Y-66182380D02*
X57443809Y-65706190D01*
X57205714Y-66182380D02*
X57205714Y-65182380D01*
X57586666Y-65182380D01*
X57681904Y-65230000D01*
X57729523Y-65277619D01*
X57777142Y-65372857D01*
X57777142Y-65515714D01*
X57729523Y-65610952D01*
X57681904Y-65658571D01*
X57586666Y-65706190D01*
X57205714Y-65706190D01*
X58634285Y-65515714D02*
X58634285Y-66182380D01*
X58396190Y-65134761D02*
X58158095Y-65849047D01*
X58777142Y-65849047D01*
X59062857Y-65182380D02*
X59681904Y-65182380D01*
X59348571Y-65563333D01*
X59491428Y-65563333D01*
X59586666Y-65610952D01*
X59634285Y-65658571D01*
X59681904Y-65753809D01*
X59681904Y-65991904D01*
X59634285Y-66087142D01*
X59586666Y-66134761D01*
X59491428Y-66182380D01*
X59205714Y-66182380D01*
X59110476Y-66134761D01*
X59062857Y-66087142D01*
D12*
X74960238Y-130114523D02*
X74960238Y-128844523D01*
X76290714Y-129993571D02*
X76230238Y-130054047D01*
X76048809Y-130114523D01*
X75927857Y-130114523D01*
X75746428Y-130054047D01*
X75625476Y-129933095D01*
X75565000Y-129812142D01*
X75504523Y-129570238D01*
X75504523Y-129388809D01*
X75565000Y-129146904D01*
X75625476Y-129025952D01*
X75746428Y-128905000D01*
X75927857Y-128844523D01*
X76048809Y-128844523D01*
X76230238Y-128905000D01*
X76290714Y-128965476D01*
X77500238Y-130114523D02*
X76774523Y-130114523D01*
X77137380Y-130114523D02*
X77137380Y-128844523D01*
X77016428Y-129025952D01*
X76895476Y-129146904D01*
X76774523Y-129207380D01*
D11*
X240657142Y-137782380D02*
X240323809Y-137306190D01*
X240085714Y-137782380D02*
X240085714Y-136782380D01*
X240466666Y-136782380D01*
X240561904Y-136830000D01*
X240609523Y-136877619D01*
X240657142Y-136972857D01*
X240657142Y-137115714D01*
X240609523Y-137210952D01*
X240561904Y-137258571D01*
X240466666Y-137306190D01*
X240085714Y-137306190D01*
X241038095Y-136877619D02*
X241085714Y-136830000D01*
X241180952Y-136782380D01*
X241419047Y-136782380D01*
X241514285Y-136830000D01*
X241561904Y-136877619D01*
X241609523Y-136972857D01*
X241609523Y-137068095D01*
X241561904Y-137210952D01*
X240990476Y-137782380D01*
X241609523Y-137782380D01*
X241942857Y-136782380D02*
X242561904Y-136782380D01*
X242228571Y-137163333D01*
X242371428Y-137163333D01*
X242466666Y-137210952D01*
X242514285Y-137258571D01*
X242561904Y-137353809D01*
X242561904Y-137591904D01*
X242514285Y-137687142D01*
X242466666Y-137734761D01*
X242371428Y-137782380D01*
X242085714Y-137782380D01*
X241990476Y-137734761D01*
X241942857Y-137687142D01*
D12*
X109008333Y-165553571D02*
X108947857Y-165614047D01*
X108766428Y-165674523D01*
X108645476Y-165674523D01*
X108464047Y-165614047D01*
X108343095Y-165493095D01*
X108282619Y-165372142D01*
X108222142Y-165130238D01*
X108222142Y-164948809D01*
X108282619Y-164706904D01*
X108343095Y-164585952D01*
X108464047Y-164465000D01*
X108645476Y-164404523D01*
X108766428Y-164404523D01*
X108947857Y-164465000D01*
X109008333Y-164525476D01*
X110096904Y-164404523D02*
X109855000Y-164404523D01*
X109734047Y-164465000D01*
X109673571Y-164525476D01*
X109552619Y-164706904D01*
X109492142Y-164948809D01*
X109492142Y-165432619D01*
X109552619Y-165553571D01*
X109613095Y-165614047D01*
X109734047Y-165674523D01*
X109975952Y-165674523D01*
X110096904Y-165614047D01*
X110157380Y-165553571D01*
X110217857Y-165432619D01*
X110217857Y-165130238D01*
X110157380Y-165009285D01*
X110096904Y-164948809D01*
X109975952Y-164888333D01*
X109734047Y-164888333D01*
X109613095Y-164948809D01*
X109552619Y-165009285D01*
X109492142Y-165130238D01*
D11*
X71087142Y-70232380D02*
X70753809Y-69756190D01*
X70515714Y-70232380D02*
X70515714Y-69232380D01*
X70896666Y-69232380D01*
X70991904Y-69280000D01*
X71039523Y-69327619D01*
X71087142Y-69422857D01*
X71087142Y-69565714D01*
X71039523Y-69660952D01*
X70991904Y-69708571D01*
X70896666Y-69756190D01*
X70515714Y-69756190D01*
X71944285Y-69565714D02*
X71944285Y-70232380D01*
X71706190Y-69184761D02*
X71468095Y-69899047D01*
X72087142Y-69899047D01*
X72610952Y-69660952D02*
X72515714Y-69613333D01*
X72468095Y-69565714D01*
X72420476Y-69470476D01*
X72420476Y-69422857D01*
X72468095Y-69327619D01*
X72515714Y-69280000D01*
X72610952Y-69232380D01*
X72801428Y-69232380D01*
X72896666Y-69280000D01*
X72944285Y-69327619D01*
X72991904Y-69422857D01*
X72991904Y-69470476D01*
X72944285Y-69565714D01*
X72896666Y-69613333D01*
X72801428Y-69660952D01*
X72610952Y-69660952D01*
X72515714Y-69708571D01*
X72468095Y-69756190D01*
X72420476Y-69851428D01*
X72420476Y-70041904D01*
X72468095Y-70137142D01*
X72515714Y-70184761D01*
X72610952Y-70232380D01*
X72801428Y-70232380D01*
X72896666Y-70184761D01*
X72944285Y-70137142D01*
X72991904Y-70041904D01*
X72991904Y-69851428D01*
X72944285Y-69756190D01*
X72896666Y-69708571D01*
X72801428Y-69660952D01*
X88161904Y-145302380D02*
X88161904Y-144302380D01*
X88400000Y-144302380D01*
X88542857Y-144350000D01*
X88638095Y-144445238D01*
X88685714Y-144540476D01*
X88733333Y-144730952D01*
X88733333Y-144873809D01*
X88685714Y-145064285D01*
X88638095Y-145159523D01*
X88542857Y-145254761D01*
X88400000Y-145302380D01*
X88161904Y-145302380D01*
X89638095Y-144302380D02*
X89161904Y-144302380D01*
X89114285Y-144778571D01*
X89161904Y-144730952D01*
X89257142Y-144683333D01*
X89495238Y-144683333D01*
X89590476Y-144730952D01*
X89638095Y-144778571D01*
X89685714Y-144873809D01*
X89685714Y-145111904D01*
X89638095Y-145207142D01*
X89590476Y-145254761D01*
X89495238Y-145302380D01*
X89257142Y-145302380D01*
X89161904Y-145254761D01*
X89114285Y-145207142D01*
X83558095Y-145672380D02*
X83558095Y-144672380D01*
X84129523Y-145672380D02*
X83700952Y-145100952D01*
X84129523Y-144672380D02*
X83558095Y-145243809D01*
X61582380Y-127166666D02*
X61106190Y-127500000D01*
X61582380Y-127738095D02*
X60582380Y-127738095D01*
X60582380Y-127357142D01*
X60630000Y-127261904D01*
X60677619Y-127214285D01*
X60772857Y-127166666D01*
X60915714Y-127166666D01*
X61010952Y-127214285D01*
X61058571Y-127261904D01*
X61106190Y-127357142D01*
X61106190Y-127738095D01*
X60582380Y-126309523D02*
X60582380Y-126500000D01*
X60630000Y-126595238D01*
X60677619Y-126642857D01*
X60820476Y-126738095D01*
X61010952Y-126785714D01*
X61391904Y-126785714D01*
X61487142Y-126738095D01*
X61534761Y-126690476D01*
X61582380Y-126595238D01*
X61582380Y-126404761D01*
X61534761Y-126309523D01*
X61487142Y-126261904D01*
X61391904Y-126214285D01*
X61153809Y-126214285D01*
X61058571Y-126261904D01*
X61010952Y-126309523D01*
X60963333Y-126404761D01*
X60963333Y-126595238D01*
X61010952Y-126690476D01*
X61058571Y-126738095D01*
X61153809Y-126785714D01*
X229222380Y-130182857D02*
X228746190Y-130516190D01*
X229222380Y-130754285D02*
X228222380Y-130754285D01*
X228222380Y-130373333D01*
X228270000Y-130278095D01*
X228317619Y-130230476D01*
X228412857Y-130182857D01*
X228555714Y-130182857D01*
X228650952Y-130230476D01*
X228698571Y-130278095D01*
X228746190Y-130373333D01*
X228746190Y-130754285D01*
X229222380Y-129230476D02*
X229222380Y-129801904D01*
X229222380Y-129516190D02*
X228222380Y-129516190D01*
X228365238Y-129611428D01*
X228460476Y-129706666D01*
X228508095Y-129801904D01*
X228222380Y-128897142D02*
X228222380Y-128230476D01*
X229222380Y-128659047D01*
X221602380Y-130182857D02*
X221126190Y-130516190D01*
X221602380Y-130754285D02*
X220602380Y-130754285D01*
X220602380Y-130373333D01*
X220650000Y-130278095D01*
X220697619Y-130230476D01*
X220792857Y-130182857D01*
X220935714Y-130182857D01*
X221030952Y-130230476D01*
X221078571Y-130278095D01*
X221126190Y-130373333D01*
X221126190Y-130754285D01*
X220697619Y-129801904D02*
X220650000Y-129754285D01*
X220602380Y-129659047D01*
X220602380Y-129420952D01*
X220650000Y-129325714D01*
X220697619Y-129278095D01*
X220792857Y-129230476D01*
X220888095Y-129230476D01*
X221030952Y-129278095D01*
X221602380Y-129849523D01*
X221602380Y-129230476D01*
X221602380Y-128278095D02*
X221602380Y-128849523D01*
X221602380Y-128563809D02*
X220602380Y-128563809D01*
X220745238Y-128659047D01*
X220840476Y-128754285D01*
X220888095Y-128849523D01*
X204525714Y-127522380D02*
X204525714Y-126522380D01*
X204763809Y-126522380D01*
X204906666Y-126570000D01*
X205001904Y-126665238D01*
X205049523Y-126760476D01*
X205097142Y-126950952D01*
X205097142Y-127093809D01*
X205049523Y-127284285D01*
X205001904Y-127379523D01*
X204906666Y-127474761D01*
X204763809Y-127522380D01*
X204525714Y-127522380D01*
X206049523Y-127522380D02*
X205478095Y-127522380D01*
X205763809Y-127522380D02*
X205763809Y-126522380D01*
X205668571Y-126665238D01*
X205573333Y-126760476D01*
X205478095Y-126808095D01*
X206430476Y-126617619D02*
X206478095Y-126570000D01*
X206573333Y-126522380D01*
X206811428Y-126522380D01*
X206906666Y-126570000D01*
X206954285Y-126617619D01*
X207001904Y-126712857D01*
X207001904Y-126808095D01*
X206954285Y-126950952D01*
X206382857Y-127522380D01*
X207001904Y-127522380D01*
X200398095Y-127892380D02*
X200398095Y-126892380D01*
X200969523Y-127892380D02*
X200540952Y-127320952D01*
X200969523Y-126892380D02*
X200398095Y-127463809D01*
X121642142Y-56462380D02*
X121308809Y-55986190D01*
X121070714Y-56462380D02*
X121070714Y-55462380D01*
X121451666Y-55462380D01*
X121546904Y-55510000D01*
X121594523Y-55557619D01*
X121642142Y-55652857D01*
X121642142Y-55795714D01*
X121594523Y-55890952D01*
X121546904Y-55938571D01*
X121451666Y-55986190D01*
X121070714Y-55986190D01*
X122499285Y-55462380D02*
X122308809Y-55462380D01*
X122213571Y-55510000D01*
X122165952Y-55557619D01*
X122070714Y-55700476D01*
X122023095Y-55890952D01*
X122023095Y-56271904D01*
X122070714Y-56367142D01*
X122118333Y-56414761D01*
X122213571Y-56462380D01*
X122404047Y-56462380D01*
X122499285Y-56414761D01*
X122546904Y-56367142D01*
X122594523Y-56271904D01*
X122594523Y-56033809D01*
X122546904Y-55938571D01*
X122499285Y-55890952D01*
X122404047Y-55843333D01*
X122213571Y-55843333D01*
X122118333Y-55890952D01*
X122070714Y-55938571D01*
X122023095Y-56033809D01*
X123451666Y-55795714D02*
X123451666Y-56462380D01*
X123213571Y-55414761D02*
X122975476Y-56129047D01*
X123594523Y-56129047D01*
D12*
X248708333Y-173173571D02*
X248647857Y-173234047D01*
X248466428Y-173294523D01*
X248345476Y-173294523D01*
X248164047Y-173234047D01*
X248043095Y-173113095D01*
X247982619Y-172992142D01*
X247922142Y-172750238D01*
X247922142Y-172568809D01*
X247982619Y-172326904D01*
X248043095Y-172205952D01*
X248164047Y-172085000D01*
X248345476Y-172024523D01*
X248466428Y-172024523D01*
X248647857Y-172085000D01*
X248708333Y-172145476D01*
X249917857Y-173294523D02*
X249192142Y-173294523D01*
X249555000Y-173294523D02*
X249555000Y-172024523D01*
X249434047Y-172205952D01*
X249313095Y-172326904D01*
X249192142Y-172387380D01*
D11*
X129822380Y-137802857D02*
X129346190Y-138136190D01*
X129822380Y-138374285D02*
X128822380Y-138374285D01*
X128822380Y-137993333D01*
X128870000Y-137898095D01*
X128917619Y-137850476D01*
X129012857Y-137802857D01*
X129155714Y-137802857D01*
X129250952Y-137850476D01*
X129298571Y-137898095D01*
X129346190Y-137993333D01*
X129346190Y-138374285D01*
X129822380Y-136850476D02*
X129822380Y-137421904D01*
X129822380Y-137136190D02*
X128822380Y-137136190D01*
X128965238Y-137231428D01*
X129060476Y-137326666D01*
X129108095Y-137421904D01*
X129822380Y-135898095D02*
X129822380Y-136469523D01*
X129822380Y-136183809D02*
X128822380Y-136183809D01*
X128965238Y-136279047D01*
X129060476Y-136374285D01*
X129108095Y-136469523D01*
X169902142Y-46302380D02*
X169568809Y-45826190D01*
X169330714Y-46302380D02*
X169330714Y-45302380D01*
X169711666Y-45302380D01*
X169806904Y-45350000D01*
X169854523Y-45397619D01*
X169902142Y-45492857D01*
X169902142Y-45635714D01*
X169854523Y-45730952D01*
X169806904Y-45778571D01*
X169711666Y-45826190D01*
X169330714Y-45826190D01*
X170806904Y-45302380D02*
X170330714Y-45302380D01*
X170283095Y-45778571D01*
X170330714Y-45730952D01*
X170425952Y-45683333D01*
X170664047Y-45683333D01*
X170759285Y-45730952D01*
X170806904Y-45778571D01*
X170854523Y-45873809D01*
X170854523Y-46111904D01*
X170806904Y-46207142D01*
X170759285Y-46254761D01*
X170664047Y-46302380D01*
X170425952Y-46302380D01*
X170330714Y-46254761D01*
X170283095Y-46207142D01*
X171187857Y-45302380D02*
X171854523Y-45302380D01*
X171425952Y-46302380D01*
X53962380Y-111926666D02*
X53486190Y-112260000D01*
X53962380Y-112498095D02*
X52962380Y-112498095D01*
X52962380Y-112117142D01*
X53010000Y-112021904D01*
X53057619Y-111974285D01*
X53152857Y-111926666D01*
X53295714Y-111926666D01*
X53390952Y-111974285D01*
X53438571Y-112021904D01*
X53486190Y-112117142D01*
X53486190Y-112498095D01*
X52962380Y-111069523D02*
X52962380Y-111260000D01*
X53010000Y-111355238D01*
X53057619Y-111402857D01*
X53200476Y-111498095D01*
X53390952Y-111545714D01*
X53771904Y-111545714D01*
X53867142Y-111498095D01*
X53914761Y-111450476D01*
X53962380Y-111355238D01*
X53962380Y-111164761D01*
X53914761Y-111069523D01*
X53867142Y-111021904D01*
X53771904Y-110974285D01*
X53533809Y-110974285D01*
X53438571Y-111021904D01*
X53390952Y-111069523D01*
X53343333Y-111164761D01*
X53343333Y-111355238D01*
X53390952Y-111450476D01*
X53438571Y-111498095D01*
X53533809Y-111545714D01*
D12*
X222643333Y-150313571D02*
X222582857Y-150374047D01*
X222401428Y-150434523D01*
X222280476Y-150434523D01*
X222099047Y-150374047D01*
X221978095Y-150253095D01*
X221917619Y-150132142D01*
X221857142Y-149890238D01*
X221857142Y-149708809D01*
X221917619Y-149466904D01*
X221978095Y-149345952D01*
X222099047Y-149225000D01*
X222280476Y-149164523D01*
X222401428Y-149164523D01*
X222582857Y-149225000D01*
X222643333Y-149285476D01*
X223248095Y-150434523D02*
X223490000Y-150434523D01*
X223610952Y-150374047D01*
X223671428Y-150313571D01*
X223792380Y-150132142D01*
X223852857Y-149890238D01*
X223852857Y-149406428D01*
X223792380Y-149285476D01*
X223731904Y-149225000D01*
X223610952Y-149164523D01*
X223369047Y-149164523D01*
X223248095Y-149225000D01*
X223187619Y-149285476D01*
X223127142Y-149406428D01*
X223127142Y-149708809D01*
X223187619Y-149829761D01*
X223248095Y-149890238D01*
X223369047Y-149950714D01*
X223610952Y-149950714D01*
X223731904Y-149890238D01*
X223792380Y-149829761D01*
X223852857Y-149708809D01*
D11*
X57777142Y-62132380D02*
X57443809Y-61656190D01*
X57205714Y-62132380D02*
X57205714Y-61132380D01*
X57586666Y-61132380D01*
X57681904Y-61180000D01*
X57729523Y-61227619D01*
X57777142Y-61322857D01*
X57777142Y-61465714D01*
X57729523Y-61560952D01*
X57681904Y-61608571D01*
X57586666Y-61656190D01*
X57205714Y-61656190D01*
X58634285Y-61465714D02*
X58634285Y-62132380D01*
X58396190Y-61084761D02*
X58158095Y-61799047D01*
X58777142Y-61799047D01*
X59586666Y-61465714D02*
X59586666Y-62132380D01*
X59348571Y-61084761D02*
X59110476Y-61799047D01*
X59729523Y-61799047D01*
X139057142Y-132702380D02*
X138723809Y-132226190D01*
X138485714Y-132702380D02*
X138485714Y-131702380D01*
X138866666Y-131702380D01*
X138961904Y-131750000D01*
X139009523Y-131797619D01*
X139057142Y-131892857D01*
X139057142Y-132035714D01*
X139009523Y-132130952D01*
X138961904Y-132178571D01*
X138866666Y-132226190D01*
X138485714Y-132226190D01*
X140009523Y-132702380D02*
X139438095Y-132702380D01*
X139723809Y-132702380D02*
X139723809Y-131702380D01*
X139628571Y-131845238D01*
X139533333Y-131940476D01*
X139438095Y-131988095D01*
X140342857Y-131702380D02*
X140961904Y-131702380D01*
X140628571Y-132083333D01*
X140771428Y-132083333D01*
X140866666Y-132130952D01*
X140914285Y-132178571D01*
X140961904Y-132273809D01*
X140961904Y-132511904D01*
X140914285Y-132607142D01*
X140866666Y-132654761D01*
X140771428Y-132702380D01*
X140485714Y-132702380D01*
X140390476Y-132654761D01*
X140342857Y-132607142D01*
X189857142Y-137782380D02*
X189523809Y-137306190D01*
X189285714Y-137782380D02*
X189285714Y-136782380D01*
X189666666Y-136782380D01*
X189761904Y-136830000D01*
X189809523Y-136877619D01*
X189857142Y-136972857D01*
X189857142Y-137115714D01*
X189809523Y-137210952D01*
X189761904Y-137258571D01*
X189666666Y-137306190D01*
X189285714Y-137306190D01*
X190809523Y-137782380D02*
X190238095Y-137782380D01*
X190523809Y-137782380D02*
X190523809Y-136782380D01*
X190428571Y-136925238D01*
X190333333Y-137020476D01*
X190238095Y-137068095D01*
X191285714Y-137782380D02*
X191476190Y-137782380D01*
X191571428Y-137734761D01*
X191619047Y-137687142D01*
X191714285Y-137544285D01*
X191761904Y-137353809D01*
X191761904Y-136972857D01*
X191714285Y-136877619D01*
X191666666Y-136830000D01*
X191571428Y-136782380D01*
X191380952Y-136782380D01*
X191285714Y-136830000D01*
X191238095Y-136877619D01*
X191190476Y-136972857D01*
X191190476Y-137210952D01*
X191238095Y-137306190D01*
X191285714Y-137353809D01*
X191380952Y-137401428D01*
X191571428Y-137401428D01*
X191666666Y-137353809D01*
X191714285Y-137306190D01*
X191761904Y-137210952D01*
X139057142Y-137782380D02*
X138723809Y-137306190D01*
X138485714Y-137782380D02*
X138485714Y-136782380D01*
X138866666Y-136782380D01*
X138961904Y-136830000D01*
X139009523Y-136877619D01*
X139057142Y-136972857D01*
X139057142Y-137115714D01*
X139009523Y-137210952D01*
X138961904Y-137258571D01*
X138866666Y-137306190D01*
X138485714Y-137306190D01*
X140009523Y-137782380D02*
X139438095Y-137782380D01*
X139723809Y-137782380D02*
X139723809Y-136782380D01*
X139628571Y-136925238D01*
X139533333Y-137020476D01*
X139438095Y-137068095D01*
X140866666Y-137115714D02*
X140866666Y-137782380D01*
X140628571Y-136734761D02*
X140390476Y-137449047D01*
X141009523Y-137449047D01*
X154201904Y-130062380D02*
X154201904Y-129062380D01*
X154440000Y-129062380D01*
X154582857Y-129110000D01*
X154678095Y-129205238D01*
X154725714Y-129300476D01*
X154773333Y-129490952D01*
X154773333Y-129633809D01*
X154725714Y-129824285D01*
X154678095Y-129919523D01*
X154582857Y-130014761D01*
X154440000Y-130062380D01*
X154201904Y-130062380D01*
X155249523Y-130062380D02*
X155440000Y-130062380D01*
X155535238Y-130014761D01*
X155582857Y-129967142D01*
X155678095Y-129824285D01*
X155725714Y-129633809D01*
X155725714Y-129252857D01*
X155678095Y-129157619D01*
X155630476Y-129110000D01*
X155535238Y-129062380D01*
X155344761Y-129062380D01*
X155249523Y-129110000D01*
X155201904Y-129157619D01*
X155154285Y-129252857D01*
X155154285Y-129490952D01*
X155201904Y-129586190D01*
X155249523Y-129633809D01*
X155344761Y-129681428D01*
X155535238Y-129681428D01*
X155630476Y-129633809D01*
X155678095Y-129586190D01*
X155725714Y-129490952D01*
X149598095Y-130432380D02*
X149598095Y-129432380D01*
X150169523Y-130432380D02*
X149740952Y-129860952D01*
X150169523Y-129432380D02*
X149598095Y-130003809D01*
D12*
X245684523Y-153972380D02*
X246712619Y-153972380D01*
X246833571Y-153911904D01*
X246894047Y-153851428D01*
X246954523Y-153730476D01*
X246954523Y-153488571D01*
X246894047Y-153367619D01*
X246833571Y-153307142D01*
X246712619Y-153246666D01*
X245684523Y-153246666D01*
X246954523Y-151976666D02*
X246954523Y-152702380D01*
X246954523Y-152339523D02*
X245684523Y-152339523D01*
X245865952Y-152460476D01*
X245986904Y-152581428D01*
X246047380Y-152702380D01*
X245684523Y-151553333D02*
X245684523Y-150767142D01*
X246168333Y-151190476D01*
X246168333Y-151009047D01*
X246228809Y-150888095D01*
X246289285Y-150827619D01*
X246410238Y-150767142D01*
X246712619Y-150767142D01*
X246833571Y-150827619D01*
X246894047Y-150888095D01*
X246954523Y-151009047D01*
X246954523Y-151371904D01*
X246894047Y-151492857D01*
X246833571Y-151553333D01*
D11*
X47006904Y-119052380D02*
X47006904Y-119861904D01*
X47054523Y-119957142D01*
X47102142Y-120004761D01*
X47197380Y-120052380D01*
X47387857Y-120052380D01*
X47483095Y-120004761D01*
X47530714Y-119957142D01*
X47578333Y-119861904D01*
X47578333Y-119052380D01*
X48578333Y-120052380D02*
X48006904Y-120052380D01*
X48292619Y-120052380D02*
X48292619Y-119052380D01*
X48197380Y-119195238D01*
X48102142Y-119290476D01*
X48006904Y-119338095D01*
X49435476Y-119052380D02*
X49245000Y-119052380D01*
X49149761Y-119100000D01*
X49102142Y-119147619D01*
X49006904Y-119290476D01*
X48959285Y-119480952D01*
X48959285Y-119861904D01*
X49006904Y-119957142D01*
X49054523Y-120004761D01*
X49149761Y-120052380D01*
X49340238Y-120052380D01*
X49435476Y-120004761D01*
X49483095Y-119957142D01*
X49530714Y-119861904D01*
X49530714Y-119623809D01*
X49483095Y-119528571D01*
X49435476Y-119480952D01*
X49340238Y-119433333D01*
X49149761Y-119433333D01*
X49054523Y-119480952D01*
X49006904Y-119528571D01*
X48959285Y-119623809D01*
X156592142Y-46302380D02*
X156258809Y-45826190D01*
X156020714Y-46302380D02*
X156020714Y-45302380D01*
X156401666Y-45302380D01*
X156496904Y-45350000D01*
X156544523Y-45397619D01*
X156592142Y-45492857D01*
X156592142Y-45635714D01*
X156544523Y-45730952D01*
X156496904Y-45778571D01*
X156401666Y-45826190D01*
X156020714Y-45826190D01*
X157496904Y-45302380D02*
X157020714Y-45302380D01*
X156973095Y-45778571D01*
X157020714Y-45730952D01*
X157115952Y-45683333D01*
X157354047Y-45683333D01*
X157449285Y-45730952D01*
X157496904Y-45778571D01*
X157544523Y-45873809D01*
X157544523Y-46111904D01*
X157496904Y-46207142D01*
X157449285Y-46254761D01*
X157354047Y-46302380D01*
X157115952Y-46302380D01*
X157020714Y-46254761D01*
X156973095Y-46207142D01*
X157877857Y-45302380D02*
X158496904Y-45302380D01*
X158163571Y-45683333D01*
X158306428Y-45683333D01*
X158401666Y-45730952D01*
X158449285Y-45778571D01*
X158496904Y-45873809D01*
X158496904Y-46111904D01*
X158449285Y-46207142D01*
X158401666Y-46254761D01*
X158306428Y-46302380D01*
X158020714Y-46302380D01*
X157925476Y-46254761D01*
X157877857Y-46207142D01*
X284265714Y-20700000D02*
X284170476Y-20652380D01*
X284027619Y-20652380D01*
X283884761Y-20700000D01*
X283789523Y-20795238D01*
X283741904Y-20890476D01*
X283694285Y-21080952D01*
X283694285Y-21223809D01*
X283741904Y-21414285D01*
X283789523Y-21509523D01*
X283884761Y-21604761D01*
X284027619Y-21652380D01*
X284122857Y-21652380D01*
X284265714Y-21604761D01*
X284313333Y-21557142D01*
X284313333Y-21223809D01*
X284122857Y-21223809D01*
X284646666Y-20652380D02*
X285265714Y-20652380D01*
X284932380Y-21033333D01*
X285075238Y-21033333D01*
X285170476Y-21080952D01*
X285218095Y-21128571D01*
X285265714Y-21223809D01*
X285265714Y-21461904D01*
X285218095Y-21557142D01*
X285170476Y-21604761D01*
X285075238Y-21652380D01*
X284789523Y-21652380D01*
X284694285Y-21604761D01*
X284646666Y-21557142D01*
X108332142Y-72662380D02*
X107998809Y-72186190D01*
X107760714Y-72662380D02*
X107760714Y-71662380D01*
X108141666Y-71662380D01*
X108236904Y-71710000D01*
X108284523Y-71757619D01*
X108332142Y-71852857D01*
X108332142Y-71995714D01*
X108284523Y-72090952D01*
X108236904Y-72138571D01*
X108141666Y-72186190D01*
X107760714Y-72186190D01*
X109189285Y-71662380D02*
X108998809Y-71662380D01*
X108903571Y-71710000D01*
X108855952Y-71757619D01*
X108760714Y-71900476D01*
X108713095Y-72090952D01*
X108713095Y-72471904D01*
X108760714Y-72567142D01*
X108808333Y-72614761D01*
X108903571Y-72662380D01*
X109094047Y-72662380D01*
X109189285Y-72614761D01*
X109236904Y-72567142D01*
X109284523Y-72471904D01*
X109284523Y-72233809D01*
X109236904Y-72138571D01*
X109189285Y-72090952D01*
X109094047Y-72043333D01*
X108903571Y-72043333D01*
X108808333Y-72090952D01*
X108760714Y-72138571D01*
X108713095Y-72233809D01*
X110236904Y-72662380D02*
X109665476Y-72662380D01*
X109951190Y-72662380D02*
X109951190Y-71662380D01*
X109855952Y-71805238D01*
X109760714Y-71900476D01*
X109665476Y-71948095D01*
D12*
X144084523Y-150827619D02*
X145112619Y-150827619D01*
X145233571Y-150767142D01*
X145294047Y-150706666D01*
X145354523Y-150585714D01*
X145354523Y-150343809D01*
X145294047Y-150222857D01*
X145233571Y-150162380D01*
X145112619Y-150101904D01*
X144084523Y-150101904D01*
X145354523Y-149436666D02*
X145354523Y-149194761D01*
X145294047Y-149073809D01*
X145233571Y-149013333D01*
X145052142Y-148892380D01*
X144810238Y-148831904D01*
X144326428Y-148831904D01*
X144205476Y-148892380D01*
X144145000Y-148952857D01*
X144084523Y-149073809D01*
X144084523Y-149315714D01*
X144145000Y-149436666D01*
X144205476Y-149497142D01*
X144326428Y-149557619D01*
X144628809Y-149557619D01*
X144749761Y-149497142D01*
X144810238Y-149436666D01*
X144870714Y-149315714D01*
X144870714Y-149073809D01*
X144810238Y-148952857D01*
X144749761Y-148892380D01*
X144628809Y-148831904D01*
D11*
X118165714Y-175782380D02*
X118165714Y-174782380D01*
X118403809Y-174782380D01*
X118546666Y-174830000D01*
X118641904Y-174925238D01*
X118689523Y-175020476D01*
X118737142Y-175210952D01*
X118737142Y-175353809D01*
X118689523Y-175544285D01*
X118641904Y-175639523D01*
X118546666Y-175734761D01*
X118403809Y-175782380D01*
X118165714Y-175782380D01*
X119689523Y-175782380D02*
X119118095Y-175782380D01*
X119403809Y-175782380D02*
X119403809Y-174782380D01*
X119308571Y-174925238D01*
X119213333Y-175020476D01*
X119118095Y-175068095D01*
X120022857Y-174782380D02*
X120689523Y-174782380D01*
X120260952Y-175782380D01*
X114038095Y-176152380D02*
X114038095Y-175152380D01*
X114609523Y-176152380D02*
X114180952Y-175580952D01*
X114609523Y-175152380D02*
X114038095Y-175723809D01*
X138948095Y-117782380D02*
X138948095Y-118591904D01*
X138995714Y-118687142D01*
X139043333Y-118734761D01*
X139138571Y-118782380D01*
X139329047Y-118782380D01*
X139424285Y-118734761D01*
X139471904Y-118687142D01*
X139519523Y-118591904D01*
X139519523Y-117782380D01*
X140138571Y-118210952D02*
X140043333Y-118163333D01*
X139995714Y-118115714D01*
X139948095Y-118020476D01*
X139948095Y-117972857D01*
X139995714Y-117877619D01*
X140043333Y-117830000D01*
X140138571Y-117782380D01*
X140329047Y-117782380D01*
X140424285Y-117830000D01*
X140471904Y-117877619D01*
X140519523Y-117972857D01*
X140519523Y-118020476D01*
X140471904Y-118115714D01*
X140424285Y-118163333D01*
X140329047Y-118210952D01*
X140138571Y-118210952D01*
X140043333Y-118258571D01*
X139995714Y-118306190D01*
X139948095Y-118401428D01*
X139948095Y-118591904D01*
X139995714Y-118687142D01*
X140043333Y-118734761D01*
X140138571Y-118782380D01*
X140329047Y-118782380D01*
X140424285Y-118734761D01*
X140471904Y-118687142D01*
X140519523Y-118591904D01*
X140519523Y-118401428D01*
X140471904Y-118306190D01*
X140424285Y-118258571D01*
X140329047Y-118210952D01*
X156592142Y-62502380D02*
X156258809Y-62026190D01*
X156020714Y-62502380D02*
X156020714Y-61502380D01*
X156401666Y-61502380D01*
X156496904Y-61550000D01*
X156544523Y-61597619D01*
X156592142Y-61692857D01*
X156592142Y-61835714D01*
X156544523Y-61930952D01*
X156496904Y-61978571D01*
X156401666Y-62026190D01*
X156020714Y-62026190D01*
X157496904Y-61502380D02*
X157020714Y-61502380D01*
X156973095Y-61978571D01*
X157020714Y-61930952D01*
X157115952Y-61883333D01*
X157354047Y-61883333D01*
X157449285Y-61930952D01*
X157496904Y-61978571D01*
X157544523Y-62073809D01*
X157544523Y-62311904D01*
X157496904Y-62407142D01*
X157449285Y-62454761D01*
X157354047Y-62502380D01*
X157115952Y-62502380D01*
X157020714Y-62454761D01*
X156973095Y-62407142D01*
X157925476Y-61597619D02*
X157973095Y-61550000D01*
X158068333Y-61502380D01*
X158306428Y-61502380D01*
X158401666Y-61550000D01*
X158449285Y-61597619D01*
X158496904Y-61692857D01*
X158496904Y-61788095D01*
X158449285Y-61930952D01*
X157877857Y-62502380D01*
X158496904Y-62502380D01*
X120002380Y-112402857D02*
X119526190Y-112736190D01*
X120002380Y-112974285D02*
X119002380Y-112974285D01*
X119002380Y-112593333D01*
X119050000Y-112498095D01*
X119097619Y-112450476D01*
X119192857Y-112402857D01*
X119335714Y-112402857D01*
X119430952Y-112450476D01*
X119478571Y-112498095D01*
X119526190Y-112593333D01*
X119526190Y-112974285D01*
X119002380Y-112069523D02*
X119002380Y-111450476D01*
X119383333Y-111783809D01*
X119383333Y-111640952D01*
X119430952Y-111545714D01*
X119478571Y-111498095D01*
X119573809Y-111450476D01*
X119811904Y-111450476D01*
X119907142Y-111498095D01*
X119954761Y-111545714D01*
X120002380Y-111640952D01*
X120002380Y-111926666D01*
X119954761Y-112021904D01*
X119907142Y-112069523D01*
X120002380Y-110974285D02*
X120002380Y-110783809D01*
X119954761Y-110688571D01*
X119907142Y-110640952D01*
X119764285Y-110545714D01*
X119573809Y-110498095D01*
X119192857Y-110498095D01*
X119097619Y-110545714D01*
X119050000Y-110593333D01*
X119002380Y-110688571D01*
X119002380Y-110879047D01*
X119050000Y-110974285D01*
X119097619Y-111021904D01*
X119192857Y-111069523D01*
X119430952Y-111069523D01*
X119526190Y-111021904D01*
X119573809Y-110974285D01*
X119621428Y-110879047D01*
X119621428Y-110688571D01*
X119573809Y-110593333D01*
X119526190Y-110545714D01*
X119430952Y-110498095D01*
D13*
X161275000Y-60370000D02*
X160505000Y-60370000D01*
X153965000Y-59000000D02*
X153965000Y-61740000D01*
X160505000Y-61740000D02*
X160505000Y-59000000D01*
X153195000Y-60370000D02*
X153965000Y-60370000D01*
X153965000Y-61740000D02*
X160505000Y-61740000D01*
X160505000Y-59000000D02*
X153965000Y-59000000D01*
X67690000Y-64050000D02*
X68460000Y-64050000D01*
X75000000Y-65420000D02*
X75000000Y-62680000D01*
X68460000Y-65420000D02*
X75000000Y-65420000D01*
X68460000Y-62680000D02*
X68460000Y-65420000D01*
X75770000Y-64050000D02*
X75000000Y-64050000D01*
X75000000Y-62680000D02*
X68460000Y-62680000D01*
X93980000Y-107720000D02*
X93980000Y-108490000D01*
X92610000Y-115030000D02*
X95350000Y-115030000D01*
X95350000Y-108490000D02*
X92610000Y-108490000D01*
X95350000Y-115030000D02*
X95350000Y-108490000D01*
X93980000Y-115800000D02*
X93980000Y-115030000D01*
X92610000Y-108490000D02*
X92610000Y-115030000D01*
X193770000Y-135990000D02*
X193770000Y-133250000D01*
X193770000Y-133250000D02*
X187230000Y-133250000D01*
X187230000Y-133250000D02*
X187230000Y-135990000D01*
X186460000Y-134620000D02*
X187230000Y-134620000D01*
X187230000Y-135990000D02*
X193770000Y-135990000D01*
X194540000Y-134620000D02*
X193770000Y-134620000D01*
X106680000Y-107720000D02*
X106680000Y-108490000D01*
X108050000Y-115030000D02*
X108050000Y-108490000D01*
X108050000Y-108490000D02*
X105310000Y-108490000D01*
X106680000Y-115800000D02*
X106680000Y-115030000D01*
X105310000Y-115030000D02*
X108050000Y-115030000D01*
X105310000Y-108490000D02*
X105310000Y-115030000D01*
D14*
X88140000Y-141925000D02*
X94740000Y-141925000D01*
X86905000Y-122235000D02*
X94740000Y-122235000D01*
D13*
X100230000Y-149130000D02*
X100230000Y-155670000D01*
X102970000Y-149130000D02*
X100230000Y-149130000D01*
X102970000Y-155670000D02*
X102970000Y-149130000D01*
X101600000Y-156440000D02*
X101600000Y-155670000D01*
X101600000Y-148360000D02*
X101600000Y-149130000D01*
X100230000Y-155670000D02*
X102970000Y-155670000D01*
X106375000Y-120600000D02*
X105125000Y-120600000D01*
X101875000Y-143580000D02*
X106375000Y-143580000D01*
X106375000Y-143580000D02*
X106375000Y-120600000D01*
X103125000Y-120600000D02*
X101875000Y-120600000D01*
X101875000Y-120600000D02*
X101875000Y-143580000D01*
X103125000Y-120600000D02*
G75*
G03*
X105125000Y-120600000I1000000J0D01*
G01*
X265330000Y-126270000D02*
X265330000Y-132810000D01*
X268070000Y-126270000D02*
X265330000Y-126270000D01*
X266700000Y-133580000D02*
X266700000Y-132810000D01*
X268070000Y-132810000D02*
X268070000Y-126270000D01*
X266700000Y-125500000D02*
X266700000Y-126270000D01*
X265330000Y-132810000D02*
X268070000Y-132810000D01*
X59460000Y-157480000D02*
X60230000Y-157480000D01*
X60230000Y-156110000D02*
X60230000Y-158850000D01*
X60230000Y-158850000D02*
X66770000Y-158850000D01*
X66770000Y-156110000D02*
X60230000Y-156110000D01*
X66770000Y-158850000D02*
X66770000Y-156110000D01*
X67540000Y-157480000D02*
X66770000Y-157480000D01*
X155670000Y-179170000D02*
X155670000Y-176430000D01*
X148360000Y-177800000D02*
X149130000Y-177800000D01*
X149130000Y-179170000D02*
X155670000Y-179170000D01*
X149130000Y-176430000D02*
X149130000Y-179170000D01*
X155670000Y-176430000D02*
X149130000Y-176430000D01*
X156440000Y-177800000D02*
X155670000Y-177800000D01*
X61690000Y-74830000D02*
X55150000Y-74830000D01*
X55150000Y-74830000D02*
X55150000Y-77570000D01*
X61690000Y-77570000D02*
X61690000Y-74830000D01*
X62460000Y-76200000D02*
X61690000Y-76200000D01*
X55150000Y-77570000D02*
X61690000Y-77570000D01*
X54380000Y-76200000D02*
X55150000Y-76200000D01*
X113015000Y-62430000D02*
X112245000Y-62430000D01*
X104935000Y-62430000D02*
X105705000Y-62430000D01*
X112245000Y-61060000D02*
X105705000Y-61060000D01*
X105705000Y-63800000D02*
X112245000Y-63800000D01*
X112245000Y-63800000D02*
X112245000Y-61060000D01*
X105705000Y-61060000D02*
X105705000Y-63800000D01*
X165100000Y-128040000D02*
X165100000Y-128810000D01*
X166470000Y-135350000D02*
X166470000Y-128810000D01*
X165100000Y-136120000D02*
X165100000Y-135350000D01*
X166470000Y-128810000D02*
X163730000Y-128810000D01*
X163730000Y-128810000D02*
X163730000Y-135350000D01*
X163730000Y-135350000D02*
X166470000Y-135350000D01*
X64670000Y-108490000D02*
X64670000Y-115030000D01*
X66040000Y-107720000D02*
X66040000Y-108490000D01*
X67410000Y-108490000D02*
X64670000Y-108490000D01*
X67410000Y-115030000D02*
X67410000Y-108490000D01*
X64670000Y-115030000D02*
X67410000Y-115030000D01*
X66040000Y-115800000D02*
X66040000Y-115030000D01*
X217270000Y-126270000D02*
X214530000Y-126270000D01*
X214530000Y-126270000D02*
X214530000Y-132810000D01*
X215900000Y-125500000D02*
X215900000Y-126270000D01*
X217270000Y-132810000D02*
X217270000Y-126270000D01*
X215900000Y-133580000D02*
X215900000Y-132810000D01*
X214530000Y-132810000D02*
X217270000Y-132810000D01*
X66770000Y-151230000D02*
X66770000Y-148490000D01*
X66770000Y-148490000D02*
X60230000Y-148490000D01*
X60230000Y-151230000D02*
X66770000Y-151230000D01*
X67540000Y-149860000D02*
X66770000Y-149860000D01*
X59460000Y-149860000D02*
X60230000Y-149860000D01*
X60230000Y-148490000D02*
X60230000Y-151230000D01*
X117680000Y-181410000D02*
X117680000Y-184350000D01*
X117560000Y-181410000D02*
X117560000Y-184350000D01*
X116660000Y-184350000D02*
X122100000Y-184350000D01*
X115640000Y-182880000D02*
X116660000Y-182880000D01*
X116660000Y-181410000D02*
X116660000Y-184350000D01*
X122100000Y-184350000D02*
X122100000Y-181410000D01*
X122100000Y-181410000D02*
X116660000Y-181410000D01*
X123120000Y-182880000D02*
X122100000Y-182880000D01*
X117440000Y-181410000D02*
X117440000Y-184350000D01*
D14*
X149545000Y-115060000D02*
X149545000Y-108460000D01*
X129855000Y-116295000D02*
X129855000Y-108460000D01*
D13*
X127120000Y-147270000D02*
X125470000Y-147270000D01*
X123470000Y-147270000D02*
X121820000Y-147270000D01*
X121820000Y-157550000D02*
X127120000Y-157550000D01*
X127120000Y-157550000D02*
X127120000Y-147270000D01*
X121820000Y-147270000D02*
X121820000Y-157550000D01*
X123470000Y-147270000D02*
G75*
G03*
X125470000Y-147270000I1000000J0D01*
G01*
D15*
X64940000Y-163390000D02*
X72140000Y-163390000D01*
D14*
X63740000Y-167640000D02*
X63740000Y-167640000D01*
D15*
X72140000Y-171890000D02*
X64940000Y-171890000D01*
X64940000Y-171890000D02*
X64940000Y-163390000D01*
X72140000Y-163390000D02*
X72140000Y-171890000D01*
D14*
X63740000Y-167740000D02*
X63740000Y-167740000D01*
X63740000Y-167640000D02*
X63740000Y-167640000D01*
X63740000Y-167640000D02*
G75*
G03*
X63740000Y-167740000I0J-50000D01*
G01*
X63740000Y-167740000D02*
G75*
G03*
X63740000Y-167640000I0J50000D01*
G01*
X63740000Y-167640000D02*
G75*
G03*
X63740000Y-167740000I0J-50000D01*
G01*
D13*
X203020000Y-122990000D02*
X203020000Y-125930000D01*
X203920000Y-122990000D02*
X203920000Y-125930000D01*
X203800000Y-122990000D02*
X203800000Y-125930000D01*
X203020000Y-125930000D02*
X208460000Y-125930000D01*
X204040000Y-122990000D02*
X204040000Y-125930000D01*
X208460000Y-125930000D02*
X208460000Y-122990000D01*
X209480000Y-124460000D02*
X208460000Y-124460000D01*
X208460000Y-122990000D02*
X203020000Y-122990000D01*
X202000000Y-124460000D02*
X203020000Y-124460000D01*
D14*
X251145000Y-115060000D02*
X251145000Y-108460000D01*
X231455000Y-116295000D02*
X231455000Y-108460000D01*
D13*
X153965000Y-54950000D02*
X153965000Y-57690000D01*
X153965000Y-57690000D02*
X160505000Y-57690000D01*
X160505000Y-57690000D02*
X160505000Y-54950000D01*
X153195000Y-56320000D02*
X153965000Y-56320000D01*
X161275000Y-56320000D02*
X160505000Y-56320000D01*
X160505000Y-54950000D02*
X153965000Y-54950000D01*
X255200000Y-162560000D02*
X254180000Y-162560000D01*
X253280000Y-164030000D02*
X253280000Y-161090000D01*
X253400000Y-164030000D02*
X253400000Y-161090000D01*
X254180000Y-164030000D02*
X254180000Y-161090000D01*
X248740000Y-164030000D02*
X254180000Y-164030000D01*
X248740000Y-161090000D02*
X248740000Y-164030000D01*
X247720000Y-162560000D02*
X248740000Y-162560000D01*
X254180000Y-161090000D02*
X248740000Y-161090000D01*
X253160000Y-164030000D02*
X253160000Y-161090000D01*
D14*
X31025000Y-122235000D02*
X38860000Y-122235000D01*
X32260000Y-141925000D02*
X38860000Y-141925000D01*
D13*
X38280000Y-161490000D02*
X38280000Y-158550000D01*
X32840000Y-161490000D02*
X38280000Y-161490000D01*
X32840000Y-158550000D02*
X32840000Y-161490000D01*
X33860000Y-158550000D02*
X33860000Y-161490000D01*
X33740000Y-158550000D02*
X33740000Y-161490000D01*
X33620000Y-158550000D02*
X33620000Y-161490000D01*
X39300000Y-160020000D02*
X38280000Y-160020000D01*
X31820000Y-160020000D02*
X32840000Y-160020000D01*
X38280000Y-158550000D02*
X32840000Y-158550000D01*
X189510000Y-119330000D02*
X187860000Y-119330000D01*
X193160000Y-129610000D02*
X193160000Y-119330000D01*
X187860000Y-119330000D02*
X187860000Y-129610000D01*
X187860000Y-129610000D02*
X193160000Y-129610000D01*
X193160000Y-119330000D02*
X191510000Y-119330000D01*
X189510000Y-119330000D02*
G75*
G03*
X191510000Y-119330000I1000000J0D01*
G01*
D15*
X277880000Y-148150000D02*
X277880000Y-156650000D01*
X270680000Y-148150000D02*
X277880000Y-148150000D01*
X277880000Y-156650000D02*
X270680000Y-156650000D01*
D14*
X269480000Y-152400000D02*
X269480000Y-152400000D01*
D15*
X270680000Y-156650000D02*
X270680000Y-148150000D01*
D14*
X269480000Y-152400000D02*
X269480000Y-152400000D01*
X269480000Y-152500000D02*
X269480000Y-152500000D01*
X269480000Y-152400000D02*
G75*
G03*
X269480000Y-152500000I0J-50000D01*
G01*
X269480000Y-152500000D02*
G75*
G03*
X269480000Y-152400000I0J50000D01*
G01*
X269480000Y-152400000D02*
G75*
G03*
X269480000Y-152500000I0J-50000D01*
G01*
D13*
X49430000Y-108490000D02*
X49430000Y-115030000D01*
X50800000Y-115800000D02*
X50800000Y-115030000D01*
X52170000Y-115030000D02*
X52170000Y-108490000D01*
X50800000Y-107720000D02*
X50800000Y-108490000D01*
X49430000Y-115030000D02*
X52170000Y-115030000D01*
X52170000Y-108490000D02*
X49430000Y-108490000D01*
X158680000Y-137160000D02*
X157660000Y-137160000D01*
X152220000Y-138630000D02*
X157660000Y-138630000D01*
X153240000Y-135690000D02*
X153240000Y-138630000D01*
X151200000Y-137160000D02*
X152220000Y-137160000D01*
X157660000Y-135690000D02*
X152220000Y-135690000D01*
X157660000Y-138630000D02*
X157660000Y-135690000D01*
X153120000Y-135690000D02*
X153120000Y-138630000D01*
X152220000Y-135690000D02*
X152220000Y-138630000D01*
X153000000Y-135690000D02*
X153000000Y-138630000D01*
D14*
X81595000Y-172175000D02*
X81595000Y-164340000D01*
X101285000Y-170940000D02*
X101285000Y-164340000D01*
D13*
X86180000Y-156010000D02*
X86180000Y-158950000D01*
X92640000Y-157480000D02*
X91620000Y-157480000D01*
X86960000Y-156010000D02*
X86960000Y-158950000D01*
X86180000Y-158950000D02*
X91620000Y-158950000D01*
X91620000Y-158950000D02*
X91620000Y-156010000D01*
X91620000Y-156010000D02*
X86180000Y-156010000D01*
X87080000Y-156010000D02*
X87080000Y-158950000D01*
X87200000Y-156010000D02*
X87200000Y-158950000D01*
X85160000Y-157480000D02*
X86180000Y-157480000D01*
X101600000Y-115800000D02*
X101600000Y-115030000D01*
X102970000Y-108490000D02*
X100230000Y-108490000D01*
X100230000Y-108490000D02*
X100230000Y-115030000D01*
X100230000Y-115030000D02*
X102970000Y-115030000D01*
X102970000Y-115030000D02*
X102970000Y-108490000D01*
X101600000Y-107720000D02*
X101600000Y-108490000D01*
X142515000Y-46940000D02*
X142515000Y-69920000D01*
X147015000Y-69920000D02*
X147015000Y-46940000D01*
X142515000Y-69920000D02*
X147015000Y-69920000D01*
X147015000Y-46940000D02*
X145765000Y-46940000D01*
X143765000Y-46940000D02*
X142515000Y-46940000D01*
X143765000Y-46940000D02*
G75*
G03*
X145765000Y-46940000I1000000J0D01*
G01*
X123290000Y-132810000D02*
X123290000Y-126270000D01*
X123290000Y-126270000D02*
X120550000Y-126270000D01*
X121920000Y-125500000D02*
X121920000Y-126270000D01*
X120550000Y-126270000D02*
X120550000Y-132810000D01*
X121920000Y-133580000D02*
X121920000Y-132810000D01*
X120550000Y-132810000D02*
X123290000Y-132810000D01*
X115470000Y-115030000D02*
X118210000Y-115030000D01*
X116840000Y-115800000D02*
X116840000Y-115030000D01*
X118210000Y-108490000D02*
X115470000Y-108490000D01*
X116840000Y-107720000D02*
X116840000Y-108490000D01*
X115470000Y-108490000D02*
X115470000Y-115030000D01*
X118210000Y-115030000D02*
X118210000Y-108490000D01*
D14*
X171960000Y-141925000D02*
X178560000Y-141925000D01*
X170725000Y-122235000D02*
X178560000Y-122235000D01*
D13*
X68460000Y-66730000D02*
X68460000Y-69470000D01*
X68460000Y-69470000D02*
X75000000Y-69470000D01*
X75770000Y-68100000D02*
X75000000Y-68100000D01*
X75000000Y-66730000D02*
X68460000Y-66730000D01*
X67690000Y-68100000D02*
X68460000Y-68100000D01*
X75000000Y-69470000D02*
X75000000Y-66730000D01*
X172720000Y-115800000D02*
X172720000Y-115030000D01*
X174090000Y-115030000D02*
X174090000Y-108490000D01*
X171350000Y-115030000D02*
X174090000Y-115030000D01*
X172720000Y-107720000D02*
X172720000Y-108490000D01*
X171350000Y-108490000D02*
X171350000Y-115030000D01*
X174090000Y-108490000D02*
X171350000Y-108490000D01*
X116840000Y-125500000D02*
X116840000Y-126270000D01*
X115470000Y-126270000D02*
X115470000Y-132810000D01*
X115470000Y-132810000D02*
X118210000Y-132810000D01*
X116840000Y-133580000D02*
X116840000Y-132810000D01*
X118210000Y-126270000D02*
X115470000Y-126270000D01*
X118210000Y-132810000D02*
X118210000Y-126270000D01*
X113015000Y-70530000D02*
X112245000Y-70530000D01*
X112245000Y-69160000D02*
X105705000Y-69160000D01*
X105705000Y-71900000D02*
X112245000Y-71900000D01*
X105705000Y-69160000D02*
X105705000Y-71900000D01*
X104935000Y-70530000D02*
X105705000Y-70530000D01*
X112245000Y-71900000D02*
X112245000Y-69160000D01*
X174585000Y-56320000D02*
X173815000Y-56320000D01*
X166505000Y-56320000D02*
X167275000Y-56320000D01*
X173815000Y-57690000D02*
X173815000Y-54950000D01*
X167275000Y-57690000D02*
X173815000Y-57690000D01*
X173815000Y-54950000D02*
X167275000Y-54950000D01*
X167275000Y-54950000D02*
X167275000Y-57690000D01*
X105705000Y-67850000D02*
X112245000Y-67850000D01*
X105705000Y-65110000D02*
X105705000Y-67850000D01*
X112245000Y-65110000D02*
X105705000Y-65110000D01*
X112245000Y-67850000D02*
X112245000Y-65110000D01*
X113015000Y-66480000D02*
X112245000Y-66480000D01*
X104935000Y-66480000D02*
X105705000Y-66480000D01*
X118245000Y-66480000D02*
X119015000Y-66480000D01*
X119015000Y-65110000D02*
X119015000Y-67850000D01*
X125555000Y-67850000D02*
X125555000Y-65110000D01*
X125555000Y-65110000D02*
X119015000Y-65110000D01*
X119015000Y-67850000D02*
X125555000Y-67850000D01*
X126325000Y-66480000D02*
X125555000Y-66480000D01*
X253820000Y-133150000D02*
X253820000Y-136090000D01*
X254840000Y-133150000D02*
X254840000Y-136090000D01*
X252800000Y-134620000D02*
X253820000Y-134620000D01*
X254600000Y-133150000D02*
X254600000Y-136090000D01*
X259260000Y-136090000D02*
X259260000Y-133150000D01*
X259260000Y-133150000D02*
X253820000Y-133150000D01*
X260280000Y-134620000D02*
X259260000Y-134620000D01*
X254720000Y-133150000D02*
X254720000Y-136090000D01*
X253820000Y-136090000D02*
X259260000Y-136090000D01*
X94255000Y-57100000D02*
X94255000Y-80080000D01*
X98755000Y-80080000D02*
X98755000Y-57100000D01*
X98755000Y-57100000D02*
X97505000Y-57100000D01*
X94255000Y-80080000D02*
X98755000Y-80080000D01*
X95505000Y-57100000D02*
X94255000Y-57100000D01*
X95505000Y-57100000D02*
G75*
G03*
X97505000Y-57100000I1000000J0D01*
G01*
D12*
X267785000Y-165100000D02*
G75*
G03*
X267785000Y-165100000I-2625000J0D01*
G01*
D13*
X112245000Y-59750000D02*
X112245000Y-57010000D01*
X105705000Y-59750000D02*
X112245000Y-59750000D01*
X104935000Y-58380000D02*
X105705000Y-58380000D01*
X113015000Y-58380000D02*
X112245000Y-58380000D01*
X112245000Y-57010000D02*
X105705000Y-57010000D01*
X105705000Y-57010000D02*
X105705000Y-59750000D01*
X167275000Y-50900000D02*
X167275000Y-53640000D01*
X166505000Y-52270000D02*
X167275000Y-52270000D01*
X173815000Y-53640000D02*
X173815000Y-50900000D01*
X167275000Y-53640000D02*
X173815000Y-53640000D01*
X173815000Y-50900000D02*
X167275000Y-50900000D01*
X174585000Y-52270000D02*
X173815000Y-52270000D01*
D12*
X59505000Y-167640000D02*
G75*
G03*
X59505000Y-167640000I-2625000J0D01*
G01*
D13*
X161275000Y-52270000D02*
X160505000Y-52270000D01*
X153195000Y-52270000D02*
X153965000Y-52270000D01*
X153965000Y-50900000D02*
X153965000Y-53640000D01*
X153965000Y-53640000D02*
X160505000Y-53640000D01*
X160505000Y-53640000D02*
X160505000Y-50900000D01*
X160505000Y-50900000D02*
X153965000Y-50900000D01*
X161830000Y-179170000D02*
X168370000Y-179170000D01*
X161830000Y-176430000D02*
X161830000Y-179170000D01*
X168370000Y-179170000D02*
X168370000Y-176430000D01*
X161060000Y-177800000D02*
X161830000Y-177800000D01*
X168370000Y-176430000D02*
X161830000Y-176430000D01*
X169140000Y-177800000D02*
X168370000Y-177800000D01*
D15*
X41050000Y-176930000D02*
X41050000Y-177330000D01*
X59650000Y-176830000D02*
X59650000Y-176460000D01*
X60650000Y-177830000D02*
X59650000Y-176830000D01*
X60550000Y-183730000D02*
X60550000Y-183330000D01*
X59650000Y-176450000D02*
X59650000Y-176200000D01*
X41050000Y-183230000D02*
X41050000Y-183730000D01*
X60150000Y-183730000D02*
X60550000Y-183730000D01*
X60650000Y-178130000D02*
X60650000Y-177830000D01*
X41450000Y-176930000D02*
X41050000Y-176930000D01*
X41050000Y-183730000D02*
X41450000Y-183730000D01*
D13*
X125555000Y-61060000D02*
X119015000Y-61060000D01*
X119015000Y-61060000D02*
X119015000Y-63800000D01*
X126325000Y-62430000D02*
X125555000Y-62430000D01*
X119015000Y-63800000D02*
X125555000Y-63800000D01*
X125555000Y-63800000D02*
X125555000Y-61060000D01*
X118245000Y-62430000D02*
X119015000Y-62430000D01*
X152220000Y-128470000D02*
X157660000Y-128470000D01*
X152220000Y-125530000D02*
X152220000Y-128470000D01*
X158680000Y-127000000D02*
X157660000Y-127000000D01*
X157660000Y-125530000D02*
X152220000Y-125530000D01*
X157660000Y-128470000D02*
X157660000Y-125530000D01*
X153240000Y-125530000D02*
X153240000Y-128470000D01*
X151200000Y-127000000D02*
X152220000Y-127000000D01*
X153120000Y-125530000D02*
X153120000Y-128470000D01*
X153000000Y-125530000D02*
X153000000Y-128470000D01*
X109295000Y-177680000D02*
X88855000Y-177680000D01*
X88855000Y-177680000D02*
X88855000Y-179330000D01*
X109295000Y-182980000D02*
X109295000Y-177680000D01*
X88855000Y-181330000D02*
X88855000Y-182980000D01*
X88855000Y-182980000D02*
X109295000Y-182980000D01*
X88855000Y-181330000D02*
G75*
G03*
X88855000Y-179330000I0J1000000D01*
G01*
X136430000Y-166470000D02*
X142970000Y-166470000D01*
X143740000Y-165100000D02*
X142970000Y-165100000D01*
X142970000Y-163730000D02*
X136430000Y-163730000D01*
X135660000Y-165100000D02*
X136430000Y-165100000D01*
X136430000Y-163730000D02*
X136430000Y-166470000D01*
X142970000Y-166470000D02*
X142970000Y-163730000D01*
X91620000Y-153870000D02*
X91620000Y-150930000D01*
X87080000Y-150930000D02*
X87080000Y-153870000D01*
X86180000Y-150930000D02*
X86180000Y-153870000D01*
X86960000Y-150930000D02*
X86960000Y-153870000D01*
X86180000Y-153870000D02*
X91620000Y-153870000D01*
X91620000Y-150930000D02*
X86180000Y-150930000D01*
X87200000Y-150930000D02*
X87200000Y-153870000D01*
X85160000Y-152400000D02*
X86180000Y-152400000D01*
X92640000Y-152400000D02*
X91620000Y-152400000D01*
X274320000Y-133580000D02*
X274320000Y-132810000D01*
X275690000Y-126270000D02*
X272950000Y-126270000D01*
X275690000Y-132810000D02*
X275690000Y-126270000D01*
X274320000Y-125500000D02*
X274320000Y-126270000D01*
X272950000Y-132810000D02*
X275690000Y-132810000D01*
X272950000Y-126270000D02*
X272950000Y-132810000D01*
X33020000Y-107720000D02*
X33020000Y-108490000D01*
X33020000Y-115800000D02*
X33020000Y-115030000D01*
X34390000Y-108490000D02*
X31650000Y-108490000D01*
X34390000Y-115030000D02*
X34390000Y-108490000D01*
X31650000Y-108490000D02*
X31650000Y-115030000D01*
X31650000Y-115030000D02*
X34390000Y-115030000D01*
X203800000Y-133150000D02*
X203800000Y-136090000D01*
X208460000Y-133150000D02*
X203020000Y-133150000D01*
X203020000Y-133150000D02*
X203020000Y-136090000D01*
X202000000Y-134620000D02*
X203020000Y-134620000D01*
X209480000Y-134620000D02*
X208460000Y-134620000D01*
X208460000Y-136090000D02*
X208460000Y-133150000D01*
X203020000Y-136090000D02*
X208460000Y-136090000D01*
X204040000Y-133150000D02*
X204040000Y-136090000D01*
X203920000Y-133150000D02*
X203920000Y-136090000D01*
X222790000Y-176430000D02*
X222790000Y-179170000D01*
X230100000Y-177800000D02*
X229330000Y-177800000D01*
X222790000Y-179170000D02*
X229330000Y-179170000D01*
X229330000Y-176430000D02*
X222790000Y-176430000D01*
X222020000Y-177800000D02*
X222790000Y-177800000D01*
X229330000Y-179170000D02*
X229330000Y-176430000D01*
X66160000Y-144850000D02*
X66160000Y-134570000D01*
X62510000Y-134570000D02*
X60860000Y-134570000D01*
X66160000Y-134570000D02*
X64510000Y-134570000D01*
X60860000Y-144850000D02*
X66160000Y-144850000D01*
X60860000Y-134570000D02*
X60860000Y-144850000D01*
X62510000Y-134570000D02*
G75*
G03*
X64510000Y-134570000I1000000J0D01*
G01*
X38280000Y-156410000D02*
X38280000Y-153470000D01*
X33860000Y-153470000D02*
X33860000Y-156410000D01*
X33620000Y-153470000D02*
X33620000Y-156410000D01*
X38280000Y-153470000D02*
X32840000Y-153470000D01*
X32840000Y-153470000D02*
X32840000Y-156410000D01*
X32840000Y-156410000D02*
X38280000Y-156410000D01*
X33740000Y-153470000D02*
X33740000Y-156410000D01*
X39300000Y-154940000D02*
X38280000Y-154940000D01*
X31820000Y-154940000D02*
X32840000Y-154940000D01*
D14*
X50485000Y-170940000D02*
X50485000Y-164340000D01*
X30795000Y-172175000D02*
X30795000Y-164340000D01*
D13*
X60960000Y-107720000D02*
X60960000Y-108490000D01*
X59590000Y-115030000D02*
X62330000Y-115030000D01*
X62330000Y-115030000D02*
X62330000Y-108490000D01*
X62330000Y-108490000D02*
X59590000Y-108490000D01*
X59590000Y-108490000D02*
X59590000Y-115030000D01*
X60960000Y-115800000D02*
X60960000Y-115030000D01*
X135660000Y-160020000D02*
X136430000Y-160020000D01*
X136430000Y-161390000D02*
X142970000Y-161390000D01*
X143740000Y-160020000D02*
X142970000Y-160020000D01*
X142970000Y-158650000D02*
X136430000Y-158650000D01*
X136430000Y-158650000D02*
X136430000Y-161390000D01*
X142970000Y-161390000D02*
X142970000Y-158650000D01*
D12*
X214445000Y-149860000D02*
G75*
G03*
X214445000Y-149860000I-2625000J0D01*
G01*
D13*
X281940000Y-125500000D02*
X281940000Y-126270000D01*
X283310000Y-132810000D02*
X283310000Y-126270000D01*
X280570000Y-132810000D02*
X283310000Y-132810000D01*
X281940000Y-133580000D02*
X281940000Y-132810000D01*
X283310000Y-126270000D02*
X280570000Y-126270000D01*
X280570000Y-126270000D02*
X280570000Y-132810000D01*
D12*
X265245000Y-152400000D02*
G75*
G03*
X265245000Y-152400000I-2625000J0D01*
G01*
D13*
X61690000Y-81620000D02*
X61690000Y-78880000D01*
X62460000Y-80250000D02*
X61690000Y-80250000D01*
X54380000Y-80250000D02*
X55150000Y-80250000D01*
X55150000Y-81620000D02*
X61690000Y-81620000D01*
X61690000Y-78880000D02*
X55150000Y-78880000D01*
X55150000Y-78880000D02*
X55150000Y-81620000D01*
X58420000Y-131040000D02*
X58420000Y-130270000D01*
X58420000Y-122960000D02*
X58420000Y-123730000D01*
X57050000Y-130270000D02*
X59790000Y-130270000D01*
X59790000Y-123730000D02*
X57050000Y-123730000D01*
X57050000Y-123730000D02*
X57050000Y-130270000D01*
X59790000Y-130270000D02*
X59790000Y-123730000D01*
X61690000Y-70780000D02*
X55150000Y-70780000D01*
X55150000Y-73520000D02*
X61690000Y-73520000D01*
X61690000Y-73520000D02*
X61690000Y-70780000D01*
X62460000Y-72150000D02*
X61690000Y-72150000D01*
X54380000Y-72150000D02*
X55150000Y-72150000D01*
X55150000Y-70780000D02*
X55150000Y-73520000D01*
X177800000Y-107720000D02*
X177800000Y-108490000D01*
X179170000Y-108490000D02*
X176430000Y-108490000D01*
X176430000Y-108490000D02*
X176430000Y-115030000D01*
X179170000Y-115030000D02*
X179170000Y-108490000D01*
X177800000Y-115800000D02*
X177800000Y-115030000D01*
X176430000Y-115030000D02*
X179170000Y-115030000D01*
X47345000Y-60240000D02*
X46095000Y-60240000D01*
X42845000Y-60240000D02*
X42845000Y-83220000D01*
X44095000Y-60240000D02*
X42845000Y-60240000D01*
X47345000Y-83220000D02*
X47345000Y-60240000D01*
X42845000Y-83220000D02*
X47345000Y-83220000D01*
X44095000Y-60240000D02*
G75*
G03*
X46095000Y-60240000I1000000J0D01*
G01*
X281940000Y-118340000D02*
X281940000Y-117570000D01*
X283310000Y-117570000D02*
X283310000Y-111030000D01*
X283310000Y-111030000D02*
X280570000Y-111030000D01*
X281940000Y-110260000D02*
X281940000Y-111030000D01*
X280570000Y-111030000D02*
X280570000Y-117570000D01*
X280570000Y-117570000D02*
X283310000Y-117570000D01*
X42010000Y-115030000D02*
X42010000Y-108490000D01*
X39270000Y-115030000D02*
X42010000Y-115030000D01*
X40640000Y-107720000D02*
X40640000Y-108490000D01*
X40640000Y-115800000D02*
X40640000Y-115030000D01*
X39270000Y-108490000D02*
X39270000Y-115030000D01*
X42010000Y-108490000D02*
X39270000Y-108490000D01*
X174090000Y-177070000D02*
X171350000Y-177070000D01*
X172720000Y-184380000D02*
X172720000Y-183610000D01*
X171350000Y-183610000D02*
X174090000Y-183610000D01*
X174090000Y-183610000D02*
X174090000Y-177070000D01*
X171350000Y-177070000D02*
X171350000Y-183610000D01*
X172720000Y-176300000D02*
X172720000Y-177070000D01*
X113130000Y-115030000D02*
X113130000Y-108490000D01*
X113130000Y-108490000D02*
X110390000Y-108490000D01*
X110390000Y-108490000D02*
X110390000Y-115030000D01*
X111760000Y-115800000D02*
X111760000Y-115030000D01*
X111760000Y-107720000D02*
X111760000Y-108490000D01*
X110390000Y-115030000D02*
X113130000Y-115030000D01*
D14*
X205425000Y-153160000D02*
X205425000Y-146560000D01*
X185735000Y-154395000D02*
X185735000Y-146560000D01*
X211135000Y-172175000D02*
X211135000Y-164340000D01*
X230825000Y-170940000D02*
X230825000Y-164340000D01*
D13*
X270810000Y-160260000D02*
X272050000Y-160260000D01*
X270810000Y-161500000D02*
X270810000Y-160260000D01*
X271050000Y-160500000D02*
X271050000Y-169120000D01*
X271050000Y-160500000D02*
X282670000Y-160500000D01*
X282670000Y-160500000D02*
X282670000Y-169120000D01*
X271050000Y-169120000D02*
X282670000Y-169120000D01*
X260280000Y-129540000D02*
X259260000Y-129540000D01*
X254840000Y-128070000D02*
X254840000Y-131010000D01*
X254720000Y-128070000D02*
X254720000Y-131010000D01*
X252800000Y-129540000D02*
X253820000Y-129540000D01*
X254600000Y-128070000D02*
X254600000Y-131010000D01*
X253820000Y-131010000D02*
X259260000Y-131010000D01*
X259260000Y-131010000D02*
X259260000Y-128070000D01*
X253820000Y-128070000D02*
X253820000Y-131010000D01*
X259260000Y-128070000D02*
X253820000Y-128070000D01*
D14*
X200345000Y-115060000D02*
X200345000Y-108460000D01*
X180655000Y-116295000D02*
X180655000Y-108460000D01*
D13*
X238660000Y-129610000D02*
X243960000Y-129610000D01*
X238660000Y-119330000D02*
X238660000Y-129610000D01*
X240310000Y-119330000D02*
X238660000Y-119330000D01*
X243960000Y-129610000D02*
X243960000Y-119330000D01*
X243960000Y-119330000D02*
X242310000Y-119330000D01*
X240310000Y-119330000D02*
G75*
G03*
X242310000Y-119330000I1000000J0D01*
G01*
D15*
X83410000Y-176950000D02*
X83010000Y-176950000D01*
X63810000Y-182550000D02*
X63810000Y-182850000D01*
X63810000Y-182850000D02*
X64810000Y-183850000D01*
X64310000Y-176950000D02*
X63910000Y-176950000D01*
X64810000Y-184230000D02*
X64810000Y-184480000D01*
X83410000Y-183750000D02*
X83410000Y-183350000D01*
X63910000Y-176950000D02*
X63910000Y-177350000D01*
X83010000Y-183750000D02*
X83410000Y-183750000D01*
X64810000Y-183850000D02*
X64810000Y-184220000D01*
X83410000Y-177450000D02*
X83410000Y-176950000D01*
D14*
X119620000Y-165200000D02*
X119620000Y-165200000D01*
X119620000Y-165100000D02*
X119620000Y-165100000D01*
D15*
X120820000Y-169350000D02*
X120820000Y-160850000D01*
X120820000Y-160850000D02*
X128020000Y-160850000D01*
D14*
X119620000Y-165100000D02*
X119620000Y-165100000D01*
D15*
X128020000Y-160850000D02*
X128020000Y-169350000D01*
X128020000Y-169350000D02*
X120820000Y-169350000D01*
D14*
X119620000Y-165200000D02*
G75*
G03*
X119620000Y-165100000I0J50000D01*
G01*
X119620000Y-165100000D02*
G75*
G03*
X119620000Y-165200000I0J-50000D01*
G01*
X119620000Y-165100000D02*
G75*
G03*
X119620000Y-165200000I0J-50000D01*
G01*
D13*
X33860000Y-148390000D02*
X33860000Y-151330000D01*
X33740000Y-148390000D02*
X33740000Y-151330000D01*
X31820000Y-149860000D02*
X32840000Y-149860000D01*
X32840000Y-148390000D02*
X32840000Y-151330000D01*
X32840000Y-151330000D02*
X38280000Y-151330000D01*
X39300000Y-149860000D02*
X38280000Y-149860000D01*
X33620000Y-148390000D02*
X33620000Y-151330000D01*
X38280000Y-151330000D02*
X38280000Y-148390000D01*
X38280000Y-148390000D02*
X32840000Y-148390000D01*
X54710000Y-151670000D02*
X51970000Y-151670000D01*
X53340000Y-150900000D02*
X53340000Y-151670000D01*
X54710000Y-158210000D02*
X54710000Y-151670000D01*
X51970000Y-151670000D02*
X51970000Y-158210000D01*
X53340000Y-158980000D02*
X53340000Y-158210000D01*
X51970000Y-158210000D02*
X54710000Y-158210000D01*
D14*
X167880000Y-149860000D02*
X167880000Y-149860000D01*
X167880000Y-149960000D02*
X167880000Y-149960000D01*
D15*
X176280000Y-145610000D02*
X176280000Y-154110000D01*
X169080000Y-145610000D02*
X176280000Y-145610000D01*
D14*
X167880000Y-149860000D02*
X167880000Y-149860000D01*
D15*
X176280000Y-154110000D02*
X169080000Y-154110000D01*
X169080000Y-154110000D02*
X169080000Y-145610000D01*
D14*
X167880000Y-149860000D02*
G75*
G03*
X167880000Y-149960000I0J-50000D01*
G01*
X167880000Y-149860000D02*
G75*
G03*
X167880000Y-149960000I0J-50000D01*
G01*
X167880000Y-149960000D02*
G75*
G03*
X167880000Y-149860000I0J50000D01*
G01*
D13*
X44350000Y-108490000D02*
X44350000Y-115030000D01*
X47090000Y-108490000D02*
X44350000Y-108490000D01*
X44350000Y-115030000D02*
X47090000Y-115030000D01*
X45720000Y-107720000D02*
X45720000Y-108490000D01*
X45720000Y-115800000D02*
X45720000Y-115030000D01*
X47090000Y-115030000D02*
X47090000Y-108490000D01*
X238030000Y-135990000D02*
X244570000Y-135990000D01*
X244570000Y-133250000D02*
X238030000Y-133250000D01*
X245340000Y-134620000D02*
X244570000Y-134620000D01*
X244570000Y-135990000D02*
X244570000Y-133250000D01*
X238030000Y-133250000D02*
X238030000Y-135990000D01*
X237260000Y-134620000D02*
X238030000Y-134620000D01*
D12*
X164185000Y-149860000D02*
G75*
G03*
X164185000Y-149860000I-2625000J0D01*
G01*
D13*
X254600000Y-122990000D02*
X254600000Y-125930000D01*
X253820000Y-122990000D02*
X253820000Y-125930000D01*
X252800000Y-124460000D02*
X253820000Y-124460000D01*
X253820000Y-125930000D02*
X259260000Y-125930000D01*
X259260000Y-122990000D02*
X253820000Y-122990000D01*
X254840000Y-122990000D02*
X254840000Y-125930000D01*
X260280000Y-124460000D02*
X259260000Y-124460000D01*
X259260000Y-125930000D02*
X259260000Y-122990000D01*
X254720000Y-122990000D02*
X254720000Y-125930000D01*
X143740000Y-170180000D02*
X142970000Y-170180000D01*
X136430000Y-171550000D02*
X142970000Y-171550000D01*
X135660000Y-170180000D02*
X136430000Y-170180000D01*
X142970000Y-171550000D02*
X142970000Y-168810000D01*
X142970000Y-168810000D02*
X136430000Y-168810000D01*
X136430000Y-168810000D02*
X136430000Y-171550000D01*
D15*
X207970000Y-167670000D02*
X206970000Y-166670000D01*
X188370000Y-173070000D02*
X188370000Y-173570000D01*
X206970000Y-166290000D02*
X206970000Y-166040000D01*
X188370000Y-173570000D02*
X188770000Y-173570000D01*
X206970000Y-166670000D02*
X206970000Y-166300000D01*
X188370000Y-166770000D02*
X188370000Y-167170000D01*
X207970000Y-167970000D02*
X207970000Y-167670000D01*
X188770000Y-166770000D02*
X188370000Y-166770000D01*
X207870000Y-173570000D02*
X207870000Y-173170000D01*
X207470000Y-173570000D02*
X207870000Y-173570000D01*
D13*
X54380000Y-68100000D02*
X55150000Y-68100000D01*
X55150000Y-69470000D02*
X61690000Y-69470000D01*
X61690000Y-66730000D02*
X55150000Y-66730000D01*
X55150000Y-66730000D02*
X55150000Y-69470000D01*
X61690000Y-69470000D02*
X61690000Y-66730000D01*
X62460000Y-68100000D02*
X61690000Y-68100000D01*
D14*
X71665000Y-119695000D02*
X79500000Y-119695000D01*
X72900000Y-139385000D02*
X79500000Y-139385000D01*
D13*
X245340000Y-139700000D02*
X244570000Y-139700000D01*
X244570000Y-138330000D02*
X238030000Y-138330000D01*
X237260000Y-139700000D02*
X238030000Y-139700000D01*
X244570000Y-141070000D02*
X244570000Y-138330000D01*
X238030000Y-141070000D02*
X244570000Y-141070000D01*
X238030000Y-138330000D02*
X238030000Y-141070000D01*
D12*
X112845000Y-165100000D02*
G75*
G03*
X112845000Y-165100000I-2625000J0D01*
G01*
D13*
X75770000Y-72150000D02*
X75000000Y-72150000D01*
X75000000Y-70780000D02*
X68460000Y-70780000D01*
X75000000Y-73520000D02*
X75000000Y-70780000D01*
X68460000Y-73520000D02*
X75000000Y-73520000D01*
X68460000Y-70780000D02*
X68460000Y-73520000D01*
X67690000Y-72150000D02*
X68460000Y-72150000D01*
X87080000Y-145850000D02*
X87080000Y-148790000D01*
X87200000Y-145850000D02*
X87200000Y-148790000D01*
X91620000Y-148790000D02*
X91620000Y-145850000D01*
X86960000Y-145850000D02*
X86960000Y-148790000D01*
X85160000Y-147320000D02*
X86180000Y-147320000D01*
X91620000Y-145850000D02*
X86180000Y-145850000D01*
X92640000Y-147320000D02*
X91620000Y-147320000D01*
X86180000Y-145850000D02*
X86180000Y-148790000D01*
X86180000Y-148790000D02*
X91620000Y-148790000D01*
X63500000Y-122960000D02*
X63500000Y-123730000D01*
X63500000Y-131040000D02*
X63500000Y-130270000D01*
X64870000Y-130270000D02*
X64870000Y-123730000D01*
X62130000Y-123730000D02*
X62130000Y-130270000D01*
X62130000Y-130270000D02*
X64870000Y-130270000D01*
X64870000Y-123730000D02*
X62130000Y-123730000D01*
X231140000Y-125500000D02*
X231140000Y-126270000D01*
X229770000Y-126270000D02*
X229770000Y-132810000D01*
X232510000Y-126270000D02*
X229770000Y-126270000D01*
X229770000Y-132810000D02*
X232510000Y-132810000D01*
X231140000Y-133580000D02*
X231140000Y-132810000D01*
X232510000Y-132810000D02*
X232510000Y-126270000D01*
X224890000Y-132810000D02*
X224890000Y-126270000D01*
X223520000Y-133580000D02*
X223520000Y-132810000D01*
X222150000Y-126270000D02*
X222150000Y-132810000D01*
X223520000Y-125500000D02*
X223520000Y-126270000D01*
X222150000Y-132810000D02*
X224890000Y-132810000D01*
X224890000Y-126270000D02*
X222150000Y-126270000D01*
X203020000Y-128070000D02*
X203020000Y-131010000D01*
X203920000Y-128070000D02*
X203920000Y-131010000D01*
X203800000Y-128070000D02*
X203800000Y-131010000D01*
X208460000Y-128070000D02*
X203020000Y-128070000D01*
X204040000Y-128070000D02*
X204040000Y-131010000D01*
X209480000Y-129540000D02*
X208460000Y-129540000D01*
X208460000Y-131010000D02*
X208460000Y-128070000D01*
X203020000Y-131010000D02*
X208460000Y-131010000D01*
X202000000Y-129540000D02*
X203020000Y-129540000D01*
X125555000Y-59750000D02*
X125555000Y-57010000D01*
X119015000Y-57010000D02*
X119015000Y-59750000D01*
X118245000Y-58380000D02*
X119015000Y-58380000D01*
X126325000Y-58380000D02*
X125555000Y-58380000D01*
X125555000Y-57010000D02*
X119015000Y-57010000D01*
X119015000Y-59750000D02*
X125555000Y-59750000D01*
D14*
X256420000Y-172720000D02*
G75*
G03*
X256420000Y-172720000I-5000000J0D01*
G01*
D13*
X127000000Y-133120000D02*
X127000000Y-133890000D01*
X125630000Y-140430000D02*
X128370000Y-140430000D01*
X125630000Y-133890000D02*
X125630000Y-140430000D01*
X127000000Y-141200000D02*
X127000000Y-140430000D01*
X128370000Y-133890000D02*
X125630000Y-133890000D01*
X128370000Y-140430000D02*
X128370000Y-133890000D01*
X167275000Y-46850000D02*
X167275000Y-49590000D01*
X174585000Y-48220000D02*
X173815000Y-48220000D01*
X173815000Y-46850000D02*
X167275000Y-46850000D01*
X173815000Y-49590000D02*
X173815000Y-46850000D01*
X166505000Y-48220000D02*
X167275000Y-48220000D01*
X167275000Y-49590000D02*
X173815000Y-49590000D01*
X55880000Y-107720000D02*
X55880000Y-108490000D01*
X57250000Y-115030000D02*
X57250000Y-108490000D01*
X55880000Y-115800000D02*
X55880000Y-115030000D01*
X54510000Y-115030000D02*
X57250000Y-115030000D01*
X54510000Y-108490000D02*
X54510000Y-115030000D01*
X57250000Y-108490000D02*
X54510000Y-108490000D01*
D14*
X218680000Y-149960000D02*
X218680000Y-149960000D01*
X218680000Y-149860000D02*
X218680000Y-149860000D01*
D15*
X219880000Y-145610000D02*
X227080000Y-145610000D01*
X227080000Y-154110000D02*
X219880000Y-154110000D01*
X227080000Y-145610000D02*
X227080000Y-154110000D01*
X219880000Y-154110000D02*
X219880000Y-145610000D01*
D14*
X218680000Y-149860000D02*
X218680000Y-149860000D01*
X218680000Y-149960000D02*
G75*
G03*
X218680000Y-149860000I0J50000D01*
G01*
X218680000Y-149860000D02*
G75*
G03*
X218680000Y-149960000I0J-50000D01*
G01*
X218680000Y-149860000D02*
G75*
G03*
X218680000Y-149960000I0J-50000D01*
G01*
D13*
X55150000Y-62680000D02*
X55150000Y-65420000D01*
X61690000Y-62680000D02*
X55150000Y-62680000D01*
X62460000Y-64050000D02*
X61690000Y-64050000D01*
X61690000Y-65420000D02*
X61690000Y-62680000D01*
X54380000Y-64050000D02*
X55150000Y-64050000D01*
X55150000Y-65420000D02*
X61690000Y-65420000D01*
X136430000Y-135990000D02*
X142970000Y-135990000D01*
X142970000Y-135990000D02*
X142970000Y-133250000D01*
X143740000Y-134620000D02*
X142970000Y-134620000D01*
X142970000Y-133250000D02*
X136430000Y-133250000D01*
X136430000Y-133250000D02*
X136430000Y-135990000D01*
X135660000Y-134620000D02*
X136430000Y-134620000D01*
X193770000Y-141070000D02*
X193770000Y-138330000D01*
X194540000Y-139700000D02*
X193770000Y-139700000D01*
X187230000Y-138330000D02*
X187230000Y-141070000D01*
X193770000Y-138330000D02*
X187230000Y-138330000D01*
X187230000Y-141070000D02*
X193770000Y-141070000D01*
X186460000Y-139700000D02*
X187230000Y-139700000D01*
X142970000Y-138330000D02*
X136430000Y-138330000D01*
X136430000Y-141070000D02*
X142970000Y-141070000D01*
X143740000Y-139700000D02*
X142970000Y-139700000D01*
X142970000Y-141070000D02*
X142970000Y-138330000D01*
X135660000Y-139700000D02*
X136430000Y-139700000D01*
X136430000Y-138330000D02*
X136430000Y-141070000D01*
X153000000Y-130610000D02*
X153000000Y-133550000D01*
X157660000Y-130610000D02*
X152220000Y-130610000D01*
X153120000Y-130610000D02*
X153120000Y-133550000D01*
X157660000Y-133550000D02*
X157660000Y-130610000D01*
X152220000Y-133550000D02*
X157660000Y-133550000D01*
X153240000Y-130610000D02*
X153240000Y-133550000D01*
X158680000Y-132080000D02*
X157660000Y-132080000D01*
X151200000Y-132080000D02*
X152220000Y-132080000D01*
X152220000Y-130610000D02*
X152220000Y-133550000D01*
D14*
X256225000Y-155700000D02*
X256225000Y-149100000D01*
X236535000Y-156935000D02*
X236535000Y-149100000D01*
D13*
X45995000Y-143580000D02*
X50495000Y-143580000D01*
X45995000Y-120600000D02*
X45995000Y-143580000D01*
X50495000Y-143580000D02*
X50495000Y-120600000D01*
X50495000Y-120600000D02*
X49245000Y-120600000D01*
X47245000Y-120600000D02*
X45995000Y-120600000D01*
X47245000Y-120600000D02*
G75*
G03*
X49245000Y-120600000I1000000J0D01*
G01*
X153965000Y-46850000D02*
X153965000Y-49590000D01*
X160505000Y-46850000D02*
X153965000Y-46850000D01*
X153965000Y-49590000D02*
X160505000Y-49590000D01*
X153195000Y-48220000D02*
X153965000Y-48220000D01*
X161275000Y-48220000D02*
X160505000Y-48220000D01*
X160505000Y-49590000D02*
X160505000Y-46850000D01*
X105705000Y-73210000D02*
X105705000Y-75950000D01*
X104935000Y-74580000D02*
X105705000Y-74580000D01*
X105705000Y-75950000D02*
X112245000Y-75950000D01*
X113015000Y-74580000D02*
X112245000Y-74580000D01*
X112245000Y-73210000D02*
X105705000Y-73210000D01*
X112245000Y-75950000D02*
X112245000Y-73210000D01*
D14*
X154625000Y-153160000D02*
X154625000Y-146560000D01*
X134935000Y-154395000D02*
X134935000Y-146560000D01*
D13*
X117560000Y-176330000D02*
X117560000Y-179270000D01*
X117440000Y-176330000D02*
X117440000Y-179270000D01*
X117680000Y-176330000D02*
X117680000Y-179270000D01*
X123120000Y-177800000D02*
X122100000Y-177800000D01*
X122100000Y-176330000D02*
X116660000Y-176330000D01*
X115640000Y-177800000D02*
X116660000Y-177800000D01*
X116660000Y-176330000D02*
X116660000Y-179270000D01*
X122100000Y-179270000D02*
X122100000Y-176330000D01*
X116660000Y-179270000D02*
X122100000Y-179270000D01*
X142360000Y-119330000D02*
X140710000Y-119330000D01*
X137060000Y-119330000D02*
X137060000Y-129610000D01*
X138710000Y-119330000D02*
X137060000Y-119330000D01*
X137060000Y-129610000D02*
X142360000Y-129610000D01*
X142360000Y-129610000D02*
X142360000Y-119330000D01*
X138710000Y-119330000D02*
G75*
G03*
X140710000Y-119330000I1000000J0D01*
G01*
X160505000Y-65790000D02*
X160505000Y-63050000D01*
X153965000Y-65790000D02*
X160505000Y-65790000D01*
X161275000Y-64420000D02*
X160505000Y-64420000D01*
X153965000Y-63050000D02*
X153965000Y-65790000D01*
X160505000Y-63050000D02*
X153965000Y-63050000D01*
X153195000Y-64420000D02*
X153965000Y-64420000D01*
X121920000Y-107720000D02*
X121920000Y-108490000D01*
X120550000Y-115030000D02*
X123290000Y-115030000D01*
X120550000Y-108490000D02*
X120550000Y-115030000D01*
X123290000Y-108490000D02*
X120550000Y-108490000D01*
X121920000Y-115800000D02*
X121920000Y-115030000D01*
X123290000Y-115030000D02*
X123290000Y-108490000D01*
D16*
X87470000Y-123190000D03*
D17*
X87470000Y-125730000D03*
X87470000Y-128270000D03*
X87470000Y-130810000D03*
X87470000Y-133350000D03*
X87470000Y-135890000D03*
X87470000Y-138430000D03*
X87470000Y-140970000D03*
X95410000Y-140970000D03*
X95410000Y-138430000D03*
X95410000Y-135890000D03*
X95410000Y-133350000D03*
X95410000Y-130810000D03*
X95410000Y-128270000D03*
X95410000Y-125730000D03*
X95410000Y-123190000D03*
D16*
X130810000Y-115730000D03*
D17*
X133350000Y-115730000D03*
X135890000Y-115730000D03*
X138430000Y-115730000D03*
X140970000Y-115730000D03*
X143510000Y-115730000D03*
X146050000Y-115730000D03*
X148590000Y-115730000D03*
X148590000Y-107790000D03*
X146050000Y-107790000D03*
X143510000Y-107790000D03*
X140970000Y-107790000D03*
X138430000Y-107790000D03*
X135890000Y-107790000D03*
X133350000Y-107790000D03*
X130810000Y-107790000D03*
D18*
X66040000Y-167640000D03*
X71040000Y-167640000D03*
D16*
X232410000Y-115730000D03*
D17*
X234950000Y-115730000D03*
X237490000Y-115730000D03*
X240030000Y-115730000D03*
X242570000Y-115730000D03*
X245110000Y-115730000D03*
X247650000Y-115730000D03*
X250190000Y-115730000D03*
X250190000Y-107790000D03*
X247650000Y-107790000D03*
X245110000Y-107790000D03*
X242570000Y-107790000D03*
X240030000Y-107790000D03*
X237490000Y-107790000D03*
X234950000Y-107790000D03*
X232410000Y-107790000D03*
D16*
X31590000Y-123190000D03*
D17*
X31590000Y-125730000D03*
X31590000Y-128270000D03*
X31590000Y-130810000D03*
X31590000Y-133350000D03*
X31590000Y-135890000D03*
X31590000Y-138430000D03*
X31590000Y-140970000D03*
X39530000Y-140970000D03*
X39530000Y-138430000D03*
X39530000Y-135890000D03*
X39530000Y-133350000D03*
X39530000Y-130810000D03*
X39530000Y-128270000D03*
X39530000Y-125730000D03*
X39530000Y-123190000D03*
D18*
X271780000Y-152400000D03*
X276780000Y-152400000D03*
D16*
X82550000Y-171610000D03*
D17*
X85090000Y-171610000D03*
X87630000Y-171610000D03*
X90170000Y-171610000D03*
X92710000Y-171610000D03*
X95250000Y-171610000D03*
X97790000Y-171610000D03*
X100330000Y-171610000D03*
X100330000Y-163670000D03*
X97790000Y-163670000D03*
X95250000Y-163670000D03*
X92710000Y-163670000D03*
X90170000Y-163670000D03*
X87630000Y-163670000D03*
X85090000Y-163670000D03*
X82550000Y-163670000D03*
D16*
X171290000Y-123190000D03*
D17*
X171290000Y-125730000D03*
X171290000Y-128270000D03*
X171290000Y-130810000D03*
X171290000Y-133350000D03*
X171290000Y-135890000D03*
X171290000Y-138430000D03*
X171290000Y-140970000D03*
X179230000Y-140970000D03*
X179230000Y-138430000D03*
X179230000Y-135890000D03*
X179230000Y-133350000D03*
X179230000Y-130810000D03*
X179230000Y-128270000D03*
X179230000Y-125730000D03*
X179230000Y-123190000D03*
D19*
X264160000Y-165100000D03*
D20*
X266160000Y-165100000D03*
D19*
X55880000Y-167640000D03*
D20*
X57880000Y-167640000D03*
D16*
X31750000Y-171610000D03*
D17*
X34290000Y-171610000D03*
X36830000Y-171610000D03*
X39370000Y-171610000D03*
X41910000Y-171610000D03*
X44450000Y-171610000D03*
X46990000Y-171610000D03*
X49530000Y-171610000D03*
X49530000Y-163670000D03*
X46990000Y-163670000D03*
X44450000Y-163670000D03*
X41910000Y-163670000D03*
X39370000Y-163670000D03*
X36830000Y-163670000D03*
X34290000Y-163670000D03*
X31750000Y-163670000D03*
D19*
X210820000Y-149860000D03*
D20*
X212820000Y-149860000D03*
D19*
X261620000Y-152400000D03*
D20*
X263620000Y-152400000D03*
D16*
X186690000Y-153830000D03*
D17*
X189230000Y-153830000D03*
X191770000Y-153830000D03*
X194310000Y-153830000D03*
X196850000Y-153830000D03*
X199390000Y-153830000D03*
X201930000Y-153830000D03*
X204470000Y-153830000D03*
X204470000Y-145890000D03*
X201930000Y-145890000D03*
X199390000Y-145890000D03*
X196850000Y-145890000D03*
X194310000Y-145890000D03*
X191770000Y-145890000D03*
X189230000Y-145890000D03*
X186690000Y-145890000D03*
D16*
X212090000Y-171610000D03*
D17*
X214630000Y-171610000D03*
X217170000Y-171610000D03*
X219710000Y-171610000D03*
X222250000Y-171610000D03*
X224790000Y-171610000D03*
X227330000Y-171610000D03*
X229870000Y-171610000D03*
X229870000Y-163670000D03*
X227330000Y-163670000D03*
X224790000Y-163670000D03*
X222250000Y-163670000D03*
X219710000Y-163670000D03*
X217170000Y-163670000D03*
X214630000Y-163670000D03*
X212090000Y-163670000D03*
D16*
X181610000Y-115730000D03*
D17*
X184150000Y-115730000D03*
X186690000Y-115730000D03*
X189230000Y-115730000D03*
X191770000Y-115730000D03*
X194310000Y-115730000D03*
X196850000Y-115730000D03*
X199390000Y-115730000D03*
X199390000Y-107790000D03*
X196850000Y-107790000D03*
X194310000Y-107790000D03*
X191770000Y-107790000D03*
X189230000Y-107790000D03*
X186690000Y-107790000D03*
X184150000Y-107790000D03*
X181610000Y-107790000D03*
D18*
X121920000Y-165100000D03*
X126920000Y-165100000D03*
X170180000Y-149860000D03*
X175180000Y-149860000D03*
D19*
X160560000Y-149860000D03*
D20*
X162560000Y-149860000D03*
D16*
X72230000Y-120650000D03*
D17*
X72230000Y-123190000D03*
X72230000Y-125730000D03*
X72230000Y-128270000D03*
X72230000Y-130810000D03*
X72230000Y-133350000D03*
X72230000Y-135890000D03*
X72230000Y-138430000D03*
X80170000Y-138430000D03*
X80170000Y-135890000D03*
X80170000Y-133350000D03*
X80170000Y-130810000D03*
X80170000Y-128270000D03*
X80170000Y-125730000D03*
X80170000Y-123190000D03*
X80170000Y-120650000D03*
D19*
X109220000Y-165100000D03*
D20*
X111220000Y-165100000D03*
D18*
X220980000Y-149860000D03*
X225980000Y-149860000D03*
D16*
X237490000Y-156370000D03*
D17*
X240030000Y-156370000D03*
X242570000Y-156370000D03*
X245110000Y-156370000D03*
X247650000Y-156370000D03*
X250190000Y-156370000D03*
X252730000Y-156370000D03*
X255270000Y-156370000D03*
X255270000Y-148430000D03*
X252730000Y-148430000D03*
X250190000Y-148430000D03*
X247650000Y-148430000D03*
X245110000Y-148430000D03*
X242570000Y-148430000D03*
X240030000Y-148430000D03*
X237490000Y-148430000D03*
D16*
X135890000Y-153830000D03*
D17*
X138430000Y-153830000D03*
X140970000Y-153830000D03*
X143510000Y-153830000D03*
X146050000Y-153830000D03*
X148590000Y-153830000D03*
X151130000Y-153830000D03*
X153670000Y-153830000D03*
X153670000Y-145890000D03*
X151130000Y-145890000D03*
X148590000Y-145890000D03*
X146050000Y-145890000D03*
X143510000Y-145890000D03*
X140970000Y-145890000D03*
X138430000Y-145890000D03*
X135890000Y-145890000D03*
%LPC*%
D21*
X152155000Y-60370000D03*
D22*
X162315000Y-60370000D03*
D21*
X66650000Y-64050000D03*
D22*
X76810000Y-64050000D03*
D21*
X93980000Y-116840000D03*
D22*
X93980000Y-106680000D03*
D23*
X238760000Y-170180000D03*
D21*
X185420000Y-134620000D03*
D22*
X195580000Y-134620000D03*
D21*
X106680000Y-116840000D03*
D22*
X106680000Y-106680000D03*
D16*
X87470000Y-123190000D03*
D17*
X87470000Y-125730000D03*
X87470000Y-128270000D03*
X87470000Y-130810000D03*
X87470000Y-133350000D03*
X87470000Y-135890000D03*
X87470000Y-138430000D03*
X87470000Y-140970000D03*
X95410000Y-140970000D03*
X95410000Y-138430000D03*
X95410000Y-135890000D03*
X95410000Y-133350000D03*
X95410000Y-130810000D03*
X95410000Y-128270000D03*
X95410000Y-125730000D03*
X95410000Y-123190000D03*
D24*
X141305000Y-89570000D03*
D25*
X145905000Y-89570000D03*
D21*
X101600000Y-157480000D03*
D22*
X101600000Y-147320000D03*
D26*
X100315000Y-121930000D03*
D27*
X100315000Y-124470000D03*
X100315000Y-127010000D03*
X100315000Y-129550000D03*
X100315000Y-132090000D03*
X100315000Y-134630000D03*
X100315000Y-137170000D03*
X100315000Y-139710000D03*
X100315000Y-142250000D03*
X107935000Y-142250000D03*
X107935000Y-139710000D03*
X107935000Y-137170000D03*
X107935000Y-134630000D03*
X107935000Y-132090000D03*
X107935000Y-129550000D03*
X107935000Y-127010000D03*
X107935000Y-124470000D03*
X107935000Y-121930000D03*
D24*
X141305000Y-79410000D03*
D25*
X145905000Y-79410000D03*
D21*
X266700000Y-134620000D03*
D22*
X266700000Y-124460000D03*
D21*
X58420000Y-157480000D03*
D22*
X68580000Y-157480000D03*
D21*
X147320000Y-177800000D03*
D22*
X157480000Y-177800000D03*
D21*
X53340000Y-76200000D03*
D22*
X63500000Y-76200000D03*
D21*
X103895000Y-62430000D03*
D22*
X114055000Y-62430000D03*
D21*
X165100000Y-137160000D03*
D22*
X165100000Y-127000000D03*
D21*
X66040000Y-116840000D03*
D22*
X66040000Y-106680000D03*
D21*
X215900000Y-134620000D03*
D22*
X215900000Y-124460000D03*
D21*
X58420000Y-149860000D03*
D22*
X68580000Y-149860000D03*
D28*
X114300000Y-182880000D03*
D29*
X124460000Y-182880000D03*
D16*
X130810000Y-115730000D03*
D17*
X133350000Y-115730000D03*
X135890000Y-115730000D03*
X138430000Y-115730000D03*
X140970000Y-115730000D03*
X143510000Y-115730000D03*
X146050000Y-115730000D03*
X148590000Y-115730000D03*
X148590000Y-107790000D03*
X146050000Y-107790000D03*
X143510000Y-107790000D03*
X140970000Y-107790000D03*
X138430000Y-107790000D03*
X135890000Y-107790000D03*
X133350000Y-107790000D03*
X130810000Y-107790000D03*
D30*
X120660000Y-148600000D03*
D22*
X120660000Y-151140000D03*
X120660000Y-153680000D03*
X120660000Y-156220000D03*
X128280000Y-156220000D03*
X128280000Y-153680000D03*
X128280000Y-151140000D03*
X128280000Y-148600000D03*
D18*
X66040000Y-167640000D03*
X71040000Y-167640000D03*
D28*
X200660000Y-124460000D03*
D29*
X210820000Y-124460000D03*
D16*
X232410000Y-115730000D03*
D17*
X234950000Y-115730000D03*
X237490000Y-115730000D03*
X240030000Y-115730000D03*
X242570000Y-115730000D03*
X245110000Y-115730000D03*
X247650000Y-115730000D03*
X250190000Y-115730000D03*
X250190000Y-107790000D03*
X247650000Y-107790000D03*
X245110000Y-107790000D03*
X242570000Y-107790000D03*
X240030000Y-107790000D03*
X237490000Y-107790000D03*
X234950000Y-107790000D03*
X232410000Y-107790000D03*
D21*
X152155000Y-56320000D03*
D22*
X162315000Y-56320000D03*
D28*
X256540000Y-162560000D03*
D29*
X246380000Y-162560000D03*
D16*
X31590000Y-123190000D03*
D17*
X31590000Y-125730000D03*
X31590000Y-128270000D03*
X31590000Y-130810000D03*
X31590000Y-133350000D03*
X31590000Y-135890000D03*
X31590000Y-138430000D03*
X31590000Y-140970000D03*
X39530000Y-140970000D03*
X39530000Y-138430000D03*
X39530000Y-135890000D03*
X39530000Y-133350000D03*
X39530000Y-130810000D03*
X39530000Y-128270000D03*
X39530000Y-125730000D03*
X39530000Y-123190000D03*
D28*
X30480000Y-160020000D03*
D29*
X40640000Y-160020000D03*
D30*
X186700000Y-120660000D03*
D22*
X186700000Y-123200000D03*
X186700000Y-125740000D03*
X186700000Y-128280000D03*
X194320000Y-128280000D03*
X194320000Y-125740000D03*
X194320000Y-123200000D03*
X194320000Y-120660000D03*
D31*
X274880000Y-175260000D03*
D32*
X279680000Y-175260000D03*
X284480000Y-175260000D03*
D18*
X271780000Y-152400000D03*
X276780000Y-152400000D03*
D33*
X33020000Y-182880000D03*
D21*
X50800000Y-116840000D03*
D22*
X50800000Y-106680000D03*
D28*
X149860000Y-137160000D03*
D29*
X160020000Y-137160000D03*
D16*
X82550000Y-171610000D03*
D17*
X85090000Y-171610000D03*
X87630000Y-171610000D03*
X90170000Y-171610000D03*
X92710000Y-171610000D03*
X95250000Y-171610000D03*
X97790000Y-171610000D03*
X100330000Y-171610000D03*
X100330000Y-163670000D03*
X97790000Y-163670000D03*
X95250000Y-163670000D03*
X92710000Y-163670000D03*
X90170000Y-163670000D03*
X87630000Y-163670000D03*
X85090000Y-163670000D03*
X82550000Y-163670000D03*
D28*
X83820000Y-157480000D03*
D29*
X93980000Y-157480000D03*
D21*
X101600000Y-116840000D03*
D22*
X101600000Y-106680000D03*
D26*
X140955000Y-48270000D03*
D27*
X140955000Y-50810000D03*
X140955000Y-53350000D03*
X140955000Y-55890000D03*
X140955000Y-58430000D03*
X140955000Y-60970000D03*
X140955000Y-63510000D03*
X140955000Y-66050000D03*
X140955000Y-68590000D03*
X148575000Y-68590000D03*
X148575000Y-66050000D03*
X148575000Y-63510000D03*
X148575000Y-60970000D03*
X148575000Y-58430000D03*
X148575000Y-55890000D03*
X148575000Y-53350000D03*
X148575000Y-50810000D03*
X148575000Y-48270000D03*
D21*
X121920000Y-134620000D03*
D22*
X121920000Y-124460000D03*
D21*
X116840000Y-116840000D03*
D22*
X116840000Y-106680000D03*
D33*
X284480000Y-182880000D03*
D16*
X171290000Y-123190000D03*
D17*
X171290000Y-125730000D03*
X171290000Y-128270000D03*
X171290000Y-130810000D03*
X171290000Y-133350000D03*
X171290000Y-135890000D03*
X171290000Y-138430000D03*
X171290000Y-140970000D03*
X179230000Y-140970000D03*
X179230000Y-138430000D03*
X179230000Y-135890000D03*
X179230000Y-133350000D03*
X179230000Y-130810000D03*
X179230000Y-128270000D03*
X179230000Y-125730000D03*
X179230000Y-123190000D03*
D21*
X66650000Y-68100000D03*
D22*
X76810000Y-68100000D03*
D21*
X172720000Y-116840000D03*
D22*
X172720000Y-106680000D03*
D21*
X116840000Y-134620000D03*
D22*
X116840000Y-124460000D03*
D21*
X103895000Y-70530000D03*
D22*
X114055000Y-70530000D03*
D21*
X165465000Y-56320000D03*
D22*
X175625000Y-56320000D03*
D21*
X103895000Y-66480000D03*
D22*
X114055000Y-66480000D03*
D21*
X117205000Y-66480000D03*
D22*
X127365000Y-66480000D03*
D28*
X251460000Y-134620000D03*
D29*
X261620000Y-134620000D03*
D26*
X92695000Y-58430000D03*
D27*
X92695000Y-60970000D03*
X92695000Y-63510000D03*
X92695000Y-66050000D03*
X92695000Y-68590000D03*
X92695000Y-71130000D03*
X92695000Y-73670000D03*
X92695000Y-76210000D03*
X92695000Y-78750000D03*
X100315000Y-78750000D03*
X100315000Y-76210000D03*
X100315000Y-73670000D03*
X100315000Y-71130000D03*
X100315000Y-68590000D03*
X100315000Y-66050000D03*
X100315000Y-63510000D03*
X100315000Y-60970000D03*
X100315000Y-58430000D03*
D23*
X238760000Y-177800000D03*
D19*
X264160000Y-165100000D03*
D20*
X266160000Y-165100000D03*
D21*
X103895000Y-58380000D03*
D22*
X114055000Y-58380000D03*
D21*
X165465000Y-52270000D03*
D22*
X175625000Y-52270000D03*
D19*
X55880000Y-167640000D03*
D20*
X57880000Y-167640000D03*
D21*
X152155000Y-52270000D03*
D22*
X162315000Y-52270000D03*
D21*
X160020000Y-177800000D03*
D22*
X170180000Y-177800000D03*
D30*
X58450000Y-176530000D03*
D21*
X55910000Y-176530000D03*
X53370000Y-176530000D03*
X50830000Y-176530000D03*
X48290000Y-176530000D03*
X45750000Y-176530000D03*
X43210000Y-176530000D03*
X43210000Y-184150000D03*
X45750000Y-184150000D03*
X48290000Y-184150000D03*
X50830000Y-184150000D03*
X53370000Y-184150000D03*
X55910000Y-184150000D03*
X58450000Y-184150000D03*
X117205000Y-62430000D03*
D22*
X127365000Y-62430000D03*
D28*
X149860000Y-127000000D03*
D29*
X160020000Y-127000000D03*
D30*
X90185000Y-184140000D03*
D22*
X92725000Y-184140000D03*
X95265000Y-184140000D03*
X97805000Y-184140000D03*
X100345000Y-184140000D03*
X102885000Y-184140000D03*
X105425000Y-184140000D03*
X107965000Y-184140000D03*
X107965000Y-176520000D03*
X105425000Y-176520000D03*
X102885000Y-176520000D03*
X100345000Y-176520000D03*
X97805000Y-176520000D03*
X95265000Y-176520000D03*
X92725000Y-176520000D03*
X90185000Y-176520000D03*
D21*
X134620000Y-165100000D03*
D22*
X144780000Y-165100000D03*
D28*
X83820000Y-152400000D03*
D29*
X93980000Y-152400000D03*
D21*
X274320000Y-124460000D03*
D22*
X274320000Y-134620000D03*
D33*
X33020000Y-25400000D03*
D21*
X33020000Y-116840000D03*
D22*
X33020000Y-106680000D03*
D28*
X200660000Y-134620000D03*
D29*
X210820000Y-134620000D03*
D21*
X220980000Y-177800000D03*
D22*
X231140000Y-177800000D03*
D30*
X59700000Y-135900000D03*
D22*
X59700000Y-138440000D03*
X59700000Y-140980000D03*
X59700000Y-143520000D03*
X67320000Y-143520000D03*
X67320000Y-140980000D03*
X67320000Y-138440000D03*
X67320000Y-135900000D03*
D28*
X30480000Y-154940000D03*
D29*
X40640000Y-154940000D03*
D16*
X31750000Y-171610000D03*
D17*
X34290000Y-171610000D03*
X36830000Y-171610000D03*
X39370000Y-171610000D03*
X41910000Y-171610000D03*
X44450000Y-171610000D03*
X46990000Y-171610000D03*
X49530000Y-171610000D03*
X49530000Y-163670000D03*
X46990000Y-163670000D03*
X44450000Y-163670000D03*
X41910000Y-163670000D03*
X39370000Y-163670000D03*
X36830000Y-163670000D03*
X34290000Y-163670000D03*
X31750000Y-163670000D03*
D21*
X60960000Y-116840000D03*
D22*
X60960000Y-106680000D03*
D21*
X134620000Y-160020000D03*
D22*
X144780000Y-160020000D03*
D19*
X210820000Y-149860000D03*
D20*
X212820000Y-149860000D03*
D21*
X281940000Y-124460000D03*
D22*
X281940000Y-134620000D03*
D19*
X261620000Y-152400000D03*
D20*
X263620000Y-152400000D03*
D21*
X53340000Y-80250000D03*
D22*
X63500000Y-80250000D03*
D21*
X58420000Y-132080000D03*
D22*
X58420000Y-121920000D03*
D21*
X53340000Y-72150000D03*
D22*
X63500000Y-72150000D03*
D21*
X177800000Y-116840000D03*
D22*
X177800000Y-106680000D03*
D26*
X41285000Y-61570000D03*
D27*
X41285000Y-64110000D03*
X41285000Y-66650000D03*
X41285000Y-69190000D03*
X41285000Y-71730000D03*
X41285000Y-74270000D03*
X41285000Y-76810000D03*
X41285000Y-79350000D03*
X41285000Y-81890000D03*
X48905000Y-81890000D03*
X48905000Y-79350000D03*
X48905000Y-76810000D03*
X48905000Y-74270000D03*
X48905000Y-71730000D03*
X48905000Y-69190000D03*
X48905000Y-66650000D03*
X48905000Y-64110000D03*
X48905000Y-61570000D03*
D21*
X281940000Y-109220000D03*
D22*
X281940000Y-119380000D03*
D21*
X40640000Y-116840000D03*
D22*
X40640000Y-106680000D03*
D21*
X172720000Y-185420000D03*
D22*
X172720000Y-175260000D03*
D21*
X111760000Y-116840000D03*
D22*
X111760000Y-106680000D03*
D16*
X186690000Y-153830000D03*
D17*
X189230000Y-153830000D03*
X191770000Y-153830000D03*
X194310000Y-153830000D03*
X196850000Y-153830000D03*
X199390000Y-153830000D03*
X201930000Y-153830000D03*
X204470000Y-153830000D03*
X204470000Y-145890000D03*
X201930000Y-145890000D03*
X199390000Y-145890000D03*
X196850000Y-145890000D03*
X194310000Y-145890000D03*
X191770000Y-145890000D03*
X189230000Y-145890000D03*
X186690000Y-145890000D03*
D16*
X212090000Y-171610000D03*
D17*
X214630000Y-171610000D03*
X217170000Y-171610000D03*
X219710000Y-171610000D03*
X222250000Y-171610000D03*
X224790000Y-171610000D03*
X227330000Y-171610000D03*
X229870000Y-171610000D03*
X229870000Y-163670000D03*
X227330000Y-163670000D03*
X224790000Y-163670000D03*
X222250000Y-163670000D03*
X219710000Y-163670000D03*
X217170000Y-163670000D03*
X214630000Y-163670000D03*
X212090000Y-163670000D03*
D34*
X274320000Y-162560000D03*
D35*
X276860000Y-162560000D03*
X279400000Y-162560000D03*
D28*
X251460000Y-129540000D03*
D29*
X261620000Y-129540000D03*
D24*
X262100000Y-175260000D03*
D25*
X266700000Y-175260000D03*
D16*
X181610000Y-115730000D03*
D17*
X184150000Y-115730000D03*
X186690000Y-115730000D03*
X189230000Y-115730000D03*
X191770000Y-115730000D03*
X194310000Y-115730000D03*
X196850000Y-115730000D03*
X199390000Y-115730000D03*
X199390000Y-107790000D03*
X196850000Y-107790000D03*
X194310000Y-107790000D03*
X191770000Y-107790000D03*
X189230000Y-107790000D03*
X186690000Y-107790000D03*
X184150000Y-107790000D03*
X181610000Y-107790000D03*
D30*
X237500000Y-120660000D03*
D22*
X237500000Y-123200000D03*
X237500000Y-125740000D03*
X237500000Y-128280000D03*
X245120000Y-128280000D03*
X245120000Y-125740000D03*
X245120000Y-123200000D03*
X245120000Y-120660000D03*
D30*
X66010000Y-184150000D03*
D21*
X68550000Y-184150000D03*
X71090000Y-184150000D03*
X73630000Y-184150000D03*
X76170000Y-184150000D03*
X78710000Y-184150000D03*
X81250000Y-184150000D03*
X81250000Y-176530000D03*
X78710000Y-176530000D03*
X76170000Y-176530000D03*
X73630000Y-176530000D03*
X71090000Y-176530000D03*
X68550000Y-176530000D03*
X66010000Y-176530000D03*
D18*
X121920000Y-165100000D03*
X126920000Y-165100000D03*
D28*
X30480000Y-149860000D03*
D29*
X40640000Y-149860000D03*
D21*
X53340000Y-149860000D03*
D22*
X53340000Y-160020000D03*
D18*
X170180000Y-149860000D03*
X175180000Y-149860000D03*
D21*
X45720000Y-116840000D03*
D22*
X45720000Y-106680000D03*
D21*
X236220000Y-134620000D03*
D22*
X246380000Y-134620000D03*
D19*
X160560000Y-149860000D03*
D20*
X162560000Y-149860000D03*
D28*
X251460000Y-124460000D03*
D29*
X261620000Y-124460000D03*
D21*
X134620000Y-170180000D03*
D22*
X144780000Y-170180000D03*
D30*
X205770000Y-166370000D03*
D21*
X203230000Y-166370000D03*
X200690000Y-166370000D03*
X198150000Y-166370000D03*
X195610000Y-166370000D03*
X193070000Y-166370000D03*
X190530000Y-166370000D03*
X190530000Y-173990000D03*
X193070000Y-173990000D03*
X195610000Y-173990000D03*
X198150000Y-173990000D03*
X200690000Y-173990000D03*
X203230000Y-173990000D03*
X205770000Y-173990000D03*
X53340000Y-68100000D03*
D22*
X63500000Y-68100000D03*
D16*
X72230000Y-120650000D03*
D17*
X72230000Y-123190000D03*
X72230000Y-125730000D03*
X72230000Y-128270000D03*
X72230000Y-130810000D03*
X72230000Y-133350000D03*
X72230000Y-135890000D03*
X72230000Y-138430000D03*
X80170000Y-138430000D03*
X80170000Y-135890000D03*
X80170000Y-133350000D03*
X80170000Y-130810000D03*
X80170000Y-128270000D03*
X80170000Y-125730000D03*
X80170000Y-123190000D03*
X80170000Y-120650000D03*
D21*
X236220000Y-139700000D03*
D22*
X246380000Y-139700000D03*
D19*
X109220000Y-165100000D03*
D20*
X111220000Y-165100000D03*
D21*
X66650000Y-72150000D03*
D22*
X76810000Y-72150000D03*
D28*
X83820000Y-147320000D03*
D29*
X93980000Y-147320000D03*
D21*
X63500000Y-132080000D03*
D22*
X63500000Y-121920000D03*
D21*
X231140000Y-134620000D03*
D22*
X231140000Y-124460000D03*
D21*
X223520000Y-134620000D03*
D22*
X223520000Y-124460000D03*
D28*
X200660000Y-129540000D03*
D29*
X210820000Y-129540000D03*
D21*
X117205000Y-58380000D03*
D22*
X127365000Y-58380000D03*
D36*
X248920000Y-172720000D03*
D37*
X253920000Y-172720000D03*
D21*
X127000000Y-132080000D03*
D22*
X127000000Y-142240000D03*
D21*
X165465000Y-48220000D03*
D22*
X175625000Y-48220000D03*
D21*
X55880000Y-116840000D03*
D22*
X55880000Y-106680000D03*
D18*
X220980000Y-149860000D03*
X225980000Y-149860000D03*
D21*
X53340000Y-64050000D03*
D22*
X63500000Y-64050000D03*
D21*
X134620000Y-134620000D03*
D22*
X144780000Y-134620000D03*
D21*
X185420000Y-139700000D03*
D22*
X195580000Y-139700000D03*
D21*
X134620000Y-139700000D03*
D22*
X144780000Y-139700000D03*
D28*
X149860000Y-132080000D03*
D29*
X160020000Y-132080000D03*
D16*
X237490000Y-156370000D03*
D17*
X240030000Y-156370000D03*
X242570000Y-156370000D03*
X245110000Y-156370000D03*
X247650000Y-156370000D03*
X250190000Y-156370000D03*
X252730000Y-156370000D03*
X255270000Y-156370000D03*
X255270000Y-148430000D03*
X252730000Y-148430000D03*
X250190000Y-148430000D03*
X247650000Y-148430000D03*
X245110000Y-148430000D03*
X242570000Y-148430000D03*
X240030000Y-148430000D03*
X237490000Y-148430000D03*
D26*
X44435000Y-121930000D03*
D27*
X44435000Y-124470000D03*
X44435000Y-127010000D03*
X44435000Y-129550000D03*
X44435000Y-132090000D03*
X44435000Y-134630000D03*
X44435000Y-137170000D03*
X44435000Y-139710000D03*
X44435000Y-142250000D03*
X52055000Y-142250000D03*
X52055000Y-139710000D03*
X52055000Y-137170000D03*
X52055000Y-134630000D03*
X52055000Y-132090000D03*
X52055000Y-129550000D03*
X52055000Y-127010000D03*
X52055000Y-124470000D03*
X52055000Y-121930000D03*
D21*
X152155000Y-48220000D03*
D22*
X162315000Y-48220000D03*
D33*
X284480000Y-25400000D03*
D21*
X103895000Y-74580000D03*
D22*
X114055000Y-74580000D03*
D16*
X135890000Y-153830000D03*
D17*
X138430000Y-153830000D03*
X140970000Y-153830000D03*
X143510000Y-153830000D03*
X146050000Y-153830000D03*
X148590000Y-153830000D03*
X151130000Y-153830000D03*
X153670000Y-153830000D03*
X153670000Y-145890000D03*
X151130000Y-145890000D03*
X148590000Y-145890000D03*
X146050000Y-145890000D03*
X143510000Y-145890000D03*
X140970000Y-145890000D03*
X138430000Y-145890000D03*
X135890000Y-145890000D03*
D28*
X114300000Y-177800000D03*
D29*
X124460000Y-177800000D03*
D30*
X135900000Y-120660000D03*
D22*
X135900000Y-123200000D03*
X135900000Y-125740000D03*
X135900000Y-128280000D03*
X143520000Y-128280000D03*
X143520000Y-125740000D03*
X143520000Y-123200000D03*
X143520000Y-120660000D03*
D21*
X152155000Y-64420000D03*
D22*
X162315000Y-64420000D03*
D21*
X121920000Y-116840000D03*
D22*
X121920000Y-106680000D03*
D38*
X170180000Y-167640000D03*
D39*
X167640000Y-167640000D03*
D21*
X53340000Y-190500000D03*
D22*
X43180000Y-190500000D03*
D38*
X162560000Y-167640000D03*
D39*
X160020000Y-167640000D03*
D40*
X63500000Y-98630000D03*
D41*
X60960000Y-98630000D03*
X58420000Y-98630000D03*
X55880000Y-98630000D03*
X53340000Y-98630000D03*
X53340000Y-38530000D03*
X55880000Y-38530000D03*
X58420000Y-38530000D03*
X60960000Y-38530000D03*
X63500000Y-38530000D03*
D38*
X154940000Y-167640000D03*
D39*
X152400000Y-167640000D03*
D40*
X114300000Y-98630000D03*
D41*
X111760000Y-98630000D03*
X109220000Y-98630000D03*
X106680000Y-98630000D03*
X104140000Y-98630000D03*
X104140000Y-38530000D03*
X106680000Y-38530000D03*
X109220000Y-38530000D03*
X111760000Y-38530000D03*
X114300000Y-38530000D03*
D40*
X215900000Y-98630000D03*
D41*
X213360000Y-98630000D03*
X210820000Y-98630000D03*
X208280000Y-98630000D03*
X205740000Y-98630000D03*
X205740000Y-38530000D03*
X208280000Y-38530000D03*
X210820000Y-38530000D03*
X213360000Y-38530000D03*
X215900000Y-38530000D03*
D40*
X266700000Y-98630000D03*
D41*
X264160000Y-98630000D03*
X261620000Y-98630000D03*
X259080000Y-98630000D03*
X256540000Y-98630000D03*
X256540000Y-38530000D03*
X259080000Y-38530000D03*
X261620000Y-38530000D03*
X264160000Y-38530000D03*
X266700000Y-38530000D03*
D40*
X165100000Y-98630000D03*
D41*
X162560000Y-98630000D03*
X160020000Y-98630000D03*
X157480000Y-98630000D03*
X154940000Y-98630000D03*
X154940000Y-38530000D03*
X157480000Y-38530000D03*
X160020000Y-38530000D03*
X162560000Y-38530000D03*
X165100000Y-38530000D03*
M02*
