G04 #@! TF.GenerationSoftware,KiCad,Pcbnew,(6.0.2)*
G04 #@! TF.CreationDate,2022-04-29T17:41:02+02:00*
G04 #@! TF.ProjectId,Kniffel_V1,4b6e6966-6665-46c5-9f56-312e6b696361,rev?*
G04 #@! TF.SameCoordinates,Original*
G04 #@! TF.FileFunction,Copper,L2,Bot*
G04 #@! TF.FilePolarity,Positive*
%FSLAX46Y46*%
G04 Gerber Fmt 4.6, Leading zero omitted, Abs format (unit mm)*
G04 Created by KiCad (PCBNEW (6.0.2)) date 2022-04-29 17:41:02*
%MOMM*%
%LPD*%
G01*
G04 APERTURE LIST*
G04 Aperture macros list*
%AMRoundRect*
0 Rectangle with rounded corners*
0 $1 Rounding radius*
0 $2 $3 $4 $5 $6 $7 $8 $9 X,Y pos of 4 corners*
0 Add a 4 corners polygon primitive as box body*
4,1,4,$2,$3,$4,$5,$6,$7,$8,$9,$2,$3,0*
0 Add four circle primitives for the rounded corners*
1,1,$1+$1,$2,$3*
1,1,$1+$1,$4,$5*
1,1,$1+$1,$6,$7*
1,1,$1+$1,$8,$9*
0 Add four rect primitives between the rounded corners*
20,1,$1+$1,$2,$3,$4,$5,0*
20,1,$1+$1,$4,$5,$6,$7,0*
20,1,$1+$1,$6,$7,$8,$9,0*
20,1,$1+$1,$8,$9,$2,$3,0*%
G04 Aperture macros list end*
G04 #@! TA.AperFunction,NonConductor*
%ADD10C,0.200000*%
G04 #@! TD*
G04 #@! TA.AperFunction,ComponentPad*
%ADD11C,1.600000*%
G04 #@! TD*
G04 #@! TA.AperFunction,ComponentPad*
%ADD12O,1.600000X1.600000*%
G04 #@! TD*
G04 #@! TA.AperFunction,ComponentPad*
%ADD13RoundRect,0.250002X-1.499998X-1.499998X1.499998X-1.499998X1.499998X1.499998X-1.499998X1.499998X0*%
G04 #@! TD*
G04 #@! TA.AperFunction,ComponentPad*
%ADD14R,1.130000X1.130000*%
G04 #@! TD*
G04 #@! TA.AperFunction,ComponentPad*
%ADD15C,1.130000*%
G04 #@! TD*
G04 #@! TA.AperFunction,ComponentPad*
%ADD16RoundRect,0.250001X-0.799999X0.799999X-0.799999X-0.799999X0.799999X-0.799999X0.799999X0.799999X0*%
G04 #@! TD*
G04 #@! TA.AperFunction,ComponentPad*
%ADD17C,2.100000*%
G04 #@! TD*
G04 #@! TA.AperFunction,ComponentPad*
%ADD18R,2.400000X1.600000*%
G04 #@! TD*
G04 #@! TA.AperFunction,ComponentPad*
%ADD19O,2.400000X1.600000*%
G04 #@! TD*
G04 #@! TA.AperFunction,ComponentPad*
%ADD20R,2.200000X2.200000*%
G04 #@! TD*
G04 #@! TA.AperFunction,ComponentPad*
%ADD21O,2.200000X2.200000*%
G04 #@! TD*
G04 #@! TA.AperFunction,ComponentPad*
%ADD22R,1.600000X1.600000*%
G04 #@! TD*
G04 #@! TA.AperFunction,ComponentPad*
%ADD23C,1.200000*%
G04 #@! TD*
G04 #@! TA.AperFunction,ComponentPad*
%ADD24RoundRect,0.249999X-1.025001X-1.025001X1.025001X-1.025001X1.025001X1.025001X-1.025001X1.025001X0*%
G04 #@! TD*
G04 #@! TA.AperFunction,ComponentPad*
%ADD25C,2.550000*%
G04 #@! TD*
G04 #@! TA.AperFunction,ComponentPad*
%ADD26RoundRect,0.250001X-0.799999X-0.799999X0.799999X-0.799999X0.799999X0.799999X-0.799999X0.799999X0*%
G04 #@! TD*
G04 #@! TA.AperFunction,ComponentPad*
%ADD27R,1.150000X1.150000*%
G04 #@! TD*
G04 #@! TA.AperFunction,ComponentPad*
%ADD28C,1.150000*%
G04 #@! TD*
G04 #@! TA.AperFunction,ComponentPad*
%ADD29C,5.600000*%
G04 #@! TD*
G04 #@! TA.AperFunction,ComponentPad*
%ADD30R,1.500000X2.300000*%
G04 #@! TD*
G04 #@! TA.AperFunction,ComponentPad*
%ADD31O,1.500000X2.300000*%
G04 #@! TD*
G04 #@! TA.AperFunction,ComponentPad*
%ADD32R,1.275000X1.275000*%
G04 #@! TD*
G04 #@! TA.AperFunction,ComponentPad*
%ADD33C,1.275000*%
G04 #@! TD*
G04 #@! TA.AperFunction,ComponentPad*
%ADD34R,1.500000X1.500000*%
G04 #@! TD*
G04 #@! TA.AperFunction,ComponentPad*
%ADD35C,1.500000*%
G04 #@! TD*
G04 #@! TA.AperFunction,ComponentPad*
%ADD36RoundRect,0.250001X0.799999X0.799999X-0.799999X0.799999X-0.799999X-0.799999X0.799999X-0.799999X0*%
G04 #@! TD*
G04 #@! TA.AperFunction,ComponentPad*
%ADD37RoundRect,0.250001X0.799999X-0.799999X0.799999X0.799999X-0.799999X0.799999X-0.799999X-0.799999X0*%
G04 #@! TD*
G04 #@! TA.AperFunction,Conductor*
%ADD38C,0.250000*%
G04 #@! TD*
G04 #@! TA.AperFunction,Conductor*
%ADD39C,0.500000*%
G04 #@! TD*
G04 APERTURE END LIST*
D10*
X120000000Y-125000000D02*
X119000000Y-126000000D01*
X119000000Y-126000000D02*
X118000000Y-125000000D01*
X118000000Y-125000000D02*
X119000000Y-124000000D01*
X119000000Y-124000000D02*
X120000000Y-125000000D01*
G36*
X120000000Y-125000000D02*
G01*
X119000000Y-126000000D01*
X118000000Y-125000000D01*
X119000000Y-124000000D01*
X120000000Y-125000000D01*
G37*
X120000000Y-125000000D02*
X119000000Y-126000000D01*
X118000000Y-125000000D01*
X119000000Y-124000000D01*
X120000000Y-125000000D01*
X118000000Y-127000000D02*
X117000000Y-128000000D01*
X117000000Y-128000000D02*
X116000000Y-127000000D01*
X116000000Y-127000000D02*
X117000000Y-126000000D01*
X117000000Y-126000000D02*
X118000000Y-127000000D01*
G36*
X118000000Y-127000000D02*
G01*
X117000000Y-128000000D01*
X116000000Y-127000000D01*
X117000000Y-126000000D01*
X118000000Y-127000000D01*
G37*
X118000000Y-127000000D02*
X117000000Y-128000000D01*
X116000000Y-127000000D01*
X117000000Y-126000000D01*
X118000000Y-127000000D01*
X122000000Y-127000000D02*
X121000000Y-128000000D01*
X121000000Y-128000000D02*
X120000000Y-127000000D01*
X120000000Y-127000000D02*
X121000000Y-126000000D01*
X121000000Y-126000000D02*
X122000000Y-127000000D01*
G36*
X122000000Y-127000000D02*
G01*
X121000000Y-128000000D01*
X120000000Y-127000000D01*
X121000000Y-126000000D01*
X122000000Y-127000000D01*
G37*
X122000000Y-127000000D02*
X121000000Y-128000000D01*
X120000000Y-127000000D01*
X121000000Y-126000000D01*
X122000000Y-127000000D01*
X120000000Y-129000000D02*
X119000000Y-130000000D01*
X119000000Y-130000000D02*
X118000000Y-129000000D01*
X118000000Y-129000000D02*
X119000000Y-128000000D01*
X119000000Y-128000000D02*
X120000000Y-129000000D01*
G36*
X120000000Y-129000000D02*
G01*
X119000000Y-130000000D01*
X118000000Y-129000000D01*
X119000000Y-128000000D01*
X120000000Y-129000000D01*
G37*
X120000000Y-129000000D02*
X119000000Y-130000000D01*
X118000000Y-129000000D01*
X119000000Y-128000000D01*
X120000000Y-129000000D01*
D11*
X198120000Y-116840000D03*
D12*
X198120000Y-106680000D03*
D11*
X165100000Y-116840000D03*
D12*
X165100000Y-106680000D03*
D11*
X91440000Y-116840000D03*
D12*
X91440000Y-106680000D03*
D13*
X228600000Y-180340000D03*
D11*
X205740000Y-157480000D03*
D12*
X205740000Y-147320000D03*
D11*
X104140000Y-116840000D03*
D12*
X104140000Y-106680000D03*
D14*
X87470000Y-123190000D03*
D15*
X87470000Y-125730000D03*
X87470000Y-128270000D03*
X87470000Y-130810000D03*
X87470000Y-133350000D03*
X87470000Y-135890000D03*
X87470000Y-138430000D03*
X87470000Y-140970000D03*
X95410000Y-140970000D03*
X95410000Y-138430000D03*
X95410000Y-135890000D03*
X95410000Y-133350000D03*
X95410000Y-130810000D03*
X95410000Y-128270000D03*
X95410000Y-125730000D03*
X95410000Y-123190000D03*
D16*
X246380000Y-182880000D03*
D17*
X246380000Y-187480000D03*
D11*
X101600000Y-157480000D03*
D12*
X101600000Y-147320000D03*
D18*
X100315000Y-121930000D03*
D19*
X100315000Y-124470000D03*
X100315000Y-127010000D03*
X100315000Y-129550000D03*
X100315000Y-132090000D03*
X100315000Y-134630000D03*
X100315000Y-137170000D03*
X100315000Y-139710000D03*
X100315000Y-142250000D03*
X107935000Y-142250000D03*
X107935000Y-139710000D03*
X107935000Y-137170000D03*
X107935000Y-134630000D03*
X107935000Y-132090000D03*
X107935000Y-129550000D03*
X107935000Y-127010000D03*
X107935000Y-124470000D03*
X107935000Y-121930000D03*
D16*
X238760000Y-182880000D03*
D17*
X238760000Y-187480000D03*
D11*
X274320000Y-144780000D03*
D12*
X284480000Y-144780000D03*
D11*
X58420000Y-157480000D03*
D12*
X68580000Y-157480000D03*
D11*
X144780000Y-180340000D03*
D12*
X154940000Y-180340000D03*
D11*
X144780000Y-116840000D03*
D12*
X144780000Y-106680000D03*
D11*
X238760000Y-116840000D03*
D12*
X238760000Y-106680000D03*
D11*
X154940000Y-144780000D03*
D12*
X165100000Y-144780000D03*
D11*
X66040000Y-116840000D03*
D12*
X66040000Y-106680000D03*
D11*
X213360000Y-132080000D03*
D12*
X223520000Y-132080000D03*
D11*
X58420000Y-149860000D03*
D12*
X68580000Y-149860000D03*
D20*
X114300000Y-182880000D03*
D21*
X124460000Y-182880000D03*
D14*
X130650000Y-123190000D03*
D15*
X130650000Y-125730000D03*
X130650000Y-128270000D03*
X130650000Y-130810000D03*
X130650000Y-133350000D03*
X130650000Y-135890000D03*
X130650000Y-138430000D03*
X130650000Y-140970000D03*
X138590000Y-140970000D03*
X138590000Y-138430000D03*
X138590000Y-135890000D03*
X138590000Y-133350000D03*
X138590000Y-130810000D03*
X138590000Y-128270000D03*
X138590000Y-125730000D03*
X138590000Y-123190000D03*
D22*
X115580000Y-148600000D03*
D12*
X115580000Y-151140000D03*
X115580000Y-153680000D03*
X115580000Y-156220000D03*
X123200000Y-156220000D03*
X123200000Y-153680000D03*
X123200000Y-151140000D03*
X123200000Y-148600000D03*
D23*
X66040000Y-167640000D03*
X71040000Y-167640000D03*
D11*
X53340000Y-190500000D03*
D12*
X63500000Y-190500000D03*
D20*
X185420000Y-147320000D03*
D21*
X195580000Y-147320000D03*
D14*
X237330000Y-120650000D03*
D15*
X237330000Y-123190000D03*
X237330000Y-125730000D03*
X237330000Y-128270000D03*
X237330000Y-130810000D03*
X237330000Y-133350000D03*
X237330000Y-135890000D03*
X237330000Y-138430000D03*
X245270000Y-138430000D03*
X245270000Y-135890000D03*
X245270000Y-133350000D03*
X245270000Y-130810000D03*
X245270000Y-128270000D03*
X245270000Y-125730000D03*
X245270000Y-123190000D03*
X245270000Y-120650000D03*
D11*
X213360000Y-116840000D03*
D12*
X213360000Y-106680000D03*
D20*
X269240000Y-162560000D03*
D21*
X269240000Y-172720000D03*
D14*
X31590000Y-123190000D03*
D15*
X31590000Y-125730000D03*
X31590000Y-128270000D03*
X31590000Y-130810000D03*
X31590000Y-133350000D03*
X31590000Y-135890000D03*
X31590000Y-138430000D03*
X31590000Y-140970000D03*
X39530000Y-140970000D03*
X39530000Y-138430000D03*
X39530000Y-135890000D03*
X39530000Y-133350000D03*
X39530000Y-130810000D03*
X39530000Y-128270000D03*
X39530000Y-125730000D03*
X39530000Y-123190000D03*
D20*
X30480000Y-160020000D03*
D21*
X40640000Y-160020000D03*
D22*
X222260000Y-148600000D03*
D12*
X222260000Y-151140000D03*
X222260000Y-153680000D03*
X222260000Y-156220000D03*
X229880000Y-156220000D03*
X229880000Y-153680000D03*
X229880000Y-151140000D03*
X229880000Y-148600000D03*
D24*
X264720000Y-187960000D03*
D25*
X269520000Y-187960000D03*
X274320000Y-187960000D03*
D23*
X264160000Y-152400000D03*
X269160000Y-152400000D03*
D26*
X145260000Y-187960000D03*
D17*
X149860000Y-187960000D03*
D11*
X50800000Y-116840000D03*
D12*
X50800000Y-106680000D03*
D20*
X134620000Y-157480000D03*
D21*
X144780000Y-157480000D03*
D14*
X82550000Y-171610000D03*
D15*
X85090000Y-171610000D03*
X87630000Y-171610000D03*
X90170000Y-171610000D03*
X92710000Y-171610000D03*
X95250000Y-171610000D03*
X97790000Y-171610000D03*
X100330000Y-171610000D03*
X100330000Y-163670000D03*
X97790000Y-163670000D03*
X95250000Y-163670000D03*
X92710000Y-163670000D03*
X90170000Y-163670000D03*
X87630000Y-163670000D03*
X85090000Y-163670000D03*
X82550000Y-163670000D03*
D20*
X83820000Y-157480000D03*
D21*
X93980000Y-157480000D03*
D11*
X99060000Y-116840000D03*
D12*
X99060000Y-106680000D03*
D26*
X86840000Y-190500000D03*
D17*
X91440000Y-190500000D03*
D18*
X201915000Y-121930000D03*
D19*
X201915000Y-124470000D03*
X201915000Y-127010000D03*
X201915000Y-129550000D03*
X201915000Y-132090000D03*
X201915000Y-134630000D03*
X201915000Y-137170000D03*
X201915000Y-139710000D03*
X201915000Y-142250000D03*
X209535000Y-142250000D03*
X209535000Y-139710000D03*
X209535000Y-137170000D03*
X209535000Y-134630000D03*
X209535000Y-132090000D03*
X209535000Y-129550000D03*
X209535000Y-127010000D03*
X209535000Y-124470000D03*
X209535000Y-121930000D03*
D11*
X129540000Y-116840000D03*
D12*
X129540000Y-106680000D03*
D11*
X114300000Y-116840000D03*
D12*
X114300000Y-106680000D03*
D14*
X173830000Y-123190000D03*
D15*
X173830000Y-125730000D03*
X173830000Y-128270000D03*
X173830000Y-130810000D03*
X173830000Y-133350000D03*
X173830000Y-135890000D03*
X173830000Y-138430000D03*
X173830000Y-140970000D03*
X181770000Y-140970000D03*
X181770000Y-138430000D03*
X181770000Y-135890000D03*
X181770000Y-133350000D03*
X181770000Y-130810000D03*
X181770000Y-128270000D03*
X181770000Y-125730000D03*
X181770000Y-123190000D03*
D11*
X137160000Y-116840000D03*
D12*
X137160000Y-106680000D03*
D11*
X124460000Y-116840000D03*
D12*
X124460000Y-106680000D03*
D11*
X266700000Y-116840000D03*
D12*
X266700000Y-106680000D03*
D11*
X203200000Y-116840000D03*
D12*
X203200000Y-106680000D03*
D11*
X261620000Y-116840000D03*
D12*
X261620000Y-106680000D03*
D11*
X246380000Y-116840000D03*
D12*
X246380000Y-106680000D03*
D20*
X236220000Y-154270000D03*
D21*
X246380000Y-154270000D03*
D18*
X252715000Y-121930000D03*
D19*
X252715000Y-124470000D03*
X252715000Y-127010000D03*
X252715000Y-129550000D03*
X252715000Y-132090000D03*
X252715000Y-134630000D03*
X252715000Y-137170000D03*
X252715000Y-139710000D03*
X252715000Y-142250000D03*
X260335000Y-142250000D03*
X260335000Y-139710000D03*
X260335000Y-137170000D03*
X260335000Y-134630000D03*
X260335000Y-132090000D03*
X260335000Y-129550000D03*
X260335000Y-127010000D03*
X260335000Y-124470000D03*
X260335000Y-121930000D03*
D13*
X228600000Y-187960000D03*
D11*
X33020000Y-116840000D03*
D12*
X33020000Y-106680000D03*
D27*
X281940000Y-170180000D03*
D28*
X283940000Y-170180000D03*
D11*
X276860000Y-116840000D03*
D12*
X276860000Y-106680000D03*
D11*
X223520000Y-116840000D03*
D12*
X223520000Y-106680000D03*
D27*
X55880000Y-167640000D03*
D28*
X57880000Y-167640000D03*
D11*
X218440000Y-116840000D03*
D12*
X218440000Y-106680000D03*
D29*
X283500000Y-189000000D03*
D11*
X157480000Y-180340000D03*
D12*
X167640000Y-180340000D03*
D22*
X33020000Y-185420000D03*
D11*
X35560000Y-185420000D03*
X38100000Y-185420000D03*
X40640000Y-185420000D03*
X43180000Y-185420000D03*
X45720000Y-185420000D03*
X48260000Y-185420000D03*
X48260000Y-177800000D03*
X45720000Y-177800000D03*
X43180000Y-177800000D03*
X40640000Y-177800000D03*
X38100000Y-177800000D03*
X35560000Y-177800000D03*
X33020000Y-177800000D03*
X251460000Y-116840000D03*
D12*
X251460000Y-106680000D03*
D20*
X134620000Y-147320000D03*
D21*
X144780000Y-147320000D03*
D22*
X90185000Y-184140000D03*
D12*
X92725000Y-184140000D03*
X95265000Y-184140000D03*
X97805000Y-184140000D03*
X100345000Y-184140000D03*
X102885000Y-184140000D03*
X105425000Y-184140000D03*
X107965000Y-184140000D03*
X107965000Y-176520000D03*
X105425000Y-176520000D03*
X102885000Y-176520000D03*
X100345000Y-176520000D03*
X97805000Y-176520000D03*
X95265000Y-176520000D03*
X92725000Y-176520000D03*
X90185000Y-176520000D03*
D11*
X129540000Y-185420000D03*
D12*
X139700000Y-185420000D03*
D20*
X83820000Y-152400000D03*
D21*
X93980000Y-152400000D03*
D11*
X274320000Y-129540000D03*
D12*
X284480000Y-129540000D03*
D20*
X185420000Y-157480000D03*
D21*
X195580000Y-157480000D03*
D11*
X238760000Y-175260000D03*
D12*
X248920000Y-175260000D03*
D29*
X282500000Y-26500000D03*
D22*
X59700000Y-135900000D03*
D12*
X59700000Y-138440000D03*
X59700000Y-140980000D03*
X59700000Y-143520000D03*
X67320000Y-143520000D03*
X67320000Y-140980000D03*
X67320000Y-138440000D03*
X67320000Y-135900000D03*
D20*
X30480000Y-154940000D03*
D21*
X40640000Y-154940000D03*
D14*
X31750000Y-171610000D03*
D15*
X34290000Y-171610000D03*
X36830000Y-171610000D03*
X39370000Y-171610000D03*
X41910000Y-171610000D03*
X44450000Y-171610000D03*
X46990000Y-171610000D03*
X49530000Y-171610000D03*
X49530000Y-163670000D03*
X46990000Y-163670000D03*
X44450000Y-163670000D03*
X41910000Y-163670000D03*
X39370000Y-163670000D03*
X36830000Y-163670000D03*
X34290000Y-163670000D03*
X31750000Y-163670000D03*
D11*
X60960000Y-116840000D03*
D12*
X60960000Y-106680000D03*
D11*
X129540000Y-180340000D03*
D12*
X139700000Y-180340000D03*
D27*
X205740000Y-170180000D03*
D28*
X207740000Y-170180000D03*
D27*
X254000000Y-152400000D03*
D28*
X256000000Y-152400000D03*
D11*
X160020000Y-116840000D03*
D12*
X160020000Y-106680000D03*
D11*
X71120000Y-116840000D03*
D12*
X71120000Y-106680000D03*
D11*
X175260000Y-116840000D03*
D12*
X175260000Y-106680000D03*
D11*
X169580000Y-136000000D03*
D12*
X159420000Y-136000000D03*
D18*
X143495000Y-121930000D03*
D19*
X143495000Y-124470000D03*
X143495000Y-127010000D03*
X143495000Y-129550000D03*
X143495000Y-132090000D03*
X143495000Y-134630000D03*
X143495000Y-137170000D03*
X143495000Y-139710000D03*
X143495000Y-142250000D03*
X151115000Y-142250000D03*
X151115000Y-139710000D03*
X151115000Y-137170000D03*
X151115000Y-134630000D03*
X151115000Y-132090000D03*
X151115000Y-129550000D03*
X151115000Y-127010000D03*
X151115000Y-124470000D03*
X151115000Y-121930000D03*
D11*
X83820000Y-116840000D03*
D12*
X83820000Y-106680000D03*
D11*
X40640000Y-116840000D03*
D12*
X40640000Y-106680000D03*
D11*
X175260000Y-190500000D03*
D12*
X175260000Y-180340000D03*
D11*
X109220000Y-116840000D03*
D12*
X109220000Y-106680000D03*
D14*
X181610000Y-174150000D03*
D15*
X184150000Y-174150000D03*
X186690000Y-174150000D03*
X189230000Y-174150000D03*
X191770000Y-174150000D03*
X194310000Y-174150000D03*
X196850000Y-174150000D03*
X199390000Y-174150000D03*
X199390000Y-166210000D03*
X196850000Y-166210000D03*
X194310000Y-166210000D03*
X191770000Y-166210000D03*
X189230000Y-166210000D03*
X186690000Y-166210000D03*
X184150000Y-166210000D03*
X181610000Y-166210000D03*
D14*
X204470000Y-186850000D03*
D15*
X207010000Y-186850000D03*
X209550000Y-186850000D03*
X212090000Y-186850000D03*
X214630000Y-186850000D03*
X217170000Y-186850000D03*
X219710000Y-186850000D03*
X222250000Y-186850000D03*
X222250000Y-178910000D03*
X219710000Y-178910000D03*
X217170000Y-178910000D03*
X214630000Y-178910000D03*
X212090000Y-178910000D03*
X209550000Y-178910000D03*
X207010000Y-178910000D03*
X204470000Y-178910000D03*
D30*
X276860000Y-157480000D03*
D31*
X279400000Y-157480000D03*
X281940000Y-157480000D03*
D20*
X236220000Y-149190000D03*
D21*
X246380000Y-149190000D03*
D26*
X251940000Y-187960000D03*
D17*
X256540000Y-187960000D03*
D14*
X189070000Y-123190000D03*
D15*
X189070000Y-125730000D03*
X189070000Y-128270000D03*
X189070000Y-130810000D03*
X189070000Y-133350000D03*
X189070000Y-135890000D03*
X189070000Y-138430000D03*
X189070000Y-140970000D03*
X197010000Y-140970000D03*
X197010000Y-138430000D03*
X197010000Y-135890000D03*
X197010000Y-133350000D03*
X197010000Y-130810000D03*
X197010000Y-128270000D03*
X197010000Y-125730000D03*
X197010000Y-123190000D03*
D22*
X255280000Y-161300000D03*
D12*
X255280000Y-163840000D03*
X255280000Y-166380000D03*
X255280000Y-168920000D03*
X262900000Y-168920000D03*
X262900000Y-166380000D03*
X262900000Y-163840000D03*
X262900000Y-161300000D03*
D22*
X66010000Y-184150000D03*
D11*
X68550000Y-184150000D03*
X71090000Y-184150000D03*
X73630000Y-184150000D03*
X76170000Y-184150000D03*
X78710000Y-184150000D03*
X81250000Y-184150000D03*
X81250000Y-176530000D03*
X78710000Y-176530000D03*
X76170000Y-176530000D03*
X73630000Y-176530000D03*
X71090000Y-176530000D03*
X68550000Y-176530000D03*
X66010000Y-176530000D03*
D23*
X121920000Y-167640000D03*
X126920000Y-167640000D03*
D20*
X30480000Y-149860000D03*
D21*
X40640000Y-149860000D03*
D11*
X53340000Y-149860000D03*
D12*
X53340000Y-160020000D03*
D23*
X167640000Y-170180000D03*
X172640000Y-170180000D03*
D11*
X45720000Y-116840000D03*
D12*
X45720000Y-106680000D03*
D11*
X274320000Y-139700000D03*
D12*
X284480000Y-139700000D03*
D27*
X158020000Y-170180000D03*
D28*
X160020000Y-170180000D03*
D20*
X236220000Y-144110000D03*
D21*
X246380000Y-144110000D03*
D26*
X165100000Y-187960000D03*
D17*
X169700000Y-187960000D03*
D11*
X129540000Y-190500000D03*
D12*
X139700000Y-190500000D03*
D22*
X182850000Y-186690000D03*
D11*
X185390000Y-186690000D03*
X187930000Y-186690000D03*
X190470000Y-186690000D03*
X193010000Y-186690000D03*
X195550000Y-186690000D03*
X198090000Y-186690000D03*
X198090000Y-179070000D03*
X195550000Y-179070000D03*
X193010000Y-179070000D03*
X190470000Y-179070000D03*
X187930000Y-179070000D03*
X185390000Y-179070000D03*
X182850000Y-179070000D03*
X149860000Y-116840000D03*
D12*
X149860000Y-106680000D03*
D14*
X72230000Y-120650000D03*
D15*
X72230000Y-123190000D03*
X72230000Y-125730000D03*
X72230000Y-128270000D03*
X72230000Y-130810000D03*
X72230000Y-133350000D03*
X72230000Y-135890000D03*
X72230000Y-138430000D03*
X80170000Y-138430000D03*
X80170000Y-135890000D03*
X80170000Y-133350000D03*
X80170000Y-130810000D03*
X80170000Y-128270000D03*
X80170000Y-125730000D03*
X80170000Y-123190000D03*
X80170000Y-120650000D03*
D11*
X274320000Y-134620000D03*
D12*
X284480000Y-134620000D03*
D27*
X109220000Y-165100000D03*
D28*
X111220000Y-165100000D03*
D11*
X170180000Y-116840000D03*
D12*
X170180000Y-106680000D03*
D29*
X34000000Y-26000000D03*
D20*
X83820000Y-147320000D03*
D21*
X93980000Y-147320000D03*
D11*
X213360000Y-142240000D03*
D12*
X223520000Y-142240000D03*
D29*
X33000000Y-191000000D03*
D20*
X185420000Y-152400000D03*
D21*
X195580000Y-152400000D03*
D11*
X271780000Y-116840000D03*
D12*
X271780000Y-106680000D03*
D32*
X259080000Y-177800000D03*
D33*
X264080000Y-177800000D03*
D11*
X228600000Y-116840000D03*
D12*
X228600000Y-106680000D03*
D11*
X55880000Y-116840000D03*
D12*
X55880000Y-106680000D03*
D23*
X215900000Y-170180000D03*
X220900000Y-170180000D03*
D11*
X154940000Y-116840000D03*
D12*
X154940000Y-106680000D03*
D11*
X154940000Y-160020000D03*
D12*
X154940000Y-149860000D03*
D11*
X210820000Y-157480000D03*
D12*
X210820000Y-147320000D03*
D26*
X154940000Y-187960000D03*
D17*
X159540000Y-187960000D03*
D26*
X99060000Y-190500000D03*
D17*
X103660000Y-190500000D03*
D11*
X160020000Y-160020000D03*
D12*
X160020000Y-149860000D03*
D20*
X134620000Y-152400000D03*
D21*
X144780000Y-152400000D03*
D14*
X232410000Y-169070000D03*
D15*
X234950000Y-169070000D03*
X237490000Y-169070000D03*
X240030000Y-169070000D03*
X242570000Y-169070000D03*
X245110000Y-169070000D03*
X247650000Y-169070000D03*
X250190000Y-169070000D03*
X250190000Y-161130000D03*
X247650000Y-161130000D03*
X245110000Y-161130000D03*
X242570000Y-161130000D03*
X240030000Y-161130000D03*
X237490000Y-161130000D03*
X234950000Y-161130000D03*
X232410000Y-161130000D03*
D18*
X44435000Y-121930000D03*
D19*
X44435000Y-124470000D03*
X44435000Y-127010000D03*
X44435000Y-129550000D03*
X44435000Y-132090000D03*
X44435000Y-134630000D03*
X44435000Y-137170000D03*
X44435000Y-139710000D03*
X44435000Y-142250000D03*
X52055000Y-142250000D03*
X52055000Y-139710000D03*
X52055000Y-137170000D03*
X52055000Y-134630000D03*
X52055000Y-132090000D03*
X52055000Y-129550000D03*
X52055000Y-127010000D03*
X52055000Y-124470000D03*
X52055000Y-121930000D03*
D11*
X190500000Y-116840000D03*
D12*
X190500000Y-106680000D03*
D11*
X256540000Y-116840000D03*
D12*
X256540000Y-106680000D03*
D14*
X135890000Y-174150000D03*
D15*
X138430000Y-174150000D03*
X140970000Y-174150000D03*
X143510000Y-174150000D03*
X146050000Y-174150000D03*
X148590000Y-174150000D03*
X151130000Y-174150000D03*
X153670000Y-174150000D03*
X153670000Y-166210000D03*
X151130000Y-166210000D03*
X148590000Y-166210000D03*
X146050000Y-166210000D03*
X143510000Y-166210000D03*
X140970000Y-166210000D03*
X138430000Y-166210000D03*
X135890000Y-166210000D03*
D20*
X114300000Y-177800000D03*
D21*
X124460000Y-177800000D03*
D22*
X168920000Y-151140000D03*
D12*
X168920000Y-153680000D03*
X168920000Y-156220000D03*
X168920000Y-158760000D03*
X176540000Y-158760000D03*
X176540000Y-156220000D03*
X176540000Y-153680000D03*
X176540000Y-151140000D03*
D11*
X208280000Y-116840000D03*
D12*
X208280000Y-106680000D03*
D11*
X119380000Y-116840000D03*
D12*
X119380000Y-106680000D03*
D34*
X63500000Y-98630000D03*
D35*
X60960000Y-98630000D03*
X58420000Y-98630000D03*
X55880000Y-98630000D03*
X53340000Y-98630000D03*
X53340000Y-38530000D03*
X55880000Y-38530000D03*
X58420000Y-38530000D03*
X60960000Y-38530000D03*
X63500000Y-38530000D03*
D36*
X66040000Y-121920000D03*
D17*
X61440000Y-121920000D03*
D34*
X114300000Y-98630000D03*
D35*
X111760000Y-98630000D03*
X109220000Y-98630000D03*
X106680000Y-98630000D03*
X104140000Y-98630000D03*
X104140000Y-38530000D03*
X106680000Y-38530000D03*
X109220000Y-38530000D03*
X111760000Y-38530000D03*
X114300000Y-38530000D03*
D34*
X215900000Y-98630000D03*
D35*
X213360000Y-98630000D03*
X210820000Y-98630000D03*
X208280000Y-98630000D03*
X205740000Y-98630000D03*
X205740000Y-38530000D03*
X208280000Y-38530000D03*
X210820000Y-38530000D03*
X213360000Y-38530000D03*
X215900000Y-38530000D03*
D36*
X167800000Y-129540000D03*
D17*
X163200000Y-129540000D03*
D36*
X66040000Y-129540000D03*
D17*
X61440000Y-129540000D03*
D37*
X266700000Y-134620000D03*
D17*
X266700000Y-130020000D03*
D34*
X266700000Y-98630000D03*
D35*
X264160000Y-98630000D03*
X261620000Y-98630000D03*
X259080000Y-98630000D03*
X256540000Y-98630000D03*
X256540000Y-38530000D03*
X259080000Y-38530000D03*
X261620000Y-38530000D03*
X264160000Y-38530000D03*
X266700000Y-38530000D03*
D34*
X165100000Y-98630000D03*
D35*
X162560000Y-98630000D03*
X160020000Y-98630000D03*
X157480000Y-98630000D03*
X154940000Y-98630000D03*
X154940000Y-38530000D03*
X157480000Y-38530000D03*
X160020000Y-38530000D03*
X162560000Y-38530000D03*
X165100000Y-38530000D03*
D36*
X167386000Y-122301000D03*
D17*
X162786000Y-122301000D03*
D38*
X214000000Y-192000000D02*
X214000000Y-194000000D01*
X222000000Y-194000000D02*
X223000000Y-194000000D01*
X222000000Y-193000000D02*
X222000000Y-194000000D01*
X223000000Y-192000000D02*
X214000000Y-192000000D01*
X221000000Y-194000000D02*
X221000000Y-193000000D01*
X214000000Y-194000000D02*
X215000000Y-194000000D01*
X220000000Y-194000000D02*
X221000000Y-194000000D01*
X220000000Y-193000000D02*
X220000000Y-194000000D01*
X219000000Y-193000000D02*
X220000000Y-193000000D01*
X219000000Y-194000000D02*
X219000000Y-193000000D01*
X218000000Y-194000000D02*
X219000000Y-194000000D01*
X218000000Y-193000000D02*
X218000000Y-194000000D01*
X216000000Y-193000000D02*
X216000000Y-194000000D01*
X221000000Y-193000000D02*
X222000000Y-193000000D01*
X217000000Y-193000000D02*
X218000000Y-193000000D01*
X215000000Y-193000000D02*
X216000000Y-193000000D01*
X216000000Y-194000000D02*
X217000000Y-194000000D01*
X217000000Y-194000000D02*
X217000000Y-193000000D01*
X223000000Y-194000000D02*
X223000000Y-192000000D01*
X215000000Y-194000000D02*
X215000000Y-193000000D01*
X115000000Y-127000000D02*
X119000000Y-131000000D01*
X119000000Y-123000000D02*
X115000000Y-127000000D01*
X123000000Y-127000000D02*
X119000000Y-123000000D01*
X119000000Y-131000000D02*
X123000000Y-127000000D01*
X120000000Y-129000000D02*
X119000000Y-128000000D01*
X119000000Y-130000000D02*
X120000000Y-129000000D01*
X118000000Y-129000000D02*
X119000000Y-130000000D01*
X119000000Y-128000000D02*
X118000000Y-129000000D01*
X119000000Y-127000000D02*
X119000000Y-128000000D01*
X120000000Y-125000000D02*
X119000000Y-126000000D01*
X119000000Y-126000000D02*
X118000000Y-125000000D01*
X119000000Y-124000000D02*
X120000000Y-125000000D01*
X119000000Y-127000000D02*
X119000000Y-126000000D01*
X119000000Y-127000000D02*
X120000000Y-127000000D01*
X118000000Y-127000000D02*
X119000000Y-127000000D01*
X118000000Y-125000000D02*
X119000000Y-124000000D01*
X121000000Y-128000000D02*
X120000000Y-127000000D01*
X122000000Y-127000000D02*
X121000000Y-128000000D01*
X121000000Y-126000000D02*
X122000000Y-127000000D01*
X120000000Y-127000000D02*
X121000000Y-126000000D01*
X117000000Y-128000000D02*
X118000000Y-127000000D01*
X116000000Y-127000000D02*
X117000000Y-128000000D01*
X118000000Y-127000000D02*
X117000000Y-126000000D01*
X117000000Y-126000000D02*
X116000000Y-127000000D01*
D39*
X269240000Y-162560000D02*
X269240000Y-167640000D01*
X274320000Y-157480000D02*
X269240000Y-162560000D01*
X276860000Y-157480000D02*
X274320000Y-157480000D01*
X269240000Y-167640000D02*
X259080000Y-177800000D01*
X167659700Y-140970000D02*
X166650000Y-141979700D01*
X97805000Y-176520000D02*
X99055300Y-176520000D01*
X146415300Y-140980000D02*
X153189700Y-140980000D01*
X220900000Y-177894600D02*
X220900000Y-170180000D01*
X153189700Y-140980000D02*
X158169700Y-136000000D01*
X215645400Y-177894600D02*
X220900000Y-177894600D01*
X139700000Y-190500000D02*
X139700000Y-189249700D01*
X247650000Y-166530000D02*
X247650000Y-161130000D01*
X214630000Y-178910000D02*
X215645400Y-177894600D01*
X46990000Y-163670000D02*
X49130200Y-165810200D01*
X99758500Y-177770300D02*
X100888900Y-177770300D01*
X100347600Y-149822700D02*
X100347600Y-162650800D01*
X285732200Y-142277500D02*
X284480000Y-143529700D01*
X221234600Y-177894600D02*
X222250000Y-178910000D01*
X100778400Y-162650800D02*
X100347600Y-162650800D01*
X49530000Y-172646500D02*
X42946500Y-172646500D01*
X198090000Y-186690000D02*
X199390000Y-185390000D01*
X101380900Y-163253300D02*
X100778400Y-162650800D01*
X158969600Y-171230400D02*
X153670000Y-171230400D01*
X101600000Y-148570300D02*
X100347600Y-149822700D01*
X172640000Y-170180000D02*
X172640000Y-176469700D01*
X199390000Y-175217800D02*
X199390000Y-174150000D01*
X159420000Y-136000000D02*
X160670300Y-136000000D01*
X221713000Y-149850300D02*
X220900000Y-150663300D01*
X153670000Y-168750000D02*
X153670000Y-171230400D01*
X172640000Y-176469700D02*
X175260000Y-179089700D01*
X160020000Y-170180000D02*
X158969600Y-171230400D01*
X196850000Y-166210000D02*
X199390000Y-168750000D01*
X192837800Y-175217800D02*
X191770000Y-174150000D01*
X175260000Y-180340000D02*
X175260000Y-179089700D01*
X32606200Y-136906200D02*
X31590000Y-135890000D01*
X222890000Y-143490300D02*
X223520000Y-143490300D01*
X97805000Y-174135000D02*
X100330000Y-171610000D01*
X101380900Y-164028100D02*
X110148100Y-164028100D01*
X49530000Y-166210000D02*
X49530000Y-171610000D01*
X95235000Y-174135000D02*
X97805000Y-174135000D01*
X159420000Y-136000000D02*
X158169700Y-136000000D01*
X53340000Y-160020000D02*
X53340000Y-161270300D01*
X284480000Y-129540000D02*
X284480000Y-130790300D01*
X199390000Y-168750000D02*
X199390000Y-174150000D01*
X153670000Y-171230400D02*
X153670000Y-174150000D01*
X212090000Y-178910000D02*
X212090000Y-174530000D01*
X222260000Y-144120300D02*
X205435600Y-144120300D01*
X264080000Y-177800000D02*
X264080000Y-180420000D01*
X49530000Y-184150000D02*
X48260000Y-185420000D01*
X49530000Y-171610000D02*
X49530000Y-172646500D01*
X165100000Y-144780000D02*
X165100000Y-143529700D01*
X129605200Y-139925200D02*
X129605200Y-136934800D01*
X52590200Y-162350200D02*
X57880000Y-167640000D01*
X222260000Y-144120300D02*
X222890000Y-143490300D01*
X139700000Y-189249700D02*
X140970000Y-187979700D01*
X83820000Y-107930300D02*
X73754600Y-117995700D01*
X220900000Y-150663300D02*
X220900000Y-170180000D01*
X220900000Y-177894600D02*
X221234600Y-177894600D01*
X129605200Y-136934800D02*
X130650000Y-135890000D01*
X100330000Y-171610000D02*
X101380900Y-170559100D01*
X168920000Y-149889700D02*
X165100000Y-146069700D01*
X101600000Y-147320000D02*
X101600000Y-148570300D01*
X201915000Y-142250000D02*
X203565300Y-142250000D01*
X166650000Y-141979700D02*
X165100000Y-143529700D01*
X256000000Y-159329700D02*
X256000000Y-152400000D01*
X73754600Y-117995700D02*
X73754600Y-134365400D01*
X146050000Y-174150000D02*
X147065400Y-175165400D01*
X143495000Y-142250000D02*
X145145300Y-142250000D01*
X153670000Y-174150000D02*
X153670000Y-175165400D01*
X199390000Y-185390000D02*
X199390000Y-175217800D01*
X153670000Y-177819700D02*
X154940000Y-179089700D01*
X87630000Y-171610000D02*
X87630000Y-177770000D01*
X166650000Y-141979700D02*
X160670300Y-136000000D01*
X264080000Y-180420000D02*
X256540000Y-187960000D01*
X83820000Y-106680000D02*
X83820000Y-107930300D01*
X173830000Y-140970000D02*
X173830000Y-138430000D01*
X222260000Y-149850300D02*
X221713000Y-149850300D01*
X250190000Y-172739700D02*
X248920000Y-174009700D01*
X99055300Y-177067100D02*
X99758500Y-177770300D01*
X52590200Y-162350200D02*
X53340000Y-161600400D01*
X212090000Y-178910000D02*
X214630000Y-178910000D01*
X101380900Y-170559100D02*
X101380900Y-164028100D01*
X151130000Y-166210000D02*
X153670000Y-168750000D01*
X255280000Y-161300000D02*
X255280000Y-160049700D01*
X223520000Y-142240000D02*
X223520000Y-143490300D01*
X212090000Y-174530000D02*
X207740000Y-170180000D01*
X248920000Y-175260000D02*
X248920000Y-174009700D01*
X168890300Y-180219400D02*
X172640000Y-176469700D01*
X49130200Y-165810200D02*
X52590200Y-162350200D01*
X110148100Y-164028100D02*
X111220000Y-165100000D01*
X49130200Y-165810200D02*
X49530000Y-166210000D01*
X49530000Y-172646500D02*
X49530000Y-184150000D01*
X285732200Y-132042500D02*
X285732200Y-142277500D01*
X205435600Y-144120300D02*
X203565300Y-142250000D01*
X31590000Y-140970000D02*
X32606200Y-139953800D01*
X42946500Y-172646500D02*
X41910000Y-171610000D01*
X154940000Y-180340000D02*
X154940000Y-179089700D01*
X168920000Y-151140000D02*
X168920000Y-149889700D01*
X130650000Y-140970000D02*
X129605200Y-139925200D01*
X199390000Y-175217800D02*
X192837800Y-175217800D01*
X101380900Y-164028100D02*
X101380900Y-163253300D01*
X284480000Y-130790300D02*
X285732200Y-132042500D01*
X165100000Y-146069700D02*
X165100000Y-144780000D01*
X222260000Y-148600000D02*
X222260000Y-149850300D01*
X73754600Y-134365400D02*
X72230000Y-135890000D01*
X100347600Y-162650800D02*
X98809200Y-162650800D01*
X250190000Y-169070000D02*
X247650000Y-166530000D01*
X100888900Y-177770300D02*
X106714700Y-183596100D01*
X167640000Y-180340000D02*
X168890300Y-180340000D01*
X284480000Y-144780000D02*
X284480000Y-143529700D01*
X92710000Y-171610000D02*
X95235000Y-174135000D01*
X106714700Y-183596100D02*
X106714700Y-184140000D01*
X98809200Y-162650800D02*
X97790000Y-163670000D01*
X222250000Y-178910000D02*
X222250000Y-186850000D01*
X97805000Y-174135000D02*
X97805000Y-176520000D01*
X255280000Y-160049700D02*
X256000000Y-159329700D01*
X222260000Y-148600000D02*
X222260000Y-144120300D01*
X140970000Y-187979700D02*
X140970000Y-174150000D01*
X107965000Y-184140000D02*
X106714700Y-184140000D01*
X145145300Y-142250000D02*
X146415300Y-140980000D01*
X53340000Y-161600400D02*
X53340000Y-161270300D01*
X173830000Y-140970000D02*
X167659700Y-140970000D01*
X153670000Y-175165400D02*
X153670000Y-177819700D01*
X250190000Y-169070000D02*
X250190000Y-172739700D01*
X32606200Y-139953800D02*
X32606200Y-136906200D01*
X99055300Y-176520000D02*
X99055300Y-177067100D01*
X87630000Y-177770000D02*
X81250000Y-184150000D01*
X168890300Y-180340000D02*
X168890300Y-180219400D01*
X147065400Y-175165400D02*
X153670000Y-175165400D01*
D38*
X30480000Y-149860000D02*
X30480000Y-154940000D01*
X30480000Y-154940000D02*
X30480000Y-160020000D01*
X40640000Y-160020000D02*
X40640000Y-158594700D01*
X34198100Y-146710200D02*
X30699700Y-143211800D01*
X30699700Y-143211800D02*
X30699700Y-124970600D01*
X30699700Y-124970600D02*
X31590000Y-124080300D01*
X34198100Y-152152800D02*
X34198100Y-146710200D01*
X31590000Y-123190000D02*
X31590000Y-124080300D01*
X40640000Y-158594700D02*
X34198100Y-152152800D01*
X34648500Y-128788500D02*
X31590000Y-125730000D01*
X34648500Y-147523200D02*
X34648500Y-128788500D01*
X40640000Y-154940000D02*
X40640000Y-153514700D01*
X40640000Y-153514700D02*
X34648500Y-147523200D01*
X83820000Y-157480000D02*
X83820000Y-179040000D01*
X83820000Y-179040000D02*
X78710000Y-184150000D01*
X83820000Y-152400000D02*
X83820000Y-157480000D01*
X83820000Y-147320000D02*
X83820000Y-152400000D01*
X93980000Y-144940000D02*
X93980000Y-147320000D01*
X93980000Y-148745300D02*
X91819000Y-150906300D01*
X91819000Y-150906300D02*
X91819000Y-168179000D01*
X91819000Y-168179000D02*
X95250000Y-171610000D01*
X87470000Y-138430000D02*
X93980000Y-144940000D01*
X93980000Y-147320000D02*
X93980000Y-148745300D01*
X95421700Y-155267000D02*
X95421700Y-163498300D01*
X95421700Y-163498300D02*
X95250000Y-163670000D01*
X102355100Y-142923900D02*
X102355100Y-137205600D01*
X93980000Y-150974700D02*
X94304300Y-150974700D01*
X93980000Y-152171600D02*
X93980000Y-150974700D01*
X102355100Y-137205600D02*
X101000500Y-135851000D01*
X93980000Y-152171600D02*
X93980000Y-152400000D01*
X93980000Y-152400000D02*
X93980000Y-153825300D01*
X94304300Y-150974700D02*
X102355100Y-142923900D01*
X87470000Y-124129200D02*
X87470000Y-123190000D01*
X93980000Y-153825300D02*
X95421700Y-155267000D01*
X99191800Y-135851000D02*
X87470000Y-124129200D01*
X101000500Y-135851000D02*
X99191800Y-135851000D01*
X99240800Y-138440000D02*
X87470000Y-126669200D01*
X101854100Y-142708100D02*
X101854100Y-139198200D01*
X92516700Y-154591400D02*
X92516700Y-151790800D01*
X94779800Y-149527700D02*
X95034500Y-149527700D01*
X95034500Y-149527700D02*
X101854100Y-142708100D01*
X93980000Y-156054700D02*
X92516700Y-154591400D01*
X101095900Y-138440000D02*
X99240800Y-138440000D01*
X101854100Y-139198200D02*
X101095900Y-138440000D01*
X87470000Y-126669200D02*
X87470000Y-125730000D01*
X92516700Y-151790800D02*
X94779800Y-149527700D01*
X93980000Y-157480000D02*
X93980000Y-156054700D01*
X134620000Y-147320000D02*
X134620000Y-152400000D01*
X134620000Y-152400000D02*
X134620000Y-157480000D01*
X148590000Y-174150000D02*
X149505300Y-173234700D01*
X149505300Y-173234700D02*
X149505300Y-153470600D01*
X149505300Y-153470600D02*
X144780000Y-148745300D01*
X144780000Y-147320000D02*
X144780000Y-148745300D01*
X132408800Y-138603500D02*
X132408800Y-125839000D01*
X144780000Y-152400000D02*
X144780000Y-150974700D01*
X130650000Y-123190000D02*
X130650000Y-124080300D01*
X144780000Y-152400000D02*
X144780000Y-153825300D01*
X132408800Y-125839000D02*
X132408700Y-125839000D01*
X148590000Y-157635300D02*
X144780000Y-153825300D01*
X148590000Y-166210000D02*
X148590000Y-157635300D01*
X144780000Y-150974700D02*
X132408800Y-138603500D01*
X132408700Y-125839000D02*
X130650000Y-124080300D01*
X131881400Y-126961400D02*
X130650000Y-125730000D01*
X144780000Y-156054700D02*
X143354700Y-154629400D01*
X144780000Y-157480000D02*
X144780000Y-156054700D01*
X141885100Y-167125100D02*
X143875700Y-167125100D01*
X140970000Y-166210000D02*
X141885100Y-167125100D01*
X143354700Y-152359700D02*
X131881400Y-140886400D01*
X131881400Y-140886400D02*
X131881400Y-126961400D01*
X144780000Y-166220800D02*
X144780000Y-157480000D01*
X143875700Y-167125100D02*
X144780000Y-166220800D01*
X143354700Y-154629400D02*
X143354700Y-152359700D01*
X185420000Y-157480000D02*
X185420000Y-152400000D01*
X197504800Y-150670100D02*
X195580000Y-148745300D01*
X195677900Y-172782100D02*
X195677900Y-165160400D01*
X194310000Y-174150000D02*
X195677900Y-172782100D01*
X195677900Y-165160400D02*
X197504800Y-163333500D01*
X195580000Y-147320000D02*
X195580000Y-148745300D01*
X197504800Y-163333500D02*
X197504800Y-150670100D01*
X189070000Y-123190000D02*
X189070000Y-124080300D01*
X194310000Y-161801700D02*
X194310000Y-166210000D01*
X194154700Y-149549400D02*
X195580000Y-150974700D01*
X197054400Y-155299700D02*
X197054400Y-159057300D01*
X189070000Y-124080300D02*
X194154700Y-129165000D01*
X194154700Y-129165000D02*
X194154700Y-149549400D01*
X195580000Y-152400000D02*
X195580000Y-150974700D01*
X195580000Y-152400000D02*
X195580000Y-153825300D01*
X197054400Y-159057300D02*
X194310000Y-161801700D01*
X195580000Y-153825300D02*
X197054400Y-155299700D01*
X195580000Y-157480000D02*
X194154700Y-157480000D01*
X189994700Y-150469400D02*
X195580000Y-156054700D01*
X186690000Y-166210000D02*
X194154700Y-158745300D01*
X195580000Y-157480000D02*
X195580000Y-156054700D01*
X194154700Y-158745300D02*
X194154700Y-157480000D01*
X189070000Y-125730000D02*
X189994700Y-126654700D01*
X189994700Y-126654700D02*
X189994700Y-150469400D01*
X236220000Y-149190000D02*
X236220000Y-154270000D01*
X244212500Y-159688800D02*
X247806000Y-156095300D01*
X244954700Y-146960600D02*
X246380000Y-145535300D01*
X247806000Y-156095300D02*
X247806000Y-152762200D01*
X247806000Y-152762200D02*
X244954700Y-149910900D01*
X244954700Y-149910900D02*
X244954700Y-146960600D01*
X245110000Y-169070000D02*
X244212500Y-168172500D01*
X246380000Y-144110000D02*
X246380000Y-145535300D01*
X244212500Y-168172500D02*
X244212500Y-159688800D01*
X246380000Y-149190000D02*
X246380000Y-147764700D01*
X247827200Y-142820400D02*
X238979600Y-133972800D01*
X237330000Y-120650000D02*
X237330000Y-121540300D01*
X238979600Y-133972800D02*
X238979600Y-123189900D01*
X238979600Y-123189900D02*
X237330000Y-121540300D01*
X246380000Y-147764700D02*
X247827200Y-146317500D01*
X247827200Y-146317500D02*
X247827200Y-142820400D01*
X238226300Y-124086300D02*
X237330000Y-123190000D01*
X243053600Y-154270000D02*
X238226300Y-149442700D01*
X246380000Y-154270000D02*
X244954700Y-154270000D01*
X238226300Y-149442700D02*
X238226300Y-124086300D01*
X243053600Y-154270000D02*
X244954700Y-154270000D01*
X237490000Y-161130000D02*
X243053600Y-155566400D01*
X243053600Y-155566400D02*
X243053600Y-154270000D01*
X63500000Y-98630000D02*
X63500000Y-99705300D01*
X63500000Y-99705300D02*
X66040000Y-102245300D01*
X66040000Y-102245300D02*
X66040000Y-106680000D01*
X60960000Y-98630000D02*
X60960000Y-106680000D01*
X55880000Y-98630000D02*
X55880000Y-106680000D01*
X40640000Y-51230000D02*
X40640000Y-106680000D01*
X53340000Y-38530000D02*
X40640000Y-51230000D01*
X45720000Y-48690000D02*
X55880000Y-38530000D01*
X45720000Y-106680000D02*
X45720000Y-48690000D01*
X62077300Y-37412700D02*
X63941100Y-37412700D01*
X60960000Y-38530000D02*
X62077300Y-37412700D01*
X71120000Y-44591600D02*
X71120000Y-106680000D01*
X63941100Y-37412700D02*
X71120000Y-44591600D01*
X50800000Y-51230000D02*
X63500000Y-38530000D01*
X50800000Y-106680000D02*
X50800000Y-51230000D01*
X105265300Y-104429400D02*
X104140000Y-105554700D01*
X104140000Y-106680000D02*
X104140000Y-105554700D01*
X106255200Y-97526800D02*
X105265300Y-98516700D01*
X111760000Y-98630000D02*
X110656800Y-97526800D01*
X105265300Y-98516700D02*
X105265300Y-104429400D01*
X110656800Y-97526800D02*
X106255200Y-97526800D01*
X106680000Y-103014700D02*
X109220000Y-105554700D01*
X109220000Y-106680000D02*
X109220000Y-105554700D01*
X106680000Y-98630000D02*
X106680000Y-103014700D01*
X87399700Y-129160400D02*
X97949300Y-139710000D01*
X97949300Y-139710000D02*
X100315000Y-139710000D01*
X80170000Y-123190000D02*
X86140400Y-129160400D01*
X86140400Y-129160400D02*
X87399700Y-129160400D01*
X129540000Y-106680000D02*
X129540000Y-50909100D01*
X115128500Y-36497600D02*
X106172400Y-36497600D01*
X129540000Y-50909100D02*
X115128500Y-36497600D01*
X106172400Y-36497600D02*
X104140000Y-38530000D01*
X108262100Y-36947900D02*
X114941900Y-36947900D01*
X106680000Y-38530000D02*
X108262100Y-36947900D01*
X124460000Y-46466000D02*
X124460000Y-105554700D01*
X114941900Y-36947900D02*
X124460000Y-46466000D01*
X124460000Y-106680000D02*
X124460000Y-105554700D01*
X112838400Y-37451600D02*
X114771200Y-37451600D01*
X111760000Y-38530000D02*
X112838400Y-37451600D01*
X114771200Y-37451600D02*
X119380000Y-42060400D01*
X119380000Y-42060400D02*
X119380000Y-106680000D01*
X114300000Y-106680000D02*
X114300000Y-105554700D01*
X114300000Y-38530000D02*
X115375300Y-39605300D01*
X115375300Y-104479400D02*
X114300000Y-105554700D01*
X115375300Y-39605300D02*
X115375300Y-104479400D01*
X157480000Y-98630000D02*
X157480000Y-103014700D01*
X154940000Y-106680000D02*
X154940000Y-105554700D01*
X157480000Y-103014700D02*
X154940000Y-105554700D01*
X154940000Y-38530000D02*
X157003600Y-36466400D01*
X165845500Y-36466400D02*
X175260000Y-45880900D01*
X157003600Y-36466400D02*
X165845500Y-36466400D01*
X175260000Y-45880900D02*
X175260000Y-106680000D01*
X157480000Y-38530000D02*
X159052600Y-36957400D01*
X170180000Y-106680000D02*
X170180000Y-105554700D01*
X170180000Y-41439900D02*
X170180000Y-105554700D01*
X165697500Y-36957400D02*
X170180000Y-41439900D01*
X159052600Y-36957400D02*
X165697500Y-36957400D01*
X163670900Y-37419100D02*
X165522300Y-37419100D01*
X162560000Y-38530000D02*
X163670900Y-37419100D01*
X166175300Y-38072100D02*
X166175300Y-104479400D01*
X166175300Y-104479400D02*
X165100000Y-105554700D01*
X165100000Y-106680000D02*
X165100000Y-105554700D01*
X165522300Y-37419100D02*
X166175300Y-38072100D01*
X161145300Y-42484700D02*
X161145300Y-104429400D01*
X160020000Y-106680000D02*
X160020000Y-105554700D01*
X165100000Y-38530000D02*
X161145300Y-42484700D01*
X161145300Y-104429400D02*
X160020000Y-105554700D01*
X207010000Y-98366100D02*
X207010000Y-101744700D01*
X203200000Y-106680000D02*
X203200000Y-105554700D01*
X207840100Y-97536000D02*
X207010000Y-98366100D01*
X213360000Y-98630000D02*
X212266000Y-97536000D01*
X207010000Y-101744700D02*
X203200000Y-105554700D01*
X212266000Y-97536000D02*
X207840100Y-97536000D01*
X208280000Y-98630000D02*
X208280000Y-106680000D01*
X205740000Y-38530000D02*
X207814100Y-36455900D01*
X207814100Y-36455900D02*
X216690900Y-36455900D01*
X228600000Y-48365000D02*
X228600000Y-106680000D01*
X216690900Y-36455900D02*
X228600000Y-48365000D01*
X223520000Y-43959000D02*
X223520000Y-106680000D01*
X208280000Y-38530000D02*
X209872700Y-36937300D01*
X216498300Y-36937300D02*
X223520000Y-43959000D01*
X209872700Y-36937300D02*
X216498300Y-36937300D01*
X213360000Y-38530000D02*
X214445400Y-37444600D01*
X216368700Y-37444600D02*
X218440000Y-39515900D01*
X218440000Y-39515900D02*
X218440000Y-106680000D01*
X214445400Y-37444600D02*
X216368700Y-37444600D01*
X215900000Y-38530000D02*
X214485300Y-39944700D01*
X213360000Y-106680000D02*
X213360000Y-105554700D01*
X214485300Y-104429400D02*
X213360000Y-105554700D01*
X214485300Y-39944700D02*
X214485300Y-104429400D01*
X259080000Y-98630000D02*
X259080000Y-103014700D01*
X256540000Y-106680000D02*
X256540000Y-105554700D01*
X259080000Y-103014700D02*
X256540000Y-105554700D01*
X257657000Y-37413000D02*
X267141000Y-37413000D01*
X256540000Y-38530000D02*
X257657000Y-37413000D01*
X276860000Y-47132000D02*
X276860000Y-106680000D01*
X267141000Y-37413000D02*
X276860000Y-47132000D01*
X262745300Y-42484700D02*
X262745300Y-104429400D01*
X261620000Y-106680000D02*
X261620000Y-105554700D01*
X262745300Y-104429400D02*
X261620000Y-105554700D01*
X266700000Y-38530000D02*
X262745300Y-42484700D01*
D39*
X281940000Y-170740000D02*
X264720000Y-187960000D01*
X281940000Y-170180000D02*
X281940000Y-170740000D01*
X281940000Y-157480000D02*
X281940000Y-170180000D01*
X186850000Y-130810000D02*
X181770000Y-135890000D01*
X236458100Y-180578100D02*
X238760000Y-182880000D01*
X122663400Y-149841900D02*
X116830300Y-155675000D01*
X182850000Y-179070000D02*
X182850000Y-167450000D01*
X81214800Y-162334800D02*
X81214800Y-136934800D01*
X181770000Y-138430000D02*
X181770000Y-135890000D01*
X180832600Y-139367400D02*
X181770000Y-138430000D01*
X32800600Y-164720600D02*
X31750000Y-163670000D01*
X250190000Y-161130000D02*
X250190000Y-163123600D01*
X81214800Y-136934800D02*
X80170000Y-135890000D01*
X38319400Y-164720600D02*
X33020000Y-164720600D01*
X142459500Y-165159500D02*
X136940500Y-165159500D01*
X80205200Y-162334800D02*
X66010000Y-176530000D01*
X204470000Y-178910000D02*
X204470000Y-171290000D01*
X255280000Y-168920000D02*
X255280000Y-167669700D01*
X173830000Y-133350000D02*
X171610000Y-133350000D01*
X175289600Y-154950000D02*
X177102700Y-154950000D01*
X237330000Y-128270000D02*
X237330000Y-125730000D01*
X204470000Y-171290000D02*
X199390000Y-166210000D01*
X182850000Y-167450000D02*
X187990000Y-167450000D01*
X238960100Y-162199900D02*
X240030000Y-161130000D01*
X143510000Y-166210000D02*
X142459500Y-165159500D01*
X231169600Y-159889600D02*
X232410000Y-161130000D01*
X89147100Y-174231800D02*
X90185000Y-175269700D01*
X214630000Y-186850000D02*
X207762900Y-179982900D01*
X173980300Y-154950000D02*
X175289600Y-154950000D01*
X66040000Y-129540000D02*
X66040000Y-121920000D01*
X80170000Y-120970000D02*
X80170000Y-120650000D01*
X136940500Y-163046900D02*
X123735500Y-149841900D01*
X67320000Y-135900000D02*
X66069700Y-135900000D01*
X233479900Y-162199900D02*
X236458100Y-162199900D01*
X90185000Y-175894800D02*
X90185000Y-175269700D01*
X115580000Y-156220000D02*
X116830300Y-156220000D01*
X182850000Y-167450000D02*
X181610000Y-166210000D01*
X181610000Y-159457300D02*
X181610000Y-166210000D01*
X177307400Y-139367400D02*
X180832600Y-139367400D01*
X33020000Y-164720600D02*
X32800600Y-164720600D01*
X205542900Y-179982900D02*
X204470000Y-178910000D01*
X236458100Y-162199900D02*
X236458100Y-180578100D01*
X254736100Y-167669700D02*
X255280000Y-167669700D01*
X96030800Y-190500000D02*
X91435400Y-185904600D01*
X89147100Y-164692900D02*
X89147100Y-174231800D01*
X116830300Y-155675000D02*
X116830300Y-156220000D01*
X130650000Y-130810000D02*
X130650000Y-128270000D01*
X123735500Y-149841900D02*
X123200000Y-149841900D01*
X123200000Y-138260000D02*
X130650000Y-130810000D01*
X229880000Y-148600000D02*
X229880000Y-135720000D01*
X167800000Y-122715000D02*
X167800000Y-129540000D01*
X80170000Y-133350000D02*
X80170000Y-135890000D01*
X90185000Y-176520000D02*
X90185000Y-177770300D01*
X176540000Y-140134800D02*
X177307400Y-139367400D01*
X262900000Y-138420000D02*
X262900000Y-161300000D01*
X72230000Y-133350000D02*
X72230000Y-130810000D01*
X60243900Y-142269700D02*
X59700000Y-142269700D01*
X59700000Y-144770300D02*
X58420000Y-146050300D01*
X135890000Y-166210000D02*
X129540000Y-172560000D01*
X177102700Y-154950000D02*
X181610000Y-159457300D01*
X175289600Y-153093700D02*
X175289600Y-154950000D01*
X49530000Y-158750000D02*
X49530000Y-163670000D01*
X217170000Y-178910000D02*
X217170000Y-186850000D01*
X66069700Y-135900000D02*
X66069700Y-136443900D01*
X168920000Y-158760000D02*
X170170300Y-158760000D01*
X207762900Y-179982900D02*
X205542900Y-179982900D01*
X136940500Y-165159500D02*
X136940500Y-163046900D01*
X170170300Y-158760000D02*
X173980300Y-154950000D01*
X87470000Y-128270000D02*
X80170000Y-120970000D01*
X231169600Y-150596000D02*
X230423900Y-149850300D01*
X171610000Y-133350000D02*
X167800000Y-129540000D01*
X229880000Y-148600000D02*
X229880000Y-149850300D01*
X177307400Y-139367400D02*
X173830000Y-135890000D01*
X58420000Y-149860000D02*
X49530000Y-158750000D01*
X224814500Y-157524200D02*
X231169600Y-157524200D01*
X222260000Y-156220000D02*
X223510300Y-156220000D01*
X90185000Y-177770300D02*
X91435400Y-179020700D01*
X229880000Y-135720000D02*
X237330000Y-128270000D01*
X90170000Y-163670000D02*
X89147100Y-164692900D01*
X33020000Y-164720600D02*
X33020000Y-177800000D01*
X176540000Y-151140000D02*
X176540000Y-152390300D01*
X250190000Y-163123600D02*
X254736100Y-167669700D01*
X91435400Y-185904600D02*
X86840000Y-190500000D01*
X59700000Y-143520000D02*
X59700000Y-144770300D01*
X123200000Y-149841900D02*
X122663400Y-149841900D01*
X230423900Y-149850300D02*
X229880000Y-149850300D01*
X136940500Y-165159500D02*
X135890000Y-166210000D01*
X189070000Y-130810000D02*
X186850000Y-130810000D01*
X187990000Y-167450000D02*
X189230000Y-166210000D01*
X231169600Y-157524200D02*
X231169600Y-150596000D01*
X123200000Y-148600000D02*
X123200000Y-138260000D01*
X39370000Y-163670000D02*
X38319400Y-164720600D01*
X176540000Y-152390300D02*
X175993000Y-152390300D01*
X58420000Y-146050300D02*
X58420000Y-149860000D01*
X167386000Y-122301000D02*
X167800000Y-122715000D01*
X231169600Y-157524200D02*
X231169600Y-159889600D01*
X81214800Y-162334800D02*
X80205200Y-162334800D01*
X129540000Y-172560000D02*
X129540000Y-180340000D01*
X66069700Y-136443900D02*
X60243900Y-142269700D01*
X99060000Y-190500000D02*
X96030800Y-190500000D01*
X90185000Y-175894800D02*
X90185000Y-176520000D01*
X223510300Y-156220000D02*
X224814500Y-157524200D01*
X236458100Y-162199900D02*
X238960100Y-162199900D01*
X82550000Y-163670000D02*
X81214800Y-162334800D01*
X91435400Y-179020700D02*
X91435400Y-185904600D01*
X176540000Y-151140000D02*
X176540000Y-140134800D01*
X59700000Y-143520000D02*
X59700000Y-142269700D01*
X266700000Y-134620000D02*
X262900000Y-138420000D01*
X175993000Y-152390300D02*
X175289600Y-153093700D01*
X123200000Y-148600000D02*
X123200000Y-149841900D01*
X232410000Y-161130000D02*
X233479900Y-162199900D01*
D38*
X36691100Y-178931100D02*
X35560000Y-177800000D01*
X36691100Y-178931100D02*
X36691100Y-184288900D01*
X45720000Y-178931100D02*
X36691100Y-178931100D01*
X36691100Y-184288900D02*
X35560000Y-185420000D01*
X45720000Y-185420000D02*
X45720000Y-178931100D01*
X45720000Y-178931100D02*
X45720000Y-177800000D01*
X53340000Y-182379600D02*
X53340000Y-190500000D01*
X70745300Y-127214700D02*
X70745300Y-164974300D01*
X72230000Y-125730000D02*
X70745300Y-127214700D01*
X70745300Y-164974300D02*
X53340000Y-182379600D01*
X68580000Y-148734700D02*
X68499800Y-148734700D01*
X67320000Y-139565300D02*
X67601300Y-139565300D01*
X68580000Y-149860000D02*
X68580000Y-148734700D01*
X68457700Y-140421700D02*
X68457700Y-148692600D01*
X68457700Y-148692600D02*
X67207400Y-148692600D01*
X67320000Y-138440000D02*
X67320000Y-139565300D01*
X68499800Y-148734700D02*
X68457700Y-148692600D01*
X67601300Y-139565300D02*
X68457700Y-140421700D01*
X67207400Y-148692600D02*
X58420000Y-157480000D01*
X58645000Y-168540300D02*
X57455400Y-168540300D01*
X68580000Y-158605300D02*
X58645000Y-168540300D01*
X68580000Y-157480000D02*
X68580000Y-158605300D01*
X56780300Y-167865200D02*
X56780300Y-167640000D01*
X55880000Y-167640000D02*
X56780300Y-167640000D01*
X57455400Y-168540300D02*
X56780300Y-167865200D01*
X128399800Y-180861100D02*
X128399800Y-157183800D01*
X123481300Y-152265300D02*
X123200000Y-152265300D01*
X130754100Y-183215300D02*
X129540000Y-184429400D01*
X129540000Y-184429400D02*
X129540000Y-185420000D01*
X133629400Y-180340000D02*
X130754100Y-183215300D01*
X128399800Y-157183800D02*
X123481300Y-152265300D01*
X130754100Y-183215300D02*
X128399800Y-180861100D01*
X139700000Y-180340000D02*
X133629400Y-180340000D01*
X123200000Y-151140000D02*
X123200000Y-152265300D01*
X110120300Y-165100000D02*
X110120300Y-165325100D01*
X115298600Y-152265300D02*
X115580000Y-152265300D01*
X114454700Y-163147600D02*
X114454700Y-153109200D01*
X113142700Y-164459600D02*
X127499100Y-178816100D01*
X137429400Y-186565300D02*
X138574700Y-185420000D01*
X113142700Y-164459600D02*
X114454700Y-163147600D01*
X127499100Y-178816100D02*
X127499100Y-180075200D01*
X114454700Y-153109200D02*
X115298600Y-152265300D01*
X127949400Y-180525500D02*
X127949400Y-185448700D01*
X111559100Y-166043200D02*
X113142700Y-164459600D01*
X110838400Y-166043200D02*
X111559100Y-166043200D01*
X110120300Y-165325100D02*
X110838400Y-166043200D01*
X115580000Y-151140000D02*
X115580000Y-152265300D01*
X127949400Y-185448700D02*
X129066000Y-186565300D01*
X127499100Y-180075200D02*
X127949400Y-180525500D01*
X139700000Y-185420000D02*
X138574700Y-185420000D01*
X109220000Y-165100000D02*
X110120300Y-165100000D01*
X129066000Y-186565300D02*
X137429400Y-186565300D01*
X172180400Y-124666800D02*
X172180400Y-126620400D01*
X164201500Y-120885500D02*
X168399100Y-120885500D01*
X168399100Y-120885500D02*
X172180400Y-124666800D01*
X172180400Y-126620400D02*
X173830000Y-128270000D01*
X162786000Y-122301000D02*
X164201500Y-120885500D01*
X154940000Y-154940000D02*
X154940000Y-149860000D01*
X160020000Y-160020000D02*
X154940000Y-154940000D01*
X171721500Y-159913200D02*
X168478100Y-159913200D01*
X168478100Y-159913200D02*
X167794700Y-159229800D01*
X158020000Y-170180000D02*
X158020000Y-169279700D01*
X168638600Y-154805300D02*
X168920000Y-154805300D01*
X167794700Y-155649200D02*
X168638600Y-154805300D01*
X167794700Y-159229800D02*
X167794600Y-159229800D01*
X176540000Y-156220000D02*
X175414700Y-156220000D01*
X168920000Y-153680000D02*
X168920000Y-154805300D01*
X167794600Y-159229800D02*
X167794600Y-159505100D01*
X175414700Y-156220000D02*
X171721500Y-159913200D01*
X167794700Y-159229800D02*
X167794700Y-155649200D01*
X167794600Y-159505100D02*
X158020000Y-169279700D01*
X210820000Y-157480000D02*
X205740000Y-152400000D01*
X205740000Y-152400000D02*
X205740000Y-147320000D01*
X225925300Y-153680000D02*
X229880000Y-153680000D01*
X223385300Y-151140000D02*
X225925300Y-153680000D01*
X205740000Y-169279700D02*
X211945300Y-163074400D01*
X211945300Y-149570600D02*
X210820000Y-148445300D01*
X210820000Y-147320000D02*
X210820000Y-148445300D01*
X222260000Y-151140000D02*
X223385300Y-151140000D01*
X205740000Y-170180000D02*
X205740000Y-169279700D01*
X211945300Y-163074400D02*
X211945300Y-149570600D01*
X274320000Y-139700000D02*
X272466300Y-141553700D01*
X263181300Y-162714700D02*
X262900000Y-162714700D01*
X262900000Y-163840000D02*
X262900000Y-162714700D01*
X272466300Y-153429700D02*
X263181300Y-162714700D01*
X272466300Y-141553700D02*
X272466300Y-153429700D01*
X284480000Y-139700000D02*
X284480000Y-140825300D01*
X255280000Y-163840000D02*
X255280000Y-162714700D01*
X283354700Y-145081400D02*
X263181400Y-165254700D01*
X262900000Y-166380000D02*
X262900000Y-165254700D01*
X283354700Y-141950600D02*
X283354700Y-145081400D01*
X284480000Y-140825300D02*
X283354700Y-141950600D01*
X254576700Y-162714700D02*
X254000000Y-162138000D01*
X254000000Y-162138000D02*
X254000000Y-152400000D01*
X263181400Y-165254700D02*
X262900000Y-165254700D01*
X255280000Y-162714700D02*
X254576700Y-162714700D01*
X51408000Y-149272000D02*
X59700000Y-140980000D01*
X34290000Y-163670000D02*
X35878300Y-162081700D01*
X41273100Y-162081700D02*
X51408000Y-151946800D01*
X35878300Y-162081700D02*
X41273100Y-162081700D01*
X51408000Y-151946800D02*
X51408000Y-149272000D01*
X69102000Y-130694600D02*
X60086600Y-139710000D01*
X43503500Y-155531300D02*
X43503500Y-159214400D01*
X41086500Y-161631400D02*
X32517600Y-161631400D01*
X32517600Y-161631400D02*
X30859600Y-163289400D01*
X30859600Y-163289400D02*
X30859600Y-182134300D01*
X60086600Y-139710000D02*
X59324800Y-139710000D01*
X30859600Y-182134300D02*
X33020000Y-184294700D01*
X69102000Y-126318000D02*
X69102000Y-130694600D01*
X59324800Y-139710000D02*
X43503500Y-155531300D01*
X72230000Y-123190000D02*
X69102000Y-126318000D01*
X33020000Y-185420000D02*
X33020000Y-184294700D01*
X43503500Y-159214400D02*
X41086500Y-161631400D01*
X79146800Y-130552500D02*
X79800800Y-129898500D01*
X53995200Y-192079600D02*
X64246700Y-181828100D01*
X40640000Y-185420000D02*
X47299600Y-192079600D01*
X64246700Y-181828100D02*
X64246700Y-176610900D01*
X79800800Y-129898500D02*
X84018500Y-129898500D01*
X64246700Y-176610900D02*
X79146800Y-161710800D01*
X84018500Y-129898500D02*
X87470000Y-133350000D01*
X47299600Y-192079600D02*
X53995200Y-192079600D01*
X79146800Y-161710800D02*
X79146800Y-130552500D01*
X63477000Y-173330600D02*
X63477000Y-181960300D01*
X63477000Y-181960300D02*
X53808100Y-191629200D01*
X53808100Y-191629200D02*
X49389200Y-191629200D01*
X76639500Y-160168100D02*
X63477000Y-173330600D01*
X49389200Y-191629200D02*
X43180000Y-185420000D01*
X80170000Y-125730000D02*
X76639500Y-129260500D01*
X76639500Y-129260500D02*
X76639500Y-160168100D01*
X82550000Y-171610000D02*
X82550000Y-172500300D01*
X79980000Y-175070300D02*
X82550000Y-172500300D01*
X73630000Y-184150000D02*
X79980000Y-177800000D01*
X79980000Y-177800000D02*
X79980000Y-175070300D01*
X121920000Y-158625300D02*
X123200000Y-157345300D01*
X121920000Y-167640000D02*
X121920000Y-158625300D01*
X123200000Y-156220000D02*
X123200000Y-157345300D01*
X176540000Y-159885300D02*
X167640000Y-168785300D01*
X176540000Y-158760000D02*
X176540000Y-159885300D01*
X167640000Y-168785300D02*
X167640000Y-170180000D01*
X115725300Y-177800000D02*
X115725300Y-178334500D01*
X129072000Y-191681200D02*
X141538800Y-191681200D01*
X141538800Y-191681200D02*
X145260000Y-187960000D01*
X115725300Y-178334500D02*
X129072000Y-191681200D01*
X114300000Y-177800000D02*
X115725300Y-177800000D01*
X93850300Y-184421400D02*
X94694200Y-185265300D01*
X93850300Y-184140000D02*
X93850300Y-184421400D01*
X102904100Y-191877500D02*
X104233500Y-191877500D01*
X112874700Y-183236300D02*
X112874700Y-182880000D01*
X94694200Y-185265300D02*
X96291900Y-185265300D01*
X114300000Y-182880000D02*
X112874700Y-182880000D01*
X96291900Y-185265300D02*
X102904100Y-191877500D01*
X104233500Y-191877500D02*
X112874700Y-183236300D01*
X92725000Y-184140000D02*
X93850300Y-184140000D01*
X175970100Y-132950100D02*
X173830000Y-130810000D01*
X181770000Y-132950100D02*
X181770000Y-133350000D01*
X201433300Y-177209000D02*
X201433300Y-169534000D01*
X198498800Y-166599500D02*
X198498800Y-146095400D01*
X103660000Y-190500000D02*
X99075000Y-185915000D01*
X198498800Y-146095400D02*
X196119600Y-143716200D01*
X189769300Y-122269600D02*
X188381400Y-122269600D01*
X80170000Y-130810000D02*
X85245400Y-135885400D01*
X92725000Y-176520000D02*
X92725000Y-175394700D01*
X85245400Y-155271100D02*
X91060400Y-161086100D01*
X183419600Y-127231400D02*
X183419600Y-131300500D01*
X91060400Y-173730100D02*
X92725000Y-175394700D01*
X93006300Y-177645300D02*
X92725000Y-177645300D01*
X212090000Y-186850000D02*
X211074300Y-186850000D01*
X188381400Y-122269600D02*
X183419600Y-127231400D01*
X92725000Y-176520000D02*
X92725000Y-177645300D01*
X91060400Y-161086100D02*
X91060400Y-173730100D01*
X99075000Y-183714000D02*
X93006300Y-177645300D01*
X99075000Y-185915000D02*
X99075000Y-183714000D01*
X211074300Y-186850000D02*
X201433300Y-177209000D01*
X201433300Y-169534000D02*
X198498800Y-166599500D01*
X85245400Y-135885400D02*
X85245400Y-155271100D01*
X196119600Y-128619900D02*
X189769300Y-122269600D01*
X183419600Y-131300500D02*
X181770000Y-132950100D01*
X181770000Y-132950100D02*
X175970100Y-132950100D01*
X196119600Y-143716200D02*
X196119600Y-128619900D01*
D39*
X248434500Y-111760000D02*
X216644600Y-111760000D01*
X246380000Y-182880000D02*
X246380000Y-159120000D01*
X246380000Y-159120000D02*
X248434500Y-157065500D01*
X216644600Y-111760000D02*
X210820000Y-105935400D01*
X261620000Y-98630000D02*
X261620000Y-103368300D01*
X210820000Y-105935400D02*
X210820000Y-98630000D01*
X261620000Y-103368300D02*
X253228300Y-111760000D01*
X253228300Y-111760000D02*
X248434500Y-111760000D01*
X248434500Y-157065500D02*
X248434500Y-111760000D01*
D38*
X91440000Y-106680000D02*
X92565300Y-106680000D01*
X100615300Y-98630000D02*
X92565300Y-106680000D01*
X104140000Y-98630000D02*
X100615300Y-98630000D01*
X45960300Y-139710000D02*
X47141700Y-140891400D01*
X60764500Y-137289400D02*
X67416300Y-130637600D01*
X56547500Y-137289400D02*
X60764500Y-137289400D01*
X67416300Y-130637600D02*
X67416300Y-126354000D01*
X72230000Y-120650000D02*
X72230000Y-121540300D01*
X52945500Y-140891400D02*
X56547500Y-137289400D01*
X67416300Y-126354000D02*
X72230000Y-121540300D01*
X44435000Y-139710000D02*
X45960300Y-139710000D01*
X47141700Y-140891400D02*
X52945500Y-140891400D01*
X42909700Y-124470000D02*
X42909700Y-124890300D01*
X44435000Y-124470000D02*
X42909700Y-124470000D01*
X42909700Y-124890300D02*
X39530000Y-128270000D01*
X42909700Y-135050300D02*
X39530000Y-138430000D01*
X44435000Y-134630000D02*
X42909700Y-134630000D01*
X42909700Y-134630000D02*
X42909700Y-135050300D01*
X44435000Y-137170000D02*
X42909700Y-137170000D01*
X42909700Y-137590300D02*
X39530000Y-140970000D01*
X42909700Y-137170000D02*
X42909700Y-137590300D01*
X141969700Y-127010000D02*
X141969700Y-127430300D01*
X143495000Y-127010000D02*
X141969700Y-127010000D01*
X141969700Y-127430300D02*
X138590000Y-130810000D01*
X141969700Y-129550000D02*
X141969700Y-129970300D01*
X143495000Y-129550000D02*
X141969700Y-129550000D01*
X141969700Y-129970300D02*
X138590000Y-133350000D01*
X141969700Y-132090000D02*
X141969700Y-132510300D01*
X141969700Y-132510300D02*
X138590000Y-135890000D01*
X143495000Y-132090000D02*
X141969700Y-132090000D01*
X141969700Y-134630000D02*
X141969700Y-135050300D01*
X143495000Y-134630000D02*
X141969700Y-134630000D01*
X141969700Y-135050300D02*
X138590000Y-138430000D01*
X201915000Y-129550000D02*
X200389700Y-129550000D01*
X197010000Y-133350000D02*
X200389700Y-129970300D01*
X200389700Y-129970300D02*
X200389700Y-129550000D01*
X200389700Y-132510300D02*
X200389700Y-132090000D01*
X197010000Y-135890000D02*
X200389700Y-132510300D01*
X201915000Y-132090000D02*
X200389700Y-132090000D01*
X197010000Y-138430000D02*
X200389700Y-135050300D01*
X201915000Y-134630000D02*
X200389700Y-134630000D01*
X200389700Y-135050300D02*
X200389700Y-134630000D01*
X197010000Y-140970000D02*
X200389700Y-137590300D01*
X201915000Y-137170000D02*
X200389700Y-137170000D01*
X200389700Y-137590300D02*
X200389700Y-137170000D01*
X257798500Y-158344900D02*
X257798500Y-173878900D01*
X257798500Y-173878900D02*
X241630300Y-190047100D01*
X266700000Y-130020000D02*
X262251800Y-134468200D01*
X212747100Y-190047100D02*
X209550000Y-186850000D01*
X241630300Y-190047100D02*
X212747100Y-190047100D01*
X262251800Y-153891600D02*
X257798500Y-158344900D01*
X262251800Y-134468200D02*
X262251800Y-153891600D01*
X53580300Y-119139700D02*
X55880000Y-116840000D01*
X52055000Y-132090000D02*
X53580300Y-132090000D01*
X53580300Y-132090000D02*
X53580300Y-119139700D01*
X66040000Y-119505000D02*
X66040000Y-116840000D01*
X59188500Y-131561800D02*
X59188500Y-126356500D01*
X59188500Y-126356500D02*
X66040000Y-119505000D01*
X52055000Y-137170000D02*
X53580300Y-137170000D01*
X53580300Y-137170000D02*
X59188500Y-131561800D01*
X50529700Y-139710000D02*
X50529700Y-138661400D01*
X50529700Y-138661400D02*
X45228300Y-133360000D01*
X52055000Y-139710000D02*
X50529700Y-139710000D01*
X45228300Y-133360000D02*
X43360800Y-133360000D01*
X33020000Y-123019200D02*
X33020000Y-116840000D01*
X43360800Y-133360000D02*
X33020000Y-123019200D01*
X53580300Y-134630000D02*
X57504900Y-130705400D01*
X52055000Y-134630000D02*
X53580300Y-134630000D01*
X57504900Y-120295100D02*
X60960000Y-116840000D01*
X57504900Y-130705400D02*
X57504900Y-120295100D01*
X50529700Y-117110300D02*
X50800000Y-116840000D01*
X50529700Y-124470000D02*
X50529700Y-117110300D01*
X52055000Y-124470000D02*
X50529700Y-124470000D01*
X50529700Y-125484700D02*
X45720000Y-120675000D01*
X52055000Y-127010000D02*
X50529700Y-127010000D01*
X50529700Y-127010000D02*
X50529700Y-125484700D01*
X45720000Y-120675000D02*
X45720000Y-116840000D01*
X43042200Y-123055400D02*
X40640000Y-120653200D01*
X40640000Y-120653200D02*
X40640000Y-116840000D01*
X50529700Y-129550000D02*
X50529700Y-128501400D01*
X45083700Y-123055400D02*
X43042200Y-123055400D01*
X50529700Y-128501400D02*
X45083700Y-123055400D01*
X52055000Y-129550000D02*
X50529700Y-129550000D01*
X99060000Y-116840000D02*
X105280200Y-123060200D01*
X105280200Y-123060200D02*
X105280200Y-136040500D01*
X105280200Y-136040500D02*
X106409700Y-137170000D01*
X107935000Y-137170000D02*
X106409700Y-137170000D01*
X105959400Y-118659400D02*
X105959400Y-134179700D01*
X105959400Y-134179700D02*
X106409700Y-134630000D01*
X107935000Y-134630000D02*
X106409700Y-134630000D01*
X104140000Y-116840000D02*
X105959400Y-118659400D01*
X107935000Y-132090000D02*
X106409700Y-132090000D01*
X109220000Y-116840000D02*
X106409700Y-119650300D01*
X106409700Y-119650300D02*
X106409700Y-132090000D01*
X107935000Y-139710000D02*
X106409700Y-139710000D01*
X103173200Y-136473500D02*
X103173200Y-127841000D01*
X106409700Y-139710000D02*
X103173200Y-136473500D01*
X99566700Y-125740000D02*
X91440000Y-117613300D01*
X101072200Y-125740000D02*
X99566700Y-125740000D01*
X91440000Y-117613300D02*
X91440000Y-116840000D01*
X103173200Y-127841000D02*
X101072200Y-125740000D01*
X114300000Y-116840000D02*
X114300000Y-119630300D01*
X107935000Y-124470000D02*
X109460300Y-124470000D01*
X114300000Y-119630300D02*
X109460300Y-124470000D01*
X148076200Y-120136200D02*
X144780000Y-116840000D01*
X151115000Y-137170000D02*
X149589700Y-137170000D01*
X148076200Y-135656500D02*
X148076200Y-120136200D01*
X149589700Y-137170000D02*
X148076200Y-135656500D01*
X151115000Y-134630000D02*
X149589700Y-134630000D01*
X149589700Y-117110300D02*
X149589700Y-134630000D01*
X149860000Y-116840000D02*
X149589700Y-117110300D01*
X154940000Y-116840000D02*
X154940000Y-129790300D01*
X154940000Y-129790300D02*
X152640300Y-132090000D01*
X151115000Y-132090000D02*
X152640300Y-132090000D01*
X149589700Y-139710000D02*
X146244100Y-136364400D01*
X146244100Y-136364400D02*
X146244100Y-127762800D01*
X137160000Y-120164200D02*
X137160000Y-116840000D01*
X144221300Y-125740000D02*
X142735800Y-125740000D01*
X151115000Y-139710000D02*
X149589700Y-139710000D01*
X142735800Y-125740000D02*
X137160000Y-120164200D01*
X146244100Y-127762800D02*
X144221300Y-125740000D01*
X208009700Y-137170000D02*
X206570900Y-135731200D01*
X206570900Y-129622100D02*
X202688800Y-125740000D01*
X202688800Y-125740000D02*
X201169800Y-125740000D01*
X206570900Y-135731200D02*
X206570900Y-129622100D01*
X209535000Y-137170000D02*
X208009700Y-137170000D01*
X201169800Y-125740000D02*
X198120000Y-122690200D01*
X198120000Y-122690200D02*
X198120000Y-116840000D01*
X207487000Y-134107300D02*
X208009700Y-134630000D01*
X207487000Y-121127000D02*
X207487000Y-134107300D01*
X203200000Y-116840000D02*
X207487000Y-121127000D01*
X209535000Y-134630000D02*
X208009700Y-134630000D01*
X209535000Y-132090000D02*
X208009700Y-132090000D01*
X208009700Y-117110300D02*
X208009700Y-132090000D01*
X208280000Y-116840000D02*
X208009700Y-117110300D01*
X202704000Y-128280000D02*
X205961300Y-131537300D01*
X190500000Y-116840000D02*
X190500000Y-117960600D01*
X205961300Y-131537300D02*
X205961300Y-137661600D01*
X190500000Y-117960600D02*
X200819400Y-128280000D01*
X205961300Y-137661600D02*
X208009700Y-139710000D01*
X209535000Y-139710000D02*
X208009700Y-139710000D01*
X200819400Y-128280000D02*
X202704000Y-128280000D01*
X211060300Y-124470000D02*
X211060300Y-119139700D01*
X211060300Y-119139700D02*
X213360000Y-116840000D01*
X209535000Y-124470000D02*
X211060300Y-124470000D01*
X213350000Y-127010000D02*
X209535000Y-127010000D01*
X223520000Y-116840000D02*
X213350000Y-127010000D01*
X215890000Y-129550000D02*
X209535000Y-129550000D01*
X228600000Y-116840000D02*
X215890000Y-129550000D01*
X255819600Y-131639900D02*
X258809700Y-134630000D01*
X255819600Y-121199600D02*
X255819600Y-131639900D01*
X260335000Y-134630000D02*
X258809700Y-134630000D01*
X251460000Y-116840000D02*
X255819600Y-121199600D01*
X256540000Y-129820300D02*
X256540000Y-116840000D01*
X260335000Y-132090000D02*
X258809700Y-132090000D01*
X258809700Y-132090000D02*
X256540000Y-129820300D01*
X261860300Y-121930000D02*
X261860300Y-121679700D01*
X260335000Y-121930000D02*
X261860300Y-121930000D01*
X261860300Y-121679700D02*
X266700000Y-116840000D01*
X260335000Y-127010000D02*
X261860300Y-127010000D01*
X261860300Y-126759700D02*
X261860300Y-127010000D01*
X271780000Y-116840000D02*
X261860300Y-126759700D01*
X264150000Y-129550000D02*
X260335000Y-129550000D01*
X276860000Y-116840000D02*
X264150000Y-129550000D01*
X149860000Y-187960000D02*
X149860000Y-185420000D01*
X149860000Y-185420000D02*
X144780000Y-180340000D01*
X169700000Y-187960000D02*
X162080000Y-180340000D01*
X162080000Y-180340000D02*
X157480000Y-180340000D01*
M02*
