G04 #@! TF.GenerationSoftware,KiCad,Pcbnew,(6.0.4)*
G04 #@! TF.CreationDate,2022-04-26T08:41:27+02:00*
G04 #@! TF.ProjectId,Kniffel_V1,4b6e6966-6665-46c5-9f56-312e6b696361,rev?*
G04 #@! TF.SameCoordinates,Original*
G04 #@! TF.FileFunction,Legend,Bot*
G04 #@! TF.FilePolarity,Positive*
%FSLAX46Y46*%
G04 Gerber Fmt 4.6, Leading zero omitted, Abs format (unit mm)*
G04 Created by KiCad (PCBNEW (6.0.4)) date 2022-04-26 08:41:27*
%MOMM*%
%LPD*%
G01*
G04 APERTURE LIST*
G04 Aperture macros list*
%AMRoundRect*
0 Rectangle with rounded corners*
0 $1 Rounding radius*
0 $2 $3 $4 $5 $6 $7 $8 $9 X,Y pos of 4 corners*
0 Add a 4 corners polygon primitive as box body*
4,1,4,$2,$3,$4,$5,$6,$7,$8,$9,$2,$3,0*
0 Add four circle primitives for the rounded corners*
1,1,$1+$1,$2,$3*
1,1,$1+$1,$4,$5*
1,1,$1+$1,$6,$7*
1,1,$1+$1,$8,$9*
0 Add four rect primitives between the rounded corners*
20,1,$1+$1,$2,$3,$4,$5,0*
20,1,$1+$1,$4,$5,$6,$7,0*
20,1,$1+$1,$6,$7,$8,$9,0*
20,1,$1+$1,$8,$9,$2,$3,0*%
G04 Aperture macros list end*
G04 #@! TA.AperFunction,Profile*
%ADD10C,0.100000*%
G04 #@! TD*
%ADD11C,0.150000*%
%ADD12C,0.254000*%
%ADD13C,0.120000*%
%ADD14C,0.100000*%
%ADD15C,0.200000*%
%ADD16C,1.600000*%
%ADD17O,1.600000X1.600000*%
%ADD18RoundRect,0.250002X-1.499998X-1.499998X1.499998X-1.499998X1.499998X1.499998X-1.499998X1.499998X0*%
%ADD19R,1.130000X1.130000*%
%ADD20C,1.130000*%
%ADD21RoundRect,0.250001X-0.799999X-0.799999X0.799999X-0.799999X0.799999X0.799999X-0.799999X0.799999X0*%
%ADD22C,2.100000*%
%ADD23R,2.400000X1.600000*%
%ADD24O,2.400000X1.600000*%
%ADD25R,2.200000X2.200000*%
%ADD26O,2.200000X2.200000*%
%ADD27R,1.600000X1.600000*%
%ADD28C,1.200000*%
%ADD29RoundRect,0.249999X-1.025001X-1.025001X1.025001X-1.025001X1.025001X1.025001X-1.025001X1.025001X0*%
%ADD30C,2.550000*%
%ADD31C,3.200000*%
%ADD32R,1.150000X1.150000*%
%ADD33C,1.150000*%
%ADD34R,1.500000X2.300000*%
%ADD35O,1.500000X2.300000*%
%ADD36R,1.275000X1.275000*%
%ADD37C,1.275000*%
%ADD38R,1.800000X1.800000*%
%ADD39C,1.800000*%
%ADD40R,1.500000X1.500000*%
%ADD41C,1.500000*%
G04 APERTURE END LIST*
D10*
X289560000Y-20320000D02*
X289560000Y-195580000D01*
X27940000Y-20320000D02*
X289560000Y-20320000D01*
X27940000Y-195580000D02*
X27940000Y-20320000D01*
X289560000Y-195580000D02*
X27940000Y-195580000D01*
X289560000Y-180340000D02*
X289560000Y-180340000D01*
D11*
X170124285Y-165132380D02*
X170124285Y-164132380D01*
X169886190Y-164132380D01*
X169743333Y-164180000D01*
X169648095Y-164275238D01*
X169600476Y-164370476D01*
X169552857Y-164560952D01*
X169552857Y-164703809D01*
X169600476Y-164894285D01*
X169648095Y-164989523D01*
X169743333Y-165084761D01*
X169886190Y-165132380D01*
X170124285Y-165132380D01*
X168600476Y-165132380D02*
X169171904Y-165132380D01*
X168886190Y-165132380D02*
X168886190Y-164132380D01*
X168981428Y-164275238D01*
X169076666Y-164370476D01*
X169171904Y-164418095D01*
X168124285Y-165132380D02*
X167933809Y-165132380D01*
X167838571Y-165084761D01*
X167790952Y-165037142D01*
X167695714Y-164894285D01*
X167648095Y-164703809D01*
X167648095Y-164322857D01*
X167695714Y-164227619D01*
X167743333Y-164180000D01*
X167838571Y-164132380D01*
X168029047Y-164132380D01*
X168124285Y-164180000D01*
X168171904Y-164227619D01*
X168219523Y-164322857D01*
X168219523Y-164560952D01*
X168171904Y-164656190D01*
X168124285Y-164703809D01*
X168029047Y-164751428D01*
X167838571Y-164751428D01*
X167743333Y-164703809D01*
X167695714Y-164656190D01*
X167648095Y-164560952D01*
X48426666Y-188582380D02*
X48760000Y-188106190D01*
X48998095Y-188582380D02*
X48998095Y-187582380D01*
X48617142Y-187582380D01*
X48521904Y-187630000D01*
X48474285Y-187677619D01*
X48426666Y-187772857D01*
X48426666Y-187915714D01*
X48474285Y-188010952D01*
X48521904Y-188058571D01*
X48617142Y-188106190D01*
X48998095Y-188106190D01*
X48045714Y-187677619D02*
X47998095Y-187630000D01*
X47902857Y-187582380D01*
X47664761Y-187582380D01*
X47569523Y-187630000D01*
X47521904Y-187677619D01*
X47474285Y-187772857D01*
X47474285Y-187868095D01*
X47521904Y-188010952D01*
X48093333Y-188582380D01*
X47474285Y-188582380D01*
X162504285Y-165132380D02*
X162504285Y-164132380D01*
X162266190Y-164132380D01*
X162123333Y-164180000D01*
X162028095Y-164275238D01*
X161980476Y-164370476D01*
X161932857Y-164560952D01*
X161932857Y-164703809D01*
X161980476Y-164894285D01*
X162028095Y-164989523D01*
X162123333Y-165084761D01*
X162266190Y-165132380D01*
X162504285Y-165132380D01*
X161551904Y-164227619D02*
X161504285Y-164180000D01*
X161409047Y-164132380D01*
X161170952Y-164132380D01*
X161075714Y-164180000D01*
X161028095Y-164227619D01*
X160980476Y-164322857D01*
X160980476Y-164418095D01*
X161028095Y-164560952D01*
X161599523Y-165132380D01*
X160980476Y-165132380D01*
X160361428Y-164132380D02*
X160266190Y-164132380D01*
X160170952Y-164180000D01*
X160123333Y-164227619D01*
X160075714Y-164322857D01*
X160028095Y-164513333D01*
X160028095Y-164751428D01*
X160075714Y-164941904D01*
X160123333Y-165037142D01*
X160170952Y-165084761D01*
X160266190Y-165132380D01*
X160361428Y-165132380D01*
X160456666Y-165084761D01*
X160504285Y-165037142D01*
X160551904Y-164941904D01*
X160599523Y-164751428D01*
X160599523Y-164513333D01*
X160551904Y-164322857D01*
X160504285Y-164227619D01*
X160456666Y-164180000D01*
X160361428Y-164132380D01*
D12*
X59962142Y-69154523D02*
X59962142Y-67884523D01*
X59659761Y-67884523D01*
X59478333Y-67945000D01*
X59357380Y-68065952D01*
X59296904Y-68186904D01*
X59236428Y-68428809D01*
X59236428Y-68610238D01*
X59296904Y-68852142D01*
X59357380Y-68973095D01*
X59478333Y-69094047D01*
X59659761Y-69154523D01*
X59962142Y-69154523D01*
X58752619Y-69094047D02*
X58571190Y-69154523D01*
X58268809Y-69154523D01*
X58147857Y-69094047D01*
X58087380Y-69033571D01*
X58026904Y-68912619D01*
X58026904Y-68791666D01*
X58087380Y-68670714D01*
X58147857Y-68610238D01*
X58268809Y-68549761D01*
X58510714Y-68489285D01*
X58631666Y-68428809D01*
X58692142Y-68368333D01*
X58752619Y-68247380D01*
X58752619Y-68126428D01*
X58692142Y-68005476D01*
X58631666Y-67945000D01*
X58510714Y-67884523D01*
X58208333Y-67884523D01*
X58026904Y-67945000D01*
X56817380Y-69154523D02*
X57543095Y-69154523D01*
X57180238Y-69154523D02*
X57180238Y-67884523D01*
X57301190Y-68065952D01*
X57422142Y-68186904D01*
X57543095Y-68247380D01*
D11*
X154884285Y-165132380D02*
X154884285Y-164132380D01*
X154646190Y-164132380D01*
X154503333Y-164180000D01*
X154408095Y-164275238D01*
X154360476Y-164370476D01*
X154312857Y-164560952D01*
X154312857Y-164703809D01*
X154360476Y-164894285D01*
X154408095Y-164989523D01*
X154503333Y-165084761D01*
X154646190Y-165132380D01*
X154884285Y-165132380D01*
X153931904Y-164227619D02*
X153884285Y-164180000D01*
X153789047Y-164132380D01*
X153550952Y-164132380D01*
X153455714Y-164180000D01*
X153408095Y-164227619D01*
X153360476Y-164322857D01*
X153360476Y-164418095D01*
X153408095Y-164560952D01*
X153979523Y-165132380D01*
X153360476Y-165132380D01*
X152408095Y-165132380D02*
X152979523Y-165132380D01*
X152693809Y-165132380D02*
X152693809Y-164132380D01*
X152789047Y-164275238D01*
X152884285Y-164370476D01*
X152979523Y-164418095D01*
D12*
X110762142Y-69154523D02*
X110762142Y-67884523D01*
X110459761Y-67884523D01*
X110278333Y-67945000D01*
X110157380Y-68065952D01*
X110096904Y-68186904D01*
X110036428Y-68428809D01*
X110036428Y-68610238D01*
X110096904Y-68852142D01*
X110157380Y-68973095D01*
X110278333Y-69094047D01*
X110459761Y-69154523D01*
X110762142Y-69154523D01*
X109552619Y-69094047D02*
X109371190Y-69154523D01*
X109068809Y-69154523D01*
X108947857Y-69094047D01*
X108887380Y-69033571D01*
X108826904Y-68912619D01*
X108826904Y-68791666D01*
X108887380Y-68670714D01*
X108947857Y-68610238D01*
X109068809Y-68549761D01*
X109310714Y-68489285D01*
X109431666Y-68428809D01*
X109492142Y-68368333D01*
X109552619Y-68247380D01*
X109552619Y-68126428D01*
X109492142Y-68005476D01*
X109431666Y-67945000D01*
X109310714Y-67884523D01*
X109008333Y-67884523D01*
X108826904Y-67945000D01*
X108343095Y-68005476D02*
X108282619Y-67945000D01*
X108161666Y-67884523D01*
X107859285Y-67884523D01*
X107738333Y-67945000D01*
X107677857Y-68005476D01*
X107617380Y-68126428D01*
X107617380Y-68247380D01*
X107677857Y-68428809D01*
X108403571Y-69154523D01*
X107617380Y-69154523D01*
X212362142Y-69154523D02*
X212362142Y-67884523D01*
X212059761Y-67884523D01*
X211878333Y-67945000D01*
X211757380Y-68065952D01*
X211696904Y-68186904D01*
X211636428Y-68428809D01*
X211636428Y-68610238D01*
X211696904Y-68852142D01*
X211757380Y-68973095D01*
X211878333Y-69094047D01*
X212059761Y-69154523D01*
X212362142Y-69154523D01*
X211152619Y-69094047D02*
X210971190Y-69154523D01*
X210668809Y-69154523D01*
X210547857Y-69094047D01*
X210487380Y-69033571D01*
X210426904Y-68912619D01*
X210426904Y-68791666D01*
X210487380Y-68670714D01*
X210547857Y-68610238D01*
X210668809Y-68549761D01*
X210910714Y-68489285D01*
X211031666Y-68428809D01*
X211092142Y-68368333D01*
X211152619Y-68247380D01*
X211152619Y-68126428D01*
X211092142Y-68005476D01*
X211031666Y-67945000D01*
X210910714Y-67884523D01*
X210608333Y-67884523D01*
X210426904Y-67945000D01*
X209338333Y-68307857D02*
X209338333Y-69154523D01*
X209640714Y-67824047D02*
X209943095Y-68731190D01*
X209156904Y-68731190D01*
X263162142Y-69154523D02*
X263162142Y-67884523D01*
X262859761Y-67884523D01*
X262678333Y-67945000D01*
X262557380Y-68065952D01*
X262496904Y-68186904D01*
X262436428Y-68428809D01*
X262436428Y-68610238D01*
X262496904Y-68852142D01*
X262557380Y-68973095D01*
X262678333Y-69094047D01*
X262859761Y-69154523D01*
X263162142Y-69154523D01*
X261952619Y-69094047D02*
X261771190Y-69154523D01*
X261468809Y-69154523D01*
X261347857Y-69094047D01*
X261287380Y-69033571D01*
X261226904Y-68912619D01*
X261226904Y-68791666D01*
X261287380Y-68670714D01*
X261347857Y-68610238D01*
X261468809Y-68549761D01*
X261710714Y-68489285D01*
X261831666Y-68428809D01*
X261892142Y-68368333D01*
X261952619Y-68247380D01*
X261952619Y-68126428D01*
X261892142Y-68005476D01*
X261831666Y-67945000D01*
X261710714Y-67884523D01*
X261408333Y-67884523D01*
X261226904Y-67945000D01*
X260077857Y-67884523D02*
X260682619Y-67884523D01*
X260743095Y-68489285D01*
X260682619Y-68428809D01*
X260561666Y-68368333D01*
X260259285Y-68368333D01*
X260138333Y-68428809D01*
X260077857Y-68489285D01*
X260017380Y-68610238D01*
X260017380Y-68912619D01*
X260077857Y-69033571D01*
X260138333Y-69094047D01*
X260259285Y-69154523D01*
X260561666Y-69154523D01*
X260682619Y-69094047D01*
X260743095Y-69033571D01*
X161562142Y-69154523D02*
X161562142Y-67884523D01*
X161259761Y-67884523D01*
X161078333Y-67945000D01*
X160957380Y-68065952D01*
X160896904Y-68186904D01*
X160836428Y-68428809D01*
X160836428Y-68610238D01*
X160896904Y-68852142D01*
X160957380Y-68973095D01*
X161078333Y-69094047D01*
X161259761Y-69154523D01*
X161562142Y-69154523D01*
X160352619Y-69094047D02*
X160171190Y-69154523D01*
X159868809Y-69154523D01*
X159747857Y-69094047D01*
X159687380Y-69033571D01*
X159626904Y-68912619D01*
X159626904Y-68791666D01*
X159687380Y-68670714D01*
X159747857Y-68610238D01*
X159868809Y-68549761D01*
X160110714Y-68489285D01*
X160231666Y-68428809D01*
X160292142Y-68368333D01*
X160352619Y-68247380D01*
X160352619Y-68126428D01*
X160292142Y-68005476D01*
X160231666Y-67945000D01*
X160110714Y-67884523D01*
X159808333Y-67884523D01*
X159626904Y-67945000D01*
X159203571Y-67884523D02*
X158417380Y-67884523D01*
X158840714Y-68368333D01*
X158659285Y-68368333D01*
X158538333Y-68428809D01*
X158477857Y-68489285D01*
X158417380Y-68610238D01*
X158417380Y-68912619D01*
X158477857Y-69033571D01*
X158538333Y-69094047D01*
X158659285Y-69154523D01*
X159022142Y-69154523D01*
X159143095Y-69094047D01*
X159203571Y-69033571D01*
D13*
X170470000Y-166404000D02*
X170470000Y-166560000D01*
X170470000Y-168720000D02*
X170470000Y-168876000D01*
X170470000Y-166404484D02*
G75*
G03*
X167237665Y-166561392I-1560000J-1235516D01*
G01*
X169950961Y-166560000D02*
G75*
G03*
X167868870Y-166560163I-1040961J-1080000D01*
G01*
X167237665Y-168718608D02*
G75*
G03*
X170470000Y-168875516I1672335J1078608D01*
G01*
X167868870Y-168719837D02*
G75*
G03*
X169950961Y-168720000I1041130J1079837D01*
G01*
X44990000Y-189130000D02*
X51530000Y-189130000D01*
X44990000Y-191870000D02*
X44990000Y-189130000D01*
X51530000Y-189130000D02*
X51530000Y-191870000D01*
X52300000Y-190500000D02*
X51530000Y-190500000D01*
X44220000Y-190500000D02*
X44990000Y-190500000D01*
X51530000Y-191870000D02*
X44990000Y-191870000D01*
X162850000Y-166404000D02*
X162850000Y-166560000D01*
X162850000Y-168720000D02*
X162850000Y-168876000D01*
X160248870Y-168719837D02*
G75*
G03*
X162330961Y-168720000I1041130J1079837D01*
G01*
X159617665Y-168718608D02*
G75*
G03*
X162850000Y-168875516I1672335J1078608D01*
G01*
X162850000Y-166404484D02*
G75*
G03*
X159617665Y-166561392I-1560000J-1235516D01*
G01*
X162330961Y-166560000D02*
G75*
G03*
X160248870Y-166560163I-1040961J-1080000D01*
G01*
D14*
X63500000Y-104030000D02*
X63500000Y-104030000D01*
D15*
X82420000Y-33580000D02*
X82420000Y-103580000D01*
X34420000Y-33580000D02*
X82420000Y-33580000D01*
X82420000Y-103580000D02*
X34420000Y-103580000D01*
X34420000Y-103580000D02*
X34420000Y-33580000D01*
D14*
X63500000Y-104130000D02*
X63500000Y-104130000D01*
X63500000Y-104130000D02*
G75*
G03*
X63500000Y-104030000I0J50000D01*
G01*
X63500000Y-104030000D02*
G75*
G03*
X63500000Y-104130000I0J-50000D01*
G01*
D13*
X155230000Y-166404000D02*
X155230000Y-166560000D01*
X155230000Y-168720000D02*
X155230000Y-168876000D01*
X154710961Y-166560000D02*
G75*
G03*
X152628870Y-166560163I-1040961J-1080000D01*
G01*
X155230000Y-166404484D02*
G75*
G03*
X151997665Y-166561392I-1560000J-1235516D01*
G01*
X152628870Y-168719837D02*
G75*
G03*
X154710961Y-168720000I1041130J1079837D01*
G01*
X151997665Y-168718608D02*
G75*
G03*
X155230000Y-168875516I1672335J1078608D01*
G01*
D15*
X85220000Y-103580000D02*
X85220000Y-33580000D01*
X85220000Y-33580000D02*
X133220000Y-33580000D01*
X133220000Y-33580000D02*
X133220000Y-103580000D01*
D14*
X114300000Y-104030000D02*
X114300000Y-104030000D01*
X114300000Y-104130000D02*
X114300000Y-104130000D01*
D15*
X133220000Y-103580000D02*
X85220000Y-103580000D01*
D14*
X114300000Y-104130000D02*
G75*
G03*
X114300000Y-104030000I0J50000D01*
G01*
X114300000Y-104030000D02*
G75*
G03*
X114300000Y-104130000I0J-50000D01*
G01*
X215900000Y-104030000D02*
X215900000Y-104030000D01*
D15*
X234820000Y-103580000D02*
X186820000Y-103580000D01*
X234820000Y-33580000D02*
X234820000Y-103580000D01*
X186820000Y-103580000D02*
X186820000Y-33580000D01*
X186820000Y-33580000D02*
X234820000Y-33580000D01*
D14*
X215900000Y-104130000D02*
X215900000Y-104130000D01*
X215900000Y-104130000D02*
G75*
G03*
X215900000Y-104030000I0J50000D01*
G01*
X215900000Y-104030000D02*
G75*
G03*
X215900000Y-104130000I0J-50000D01*
G01*
D15*
X285620000Y-103580000D02*
X237620000Y-103580000D01*
D14*
X266700000Y-104130000D02*
X266700000Y-104130000D01*
D15*
X285620000Y-33580000D02*
X285620000Y-103580000D01*
X237620000Y-33580000D02*
X285620000Y-33580000D01*
D14*
X266700000Y-104030000D02*
X266700000Y-104030000D01*
D15*
X237620000Y-103580000D02*
X237620000Y-33580000D01*
D14*
X266700000Y-104030000D02*
G75*
G03*
X266700000Y-104130000I0J-50000D01*
G01*
X266700000Y-104130000D02*
G75*
G03*
X266700000Y-104030000I0J50000D01*
G01*
D15*
X136020000Y-33580000D02*
X184020000Y-33580000D01*
X184020000Y-103580000D02*
X136020000Y-103580000D01*
X136020000Y-103580000D02*
X136020000Y-33580000D01*
X184020000Y-33580000D02*
X184020000Y-103580000D01*
D14*
X165100000Y-104030000D02*
X165100000Y-104030000D01*
X165100000Y-104130000D02*
X165100000Y-104130000D01*
X165100000Y-104130000D02*
G75*
G03*
X165100000Y-104030000I0J50000D01*
G01*
X165100000Y-104030000D02*
G75*
G03*
X165100000Y-104130000I0J-50000D01*
G01*
%LPC*%
D16*
X152155000Y-60370000D03*
D17*
X162315000Y-60370000D03*
D16*
X66650000Y-64050000D03*
D17*
X76810000Y-64050000D03*
D16*
X93980000Y-116840000D03*
D17*
X93980000Y-106680000D03*
D18*
X238760000Y-170180000D03*
D16*
X185420000Y-134620000D03*
D17*
X195580000Y-134620000D03*
D16*
X106680000Y-116840000D03*
D17*
X106680000Y-106680000D03*
D19*
X87470000Y-123190000D03*
D20*
X87470000Y-125730000D03*
X87470000Y-128270000D03*
X87470000Y-130810000D03*
X87470000Y-133350000D03*
X87470000Y-135890000D03*
X87470000Y-138430000D03*
X87470000Y-140970000D03*
X95410000Y-140970000D03*
X95410000Y-138430000D03*
X95410000Y-135890000D03*
X95410000Y-133350000D03*
X95410000Y-130810000D03*
X95410000Y-128270000D03*
X95410000Y-125730000D03*
X95410000Y-123190000D03*
D21*
X141305000Y-89570000D03*
D22*
X145905000Y-89570000D03*
D16*
X101600000Y-157480000D03*
D17*
X101600000Y-147320000D03*
D23*
X100315000Y-121930000D03*
D24*
X100315000Y-124470000D03*
X100315000Y-127010000D03*
X100315000Y-129550000D03*
X100315000Y-132090000D03*
X100315000Y-134630000D03*
X100315000Y-137170000D03*
X100315000Y-139710000D03*
X100315000Y-142250000D03*
X107935000Y-142250000D03*
X107935000Y-139710000D03*
X107935000Y-137170000D03*
X107935000Y-134630000D03*
X107935000Y-132090000D03*
X107935000Y-129550000D03*
X107935000Y-127010000D03*
X107935000Y-124470000D03*
X107935000Y-121930000D03*
D21*
X141305000Y-79410000D03*
D22*
X145905000Y-79410000D03*
D16*
X266700000Y-134620000D03*
D17*
X266700000Y-124460000D03*
D16*
X58420000Y-157480000D03*
D17*
X68580000Y-157480000D03*
D16*
X147320000Y-177800000D03*
D17*
X157480000Y-177800000D03*
D16*
X53340000Y-76200000D03*
D17*
X63500000Y-76200000D03*
D16*
X103895000Y-62430000D03*
D17*
X114055000Y-62430000D03*
D16*
X165100000Y-137160000D03*
D17*
X165100000Y-127000000D03*
D16*
X66040000Y-116840000D03*
D17*
X66040000Y-106680000D03*
D16*
X215900000Y-134620000D03*
D17*
X215900000Y-124460000D03*
D16*
X58420000Y-149860000D03*
D17*
X68580000Y-149860000D03*
D25*
X114300000Y-182880000D03*
D26*
X124460000Y-182880000D03*
D19*
X130810000Y-115730000D03*
D20*
X133350000Y-115730000D03*
X135890000Y-115730000D03*
X138430000Y-115730000D03*
X140970000Y-115730000D03*
X143510000Y-115730000D03*
X146050000Y-115730000D03*
X148590000Y-115730000D03*
X148590000Y-107790000D03*
X146050000Y-107790000D03*
X143510000Y-107790000D03*
X140970000Y-107790000D03*
X138430000Y-107790000D03*
X135890000Y-107790000D03*
X133350000Y-107790000D03*
X130810000Y-107790000D03*
D27*
X120660000Y-148600000D03*
D17*
X120660000Y-151140000D03*
X120660000Y-153680000D03*
X120660000Y-156220000D03*
X128280000Y-156220000D03*
X128280000Y-153680000D03*
X128280000Y-151140000D03*
X128280000Y-148600000D03*
D28*
X66040000Y-167640000D03*
X71040000Y-167640000D03*
D25*
X200660000Y-124460000D03*
D26*
X210820000Y-124460000D03*
D19*
X232410000Y-115730000D03*
D20*
X234950000Y-115730000D03*
X237490000Y-115730000D03*
X240030000Y-115730000D03*
X242570000Y-115730000D03*
X245110000Y-115730000D03*
X247650000Y-115730000D03*
X250190000Y-115730000D03*
X250190000Y-107790000D03*
X247650000Y-107790000D03*
X245110000Y-107790000D03*
X242570000Y-107790000D03*
X240030000Y-107790000D03*
X237490000Y-107790000D03*
X234950000Y-107790000D03*
X232410000Y-107790000D03*
D16*
X152155000Y-56320000D03*
D17*
X162315000Y-56320000D03*
D25*
X256540000Y-162560000D03*
D26*
X246380000Y-162560000D03*
D19*
X31590000Y-123190000D03*
D20*
X31590000Y-125730000D03*
X31590000Y-128270000D03*
X31590000Y-130810000D03*
X31590000Y-133350000D03*
X31590000Y-135890000D03*
X31590000Y-138430000D03*
X31590000Y-140970000D03*
X39530000Y-140970000D03*
X39530000Y-138430000D03*
X39530000Y-135890000D03*
X39530000Y-133350000D03*
X39530000Y-130810000D03*
X39530000Y-128270000D03*
X39530000Y-125730000D03*
X39530000Y-123190000D03*
D25*
X30480000Y-160020000D03*
D26*
X40640000Y-160020000D03*
D27*
X186700000Y-120660000D03*
D17*
X186700000Y-123200000D03*
X186700000Y-125740000D03*
X186700000Y-128280000D03*
X194320000Y-128280000D03*
X194320000Y-125740000D03*
X194320000Y-123200000D03*
X194320000Y-120660000D03*
D29*
X274880000Y-175260000D03*
D30*
X279680000Y-175260000D03*
X284480000Y-175260000D03*
D28*
X271780000Y-152400000D03*
X276780000Y-152400000D03*
D31*
X33020000Y-182880000D03*
D16*
X50800000Y-116840000D03*
D17*
X50800000Y-106680000D03*
D25*
X149860000Y-137160000D03*
D26*
X160020000Y-137160000D03*
D19*
X82550000Y-171610000D03*
D20*
X85090000Y-171610000D03*
X87630000Y-171610000D03*
X90170000Y-171610000D03*
X92710000Y-171610000D03*
X95250000Y-171610000D03*
X97790000Y-171610000D03*
X100330000Y-171610000D03*
X100330000Y-163670000D03*
X97790000Y-163670000D03*
X95250000Y-163670000D03*
X92710000Y-163670000D03*
X90170000Y-163670000D03*
X87630000Y-163670000D03*
X85090000Y-163670000D03*
X82550000Y-163670000D03*
D25*
X83820000Y-157480000D03*
D26*
X93980000Y-157480000D03*
D16*
X101600000Y-116840000D03*
D17*
X101600000Y-106680000D03*
D23*
X140955000Y-48270000D03*
D24*
X140955000Y-50810000D03*
X140955000Y-53350000D03*
X140955000Y-55890000D03*
X140955000Y-58430000D03*
X140955000Y-60970000D03*
X140955000Y-63510000D03*
X140955000Y-66050000D03*
X140955000Y-68590000D03*
X148575000Y-68590000D03*
X148575000Y-66050000D03*
X148575000Y-63510000D03*
X148575000Y-60970000D03*
X148575000Y-58430000D03*
X148575000Y-55890000D03*
X148575000Y-53350000D03*
X148575000Y-50810000D03*
X148575000Y-48270000D03*
D16*
X121920000Y-134620000D03*
D17*
X121920000Y-124460000D03*
D16*
X116840000Y-116840000D03*
D17*
X116840000Y-106680000D03*
D31*
X284480000Y-182880000D03*
D19*
X171290000Y-123190000D03*
D20*
X171290000Y-125730000D03*
X171290000Y-128270000D03*
X171290000Y-130810000D03*
X171290000Y-133350000D03*
X171290000Y-135890000D03*
X171290000Y-138430000D03*
X171290000Y-140970000D03*
X179230000Y-140970000D03*
X179230000Y-138430000D03*
X179230000Y-135890000D03*
X179230000Y-133350000D03*
X179230000Y-130810000D03*
X179230000Y-128270000D03*
X179230000Y-125730000D03*
X179230000Y-123190000D03*
D16*
X66650000Y-68100000D03*
D17*
X76810000Y-68100000D03*
D16*
X172720000Y-116840000D03*
D17*
X172720000Y-106680000D03*
D16*
X116840000Y-134620000D03*
D17*
X116840000Y-124460000D03*
D16*
X103895000Y-70530000D03*
D17*
X114055000Y-70530000D03*
D16*
X165465000Y-56320000D03*
D17*
X175625000Y-56320000D03*
D16*
X103895000Y-66480000D03*
D17*
X114055000Y-66480000D03*
D16*
X117205000Y-66480000D03*
D17*
X127365000Y-66480000D03*
D25*
X251460000Y-134620000D03*
D26*
X261620000Y-134620000D03*
D23*
X92695000Y-58430000D03*
D24*
X92695000Y-60970000D03*
X92695000Y-63510000D03*
X92695000Y-66050000D03*
X92695000Y-68590000D03*
X92695000Y-71130000D03*
X92695000Y-73670000D03*
X92695000Y-76210000D03*
X92695000Y-78750000D03*
X100315000Y-78750000D03*
X100315000Y-76210000D03*
X100315000Y-73670000D03*
X100315000Y-71130000D03*
X100315000Y-68590000D03*
X100315000Y-66050000D03*
X100315000Y-63510000D03*
X100315000Y-60970000D03*
X100315000Y-58430000D03*
D18*
X238760000Y-177800000D03*
D32*
X264160000Y-165100000D03*
D33*
X266160000Y-165100000D03*
D16*
X103895000Y-58380000D03*
D17*
X114055000Y-58380000D03*
D16*
X165465000Y-52270000D03*
D17*
X175625000Y-52270000D03*
D32*
X55880000Y-167640000D03*
D33*
X57880000Y-167640000D03*
D16*
X152155000Y-52270000D03*
D17*
X162315000Y-52270000D03*
D16*
X160020000Y-177800000D03*
D17*
X170180000Y-177800000D03*
D27*
X58450000Y-176530000D03*
D16*
X55910000Y-176530000D03*
X53370000Y-176530000D03*
X50830000Y-176530000D03*
X48290000Y-176530000D03*
X45750000Y-176530000D03*
X43210000Y-176530000D03*
X43210000Y-184150000D03*
X45750000Y-184150000D03*
X48290000Y-184150000D03*
X50830000Y-184150000D03*
X53370000Y-184150000D03*
X55910000Y-184150000D03*
X58450000Y-184150000D03*
X117205000Y-62430000D03*
D17*
X127365000Y-62430000D03*
D25*
X149860000Y-127000000D03*
D26*
X160020000Y-127000000D03*
D27*
X90185000Y-184140000D03*
D17*
X92725000Y-184140000D03*
X95265000Y-184140000D03*
X97805000Y-184140000D03*
X100345000Y-184140000D03*
X102885000Y-184140000D03*
X105425000Y-184140000D03*
X107965000Y-184140000D03*
X107965000Y-176520000D03*
X105425000Y-176520000D03*
X102885000Y-176520000D03*
X100345000Y-176520000D03*
X97805000Y-176520000D03*
X95265000Y-176520000D03*
X92725000Y-176520000D03*
X90185000Y-176520000D03*
D16*
X134620000Y-165100000D03*
D17*
X144780000Y-165100000D03*
D25*
X83820000Y-152400000D03*
D26*
X93980000Y-152400000D03*
D16*
X274320000Y-124460000D03*
D17*
X274320000Y-134620000D03*
D31*
X33020000Y-25400000D03*
D16*
X33020000Y-116840000D03*
D17*
X33020000Y-106680000D03*
D25*
X200660000Y-134620000D03*
D26*
X210820000Y-134620000D03*
D16*
X220980000Y-177800000D03*
D17*
X231140000Y-177800000D03*
D27*
X59700000Y-135900000D03*
D17*
X59700000Y-138440000D03*
X59700000Y-140980000D03*
X59700000Y-143520000D03*
X67320000Y-143520000D03*
X67320000Y-140980000D03*
X67320000Y-138440000D03*
X67320000Y-135900000D03*
D25*
X30480000Y-154940000D03*
D26*
X40640000Y-154940000D03*
D19*
X31750000Y-171610000D03*
D20*
X34290000Y-171610000D03*
X36830000Y-171610000D03*
X39370000Y-171610000D03*
X41910000Y-171610000D03*
X44450000Y-171610000D03*
X46990000Y-171610000D03*
X49530000Y-171610000D03*
X49530000Y-163670000D03*
X46990000Y-163670000D03*
X44450000Y-163670000D03*
X41910000Y-163670000D03*
X39370000Y-163670000D03*
X36830000Y-163670000D03*
X34290000Y-163670000D03*
X31750000Y-163670000D03*
D16*
X60960000Y-116840000D03*
D17*
X60960000Y-106680000D03*
D16*
X134620000Y-160020000D03*
D17*
X144780000Y-160020000D03*
D32*
X210820000Y-149860000D03*
D33*
X212820000Y-149860000D03*
D16*
X281940000Y-124460000D03*
D17*
X281940000Y-134620000D03*
D32*
X261620000Y-152400000D03*
D33*
X263620000Y-152400000D03*
D16*
X53340000Y-80250000D03*
D17*
X63500000Y-80250000D03*
D16*
X58420000Y-132080000D03*
D17*
X58420000Y-121920000D03*
D16*
X53340000Y-72150000D03*
D17*
X63500000Y-72150000D03*
D16*
X177800000Y-116840000D03*
D17*
X177800000Y-106680000D03*
D23*
X41285000Y-61570000D03*
D24*
X41285000Y-64110000D03*
X41285000Y-66650000D03*
X41285000Y-69190000D03*
X41285000Y-71730000D03*
X41285000Y-74270000D03*
X41285000Y-76810000D03*
X41285000Y-79350000D03*
X41285000Y-81890000D03*
X48905000Y-81890000D03*
X48905000Y-79350000D03*
X48905000Y-76810000D03*
X48905000Y-74270000D03*
X48905000Y-71730000D03*
X48905000Y-69190000D03*
X48905000Y-66650000D03*
X48905000Y-64110000D03*
X48905000Y-61570000D03*
D16*
X281940000Y-109220000D03*
D17*
X281940000Y-119380000D03*
D16*
X40640000Y-116840000D03*
D17*
X40640000Y-106680000D03*
D16*
X172720000Y-185420000D03*
D17*
X172720000Y-175260000D03*
D16*
X111760000Y-116840000D03*
D17*
X111760000Y-106680000D03*
D19*
X186690000Y-153830000D03*
D20*
X189230000Y-153830000D03*
X191770000Y-153830000D03*
X194310000Y-153830000D03*
X196850000Y-153830000D03*
X199390000Y-153830000D03*
X201930000Y-153830000D03*
X204470000Y-153830000D03*
X204470000Y-145890000D03*
X201930000Y-145890000D03*
X199390000Y-145890000D03*
X196850000Y-145890000D03*
X194310000Y-145890000D03*
X191770000Y-145890000D03*
X189230000Y-145890000D03*
X186690000Y-145890000D03*
D19*
X212090000Y-171610000D03*
D20*
X214630000Y-171610000D03*
X217170000Y-171610000D03*
X219710000Y-171610000D03*
X222250000Y-171610000D03*
X224790000Y-171610000D03*
X227330000Y-171610000D03*
X229870000Y-171610000D03*
X229870000Y-163670000D03*
X227330000Y-163670000D03*
X224790000Y-163670000D03*
X222250000Y-163670000D03*
X219710000Y-163670000D03*
X217170000Y-163670000D03*
X214630000Y-163670000D03*
X212090000Y-163670000D03*
D34*
X274320000Y-162560000D03*
D35*
X276860000Y-162560000D03*
X279400000Y-162560000D03*
D25*
X251460000Y-129540000D03*
D26*
X261620000Y-129540000D03*
D21*
X262100000Y-175260000D03*
D22*
X266700000Y-175260000D03*
D19*
X181610000Y-115730000D03*
D20*
X184150000Y-115730000D03*
X186690000Y-115730000D03*
X189230000Y-115730000D03*
X191770000Y-115730000D03*
X194310000Y-115730000D03*
X196850000Y-115730000D03*
X199390000Y-115730000D03*
X199390000Y-107790000D03*
X196850000Y-107790000D03*
X194310000Y-107790000D03*
X191770000Y-107790000D03*
X189230000Y-107790000D03*
X186690000Y-107790000D03*
X184150000Y-107790000D03*
X181610000Y-107790000D03*
D27*
X237500000Y-120660000D03*
D17*
X237500000Y-123200000D03*
X237500000Y-125740000D03*
X237500000Y-128280000D03*
X245120000Y-128280000D03*
X245120000Y-125740000D03*
X245120000Y-123200000D03*
X245120000Y-120660000D03*
D27*
X66010000Y-184150000D03*
D16*
X68550000Y-184150000D03*
X71090000Y-184150000D03*
X73630000Y-184150000D03*
X76170000Y-184150000D03*
X78710000Y-184150000D03*
X81250000Y-184150000D03*
X81250000Y-176530000D03*
X78710000Y-176530000D03*
X76170000Y-176530000D03*
X73630000Y-176530000D03*
X71090000Y-176530000D03*
X68550000Y-176530000D03*
X66010000Y-176530000D03*
D28*
X121920000Y-165100000D03*
X126920000Y-165100000D03*
D25*
X30480000Y-149860000D03*
D26*
X40640000Y-149860000D03*
D16*
X53340000Y-149860000D03*
D17*
X53340000Y-160020000D03*
D28*
X170180000Y-149860000D03*
X175180000Y-149860000D03*
D16*
X45720000Y-116840000D03*
D17*
X45720000Y-106680000D03*
D16*
X236220000Y-134620000D03*
D17*
X246380000Y-134620000D03*
D32*
X160560000Y-149860000D03*
D33*
X162560000Y-149860000D03*
D25*
X251460000Y-124460000D03*
D26*
X261620000Y-124460000D03*
D16*
X134620000Y-170180000D03*
D17*
X144780000Y-170180000D03*
D27*
X205770000Y-166370000D03*
D16*
X203230000Y-166370000D03*
X200690000Y-166370000D03*
X198150000Y-166370000D03*
X195610000Y-166370000D03*
X193070000Y-166370000D03*
X190530000Y-166370000D03*
X190530000Y-173990000D03*
X193070000Y-173990000D03*
X195610000Y-173990000D03*
X198150000Y-173990000D03*
X200690000Y-173990000D03*
X203230000Y-173990000D03*
X205770000Y-173990000D03*
X53340000Y-68100000D03*
D17*
X63500000Y-68100000D03*
D19*
X72230000Y-120650000D03*
D20*
X72230000Y-123190000D03*
X72230000Y-125730000D03*
X72230000Y-128270000D03*
X72230000Y-130810000D03*
X72230000Y-133350000D03*
X72230000Y-135890000D03*
X72230000Y-138430000D03*
X80170000Y-138430000D03*
X80170000Y-135890000D03*
X80170000Y-133350000D03*
X80170000Y-130810000D03*
X80170000Y-128270000D03*
X80170000Y-125730000D03*
X80170000Y-123190000D03*
X80170000Y-120650000D03*
D16*
X236220000Y-139700000D03*
D17*
X246380000Y-139700000D03*
D32*
X109220000Y-165100000D03*
D33*
X111220000Y-165100000D03*
D16*
X66650000Y-72150000D03*
D17*
X76810000Y-72150000D03*
D25*
X83820000Y-147320000D03*
D26*
X93980000Y-147320000D03*
D16*
X63500000Y-132080000D03*
D17*
X63500000Y-121920000D03*
D16*
X231140000Y-134620000D03*
D17*
X231140000Y-124460000D03*
D16*
X223520000Y-134620000D03*
D17*
X223520000Y-124460000D03*
D25*
X200660000Y-129540000D03*
D26*
X210820000Y-129540000D03*
D16*
X117205000Y-58380000D03*
D17*
X127365000Y-58380000D03*
D36*
X248920000Y-172720000D03*
D37*
X253920000Y-172720000D03*
D16*
X127000000Y-132080000D03*
D17*
X127000000Y-142240000D03*
D16*
X165465000Y-48220000D03*
D17*
X175625000Y-48220000D03*
D16*
X55880000Y-116840000D03*
D17*
X55880000Y-106680000D03*
D28*
X220980000Y-149860000D03*
X225980000Y-149860000D03*
D16*
X53340000Y-64050000D03*
D17*
X63500000Y-64050000D03*
D16*
X134620000Y-134620000D03*
D17*
X144780000Y-134620000D03*
D16*
X185420000Y-139700000D03*
D17*
X195580000Y-139700000D03*
D16*
X134620000Y-139700000D03*
D17*
X144780000Y-139700000D03*
D25*
X149860000Y-132080000D03*
D26*
X160020000Y-132080000D03*
D19*
X237490000Y-156370000D03*
D20*
X240030000Y-156370000D03*
X242570000Y-156370000D03*
X245110000Y-156370000D03*
X247650000Y-156370000D03*
X250190000Y-156370000D03*
X252730000Y-156370000D03*
X255270000Y-156370000D03*
X255270000Y-148430000D03*
X252730000Y-148430000D03*
X250190000Y-148430000D03*
X247650000Y-148430000D03*
X245110000Y-148430000D03*
X242570000Y-148430000D03*
X240030000Y-148430000D03*
X237490000Y-148430000D03*
D23*
X44435000Y-121930000D03*
D24*
X44435000Y-124470000D03*
X44435000Y-127010000D03*
X44435000Y-129550000D03*
X44435000Y-132090000D03*
X44435000Y-134630000D03*
X44435000Y-137170000D03*
X44435000Y-139710000D03*
X44435000Y-142250000D03*
X52055000Y-142250000D03*
X52055000Y-139710000D03*
X52055000Y-137170000D03*
X52055000Y-134630000D03*
X52055000Y-132090000D03*
X52055000Y-129550000D03*
X52055000Y-127010000D03*
X52055000Y-124470000D03*
X52055000Y-121930000D03*
D16*
X152155000Y-48220000D03*
D17*
X162315000Y-48220000D03*
D31*
X284480000Y-25400000D03*
D16*
X103895000Y-74580000D03*
D17*
X114055000Y-74580000D03*
D19*
X135890000Y-153830000D03*
D20*
X138430000Y-153830000D03*
X140970000Y-153830000D03*
X143510000Y-153830000D03*
X146050000Y-153830000D03*
X148590000Y-153830000D03*
X151130000Y-153830000D03*
X153670000Y-153830000D03*
X153670000Y-145890000D03*
X151130000Y-145890000D03*
X148590000Y-145890000D03*
X146050000Y-145890000D03*
X143510000Y-145890000D03*
X140970000Y-145890000D03*
X138430000Y-145890000D03*
X135890000Y-145890000D03*
D25*
X114300000Y-177800000D03*
D26*
X124460000Y-177800000D03*
D27*
X135900000Y-120660000D03*
D17*
X135900000Y-123200000D03*
X135900000Y-125740000D03*
X135900000Y-128280000D03*
X143520000Y-128280000D03*
X143520000Y-125740000D03*
X143520000Y-123200000D03*
X143520000Y-120660000D03*
D16*
X152155000Y-64420000D03*
D17*
X162315000Y-64420000D03*
D16*
X121920000Y-116840000D03*
D17*
X121920000Y-106680000D03*
D38*
X170180000Y-167640000D03*
D39*
X167640000Y-167640000D03*
D16*
X53340000Y-190500000D03*
D17*
X43180000Y-190500000D03*
D38*
X162560000Y-167640000D03*
D39*
X160020000Y-167640000D03*
D40*
X63500000Y-98630000D03*
D41*
X60960000Y-98630000D03*
X58420000Y-98630000D03*
X55880000Y-98630000D03*
X53340000Y-98630000D03*
X53340000Y-38530000D03*
X55880000Y-38530000D03*
X58420000Y-38530000D03*
X60960000Y-38530000D03*
X63500000Y-38530000D03*
D38*
X154940000Y-167640000D03*
D39*
X152400000Y-167640000D03*
D40*
X114300000Y-98630000D03*
D41*
X111760000Y-98630000D03*
X109220000Y-98630000D03*
X106680000Y-98630000D03*
X104140000Y-98630000D03*
X104140000Y-38530000D03*
X106680000Y-38530000D03*
X109220000Y-38530000D03*
X111760000Y-38530000D03*
X114300000Y-38530000D03*
D40*
X215900000Y-98630000D03*
D41*
X213360000Y-98630000D03*
X210820000Y-98630000D03*
X208280000Y-98630000D03*
X205740000Y-98630000D03*
X205740000Y-38530000D03*
X208280000Y-38530000D03*
X210820000Y-38530000D03*
X213360000Y-38530000D03*
X215900000Y-38530000D03*
D40*
X266700000Y-98630000D03*
D41*
X264160000Y-98630000D03*
X261620000Y-98630000D03*
X259080000Y-98630000D03*
X256540000Y-98630000D03*
X256540000Y-38530000D03*
X259080000Y-38530000D03*
X261620000Y-38530000D03*
X264160000Y-38530000D03*
X266700000Y-38530000D03*
D40*
X165100000Y-98630000D03*
D41*
X162560000Y-98630000D03*
X160020000Y-98630000D03*
X157480000Y-98630000D03*
X154940000Y-98630000D03*
X154940000Y-38530000D03*
X157480000Y-38530000D03*
X160020000Y-38530000D03*
X162560000Y-38530000D03*
X165100000Y-38530000D03*
M02*
