%FSLAX45Y45*%
G04 Gerber Fmt 4.5, Leading zero omitted, Abs format (unit mm)*
G04 Created by KiCad (PCBNEW (6.0.4)) date 2022-04-26 08:41:30*
%MOMM*%
%LPD*%
G01*
G04 APERTURE LIST*
%TA.AperFunction,Profile*%
%ADD10C,0.100000*%
%TD*%
%ADD11C,0.200000*%
%ADD12C,0.320000*%
G04 APERTURE END LIST*
D10*
X28956000Y-2032000D02*
X28956000Y-19558000D01*
X2794000Y-2032000D02*
X28956000Y-2032000D01*
X2794000Y-19558000D02*
X2794000Y-2032000D01*
X28956000Y-19558000D02*
X2794000Y-19558000D01*
X28956000Y-18034000D02*
X28956000Y-18034000D01*
D11*
D12*
X3142000Y-2380000D02*
X3462000Y-2700000D01*
X3462000Y-2380000D02*
X3142000Y-2700000D01*
X3142000Y-18128000D02*
X3462000Y-18448000D01*
X3462000Y-18128000D02*
X3142000Y-18448000D01*
X28288000Y-2380000D02*
X28608000Y-2700000D01*
X28608000Y-2380000D02*
X28288000Y-2700000D01*
X28288000Y-18128000D02*
X28608000Y-18448000D01*
X28608000Y-18128000D02*
X28288000Y-18448000D01*
D11*
X3046619Y-19873476D02*
X3046619Y-19673476D01*
X3094238Y-19673476D01*
X3122809Y-19683000D01*
X3141857Y-19702048D01*
X3151381Y-19721095D01*
X3160905Y-19759190D01*
X3160905Y-19787762D01*
X3151381Y-19825857D01*
X3141857Y-19844905D01*
X3122809Y-19863952D01*
X3094238Y-19873476D01*
X3046619Y-19873476D01*
X3246619Y-19873476D02*
X3246619Y-19740143D01*
X3246619Y-19778238D02*
X3256143Y-19759190D01*
X3265667Y-19749667D01*
X3284714Y-19740143D01*
X3303762Y-19740143D01*
X3370428Y-19873476D02*
X3370428Y-19740143D01*
X3370428Y-19673476D02*
X3360905Y-19683000D01*
X3370428Y-19692524D01*
X3379952Y-19683000D01*
X3370428Y-19673476D01*
X3370428Y-19692524D01*
X3494238Y-19873476D02*
X3475190Y-19863952D01*
X3465667Y-19844905D01*
X3465667Y-19673476D01*
X3599000Y-19873476D02*
X3579952Y-19863952D01*
X3570428Y-19844905D01*
X3570428Y-19673476D01*
X3827571Y-19873476D02*
X3827571Y-19673476D01*
X3894238Y-19816333D01*
X3960905Y-19673476D01*
X3960905Y-19873476D01*
X4141857Y-19873476D02*
X4141857Y-19768714D01*
X4132333Y-19749667D01*
X4113286Y-19740143D01*
X4075190Y-19740143D01*
X4056143Y-19749667D01*
X4141857Y-19863952D02*
X4122809Y-19873476D01*
X4075190Y-19873476D01*
X4056143Y-19863952D01*
X4046619Y-19844905D01*
X4046619Y-19825857D01*
X4056143Y-19806810D01*
X4075190Y-19797286D01*
X4122809Y-19797286D01*
X4141857Y-19787762D01*
X4237095Y-19740143D02*
X4237095Y-19940143D01*
X4237095Y-19749667D02*
X4256143Y-19740143D01*
X4294238Y-19740143D01*
X4313286Y-19749667D01*
X4322810Y-19759190D01*
X4332333Y-19778238D01*
X4332333Y-19835381D01*
X4322810Y-19854429D01*
X4313286Y-19863952D01*
X4294238Y-19873476D01*
X4256143Y-19873476D01*
X4237095Y-19863952D01*
X4418048Y-19854429D02*
X4427571Y-19863952D01*
X4418048Y-19873476D01*
X4408524Y-19863952D01*
X4418048Y-19854429D01*
X4418048Y-19873476D01*
X4418048Y-19749667D02*
X4427571Y-19759190D01*
X4418048Y-19768714D01*
X4408524Y-19759190D01*
X4418048Y-19749667D01*
X4418048Y-19768714D01*
X2589000Y-20103000D02*
X2789000Y-20303000D01*
X2789000Y-20103000D02*
X2589000Y-20303000D01*
X3027571Y-20093476D02*
X3151381Y-20093476D01*
X3084714Y-20169667D01*
X3113286Y-20169667D01*
X3132333Y-20179190D01*
X3141857Y-20188714D01*
X3151381Y-20207762D01*
X3151381Y-20255381D01*
X3141857Y-20274429D01*
X3132333Y-20283952D01*
X3113286Y-20293476D01*
X3056143Y-20293476D01*
X3037095Y-20283952D01*
X3027571Y-20274429D01*
X3237095Y-20274429D02*
X3246619Y-20283952D01*
X3237095Y-20293476D01*
X3227571Y-20283952D01*
X3237095Y-20274429D01*
X3237095Y-20293476D01*
X3322809Y-20112524D02*
X3332333Y-20103000D01*
X3351381Y-20093476D01*
X3399000Y-20093476D01*
X3418048Y-20103000D01*
X3427571Y-20112524D01*
X3437095Y-20131571D01*
X3437095Y-20150619D01*
X3427571Y-20179190D01*
X3313286Y-20293476D01*
X3437095Y-20293476D01*
X3560905Y-20093476D02*
X3579952Y-20093476D01*
X3599000Y-20103000D01*
X3608524Y-20112524D01*
X3618048Y-20131571D01*
X3627571Y-20169667D01*
X3627571Y-20217286D01*
X3618048Y-20255381D01*
X3608524Y-20274429D01*
X3599000Y-20283952D01*
X3579952Y-20293476D01*
X3560905Y-20293476D01*
X3541857Y-20283952D01*
X3532333Y-20274429D01*
X3522809Y-20255381D01*
X3513286Y-20217286D01*
X3513286Y-20169667D01*
X3522809Y-20131571D01*
X3532333Y-20112524D01*
X3541857Y-20103000D01*
X3560905Y-20093476D01*
X3751381Y-20093476D02*
X3770428Y-20093476D01*
X3789476Y-20103000D01*
X3799000Y-20112524D01*
X3808524Y-20131571D01*
X3818048Y-20169667D01*
X3818048Y-20217286D01*
X3808524Y-20255381D01*
X3799000Y-20274429D01*
X3789476Y-20283952D01*
X3770428Y-20293476D01*
X3751381Y-20293476D01*
X3732333Y-20283952D01*
X3722809Y-20274429D01*
X3713286Y-20255381D01*
X3703762Y-20217286D01*
X3703762Y-20169667D01*
X3713286Y-20131571D01*
X3722809Y-20112524D01*
X3732333Y-20103000D01*
X3751381Y-20093476D01*
X3903762Y-20293476D02*
X3903762Y-20160143D01*
X3903762Y-20179190D02*
X3913286Y-20169667D01*
X3932333Y-20160143D01*
X3960905Y-20160143D01*
X3979952Y-20169667D01*
X3989476Y-20188714D01*
X3989476Y-20293476D01*
X3989476Y-20188714D02*
X3999000Y-20169667D01*
X4018048Y-20160143D01*
X4046619Y-20160143D01*
X4065667Y-20169667D01*
X4075190Y-20188714D01*
X4075190Y-20293476D01*
X4170428Y-20293476D02*
X4170428Y-20160143D01*
X4170428Y-20179190D02*
X4179952Y-20169667D01*
X4199000Y-20160143D01*
X4227571Y-20160143D01*
X4246619Y-20169667D01*
X4256143Y-20188714D01*
X4256143Y-20293476D01*
X4256143Y-20188714D02*
X4265667Y-20169667D01*
X4284714Y-20160143D01*
X4313286Y-20160143D01*
X4332333Y-20169667D01*
X4341857Y-20188714D01*
X4341857Y-20293476D01*
X4732333Y-20083952D02*
X4560905Y-20341095D01*
X4989476Y-20093476D02*
X5008524Y-20093476D01*
X5027571Y-20103000D01*
X5037095Y-20112524D01*
X5046619Y-20131571D01*
X5056143Y-20169667D01*
X5056143Y-20217286D01*
X5046619Y-20255381D01*
X5037095Y-20274429D01*
X5027571Y-20283952D01*
X5008524Y-20293476D01*
X4989476Y-20293476D01*
X4970429Y-20283952D01*
X4960905Y-20274429D01*
X4951381Y-20255381D01*
X4941857Y-20217286D01*
X4941857Y-20169667D01*
X4951381Y-20131571D01*
X4960905Y-20112524D01*
X4970429Y-20103000D01*
X4989476Y-20093476D01*
X5141857Y-20274429D02*
X5151381Y-20283952D01*
X5141857Y-20293476D01*
X5132333Y-20283952D01*
X5141857Y-20274429D01*
X5141857Y-20293476D01*
X5341857Y-20293476D02*
X5227571Y-20293476D01*
X5284714Y-20293476D02*
X5284714Y-20093476D01*
X5265667Y-20122048D01*
X5246619Y-20141095D01*
X5227571Y-20150619D01*
X5418048Y-20112524D02*
X5427571Y-20103000D01*
X5446619Y-20093476D01*
X5494238Y-20093476D01*
X5513286Y-20103000D01*
X5522810Y-20112524D01*
X5532333Y-20131571D01*
X5532333Y-20150619D01*
X5522810Y-20179190D01*
X5408524Y-20293476D01*
X5532333Y-20293476D01*
X5703762Y-20093476D02*
X5665667Y-20093476D01*
X5646619Y-20103000D01*
X5637095Y-20112524D01*
X5618048Y-20141095D01*
X5608524Y-20179190D01*
X5608524Y-20255381D01*
X5618048Y-20274429D01*
X5627571Y-20283952D01*
X5646619Y-20293476D01*
X5684714Y-20293476D01*
X5703762Y-20283952D01*
X5713286Y-20274429D01*
X5722809Y-20255381D01*
X5722809Y-20207762D01*
X5713286Y-20188714D01*
X5703762Y-20179190D01*
X5684714Y-20169667D01*
X5646619Y-20169667D01*
X5627571Y-20179190D01*
X5618048Y-20188714D01*
X5608524Y-20207762D01*
X5846619Y-20093476D02*
X5865667Y-20093476D01*
X5884714Y-20103000D01*
X5894238Y-20112524D01*
X5903762Y-20131571D01*
X5913286Y-20169667D01*
X5913286Y-20217286D01*
X5903762Y-20255381D01*
X5894238Y-20274429D01*
X5884714Y-20283952D01*
X5865667Y-20293476D01*
X5846619Y-20293476D01*
X5827571Y-20283952D01*
X5818048Y-20274429D01*
X5808524Y-20255381D01*
X5799000Y-20217286D01*
X5799000Y-20169667D01*
X5808524Y-20131571D01*
X5818048Y-20112524D01*
X5827571Y-20103000D01*
X5846619Y-20093476D01*
X5989476Y-20093476D02*
X5989476Y-20131571D01*
X6065667Y-20093476D02*
X6065667Y-20131571D01*
X6360905Y-20369667D02*
X6351381Y-20360143D01*
X6332333Y-20331571D01*
X6322809Y-20312524D01*
X6313286Y-20283952D01*
X6303762Y-20236333D01*
X6303762Y-20198238D01*
X6313286Y-20150619D01*
X6322809Y-20122048D01*
X6332333Y-20103000D01*
X6351381Y-20074429D01*
X6360905Y-20064905D01*
X6522809Y-20160143D02*
X6522809Y-20293476D01*
X6475190Y-20083952D02*
X6427571Y-20226810D01*
X6551381Y-20226810D01*
X6779952Y-20293476D02*
X6779952Y-20093476D01*
X6865667Y-20293476D02*
X6865667Y-20188714D01*
X6856143Y-20169667D01*
X6837095Y-20160143D01*
X6808524Y-20160143D01*
X6789476Y-20169667D01*
X6779952Y-20179190D01*
X6989476Y-20293476D02*
X6970428Y-20283952D01*
X6960905Y-20274429D01*
X6951381Y-20255381D01*
X6951381Y-20198238D01*
X6960905Y-20179190D01*
X6970428Y-20169667D01*
X6989476Y-20160143D01*
X7018048Y-20160143D01*
X7037095Y-20169667D01*
X7046619Y-20179190D01*
X7056143Y-20198238D01*
X7056143Y-20255381D01*
X7046619Y-20274429D01*
X7037095Y-20283952D01*
X7018048Y-20293476D01*
X6989476Y-20293476D01*
X7170428Y-20293476D02*
X7151381Y-20283952D01*
X7141857Y-20264905D01*
X7141857Y-20093476D01*
X7322809Y-20283952D02*
X7303762Y-20293476D01*
X7265667Y-20293476D01*
X7246619Y-20283952D01*
X7237095Y-20264905D01*
X7237095Y-20188714D01*
X7246619Y-20169667D01*
X7265667Y-20160143D01*
X7303762Y-20160143D01*
X7322809Y-20169667D01*
X7332333Y-20188714D01*
X7332333Y-20207762D01*
X7237095Y-20226810D01*
X7408524Y-20283952D02*
X7427571Y-20293476D01*
X7465667Y-20293476D01*
X7484714Y-20283952D01*
X7494238Y-20264905D01*
X7494238Y-20255381D01*
X7484714Y-20236333D01*
X7465667Y-20226810D01*
X7437095Y-20226810D01*
X7418048Y-20217286D01*
X7408524Y-20198238D01*
X7408524Y-20188714D01*
X7418048Y-20169667D01*
X7437095Y-20160143D01*
X7465667Y-20160143D01*
X7484714Y-20169667D01*
X7560905Y-20369667D02*
X7570428Y-20360143D01*
X7589476Y-20331571D01*
X7599000Y-20312524D01*
X7608524Y-20283952D01*
X7618048Y-20236333D01*
X7618048Y-20198238D01*
X7608524Y-20150619D01*
X7599000Y-20122048D01*
X7589476Y-20103000D01*
X7570428Y-20074429D01*
X7560905Y-20064905D01*
X7922809Y-20369667D02*
X7913286Y-20360143D01*
X7894238Y-20331571D01*
X7884714Y-20312524D01*
X7875190Y-20283952D01*
X7865667Y-20236333D01*
X7865667Y-20198238D01*
X7875190Y-20150619D01*
X7884714Y-20122048D01*
X7894238Y-20103000D01*
X7913286Y-20074429D01*
X7922809Y-20064905D01*
X7999000Y-20160143D02*
X7999000Y-20293476D01*
X7999000Y-20179190D02*
X8008524Y-20169667D01*
X8027571Y-20160143D01*
X8056143Y-20160143D01*
X8075190Y-20169667D01*
X8084714Y-20188714D01*
X8084714Y-20293476D01*
X8208524Y-20293476D02*
X8189476Y-20283952D01*
X8179952Y-20274429D01*
X8170428Y-20255381D01*
X8170428Y-20198238D01*
X8179952Y-20179190D01*
X8189476Y-20169667D01*
X8208524Y-20160143D01*
X8237095Y-20160143D01*
X8256143Y-20169667D01*
X8265667Y-20179190D01*
X8275190Y-20198238D01*
X8275190Y-20255381D01*
X8265667Y-20274429D01*
X8256143Y-20283952D01*
X8237095Y-20293476D01*
X8208524Y-20293476D01*
X8332333Y-20160143D02*
X8408524Y-20160143D01*
X8360905Y-20093476D02*
X8360905Y-20264905D01*
X8370428Y-20283952D01*
X8389476Y-20293476D01*
X8408524Y-20293476D01*
X8627571Y-20160143D02*
X8627571Y-20360143D01*
X8627571Y-20169667D02*
X8646619Y-20160143D01*
X8684714Y-20160143D01*
X8703762Y-20169667D01*
X8713286Y-20179190D01*
X8722810Y-20198238D01*
X8722810Y-20255381D01*
X8713286Y-20274429D01*
X8703762Y-20283952D01*
X8684714Y-20293476D01*
X8646619Y-20293476D01*
X8627571Y-20283952D01*
X8837095Y-20293476D02*
X8818048Y-20283952D01*
X8808524Y-20264905D01*
X8808524Y-20093476D01*
X8999000Y-20293476D02*
X8999000Y-20188714D01*
X8989476Y-20169667D01*
X8970429Y-20160143D01*
X8932333Y-20160143D01*
X8913286Y-20169667D01*
X8999000Y-20283952D02*
X8979952Y-20293476D01*
X8932333Y-20293476D01*
X8913286Y-20283952D01*
X8903762Y-20264905D01*
X8903762Y-20245857D01*
X8913286Y-20226810D01*
X8932333Y-20217286D01*
X8979952Y-20217286D01*
X8999000Y-20207762D01*
X9065667Y-20160143D02*
X9141857Y-20160143D01*
X9094238Y-20093476D02*
X9094238Y-20264905D01*
X9103762Y-20283952D01*
X9122810Y-20293476D01*
X9141857Y-20293476D01*
X9284714Y-20283952D02*
X9265667Y-20293476D01*
X9227571Y-20293476D01*
X9208524Y-20283952D01*
X9199000Y-20264905D01*
X9199000Y-20188714D01*
X9208524Y-20169667D01*
X9227571Y-20160143D01*
X9265667Y-20160143D01*
X9284714Y-20169667D01*
X9294238Y-20188714D01*
X9294238Y-20207762D01*
X9199000Y-20226810D01*
X9465667Y-20293476D02*
X9465667Y-20093476D01*
X9465667Y-20283952D02*
X9446619Y-20293476D01*
X9408524Y-20293476D01*
X9389476Y-20283952D01*
X9379952Y-20274429D01*
X9370429Y-20255381D01*
X9370429Y-20198238D01*
X9379952Y-20179190D01*
X9389476Y-20169667D01*
X9408524Y-20160143D01*
X9446619Y-20160143D01*
X9465667Y-20169667D01*
X9541857Y-20369667D02*
X9551381Y-20360143D01*
X9570429Y-20331571D01*
X9579952Y-20312524D01*
X9589476Y-20283952D01*
X9599000Y-20236333D01*
X9599000Y-20198238D01*
X9589476Y-20150619D01*
X9579952Y-20122048D01*
X9570429Y-20103000D01*
X9551381Y-20074429D01*
X9541857Y-20064905D01*
M02*
