M48
; DRILL file {KiCad (6.0.4)} date Tue Apr 26 08:41:29 2022
; FORMAT={-:-/ absolute / metric / decimal}
; #@! TF.CreationDate,2022-04-26T08:41:29+02:00
; #@! TF.GenerationSoftware,Kicad,Pcbnew,(6.0.4)
; #@! TF.FileFunction,Plated,1,2,PTH
FMAT,2
METRIC
; #@! TA.AperFunction,Plated,PTH,ComponentDrill
T1C0.700
; #@! TA.AperFunction,Plated,PTH,ComponentDrill
T2C0.730
; #@! TA.AperFunction,Plated,PTH,ComponentDrill
T3C0.750
; #@! TA.AperFunction,Plated,PTH,ComponentDrill
T4C0.800
; #@! TA.AperFunction,Plated,PTH,ComponentDrill
T5C0.850
; #@! TA.AperFunction,Plated,PTH,ComponentDrill
T6C0.900
; #@! TA.AperFunction,Plated,PTH,ComponentDrill
T7C1.000
; #@! TA.AperFunction,Plated,PTH,ComponentDrill
T8C1.100
; #@! TA.AperFunction,Plated,PTH,ComponentDrill
T9C1.550
%
G90
G05
T1
X66.04Y-167.64
X71.04Y-167.64
X121.92Y-165.1
X126.92Y-165.1
X170.18Y-149.86
X175.18Y-149.86
X220.98Y-149.86
X225.98Y-149.86
X271.78Y-152.4
X276.78Y-152.4
T2
X31.59Y-123.19
X31.59Y-125.73
X31.59Y-128.27
X31.59Y-130.81
X31.59Y-133.35
X31.59Y-135.89
X31.59Y-138.43
X31.59Y-140.97
X31.75Y-163.67
X31.75Y-171.61
X34.29Y-163.67
X34.29Y-171.61
X36.83Y-163.67
X36.83Y-171.61
X39.37Y-163.67
X39.37Y-171.61
X39.53Y-123.19
X39.53Y-125.73
X39.53Y-128.27
X39.53Y-130.81
X39.53Y-133.35
X39.53Y-135.89
X39.53Y-138.43
X39.53Y-140.97
X41.91Y-163.67
X41.91Y-171.61
X44.45Y-163.67
X44.45Y-171.61
X46.99Y-163.67
X46.99Y-171.61
X49.53Y-163.67
X49.53Y-171.61
X72.23Y-120.65
X72.23Y-123.19
X72.23Y-125.73
X72.23Y-128.27
X72.23Y-130.81
X72.23Y-133.35
X72.23Y-135.89
X72.23Y-138.43
X80.17Y-120.65
X80.17Y-123.19
X80.17Y-125.73
X80.17Y-128.27
X80.17Y-130.81
X80.17Y-133.35
X80.17Y-135.89
X80.17Y-138.43
X82.55Y-163.67
X82.55Y-171.61
X85.09Y-163.67
X85.09Y-171.61
X87.47Y-123.19
X87.47Y-125.73
X87.47Y-128.27
X87.47Y-130.81
X87.47Y-133.35
X87.47Y-135.89
X87.47Y-138.43
X87.47Y-140.97
X87.63Y-163.67
X87.63Y-171.61
X90.17Y-163.67
X90.17Y-171.61
X92.71Y-163.67
X92.71Y-171.61
X95.25Y-163.67
X95.25Y-171.61
X95.41Y-123.19
X95.41Y-125.73
X95.41Y-128.27
X95.41Y-130.81
X95.41Y-133.35
X95.41Y-135.89
X95.41Y-138.43
X95.41Y-140.97
X97.79Y-163.67
X97.79Y-171.61
X100.33Y-163.67
X100.33Y-171.61
X130.81Y-107.79
X130.81Y-115.73
X133.35Y-107.79
X133.35Y-115.73
X135.89Y-107.79
X135.89Y-115.73
X135.89Y-145.89
X135.89Y-153.83
X138.43Y-107.79
X138.43Y-115.73
X138.43Y-145.89
X138.43Y-153.83
X140.97Y-107.79
X140.97Y-115.73
X140.97Y-145.89
X140.97Y-153.83
X143.51Y-107.79
X143.51Y-115.73
X143.51Y-145.89
X143.51Y-153.83
X146.05Y-107.79
X146.05Y-115.73
X146.05Y-145.89
X146.05Y-153.83
X148.59Y-107.79
X148.59Y-115.73
X148.59Y-145.89
X148.59Y-153.83
X151.13Y-145.89
X151.13Y-153.83
X153.67Y-145.89
X153.67Y-153.83
X171.29Y-123.19
X171.29Y-125.73
X171.29Y-128.27
X171.29Y-130.81
X171.29Y-133.35
X171.29Y-135.89
X171.29Y-138.43
X171.29Y-140.97
X179.23Y-123.19
X179.23Y-125.73
X179.23Y-128.27
X179.23Y-130.81
X179.23Y-133.35
X179.23Y-135.89
X179.23Y-138.43
X179.23Y-140.97
X181.61Y-107.79
X181.61Y-115.73
X184.15Y-107.79
X184.15Y-115.73
X186.69Y-107.79
X186.69Y-115.73
X186.69Y-145.89
X186.69Y-153.83
X189.23Y-107.79
X189.23Y-115.73
X189.23Y-145.89
X189.23Y-153.83
X191.77Y-107.79
X191.77Y-115.73
X191.77Y-145.89
X191.77Y-153.83
X194.31Y-107.79
X194.31Y-115.73
X194.31Y-145.89
X194.31Y-153.83
X196.85Y-107.79
X196.85Y-115.73
X196.85Y-145.89
X196.85Y-153.83
X199.39Y-107.79
X199.39Y-115.73
X199.39Y-145.89
X199.39Y-153.83
X201.93Y-145.89
X201.93Y-153.83
X204.47Y-145.89
X204.47Y-153.83
X212.09Y-163.67
X212.09Y-171.61
X214.63Y-163.67
X214.63Y-171.61
X217.17Y-163.67
X217.17Y-171.61
X219.71Y-163.67
X219.71Y-171.61
X222.25Y-163.67
X222.25Y-171.61
X224.79Y-163.67
X224.79Y-171.61
X227.33Y-163.67
X227.33Y-171.61
X229.87Y-163.67
X229.87Y-171.61
X232.41Y-107.79
X232.41Y-115.73
X234.95Y-107.79
X234.95Y-115.73
X237.49Y-107.79
X237.49Y-115.73
X237.49Y-148.43
X237.49Y-156.37
X240.03Y-107.79
X240.03Y-115.73
X240.03Y-148.43
X240.03Y-156.37
X242.57Y-107.79
X242.57Y-115.73
X242.57Y-148.43
X242.57Y-156.37
X245.11Y-107.79
X245.11Y-115.73
X245.11Y-148.43
X245.11Y-156.37
X247.65Y-107.79
X247.65Y-115.73
X247.65Y-148.43
X247.65Y-156.37
X250.19Y-107.79
X250.19Y-115.73
X250.19Y-148.43
X250.19Y-156.37
X252.73Y-148.43
X252.73Y-156.37
X255.27Y-148.43
X255.27Y-156.37
T3
X55.88Y-167.64
X57.88Y-167.64
X109.22Y-165.1
X111.22Y-165.1
X160.56Y-149.86
X162.56Y-149.86
X210.82Y-149.86
X212.82Y-149.86
X261.62Y-152.4
X263.62Y-152.4
X264.16Y-165.1
X266.16Y-165.1
T4
X33.02Y-106.68
X33.02Y-116.84
X40.64Y-106.68
X40.64Y-116.84
X41.285Y-61.57
X41.285Y-64.11
X41.285Y-66.65
X41.285Y-69.19
X41.285Y-71.73
X41.285Y-74.27
X41.285Y-76.81
X41.285Y-79.35
X41.285Y-81.89
X43.18Y-190.5
X44.435Y-121.93
X44.435Y-124.47
X44.435Y-127.01
X44.435Y-129.55
X44.435Y-132.09
X44.435Y-134.63
X44.435Y-137.17
X44.435Y-139.71
X44.435Y-142.25
X45.72Y-106.68
X45.72Y-116.84
X48.905Y-61.57
X48.905Y-64.11
X48.905Y-66.65
X48.905Y-69.19
X48.905Y-71.73
X48.905Y-74.27
X48.905Y-76.81
X48.905Y-79.35
X48.905Y-81.89
X50.8Y-106.68
X50.8Y-116.84
X52.055Y-121.93
X52.055Y-124.47
X52.055Y-127.01
X52.055Y-129.55
X52.055Y-132.09
X52.055Y-134.63
X52.055Y-137.17
X52.055Y-139.71
X52.055Y-142.25
X53.34Y-64.05
X53.34Y-68.1
X53.34Y-72.15
X53.34Y-76.2
X53.34Y-80.25
X53.34Y-149.86
X53.34Y-160.02
X53.34Y-190.5
X55.88Y-106.68
X55.88Y-116.84
X58.42Y-121.92
X58.42Y-132.08
X58.42Y-149.86
X58.42Y-157.48
X59.7Y-135.9
X59.7Y-138.44
X59.7Y-140.98
X59.7Y-143.52
X60.96Y-106.68
X60.96Y-116.84
X63.5Y-64.05
X63.5Y-68.1
X63.5Y-72.15
X63.5Y-76.2
X63.5Y-80.25
X63.5Y-121.92
X63.5Y-132.08
X66.04Y-106.68
X66.04Y-116.84
X66.65Y-64.05
X66.65Y-68.1
X66.65Y-72.15
X67.32Y-135.9
X67.32Y-138.44
X67.32Y-140.98
X67.32Y-143.52
X68.58Y-149.86
X68.58Y-157.48
X76.81Y-64.05
X76.81Y-68.1
X76.81Y-72.15
X90.185Y-176.52
X90.185Y-184.14
X92.695Y-58.43
X92.695Y-60.97
X92.695Y-63.51
X92.695Y-66.05
X92.695Y-68.59
X92.695Y-71.13
X92.695Y-73.67
X92.695Y-76.21
X92.695Y-78.75
X92.725Y-176.52
X92.725Y-184.14
X93.98Y-106.68
X93.98Y-116.84
X95.265Y-176.52
X95.265Y-184.14
X97.805Y-176.52
X97.805Y-184.14
X100.315Y-58.43
X100.315Y-60.97
X100.315Y-63.51
X100.315Y-66.05
X100.315Y-68.59
X100.315Y-71.13
X100.315Y-73.67
X100.315Y-76.21
X100.315Y-78.75
X100.315Y-121.93
X100.315Y-124.47
X100.315Y-127.01
X100.315Y-129.55
X100.315Y-132.09
X100.315Y-134.63
X100.315Y-137.17
X100.315Y-139.71
X100.315Y-142.25
X100.345Y-176.52
X100.345Y-184.14
X101.6Y-106.68
X101.6Y-116.84
X101.6Y-147.32
X101.6Y-157.48
X102.885Y-176.52
X102.885Y-184.14
X103.895Y-58.38
X103.895Y-62.43
X103.895Y-66.48
X103.895Y-70.53
X103.895Y-74.58
X105.425Y-176.52
X105.425Y-184.14
X106.68Y-106.68
X106.68Y-116.84
X107.935Y-121.93
X107.935Y-124.47
X107.935Y-127.01
X107.935Y-129.55
X107.935Y-132.09
X107.935Y-134.63
X107.935Y-137.17
X107.935Y-139.71
X107.935Y-142.25
X107.965Y-176.52
X107.965Y-184.14
X111.76Y-106.68
X111.76Y-116.84
X114.055Y-58.38
X114.055Y-62.43
X114.055Y-66.48
X114.055Y-70.53
X114.055Y-74.58
X116.84Y-106.68
X116.84Y-116.84
X116.84Y-124.46
X116.84Y-134.62
X117.205Y-58.38
X117.205Y-62.43
X117.205Y-66.48
X120.66Y-148.6
X120.66Y-151.14
X120.66Y-153.68
X120.66Y-156.22
X121.92Y-106.68
X121.92Y-116.84
X121.92Y-124.46
X121.92Y-134.62
X127.0Y-132.08
X127.0Y-142.24
X127.365Y-58.38
X127.365Y-62.43
X127.365Y-66.48
X128.28Y-148.6
X128.28Y-151.14
X128.28Y-153.68
X128.28Y-156.22
X134.62Y-134.62
X134.62Y-139.7
X134.62Y-160.02
X134.62Y-165.1
X134.62Y-170.18
X135.9Y-120.66
X135.9Y-123.2
X135.9Y-125.74
X135.9Y-128.28
X140.955Y-48.27
X140.955Y-50.81
X140.955Y-53.35
X140.955Y-55.89
X140.955Y-58.43
X140.955Y-60.97
X140.955Y-63.51
X140.955Y-66.05
X140.955Y-68.59
X143.52Y-120.66
X143.52Y-123.2
X143.52Y-125.74
X143.52Y-128.28
X144.78Y-134.62
X144.78Y-139.7
X144.78Y-160.02
X144.78Y-165.1
X144.78Y-170.18
X147.32Y-177.8
X148.575Y-48.27
X148.575Y-50.81
X148.575Y-53.35
X148.575Y-55.89
X148.575Y-58.43
X148.575Y-60.97
X148.575Y-63.51
X148.575Y-66.05
X148.575Y-68.59
X152.155Y-48.22
X152.155Y-52.27
X152.155Y-56.32
X152.155Y-60.37
X152.155Y-64.42
X157.48Y-177.8
X160.02Y-177.8
X162.315Y-48.22
X162.315Y-52.27
X162.315Y-56.32
X162.315Y-60.37
X162.315Y-64.42
X165.1Y-127.0
X165.1Y-137.16
X165.465Y-48.22
X165.465Y-52.27
X165.465Y-56.32
X170.18Y-177.8
X172.72Y-106.68
X172.72Y-116.84
X172.72Y-175.26
X172.72Y-185.42
X175.625Y-48.22
X175.625Y-52.27
X175.625Y-56.32
X177.8Y-106.68
X177.8Y-116.84
X185.42Y-134.62
X185.42Y-139.7
X186.7Y-120.66
X186.7Y-123.2
X186.7Y-125.74
X186.7Y-128.28
X194.32Y-120.66
X194.32Y-123.2
X194.32Y-125.74
X194.32Y-128.28
X195.58Y-134.62
X195.58Y-139.7
X215.9Y-124.46
X215.9Y-134.62
X220.98Y-177.8
X223.52Y-124.46
X223.52Y-134.62
X231.14Y-124.46
X231.14Y-134.62
X231.14Y-177.8
X236.22Y-134.62
X236.22Y-139.7
X237.5Y-120.66
X237.5Y-123.2
X237.5Y-125.74
X237.5Y-128.28
X245.12Y-120.66
X245.12Y-123.2
X245.12Y-125.74
X245.12Y-128.28
X246.38Y-134.62
X246.38Y-139.7
X266.7Y-124.46
X266.7Y-134.62
X274.32Y-124.46
X274.32Y-134.62
X281.94Y-109.22
X281.94Y-119.38
X281.94Y-124.46
X281.94Y-134.62
T5
X248.92Y-172.72
X253.92Y-172.72
T6
X152.4Y-167.64
X154.94Y-167.64
X160.02Y-167.64
X162.56Y-167.64
X167.64Y-167.64
X170.18Y-167.64
T7
X43.21Y-176.53
X43.21Y-184.15
X45.75Y-176.53
X45.75Y-184.15
X48.29Y-176.53
X48.29Y-184.15
X50.83Y-176.53
X50.83Y-184.15
X53.34Y-38.53
X53.34Y-98.63
X53.37Y-176.53
X53.37Y-184.15
X55.88Y-38.53
X55.88Y-98.63
X55.91Y-176.53
X55.91Y-184.15
X58.42Y-38.53
X58.42Y-98.63
X58.45Y-176.53
X58.45Y-184.15
X60.96Y-38.53
X60.96Y-98.63
X63.5Y-38.53
X63.5Y-98.63
X66.01Y-176.53
X66.01Y-184.15
X68.55Y-176.53
X68.55Y-184.15
X71.09Y-176.53
X71.09Y-184.15
X73.63Y-176.53
X73.63Y-184.15
X76.17Y-176.53
X76.17Y-184.15
X78.71Y-176.53
X78.71Y-184.15
X81.25Y-176.53
X81.25Y-184.15
X104.14Y-38.53
X104.14Y-98.63
X106.68Y-38.53
X106.68Y-98.63
X109.22Y-38.53
X109.22Y-98.63
X111.76Y-38.53
X111.76Y-98.63
X114.3Y-38.53
X114.3Y-98.63
X154.94Y-38.53
X154.94Y-98.63
X157.48Y-38.53
X157.48Y-98.63
X160.02Y-38.53
X160.02Y-98.63
X162.56Y-38.53
X162.56Y-98.63
X165.1Y-38.53
X165.1Y-98.63
X190.53Y-166.37
X190.53Y-173.99
X193.07Y-166.37
X193.07Y-173.99
X195.61Y-166.37
X195.61Y-173.99
X198.15Y-166.37
X198.15Y-173.99
X200.69Y-166.37
X200.69Y-173.99
X203.23Y-166.37
X203.23Y-173.99
X205.74Y-38.53
X205.74Y-98.63
X205.77Y-166.37
X205.77Y-173.99
X208.28Y-38.53
X208.28Y-98.63
X210.82Y-38.53
X210.82Y-98.63
X213.36Y-38.53
X213.36Y-98.63
X215.9Y-38.53
X215.9Y-98.63
X256.54Y-38.53
X256.54Y-98.63
X259.08Y-38.53
X259.08Y-98.63
X261.62Y-38.53
X261.62Y-98.63
X264.16Y-38.53
X264.16Y-98.63
X266.7Y-38.53
X266.7Y-98.63
X274.32Y-162.56
X276.86Y-162.56
X279.4Y-162.56
T8
X30.48Y-149.86
X30.48Y-154.94
X30.48Y-160.02
X40.64Y-149.86
X40.64Y-154.94
X40.64Y-160.02
X83.82Y-147.32
X83.82Y-152.4
X83.82Y-157.48
X93.98Y-147.32
X93.98Y-152.4
X93.98Y-157.48
X114.3Y-177.8
X114.3Y-182.88
X124.46Y-177.8
X124.46Y-182.88
X141.305Y-79.41
X141.305Y-89.57
X145.905Y-79.41
X145.905Y-89.57
X149.86Y-127.0
X149.86Y-132.08
X149.86Y-137.16
X160.02Y-127.0
X160.02Y-132.08
X160.02Y-137.16
X200.66Y-124.46
X200.66Y-129.54
X200.66Y-134.62
X210.82Y-124.46
X210.82Y-129.54
X210.82Y-134.62
X246.38Y-162.56
X251.46Y-124.46
X251.46Y-129.54
X251.46Y-134.62
X256.54Y-162.56
X261.62Y-124.46
X261.62Y-129.54
X261.62Y-134.62
X262.1Y-175.26
X266.7Y-175.26
T9
X238.76Y-170.18
X238.76Y-177.8
X274.88Y-175.26
X279.68Y-175.26
X284.48Y-175.26
T0
M30
