G04 #@! TF.GenerationSoftware,KiCad,Pcbnew,(6.0.4)*
G04 #@! TF.CreationDate,2022-04-26T08:41:27+02:00*
G04 #@! TF.ProjectId,Kniffel_V1,4b6e6966-6665-46c5-9f56-312e6b696361,rev?*
G04 #@! TF.SameCoordinates,Original*
G04 #@! TF.FileFunction,Soldermask,Bot*
G04 #@! TF.FilePolarity,Negative*
%FSLAX46Y46*%
G04 Gerber Fmt 4.6, Leading zero omitted, Abs format (unit mm)*
G04 Created by KiCad (PCBNEW (6.0.4)) date 2022-04-26 08:41:27*
%MOMM*%
%LPD*%
G01*
G04 APERTURE LIST*
G04 Aperture macros list*
%AMRoundRect*
0 Rectangle with rounded corners*
0 $1 Rounding radius*
0 $2 $3 $4 $5 $6 $7 $8 $9 X,Y pos of 4 corners*
0 Add a 4 corners polygon primitive as box body*
4,1,4,$2,$3,$4,$5,$6,$7,$8,$9,$2,$3,0*
0 Add four circle primitives for the rounded corners*
1,1,$1+$1,$2,$3*
1,1,$1+$1,$4,$5*
1,1,$1+$1,$6,$7*
1,1,$1+$1,$8,$9*
0 Add four rect primitives between the rounded corners*
20,1,$1+$1,$2,$3,$4,$5,0*
20,1,$1+$1,$4,$5,$6,$7,0*
20,1,$1+$1,$6,$7,$8,$9,0*
20,1,$1+$1,$8,$9,$2,$3,0*%
G04 Aperture macros list end*
G04 #@! TA.AperFunction,Profile*
%ADD10C,0.100000*%
G04 #@! TD*
%ADD11C,1.600000*%
%ADD12O,1.600000X1.600000*%
%ADD13RoundRect,0.250002X-1.499998X-1.499998X1.499998X-1.499998X1.499998X1.499998X-1.499998X1.499998X0*%
%ADD14R,1.130000X1.130000*%
%ADD15C,1.130000*%
%ADD16RoundRect,0.250001X-0.799999X-0.799999X0.799999X-0.799999X0.799999X0.799999X-0.799999X0.799999X0*%
%ADD17C,2.100000*%
%ADD18R,2.400000X1.600000*%
%ADD19O,2.400000X1.600000*%
%ADD20R,2.200000X2.200000*%
%ADD21O,2.200000X2.200000*%
%ADD22R,1.600000X1.600000*%
%ADD23C,1.200000*%
%ADD24RoundRect,0.249999X-1.025001X-1.025001X1.025001X-1.025001X1.025001X1.025001X-1.025001X1.025001X0*%
%ADD25C,2.550000*%
%ADD26C,3.200000*%
%ADD27R,1.150000X1.150000*%
%ADD28C,1.150000*%
%ADD29R,1.500000X2.300000*%
%ADD30O,1.500000X2.300000*%
%ADD31R,1.275000X1.275000*%
%ADD32C,1.275000*%
%ADD33R,1.800000X1.800000*%
%ADD34C,1.800000*%
%ADD35R,1.500000X1.500000*%
%ADD36C,1.500000*%
G04 APERTURE END LIST*
D10*
X289560000Y-20320000D02*
X289560000Y-195580000D01*
X27940000Y-20320000D02*
X289560000Y-20320000D01*
X27940000Y-195580000D02*
X27940000Y-20320000D01*
X289560000Y-195580000D02*
X27940000Y-195580000D01*
X289560000Y-180340000D02*
X289560000Y-180340000D01*
D11*
X152155000Y-60370000D03*
D12*
X162315000Y-60370000D03*
D11*
X66650000Y-64050000D03*
D12*
X76810000Y-64050000D03*
D11*
X93980000Y-116840000D03*
D12*
X93980000Y-106680000D03*
D13*
X238760000Y-170180000D03*
D11*
X185420000Y-134620000D03*
D12*
X195580000Y-134620000D03*
D11*
X106680000Y-116840000D03*
D12*
X106680000Y-106680000D03*
D14*
X87470000Y-123190000D03*
D15*
X87470000Y-125730000D03*
X87470000Y-128270000D03*
X87470000Y-130810000D03*
X87470000Y-133350000D03*
X87470000Y-135890000D03*
X87470000Y-138430000D03*
X87470000Y-140970000D03*
X95410000Y-140970000D03*
X95410000Y-138430000D03*
X95410000Y-135890000D03*
X95410000Y-133350000D03*
X95410000Y-130810000D03*
X95410000Y-128270000D03*
X95410000Y-125730000D03*
X95410000Y-123190000D03*
D16*
X141305000Y-89570000D03*
D17*
X145905000Y-89570000D03*
D11*
X101600000Y-157480000D03*
D12*
X101600000Y-147320000D03*
D18*
X100315000Y-121930000D03*
D19*
X100315000Y-124470000D03*
X100315000Y-127010000D03*
X100315000Y-129550000D03*
X100315000Y-132090000D03*
X100315000Y-134630000D03*
X100315000Y-137170000D03*
X100315000Y-139710000D03*
X100315000Y-142250000D03*
X107935000Y-142250000D03*
X107935000Y-139710000D03*
X107935000Y-137170000D03*
X107935000Y-134630000D03*
X107935000Y-132090000D03*
X107935000Y-129550000D03*
X107935000Y-127010000D03*
X107935000Y-124470000D03*
X107935000Y-121930000D03*
D16*
X141305000Y-79410000D03*
D17*
X145905000Y-79410000D03*
D11*
X266700000Y-134620000D03*
D12*
X266700000Y-124460000D03*
D11*
X58420000Y-157480000D03*
D12*
X68580000Y-157480000D03*
D11*
X147320000Y-177800000D03*
D12*
X157480000Y-177800000D03*
D11*
X53340000Y-76200000D03*
D12*
X63500000Y-76200000D03*
D11*
X103895000Y-62430000D03*
D12*
X114055000Y-62430000D03*
D11*
X165100000Y-137160000D03*
D12*
X165100000Y-127000000D03*
D11*
X66040000Y-116840000D03*
D12*
X66040000Y-106680000D03*
D11*
X215900000Y-134620000D03*
D12*
X215900000Y-124460000D03*
D11*
X58420000Y-149860000D03*
D12*
X68580000Y-149860000D03*
D20*
X114300000Y-182880000D03*
D21*
X124460000Y-182880000D03*
D14*
X130810000Y-115730000D03*
D15*
X133350000Y-115730000D03*
X135890000Y-115730000D03*
X138430000Y-115730000D03*
X140970000Y-115730000D03*
X143510000Y-115730000D03*
X146050000Y-115730000D03*
X148590000Y-115730000D03*
X148590000Y-107790000D03*
X146050000Y-107790000D03*
X143510000Y-107790000D03*
X140970000Y-107790000D03*
X138430000Y-107790000D03*
X135890000Y-107790000D03*
X133350000Y-107790000D03*
X130810000Y-107790000D03*
D22*
X120660000Y-148600000D03*
D12*
X120660000Y-151140000D03*
X120660000Y-153680000D03*
X120660000Y-156220000D03*
X128280000Y-156220000D03*
X128280000Y-153680000D03*
X128280000Y-151140000D03*
X128280000Y-148600000D03*
D23*
X66040000Y-167640000D03*
X71040000Y-167640000D03*
D20*
X200660000Y-124460000D03*
D21*
X210820000Y-124460000D03*
D14*
X232410000Y-115730000D03*
D15*
X234950000Y-115730000D03*
X237490000Y-115730000D03*
X240030000Y-115730000D03*
X242570000Y-115730000D03*
X245110000Y-115730000D03*
X247650000Y-115730000D03*
X250190000Y-115730000D03*
X250190000Y-107790000D03*
X247650000Y-107790000D03*
X245110000Y-107790000D03*
X242570000Y-107790000D03*
X240030000Y-107790000D03*
X237490000Y-107790000D03*
X234950000Y-107790000D03*
X232410000Y-107790000D03*
D11*
X152155000Y-56320000D03*
D12*
X162315000Y-56320000D03*
D20*
X256540000Y-162560000D03*
D21*
X246380000Y-162560000D03*
D14*
X31590000Y-123190000D03*
D15*
X31590000Y-125730000D03*
X31590000Y-128270000D03*
X31590000Y-130810000D03*
X31590000Y-133350000D03*
X31590000Y-135890000D03*
X31590000Y-138430000D03*
X31590000Y-140970000D03*
X39530000Y-140970000D03*
X39530000Y-138430000D03*
X39530000Y-135890000D03*
X39530000Y-133350000D03*
X39530000Y-130810000D03*
X39530000Y-128270000D03*
X39530000Y-125730000D03*
X39530000Y-123190000D03*
D20*
X30480000Y-160020000D03*
D21*
X40640000Y-160020000D03*
D22*
X186700000Y-120660000D03*
D12*
X186700000Y-123200000D03*
X186700000Y-125740000D03*
X186700000Y-128280000D03*
X194320000Y-128280000D03*
X194320000Y-125740000D03*
X194320000Y-123200000D03*
X194320000Y-120660000D03*
D24*
X274880000Y-175260000D03*
D25*
X279680000Y-175260000D03*
X284480000Y-175260000D03*
D23*
X271780000Y-152400000D03*
X276780000Y-152400000D03*
D26*
X33020000Y-182880000D03*
D11*
X50800000Y-116840000D03*
D12*
X50800000Y-106680000D03*
D20*
X149860000Y-137160000D03*
D21*
X160020000Y-137160000D03*
D14*
X82550000Y-171610000D03*
D15*
X85090000Y-171610000D03*
X87630000Y-171610000D03*
X90170000Y-171610000D03*
X92710000Y-171610000D03*
X95250000Y-171610000D03*
X97790000Y-171610000D03*
X100330000Y-171610000D03*
X100330000Y-163670000D03*
X97790000Y-163670000D03*
X95250000Y-163670000D03*
X92710000Y-163670000D03*
X90170000Y-163670000D03*
X87630000Y-163670000D03*
X85090000Y-163670000D03*
X82550000Y-163670000D03*
D20*
X83820000Y-157480000D03*
D21*
X93980000Y-157480000D03*
D11*
X101600000Y-116840000D03*
D12*
X101600000Y-106680000D03*
D18*
X140955000Y-48270000D03*
D19*
X140955000Y-50810000D03*
X140955000Y-53350000D03*
X140955000Y-55890000D03*
X140955000Y-58430000D03*
X140955000Y-60970000D03*
X140955000Y-63510000D03*
X140955000Y-66050000D03*
X140955000Y-68590000D03*
X148575000Y-68590000D03*
X148575000Y-66050000D03*
X148575000Y-63510000D03*
X148575000Y-60970000D03*
X148575000Y-58430000D03*
X148575000Y-55890000D03*
X148575000Y-53350000D03*
X148575000Y-50810000D03*
X148575000Y-48270000D03*
D11*
X121920000Y-134620000D03*
D12*
X121920000Y-124460000D03*
D11*
X116840000Y-116840000D03*
D12*
X116840000Y-106680000D03*
D26*
X284480000Y-182880000D03*
D14*
X171290000Y-123190000D03*
D15*
X171290000Y-125730000D03*
X171290000Y-128270000D03*
X171290000Y-130810000D03*
X171290000Y-133350000D03*
X171290000Y-135890000D03*
X171290000Y-138430000D03*
X171290000Y-140970000D03*
X179230000Y-140970000D03*
X179230000Y-138430000D03*
X179230000Y-135890000D03*
X179230000Y-133350000D03*
X179230000Y-130810000D03*
X179230000Y-128270000D03*
X179230000Y-125730000D03*
X179230000Y-123190000D03*
D11*
X66650000Y-68100000D03*
D12*
X76810000Y-68100000D03*
D11*
X172720000Y-116840000D03*
D12*
X172720000Y-106680000D03*
D11*
X116840000Y-134620000D03*
D12*
X116840000Y-124460000D03*
D11*
X103895000Y-70530000D03*
D12*
X114055000Y-70530000D03*
D11*
X165465000Y-56320000D03*
D12*
X175625000Y-56320000D03*
D11*
X103895000Y-66480000D03*
D12*
X114055000Y-66480000D03*
D11*
X117205000Y-66480000D03*
D12*
X127365000Y-66480000D03*
D20*
X251460000Y-134620000D03*
D21*
X261620000Y-134620000D03*
D18*
X92695000Y-58430000D03*
D19*
X92695000Y-60970000D03*
X92695000Y-63510000D03*
X92695000Y-66050000D03*
X92695000Y-68590000D03*
X92695000Y-71130000D03*
X92695000Y-73670000D03*
X92695000Y-76210000D03*
X92695000Y-78750000D03*
X100315000Y-78750000D03*
X100315000Y-76210000D03*
X100315000Y-73670000D03*
X100315000Y-71130000D03*
X100315000Y-68590000D03*
X100315000Y-66050000D03*
X100315000Y-63510000D03*
X100315000Y-60970000D03*
X100315000Y-58430000D03*
D13*
X238760000Y-177800000D03*
D27*
X264160000Y-165100000D03*
D28*
X266160000Y-165100000D03*
D11*
X103895000Y-58380000D03*
D12*
X114055000Y-58380000D03*
D11*
X165465000Y-52270000D03*
D12*
X175625000Y-52270000D03*
D27*
X55880000Y-167640000D03*
D28*
X57880000Y-167640000D03*
D11*
X152155000Y-52270000D03*
D12*
X162315000Y-52270000D03*
D11*
X160020000Y-177800000D03*
D12*
X170180000Y-177800000D03*
D22*
X58450000Y-176530000D03*
D11*
X55910000Y-176530000D03*
X53370000Y-176530000D03*
X50830000Y-176530000D03*
X48290000Y-176530000D03*
X45750000Y-176530000D03*
X43210000Y-176530000D03*
X43210000Y-184150000D03*
X45750000Y-184150000D03*
X48290000Y-184150000D03*
X50830000Y-184150000D03*
X53370000Y-184150000D03*
X55910000Y-184150000D03*
X58450000Y-184150000D03*
X117205000Y-62430000D03*
D12*
X127365000Y-62430000D03*
D20*
X149860000Y-127000000D03*
D21*
X160020000Y-127000000D03*
D22*
X90185000Y-184140000D03*
D12*
X92725000Y-184140000D03*
X95265000Y-184140000D03*
X97805000Y-184140000D03*
X100345000Y-184140000D03*
X102885000Y-184140000D03*
X105425000Y-184140000D03*
X107965000Y-184140000D03*
X107965000Y-176520000D03*
X105425000Y-176520000D03*
X102885000Y-176520000D03*
X100345000Y-176520000D03*
X97805000Y-176520000D03*
X95265000Y-176520000D03*
X92725000Y-176520000D03*
X90185000Y-176520000D03*
D11*
X134620000Y-165100000D03*
D12*
X144780000Y-165100000D03*
D20*
X83820000Y-152400000D03*
D21*
X93980000Y-152400000D03*
D11*
X274320000Y-124460000D03*
D12*
X274320000Y-134620000D03*
D26*
X33020000Y-25400000D03*
D11*
X33020000Y-116840000D03*
D12*
X33020000Y-106680000D03*
D20*
X200660000Y-134620000D03*
D21*
X210820000Y-134620000D03*
D11*
X220980000Y-177800000D03*
D12*
X231140000Y-177800000D03*
D22*
X59700000Y-135900000D03*
D12*
X59700000Y-138440000D03*
X59700000Y-140980000D03*
X59700000Y-143520000D03*
X67320000Y-143520000D03*
X67320000Y-140980000D03*
X67320000Y-138440000D03*
X67320000Y-135900000D03*
D20*
X30480000Y-154940000D03*
D21*
X40640000Y-154940000D03*
D14*
X31750000Y-171610000D03*
D15*
X34290000Y-171610000D03*
X36830000Y-171610000D03*
X39370000Y-171610000D03*
X41910000Y-171610000D03*
X44450000Y-171610000D03*
X46990000Y-171610000D03*
X49530000Y-171610000D03*
X49530000Y-163670000D03*
X46990000Y-163670000D03*
X44450000Y-163670000D03*
X41910000Y-163670000D03*
X39370000Y-163670000D03*
X36830000Y-163670000D03*
X34290000Y-163670000D03*
X31750000Y-163670000D03*
D11*
X60960000Y-116840000D03*
D12*
X60960000Y-106680000D03*
D11*
X134620000Y-160020000D03*
D12*
X144780000Y-160020000D03*
D27*
X210820000Y-149860000D03*
D28*
X212820000Y-149860000D03*
D11*
X281940000Y-124460000D03*
D12*
X281940000Y-134620000D03*
D27*
X261620000Y-152400000D03*
D28*
X263620000Y-152400000D03*
D11*
X53340000Y-80250000D03*
D12*
X63500000Y-80250000D03*
D11*
X58420000Y-132080000D03*
D12*
X58420000Y-121920000D03*
D11*
X53340000Y-72150000D03*
D12*
X63500000Y-72150000D03*
D11*
X177800000Y-116840000D03*
D12*
X177800000Y-106680000D03*
D18*
X41285000Y-61570000D03*
D19*
X41285000Y-64110000D03*
X41285000Y-66650000D03*
X41285000Y-69190000D03*
X41285000Y-71730000D03*
X41285000Y-74270000D03*
X41285000Y-76810000D03*
X41285000Y-79350000D03*
X41285000Y-81890000D03*
X48905000Y-81890000D03*
X48905000Y-79350000D03*
X48905000Y-76810000D03*
X48905000Y-74270000D03*
X48905000Y-71730000D03*
X48905000Y-69190000D03*
X48905000Y-66650000D03*
X48905000Y-64110000D03*
X48905000Y-61570000D03*
D11*
X281940000Y-109220000D03*
D12*
X281940000Y-119380000D03*
D11*
X40640000Y-116840000D03*
D12*
X40640000Y-106680000D03*
D11*
X172720000Y-185420000D03*
D12*
X172720000Y-175260000D03*
D11*
X111760000Y-116840000D03*
D12*
X111760000Y-106680000D03*
D14*
X186690000Y-153830000D03*
D15*
X189230000Y-153830000D03*
X191770000Y-153830000D03*
X194310000Y-153830000D03*
X196850000Y-153830000D03*
X199390000Y-153830000D03*
X201930000Y-153830000D03*
X204470000Y-153830000D03*
X204470000Y-145890000D03*
X201930000Y-145890000D03*
X199390000Y-145890000D03*
X196850000Y-145890000D03*
X194310000Y-145890000D03*
X191770000Y-145890000D03*
X189230000Y-145890000D03*
X186690000Y-145890000D03*
D14*
X212090000Y-171610000D03*
D15*
X214630000Y-171610000D03*
X217170000Y-171610000D03*
X219710000Y-171610000D03*
X222250000Y-171610000D03*
X224790000Y-171610000D03*
X227330000Y-171610000D03*
X229870000Y-171610000D03*
X229870000Y-163670000D03*
X227330000Y-163670000D03*
X224790000Y-163670000D03*
X222250000Y-163670000D03*
X219710000Y-163670000D03*
X217170000Y-163670000D03*
X214630000Y-163670000D03*
X212090000Y-163670000D03*
D29*
X274320000Y-162560000D03*
D30*
X276860000Y-162560000D03*
X279400000Y-162560000D03*
D20*
X251460000Y-129540000D03*
D21*
X261620000Y-129540000D03*
D16*
X262100000Y-175260000D03*
D17*
X266700000Y-175260000D03*
D14*
X181610000Y-115730000D03*
D15*
X184150000Y-115730000D03*
X186690000Y-115730000D03*
X189230000Y-115730000D03*
X191770000Y-115730000D03*
X194310000Y-115730000D03*
X196850000Y-115730000D03*
X199390000Y-115730000D03*
X199390000Y-107790000D03*
X196850000Y-107790000D03*
X194310000Y-107790000D03*
X191770000Y-107790000D03*
X189230000Y-107790000D03*
X186690000Y-107790000D03*
X184150000Y-107790000D03*
X181610000Y-107790000D03*
D22*
X237500000Y-120660000D03*
D12*
X237500000Y-123200000D03*
X237500000Y-125740000D03*
X237500000Y-128280000D03*
X245120000Y-128280000D03*
X245120000Y-125740000D03*
X245120000Y-123200000D03*
X245120000Y-120660000D03*
D22*
X66010000Y-184150000D03*
D11*
X68550000Y-184150000D03*
X71090000Y-184150000D03*
X73630000Y-184150000D03*
X76170000Y-184150000D03*
X78710000Y-184150000D03*
X81250000Y-184150000D03*
X81250000Y-176530000D03*
X78710000Y-176530000D03*
X76170000Y-176530000D03*
X73630000Y-176530000D03*
X71090000Y-176530000D03*
X68550000Y-176530000D03*
X66010000Y-176530000D03*
D23*
X121920000Y-165100000D03*
X126920000Y-165100000D03*
D20*
X30480000Y-149860000D03*
D21*
X40640000Y-149860000D03*
D11*
X53340000Y-149860000D03*
D12*
X53340000Y-160020000D03*
D23*
X170180000Y-149860000D03*
X175180000Y-149860000D03*
D11*
X45720000Y-116840000D03*
D12*
X45720000Y-106680000D03*
D11*
X236220000Y-134620000D03*
D12*
X246380000Y-134620000D03*
D27*
X160560000Y-149860000D03*
D28*
X162560000Y-149860000D03*
D20*
X251460000Y-124460000D03*
D21*
X261620000Y-124460000D03*
D11*
X134620000Y-170180000D03*
D12*
X144780000Y-170180000D03*
D22*
X205770000Y-166370000D03*
D11*
X203230000Y-166370000D03*
X200690000Y-166370000D03*
X198150000Y-166370000D03*
X195610000Y-166370000D03*
X193070000Y-166370000D03*
X190530000Y-166370000D03*
X190530000Y-173990000D03*
X193070000Y-173990000D03*
X195610000Y-173990000D03*
X198150000Y-173990000D03*
X200690000Y-173990000D03*
X203230000Y-173990000D03*
X205770000Y-173990000D03*
X53340000Y-68100000D03*
D12*
X63500000Y-68100000D03*
D14*
X72230000Y-120650000D03*
D15*
X72230000Y-123190000D03*
X72230000Y-125730000D03*
X72230000Y-128270000D03*
X72230000Y-130810000D03*
X72230000Y-133350000D03*
X72230000Y-135890000D03*
X72230000Y-138430000D03*
X80170000Y-138430000D03*
X80170000Y-135890000D03*
X80170000Y-133350000D03*
X80170000Y-130810000D03*
X80170000Y-128270000D03*
X80170000Y-125730000D03*
X80170000Y-123190000D03*
X80170000Y-120650000D03*
D11*
X236220000Y-139700000D03*
D12*
X246380000Y-139700000D03*
D27*
X109220000Y-165100000D03*
D28*
X111220000Y-165100000D03*
D11*
X66650000Y-72150000D03*
D12*
X76810000Y-72150000D03*
D20*
X83820000Y-147320000D03*
D21*
X93980000Y-147320000D03*
D11*
X63500000Y-132080000D03*
D12*
X63500000Y-121920000D03*
D11*
X231140000Y-134620000D03*
D12*
X231140000Y-124460000D03*
D11*
X223520000Y-134620000D03*
D12*
X223520000Y-124460000D03*
D20*
X200660000Y-129540000D03*
D21*
X210820000Y-129540000D03*
D11*
X117205000Y-58380000D03*
D12*
X127365000Y-58380000D03*
D31*
X248920000Y-172720000D03*
D32*
X253920000Y-172720000D03*
D11*
X127000000Y-132080000D03*
D12*
X127000000Y-142240000D03*
D11*
X165465000Y-48220000D03*
D12*
X175625000Y-48220000D03*
D11*
X55880000Y-116840000D03*
D12*
X55880000Y-106680000D03*
D23*
X220980000Y-149860000D03*
X225980000Y-149860000D03*
D11*
X53340000Y-64050000D03*
D12*
X63500000Y-64050000D03*
D11*
X134620000Y-134620000D03*
D12*
X144780000Y-134620000D03*
D11*
X185420000Y-139700000D03*
D12*
X195580000Y-139700000D03*
D11*
X134620000Y-139700000D03*
D12*
X144780000Y-139700000D03*
D20*
X149860000Y-132080000D03*
D21*
X160020000Y-132080000D03*
D14*
X237490000Y-156370000D03*
D15*
X240030000Y-156370000D03*
X242570000Y-156370000D03*
X245110000Y-156370000D03*
X247650000Y-156370000D03*
X250190000Y-156370000D03*
X252730000Y-156370000D03*
X255270000Y-156370000D03*
X255270000Y-148430000D03*
X252730000Y-148430000D03*
X250190000Y-148430000D03*
X247650000Y-148430000D03*
X245110000Y-148430000D03*
X242570000Y-148430000D03*
X240030000Y-148430000D03*
X237490000Y-148430000D03*
D18*
X44435000Y-121930000D03*
D19*
X44435000Y-124470000D03*
X44435000Y-127010000D03*
X44435000Y-129550000D03*
X44435000Y-132090000D03*
X44435000Y-134630000D03*
X44435000Y-137170000D03*
X44435000Y-139710000D03*
X44435000Y-142250000D03*
X52055000Y-142250000D03*
X52055000Y-139710000D03*
X52055000Y-137170000D03*
X52055000Y-134630000D03*
X52055000Y-132090000D03*
X52055000Y-129550000D03*
X52055000Y-127010000D03*
X52055000Y-124470000D03*
X52055000Y-121930000D03*
D11*
X152155000Y-48220000D03*
D12*
X162315000Y-48220000D03*
D26*
X284480000Y-25400000D03*
D11*
X103895000Y-74580000D03*
D12*
X114055000Y-74580000D03*
D14*
X135890000Y-153830000D03*
D15*
X138430000Y-153830000D03*
X140970000Y-153830000D03*
X143510000Y-153830000D03*
X146050000Y-153830000D03*
X148590000Y-153830000D03*
X151130000Y-153830000D03*
X153670000Y-153830000D03*
X153670000Y-145890000D03*
X151130000Y-145890000D03*
X148590000Y-145890000D03*
X146050000Y-145890000D03*
X143510000Y-145890000D03*
X140970000Y-145890000D03*
X138430000Y-145890000D03*
X135890000Y-145890000D03*
D20*
X114300000Y-177800000D03*
D21*
X124460000Y-177800000D03*
D22*
X135900000Y-120660000D03*
D12*
X135900000Y-123200000D03*
X135900000Y-125740000D03*
X135900000Y-128280000D03*
X143520000Y-128280000D03*
X143520000Y-125740000D03*
X143520000Y-123200000D03*
X143520000Y-120660000D03*
D11*
X152155000Y-64420000D03*
D12*
X162315000Y-64420000D03*
D11*
X121920000Y-116840000D03*
D12*
X121920000Y-106680000D03*
D33*
X170180000Y-167640000D03*
D34*
X167640000Y-167640000D03*
D11*
X53340000Y-190500000D03*
D12*
X43180000Y-190500000D03*
D33*
X162560000Y-167640000D03*
D34*
X160020000Y-167640000D03*
D35*
X63500000Y-98630000D03*
D36*
X60960000Y-98630000D03*
X58420000Y-98630000D03*
X55880000Y-98630000D03*
X53340000Y-98630000D03*
X53340000Y-38530000D03*
X55880000Y-38530000D03*
X58420000Y-38530000D03*
X60960000Y-38530000D03*
X63500000Y-38530000D03*
D33*
X154940000Y-167640000D03*
D34*
X152400000Y-167640000D03*
D35*
X114300000Y-98630000D03*
D36*
X111760000Y-98630000D03*
X109220000Y-98630000D03*
X106680000Y-98630000D03*
X104140000Y-98630000D03*
X104140000Y-38530000D03*
X106680000Y-38530000D03*
X109220000Y-38530000D03*
X111760000Y-38530000D03*
X114300000Y-38530000D03*
D35*
X215900000Y-98630000D03*
D36*
X213360000Y-98630000D03*
X210820000Y-98630000D03*
X208280000Y-98630000D03*
X205740000Y-98630000D03*
X205740000Y-38530000D03*
X208280000Y-38530000D03*
X210820000Y-38530000D03*
X213360000Y-38530000D03*
X215900000Y-38530000D03*
D35*
X266700000Y-98630000D03*
D36*
X264160000Y-98630000D03*
X261620000Y-98630000D03*
X259080000Y-98630000D03*
X256540000Y-98630000D03*
X256540000Y-38530000D03*
X259080000Y-38530000D03*
X261620000Y-38530000D03*
X264160000Y-38530000D03*
X266700000Y-38530000D03*
D35*
X165100000Y-98630000D03*
D36*
X162560000Y-98630000D03*
X160020000Y-98630000D03*
X157480000Y-98630000D03*
X154940000Y-98630000D03*
X154940000Y-38530000D03*
X157480000Y-38530000D03*
X160020000Y-38530000D03*
X162560000Y-38530000D03*
X165100000Y-38530000D03*
M02*
