M48
; DRILL file {KiCad (6.0.2)} date Fri Apr 29 17:41:04 2022
; FORMAT={-:-/ absolute / inch / decimal}
; #@! TF.CreationDate,2022-04-29T17:41:04+02:00
; #@! TF.GenerationSoftware,Kicad,Pcbnew,(6.0.2)
; #@! TF.FileFunction,Plated,1,2,PTH
FMAT,2
INCH
; #@! TA.AperFunction,Plated,PTH,ComponentDrill
T1C0.0276
; #@! TA.AperFunction,Plated,PTH,ComponentDrill
T2C0.0287
; #@! TA.AperFunction,Plated,PTH,ComponentDrill
T3C0.0295
; #@! TA.AperFunction,Plated,PTH,ComponentDrill
T4C0.0315
; #@! TA.AperFunction,Plated,PTH,ComponentDrill
T5C0.0335
; #@! TA.AperFunction,Plated,PTH,ComponentDrill
T6C0.0394
; #@! TA.AperFunction,Plated,PTH,ComponentDrill
T7C0.0433
; #@! TA.AperFunction,Plated,PTH,ComponentDrill
T8C0.0610
; #@! TA.AperFunction,Plated,PTH,ComponentDrill
T9C0.1260
%
G90
G05
T1
X2.6Y-6.6
X2.7969Y-6.6
X4.8Y-6.6
X4.9969Y-6.6
X6.6Y-6.7
X6.7969Y-6.7
X8.5Y-6.7
X8.6969Y-6.7
X10.4Y-6.0
X10.5969Y-6.0
T2
X1.2437Y-4.85
X1.2437Y-4.95
X1.2437Y-5.05
X1.2437Y-5.15
X1.2437Y-5.25
X1.2437Y-5.35
X1.2437Y-5.45
X1.2437Y-5.55
X1.25Y-6.4437
X1.25Y-6.7563
X1.35Y-6.4437
X1.35Y-6.7563
X1.45Y-6.4437
X1.45Y-6.7563
X1.55Y-6.4437
X1.55Y-6.7563
X1.5563Y-4.85
X1.5563Y-4.95
X1.5563Y-5.05
X1.5563Y-5.15
X1.5563Y-5.25
X1.5563Y-5.35
X1.5563Y-5.45
X1.5563Y-5.55
X1.65Y-6.4437
X1.65Y-6.7563
X1.75Y-6.4437
X1.75Y-6.7563
X1.85Y-6.4437
X1.85Y-6.7563
X1.95Y-6.4437
X1.95Y-6.7563
X2.8437Y-4.75
X2.8437Y-4.85
X2.8437Y-4.95
X2.8437Y-5.05
X2.8437Y-5.15
X2.8437Y-5.25
X2.8437Y-5.35
X2.8437Y-5.45
X3.1563Y-4.75
X3.1563Y-4.85
X3.1563Y-4.95
X3.1563Y-5.05
X3.1563Y-5.15
X3.1563Y-5.25
X3.1563Y-5.35
X3.1563Y-5.45
X3.25Y-6.4437
X3.25Y-6.7563
X3.35Y-6.4437
X3.35Y-6.7563
X3.4437Y-4.85
X3.4437Y-4.95
X3.4437Y-5.05
X3.4437Y-5.15
X3.4437Y-5.25
X3.4437Y-5.35
X3.4437Y-5.45
X3.4437Y-5.55
X3.45Y-6.4437
X3.45Y-6.7563
X3.55Y-6.4437
X3.55Y-6.7563
X3.65Y-6.4437
X3.65Y-6.7563
X3.75Y-6.4437
X3.75Y-6.7563
X3.7563Y-4.85
X3.7563Y-4.95
X3.7563Y-5.05
X3.7563Y-5.15
X3.7563Y-5.25
X3.7563Y-5.35
X3.7563Y-5.45
X3.7563Y-5.55
X3.85Y-6.4437
X3.85Y-6.7563
X3.95Y-6.4437
X3.95Y-6.7563
X5.1437Y-4.85
X5.1437Y-4.95
X5.1437Y-5.05
X5.1437Y-5.15
X5.1437Y-5.25
X5.1437Y-5.35
X5.1437Y-5.45
X5.1437Y-5.55
X5.35Y-6.5437
X5.35Y-6.8563
X5.45Y-6.5437
X5.45Y-6.8563
X5.4563Y-4.85
X5.4563Y-4.95
X5.4563Y-5.05
X5.4563Y-5.15
X5.4563Y-5.25
X5.4563Y-5.35
X5.4563Y-5.45
X5.4563Y-5.55
X5.55Y-6.5437
X5.55Y-6.8563
X5.65Y-6.5437
X5.65Y-6.8563
X5.75Y-6.5437
X5.75Y-6.8563
X5.85Y-6.5437
X5.85Y-6.8563
X5.95Y-6.5437
X5.95Y-6.8563
X6.05Y-6.5437
X6.05Y-6.8563
X6.8437Y-4.85
X6.8437Y-4.95
X6.8437Y-5.05
X6.8437Y-5.15
X6.8437Y-5.25
X6.8437Y-5.35
X6.8437Y-5.45
X6.8437Y-5.55
X7.15Y-6.5437
X7.15Y-6.8563
X7.1563Y-4.85
X7.1563Y-4.95
X7.1563Y-5.05
X7.1563Y-5.15
X7.1563Y-5.25
X7.1563Y-5.35
X7.1563Y-5.45
X7.1563Y-5.55
X7.25Y-6.5437
X7.25Y-6.8563
X7.35Y-6.5437
X7.35Y-6.8563
X7.4437Y-4.85
X7.4437Y-4.95
X7.4437Y-5.05
X7.4437Y-5.15
X7.4437Y-5.25
X7.4437Y-5.35
X7.4437Y-5.45
X7.4437Y-5.55
X7.45Y-6.5437
X7.45Y-6.8563
X7.55Y-6.5437
X7.55Y-6.8563
X7.65Y-6.5437
X7.65Y-6.8563
X7.75Y-6.5437
X7.75Y-6.8563
X7.7563Y-4.85
X7.7563Y-4.95
X7.7563Y-5.05
X7.7563Y-5.15
X7.7563Y-5.25
X7.7563Y-5.35
X7.7563Y-5.45
X7.7563Y-5.55
X7.85Y-6.5437
X7.85Y-6.8563
X8.05Y-7.0437
X8.05Y-7.3563
X8.15Y-7.0437
X8.15Y-7.3563
X8.25Y-7.0437
X8.25Y-7.3563
X8.35Y-7.0437
X8.35Y-7.3563
X8.45Y-7.0437
X8.45Y-7.3563
X8.55Y-7.0437
X8.55Y-7.3563
X8.65Y-7.0437
X8.65Y-7.3563
X8.75Y-7.0437
X8.75Y-7.3563
X9.15Y-6.3437
X9.15Y-6.6563
X9.25Y-6.3437
X9.25Y-6.6563
X9.3437Y-4.75
X9.3437Y-4.85
X9.3437Y-4.95
X9.3437Y-5.05
X9.3437Y-5.15
X9.3437Y-5.25
X9.3437Y-5.35
X9.3437Y-5.45
X9.35Y-6.3437
X9.35Y-6.6563
X9.45Y-6.3437
X9.45Y-6.6563
X9.55Y-6.3437
X9.55Y-6.6563
X9.65Y-6.3437
X9.65Y-6.6563
X9.6563Y-4.75
X9.6563Y-4.85
X9.6563Y-4.95
X9.6563Y-5.05
X9.6563Y-5.15
X9.6563Y-5.25
X9.6563Y-5.35
X9.6563Y-5.45
X9.75Y-6.3437
X9.75Y-6.6563
X9.85Y-6.3437
X9.85Y-6.6563
T3
X2.2Y-6.6
X2.2787Y-6.6
X4.3Y-6.5
X4.3787Y-6.5
X6.2213Y-6.7
X6.3Y-6.7
X8.1Y-6.7
X8.1787Y-6.7
X10.0Y-6.0
X10.0787Y-6.0
X11.1Y-6.7
X11.1787Y-6.7
T4
X1.3Y-4.2
X1.3Y-4.6
X1.6Y-4.2
X1.6Y-4.6
X1.7494Y-4.8004
X1.7494Y-4.9004
X1.7494Y-5.0004
X1.7494Y-5.1004
X1.7494Y-5.2004
X1.7494Y-5.3004
X1.7494Y-5.4004
X1.7494Y-5.5004
X1.7494Y-5.6004
X1.8Y-4.2
X1.8Y-4.6
X2.0Y-4.2
X2.0Y-4.6
X2.0494Y-4.8004
X2.0494Y-4.9004
X2.0494Y-5.0004
X2.0494Y-5.1004
X2.0494Y-5.2004
X2.0494Y-5.3004
X2.0494Y-5.4004
X2.0494Y-5.5004
X2.0494Y-5.6004
X2.1Y-5.9
X2.1Y-6.3
X2.1Y-7.5
X2.2Y-4.2
X2.2Y-4.6
X2.3Y-5.9
X2.3Y-6.2
X2.3504Y-5.3504
X2.3504Y-5.4504
X2.3504Y-5.5504
X2.3504Y-5.6504
X2.4Y-4.2
X2.4Y-4.6
X2.5Y-7.5
X2.6Y-4.2
X2.6Y-4.6
X2.6504Y-5.3504
X2.6504Y-5.4504
X2.6504Y-5.5504
X2.6504Y-5.6504
X2.7Y-5.9
X2.7Y-6.2
X2.8Y-4.2
X2.8Y-4.6
X3.3Y-4.2
X3.3Y-4.6
X3.5506Y-6.9496
X3.5506Y-7.2496
X3.6Y-4.2
X3.6Y-4.6
X3.6506Y-6.9496
X3.6506Y-7.2496
X3.7506Y-6.9496
X3.7506Y-7.2496
X3.8506Y-6.9496
X3.8506Y-7.2496
X3.9Y-4.2
X3.9Y-4.6
X3.9494Y-4.8004
X3.9494Y-4.9004
X3.9494Y-5.0004
X3.9494Y-5.1004
X3.9494Y-5.2004
X3.9494Y-5.3004
X3.9494Y-5.4004
X3.9494Y-5.5004
X3.9494Y-5.6004
X3.9506Y-6.9496
X3.9506Y-7.2496
X4.0Y-5.8
X4.0Y-6.2
X4.0506Y-6.9496
X4.0506Y-7.2496
X4.1Y-4.2
X4.1Y-4.6
X4.1506Y-6.9496
X4.1506Y-7.2496
X4.2494Y-4.8004
X4.2494Y-4.9004
X4.2494Y-5.0004
X4.2494Y-5.1004
X4.2494Y-5.2004
X4.2494Y-5.3004
X4.2494Y-5.4004
X4.2494Y-5.5004
X4.2494Y-5.6004
X4.2506Y-6.9496
X4.2506Y-7.2496
X4.3Y-4.2
X4.3Y-4.6
X4.5Y-4.2
X4.5Y-4.6
X4.5504Y-5.8504
X4.5504Y-5.9504
X4.5504Y-6.0504
X4.5504Y-6.1504
X4.7Y-4.2
X4.7Y-4.6
X4.8504Y-5.8504
X4.8504Y-5.9504
X4.8504Y-6.0504
X4.8504Y-6.1504
X4.9Y-4.2
X4.9Y-4.6
X5.1Y-4.2
X5.1Y-4.6
X5.1Y-7.1
X5.1Y-7.3
X5.1Y-7.5
X5.4Y-4.2
X5.4Y-4.6
X5.5Y-7.1
X5.5Y-7.3
X5.5Y-7.5
X5.6494Y-4.8004
X5.6494Y-4.9004
X5.6494Y-5.0004
X5.6494Y-5.1004
X5.6494Y-5.2004
X5.6494Y-5.3004
X5.6494Y-5.4004
X5.6494Y-5.5004
X5.6494Y-5.6004
X5.7Y-4.2
X5.7Y-4.6
X5.7Y-7.1
X5.9Y-4.2
X5.9Y-4.6
X5.9494Y-4.8004
X5.9494Y-4.9004
X5.9494Y-5.0004
X5.9494Y-5.1004
X5.9494Y-5.2004
X5.9494Y-5.3004
X5.9494Y-5.4004
X5.9494Y-5.5004
X5.9494Y-5.6004
X6.1Y-4.2
X6.1Y-4.6
X6.1Y-5.7
X6.1Y-5.9
X6.1Y-6.3
X6.1Y-7.1
X6.2Y-7.1
X6.2764Y-5.3543
X6.3Y-4.2
X6.3Y-4.6
X6.3Y-5.9
X6.3Y-6.3
X6.5Y-4.2
X6.5Y-4.6
X6.5Y-5.7
X6.6Y-7.1
X6.6504Y-5.9504
X6.6504Y-6.0504
X6.6504Y-6.1504
X6.6504Y-6.2504
X6.6764Y-5.3543
X6.7Y-4.2
X6.7Y-4.6
X6.9Y-4.2
X6.9Y-4.6
X6.9Y-7.1
X6.9Y-7.5
X6.9504Y-5.9504
X6.9504Y-6.0504
X6.9504Y-6.1504
X6.9504Y-6.2504
X7.5Y-4.2
X7.5Y-4.6
X7.8Y-4.2
X7.8Y-4.6
X7.9494Y-4.8004
X7.9494Y-4.9004
X7.9494Y-5.0004
X7.9494Y-5.1004
X7.9494Y-5.2004
X7.9494Y-5.3004
X7.9494Y-5.4004
X7.9494Y-5.5004
X7.9494Y-5.6004
X8.0Y-4.2
X8.0Y-4.6
X8.1Y-5.8
X8.1Y-6.2
X8.2Y-4.2
X8.2Y-4.6
X8.2494Y-4.8004
X8.2494Y-4.9004
X8.2494Y-5.0004
X8.2494Y-5.1004
X8.2494Y-5.2004
X8.2494Y-5.3004
X8.2494Y-5.4004
X8.2494Y-5.5004
X8.2494Y-5.6004
X8.3Y-5.8
X8.3Y-6.2
X8.4Y-4.2
X8.4Y-4.6
X8.4Y-5.2
X8.4Y-5.6
X8.6Y-4.2
X8.6Y-4.6
X8.7504Y-5.8504
X8.7504Y-5.9504
X8.7504Y-6.0504
X8.7504Y-6.1504
X8.8Y-4.2
X8.8Y-4.6
X8.8Y-5.2
X8.8Y-5.6
X9.0Y-4.2
X9.0Y-4.6
X9.0504Y-5.8504
X9.0504Y-5.9504
X9.0504Y-6.0504
X9.0504Y-6.1504
X9.4Y-4.2
X9.4Y-4.6
X9.4Y-6.9
X9.7Y-4.2
X9.7Y-4.6
X9.8Y-6.9
X9.9Y-4.2
X9.9Y-4.6
X9.9494Y-4.8004
X9.9494Y-4.9004
X9.9494Y-5.0004
X9.9494Y-5.1004
X9.9494Y-5.2004
X9.9494Y-5.3004
X9.9494Y-5.4004
X9.9494Y-5.5004
X9.9494Y-5.6004
X10.0504Y-6.3504
X10.0504Y-6.4504
X10.0504Y-6.5504
X10.0504Y-6.6504
X10.1Y-4.2
X10.1Y-4.6
X10.2494Y-4.8004
X10.2494Y-4.9004
X10.2494Y-5.0004
X10.2494Y-5.1004
X10.2494Y-5.2004
X10.2494Y-5.3004
X10.2494Y-5.4004
X10.2494Y-5.5004
X10.2494Y-5.6004
X10.3Y-4.2
X10.3Y-4.6
X10.3504Y-6.3504
X10.3504Y-6.4504
X10.3504Y-6.5504
X10.3504Y-6.6504
X10.5Y-4.2
X10.5Y-4.6
X10.7Y-4.2
X10.7Y-4.6
X10.8Y-5.1
X10.8Y-5.3
X10.8Y-5.5
X10.8Y-5.7
X10.9Y-4.2
X10.9Y-4.6
X11.2Y-5.1
X11.2Y-5.3
X11.2Y-5.5
X11.2Y-5.7
T5
X10.2Y-7.0
X10.3969Y-7.0
T6
X1.3Y-7.0
X1.3Y-7.3
X1.4Y-7.0
X1.4Y-7.3
X1.5Y-7.0
X1.5Y-7.3
X1.6Y-7.0
X1.6Y-7.3
X1.7Y-7.0
X1.7Y-7.3
X1.8Y-7.0
X1.8Y-7.3
X1.9Y-7.0
X1.9Y-7.3
X2.1Y-1.5169
X2.1Y-3.8831
X2.2Y-1.5169
X2.2Y-3.8831
X2.3Y-1.5169
X2.3Y-3.8831
X2.4Y-1.5169
X2.4Y-3.8831
X2.5Y-1.5169
X2.5Y-3.8831
X2.5988Y-6.95
X2.5988Y-7.25
X2.6988Y-6.95
X2.6988Y-7.25
X2.7988Y-6.95
X2.7988Y-7.25
X2.8988Y-6.95
X2.8988Y-7.25
X2.9988Y-6.95
X2.9988Y-7.25
X3.0988Y-6.95
X3.0988Y-7.25
X3.1988Y-6.95
X3.1988Y-7.25
X4.1Y-1.5169
X4.1Y-3.8831
X4.2Y-1.5169
X4.2Y-3.8831
X4.3Y-1.5169
X4.3Y-3.8831
X4.4Y-1.5169
X4.4Y-3.8831
X4.5Y-1.5169
X4.5Y-3.8831
X6.1Y-1.5169
X6.1Y-3.8831
X6.2Y-1.5169
X6.2Y-3.8831
X6.3Y-1.5169
X6.3Y-3.8831
X6.4Y-1.5169
X6.4Y-3.8831
X6.5Y-1.5169
X6.5Y-3.8831
X7.1988Y-7.05
X7.1988Y-7.35
X7.2988Y-7.05
X7.2988Y-7.35
X7.3988Y-7.05
X7.3988Y-7.35
X7.4988Y-7.05
X7.4988Y-7.35
X7.5988Y-7.05
X7.5988Y-7.35
X7.6988Y-7.05
X7.6988Y-7.35
X7.7988Y-7.05
X7.7988Y-7.35
X8.1Y-1.5169
X8.1Y-3.8831
X8.2Y-1.5169
X8.2Y-3.8831
X8.3Y-1.5169
X8.3Y-3.8831
X8.4Y-1.5169
X8.4Y-3.8831
X8.5Y-1.5169
X8.5Y-3.8831
X10.1Y-1.5169
X10.1Y-3.8831
X10.2Y-1.5169
X10.2Y-3.8831
X10.3Y-1.5169
X10.3Y-3.8831
X10.4Y-1.5169
X10.4Y-3.8831
X10.5Y-1.5169
X10.5Y-3.8831
X10.9Y-6.2
X11.0Y-6.2
X11.1Y-6.2
T7
X1.2Y-5.9
X1.2Y-6.1
X1.2Y-6.3
X1.6Y-5.9
X1.6Y-6.1
X1.6Y-6.3
X2.4189Y-4.8
X2.4189Y-5.1
X2.6Y-4.8
X2.6Y-5.1
X3.3Y-5.8
X3.3Y-6.0
X3.3Y-6.2
X3.4189Y-7.5
X3.6Y-7.5
X3.7Y-5.8
X3.7Y-6.0
X3.7Y-6.2
X3.9Y-7.5
X4.0811Y-7.5
X4.5Y-7.0
X4.5Y-7.2
X4.9Y-7.0
X4.9Y-7.2
X5.3Y-5.8
X5.3Y-6.0
X5.3Y-6.2
X5.7Y-5.8
X5.7Y-6.0
X5.7Y-6.2
X5.7189Y-7.4
X5.9Y-7.4
X6.1Y-7.4
X6.2811Y-7.4
X6.4089Y-4.815
X6.4252Y-5.1
X6.5Y-7.4
X6.59Y-4.815
X6.6063Y-5.1
X6.6811Y-7.4
X7.3Y-5.8
X7.3Y-6.0
X7.3Y-6.2
X7.7Y-5.8
X7.7Y-6.0
X7.7Y-6.2
X9.3Y-5.6736
X9.3Y-5.8736
X9.3Y-6.0736
X9.4Y-7.2
X9.4Y-7.3811
X9.7Y-5.6736
X9.7Y-5.8736
X9.7Y-6.0736
X9.7Y-7.2
X9.7Y-7.3811
X9.9189Y-7.4
X10.1Y-7.4
X10.5Y-5.1189
X10.5Y-5.3
X10.6Y-6.4
X10.6Y-6.8
T8
X9.0Y-7.1
X9.0Y-7.4
X10.422Y-7.4
X10.611Y-7.4
X10.8Y-7.4
T9
X1.2992Y-7.5197
X1.3386Y-1.0236
X11.122Y-1.0433
X11.1614Y-7.4409
T0
M30
