G04 #@! TF.GenerationSoftware,KiCad,Pcbnew,(6.0.2)*
G04 #@! TF.CreationDate,2022-04-29T17:41:02+02:00*
G04 #@! TF.ProjectId,Kniffel_V1,4b6e6966-6665-46c5-9f56-312e6b696361,rev?*
G04 #@! TF.SameCoordinates,Original*
G04 #@! TF.FileFunction,Legend,Bot*
G04 #@! TF.FilePolarity,Positive*
%FSLAX46Y46*%
G04 Gerber Fmt 4.6, Leading zero omitted, Abs format (unit mm)*
G04 Created by KiCad (PCBNEW (6.0.2)) date 2022-04-29 17:41:02*
%MOMM*%
%LPD*%
G01*
G04 APERTURE LIST*
G04 Aperture macros list*
%AMRoundRect*
0 Rectangle with rounded corners*
0 $1 Rounding radius*
0 $2 $3 $4 $5 $6 $7 $8 $9 X,Y pos of 4 corners*
0 Add a 4 corners polygon primitive as box body*
4,1,4,$2,$3,$4,$5,$6,$7,$8,$9,$2,$3,0*
0 Add four circle primitives for the rounded corners*
1,1,$1+$1,$2,$3*
1,1,$1+$1,$4,$5*
1,1,$1+$1,$6,$7*
1,1,$1+$1,$8,$9*
0 Add four rect primitives between the rounded corners*
20,1,$1+$1,$2,$3,$4,$5,0*
20,1,$1+$1,$4,$5,$6,$7,0*
20,1,$1+$1,$6,$7,$8,$9,0*
20,1,$1+$1,$8,$9,$2,$3,0*%
G04 Aperture macros list end*
%ADD10C,0.150000*%
%ADD11C,0.254000*%
%ADD12C,0.100000*%
%ADD13C,0.200000*%
%ADD14C,1.600000*%
%ADD15O,1.600000X1.600000*%
%ADD16RoundRect,0.250002X-1.499998X-1.499998X1.499998X-1.499998X1.499998X1.499998X-1.499998X1.499998X0*%
%ADD17R,1.130000X1.130000*%
%ADD18C,1.130000*%
%ADD19RoundRect,0.250001X-0.799999X0.799999X-0.799999X-0.799999X0.799999X-0.799999X0.799999X0.799999X0*%
%ADD20C,2.100000*%
%ADD21R,2.400000X1.600000*%
%ADD22O,2.400000X1.600000*%
%ADD23R,2.200000X2.200000*%
%ADD24O,2.200000X2.200000*%
%ADD25R,1.600000X1.600000*%
%ADD26C,1.200000*%
%ADD27RoundRect,0.249999X-1.025001X-1.025001X1.025001X-1.025001X1.025001X1.025001X-1.025001X1.025001X0*%
%ADD28C,2.550000*%
%ADD29RoundRect,0.250001X-0.799999X-0.799999X0.799999X-0.799999X0.799999X0.799999X-0.799999X0.799999X0*%
%ADD30R,1.150000X1.150000*%
%ADD31C,1.150000*%
%ADD32C,5.600000*%
%ADD33R,1.500000X2.300000*%
%ADD34O,1.500000X2.300000*%
%ADD35R,1.275000X1.275000*%
%ADD36C,1.275000*%
%ADD37R,1.500000X1.500000*%
%ADD38C,1.500000*%
%ADD39RoundRect,0.250001X0.799999X0.799999X-0.799999X0.799999X-0.799999X-0.799999X0.799999X-0.799999X0*%
%ADD40RoundRect,0.250001X0.799999X-0.799999X0.799999X0.799999X-0.799999X0.799999X-0.799999X-0.799999X0*%
G04 APERTURE END LIST*
D10*
X195000000Y-191000000D02*
X196000000Y-190000000D01*
X194000000Y-190000000D02*
X195000000Y-191000000D01*
X193000000Y-191000000D02*
X194000000Y-190000000D01*
X196000000Y-190000000D02*
X193000000Y-190000000D01*
X196000000Y-191000000D02*
X193000000Y-191000000D01*
X194000000Y-192000000D02*
X195000000Y-192000000D01*
X193000000Y-190000000D02*
X193000000Y-191000000D01*
X195000000Y-189000000D02*
X194000000Y-189000000D01*
X196000000Y-191000000D02*
X196000000Y-190000000D01*
X195000000Y-192000000D02*
G75*
G03*
X196000000Y-191000000I0J1000000D01*
G01*
X193000000Y-191000000D02*
G75*
G03*
X194000000Y-192000000I1000000J0D01*
G01*
X196000000Y-190000000D02*
G75*
G03*
X195000000Y-189000000I-1000000J0D01*
G01*
X194000000Y-189000000D02*
G75*
G03*
X193000000Y-190000000I0J-1000000D01*
G01*
D11*
X57422142Y-64074523D02*
X57422142Y-62804523D01*
X57119761Y-62804523D01*
X56938333Y-62865000D01*
X56817380Y-62985952D01*
X56756904Y-63106904D01*
X56696428Y-63348809D01*
X56696428Y-63530238D01*
X56756904Y-63772142D01*
X56817380Y-63893095D01*
X56938333Y-64014047D01*
X57119761Y-64074523D01*
X57422142Y-64074523D01*
X56212619Y-64014047D02*
X56031190Y-64074523D01*
X55728809Y-64074523D01*
X55607857Y-64014047D01*
X55547380Y-63953571D01*
X55486904Y-63832619D01*
X55486904Y-63711666D01*
X55547380Y-63590714D01*
X55607857Y-63530238D01*
X55728809Y-63469761D01*
X55970714Y-63409285D01*
X56091666Y-63348809D01*
X56152142Y-63288333D01*
X56212619Y-63167380D01*
X56212619Y-63046428D01*
X56152142Y-62925476D01*
X56091666Y-62865000D01*
X55970714Y-62804523D01*
X55668333Y-62804523D01*
X55486904Y-62865000D01*
X54277380Y-64074523D02*
X55003095Y-64074523D01*
X54640238Y-64074523D02*
X54640238Y-62804523D01*
X54761190Y-62985952D01*
X54882142Y-63106904D01*
X55003095Y-63167380D01*
D10*
X64549523Y-119122380D02*
X64549523Y-119836666D01*
X64597142Y-119979523D01*
X64692380Y-120074761D01*
X64835238Y-120122380D01*
X64930476Y-120122380D01*
X63549523Y-120122380D02*
X64120952Y-120122380D01*
X63835238Y-120122380D02*
X63835238Y-119122380D01*
X63930476Y-119265238D01*
X64025714Y-119360476D01*
X64120952Y-119408095D01*
X62597142Y-120122380D02*
X63168571Y-120122380D01*
X62882857Y-120122380D02*
X62882857Y-119122380D01*
X62978095Y-119265238D01*
X63073333Y-119360476D01*
X63168571Y-119408095D01*
D11*
X110762142Y-61534523D02*
X110762142Y-60264523D01*
X110459761Y-60264523D01*
X110278333Y-60325000D01*
X110157380Y-60445952D01*
X110096904Y-60566904D01*
X110036428Y-60808809D01*
X110036428Y-60990238D01*
X110096904Y-61232142D01*
X110157380Y-61353095D01*
X110278333Y-61474047D01*
X110459761Y-61534523D01*
X110762142Y-61534523D01*
X109552619Y-61474047D02*
X109371190Y-61534523D01*
X109068809Y-61534523D01*
X108947857Y-61474047D01*
X108887380Y-61413571D01*
X108826904Y-61292619D01*
X108826904Y-61171666D01*
X108887380Y-61050714D01*
X108947857Y-60990238D01*
X109068809Y-60929761D01*
X109310714Y-60869285D01*
X109431666Y-60808809D01*
X109492142Y-60748333D01*
X109552619Y-60627380D01*
X109552619Y-60506428D01*
X109492142Y-60385476D01*
X109431666Y-60325000D01*
X109310714Y-60264523D01*
X109008333Y-60264523D01*
X108826904Y-60325000D01*
X108343095Y-60385476D02*
X108282619Y-60325000D01*
X108161666Y-60264523D01*
X107859285Y-60264523D01*
X107738333Y-60325000D01*
X107677857Y-60385476D01*
X107617380Y-60506428D01*
X107617380Y-60627380D01*
X107677857Y-60808809D01*
X108403571Y-61534523D01*
X107617380Y-61534523D01*
X212362142Y-69154523D02*
X212362142Y-67884523D01*
X212059761Y-67884523D01*
X211878333Y-67945000D01*
X211757380Y-68065952D01*
X211696904Y-68186904D01*
X211636428Y-68428809D01*
X211636428Y-68610238D01*
X211696904Y-68852142D01*
X211757380Y-68973095D01*
X211878333Y-69094047D01*
X212059761Y-69154523D01*
X212362142Y-69154523D01*
X211152619Y-69094047D02*
X210971190Y-69154523D01*
X210668809Y-69154523D01*
X210547857Y-69094047D01*
X210487380Y-69033571D01*
X210426904Y-68912619D01*
X210426904Y-68791666D01*
X210487380Y-68670714D01*
X210547857Y-68610238D01*
X210668809Y-68549761D01*
X210910714Y-68489285D01*
X211031666Y-68428809D01*
X211092142Y-68368333D01*
X211152619Y-68247380D01*
X211152619Y-68126428D01*
X211092142Y-68005476D01*
X211031666Y-67945000D01*
X210910714Y-67884523D01*
X210608333Y-67884523D01*
X210426904Y-67945000D01*
X209338333Y-68307857D02*
X209338333Y-69154523D01*
X209640714Y-67824047D02*
X209943095Y-68731190D01*
X209156904Y-68731190D01*
D10*
X166309523Y-126742380D02*
X166309523Y-127456666D01*
X166357142Y-127599523D01*
X166452380Y-127694761D01*
X166595238Y-127742380D01*
X166690476Y-127742380D01*
X165309523Y-127742380D02*
X165880952Y-127742380D01*
X165595238Y-127742380D02*
X165595238Y-126742380D01*
X165690476Y-126885238D01*
X165785714Y-126980476D01*
X165880952Y-127028095D01*
X164452380Y-127075714D02*
X164452380Y-127742380D01*
X164690476Y-126694761D02*
X164928571Y-127409047D01*
X164309523Y-127409047D01*
X64549523Y-126742380D02*
X64549523Y-127456666D01*
X64597142Y-127599523D01*
X64692380Y-127694761D01*
X64835238Y-127742380D01*
X64930476Y-127742380D01*
X63549523Y-127742380D02*
X64120952Y-127742380D01*
X63835238Y-127742380D02*
X63835238Y-126742380D01*
X63930476Y-126885238D01*
X64025714Y-126980476D01*
X64120952Y-127028095D01*
X63168571Y-126837619D02*
X63120952Y-126790000D01*
X63025714Y-126742380D01*
X62787619Y-126742380D01*
X62692380Y-126790000D01*
X62644761Y-126837619D01*
X62597142Y-126932857D01*
X62597142Y-127028095D01*
X62644761Y-127170952D01*
X63216190Y-127742380D01*
X62597142Y-127742380D01*
X268402380Y-131510476D02*
X269116666Y-131510476D01*
X269259523Y-131462857D01*
X269354761Y-131367619D01*
X269402380Y-131224761D01*
X269402380Y-131129523D01*
X269402380Y-132510476D02*
X269402380Y-131939047D01*
X269402380Y-132224761D02*
X268402380Y-132224761D01*
X268545238Y-132129523D01*
X268640476Y-132034285D01*
X268688095Y-131939047D01*
X268402380Y-133415238D02*
X268402380Y-132939047D01*
X268878571Y-132891428D01*
X268830952Y-132939047D01*
X268783333Y-133034285D01*
X268783333Y-133272380D01*
X268830952Y-133367619D01*
X268878571Y-133415238D01*
X268973809Y-133462857D01*
X269211904Y-133462857D01*
X269307142Y-133415238D01*
X269354761Y-133367619D01*
X269402380Y-133272380D01*
X269402380Y-133034285D01*
X269354761Y-132939047D01*
X269307142Y-132891428D01*
D11*
X263162142Y-69154523D02*
X263162142Y-67884523D01*
X262859761Y-67884523D01*
X262678333Y-67945000D01*
X262557380Y-68065952D01*
X262496904Y-68186904D01*
X262436428Y-68428809D01*
X262436428Y-68610238D01*
X262496904Y-68852142D01*
X262557380Y-68973095D01*
X262678333Y-69094047D01*
X262859761Y-69154523D01*
X263162142Y-69154523D01*
X261952619Y-69094047D02*
X261771190Y-69154523D01*
X261468809Y-69154523D01*
X261347857Y-69094047D01*
X261287380Y-69033571D01*
X261226904Y-68912619D01*
X261226904Y-68791666D01*
X261287380Y-68670714D01*
X261347857Y-68610238D01*
X261468809Y-68549761D01*
X261710714Y-68489285D01*
X261831666Y-68428809D01*
X261892142Y-68368333D01*
X261952619Y-68247380D01*
X261952619Y-68126428D01*
X261892142Y-68005476D01*
X261831666Y-67945000D01*
X261710714Y-67884523D01*
X261408333Y-67884523D01*
X261226904Y-67945000D01*
X260077857Y-67884523D02*
X260682619Y-67884523D01*
X260743095Y-68489285D01*
X260682619Y-68428809D01*
X260561666Y-68368333D01*
X260259285Y-68368333D01*
X260138333Y-68428809D01*
X260077857Y-68489285D01*
X260017380Y-68610238D01*
X260017380Y-68912619D01*
X260077857Y-69033571D01*
X260138333Y-69094047D01*
X260259285Y-69154523D01*
X260561666Y-69154523D01*
X260682619Y-69094047D01*
X260743095Y-69033571D01*
X161562142Y-81854523D02*
X161562142Y-80584523D01*
X161259761Y-80584523D01*
X161078333Y-80645000D01*
X160957380Y-80765952D01*
X160896904Y-80886904D01*
X160836428Y-81128809D01*
X160836428Y-81310238D01*
X160896904Y-81552142D01*
X160957380Y-81673095D01*
X161078333Y-81794047D01*
X161259761Y-81854523D01*
X161562142Y-81854523D01*
X160352619Y-81794047D02*
X160171190Y-81854523D01*
X159868809Y-81854523D01*
X159747857Y-81794047D01*
X159687380Y-81733571D01*
X159626904Y-81612619D01*
X159626904Y-81491666D01*
X159687380Y-81370714D01*
X159747857Y-81310238D01*
X159868809Y-81249761D01*
X160110714Y-81189285D01*
X160231666Y-81128809D01*
X160292142Y-81068333D01*
X160352619Y-80947380D01*
X160352619Y-80826428D01*
X160292142Y-80705476D01*
X160231666Y-80645000D01*
X160110714Y-80584523D01*
X159808333Y-80584523D01*
X159626904Y-80645000D01*
X159203571Y-80584523D02*
X158417380Y-80584523D01*
X158840714Y-81068333D01*
X158659285Y-81068333D01*
X158538333Y-81128809D01*
X158477857Y-81189285D01*
X158417380Y-81310238D01*
X158417380Y-81612619D01*
X158477857Y-81733571D01*
X158538333Y-81794047D01*
X158659285Y-81854523D01*
X159022142Y-81854523D01*
X159143095Y-81794047D01*
X159203571Y-81733571D01*
D10*
X165895523Y-119503380D02*
X165895523Y-120217666D01*
X165943142Y-120360523D01*
X166038380Y-120455761D01*
X166181238Y-120503380D01*
X166276476Y-120503380D01*
X164895523Y-120503380D02*
X165466952Y-120503380D01*
X165181238Y-120503380D02*
X165181238Y-119503380D01*
X165276476Y-119646238D01*
X165371714Y-119741476D01*
X165466952Y-119789095D01*
X164562190Y-119503380D02*
X163943142Y-119503380D01*
X164276476Y-119884333D01*
X164133619Y-119884333D01*
X164038380Y-119931952D01*
X163990761Y-119979571D01*
X163943142Y-120074809D01*
X163943142Y-120312904D01*
X163990761Y-120408142D01*
X164038380Y-120455761D01*
X164133619Y-120503380D01*
X164419333Y-120503380D01*
X164514571Y-120455761D01*
X164562190Y-120408142D01*
D12*
X63500000Y-104030000D02*
X63500000Y-104030000D01*
D13*
X82420000Y-33580000D02*
X82420000Y-103580000D01*
X34420000Y-33580000D02*
X82420000Y-33580000D01*
X82420000Y-103580000D02*
X34420000Y-103580000D01*
X34420000Y-103580000D02*
X34420000Y-33580000D01*
D12*
X63500000Y-104130000D02*
X63500000Y-104130000D01*
X63500000Y-104130000D02*
G75*
G03*
X63500000Y-104030000I0J50000D01*
G01*
X63500000Y-104030000D02*
G75*
G03*
X63500000Y-104130000I0J-50000D01*
G01*
D13*
X85220000Y-103580000D02*
X85220000Y-33580000D01*
X85220000Y-33580000D02*
X133220000Y-33580000D01*
X133220000Y-33580000D02*
X133220000Y-103580000D01*
D12*
X114300000Y-104030000D02*
X114300000Y-104030000D01*
X114300000Y-104130000D02*
X114300000Y-104130000D01*
D13*
X133220000Y-103580000D02*
X85220000Y-103580000D01*
D12*
X114300000Y-104130000D02*
G75*
G03*
X114300000Y-104030000I0J50000D01*
G01*
X114300000Y-104030000D02*
G75*
G03*
X114300000Y-104130000I0J-50000D01*
G01*
X215900000Y-104030000D02*
X215900000Y-104030000D01*
D13*
X234820000Y-103580000D02*
X186820000Y-103580000D01*
X234820000Y-33580000D02*
X234820000Y-103580000D01*
X186820000Y-103580000D02*
X186820000Y-33580000D01*
X186820000Y-33580000D02*
X234820000Y-33580000D01*
D12*
X215900000Y-104130000D02*
X215900000Y-104130000D01*
X215900000Y-104130000D02*
G75*
G03*
X215900000Y-104030000I0J50000D01*
G01*
X215900000Y-104030000D02*
G75*
G03*
X215900000Y-104130000I0J-50000D01*
G01*
D13*
X285620000Y-103580000D02*
X237620000Y-103580000D01*
D12*
X266700000Y-104130000D02*
X266700000Y-104130000D01*
D13*
X285620000Y-33580000D02*
X285620000Y-103580000D01*
X237620000Y-33580000D02*
X285620000Y-33580000D01*
D12*
X266700000Y-104030000D02*
X266700000Y-104030000D01*
D13*
X237620000Y-103580000D02*
X237620000Y-33580000D01*
D12*
X266700000Y-104030000D02*
G75*
G03*
X266700000Y-104130000I0J-50000D01*
G01*
X266700000Y-104130000D02*
G75*
G03*
X266700000Y-104030000I0J50000D01*
G01*
D13*
X136020000Y-33580000D02*
X184020000Y-33580000D01*
X184020000Y-103580000D02*
X136020000Y-103580000D01*
X136020000Y-103580000D02*
X136020000Y-33580000D01*
X184020000Y-33580000D02*
X184020000Y-103580000D01*
D12*
X165100000Y-104030000D02*
X165100000Y-104030000D01*
X165100000Y-104130000D02*
X165100000Y-104130000D01*
X165100000Y-104130000D02*
G75*
G03*
X165100000Y-104030000I0J50000D01*
G01*
X165100000Y-104030000D02*
G75*
G03*
X165100000Y-104130000I0J-50000D01*
G01*
%LPC*%
D14*
X198120000Y-116840000D03*
D15*
X198120000Y-106680000D03*
D14*
X165100000Y-116840000D03*
D15*
X165100000Y-106680000D03*
D14*
X91440000Y-116840000D03*
D15*
X91440000Y-106680000D03*
D16*
X228600000Y-180340000D03*
D14*
X205740000Y-157480000D03*
D15*
X205740000Y-147320000D03*
D14*
X104140000Y-116840000D03*
D15*
X104140000Y-106680000D03*
D17*
X87470000Y-123190000D03*
D18*
X87470000Y-125730000D03*
X87470000Y-128270000D03*
X87470000Y-130810000D03*
X87470000Y-133350000D03*
X87470000Y-135890000D03*
X87470000Y-138430000D03*
X87470000Y-140970000D03*
X95410000Y-140970000D03*
X95410000Y-138430000D03*
X95410000Y-135890000D03*
X95410000Y-133350000D03*
X95410000Y-130810000D03*
X95410000Y-128270000D03*
X95410000Y-125730000D03*
X95410000Y-123190000D03*
D19*
X246380000Y-182880000D03*
D20*
X246380000Y-187480000D03*
D14*
X101600000Y-157480000D03*
D15*
X101600000Y-147320000D03*
D21*
X100315000Y-121930000D03*
D22*
X100315000Y-124470000D03*
X100315000Y-127010000D03*
X100315000Y-129550000D03*
X100315000Y-132090000D03*
X100315000Y-134630000D03*
X100315000Y-137170000D03*
X100315000Y-139710000D03*
X100315000Y-142250000D03*
X107935000Y-142250000D03*
X107935000Y-139710000D03*
X107935000Y-137170000D03*
X107935000Y-134630000D03*
X107935000Y-132090000D03*
X107935000Y-129550000D03*
X107935000Y-127010000D03*
X107935000Y-124470000D03*
X107935000Y-121930000D03*
D19*
X238760000Y-182880000D03*
D20*
X238760000Y-187480000D03*
D14*
X274320000Y-144780000D03*
D15*
X284480000Y-144780000D03*
D14*
X58420000Y-157480000D03*
D15*
X68580000Y-157480000D03*
D14*
X144780000Y-180340000D03*
D15*
X154940000Y-180340000D03*
D14*
X144780000Y-116840000D03*
D15*
X144780000Y-106680000D03*
D14*
X238760000Y-116840000D03*
D15*
X238760000Y-106680000D03*
D14*
X154940000Y-144780000D03*
D15*
X165100000Y-144780000D03*
D14*
X66040000Y-116840000D03*
D15*
X66040000Y-106680000D03*
D14*
X213360000Y-132080000D03*
D15*
X223520000Y-132080000D03*
D14*
X58420000Y-149860000D03*
D15*
X68580000Y-149860000D03*
D23*
X114300000Y-182880000D03*
D24*
X124460000Y-182880000D03*
D17*
X130650000Y-123190000D03*
D18*
X130650000Y-125730000D03*
X130650000Y-128270000D03*
X130650000Y-130810000D03*
X130650000Y-133350000D03*
X130650000Y-135890000D03*
X130650000Y-138430000D03*
X130650000Y-140970000D03*
X138590000Y-140970000D03*
X138590000Y-138430000D03*
X138590000Y-135890000D03*
X138590000Y-133350000D03*
X138590000Y-130810000D03*
X138590000Y-128270000D03*
X138590000Y-125730000D03*
X138590000Y-123190000D03*
D25*
X115580000Y-148600000D03*
D15*
X115580000Y-151140000D03*
X115580000Y-153680000D03*
X115580000Y-156220000D03*
X123200000Y-156220000D03*
X123200000Y-153680000D03*
X123200000Y-151140000D03*
X123200000Y-148600000D03*
D26*
X66040000Y-167640000D03*
X71040000Y-167640000D03*
D14*
X53340000Y-190500000D03*
D15*
X63500000Y-190500000D03*
D23*
X185420000Y-147320000D03*
D24*
X195580000Y-147320000D03*
D17*
X237330000Y-120650000D03*
D18*
X237330000Y-123190000D03*
X237330000Y-125730000D03*
X237330000Y-128270000D03*
X237330000Y-130810000D03*
X237330000Y-133350000D03*
X237330000Y-135890000D03*
X237330000Y-138430000D03*
X245270000Y-138430000D03*
X245270000Y-135890000D03*
X245270000Y-133350000D03*
X245270000Y-130810000D03*
X245270000Y-128270000D03*
X245270000Y-125730000D03*
X245270000Y-123190000D03*
X245270000Y-120650000D03*
D14*
X213360000Y-116840000D03*
D15*
X213360000Y-106680000D03*
D23*
X269240000Y-162560000D03*
D24*
X269240000Y-172720000D03*
D17*
X31590000Y-123190000D03*
D18*
X31590000Y-125730000D03*
X31590000Y-128270000D03*
X31590000Y-130810000D03*
X31590000Y-133350000D03*
X31590000Y-135890000D03*
X31590000Y-138430000D03*
X31590000Y-140970000D03*
X39530000Y-140970000D03*
X39530000Y-138430000D03*
X39530000Y-135890000D03*
X39530000Y-133350000D03*
X39530000Y-130810000D03*
X39530000Y-128270000D03*
X39530000Y-125730000D03*
X39530000Y-123190000D03*
D23*
X30480000Y-160020000D03*
D24*
X40640000Y-160020000D03*
D25*
X222260000Y-148600000D03*
D15*
X222260000Y-151140000D03*
X222260000Y-153680000D03*
X222260000Y-156220000D03*
X229880000Y-156220000D03*
X229880000Y-153680000D03*
X229880000Y-151140000D03*
X229880000Y-148600000D03*
D27*
X264720000Y-187960000D03*
D28*
X269520000Y-187960000D03*
X274320000Y-187960000D03*
D26*
X264160000Y-152400000D03*
X269160000Y-152400000D03*
D29*
X145260000Y-187960000D03*
D20*
X149860000Y-187960000D03*
D14*
X50800000Y-116840000D03*
D15*
X50800000Y-106680000D03*
D23*
X134620000Y-157480000D03*
D24*
X144780000Y-157480000D03*
D17*
X82550000Y-171610000D03*
D18*
X85090000Y-171610000D03*
X87630000Y-171610000D03*
X90170000Y-171610000D03*
X92710000Y-171610000D03*
X95250000Y-171610000D03*
X97790000Y-171610000D03*
X100330000Y-171610000D03*
X100330000Y-163670000D03*
X97790000Y-163670000D03*
X95250000Y-163670000D03*
X92710000Y-163670000D03*
X90170000Y-163670000D03*
X87630000Y-163670000D03*
X85090000Y-163670000D03*
X82550000Y-163670000D03*
D23*
X83820000Y-157480000D03*
D24*
X93980000Y-157480000D03*
D14*
X99060000Y-116840000D03*
D15*
X99060000Y-106680000D03*
D29*
X86840000Y-190500000D03*
D20*
X91440000Y-190500000D03*
D21*
X201915000Y-121930000D03*
D22*
X201915000Y-124470000D03*
X201915000Y-127010000D03*
X201915000Y-129550000D03*
X201915000Y-132090000D03*
X201915000Y-134630000D03*
X201915000Y-137170000D03*
X201915000Y-139710000D03*
X201915000Y-142250000D03*
X209535000Y-142250000D03*
X209535000Y-139710000D03*
X209535000Y-137170000D03*
X209535000Y-134630000D03*
X209535000Y-132090000D03*
X209535000Y-129550000D03*
X209535000Y-127010000D03*
X209535000Y-124470000D03*
X209535000Y-121930000D03*
D14*
X129540000Y-116840000D03*
D15*
X129540000Y-106680000D03*
D14*
X114300000Y-116840000D03*
D15*
X114300000Y-106680000D03*
D17*
X173830000Y-123190000D03*
D18*
X173830000Y-125730000D03*
X173830000Y-128270000D03*
X173830000Y-130810000D03*
X173830000Y-133350000D03*
X173830000Y-135890000D03*
X173830000Y-138430000D03*
X173830000Y-140970000D03*
X181770000Y-140970000D03*
X181770000Y-138430000D03*
X181770000Y-135890000D03*
X181770000Y-133350000D03*
X181770000Y-130810000D03*
X181770000Y-128270000D03*
X181770000Y-125730000D03*
X181770000Y-123190000D03*
D14*
X137160000Y-116840000D03*
D15*
X137160000Y-106680000D03*
D14*
X124460000Y-116840000D03*
D15*
X124460000Y-106680000D03*
D14*
X266700000Y-116840000D03*
D15*
X266700000Y-106680000D03*
D14*
X203200000Y-116840000D03*
D15*
X203200000Y-106680000D03*
D14*
X261620000Y-116840000D03*
D15*
X261620000Y-106680000D03*
D14*
X246380000Y-116840000D03*
D15*
X246380000Y-106680000D03*
D23*
X236220000Y-154270000D03*
D24*
X246380000Y-154270000D03*
D21*
X252715000Y-121930000D03*
D22*
X252715000Y-124470000D03*
X252715000Y-127010000D03*
X252715000Y-129550000D03*
X252715000Y-132090000D03*
X252715000Y-134630000D03*
X252715000Y-137170000D03*
X252715000Y-139710000D03*
X252715000Y-142250000D03*
X260335000Y-142250000D03*
X260335000Y-139710000D03*
X260335000Y-137170000D03*
X260335000Y-134630000D03*
X260335000Y-132090000D03*
X260335000Y-129550000D03*
X260335000Y-127010000D03*
X260335000Y-124470000D03*
X260335000Y-121930000D03*
D16*
X228600000Y-187960000D03*
D14*
X33020000Y-116840000D03*
D15*
X33020000Y-106680000D03*
D30*
X281940000Y-170180000D03*
D31*
X283940000Y-170180000D03*
D14*
X276860000Y-116840000D03*
D15*
X276860000Y-106680000D03*
D14*
X223520000Y-116840000D03*
D15*
X223520000Y-106680000D03*
D30*
X55880000Y-167640000D03*
D31*
X57880000Y-167640000D03*
D14*
X218440000Y-116840000D03*
D15*
X218440000Y-106680000D03*
D32*
X283500000Y-189000000D03*
D14*
X157480000Y-180340000D03*
D15*
X167640000Y-180340000D03*
D25*
X33020000Y-185420000D03*
D14*
X35560000Y-185420000D03*
X38100000Y-185420000D03*
X40640000Y-185420000D03*
X43180000Y-185420000D03*
X45720000Y-185420000D03*
X48260000Y-185420000D03*
X48260000Y-177800000D03*
X45720000Y-177800000D03*
X43180000Y-177800000D03*
X40640000Y-177800000D03*
X38100000Y-177800000D03*
X35560000Y-177800000D03*
X33020000Y-177800000D03*
X251460000Y-116840000D03*
D15*
X251460000Y-106680000D03*
D23*
X134620000Y-147320000D03*
D24*
X144780000Y-147320000D03*
D25*
X90185000Y-184140000D03*
D15*
X92725000Y-184140000D03*
X95265000Y-184140000D03*
X97805000Y-184140000D03*
X100345000Y-184140000D03*
X102885000Y-184140000D03*
X105425000Y-184140000D03*
X107965000Y-184140000D03*
X107965000Y-176520000D03*
X105425000Y-176520000D03*
X102885000Y-176520000D03*
X100345000Y-176520000D03*
X97805000Y-176520000D03*
X95265000Y-176520000D03*
X92725000Y-176520000D03*
X90185000Y-176520000D03*
D14*
X129540000Y-185420000D03*
D15*
X139700000Y-185420000D03*
D23*
X83820000Y-152400000D03*
D24*
X93980000Y-152400000D03*
D14*
X274320000Y-129540000D03*
D15*
X284480000Y-129540000D03*
D23*
X185420000Y-157480000D03*
D24*
X195580000Y-157480000D03*
D14*
X238760000Y-175260000D03*
D15*
X248920000Y-175260000D03*
D32*
X282500000Y-26500000D03*
D25*
X59700000Y-135900000D03*
D15*
X59700000Y-138440000D03*
X59700000Y-140980000D03*
X59700000Y-143520000D03*
X67320000Y-143520000D03*
X67320000Y-140980000D03*
X67320000Y-138440000D03*
X67320000Y-135900000D03*
D23*
X30480000Y-154940000D03*
D24*
X40640000Y-154940000D03*
D17*
X31750000Y-171610000D03*
D18*
X34290000Y-171610000D03*
X36830000Y-171610000D03*
X39370000Y-171610000D03*
X41910000Y-171610000D03*
X44450000Y-171610000D03*
X46990000Y-171610000D03*
X49530000Y-171610000D03*
X49530000Y-163670000D03*
X46990000Y-163670000D03*
X44450000Y-163670000D03*
X41910000Y-163670000D03*
X39370000Y-163670000D03*
X36830000Y-163670000D03*
X34290000Y-163670000D03*
X31750000Y-163670000D03*
D14*
X60960000Y-116840000D03*
D15*
X60960000Y-106680000D03*
D14*
X129540000Y-180340000D03*
D15*
X139700000Y-180340000D03*
D30*
X205740000Y-170180000D03*
D31*
X207740000Y-170180000D03*
D30*
X254000000Y-152400000D03*
D31*
X256000000Y-152400000D03*
D14*
X160020000Y-116840000D03*
D15*
X160020000Y-106680000D03*
D14*
X71120000Y-116840000D03*
D15*
X71120000Y-106680000D03*
D14*
X175260000Y-116840000D03*
D15*
X175260000Y-106680000D03*
D14*
X169580000Y-136000000D03*
D15*
X159420000Y-136000000D03*
D21*
X143495000Y-121930000D03*
D22*
X143495000Y-124470000D03*
X143495000Y-127010000D03*
X143495000Y-129550000D03*
X143495000Y-132090000D03*
X143495000Y-134630000D03*
X143495000Y-137170000D03*
X143495000Y-139710000D03*
X143495000Y-142250000D03*
X151115000Y-142250000D03*
X151115000Y-139710000D03*
X151115000Y-137170000D03*
X151115000Y-134630000D03*
X151115000Y-132090000D03*
X151115000Y-129550000D03*
X151115000Y-127010000D03*
X151115000Y-124470000D03*
X151115000Y-121930000D03*
D14*
X83820000Y-116840000D03*
D15*
X83820000Y-106680000D03*
D14*
X40640000Y-116840000D03*
D15*
X40640000Y-106680000D03*
D14*
X175260000Y-190500000D03*
D15*
X175260000Y-180340000D03*
D14*
X109220000Y-116840000D03*
D15*
X109220000Y-106680000D03*
D17*
X181610000Y-174150000D03*
D18*
X184150000Y-174150000D03*
X186690000Y-174150000D03*
X189230000Y-174150000D03*
X191770000Y-174150000D03*
X194310000Y-174150000D03*
X196850000Y-174150000D03*
X199390000Y-174150000D03*
X199390000Y-166210000D03*
X196850000Y-166210000D03*
X194310000Y-166210000D03*
X191770000Y-166210000D03*
X189230000Y-166210000D03*
X186690000Y-166210000D03*
X184150000Y-166210000D03*
X181610000Y-166210000D03*
D17*
X204470000Y-186850000D03*
D18*
X207010000Y-186850000D03*
X209550000Y-186850000D03*
X212090000Y-186850000D03*
X214630000Y-186850000D03*
X217170000Y-186850000D03*
X219710000Y-186850000D03*
X222250000Y-186850000D03*
X222250000Y-178910000D03*
X219710000Y-178910000D03*
X217170000Y-178910000D03*
X214630000Y-178910000D03*
X212090000Y-178910000D03*
X209550000Y-178910000D03*
X207010000Y-178910000D03*
X204470000Y-178910000D03*
D33*
X276860000Y-157480000D03*
D34*
X279400000Y-157480000D03*
X281940000Y-157480000D03*
D23*
X236220000Y-149190000D03*
D24*
X246380000Y-149190000D03*
D29*
X251940000Y-187960000D03*
D20*
X256540000Y-187960000D03*
D17*
X189070000Y-123190000D03*
D18*
X189070000Y-125730000D03*
X189070000Y-128270000D03*
X189070000Y-130810000D03*
X189070000Y-133350000D03*
X189070000Y-135890000D03*
X189070000Y-138430000D03*
X189070000Y-140970000D03*
X197010000Y-140970000D03*
X197010000Y-138430000D03*
X197010000Y-135890000D03*
X197010000Y-133350000D03*
X197010000Y-130810000D03*
X197010000Y-128270000D03*
X197010000Y-125730000D03*
X197010000Y-123190000D03*
D25*
X255280000Y-161300000D03*
D15*
X255280000Y-163840000D03*
X255280000Y-166380000D03*
X255280000Y-168920000D03*
X262900000Y-168920000D03*
X262900000Y-166380000D03*
X262900000Y-163840000D03*
X262900000Y-161300000D03*
D25*
X66010000Y-184150000D03*
D14*
X68550000Y-184150000D03*
X71090000Y-184150000D03*
X73630000Y-184150000D03*
X76170000Y-184150000D03*
X78710000Y-184150000D03*
X81250000Y-184150000D03*
X81250000Y-176530000D03*
X78710000Y-176530000D03*
X76170000Y-176530000D03*
X73630000Y-176530000D03*
X71090000Y-176530000D03*
X68550000Y-176530000D03*
X66010000Y-176530000D03*
D26*
X121920000Y-167640000D03*
X126920000Y-167640000D03*
D23*
X30480000Y-149860000D03*
D24*
X40640000Y-149860000D03*
D14*
X53340000Y-149860000D03*
D15*
X53340000Y-160020000D03*
D26*
X167640000Y-170180000D03*
X172640000Y-170180000D03*
D14*
X45720000Y-116840000D03*
D15*
X45720000Y-106680000D03*
D14*
X274320000Y-139700000D03*
D15*
X284480000Y-139700000D03*
D30*
X158020000Y-170180000D03*
D31*
X160020000Y-170180000D03*
D23*
X236220000Y-144110000D03*
D24*
X246380000Y-144110000D03*
D29*
X165100000Y-187960000D03*
D20*
X169700000Y-187960000D03*
D14*
X129540000Y-190500000D03*
D15*
X139700000Y-190500000D03*
D25*
X182850000Y-186690000D03*
D14*
X185390000Y-186690000D03*
X187930000Y-186690000D03*
X190470000Y-186690000D03*
X193010000Y-186690000D03*
X195550000Y-186690000D03*
X198090000Y-186690000D03*
X198090000Y-179070000D03*
X195550000Y-179070000D03*
X193010000Y-179070000D03*
X190470000Y-179070000D03*
X187930000Y-179070000D03*
X185390000Y-179070000D03*
X182850000Y-179070000D03*
X149860000Y-116840000D03*
D15*
X149860000Y-106680000D03*
D17*
X72230000Y-120650000D03*
D18*
X72230000Y-123190000D03*
X72230000Y-125730000D03*
X72230000Y-128270000D03*
X72230000Y-130810000D03*
X72230000Y-133350000D03*
X72230000Y-135890000D03*
X72230000Y-138430000D03*
X80170000Y-138430000D03*
X80170000Y-135890000D03*
X80170000Y-133350000D03*
X80170000Y-130810000D03*
X80170000Y-128270000D03*
X80170000Y-125730000D03*
X80170000Y-123190000D03*
X80170000Y-120650000D03*
D14*
X274320000Y-134620000D03*
D15*
X284480000Y-134620000D03*
D30*
X109220000Y-165100000D03*
D31*
X111220000Y-165100000D03*
D14*
X170180000Y-116840000D03*
D15*
X170180000Y-106680000D03*
D32*
X34000000Y-26000000D03*
D23*
X83820000Y-147320000D03*
D24*
X93980000Y-147320000D03*
D14*
X213360000Y-142240000D03*
D15*
X223520000Y-142240000D03*
D32*
X33000000Y-191000000D03*
D23*
X185420000Y-152400000D03*
D24*
X195580000Y-152400000D03*
D14*
X271780000Y-116840000D03*
D15*
X271780000Y-106680000D03*
D35*
X259080000Y-177800000D03*
D36*
X264080000Y-177800000D03*
D14*
X228600000Y-116840000D03*
D15*
X228600000Y-106680000D03*
D14*
X55880000Y-116840000D03*
D15*
X55880000Y-106680000D03*
D26*
X215900000Y-170180000D03*
X220900000Y-170180000D03*
D14*
X154940000Y-116840000D03*
D15*
X154940000Y-106680000D03*
D14*
X154940000Y-160020000D03*
D15*
X154940000Y-149860000D03*
D14*
X210820000Y-157480000D03*
D15*
X210820000Y-147320000D03*
D29*
X154940000Y-187960000D03*
D20*
X159540000Y-187960000D03*
D29*
X99060000Y-190500000D03*
D20*
X103660000Y-190500000D03*
D14*
X160020000Y-160020000D03*
D15*
X160020000Y-149860000D03*
D23*
X134620000Y-152400000D03*
D24*
X144780000Y-152400000D03*
D17*
X232410000Y-169070000D03*
D18*
X234950000Y-169070000D03*
X237490000Y-169070000D03*
X240030000Y-169070000D03*
X242570000Y-169070000D03*
X245110000Y-169070000D03*
X247650000Y-169070000D03*
X250190000Y-169070000D03*
X250190000Y-161130000D03*
X247650000Y-161130000D03*
X245110000Y-161130000D03*
X242570000Y-161130000D03*
X240030000Y-161130000D03*
X237490000Y-161130000D03*
X234950000Y-161130000D03*
X232410000Y-161130000D03*
D21*
X44435000Y-121930000D03*
D22*
X44435000Y-124470000D03*
X44435000Y-127010000D03*
X44435000Y-129550000D03*
X44435000Y-132090000D03*
X44435000Y-134630000D03*
X44435000Y-137170000D03*
X44435000Y-139710000D03*
X44435000Y-142250000D03*
X52055000Y-142250000D03*
X52055000Y-139710000D03*
X52055000Y-137170000D03*
X52055000Y-134630000D03*
X52055000Y-132090000D03*
X52055000Y-129550000D03*
X52055000Y-127010000D03*
X52055000Y-124470000D03*
X52055000Y-121930000D03*
D14*
X190500000Y-116840000D03*
D15*
X190500000Y-106680000D03*
D14*
X256540000Y-116840000D03*
D15*
X256540000Y-106680000D03*
D17*
X135890000Y-174150000D03*
D18*
X138430000Y-174150000D03*
X140970000Y-174150000D03*
X143510000Y-174150000D03*
X146050000Y-174150000D03*
X148590000Y-174150000D03*
X151130000Y-174150000D03*
X153670000Y-174150000D03*
X153670000Y-166210000D03*
X151130000Y-166210000D03*
X148590000Y-166210000D03*
X146050000Y-166210000D03*
X143510000Y-166210000D03*
X140970000Y-166210000D03*
X138430000Y-166210000D03*
X135890000Y-166210000D03*
D23*
X114300000Y-177800000D03*
D24*
X124460000Y-177800000D03*
D25*
X168920000Y-151140000D03*
D15*
X168920000Y-153680000D03*
X168920000Y-156220000D03*
X168920000Y-158760000D03*
X176540000Y-158760000D03*
X176540000Y-156220000D03*
X176540000Y-153680000D03*
X176540000Y-151140000D03*
D14*
X208280000Y-116840000D03*
D15*
X208280000Y-106680000D03*
D14*
X119380000Y-116840000D03*
D15*
X119380000Y-106680000D03*
D37*
X63500000Y-98630000D03*
D38*
X60960000Y-98630000D03*
X58420000Y-98630000D03*
X55880000Y-98630000D03*
X53340000Y-98630000D03*
X53340000Y-38530000D03*
X55880000Y-38530000D03*
X58420000Y-38530000D03*
X60960000Y-38530000D03*
X63500000Y-38530000D03*
D39*
X66040000Y-121920000D03*
D20*
X61440000Y-121920000D03*
D37*
X114300000Y-98630000D03*
D38*
X111760000Y-98630000D03*
X109220000Y-98630000D03*
X106680000Y-98630000D03*
X104140000Y-98630000D03*
X104140000Y-38530000D03*
X106680000Y-38530000D03*
X109220000Y-38530000D03*
X111760000Y-38530000D03*
X114300000Y-38530000D03*
D37*
X215900000Y-98630000D03*
D38*
X213360000Y-98630000D03*
X210820000Y-98630000D03*
X208280000Y-98630000D03*
X205740000Y-98630000D03*
X205740000Y-38530000D03*
X208280000Y-38530000D03*
X210820000Y-38530000D03*
X213360000Y-38530000D03*
X215900000Y-38530000D03*
D39*
X167800000Y-129540000D03*
D20*
X163200000Y-129540000D03*
D39*
X66040000Y-129540000D03*
D20*
X61440000Y-129540000D03*
D40*
X266700000Y-134620000D03*
D20*
X266700000Y-130020000D03*
D37*
X266700000Y-98630000D03*
D38*
X264160000Y-98630000D03*
X261620000Y-98630000D03*
X259080000Y-98630000D03*
X256540000Y-98630000D03*
X256540000Y-38530000D03*
X259080000Y-38530000D03*
X261620000Y-38530000D03*
X264160000Y-38530000D03*
X266700000Y-38530000D03*
D37*
X165100000Y-98630000D03*
D38*
X162560000Y-98630000D03*
X160020000Y-98630000D03*
X157480000Y-98630000D03*
X154940000Y-98630000D03*
X154940000Y-38530000D03*
X157480000Y-38530000D03*
X160020000Y-38530000D03*
X162560000Y-38530000D03*
X165100000Y-38530000D03*
D39*
X167386000Y-122301000D03*
D20*
X162786000Y-122301000D03*
M02*
