%FSLAX45Y45*%
G04 Gerber Fmt 4.5, Leading zero omitted, Abs format (unit mm)*
G04 Created by KiCad (PCBNEW (6.0.2)) date 2022-05-02 15:09:39*
%MOMM*%
%LPD*%
G01*
G04 APERTURE LIST*
%TA.AperFunction,Profile*%
%ADD10C,0.100000*%
%TD*%
%ADD11C,0.200000*%
%ADD12C,0.070000*%
%ADD13C,0.073000*%
%ADD14C,0.075000*%
%ADD15C,0.080000*%
%ADD16C,0.085000*%
%ADD17C,0.100000*%
%ADD18C,0.110000*%
%ADD19C,0.155000*%
%ADD20C,0.320000*%
G04 APERTURE END LIST*
D10*
X28956000Y-2032000D02*
X28956000Y-19558000D01*
X2794000Y-2032000D02*
X28956000Y-2032000D01*
X2794000Y-19558000D02*
X2794000Y-2032000D01*
X28956000Y-19558000D02*
X2794000Y-19558000D01*
X28956000Y-18034000D02*
X28956000Y-18034000D01*
D11*
D12*
X6569000Y-16729000D02*
X6639000Y-16799000D01*
X6639000Y-16729000D02*
X6569000Y-16799000D01*
X7069000Y-16729000D02*
X7139000Y-16799000D01*
X7139000Y-16729000D02*
X7069000Y-16799000D01*
X12157000Y-16729000D02*
X12227000Y-16799000D01*
X12227000Y-16729000D02*
X12157000Y-16799000D01*
X12657000Y-16729000D02*
X12727000Y-16799000D01*
X12727000Y-16729000D02*
X12657000Y-16799000D01*
X16729000Y-16983000D02*
X16799000Y-17053000D01*
X16799000Y-16983000D02*
X16729000Y-17053000D01*
X17229000Y-16983000D02*
X17299000Y-17053000D01*
X17299000Y-16983000D02*
X17229000Y-17053000D01*
X21555000Y-16983000D02*
X21625000Y-17053000D01*
X21625000Y-16983000D02*
X21555000Y-17053000D01*
X22055000Y-16983000D02*
X22125000Y-17053000D01*
X22125000Y-16983000D02*
X22055000Y-17053000D01*
X26381000Y-15205000D02*
X26451000Y-15275000D01*
X26451000Y-15205000D02*
X26381000Y-15275000D01*
X26881000Y-15205000D02*
X26951000Y-15275000D01*
X26951000Y-15205000D02*
X26881000Y-15275000D01*
D13*
X3195500Y-12319000D02*
G75*
G03*
X3195500Y-12319000I-36500J0D01*
G01*
X3195500Y-12573000D02*
G75*
G03*
X3195500Y-12573000I-36500J0D01*
G01*
X3195500Y-12827000D02*
G75*
G03*
X3195500Y-12827000I-36500J0D01*
G01*
X3195500Y-13081000D02*
G75*
G03*
X3195500Y-13081000I-36500J0D01*
G01*
X3195500Y-13335000D02*
G75*
G03*
X3195500Y-13335000I-36500J0D01*
G01*
X3195500Y-13589000D02*
G75*
G03*
X3195500Y-13589000I-36500J0D01*
G01*
X3195500Y-13843000D02*
G75*
G03*
X3195500Y-13843000I-36500J0D01*
G01*
X3195500Y-14097000D02*
G75*
G03*
X3195500Y-14097000I-36500J0D01*
G01*
X3211500Y-16367000D02*
G75*
G03*
X3211500Y-16367000I-36500J0D01*
G01*
X3211500Y-17161000D02*
G75*
G03*
X3211500Y-17161000I-36500J0D01*
G01*
X3465500Y-16367000D02*
G75*
G03*
X3465500Y-16367000I-36500J0D01*
G01*
X3465500Y-17161000D02*
G75*
G03*
X3465500Y-17161000I-36500J0D01*
G01*
X3719500Y-16367000D02*
G75*
G03*
X3719500Y-16367000I-36500J0D01*
G01*
X3719500Y-17161000D02*
G75*
G03*
X3719500Y-17161000I-36500J0D01*
G01*
X3973500Y-16367000D02*
G75*
G03*
X3973500Y-16367000I-36500J0D01*
G01*
X3973500Y-17161000D02*
G75*
G03*
X3973500Y-17161000I-36500J0D01*
G01*
X3989500Y-12319000D02*
G75*
G03*
X3989500Y-12319000I-36500J0D01*
G01*
X3989500Y-12573000D02*
G75*
G03*
X3989500Y-12573000I-36500J0D01*
G01*
X3989500Y-12827000D02*
G75*
G03*
X3989500Y-12827000I-36500J0D01*
G01*
X3989500Y-13081000D02*
G75*
G03*
X3989500Y-13081000I-36500J0D01*
G01*
X3989500Y-13335000D02*
G75*
G03*
X3989500Y-13335000I-36500J0D01*
G01*
X3989500Y-13589000D02*
G75*
G03*
X3989500Y-13589000I-36500J0D01*
G01*
X3989500Y-13843000D02*
G75*
G03*
X3989500Y-13843000I-36500J0D01*
G01*
X3989500Y-14097000D02*
G75*
G03*
X3989500Y-14097000I-36500J0D01*
G01*
X4227500Y-16367000D02*
G75*
G03*
X4227500Y-16367000I-36500J0D01*
G01*
X4227500Y-17161000D02*
G75*
G03*
X4227500Y-17161000I-36500J0D01*
G01*
X4481500Y-16367000D02*
G75*
G03*
X4481500Y-16367000I-36500J0D01*
G01*
X4481500Y-17161000D02*
G75*
G03*
X4481500Y-17161000I-36500J0D01*
G01*
X4735500Y-16367000D02*
G75*
G03*
X4735500Y-16367000I-36500J0D01*
G01*
X4735500Y-17161000D02*
G75*
G03*
X4735500Y-17161000I-36500J0D01*
G01*
X4989500Y-16367000D02*
G75*
G03*
X4989500Y-16367000I-36500J0D01*
G01*
X4989500Y-17161000D02*
G75*
G03*
X4989500Y-17161000I-36500J0D01*
G01*
X7259500Y-12065000D02*
G75*
G03*
X7259500Y-12065000I-36500J0D01*
G01*
X7259500Y-12319000D02*
G75*
G03*
X7259500Y-12319000I-36500J0D01*
G01*
X7259500Y-12573000D02*
G75*
G03*
X7259500Y-12573000I-36500J0D01*
G01*
X7259500Y-12827000D02*
G75*
G03*
X7259500Y-12827000I-36500J0D01*
G01*
X7259500Y-13081000D02*
G75*
G03*
X7259500Y-13081000I-36500J0D01*
G01*
X7259500Y-13335000D02*
G75*
G03*
X7259500Y-13335000I-36500J0D01*
G01*
X7259500Y-13589000D02*
G75*
G03*
X7259500Y-13589000I-36500J0D01*
G01*
X7259500Y-13843000D02*
G75*
G03*
X7259500Y-13843000I-36500J0D01*
G01*
X8053500Y-12065000D02*
G75*
G03*
X8053500Y-12065000I-36500J0D01*
G01*
X8053500Y-12319000D02*
G75*
G03*
X8053500Y-12319000I-36500J0D01*
G01*
X8053500Y-12573000D02*
G75*
G03*
X8053500Y-12573000I-36500J0D01*
G01*
X8053500Y-12827000D02*
G75*
G03*
X8053500Y-12827000I-36500J0D01*
G01*
X8053500Y-13081000D02*
G75*
G03*
X8053500Y-13081000I-36500J0D01*
G01*
X8053500Y-13335000D02*
G75*
G03*
X8053500Y-13335000I-36500J0D01*
G01*
X8053500Y-13589000D02*
G75*
G03*
X8053500Y-13589000I-36500J0D01*
G01*
X8053500Y-13843000D02*
G75*
G03*
X8053500Y-13843000I-36500J0D01*
G01*
X8291500Y-16367000D02*
G75*
G03*
X8291500Y-16367000I-36500J0D01*
G01*
X8291500Y-17161000D02*
G75*
G03*
X8291500Y-17161000I-36500J0D01*
G01*
X8545500Y-16367000D02*
G75*
G03*
X8545500Y-16367000I-36500J0D01*
G01*
X8545500Y-17161000D02*
G75*
G03*
X8545500Y-17161000I-36500J0D01*
G01*
X8783500Y-12319000D02*
G75*
G03*
X8783500Y-12319000I-36500J0D01*
G01*
X8783500Y-12573000D02*
G75*
G03*
X8783500Y-12573000I-36500J0D01*
G01*
X8783500Y-12827000D02*
G75*
G03*
X8783500Y-12827000I-36500J0D01*
G01*
X8783500Y-13081000D02*
G75*
G03*
X8783500Y-13081000I-36500J0D01*
G01*
X8783500Y-13335000D02*
G75*
G03*
X8783500Y-13335000I-36500J0D01*
G01*
X8783500Y-13589000D02*
G75*
G03*
X8783500Y-13589000I-36500J0D01*
G01*
X8783500Y-13843000D02*
G75*
G03*
X8783500Y-13843000I-36500J0D01*
G01*
X8783500Y-14097000D02*
G75*
G03*
X8783500Y-14097000I-36500J0D01*
G01*
X8799500Y-16367000D02*
G75*
G03*
X8799500Y-16367000I-36500J0D01*
G01*
X8799500Y-17161000D02*
G75*
G03*
X8799500Y-17161000I-36500J0D01*
G01*
X9053500Y-16367000D02*
G75*
G03*
X9053500Y-16367000I-36500J0D01*
G01*
X9053500Y-17161000D02*
G75*
G03*
X9053500Y-17161000I-36500J0D01*
G01*
X9307500Y-16367000D02*
G75*
G03*
X9307500Y-16367000I-36500J0D01*
G01*
X9307500Y-17161000D02*
G75*
G03*
X9307500Y-17161000I-36500J0D01*
G01*
X9561500Y-16367000D02*
G75*
G03*
X9561500Y-16367000I-36500J0D01*
G01*
X9561500Y-17161000D02*
G75*
G03*
X9561500Y-17161000I-36500J0D01*
G01*
X9577500Y-12319000D02*
G75*
G03*
X9577500Y-12319000I-36500J0D01*
G01*
X9577500Y-12573000D02*
G75*
G03*
X9577500Y-12573000I-36500J0D01*
G01*
X9577500Y-12827000D02*
G75*
G03*
X9577500Y-12827000I-36500J0D01*
G01*
X9577500Y-13081000D02*
G75*
G03*
X9577500Y-13081000I-36500J0D01*
G01*
X9577500Y-13335000D02*
G75*
G03*
X9577500Y-13335000I-36500J0D01*
G01*
X9577500Y-13589000D02*
G75*
G03*
X9577500Y-13589000I-36500J0D01*
G01*
X9577500Y-13843000D02*
G75*
G03*
X9577500Y-13843000I-36500J0D01*
G01*
X9577500Y-14097000D02*
G75*
G03*
X9577500Y-14097000I-36500J0D01*
G01*
X9815500Y-16367000D02*
G75*
G03*
X9815500Y-16367000I-36500J0D01*
G01*
X9815500Y-17161000D02*
G75*
G03*
X9815500Y-17161000I-36500J0D01*
G01*
X10069500Y-16367000D02*
G75*
G03*
X10069500Y-16367000I-36500J0D01*
G01*
X10069500Y-17161000D02*
G75*
G03*
X10069500Y-17161000I-36500J0D01*
G01*
X13101500Y-12319000D02*
G75*
G03*
X13101500Y-12319000I-36500J0D01*
G01*
X13101500Y-12573000D02*
G75*
G03*
X13101500Y-12573000I-36500J0D01*
G01*
X13101500Y-12827000D02*
G75*
G03*
X13101500Y-12827000I-36500J0D01*
G01*
X13101500Y-13081000D02*
G75*
G03*
X13101500Y-13081000I-36500J0D01*
G01*
X13101500Y-13335000D02*
G75*
G03*
X13101500Y-13335000I-36500J0D01*
G01*
X13101500Y-13589000D02*
G75*
G03*
X13101500Y-13589000I-36500J0D01*
G01*
X13101500Y-13843000D02*
G75*
G03*
X13101500Y-13843000I-36500J0D01*
G01*
X13101500Y-14097000D02*
G75*
G03*
X13101500Y-14097000I-36500J0D01*
G01*
X13625500Y-16621000D02*
G75*
G03*
X13625500Y-16621000I-36500J0D01*
G01*
X13625500Y-17415000D02*
G75*
G03*
X13625500Y-17415000I-36500J0D01*
G01*
X13879500Y-16621000D02*
G75*
G03*
X13879500Y-16621000I-36500J0D01*
G01*
X13879500Y-17415000D02*
G75*
G03*
X13879500Y-17415000I-36500J0D01*
G01*
X13895500Y-12319000D02*
G75*
G03*
X13895500Y-12319000I-36500J0D01*
G01*
X13895500Y-12573000D02*
G75*
G03*
X13895500Y-12573000I-36500J0D01*
G01*
X13895500Y-12827000D02*
G75*
G03*
X13895500Y-12827000I-36500J0D01*
G01*
X13895500Y-13081000D02*
G75*
G03*
X13895500Y-13081000I-36500J0D01*
G01*
X13895500Y-13335000D02*
G75*
G03*
X13895500Y-13335000I-36500J0D01*
G01*
X13895500Y-13589000D02*
G75*
G03*
X13895500Y-13589000I-36500J0D01*
G01*
X13895500Y-13843000D02*
G75*
G03*
X13895500Y-13843000I-36500J0D01*
G01*
X13895500Y-14097000D02*
G75*
G03*
X13895500Y-14097000I-36500J0D01*
G01*
X14133500Y-16621000D02*
G75*
G03*
X14133500Y-16621000I-36500J0D01*
G01*
X14133500Y-17415000D02*
G75*
G03*
X14133500Y-17415000I-36500J0D01*
G01*
X14387500Y-16621000D02*
G75*
G03*
X14387500Y-16621000I-36500J0D01*
G01*
X14387500Y-17415000D02*
G75*
G03*
X14387500Y-17415000I-36500J0D01*
G01*
X14641500Y-16621000D02*
G75*
G03*
X14641500Y-16621000I-36500J0D01*
G01*
X14641500Y-17415000D02*
G75*
G03*
X14641500Y-17415000I-36500J0D01*
G01*
X14895500Y-16621000D02*
G75*
G03*
X14895500Y-16621000I-36500J0D01*
G01*
X14895500Y-17415000D02*
G75*
G03*
X14895500Y-17415000I-36500J0D01*
G01*
X15149500Y-16621000D02*
G75*
G03*
X15149500Y-16621000I-36500J0D01*
G01*
X15149500Y-17415000D02*
G75*
G03*
X15149500Y-17415000I-36500J0D01*
G01*
X15403500Y-16621000D02*
G75*
G03*
X15403500Y-16621000I-36500J0D01*
G01*
X15403500Y-17415000D02*
G75*
G03*
X15403500Y-17415000I-36500J0D01*
G01*
X17419500Y-12319000D02*
G75*
G03*
X17419500Y-12319000I-36500J0D01*
G01*
X17419500Y-12573000D02*
G75*
G03*
X17419500Y-12573000I-36500J0D01*
G01*
X17419500Y-12827000D02*
G75*
G03*
X17419500Y-12827000I-36500J0D01*
G01*
X17419500Y-13081000D02*
G75*
G03*
X17419500Y-13081000I-36500J0D01*
G01*
X17419500Y-13335000D02*
G75*
G03*
X17419500Y-13335000I-36500J0D01*
G01*
X17419500Y-13589000D02*
G75*
G03*
X17419500Y-13589000I-36500J0D01*
G01*
X17419500Y-13843000D02*
G75*
G03*
X17419500Y-13843000I-36500J0D01*
G01*
X17419500Y-14097000D02*
G75*
G03*
X17419500Y-14097000I-36500J0D01*
G01*
X18197500Y-16621000D02*
G75*
G03*
X18197500Y-16621000I-36500J0D01*
G01*
X18197500Y-17415000D02*
G75*
G03*
X18197500Y-17415000I-36500J0D01*
G01*
X18213500Y-12319000D02*
G75*
G03*
X18213500Y-12319000I-36500J0D01*
G01*
X18213500Y-12573000D02*
G75*
G03*
X18213500Y-12573000I-36500J0D01*
G01*
X18213500Y-12827000D02*
G75*
G03*
X18213500Y-12827000I-36500J0D01*
G01*
X18213500Y-13081000D02*
G75*
G03*
X18213500Y-13081000I-36500J0D01*
G01*
X18213500Y-13335000D02*
G75*
G03*
X18213500Y-13335000I-36500J0D01*
G01*
X18213500Y-13589000D02*
G75*
G03*
X18213500Y-13589000I-36500J0D01*
G01*
X18213500Y-13843000D02*
G75*
G03*
X18213500Y-13843000I-36500J0D01*
G01*
X18213500Y-14097000D02*
G75*
G03*
X18213500Y-14097000I-36500J0D01*
G01*
X18451500Y-16621000D02*
G75*
G03*
X18451500Y-16621000I-36500J0D01*
G01*
X18451500Y-17415000D02*
G75*
G03*
X18451500Y-17415000I-36500J0D01*
G01*
X18705500Y-16621000D02*
G75*
G03*
X18705500Y-16621000I-36500J0D01*
G01*
X18705500Y-17415000D02*
G75*
G03*
X18705500Y-17415000I-36500J0D01*
G01*
X18943500Y-12319000D02*
G75*
G03*
X18943500Y-12319000I-36500J0D01*
G01*
X18943500Y-12573000D02*
G75*
G03*
X18943500Y-12573000I-36500J0D01*
G01*
X18943500Y-12827000D02*
G75*
G03*
X18943500Y-12827000I-36500J0D01*
G01*
X18943500Y-13081000D02*
G75*
G03*
X18943500Y-13081000I-36500J0D01*
G01*
X18943500Y-13335000D02*
G75*
G03*
X18943500Y-13335000I-36500J0D01*
G01*
X18943500Y-13589000D02*
G75*
G03*
X18943500Y-13589000I-36500J0D01*
G01*
X18943500Y-13843000D02*
G75*
G03*
X18943500Y-13843000I-36500J0D01*
G01*
X18943500Y-14097000D02*
G75*
G03*
X18943500Y-14097000I-36500J0D01*
G01*
X18959500Y-16621000D02*
G75*
G03*
X18959500Y-16621000I-36500J0D01*
G01*
X18959500Y-17415000D02*
G75*
G03*
X18959500Y-17415000I-36500J0D01*
G01*
X19213500Y-16621000D02*
G75*
G03*
X19213500Y-16621000I-36500J0D01*
G01*
X19213500Y-17415000D02*
G75*
G03*
X19213500Y-17415000I-36500J0D01*
G01*
X19467500Y-16621000D02*
G75*
G03*
X19467500Y-16621000I-36500J0D01*
G01*
X19467500Y-17415000D02*
G75*
G03*
X19467500Y-17415000I-36500J0D01*
G01*
X19721500Y-16621000D02*
G75*
G03*
X19721500Y-16621000I-36500J0D01*
G01*
X19721500Y-17415000D02*
G75*
G03*
X19721500Y-17415000I-36500J0D01*
G01*
X19737500Y-12319000D02*
G75*
G03*
X19737500Y-12319000I-36500J0D01*
G01*
X19737500Y-12573000D02*
G75*
G03*
X19737500Y-12573000I-36500J0D01*
G01*
X19737500Y-12827000D02*
G75*
G03*
X19737500Y-12827000I-36500J0D01*
G01*
X19737500Y-13081000D02*
G75*
G03*
X19737500Y-13081000I-36500J0D01*
G01*
X19737500Y-13335000D02*
G75*
G03*
X19737500Y-13335000I-36500J0D01*
G01*
X19737500Y-13589000D02*
G75*
G03*
X19737500Y-13589000I-36500J0D01*
G01*
X19737500Y-13843000D02*
G75*
G03*
X19737500Y-13843000I-36500J0D01*
G01*
X19737500Y-14097000D02*
G75*
G03*
X19737500Y-14097000I-36500J0D01*
G01*
X19975500Y-16621000D02*
G75*
G03*
X19975500Y-16621000I-36500J0D01*
G01*
X19975500Y-17415000D02*
G75*
G03*
X19975500Y-17415000I-36500J0D01*
G01*
X20483500Y-17891000D02*
G75*
G03*
X20483500Y-17891000I-36500J0D01*
G01*
X20483500Y-18685000D02*
G75*
G03*
X20483500Y-18685000I-36500J0D01*
G01*
X20737500Y-17891000D02*
G75*
G03*
X20737500Y-17891000I-36500J0D01*
G01*
X20737500Y-18685000D02*
G75*
G03*
X20737500Y-18685000I-36500J0D01*
G01*
X20991500Y-17891000D02*
G75*
G03*
X20991500Y-17891000I-36500J0D01*
G01*
X20991500Y-18685000D02*
G75*
G03*
X20991500Y-18685000I-36500J0D01*
G01*
X21245500Y-17891000D02*
G75*
G03*
X21245500Y-17891000I-36500J0D01*
G01*
X21245500Y-18685000D02*
G75*
G03*
X21245500Y-18685000I-36500J0D01*
G01*
X21499500Y-17891000D02*
G75*
G03*
X21499500Y-17891000I-36500J0D01*
G01*
X21499500Y-18685000D02*
G75*
G03*
X21499500Y-18685000I-36500J0D01*
G01*
X21753500Y-17891000D02*
G75*
G03*
X21753500Y-17891000I-36500J0D01*
G01*
X21753500Y-18685000D02*
G75*
G03*
X21753500Y-18685000I-36500J0D01*
G01*
X22007500Y-17891000D02*
G75*
G03*
X22007500Y-17891000I-36500J0D01*
G01*
X22007500Y-18685000D02*
G75*
G03*
X22007500Y-18685000I-36500J0D01*
G01*
X22261500Y-17891000D02*
G75*
G03*
X22261500Y-17891000I-36500J0D01*
G01*
X22261500Y-18685000D02*
G75*
G03*
X22261500Y-18685000I-36500J0D01*
G01*
X23277500Y-16113000D02*
G75*
G03*
X23277500Y-16113000I-36500J0D01*
G01*
X23277500Y-16907000D02*
G75*
G03*
X23277500Y-16907000I-36500J0D01*
G01*
X23531500Y-16113000D02*
G75*
G03*
X23531500Y-16113000I-36500J0D01*
G01*
X23531500Y-16907000D02*
G75*
G03*
X23531500Y-16907000I-36500J0D01*
G01*
X23769500Y-12065000D02*
G75*
G03*
X23769500Y-12065000I-36500J0D01*
G01*
X23769500Y-12319000D02*
G75*
G03*
X23769500Y-12319000I-36500J0D01*
G01*
X23769500Y-12573000D02*
G75*
G03*
X23769500Y-12573000I-36500J0D01*
G01*
X23769500Y-12827000D02*
G75*
G03*
X23769500Y-12827000I-36500J0D01*
G01*
X23769500Y-13081000D02*
G75*
G03*
X23769500Y-13081000I-36500J0D01*
G01*
X23769500Y-13335000D02*
G75*
G03*
X23769500Y-13335000I-36500J0D01*
G01*
X23769500Y-13589000D02*
G75*
G03*
X23769500Y-13589000I-36500J0D01*
G01*
X23769500Y-13843000D02*
G75*
G03*
X23769500Y-13843000I-36500J0D01*
G01*
X23785500Y-16113000D02*
G75*
G03*
X23785500Y-16113000I-36500J0D01*
G01*
X23785500Y-16907000D02*
G75*
G03*
X23785500Y-16907000I-36500J0D01*
G01*
X24039500Y-16113000D02*
G75*
G03*
X24039500Y-16113000I-36500J0D01*
G01*
X24039500Y-16907000D02*
G75*
G03*
X24039500Y-16907000I-36500J0D01*
G01*
X24293500Y-16113000D02*
G75*
G03*
X24293500Y-16113000I-36500J0D01*
G01*
X24293500Y-16907000D02*
G75*
G03*
X24293500Y-16907000I-36500J0D01*
G01*
X24547500Y-16113000D02*
G75*
G03*
X24547500Y-16113000I-36500J0D01*
G01*
X24547500Y-16907000D02*
G75*
G03*
X24547500Y-16907000I-36500J0D01*
G01*
X24563500Y-12065000D02*
G75*
G03*
X24563500Y-12065000I-36500J0D01*
G01*
X24563500Y-12319000D02*
G75*
G03*
X24563500Y-12319000I-36500J0D01*
G01*
X24563500Y-12573000D02*
G75*
G03*
X24563500Y-12573000I-36500J0D01*
G01*
X24563500Y-12827000D02*
G75*
G03*
X24563500Y-12827000I-36500J0D01*
G01*
X24563500Y-13081000D02*
G75*
G03*
X24563500Y-13081000I-36500J0D01*
G01*
X24563500Y-13335000D02*
G75*
G03*
X24563500Y-13335000I-36500J0D01*
G01*
X24563500Y-13589000D02*
G75*
G03*
X24563500Y-13589000I-36500J0D01*
G01*
X24563500Y-13843000D02*
G75*
G03*
X24563500Y-13843000I-36500J0D01*
G01*
X24801500Y-16113000D02*
G75*
G03*
X24801500Y-16113000I-36500J0D01*
G01*
X24801500Y-16907000D02*
G75*
G03*
X24801500Y-16907000I-36500J0D01*
G01*
X25055500Y-16113000D02*
G75*
G03*
X25055500Y-16113000I-36500J0D01*
G01*
X25055500Y-16907000D02*
G75*
G03*
X25055500Y-16907000I-36500J0D01*
G01*
D14*
X5588000Y-16726500D02*
X5588000Y-16801500D01*
X5550500Y-16764000D02*
X5625500Y-16764000D01*
X5788000Y-16726500D02*
X5788000Y-16801500D01*
X5750500Y-16764000D02*
X5825500Y-16764000D01*
X10922000Y-16472500D02*
X10922000Y-16547500D01*
X10884500Y-16510000D02*
X10959500Y-16510000D01*
X11122000Y-16472500D02*
X11122000Y-16547500D01*
X11084500Y-16510000D02*
X11159500Y-16510000D01*
X15802000Y-16980500D02*
X15802000Y-17055500D01*
X15764500Y-17018000D02*
X15839500Y-17018000D01*
X16002000Y-16980500D02*
X16002000Y-17055500D01*
X15964500Y-17018000D02*
X16039500Y-17018000D01*
X20574000Y-16980500D02*
X20574000Y-17055500D01*
X20536500Y-17018000D02*
X20611500Y-17018000D01*
X20774000Y-16980500D02*
X20774000Y-17055500D01*
X20736500Y-17018000D02*
X20811500Y-17018000D01*
X25400000Y-15202500D02*
X25400000Y-15277500D01*
X25362500Y-15240000D02*
X25437500Y-15240000D01*
X25600000Y-15202500D02*
X25600000Y-15277500D01*
X25562500Y-15240000D02*
X25637500Y-15240000D01*
X28194000Y-16980500D02*
X28194000Y-17055500D01*
X28156500Y-17018000D02*
X28231500Y-17018000D01*
X28394000Y-16980500D02*
X28394000Y-17055500D01*
X28356500Y-17018000D02*
X28431500Y-17018000D01*
D15*
X3330284Y-10696285D02*
X3330284Y-10639716D01*
X3273715Y-10639716D01*
X3273715Y-10696285D01*
X3330284Y-10696285D01*
X3330284Y-11712284D02*
X3330284Y-11655715D01*
X3273715Y-11655715D01*
X3273715Y-11712284D01*
X3330284Y-11712284D01*
X4092284Y-10696285D02*
X4092284Y-10639716D01*
X4035715Y-10639716D01*
X4035715Y-10696285D01*
X4092284Y-10696285D01*
X4092284Y-11712284D02*
X4092284Y-11655715D01*
X4035715Y-11655715D01*
X4035715Y-11712284D01*
X4092284Y-11712284D01*
X4471785Y-12221284D02*
X4471785Y-12164715D01*
X4415216Y-12164715D01*
X4415216Y-12221284D01*
X4471785Y-12221284D01*
X4471785Y-12475284D02*
X4471785Y-12418715D01*
X4415216Y-12418715D01*
X4415216Y-12475284D01*
X4471785Y-12475284D01*
X4471785Y-12729284D02*
X4471785Y-12672715D01*
X4415216Y-12672715D01*
X4415216Y-12729284D01*
X4471785Y-12729284D01*
X4471785Y-12983284D02*
X4471785Y-12926715D01*
X4415216Y-12926715D01*
X4415216Y-12983284D01*
X4471785Y-12983284D01*
X4471785Y-13237284D02*
X4471785Y-13180715D01*
X4415216Y-13180715D01*
X4415216Y-13237284D01*
X4471785Y-13237284D01*
X4471785Y-13491284D02*
X4471785Y-13434715D01*
X4415216Y-13434715D01*
X4415216Y-13491284D01*
X4471785Y-13491284D01*
X4471785Y-13745284D02*
X4471785Y-13688715D01*
X4415216Y-13688715D01*
X4415216Y-13745284D01*
X4471785Y-13745284D01*
X4471785Y-13999284D02*
X4471785Y-13942715D01*
X4415216Y-13942715D01*
X4415216Y-13999284D01*
X4471785Y-13999284D01*
X4471785Y-14253284D02*
X4471785Y-14196715D01*
X4415216Y-14196715D01*
X4415216Y-14253284D01*
X4471785Y-14253284D01*
X4600285Y-10696285D02*
X4600285Y-10639716D01*
X4543716Y-10639716D01*
X4543716Y-10696285D01*
X4600285Y-10696285D01*
X4600285Y-11712284D02*
X4600285Y-11655715D01*
X4543716Y-11655715D01*
X4543716Y-11712284D01*
X4600285Y-11712284D01*
X5108285Y-10696285D02*
X5108285Y-10639716D01*
X5051716Y-10639716D01*
X5051716Y-10696285D01*
X5108285Y-10696285D01*
X5108285Y-11712284D02*
X5108285Y-11655715D01*
X5051716Y-11655715D01*
X5051716Y-11712284D01*
X5108285Y-11712284D01*
X5233785Y-12221284D02*
X5233785Y-12164715D01*
X5177216Y-12164715D01*
X5177216Y-12221284D01*
X5233785Y-12221284D01*
X5233785Y-12475284D02*
X5233785Y-12418715D01*
X5177216Y-12418715D01*
X5177216Y-12475284D01*
X5233785Y-12475284D01*
X5233785Y-12729284D02*
X5233785Y-12672715D01*
X5177216Y-12672715D01*
X5177216Y-12729284D01*
X5233785Y-12729284D01*
X5233785Y-12983284D02*
X5233785Y-12926715D01*
X5177216Y-12926715D01*
X5177216Y-12983284D01*
X5233785Y-12983284D01*
X5233785Y-13237284D02*
X5233785Y-13180715D01*
X5177216Y-13180715D01*
X5177216Y-13237284D01*
X5233785Y-13237284D01*
X5233785Y-13491284D02*
X5233785Y-13434715D01*
X5177216Y-13434715D01*
X5177216Y-13491284D01*
X5233785Y-13491284D01*
X5233785Y-13745284D02*
X5233785Y-13688715D01*
X5177216Y-13688715D01*
X5177216Y-13745284D01*
X5233785Y-13745284D01*
X5233785Y-13999284D02*
X5233785Y-13942715D01*
X5177216Y-13942715D01*
X5177216Y-13999284D01*
X5233785Y-13999284D01*
X5233785Y-14253284D02*
X5233785Y-14196715D01*
X5177216Y-14196715D01*
X5177216Y-14253284D01*
X5233785Y-14253284D01*
X5362285Y-15014284D02*
X5362285Y-14957715D01*
X5305716Y-14957715D01*
X5305716Y-15014284D01*
X5362285Y-15014284D01*
X5362285Y-16030284D02*
X5362285Y-15973715D01*
X5305716Y-15973715D01*
X5305716Y-16030284D01*
X5362285Y-16030284D01*
X5362285Y-19078285D02*
X5362285Y-19021716D01*
X5305716Y-19021716D01*
X5305716Y-19078285D01*
X5362285Y-19078285D01*
X5616284Y-10696285D02*
X5616284Y-10639716D01*
X5559716Y-10639716D01*
X5559716Y-10696285D01*
X5616284Y-10696285D01*
X5616284Y-11712284D02*
X5616284Y-11655715D01*
X5559716Y-11655715D01*
X5559716Y-11712284D01*
X5616284Y-11712284D01*
X5870284Y-15014284D02*
X5870284Y-14957715D01*
X5813715Y-14957715D01*
X5813715Y-15014284D01*
X5870284Y-15014284D01*
X5870284Y-15776284D02*
X5870284Y-15719715D01*
X5813715Y-15719715D01*
X5813715Y-15776284D01*
X5870284Y-15776284D01*
X5998284Y-13618284D02*
X5998284Y-13561715D01*
X5941715Y-13561715D01*
X5941715Y-13618284D01*
X5998284Y-13618284D01*
X5998284Y-13872284D02*
X5998284Y-13815715D01*
X5941715Y-13815715D01*
X5941715Y-13872284D01*
X5998284Y-13872284D01*
X5998284Y-14126284D02*
X5998284Y-14069715D01*
X5941715Y-14069715D01*
X5941715Y-14126284D01*
X5998284Y-14126284D01*
X5998284Y-14380284D02*
X5998284Y-14323715D01*
X5941715Y-14323715D01*
X5941715Y-14380284D01*
X5998284Y-14380284D01*
X6124284Y-10696285D02*
X6124284Y-10639716D01*
X6067715Y-10639716D01*
X6067715Y-10696285D01*
X6124284Y-10696285D01*
X6124284Y-11712284D02*
X6124284Y-11655715D01*
X6067715Y-11655715D01*
X6067715Y-11712284D01*
X6124284Y-11712284D01*
X6378284Y-19078285D02*
X6378284Y-19021716D01*
X6321715Y-19021716D01*
X6321715Y-19078285D01*
X6378284Y-19078285D01*
X6632284Y-10696285D02*
X6632284Y-10639716D01*
X6575715Y-10639716D01*
X6575715Y-10696285D01*
X6632284Y-10696285D01*
X6632284Y-11712284D02*
X6632284Y-11655715D01*
X6575715Y-11655715D01*
X6575715Y-11712284D01*
X6632284Y-11712284D01*
X6760284Y-13618284D02*
X6760284Y-13561715D01*
X6703715Y-13561715D01*
X6703715Y-13618284D01*
X6760284Y-13618284D01*
X6760284Y-13872284D02*
X6760284Y-13815715D01*
X6703715Y-13815715D01*
X6703715Y-13872284D01*
X6760284Y-13872284D01*
X6760284Y-14126284D02*
X6760284Y-14069715D01*
X6703715Y-14069715D01*
X6703715Y-14126284D01*
X6760284Y-14126284D01*
X6760284Y-14380284D02*
X6760284Y-14323715D01*
X6703715Y-14323715D01*
X6703715Y-14380284D01*
X6760284Y-14380284D01*
X6886284Y-15014284D02*
X6886284Y-14957715D01*
X6829715Y-14957715D01*
X6829715Y-15014284D01*
X6886284Y-15014284D01*
X6886284Y-15776284D02*
X6886284Y-15719715D01*
X6829715Y-15719715D01*
X6829715Y-15776284D01*
X6886284Y-15776284D01*
X7140284Y-10696285D02*
X7140284Y-10639716D01*
X7083715Y-10639716D01*
X7083715Y-10696285D01*
X7140284Y-10696285D01*
X7140284Y-11712284D02*
X7140284Y-11655715D01*
X7083715Y-11655715D01*
X7083715Y-11712284D01*
X7140284Y-11712284D01*
X8410285Y-10696285D02*
X8410285Y-10639716D01*
X8353715Y-10639716D01*
X8353715Y-10696285D01*
X8410285Y-10696285D01*
X8410285Y-11712284D02*
X8410285Y-11655715D01*
X8353715Y-11655715D01*
X8353715Y-11712284D01*
X8410285Y-11712284D01*
X9046785Y-17680285D02*
X9046785Y-17623716D01*
X8990216Y-17623716D01*
X8990216Y-17680285D01*
X9046785Y-17680285D01*
X9046785Y-18442285D02*
X9046785Y-18385716D01*
X8990216Y-18385716D01*
X8990216Y-18442285D01*
X9046785Y-18442285D01*
X9172285Y-10696285D02*
X9172285Y-10639716D01*
X9115716Y-10639716D01*
X9115716Y-10696285D01*
X9172285Y-10696285D01*
X9172285Y-11712284D02*
X9172285Y-11655715D01*
X9115716Y-11655715D01*
X9115716Y-11712284D01*
X9172285Y-11712284D01*
X9300785Y-17680285D02*
X9300785Y-17623716D01*
X9244216Y-17623716D01*
X9244216Y-17680285D01*
X9300785Y-17680285D01*
X9300785Y-18442285D02*
X9300785Y-18385716D01*
X9244216Y-18385716D01*
X9244216Y-18442285D01*
X9300785Y-18442285D01*
X9554785Y-17680285D02*
X9554785Y-17623716D01*
X9498216Y-17623716D01*
X9498216Y-17680285D01*
X9554785Y-17680285D01*
X9554785Y-18442285D02*
X9554785Y-18385716D01*
X9498216Y-18385716D01*
X9498216Y-18442285D01*
X9554785Y-18442285D01*
X9808785Y-17680285D02*
X9808785Y-17623716D01*
X9752216Y-17623716D01*
X9752216Y-17680285D01*
X9808785Y-17680285D01*
X9808785Y-18442285D02*
X9808785Y-18385716D01*
X9752216Y-18385716D01*
X9752216Y-18442285D01*
X9808785Y-18442285D01*
X9934285Y-10696285D02*
X9934285Y-10639716D01*
X9877716Y-10639716D01*
X9877716Y-10696285D01*
X9934285Y-10696285D01*
X9934285Y-11712284D02*
X9934285Y-11655715D01*
X9877716Y-11655715D01*
X9877716Y-11712284D01*
X9934285Y-11712284D01*
X10059785Y-12221284D02*
X10059785Y-12164715D01*
X10003216Y-12164715D01*
X10003216Y-12221284D01*
X10059785Y-12221284D01*
X10059785Y-12475284D02*
X10059785Y-12418715D01*
X10003216Y-12418715D01*
X10003216Y-12475284D01*
X10059785Y-12475284D01*
X10059785Y-12729284D02*
X10059785Y-12672715D01*
X10003216Y-12672715D01*
X10003216Y-12729284D01*
X10059785Y-12729284D01*
X10059785Y-12983284D02*
X10059785Y-12926715D01*
X10003216Y-12926715D01*
X10003216Y-12983284D01*
X10059785Y-12983284D01*
X10059785Y-13237284D02*
X10059785Y-13180715D01*
X10003216Y-13180715D01*
X10003216Y-13237284D01*
X10059785Y-13237284D01*
X10059785Y-13491284D02*
X10059785Y-13434715D01*
X10003216Y-13434715D01*
X10003216Y-13491284D01*
X10059785Y-13491284D01*
X10059785Y-13745284D02*
X10059785Y-13688715D01*
X10003216Y-13688715D01*
X10003216Y-13745284D01*
X10059785Y-13745284D01*
X10059785Y-13999284D02*
X10059785Y-13942715D01*
X10003216Y-13942715D01*
X10003216Y-13999284D01*
X10059785Y-13999284D01*
X10059785Y-14253284D02*
X10059785Y-14196715D01*
X10003216Y-14196715D01*
X10003216Y-14253284D01*
X10059785Y-14253284D01*
X10062785Y-17680285D02*
X10062785Y-17623716D01*
X10006216Y-17623716D01*
X10006216Y-17680285D01*
X10062785Y-17680285D01*
X10062785Y-18442285D02*
X10062785Y-18385716D01*
X10006216Y-18385716D01*
X10006216Y-18442285D01*
X10062785Y-18442285D01*
X10188285Y-14760284D02*
X10188285Y-14703715D01*
X10131716Y-14703715D01*
X10131716Y-14760284D01*
X10188285Y-14760284D01*
X10188285Y-15776284D02*
X10188285Y-15719715D01*
X10131716Y-15719715D01*
X10131716Y-15776284D01*
X10188285Y-15776284D01*
X10316785Y-17680285D02*
X10316785Y-17623716D01*
X10260216Y-17623716D01*
X10260216Y-17680285D01*
X10316785Y-17680285D01*
X10316785Y-18442285D02*
X10316785Y-18385716D01*
X10260216Y-18385716D01*
X10260216Y-18442285D01*
X10316785Y-18442285D01*
X10442285Y-10696285D02*
X10442285Y-10639716D01*
X10385716Y-10639716D01*
X10385716Y-10696285D01*
X10442285Y-10696285D01*
X10442285Y-11712284D02*
X10442285Y-11655715D01*
X10385716Y-11655715D01*
X10385716Y-11712284D01*
X10442285Y-11712284D01*
X10570785Y-17680285D02*
X10570785Y-17623716D01*
X10514216Y-17623716D01*
X10514216Y-17680285D01*
X10570785Y-17680285D01*
X10570785Y-18442285D02*
X10570785Y-18385716D01*
X10514216Y-18385716D01*
X10514216Y-18442285D01*
X10570785Y-18442285D01*
X10821785Y-12221284D02*
X10821785Y-12164715D01*
X10765216Y-12164715D01*
X10765216Y-12221284D01*
X10821785Y-12221284D01*
X10821785Y-12475284D02*
X10821785Y-12418715D01*
X10765216Y-12418715D01*
X10765216Y-12475284D01*
X10821785Y-12475284D01*
X10821785Y-12729284D02*
X10821785Y-12672715D01*
X10765216Y-12672715D01*
X10765216Y-12729284D01*
X10821785Y-12729284D01*
X10821785Y-12983284D02*
X10821785Y-12926715D01*
X10765216Y-12926715D01*
X10765216Y-12983284D01*
X10821785Y-12983284D01*
X10821785Y-13237284D02*
X10821785Y-13180715D01*
X10765216Y-13180715D01*
X10765216Y-13237284D01*
X10821785Y-13237284D01*
X10821785Y-13491284D02*
X10821785Y-13434715D01*
X10765216Y-13434715D01*
X10765216Y-13491284D01*
X10821785Y-13491284D01*
X10821785Y-13745284D02*
X10821785Y-13688715D01*
X10765216Y-13688715D01*
X10765216Y-13745284D01*
X10821785Y-13745284D01*
X10821785Y-13999284D02*
X10821785Y-13942715D01*
X10765216Y-13942715D01*
X10765216Y-13999284D01*
X10821785Y-13999284D01*
X10821785Y-14253284D02*
X10821785Y-14196715D01*
X10765216Y-14196715D01*
X10765216Y-14253284D01*
X10821785Y-14253284D01*
X10824785Y-17680285D02*
X10824785Y-17623716D01*
X10768216Y-17623716D01*
X10768216Y-17680285D01*
X10824785Y-17680285D01*
X10824785Y-18442285D02*
X10824785Y-18385716D01*
X10768216Y-18385716D01*
X10768216Y-18442285D01*
X10824785Y-18442285D01*
X10950285Y-10696285D02*
X10950285Y-10639716D01*
X10893716Y-10639716D01*
X10893716Y-10696285D01*
X10950285Y-10696285D01*
X10950285Y-11712284D02*
X10950285Y-11655715D01*
X10893716Y-11655715D01*
X10893716Y-11712284D01*
X10950285Y-11712284D01*
X11458284Y-10696285D02*
X11458284Y-10639716D01*
X11401715Y-10639716D01*
X11401715Y-10696285D01*
X11458284Y-10696285D01*
X11458284Y-11712284D02*
X11458284Y-11655715D01*
X11401715Y-11655715D01*
X11401715Y-11712284D01*
X11458284Y-11712284D01*
X11586284Y-14888284D02*
X11586284Y-14831715D01*
X11529715Y-14831715D01*
X11529715Y-14888284D01*
X11586284Y-14888284D01*
X11586284Y-15142284D02*
X11586284Y-15085715D01*
X11529715Y-15085715D01*
X11529715Y-15142284D01*
X11586284Y-15142284D01*
X11586284Y-15396284D02*
X11586284Y-15339715D01*
X11529715Y-15339715D01*
X11529715Y-15396284D01*
X11586284Y-15396284D01*
X11586284Y-15650284D02*
X11586284Y-15593715D01*
X11529715Y-15593715D01*
X11529715Y-15650284D01*
X11586284Y-15650284D01*
X11966284Y-10696285D02*
X11966284Y-10639716D01*
X11909715Y-10639716D01*
X11909715Y-10696285D01*
X11966284Y-10696285D01*
X11966284Y-11712284D02*
X11966284Y-11655715D01*
X11909715Y-11655715D01*
X11909715Y-11712284D01*
X11966284Y-11712284D01*
X12348284Y-14888284D02*
X12348284Y-14831715D01*
X12291715Y-14831715D01*
X12291715Y-14888284D01*
X12348284Y-14888284D01*
X12348284Y-15142284D02*
X12348284Y-15085715D01*
X12291715Y-15085715D01*
X12291715Y-15142284D01*
X12348284Y-15142284D01*
X12348284Y-15396284D02*
X12348284Y-15339715D01*
X12291715Y-15339715D01*
X12291715Y-15396284D01*
X12348284Y-15396284D01*
X12348284Y-15650284D02*
X12348284Y-15593715D01*
X12291715Y-15593715D01*
X12291715Y-15650284D01*
X12348284Y-15650284D01*
X12474284Y-10696285D02*
X12474284Y-10639716D01*
X12417715Y-10639716D01*
X12417715Y-10696285D01*
X12474284Y-10696285D01*
X12474284Y-11712284D02*
X12474284Y-11655715D01*
X12417715Y-11655715D01*
X12417715Y-11712284D01*
X12474284Y-11712284D01*
X12982284Y-10696285D02*
X12982284Y-10639716D01*
X12925715Y-10639716D01*
X12925715Y-10696285D01*
X12982284Y-10696285D01*
X12982284Y-11712284D02*
X12982284Y-11655715D01*
X12925715Y-11655715D01*
X12925715Y-11712284D01*
X12982284Y-11712284D01*
X12982284Y-18062285D02*
X12982284Y-18005716D01*
X12925715Y-18005716D01*
X12925715Y-18062285D01*
X12982284Y-18062285D01*
X12982284Y-18570285D02*
X12982284Y-18513716D01*
X12925715Y-18513716D01*
X12925715Y-18570285D01*
X12982284Y-18570285D01*
X12982284Y-19078285D02*
X12982284Y-19021716D01*
X12925715Y-19021716D01*
X12925715Y-19078285D01*
X12982284Y-19078285D01*
X13744284Y-10696285D02*
X13744284Y-10639716D01*
X13687715Y-10639716D01*
X13687715Y-10696285D01*
X13744284Y-10696285D01*
X13744284Y-11712284D02*
X13744284Y-11655715D01*
X13687715Y-11655715D01*
X13687715Y-11712284D01*
X13744284Y-11712284D01*
X13998284Y-18062285D02*
X13998284Y-18005716D01*
X13941715Y-18005716D01*
X13941715Y-18062285D01*
X13998284Y-18062285D01*
X13998284Y-18570285D02*
X13998284Y-18513716D01*
X13941715Y-18513716D01*
X13941715Y-18570285D01*
X13998284Y-18570285D01*
X13998284Y-19078285D02*
X13998284Y-19021716D01*
X13941715Y-19021716D01*
X13941715Y-19078285D01*
X13998284Y-19078285D01*
X14377784Y-12221284D02*
X14377784Y-12164715D01*
X14321215Y-12164715D01*
X14321215Y-12221284D01*
X14377784Y-12221284D01*
X14377784Y-12475284D02*
X14377784Y-12418715D01*
X14321215Y-12418715D01*
X14321215Y-12475284D01*
X14377784Y-12475284D01*
X14377784Y-12729284D02*
X14377784Y-12672715D01*
X14321215Y-12672715D01*
X14321215Y-12729284D01*
X14377784Y-12729284D01*
X14377784Y-12983284D02*
X14377784Y-12926715D01*
X14321215Y-12926715D01*
X14321215Y-12983284D01*
X14377784Y-12983284D01*
X14377784Y-13237284D02*
X14377784Y-13180715D01*
X14321215Y-13180715D01*
X14321215Y-13237284D01*
X14377784Y-13237284D01*
X14377784Y-13491284D02*
X14377784Y-13434715D01*
X14321215Y-13434715D01*
X14321215Y-13491284D01*
X14377784Y-13491284D01*
X14377784Y-13745284D02*
X14377784Y-13688715D01*
X14321215Y-13688715D01*
X14321215Y-13745284D01*
X14377784Y-13745284D01*
X14377784Y-13999284D02*
X14377784Y-13942715D01*
X14321215Y-13942715D01*
X14321215Y-13999284D01*
X14377784Y-13999284D01*
X14377784Y-14253284D02*
X14377784Y-14196715D01*
X14321215Y-14196715D01*
X14321215Y-14253284D01*
X14377784Y-14253284D01*
X14506284Y-10696285D02*
X14506284Y-10639716D01*
X14449715Y-10639716D01*
X14449715Y-10696285D01*
X14506284Y-10696285D01*
X14506284Y-11712284D02*
X14506284Y-11655715D01*
X14449715Y-11655715D01*
X14449715Y-11712284D01*
X14506284Y-11712284D01*
X14506284Y-18062285D02*
X14506284Y-18005716D01*
X14449715Y-18005716D01*
X14449715Y-18062285D01*
X14506284Y-18062285D01*
X15014284Y-10696285D02*
X15014284Y-10639716D01*
X14957715Y-10639716D01*
X14957715Y-10696285D01*
X15014284Y-10696285D01*
X15014284Y-11712284D02*
X15014284Y-11655715D01*
X14957715Y-11655715D01*
X14957715Y-11712284D01*
X15014284Y-11712284D01*
X15139784Y-12221284D02*
X15139784Y-12164715D01*
X15083215Y-12164715D01*
X15083215Y-12221284D01*
X15139784Y-12221284D01*
X15139784Y-12475284D02*
X15139784Y-12418715D01*
X15083215Y-12418715D01*
X15083215Y-12475284D01*
X15139784Y-12475284D01*
X15139784Y-12729284D02*
X15139784Y-12672715D01*
X15083215Y-12672715D01*
X15083215Y-12729284D01*
X15139784Y-12729284D01*
X15139784Y-12983284D02*
X15139784Y-12926715D01*
X15083215Y-12926715D01*
X15083215Y-12983284D01*
X15139784Y-12983284D01*
X15139784Y-13237284D02*
X15139784Y-13180715D01*
X15083215Y-13180715D01*
X15083215Y-13237284D01*
X15139784Y-13237284D01*
X15139784Y-13491284D02*
X15139784Y-13434715D01*
X15083215Y-13434715D01*
X15083215Y-13491284D01*
X15139784Y-13491284D01*
X15139784Y-13745284D02*
X15139784Y-13688715D01*
X15083215Y-13688715D01*
X15083215Y-13745284D01*
X15139784Y-13745284D01*
X15139784Y-13999284D02*
X15139784Y-13942715D01*
X15083215Y-13942715D01*
X15083215Y-13999284D01*
X15139784Y-13999284D01*
X15139784Y-14253284D02*
X15139784Y-14196715D01*
X15083215Y-14196715D01*
X15083215Y-14253284D01*
X15139784Y-14253284D01*
X15522284Y-10696285D02*
X15522284Y-10639716D01*
X15465715Y-10639716D01*
X15465715Y-10696285D01*
X15522284Y-10696285D01*
X15522284Y-11712284D02*
X15522284Y-11655715D01*
X15465715Y-11655715D01*
X15465715Y-11712284D01*
X15522284Y-11712284D01*
X15522284Y-14506284D02*
X15522284Y-14449715D01*
X15465715Y-14449715D01*
X15465715Y-14506284D01*
X15522284Y-14506284D01*
X15522284Y-15014284D02*
X15522284Y-14957715D01*
X15465715Y-14957715D01*
X15465715Y-15014284D01*
X15522284Y-15014284D01*
X15522284Y-16030284D02*
X15522284Y-15973715D01*
X15465715Y-15973715D01*
X15465715Y-16030284D01*
X15522284Y-16030284D01*
X15522284Y-18062285D02*
X15522284Y-18005716D01*
X15465715Y-18005716D01*
X15465715Y-18062285D01*
X15522284Y-18062285D01*
X15776284Y-18062285D02*
X15776284Y-18005716D01*
X15719715Y-18005716D01*
X15719715Y-18062285D01*
X15776284Y-18062285D01*
X15970284Y-13628284D02*
X15970284Y-13571715D01*
X15913715Y-13571715D01*
X15913715Y-13628284D01*
X15970284Y-13628284D01*
X16030284Y-10696285D02*
X16030284Y-10639716D01*
X15973715Y-10639716D01*
X15973715Y-10696285D01*
X16030284Y-10696285D01*
X16030284Y-11712284D02*
X16030284Y-11655715D01*
X15973715Y-11655715D01*
X15973715Y-11712284D01*
X16030284Y-11712284D01*
X16030284Y-15014284D02*
X16030284Y-14957715D01*
X15973715Y-14957715D01*
X15973715Y-15014284D01*
X16030284Y-15014284D01*
X16030284Y-16030284D02*
X16030284Y-15973715D01*
X15973715Y-15973715D01*
X15973715Y-16030284D01*
X16030284Y-16030284D01*
X16538284Y-10696285D02*
X16538284Y-10639716D01*
X16481715Y-10639716D01*
X16481715Y-10696285D01*
X16538284Y-10696285D01*
X16538284Y-11712284D02*
X16538284Y-11655715D01*
X16481715Y-11655715D01*
X16481715Y-11712284D01*
X16538284Y-11712284D01*
X16538284Y-14506284D02*
X16538284Y-14449715D01*
X16481715Y-14449715D01*
X16481715Y-14506284D01*
X16538284Y-14506284D01*
X16792285Y-18062285D02*
X16792285Y-18005716D01*
X16735715Y-18005716D01*
X16735715Y-18062285D01*
X16792285Y-18062285D01*
X16920285Y-15142284D02*
X16920285Y-15085715D01*
X16863716Y-15085715D01*
X16863716Y-15142284D01*
X16920285Y-15142284D01*
X16920285Y-15396284D02*
X16920285Y-15339715D01*
X16863716Y-15339715D01*
X16863716Y-15396284D01*
X16920285Y-15396284D01*
X16920285Y-15650284D02*
X16920285Y-15593715D01*
X16863716Y-15593715D01*
X16863716Y-15650284D01*
X16920285Y-15650284D01*
X16920285Y-15904284D02*
X16920285Y-15847715D01*
X16863716Y-15847715D01*
X16863716Y-15904284D01*
X16920285Y-15904284D01*
X16986285Y-13628284D02*
X16986285Y-13571715D01*
X16929716Y-13571715D01*
X16929716Y-13628284D01*
X16986285Y-13628284D01*
X17046285Y-10696285D02*
X17046285Y-10639716D01*
X16989716Y-10639716D01*
X16989716Y-10696285D01*
X17046285Y-10696285D01*
X17046285Y-11712284D02*
X17046285Y-11655715D01*
X16989716Y-11655715D01*
X16989716Y-11712284D01*
X17046285Y-11712284D01*
X17554285Y-10696285D02*
X17554285Y-10639716D01*
X17497716Y-10639716D01*
X17497716Y-10696285D01*
X17554285Y-10696285D01*
X17554285Y-11712284D02*
X17554285Y-11655715D01*
X17497716Y-11655715D01*
X17497716Y-11712284D01*
X17554285Y-11712284D01*
X17554285Y-18062285D02*
X17554285Y-18005716D01*
X17497716Y-18005716D01*
X17497716Y-18062285D01*
X17554285Y-18062285D01*
X17554285Y-19078285D02*
X17554285Y-19021716D01*
X17497716Y-19021716D01*
X17497716Y-19078285D01*
X17554285Y-19078285D01*
X17682285Y-15142284D02*
X17682285Y-15085715D01*
X17625716Y-15085715D01*
X17625716Y-15142284D01*
X17682285Y-15142284D01*
X17682285Y-15396284D02*
X17682285Y-15339715D01*
X17625716Y-15339715D01*
X17625716Y-15396284D01*
X17682285Y-15396284D01*
X17682285Y-15650284D02*
X17682285Y-15593715D01*
X17625716Y-15593715D01*
X17625716Y-15650284D01*
X17682285Y-15650284D01*
X17682285Y-15904284D02*
X17682285Y-15847715D01*
X17625716Y-15847715D01*
X17625716Y-15904284D01*
X17682285Y-15904284D01*
X19078285Y-10696285D02*
X19078285Y-10639716D01*
X19021716Y-10639716D01*
X19021716Y-10696285D01*
X19078285Y-10696285D01*
X19078285Y-11712284D02*
X19078285Y-11655715D01*
X19021716Y-11655715D01*
X19021716Y-11712284D01*
X19078285Y-11712284D01*
X19840285Y-10696285D02*
X19840285Y-10639716D01*
X19783716Y-10639716D01*
X19783716Y-10696285D01*
X19840285Y-10696285D01*
X19840285Y-11712284D02*
X19840285Y-11655715D01*
X19783716Y-11655715D01*
X19783716Y-11712284D01*
X19840285Y-11712284D01*
X20219785Y-12221284D02*
X20219785Y-12164715D01*
X20163216Y-12164715D01*
X20163216Y-12221284D01*
X20219785Y-12221284D01*
X20219785Y-12475284D02*
X20219785Y-12418715D01*
X20163216Y-12418715D01*
X20163216Y-12475284D01*
X20219785Y-12475284D01*
X20219785Y-12729284D02*
X20219785Y-12672715D01*
X20163216Y-12672715D01*
X20163216Y-12729284D01*
X20219785Y-12729284D01*
X20219785Y-12983284D02*
X20219785Y-12926715D01*
X20163216Y-12926715D01*
X20163216Y-12983284D01*
X20219785Y-12983284D01*
X20219785Y-13237284D02*
X20219785Y-13180715D01*
X20163216Y-13180715D01*
X20163216Y-13237284D01*
X20219785Y-13237284D01*
X20219785Y-13491284D02*
X20219785Y-13434715D01*
X20163216Y-13434715D01*
X20163216Y-13491284D01*
X20219785Y-13491284D01*
X20219785Y-13745284D02*
X20219785Y-13688715D01*
X20163216Y-13688715D01*
X20163216Y-13745284D01*
X20219785Y-13745284D01*
X20219785Y-13999284D02*
X20219785Y-13942715D01*
X20163216Y-13942715D01*
X20163216Y-13999284D01*
X20219785Y-13999284D01*
X20219785Y-14253284D02*
X20219785Y-14196715D01*
X20163216Y-14196715D01*
X20163216Y-14253284D01*
X20219785Y-14253284D01*
X20348285Y-10696285D02*
X20348285Y-10639716D01*
X20291716Y-10639716D01*
X20291716Y-10696285D01*
X20348285Y-10696285D01*
X20348285Y-11712284D02*
X20348285Y-11655715D01*
X20291716Y-11655715D01*
X20291716Y-11712284D01*
X20348285Y-11712284D01*
X20602285Y-14760284D02*
X20602285Y-14703715D01*
X20545716Y-14703715D01*
X20545716Y-14760284D01*
X20602285Y-14760284D01*
X20602285Y-15776284D02*
X20602285Y-15719715D01*
X20545716Y-15719715D01*
X20545716Y-15776284D01*
X20602285Y-15776284D01*
X20856285Y-10696285D02*
X20856285Y-10639716D01*
X20799716Y-10639716D01*
X20799716Y-10696285D01*
X20856285Y-10696285D01*
X20856285Y-11712284D02*
X20856285Y-11655715D01*
X20799716Y-11655715D01*
X20799716Y-11712284D01*
X20856285Y-11712284D01*
X20981785Y-12221284D02*
X20981785Y-12164715D01*
X20925216Y-12164715D01*
X20925216Y-12221284D01*
X20981785Y-12221284D01*
X20981785Y-12475284D02*
X20981785Y-12418715D01*
X20925216Y-12418715D01*
X20925216Y-12475284D01*
X20981785Y-12475284D01*
X20981785Y-12729284D02*
X20981785Y-12672715D01*
X20925216Y-12672715D01*
X20925216Y-12729284D01*
X20981785Y-12729284D01*
X20981785Y-12983284D02*
X20981785Y-12926715D01*
X20925216Y-12926715D01*
X20925216Y-12983284D01*
X20981785Y-12983284D01*
X20981785Y-13237284D02*
X20981785Y-13180715D01*
X20925216Y-13180715D01*
X20925216Y-13237284D01*
X20981785Y-13237284D01*
X20981785Y-13491284D02*
X20981785Y-13434715D01*
X20925216Y-13434715D01*
X20925216Y-13491284D01*
X20981785Y-13491284D01*
X20981785Y-13745284D02*
X20981785Y-13688715D01*
X20925216Y-13688715D01*
X20925216Y-13745284D01*
X20981785Y-13745284D01*
X20981785Y-13999284D02*
X20981785Y-13942715D01*
X20925216Y-13942715D01*
X20925216Y-13999284D01*
X20981785Y-13999284D01*
X20981785Y-14253284D02*
X20981785Y-14196715D01*
X20925216Y-14196715D01*
X20925216Y-14253284D01*
X20981785Y-14253284D01*
X21110285Y-14760284D02*
X21110285Y-14703715D01*
X21053716Y-14703715D01*
X21053716Y-14760284D01*
X21110285Y-14760284D01*
X21110285Y-15776284D02*
X21110285Y-15719715D01*
X21053716Y-15719715D01*
X21053716Y-15776284D01*
X21110285Y-15776284D01*
X21364285Y-10696285D02*
X21364285Y-10639716D01*
X21307716Y-10639716D01*
X21307716Y-10696285D01*
X21364285Y-10696285D01*
X21364285Y-11712284D02*
X21364285Y-11655715D01*
X21307716Y-11655715D01*
X21307716Y-11712284D01*
X21364285Y-11712284D01*
X21364285Y-13236284D02*
X21364285Y-13179715D01*
X21307716Y-13179715D01*
X21307716Y-13236284D01*
X21364285Y-13236284D01*
X21364285Y-14252284D02*
X21364285Y-14195715D01*
X21307716Y-14195715D01*
X21307716Y-14252284D01*
X21364285Y-14252284D01*
X21872285Y-10696285D02*
X21872285Y-10639716D01*
X21815716Y-10639716D01*
X21815716Y-10696285D01*
X21872285Y-10696285D01*
X21872285Y-11712284D02*
X21872285Y-11655715D01*
X21815716Y-11655715D01*
X21815716Y-11712284D01*
X21872285Y-11712284D01*
X22254285Y-14888284D02*
X22254285Y-14831715D01*
X22197716Y-14831715D01*
X22197716Y-14888284D01*
X22254285Y-14888284D01*
X22254285Y-15142284D02*
X22254285Y-15085715D01*
X22197716Y-15085715D01*
X22197716Y-15142284D01*
X22254285Y-15142284D01*
X22254285Y-15396284D02*
X22254285Y-15339715D01*
X22197716Y-15339715D01*
X22197716Y-15396284D01*
X22254285Y-15396284D01*
X22254285Y-15650284D02*
X22254285Y-15593715D01*
X22197716Y-15593715D01*
X22197716Y-15650284D01*
X22254285Y-15650284D01*
X22380284Y-10696285D02*
X22380284Y-10639716D01*
X22323716Y-10639716D01*
X22323716Y-10696285D01*
X22380284Y-10696285D01*
X22380284Y-11712284D02*
X22380284Y-11655715D01*
X22323716Y-11655715D01*
X22323716Y-11712284D01*
X22380284Y-11712284D01*
X22380284Y-13236284D02*
X22380284Y-13179715D01*
X22323716Y-13179715D01*
X22323716Y-13236284D01*
X22380284Y-13236284D01*
X22380284Y-14252284D02*
X22380284Y-14195715D01*
X22323716Y-14195715D01*
X22323716Y-14252284D01*
X22380284Y-14252284D01*
X22888284Y-10696285D02*
X22888284Y-10639716D01*
X22831715Y-10639716D01*
X22831715Y-10696285D01*
X22888284Y-10696285D01*
X22888284Y-11712284D02*
X22888284Y-11655715D01*
X22831715Y-11655715D01*
X22831715Y-11712284D01*
X22888284Y-11712284D01*
X23016284Y-14888284D02*
X23016284Y-14831715D01*
X22959715Y-14831715D01*
X22959715Y-14888284D01*
X23016284Y-14888284D01*
X23016284Y-15142284D02*
X23016284Y-15085715D01*
X22959715Y-15085715D01*
X22959715Y-15142284D01*
X23016284Y-15142284D01*
X23016284Y-15396284D02*
X23016284Y-15339715D01*
X22959715Y-15339715D01*
X22959715Y-15396284D01*
X23016284Y-15396284D01*
X23016284Y-15650284D02*
X23016284Y-15593715D01*
X22959715Y-15593715D01*
X22959715Y-15650284D01*
X23016284Y-15650284D01*
X23904284Y-10696285D02*
X23904284Y-10639716D01*
X23847715Y-10639716D01*
X23847715Y-10696285D01*
X23904284Y-10696285D01*
X23904284Y-11712284D02*
X23904284Y-11655715D01*
X23847715Y-11655715D01*
X23847715Y-11712284D01*
X23904284Y-11712284D01*
X23904284Y-17554285D02*
X23904284Y-17497716D01*
X23847715Y-17497716D01*
X23847715Y-17554285D01*
X23904284Y-17554285D01*
X24666284Y-10696285D02*
X24666284Y-10639716D01*
X24609715Y-10639716D01*
X24609715Y-10696285D01*
X24666284Y-10696285D01*
X24666284Y-11712284D02*
X24666284Y-11655715D01*
X24609715Y-11655715D01*
X24609715Y-11712284D01*
X24666284Y-11712284D01*
X24920284Y-17554285D02*
X24920284Y-17497716D01*
X24863715Y-17497716D01*
X24863715Y-17554285D01*
X24920284Y-17554285D01*
X25174284Y-10696285D02*
X25174284Y-10639716D01*
X25117715Y-10639716D01*
X25117715Y-10696285D01*
X25174284Y-10696285D01*
X25174284Y-11712284D02*
X25174284Y-11655715D01*
X25117715Y-11655715D01*
X25117715Y-11712284D01*
X25174284Y-11712284D01*
X25299784Y-12221284D02*
X25299784Y-12164715D01*
X25243215Y-12164715D01*
X25243215Y-12221284D01*
X25299784Y-12221284D01*
X25299784Y-12475284D02*
X25299784Y-12418715D01*
X25243215Y-12418715D01*
X25243215Y-12475284D01*
X25299784Y-12475284D01*
X25299784Y-12729284D02*
X25299784Y-12672715D01*
X25243215Y-12672715D01*
X25243215Y-12729284D01*
X25299784Y-12729284D01*
X25299784Y-12983284D02*
X25299784Y-12926715D01*
X25243215Y-12926715D01*
X25243215Y-12983284D01*
X25299784Y-12983284D01*
X25299784Y-13237284D02*
X25299784Y-13180715D01*
X25243215Y-13180715D01*
X25243215Y-13237284D01*
X25299784Y-13237284D01*
X25299784Y-13491284D02*
X25299784Y-13434715D01*
X25243215Y-13434715D01*
X25243215Y-13491284D01*
X25299784Y-13491284D01*
X25299784Y-13745284D02*
X25299784Y-13688715D01*
X25243215Y-13688715D01*
X25243215Y-13745284D01*
X25299784Y-13745284D01*
X25299784Y-13999284D02*
X25299784Y-13942715D01*
X25243215Y-13942715D01*
X25243215Y-13999284D01*
X25299784Y-13999284D01*
X25299784Y-14253284D02*
X25299784Y-14196715D01*
X25243215Y-14196715D01*
X25243215Y-14253284D01*
X25299784Y-14253284D01*
X25556284Y-16158284D02*
X25556284Y-16101715D01*
X25499715Y-16101715D01*
X25499715Y-16158284D01*
X25556284Y-16158284D01*
X25556284Y-16412284D02*
X25556284Y-16355715D01*
X25499715Y-16355715D01*
X25499715Y-16412284D01*
X25556284Y-16412284D01*
X25556284Y-16666284D02*
X25556284Y-16609715D01*
X25499715Y-16609715D01*
X25499715Y-16666284D01*
X25556284Y-16666284D01*
X25556284Y-16920285D02*
X25556284Y-16863716D01*
X25499715Y-16863716D01*
X25499715Y-16920285D01*
X25556284Y-16920285D01*
X25682284Y-10696285D02*
X25682284Y-10639716D01*
X25625715Y-10639716D01*
X25625715Y-10696285D01*
X25682284Y-10696285D01*
X25682284Y-11712284D02*
X25682284Y-11655715D01*
X25625715Y-11655715D01*
X25625715Y-11712284D01*
X25682284Y-11712284D01*
X26061784Y-12221284D02*
X26061784Y-12164715D01*
X26005215Y-12164715D01*
X26005215Y-12221284D01*
X26061784Y-12221284D01*
X26061784Y-12475284D02*
X26061784Y-12418715D01*
X26005215Y-12418715D01*
X26005215Y-12475284D01*
X26061784Y-12475284D01*
X26061784Y-12729284D02*
X26061784Y-12672715D01*
X26005215Y-12672715D01*
X26005215Y-12729284D01*
X26061784Y-12729284D01*
X26061784Y-12983284D02*
X26061784Y-12926715D01*
X26005215Y-12926715D01*
X26005215Y-12983284D01*
X26061784Y-12983284D01*
X26061784Y-13237284D02*
X26061784Y-13180715D01*
X26005215Y-13180715D01*
X26005215Y-13237284D01*
X26061784Y-13237284D01*
X26061784Y-13491284D02*
X26061784Y-13434715D01*
X26005215Y-13434715D01*
X26005215Y-13491284D01*
X26061784Y-13491284D01*
X26061784Y-13745284D02*
X26061784Y-13688715D01*
X26005215Y-13688715D01*
X26005215Y-13745284D01*
X26061784Y-13745284D01*
X26061784Y-13999284D02*
X26061784Y-13942715D01*
X26005215Y-13942715D01*
X26005215Y-13999284D01*
X26061784Y-13999284D01*
X26061784Y-14253284D02*
X26061784Y-14196715D01*
X26005215Y-14196715D01*
X26005215Y-14253284D01*
X26061784Y-14253284D01*
X26190284Y-10696285D02*
X26190284Y-10639716D01*
X26133715Y-10639716D01*
X26133715Y-10696285D01*
X26190284Y-10696285D01*
X26190284Y-11712284D02*
X26190284Y-11655715D01*
X26133715Y-11655715D01*
X26133715Y-11712284D01*
X26190284Y-11712284D01*
X26318284Y-16158284D02*
X26318284Y-16101715D01*
X26261715Y-16101715D01*
X26261715Y-16158284D01*
X26318284Y-16158284D01*
X26318284Y-16412284D02*
X26318284Y-16355715D01*
X26261715Y-16355715D01*
X26261715Y-16412284D01*
X26318284Y-16412284D01*
X26318284Y-16666284D02*
X26318284Y-16609715D01*
X26261715Y-16609715D01*
X26261715Y-16666284D01*
X26318284Y-16666284D01*
X26318284Y-16920285D02*
X26318284Y-16863716D01*
X26261715Y-16863716D01*
X26261715Y-16920285D01*
X26318284Y-16920285D01*
X26698284Y-10696285D02*
X26698284Y-10639716D01*
X26641715Y-10639716D01*
X26641715Y-10696285D01*
X26698284Y-10696285D01*
X26698284Y-11712284D02*
X26698284Y-11655715D01*
X26641715Y-11655715D01*
X26641715Y-11712284D01*
X26698284Y-11712284D01*
X27206284Y-10696285D02*
X27206284Y-10639716D01*
X27149715Y-10639716D01*
X27149715Y-10696285D01*
X27206284Y-10696285D01*
X27206284Y-11712284D02*
X27206284Y-11655715D01*
X27149715Y-11655715D01*
X27149715Y-11712284D01*
X27206284Y-11712284D01*
X27460284Y-12982284D02*
X27460284Y-12925715D01*
X27403715Y-12925715D01*
X27403715Y-12982284D01*
X27460284Y-12982284D01*
X27460284Y-13490284D02*
X27460284Y-13433715D01*
X27403715Y-13433715D01*
X27403715Y-13490284D01*
X27460284Y-13490284D01*
X27460284Y-13998284D02*
X27460284Y-13941715D01*
X27403715Y-13941715D01*
X27403715Y-13998284D01*
X27460284Y-13998284D01*
X27460284Y-14506284D02*
X27460284Y-14449715D01*
X27403715Y-14449715D01*
X27403715Y-14506284D01*
X27460284Y-14506284D01*
X27714284Y-10696285D02*
X27714284Y-10639716D01*
X27657715Y-10639716D01*
X27657715Y-10696285D01*
X27714284Y-10696285D01*
X27714284Y-11712284D02*
X27714284Y-11655715D01*
X27657715Y-11655715D01*
X27657715Y-11712284D01*
X27714284Y-11712284D01*
X28476284Y-12982284D02*
X28476284Y-12925715D01*
X28419715Y-12925715D01*
X28419715Y-12982284D01*
X28476284Y-12982284D01*
X28476284Y-13490284D02*
X28476284Y-13433715D01*
X28419715Y-13433715D01*
X28419715Y-13490284D01*
X28476284Y-13490284D01*
X28476284Y-13998284D02*
X28476284Y-13941715D01*
X28419715Y-13941715D01*
X28419715Y-13998284D01*
X28476284Y-13998284D01*
X28476284Y-14506284D02*
X28476284Y-14449715D01*
X28419715Y-14449715D01*
X28419715Y-14506284D01*
X28476284Y-14506284D01*
D16*
X25908000Y-17822500D02*
X25950500Y-17780000D01*
X25908000Y-17737500D01*
X25865500Y-17780000D01*
X25908000Y-17822500D01*
X26408000Y-17822500D02*
X26450500Y-17780000D01*
X26408000Y-17737500D01*
X26365500Y-17780000D01*
X26408000Y-17822500D01*
D17*
X3252000Y-17730000D02*
X3352000Y-17830000D01*
X3352000Y-17730000D02*
X3252000Y-17830000D01*
X3352000Y-17780000D02*
G75*
G03*
X3352000Y-17780000I-50000J0D01*
G01*
X3252000Y-18492000D02*
X3352000Y-18592000D01*
X3352000Y-18492000D02*
X3252000Y-18592000D01*
X3352000Y-18542000D02*
G75*
G03*
X3352000Y-18542000I-50000J0D01*
G01*
X3506000Y-17730000D02*
X3606000Y-17830000D01*
X3606000Y-17730000D02*
X3506000Y-17830000D01*
X3606000Y-17780000D02*
G75*
G03*
X3606000Y-17780000I-50000J0D01*
G01*
X3506000Y-18492000D02*
X3606000Y-18592000D01*
X3606000Y-18492000D02*
X3506000Y-18592000D01*
X3606000Y-18542000D02*
G75*
G03*
X3606000Y-18542000I-50000J0D01*
G01*
X3760000Y-17730000D02*
X3860000Y-17830000D01*
X3860000Y-17730000D02*
X3760000Y-17830000D01*
X3860000Y-17780000D02*
G75*
G03*
X3860000Y-17780000I-50000J0D01*
G01*
X3760000Y-18492000D02*
X3860000Y-18592000D01*
X3860000Y-18492000D02*
X3760000Y-18592000D01*
X3860000Y-18542000D02*
G75*
G03*
X3860000Y-18542000I-50000J0D01*
G01*
X4014000Y-17730000D02*
X4114000Y-17830000D01*
X4114000Y-17730000D02*
X4014000Y-17830000D01*
X4114000Y-17780000D02*
G75*
G03*
X4114000Y-17780000I-50000J0D01*
G01*
X4014000Y-18492000D02*
X4114000Y-18592000D01*
X4114000Y-18492000D02*
X4014000Y-18592000D01*
X4114000Y-18542000D02*
G75*
G03*
X4114000Y-18542000I-50000J0D01*
G01*
X4268000Y-17730000D02*
X4368000Y-17830000D01*
X4368000Y-17730000D02*
X4268000Y-17830000D01*
X4368000Y-17780000D02*
G75*
G03*
X4368000Y-17780000I-50000J0D01*
G01*
X4268000Y-18492000D02*
X4368000Y-18592000D01*
X4368000Y-18492000D02*
X4268000Y-18592000D01*
X4368000Y-18542000D02*
G75*
G03*
X4368000Y-18542000I-50000J0D01*
G01*
X4522000Y-17730000D02*
X4622000Y-17830000D01*
X4622000Y-17730000D02*
X4522000Y-17830000D01*
X4622000Y-17780000D02*
G75*
G03*
X4622000Y-17780000I-50000J0D01*
G01*
X4522000Y-18492000D02*
X4622000Y-18592000D01*
X4622000Y-18492000D02*
X4522000Y-18592000D01*
X4622000Y-18542000D02*
G75*
G03*
X4622000Y-18542000I-50000J0D01*
G01*
X4776000Y-17730000D02*
X4876000Y-17830000D01*
X4876000Y-17730000D02*
X4776000Y-17830000D01*
X4876000Y-17780000D02*
G75*
G03*
X4876000Y-17780000I-50000J0D01*
G01*
X4776000Y-18492000D02*
X4876000Y-18592000D01*
X4876000Y-18492000D02*
X4776000Y-18592000D01*
X4876000Y-18542000D02*
G75*
G03*
X4876000Y-18542000I-50000J0D01*
G01*
X5284000Y-3803000D02*
X5384000Y-3903000D01*
X5384000Y-3803000D02*
X5284000Y-3903000D01*
X5384000Y-3853000D02*
G75*
G03*
X5384000Y-3853000I-50000J0D01*
G01*
X5284000Y-9813000D02*
X5384000Y-9913000D01*
X5384000Y-9813000D02*
X5284000Y-9913000D01*
X5384000Y-9863000D02*
G75*
G03*
X5384000Y-9863000I-50000J0D01*
G01*
X5538000Y-3803000D02*
X5638000Y-3903000D01*
X5638000Y-3803000D02*
X5538000Y-3903000D01*
X5638000Y-3853000D02*
G75*
G03*
X5638000Y-3853000I-50000J0D01*
G01*
X5538000Y-9813000D02*
X5638000Y-9913000D01*
X5638000Y-9813000D02*
X5538000Y-9913000D01*
X5638000Y-9863000D02*
G75*
G03*
X5638000Y-9863000I-50000J0D01*
G01*
X5792000Y-3803000D02*
X5892000Y-3903000D01*
X5892000Y-3803000D02*
X5792000Y-3903000D01*
X5892000Y-3853000D02*
G75*
G03*
X5892000Y-3853000I-50000J0D01*
G01*
X5792000Y-9813000D02*
X5892000Y-9913000D01*
X5892000Y-9813000D02*
X5792000Y-9913000D01*
X5892000Y-9863000D02*
G75*
G03*
X5892000Y-9863000I-50000J0D01*
G01*
X6046000Y-3803000D02*
X6146000Y-3903000D01*
X6146000Y-3803000D02*
X6046000Y-3903000D01*
X6146000Y-3853000D02*
G75*
G03*
X6146000Y-3853000I-50000J0D01*
G01*
X6046000Y-9813000D02*
X6146000Y-9913000D01*
X6146000Y-9813000D02*
X6046000Y-9913000D01*
X6146000Y-9863000D02*
G75*
G03*
X6146000Y-9863000I-50000J0D01*
G01*
X6300000Y-3803000D02*
X6400000Y-3903000D01*
X6400000Y-3803000D02*
X6300000Y-3903000D01*
X6400000Y-3853000D02*
G75*
G03*
X6400000Y-3853000I-50000J0D01*
G01*
X6300000Y-9813000D02*
X6400000Y-9913000D01*
X6400000Y-9813000D02*
X6300000Y-9913000D01*
X6400000Y-9863000D02*
G75*
G03*
X6400000Y-9863000I-50000J0D01*
G01*
X6551000Y-17603000D02*
X6651000Y-17703000D01*
X6651000Y-17603000D02*
X6551000Y-17703000D01*
X6651000Y-17653000D02*
G75*
G03*
X6651000Y-17653000I-50000J0D01*
G01*
X6551000Y-18365000D02*
X6651000Y-18465000D01*
X6651000Y-18365000D02*
X6551000Y-18465000D01*
X6651000Y-18415000D02*
G75*
G03*
X6651000Y-18415000I-50000J0D01*
G01*
X6805000Y-17603000D02*
X6905000Y-17703000D01*
X6905000Y-17603000D02*
X6805000Y-17703000D01*
X6905000Y-17653000D02*
G75*
G03*
X6905000Y-17653000I-50000J0D01*
G01*
X6805000Y-18365000D02*
X6905000Y-18465000D01*
X6905000Y-18365000D02*
X6805000Y-18465000D01*
X6905000Y-18415000D02*
G75*
G03*
X6905000Y-18415000I-50000J0D01*
G01*
X7059000Y-17603000D02*
X7159000Y-17703000D01*
X7159000Y-17603000D02*
X7059000Y-17703000D01*
X7159000Y-17653000D02*
G75*
G03*
X7159000Y-17653000I-50000J0D01*
G01*
X7059000Y-18365000D02*
X7159000Y-18465000D01*
X7159000Y-18365000D02*
X7059000Y-18465000D01*
X7159000Y-18415000D02*
G75*
G03*
X7159000Y-18415000I-50000J0D01*
G01*
X7313000Y-17603000D02*
X7413000Y-17703000D01*
X7413000Y-17603000D02*
X7313000Y-17703000D01*
X7413000Y-17653000D02*
G75*
G03*
X7413000Y-17653000I-50000J0D01*
G01*
X7313000Y-18365000D02*
X7413000Y-18465000D01*
X7413000Y-18365000D02*
X7313000Y-18465000D01*
X7413000Y-18415000D02*
G75*
G03*
X7413000Y-18415000I-50000J0D01*
G01*
X7567000Y-17603000D02*
X7667000Y-17703000D01*
X7667000Y-17603000D02*
X7567000Y-17703000D01*
X7667000Y-17653000D02*
G75*
G03*
X7667000Y-17653000I-50000J0D01*
G01*
X7567000Y-18365000D02*
X7667000Y-18465000D01*
X7667000Y-18365000D02*
X7567000Y-18465000D01*
X7667000Y-18415000D02*
G75*
G03*
X7667000Y-18415000I-50000J0D01*
G01*
X7821000Y-17603000D02*
X7921000Y-17703000D01*
X7921000Y-17603000D02*
X7821000Y-17703000D01*
X7921000Y-17653000D02*
G75*
G03*
X7921000Y-17653000I-50000J0D01*
G01*
X7821000Y-18365000D02*
X7921000Y-18465000D01*
X7921000Y-18365000D02*
X7821000Y-18465000D01*
X7921000Y-18415000D02*
G75*
G03*
X7921000Y-18415000I-50000J0D01*
G01*
X8075000Y-17603000D02*
X8175000Y-17703000D01*
X8175000Y-17603000D02*
X8075000Y-17703000D01*
X8175000Y-17653000D02*
G75*
G03*
X8175000Y-17653000I-50000J0D01*
G01*
X8075000Y-18365000D02*
X8175000Y-18465000D01*
X8175000Y-18365000D02*
X8075000Y-18465000D01*
X8175000Y-18415000D02*
G75*
G03*
X8175000Y-18415000I-50000J0D01*
G01*
X10364000Y-3803000D02*
X10464000Y-3903000D01*
X10464000Y-3803000D02*
X10364000Y-3903000D01*
X10464000Y-3853000D02*
G75*
G03*
X10464000Y-3853000I-50000J0D01*
G01*
X10364000Y-9813000D02*
X10464000Y-9913000D01*
X10464000Y-9813000D02*
X10364000Y-9913000D01*
X10464000Y-9863000D02*
G75*
G03*
X10464000Y-9863000I-50000J0D01*
G01*
X10618000Y-3803000D02*
X10718000Y-3903000D01*
X10718000Y-3803000D02*
X10618000Y-3903000D01*
X10718000Y-3853000D02*
G75*
G03*
X10718000Y-3853000I-50000J0D01*
G01*
X10618000Y-9813000D02*
X10718000Y-9913000D01*
X10718000Y-9813000D02*
X10618000Y-9913000D01*
X10718000Y-9863000D02*
G75*
G03*
X10718000Y-9863000I-50000J0D01*
G01*
X10872000Y-3803000D02*
X10972000Y-3903000D01*
X10972000Y-3803000D02*
X10872000Y-3903000D01*
X10972000Y-3853000D02*
G75*
G03*
X10972000Y-3853000I-50000J0D01*
G01*
X10872000Y-9813000D02*
X10972000Y-9913000D01*
X10972000Y-9813000D02*
X10872000Y-9913000D01*
X10972000Y-9863000D02*
G75*
G03*
X10972000Y-9863000I-50000J0D01*
G01*
X11126000Y-3803000D02*
X11226000Y-3903000D01*
X11226000Y-3803000D02*
X11126000Y-3903000D01*
X11226000Y-3853000D02*
G75*
G03*
X11226000Y-3853000I-50000J0D01*
G01*
X11126000Y-9813000D02*
X11226000Y-9913000D01*
X11226000Y-9813000D02*
X11126000Y-9913000D01*
X11226000Y-9863000D02*
G75*
G03*
X11226000Y-9863000I-50000J0D01*
G01*
X11380000Y-3803000D02*
X11480000Y-3903000D01*
X11480000Y-3803000D02*
X11380000Y-3903000D01*
X11480000Y-3853000D02*
G75*
G03*
X11480000Y-3853000I-50000J0D01*
G01*
X11380000Y-9813000D02*
X11480000Y-9913000D01*
X11480000Y-9813000D02*
X11380000Y-9913000D01*
X11480000Y-9863000D02*
G75*
G03*
X11480000Y-9863000I-50000J0D01*
G01*
X15444000Y-3803000D02*
X15544000Y-3903000D01*
X15544000Y-3803000D02*
X15444000Y-3903000D01*
X15544000Y-3853000D02*
G75*
G03*
X15544000Y-3853000I-50000J0D01*
G01*
X15444000Y-9813000D02*
X15544000Y-9913000D01*
X15544000Y-9813000D02*
X15444000Y-9913000D01*
X15544000Y-9863000D02*
G75*
G03*
X15544000Y-9863000I-50000J0D01*
G01*
X15698000Y-3803000D02*
X15798000Y-3903000D01*
X15798000Y-3803000D02*
X15698000Y-3903000D01*
X15798000Y-3853000D02*
G75*
G03*
X15798000Y-3853000I-50000J0D01*
G01*
X15698000Y-9813000D02*
X15798000Y-9913000D01*
X15798000Y-9813000D02*
X15698000Y-9913000D01*
X15798000Y-9863000D02*
G75*
G03*
X15798000Y-9863000I-50000J0D01*
G01*
X15952000Y-3803000D02*
X16052000Y-3903000D01*
X16052000Y-3803000D02*
X15952000Y-3903000D01*
X16052000Y-3853000D02*
G75*
G03*
X16052000Y-3853000I-50000J0D01*
G01*
X15952000Y-9813000D02*
X16052000Y-9913000D01*
X16052000Y-9813000D02*
X15952000Y-9913000D01*
X16052000Y-9863000D02*
G75*
G03*
X16052000Y-9863000I-50000J0D01*
G01*
X16206000Y-3803000D02*
X16306000Y-3903000D01*
X16306000Y-3803000D02*
X16206000Y-3903000D01*
X16306000Y-3853000D02*
G75*
G03*
X16306000Y-3853000I-50000J0D01*
G01*
X16206000Y-9813000D02*
X16306000Y-9913000D01*
X16306000Y-9813000D02*
X16206000Y-9913000D01*
X16306000Y-9863000D02*
G75*
G03*
X16306000Y-9863000I-50000J0D01*
G01*
X16460000Y-3803000D02*
X16560000Y-3903000D01*
X16560000Y-3803000D02*
X16460000Y-3903000D01*
X16560000Y-3853000D02*
G75*
G03*
X16560000Y-3853000I-50000J0D01*
G01*
X16460000Y-9813000D02*
X16560000Y-9913000D01*
X16560000Y-9813000D02*
X16460000Y-9913000D01*
X16560000Y-9863000D02*
G75*
G03*
X16560000Y-9863000I-50000J0D01*
G01*
X18235000Y-17857000D02*
X18335000Y-17957000D01*
X18335000Y-17857000D02*
X18235000Y-17957000D01*
X18335000Y-17907000D02*
G75*
G03*
X18335000Y-17907000I-50000J0D01*
G01*
X18235000Y-18619000D02*
X18335000Y-18719000D01*
X18335000Y-18619000D02*
X18235000Y-18719000D01*
X18335000Y-18669000D02*
G75*
G03*
X18335000Y-18669000I-50000J0D01*
G01*
X18489000Y-17857000D02*
X18589000Y-17957000D01*
X18589000Y-17857000D02*
X18489000Y-17957000D01*
X18589000Y-17907000D02*
G75*
G03*
X18589000Y-17907000I-50000J0D01*
G01*
X18489000Y-18619000D02*
X18589000Y-18719000D01*
X18589000Y-18619000D02*
X18489000Y-18719000D01*
X18589000Y-18669000D02*
G75*
G03*
X18589000Y-18669000I-50000J0D01*
G01*
X18743000Y-17857000D02*
X18843000Y-17957000D01*
X18843000Y-17857000D02*
X18743000Y-17957000D01*
X18843000Y-17907000D02*
G75*
G03*
X18843000Y-17907000I-50000J0D01*
G01*
X18743000Y-18619000D02*
X18843000Y-18719000D01*
X18843000Y-18619000D02*
X18743000Y-18719000D01*
X18843000Y-18669000D02*
G75*
G03*
X18843000Y-18669000I-50000J0D01*
G01*
X18997000Y-17857000D02*
X19097000Y-17957000D01*
X19097000Y-17857000D02*
X18997000Y-17957000D01*
X19097000Y-17907000D02*
G75*
G03*
X19097000Y-17907000I-50000J0D01*
G01*
X18997000Y-18619000D02*
X19097000Y-18719000D01*
X19097000Y-18619000D02*
X18997000Y-18719000D01*
X19097000Y-18669000D02*
G75*
G03*
X19097000Y-18669000I-50000J0D01*
G01*
X19251000Y-17857000D02*
X19351000Y-17957000D01*
X19351000Y-17857000D02*
X19251000Y-17957000D01*
X19351000Y-17907000D02*
G75*
G03*
X19351000Y-17907000I-50000J0D01*
G01*
X19251000Y-18619000D02*
X19351000Y-18719000D01*
X19351000Y-18619000D02*
X19251000Y-18719000D01*
X19351000Y-18669000D02*
G75*
G03*
X19351000Y-18669000I-50000J0D01*
G01*
X19505000Y-17857000D02*
X19605000Y-17957000D01*
X19605000Y-17857000D02*
X19505000Y-17957000D01*
X19605000Y-17907000D02*
G75*
G03*
X19605000Y-17907000I-50000J0D01*
G01*
X19505000Y-18619000D02*
X19605000Y-18719000D01*
X19605000Y-18619000D02*
X19505000Y-18719000D01*
X19605000Y-18669000D02*
G75*
G03*
X19605000Y-18669000I-50000J0D01*
G01*
X19759000Y-17857000D02*
X19859000Y-17957000D01*
X19859000Y-17857000D02*
X19759000Y-17957000D01*
X19859000Y-17907000D02*
G75*
G03*
X19859000Y-17907000I-50000J0D01*
G01*
X19759000Y-18619000D02*
X19859000Y-18719000D01*
X19859000Y-18619000D02*
X19759000Y-18719000D01*
X19859000Y-18669000D02*
G75*
G03*
X19859000Y-18669000I-50000J0D01*
G01*
X20524000Y-3803000D02*
X20624000Y-3903000D01*
X20624000Y-3803000D02*
X20524000Y-3903000D01*
X20624000Y-3853000D02*
G75*
G03*
X20624000Y-3853000I-50000J0D01*
G01*
X20524000Y-9813000D02*
X20624000Y-9913000D01*
X20624000Y-9813000D02*
X20524000Y-9913000D01*
X20624000Y-9863000D02*
G75*
G03*
X20624000Y-9863000I-50000J0D01*
G01*
X20778000Y-3803000D02*
X20878000Y-3903000D01*
X20878000Y-3803000D02*
X20778000Y-3903000D01*
X20878000Y-3853000D02*
G75*
G03*
X20878000Y-3853000I-50000J0D01*
G01*
X20778000Y-9813000D02*
X20878000Y-9913000D01*
X20878000Y-9813000D02*
X20778000Y-9913000D01*
X20878000Y-9863000D02*
G75*
G03*
X20878000Y-9863000I-50000J0D01*
G01*
X21032000Y-3803000D02*
X21132000Y-3903000D01*
X21132000Y-3803000D02*
X21032000Y-3903000D01*
X21132000Y-3853000D02*
G75*
G03*
X21132000Y-3853000I-50000J0D01*
G01*
X21032000Y-9813000D02*
X21132000Y-9913000D01*
X21132000Y-9813000D02*
X21032000Y-9913000D01*
X21132000Y-9863000D02*
G75*
G03*
X21132000Y-9863000I-50000J0D01*
G01*
X21286000Y-3803000D02*
X21386000Y-3903000D01*
X21386000Y-3803000D02*
X21286000Y-3903000D01*
X21386000Y-3853000D02*
G75*
G03*
X21386000Y-3853000I-50000J0D01*
G01*
X21286000Y-9813000D02*
X21386000Y-9913000D01*
X21386000Y-9813000D02*
X21286000Y-9913000D01*
X21386000Y-9863000D02*
G75*
G03*
X21386000Y-9863000I-50000J0D01*
G01*
X21540000Y-3803000D02*
X21640000Y-3903000D01*
X21640000Y-3803000D02*
X21540000Y-3903000D01*
X21640000Y-3853000D02*
G75*
G03*
X21640000Y-3853000I-50000J0D01*
G01*
X21540000Y-9813000D02*
X21640000Y-9913000D01*
X21640000Y-9813000D02*
X21540000Y-9913000D01*
X21640000Y-9863000D02*
G75*
G03*
X21640000Y-9863000I-50000J0D01*
G01*
X25604000Y-3803000D02*
X25704000Y-3903000D01*
X25704000Y-3803000D02*
X25604000Y-3903000D01*
X25704000Y-3853000D02*
G75*
G03*
X25704000Y-3853000I-50000J0D01*
G01*
X25604000Y-9813000D02*
X25704000Y-9913000D01*
X25704000Y-9813000D02*
X25604000Y-9913000D01*
X25704000Y-9863000D02*
G75*
G03*
X25704000Y-9863000I-50000J0D01*
G01*
X25858000Y-3803000D02*
X25958000Y-3903000D01*
X25958000Y-3803000D02*
X25858000Y-3903000D01*
X25958000Y-3853000D02*
G75*
G03*
X25958000Y-3853000I-50000J0D01*
G01*
X25858000Y-9813000D02*
X25958000Y-9913000D01*
X25958000Y-9813000D02*
X25858000Y-9913000D01*
X25958000Y-9863000D02*
G75*
G03*
X25958000Y-9863000I-50000J0D01*
G01*
X26112000Y-3803000D02*
X26212000Y-3903000D01*
X26212000Y-3803000D02*
X26112000Y-3903000D01*
X26212000Y-3853000D02*
G75*
G03*
X26212000Y-3853000I-50000J0D01*
G01*
X26112000Y-9813000D02*
X26212000Y-9913000D01*
X26212000Y-9813000D02*
X26112000Y-9913000D01*
X26212000Y-9863000D02*
G75*
G03*
X26212000Y-9863000I-50000J0D01*
G01*
X26366000Y-3803000D02*
X26466000Y-3903000D01*
X26466000Y-3803000D02*
X26366000Y-3903000D01*
X26466000Y-3853000D02*
G75*
G03*
X26466000Y-3853000I-50000J0D01*
G01*
X26366000Y-9813000D02*
X26466000Y-9913000D01*
X26466000Y-9813000D02*
X26366000Y-9913000D01*
X26466000Y-9863000D02*
G75*
G03*
X26466000Y-9863000I-50000J0D01*
G01*
X26620000Y-3803000D02*
X26720000Y-3903000D01*
X26720000Y-3803000D02*
X26620000Y-3903000D01*
X26720000Y-3853000D02*
G75*
G03*
X26720000Y-3853000I-50000J0D01*
G01*
X26620000Y-9813000D02*
X26720000Y-9913000D01*
X26720000Y-9813000D02*
X26620000Y-9913000D01*
X26720000Y-9863000D02*
G75*
G03*
X26720000Y-9863000I-50000J0D01*
G01*
X27636000Y-15698000D02*
X27736000Y-15798000D01*
X27736000Y-15698000D02*
X27636000Y-15798000D01*
X27736000Y-15748000D02*
G75*
G03*
X27736000Y-15748000I-50000J0D01*
G01*
X27890000Y-15698000D02*
X27990000Y-15798000D01*
X27990000Y-15698000D02*
X27890000Y-15798000D01*
X27990000Y-15748000D02*
G75*
G03*
X27990000Y-15748000I-50000J0D01*
G01*
X28144000Y-15698000D02*
X28244000Y-15798000D01*
X28244000Y-15698000D02*
X28144000Y-15798000D01*
X28244000Y-15748000D02*
G75*
G03*
X28244000Y-15748000I-50000J0D01*
G01*
D18*
X2993000Y-14931000D02*
X3103000Y-15041000D01*
X3103000Y-14931000D02*
X2993000Y-15041000D01*
X3048000Y-14931000D02*
X3048000Y-15041000D01*
X2993000Y-14986000D02*
X3103000Y-14986000D01*
X2993000Y-15439000D02*
X3103000Y-15549000D01*
X3103000Y-15439000D02*
X2993000Y-15549000D01*
X3048000Y-15439000D02*
X3048000Y-15549000D01*
X2993000Y-15494000D02*
X3103000Y-15494000D01*
X2993000Y-15947000D02*
X3103000Y-16057000D01*
X3103000Y-15947000D02*
X2993000Y-16057000D01*
X3048000Y-15947000D02*
X3048000Y-16057000D01*
X2993000Y-16002000D02*
X3103000Y-16002000D01*
X4009000Y-14931000D02*
X4119000Y-15041000D01*
X4119000Y-14931000D02*
X4009000Y-15041000D01*
X4064000Y-14931000D02*
X4064000Y-15041000D01*
X4009000Y-14986000D02*
X4119000Y-14986000D01*
X4009000Y-15439000D02*
X4119000Y-15549000D01*
X4119000Y-15439000D02*
X4009000Y-15549000D01*
X4064000Y-15439000D02*
X4064000Y-15549000D01*
X4009000Y-15494000D02*
X4119000Y-15494000D01*
X4009000Y-15947000D02*
X4119000Y-16057000D01*
X4119000Y-15947000D02*
X4009000Y-16057000D01*
X4064000Y-15947000D02*
X4064000Y-16057000D01*
X4009000Y-16002000D02*
X4119000Y-16002000D01*
X6089000Y-12137000D02*
X6199000Y-12247000D01*
X6199000Y-12137000D02*
X6089000Y-12247000D01*
X6144000Y-12137000D02*
X6144000Y-12247000D01*
X6089000Y-12192000D02*
X6199000Y-12192000D01*
X6089000Y-12899000D02*
X6199000Y-13009000D01*
X6199000Y-12899000D02*
X6089000Y-13009000D01*
X6144000Y-12899000D02*
X6144000Y-13009000D01*
X6089000Y-12954000D02*
X6199000Y-12954000D01*
X6549000Y-12137000D02*
X6659000Y-12247000D01*
X6659000Y-12137000D02*
X6549000Y-12247000D01*
X6604000Y-12137000D02*
X6604000Y-12247000D01*
X6549000Y-12192000D02*
X6659000Y-12192000D01*
X6549000Y-12899000D02*
X6659000Y-13009000D01*
X6659000Y-12899000D02*
X6549000Y-13009000D01*
X6604000Y-12899000D02*
X6604000Y-13009000D01*
X6549000Y-12954000D02*
X6659000Y-12954000D01*
X8327000Y-14677000D02*
X8437000Y-14787000D01*
X8437000Y-14677000D02*
X8327000Y-14787000D01*
X8382000Y-14677000D02*
X8382000Y-14787000D01*
X8327000Y-14732000D02*
X8437000Y-14732000D01*
X8327000Y-15185000D02*
X8437000Y-15295000D01*
X8437000Y-15185000D02*
X8327000Y-15295000D01*
X8382000Y-15185000D02*
X8382000Y-15295000D01*
X8327000Y-15240000D02*
X8437000Y-15240000D01*
X8327000Y-15693000D02*
X8437000Y-15803000D01*
X8437000Y-15693000D02*
X8327000Y-15803000D01*
X8382000Y-15693000D02*
X8382000Y-15803000D01*
X8327000Y-15748000D02*
X8437000Y-15748000D01*
X8629000Y-18995000D02*
X8739000Y-19105000D01*
X8739000Y-18995000D02*
X8629000Y-19105000D01*
X8684000Y-18995000D02*
X8684000Y-19105000D01*
X8629000Y-19050000D02*
X8739000Y-19050000D01*
X9089000Y-18995000D02*
X9199000Y-19105000D01*
X9199000Y-18995000D02*
X9089000Y-19105000D01*
X9144000Y-18995000D02*
X9144000Y-19105000D01*
X9089000Y-19050000D02*
X9199000Y-19050000D01*
X9343000Y-14677000D02*
X9453000Y-14787000D01*
X9453000Y-14677000D02*
X9343000Y-14787000D01*
X9398000Y-14677000D02*
X9398000Y-14787000D01*
X9343000Y-14732000D02*
X9453000Y-14732000D01*
X9343000Y-15185000D02*
X9453000Y-15295000D01*
X9453000Y-15185000D02*
X9343000Y-15295000D01*
X9398000Y-15185000D02*
X9398000Y-15295000D01*
X9343000Y-15240000D02*
X9453000Y-15240000D01*
X9343000Y-15693000D02*
X9453000Y-15803000D01*
X9453000Y-15693000D02*
X9343000Y-15803000D01*
X9398000Y-15693000D02*
X9398000Y-15803000D01*
X9343000Y-15748000D02*
X9453000Y-15748000D01*
X9851000Y-18995000D02*
X9961000Y-19105000D01*
X9961000Y-18995000D02*
X9851000Y-19105000D01*
X9906000Y-18995000D02*
X9906000Y-19105000D01*
X9851000Y-19050000D02*
X9961000Y-19050000D01*
X10311000Y-18995000D02*
X10421000Y-19105000D01*
X10421000Y-18995000D02*
X10311000Y-19105000D01*
X10366000Y-18995000D02*
X10366000Y-19105000D01*
X10311000Y-19050000D02*
X10421000Y-19050000D01*
X11375000Y-17725000D02*
X11485000Y-17835000D01*
X11485000Y-17725000D02*
X11375000Y-17835000D01*
X11430000Y-17725000D02*
X11430000Y-17835000D01*
X11375000Y-17780000D02*
X11485000Y-17780000D01*
X11375000Y-18233000D02*
X11485000Y-18343000D01*
X11485000Y-18233000D02*
X11375000Y-18343000D01*
X11430000Y-18233000D02*
X11430000Y-18343000D01*
X11375000Y-18288000D02*
X11485000Y-18288000D01*
X12391000Y-17725000D02*
X12501000Y-17835000D01*
X12501000Y-17725000D02*
X12391000Y-17835000D01*
X12446000Y-17725000D02*
X12446000Y-17835000D01*
X12391000Y-17780000D02*
X12501000Y-17780000D01*
X12391000Y-18233000D02*
X12501000Y-18343000D01*
X12501000Y-18233000D02*
X12391000Y-18343000D01*
X12446000Y-18233000D02*
X12446000Y-18343000D01*
X12391000Y-18288000D02*
X12501000Y-18288000D01*
X13407000Y-14677000D02*
X13517000Y-14787000D01*
X13517000Y-14677000D02*
X13407000Y-14787000D01*
X13462000Y-14677000D02*
X13462000Y-14787000D01*
X13407000Y-14732000D02*
X13517000Y-14732000D01*
X13407000Y-15185000D02*
X13517000Y-15295000D01*
X13517000Y-15185000D02*
X13407000Y-15295000D01*
X13462000Y-15185000D02*
X13462000Y-15295000D01*
X13407000Y-15240000D02*
X13517000Y-15240000D01*
X13407000Y-15693000D02*
X13517000Y-15803000D01*
X13517000Y-15693000D02*
X13407000Y-15803000D01*
X13462000Y-15693000D02*
X13462000Y-15803000D01*
X13407000Y-15748000D02*
X13517000Y-15748000D01*
X14423000Y-14677000D02*
X14533000Y-14787000D01*
X14533000Y-14677000D02*
X14423000Y-14787000D01*
X14478000Y-14677000D02*
X14478000Y-14787000D01*
X14423000Y-14732000D02*
X14533000Y-14732000D01*
X14423000Y-15185000D02*
X14533000Y-15295000D01*
X14533000Y-15185000D02*
X14423000Y-15295000D01*
X14478000Y-15185000D02*
X14478000Y-15295000D01*
X14423000Y-15240000D02*
X14533000Y-15240000D01*
X14423000Y-15693000D02*
X14533000Y-15803000D01*
X14533000Y-15693000D02*
X14423000Y-15803000D01*
X14478000Y-15693000D02*
X14478000Y-15803000D01*
X14423000Y-15748000D02*
X14533000Y-15748000D01*
X14471000Y-18741000D02*
X14581000Y-18851000D01*
X14581000Y-18741000D02*
X14471000Y-18851000D01*
X14526000Y-18741000D02*
X14526000Y-18851000D01*
X14471000Y-18796000D02*
X14581000Y-18796000D01*
X14931000Y-18741000D02*
X15041000Y-18851000D01*
X15041000Y-18741000D02*
X14931000Y-18851000D01*
X14986000Y-18741000D02*
X14986000Y-18851000D01*
X14931000Y-18796000D02*
X15041000Y-18796000D01*
X15439000Y-18741000D02*
X15549000Y-18851000D01*
X15549000Y-18741000D02*
X15439000Y-18851000D01*
X15494000Y-18741000D02*
X15494000Y-18851000D01*
X15439000Y-18796000D02*
X15549000Y-18796000D01*
X15899000Y-18741000D02*
X16009000Y-18851000D01*
X16009000Y-18741000D02*
X15899000Y-18851000D01*
X15954000Y-18741000D02*
X15954000Y-18851000D01*
X15899000Y-18796000D02*
X16009000Y-18796000D01*
X16223600Y-12175100D02*
X16333600Y-12285100D01*
X16333600Y-12175100D02*
X16223600Y-12285100D01*
X16278600Y-12175100D02*
X16278600Y-12285100D01*
X16223600Y-12230100D02*
X16333600Y-12230100D01*
X16265000Y-12899000D02*
X16375000Y-13009000D01*
X16375000Y-12899000D02*
X16265000Y-13009000D01*
X16320000Y-12899000D02*
X16320000Y-13009000D01*
X16265000Y-12954000D02*
X16375000Y-12954000D01*
X16455000Y-18741000D02*
X16565000Y-18851000D01*
X16565000Y-18741000D02*
X16455000Y-18851000D01*
X16510000Y-18741000D02*
X16510000Y-18851000D01*
X16455000Y-18796000D02*
X16565000Y-18796000D01*
X16683600Y-12175100D02*
X16793600Y-12285100D01*
X16793600Y-12175100D02*
X16683600Y-12285100D01*
X16738600Y-12175100D02*
X16738600Y-12285100D01*
X16683600Y-12230100D02*
X16793600Y-12230100D01*
X16725000Y-12899000D02*
X16835000Y-13009000D01*
X16835000Y-12899000D02*
X16725000Y-13009000D01*
X16780000Y-12899000D02*
X16780000Y-13009000D01*
X16725000Y-12954000D02*
X16835000Y-12954000D01*
X16915000Y-18741000D02*
X17025000Y-18851000D01*
X17025000Y-18741000D02*
X16915000Y-18851000D01*
X16970000Y-18741000D02*
X16970000Y-18851000D01*
X16915000Y-18796000D02*
X17025000Y-18796000D01*
X18487000Y-14677000D02*
X18597000Y-14787000D01*
X18597000Y-14677000D02*
X18487000Y-14787000D01*
X18542000Y-14677000D02*
X18542000Y-14787000D01*
X18487000Y-14732000D02*
X18597000Y-14732000D01*
X18487000Y-15185000D02*
X18597000Y-15295000D01*
X18597000Y-15185000D02*
X18487000Y-15295000D01*
X18542000Y-15185000D02*
X18542000Y-15295000D01*
X18487000Y-15240000D02*
X18597000Y-15240000D01*
X18487000Y-15693000D02*
X18597000Y-15803000D01*
X18597000Y-15693000D02*
X18487000Y-15803000D01*
X18542000Y-15693000D02*
X18542000Y-15803000D01*
X18487000Y-15748000D02*
X18597000Y-15748000D01*
X19503000Y-14677000D02*
X19613000Y-14787000D01*
X19613000Y-14677000D02*
X19503000Y-14787000D01*
X19558000Y-14677000D02*
X19558000Y-14787000D01*
X19503000Y-14732000D02*
X19613000Y-14732000D01*
X19503000Y-15185000D02*
X19613000Y-15295000D01*
X19613000Y-15185000D02*
X19503000Y-15295000D01*
X19558000Y-15185000D02*
X19558000Y-15295000D01*
X19503000Y-15240000D02*
X19613000Y-15240000D01*
X19503000Y-15693000D02*
X19613000Y-15803000D01*
X19613000Y-15693000D02*
X19503000Y-15803000D01*
X19558000Y-15693000D02*
X19558000Y-15803000D01*
X19503000Y-15748000D02*
X19613000Y-15748000D01*
X23567000Y-14356000D02*
X23677000Y-14466000D01*
X23677000Y-14356000D02*
X23567000Y-14466000D01*
X23622000Y-14356000D02*
X23622000Y-14466000D01*
X23567000Y-14411000D02*
X23677000Y-14411000D01*
X23567000Y-14864000D02*
X23677000Y-14974000D01*
X23677000Y-14864000D02*
X23567000Y-14974000D01*
X23622000Y-14864000D02*
X23622000Y-14974000D01*
X23567000Y-14919000D02*
X23677000Y-14919000D01*
X23567000Y-15372000D02*
X23677000Y-15482000D01*
X23677000Y-15372000D02*
X23567000Y-15482000D01*
X23622000Y-15372000D02*
X23622000Y-15482000D01*
X23567000Y-15427000D02*
X23677000Y-15427000D01*
X23821000Y-18233000D02*
X23931000Y-18343000D01*
X23931000Y-18233000D02*
X23821000Y-18343000D01*
X23876000Y-18233000D02*
X23876000Y-18343000D01*
X23821000Y-18288000D02*
X23931000Y-18288000D01*
X23821000Y-18693000D02*
X23931000Y-18803000D01*
X23931000Y-18693000D02*
X23821000Y-18803000D01*
X23876000Y-18693000D02*
X23876000Y-18803000D01*
X23821000Y-18748000D02*
X23931000Y-18748000D01*
X24583000Y-14356000D02*
X24693000Y-14466000D01*
X24693000Y-14356000D02*
X24583000Y-14466000D01*
X24638000Y-14356000D02*
X24638000Y-14466000D01*
X24583000Y-14411000D02*
X24693000Y-14411000D01*
X24583000Y-14864000D02*
X24693000Y-14974000D01*
X24693000Y-14864000D02*
X24583000Y-14974000D01*
X24638000Y-14864000D02*
X24638000Y-14974000D01*
X24583000Y-14919000D02*
X24693000Y-14919000D01*
X24583000Y-15372000D02*
X24693000Y-15482000D01*
X24693000Y-15372000D02*
X24583000Y-15482000D01*
X24638000Y-15372000D02*
X24638000Y-15482000D01*
X24583000Y-15427000D02*
X24693000Y-15427000D01*
X24583000Y-18233000D02*
X24693000Y-18343000D01*
X24693000Y-18233000D02*
X24583000Y-18343000D01*
X24638000Y-18233000D02*
X24638000Y-18343000D01*
X24583000Y-18288000D02*
X24693000Y-18288000D01*
X24583000Y-18693000D02*
X24693000Y-18803000D01*
X24693000Y-18693000D02*
X24583000Y-18803000D01*
X24638000Y-18693000D02*
X24638000Y-18803000D01*
X24583000Y-18748000D02*
X24693000Y-18748000D01*
X25139000Y-18741000D02*
X25249000Y-18851000D01*
X25249000Y-18741000D02*
X25139000Y-18851000D01*
X25194000Y-18741000D02*
X25194000Y-18851000D01*
X25139000Y-18796000D02*
X25249000Y-18796000D01*
X25599000Y-18741000D02*
X25709000Y-18851000D01*
X25709000Y-18741000D02*
X25599000Y-18851000D01*
X25654000Y-18741000D02*
X25654000Y-18851000D01*
X25599000Y-18796000D02*
X25709000Y-18796000D01*
X26615000Y-12947000D02*
X26725000Y-13057000D01*
X26725000Y-12947000D02*
X26615000Y-13057000D01*
X26670000Y-12947000D02*
X26670000Y-13057000D01*
X26615000Y-13002000D02*
X26725000Y-13002000D01*
X26615000Y-13407000D02*
X26725000Y-13517000D01*
X26725000Y-13407000D02*
X26615000Y-13517000D01*
X26670000Y-13407000D02*
X26670000Y-13517000D01*
X26615000Y-13462000D02*
X26725000Y-13462000D01*
X26869000Y-16201000D02*
X26979000Y-16311000D01*
X26979000Y-16201000D02*
X26869000Y-16311000D01*
X26924000Y-16201000D02*
X26924000Y-16311000D01*
X26869000Y-16256000D02*
X26979000Y-16256000D01*
X26869000Y-17217000D02*
X26979000Y-17327000D01*
X26979000Y-17217000D02*
X26869000Y-17327000D01*
X26924000Y-17217000D02*
X26924000Y-17327000D01*
X26869000Y-17272000D02*
X26979000Y-17272000D01*
D19*
X22782500Y-17956500D02*
X22937500Y-18111500D01*
X22937500Y-17956500D02*
X22782500Y-18111500D01*
X22914801Y-18088801D02*
X22914801Y-17979199D01*
X22805199Y-17979199D01*
X22805199Y-18088801D01*
X22914801Y-18088801D01*
X22782500Y-18718500D02*
X22937500Y-18873500D01*
X22937500Y-18718500D02*
X22782500Y-18873500D01*
X22914801Y-18850801D02*
X22914801Y-18741199D01*
X22805199Y-18741199D01*
X22805199Y-18850801D01*
X22914801Y-18850801D01*
X26394500Y-18718500D02*
X26549500Y-18873500D01*
X26549500Y-18718500D02*
X26394500Y-18873500D01*
X26526801Y-18850801D02*
X26526801Y-18741199D01*
X26417199Y-18741199D01*
X26417199Y-18850801D01*
X26526801Y-18850801D01*
X26874500Y-18718500D02*
X27029500Y-18873500D01*
X27029500Y-18718500D02*
X26874500Y-18873500D01*
X27006801Y-18850801D02*
X27006801Y-18741199D01*
X26897199Y-18741199D01*
X26897199Y-18850801D01*
X27006801Y-18850801D01*
X27354500Y-18718500D02*
X27509500Y-18873500D01*
X27509500Y-18718500D02*
X27354500Y-18873500D01*
X27486801Y-18850801D02*
X27486801Y-18741199D01*
X27377199Y-18741199D01*
X27377199Y-18850801D01*
X27486801Y-18850801D01*
D20*
X3140000Y-18940000D02*
X3460000Y-19260000D01*
X3460000Y-18940000D02*
X3140000Y-19260000D01*
X3300000Y-19260000D02*
X3460000Y-19100000D01*
X3300000Y-18940000D01*
X3140000Y-19100000D01*
X3300000Y-19260000D01*
X3240000Y-2440000D02*
X3560000Y-2760000D01*
X3560000Y-2440000D02*
X3240000Y-2760000D01*
X3400000Y-2760000D02*
X3560000Y-2600000D01*
X3400000Y-2440000D01*
X3240000Y-2600000D01*
X3400000Y-2760000D01*
X28090000Y-2490000D02*
X28410000Y-2810000D01*
X28410000Y-2490000D02*
X28090000Y-2810000D01*
X28250000Y-2810000D02*
X28410000Y-2650000D01*
X28250000Y-2490000D01*
X28090000Y-2650000D01*
X28250000Y-2810000D01*
X28190000Y-18740000D02*
X28510000Y-19060000D01*
X28510000Y-18740000D02*
X28190000Y-19060000D01*
X28350000Y-19060000D02*
X28510000Y-18900000D01*
X28350000Y-18740000D01*
X28190000Y-18900000D01*
X28350000Y-19060000D01*
D11*
X3046619Y-19873476D02*
X3046619Y-19673476D01*
X3094238Y-19673476D01*
X3122809Y-19683000D01*
X3141857Y-19702048D01*
X3151381Y-19721095D01*
X3160905Y-19759190D01*
X3160905Y-19787762D01*
X3151381Y-19825857D01*
X3141857Y-19844905D01*
X3122809Y-19863952D01*
X3094238Y-19873476D01*
X3046619Y-19873476D01*
X3246619Y-19873476D02*
X3246619Y-19740143D01*
X3246619Y-19778238D02*
X3256143Y-19759190D01*
X3265667Y-19749667D01*
X3284714Y-19740143D01*
X3303762Y-19740143D01*
X3370428Y-19873476D02*
X3370428Y-19740143D01*
X3370428Y-19673476D02*
X3360905Y-19683000D01*
X3370428Y-19692524D01*
X3379952Y-19683000D01*
X3370428Y-19673476D01*
X3370428Y-19692524D01*
X3494238Y-19873476D02*
X3475190Y-19863952D01*
X3465667Y-19844905D01*
X3465667Y-19673476D01*
X3599000Y-19873476D02*
X3579952Y-19863952D01*
X3570428Y-19844905D01*
X3570428Y-19673476D01*
X3827571Y-19873476D02*
X3827571Y-19673476D01*
X3894238Y-19816333D01*
X3960905Y-19673476D01*
X3960905Y-19873476D01*
X4141857Y-19873476D02*
X4141857Y-19768714D01*
X4132333Y-19749667D01*
X4113286Y-19740143D01*
X4075190Y-19740143D01*
X4056143Y-19749667D01*
X4141857Y-19863952D02*
X4122809Y-19873476D01*
X4075190Y-19873476D01*
X4056143Y-19863952D01*
X4046619Y-19844905D01*
X4046619Y-19825857D01*
X4056143Y-19806810D01*
X4075190Y-19797286D01*
X4122809Y-19797286D01*
X4141857Y-19787762D01*
X4237095Y-19740143D02*
X4237095Y-19940143D01*
X4237095Y-19749667D02*
X4256143Y-19740143D01*
X4294238Y-19740143D01*
X4313286Y-19749667D01*
X4322810Y-19759190D01*
X4332333Y-19778238D01*
X4332333Y-19835381D01*
X4322810Y-19854429D01*
X4313286Y-19863952D01*
X4294238Y-19873476D01*
X4256143Y-19873476D01*
X4237095Y-19863952D01*
X4418048Y-19854429D02*
X4427571Y-19863952D01*
X4418048Y-19873476D01*
X4408524Y-19863952D01*
X4418048Y-19854429D01*
X4418048Y-19873476D01*
X4418048Y-19749667D02*
X4427571Y-19759190D01*
X4418048Y-19768714D01*
X4408524Y-19759190D01*
X4418048Y-19749667D01*
X4418048Y-19768714D01*
D12*
X2719000Y-20168000D02*
X2789000Y-20238000D01*
X2789000Y-20168000D02*
X2719000Y-20238000D01*
D11*
X3084714Y-20093476D02*
X3103762Y-20093476D01*
X3122809Y-20103000D01*
X3132333Y-20112524D01*
X3141857Y-20131571D01*
X3151381Y-20169667D01*
X3151381Y-20217286D01*
X3141857Y-20255381D01*
X3132333Y-20274429D01*
X3122809Y-20283952D01*
X3103762Y-20293476D01*
X3084714Y-20293476D01*
X3065667Y-20283952D01*
X3056143Y-20274429D01*
X3046619Y-20255381D01*
X3037095Y-20217286D01*
X3037095Y-20169667D01*
X3046619Y-20131571D01*
X3056143Y-20112524D01*
X3065667Y-20103000D01*
X3084714Y-20093476D01*
X3237095Y-20274429D02*
X3246619Y-20283952D01*
X3237095Y-20293476D01*
X3227571Y-20283952D01*
X3237095Y-20274429D01*
X3237095Y-20293476D01*
X3313286Y-20093476D02*
X3446619Y-20093476D01*
X3360905Y-20293476D01*
X3560905Y-20093476D02*
X3579952Y-20093476D01*
X3599000Y-20103000D01*
X3608524Y-20112524D01*
X3618048Y-20131571D01*
X3627571Y-20169667D01*
X3627571Y-20217286D01*
X3618048Y-20255381D01*
X3608524Y-20274429D01*
X3599000Y-20283952D01*
X3579952Y-20293476D01*
X3560905Y-20293476D01*
X3541857Y-20283952D01*
X3532333Y-20274429D01*
X3522809Y-20255381D01*
X3513286Y-20217286D01*
X3513286Y-20169667D01*
X3522809Y-20131571D01*
X3532333Y-20112524D01*
X3541857Y-20103000D01*
X3560905Y-20093476D01*
X3751381Y-20093476D02*
X3770428Y-20093476D01*
X3789476Y-20103000D01*
X3799000Y-20112524D01*
X3808524Y-20131571D01*
X3818048Y-20169667D01*
X3818048Y-20217286D01*
X3808524Y-20255381D01*
X3799000Y-20274429D01*
X3789476Y-20283952D01*
X3770428Y-20293476D01*
X3751381Y-20293476D01*
X3732333Y-20283952D01*
X3722809Y-20274429D01*
X3713286Y-20255381D01*
X3703762Y-20217286D01*
X3703762Y-20169667D01*
X3713286Y-20131571D01*
X3722809Y-20112524D01*
X3732333Y-20103000D01*
X3751381Y-20093476D01*
X3903762Y-20293476D02*
X3903762Y-20160143D01*
X3903762Y-20179190D02*
X3913286Y-20169667D01*
X3932333Y-20160143D01*
X3960905Y-20160143D01*
X3979952Y-20169667D01*
X3989476Y-20188714D01*
X3989476Y-20293476D01*
X3989476Y-20188714D02*
X3999000Y-20169667D01*
X4018048Y-20160143D01*
X4046619Y-20160143D01*
X4065667Y-20169667D01*
X4075190Y-20188714D01*
X4075190Y-20293476D01*
X4170428Y-20293476D02*
X4170428Y-20160143D01*
X4170428Y-20179190D02*
X4179952Y-20169667D01*
X4199000Y-20160143D01*
X4227571Y-20160143D01*
X4246619Y-20169667D01*
X4256143Y-20188714D01*
X4256143Y-20293476D01*
X4256143Y-20188714D02*
X4265667Y-20169667D01*
X4284714Y-20160143D01*
X4313286Y-20160143D01*
X4332333Y-20169667D01*
X4341857Y-20188714D01*
X4341857Y-20293476D01*
X4732333Y-20083952D02*
X4560905Y-20341095D01*
X4989476Y-20093476D02*
X5008524Y-20093476D01*
X5027571Y-20103000D01*
X5037095Y-20112524D01*
X5046619Y-20131571D01*
X5056143Y-20169667D01*
X5056143Y-20217286D01*
X5046619Y-20255381D01*
X5037095Y-20274429D01*
X5027571Y-20283952D01*
X5008524Y-20293476D01*
X4989476Y-20293476D01*
X4970429Y-20283952D01*
X4960905Y-20274429D01*
X4951381Y-20255381D01*
X4941857Y-20217286D01*
X4941857Y-20169667D01*
X4951381Y-20131571D01*
X4960905Y-20112524D01*
X4970429Y-20103000D01*
X4989476Y-20093476D01*
X5141857Y-20274429D02*
X5151381Y-20283952D01*
X5141857Y-20293476D01*
X5132333Y-20283952D01*
X5141857Y-20274429D01*
X5141857Y-20293476D01*
X5275190Y-20093476D02*
X5294238Y-20093476D01*
X5313286Y-20103000D01*
X5322810Y-20112524D01*
X5332333Y-20131571D01*
X5341857Y-20169667D01*
X5341857Y-20217286D01*
X5332333Y-20255381D01*
X5322810Y-20274429D01*
X5313286Y-20283952D01*
X5294238Y-20293476D01*
X5275190Y-20293476D01*
X5256143Y-20283952D01*
X5246619Y-20274429D01*
X5237095Y-20255381D01*
X5227571Y-20217286D01*
X5227571Y-20169667D01*
X5237095Y-20131571D01*
X5246619Y-20112524D01*
X5256143Y-20103000D01*
X5275190Y-20093476D01*
X5418048Y-20112524D02*
X5427571Y-20103000D01*
X5446619Y-20093476D01*
X5494238Y-20093476D01*
X5513286Y-20103000D01*
X5522810Y-20112524D01*
X5532333Y-20131571D01*
X5532333Y-20150619D01*
X5522810Y-20179190D01*
X5408524Y-20293476D01*
X5532333Y-20293476D01*
X5599000Y-20093476D02*
X5732333Y-20093476D01*
X5646619Y-20293476D01*
X5894238Y-20093476D02*
X5856143Y-20093476D01*
X5837095Y-20103000D01*
X5827571Y-20112524D01*
X5808524Y-20141095D01*
X5799000Y-20179190D01*
X5799000Y-20255381D01*
X5808524Y-20274429D01*
X5818048Y-20283952D01*
X5837095Y-20293476D01*
X5875190Y-20293476D01*
X5894238Y-20283952D01*
X5903762Y-20274429D01*
X5913286Y-20255381D01*
X5913286Y-20207762D01*
X5903762Y-20188714D01*
X5894238Y-20179190D01*
X5875190Y-20169667D01*
X5837095Y-20169667D01*
X5818048Y-20179190D01*
X5808524Y-20188714D01*
X5799000Y-20207762D01*
X5989476Y-20093476D02*
X5989476Y-20131571D01*
X6065667Y-20093476D02*
X6065667Y-20131571D01*
X6360905Y-20369667D02*
X6351381Y-20360143D01*
X6332333Y-20331571D01*
X6322809Y-20312524D01*
X6313286Y-20283952D01*
X6303762Y-20236333D01*
X6303762Y-20198238D01*
X6313286Y-20150619D01*
X6322809Y-20122048D01*
X6332333Y-20103000D01*
X6351381Y-20074429D01*
X6360905Y-20064905D01*
X6541857Y-20293476D02*
X6427571Y-20293476D01*
X6484714Y-20293476D02*
X6484714Y-20093476D01*
X6465667Y-20122048D01*
X6446619Y-20141095D01*
X6427571Y-20150619D01*
X6665667Y-20093476D02*
X6684714Y-20093476D01*
X6703762Y-20103000D01*
X6713286Y-20112524D01*
X6722809Y-20131571D01*
X6732333Y-20169667D01*
X6732333Y-20217286D01*
X6722809Y-20255381D01*
X6713286Y-20274429D01*
X6703762Y-20283952D01*
X6684714Y-20293476D01*
X6665667Y-20293476D01*
X6646619Y-20283952D01*
X6637095Y-20274429D01*
X6627571Y-20255381D01*
X6618048Y-20217286D01*
X6618048Y-20169667D01*
X6627571Y-20131571D01*
X6637095Y-20112524D01*
X6646619Y-20103000D01*
X6665667Y-20093476D01*
X6970428Y-20293476D02*
X6970428Y-20093476D01*
X7056143Y-20293476D02*
X7056143Y-20188714D01*
X7046619Y-20169667D01*
X7027571Y-20160143D01*
X6999000Y-20160143D01*
X6979952Y-20169667D01*
X6970428Y-20179190D01*
X7179952Y-20293476D02*
X7160905Y-20283952D01*
X7151381Y-20274429D01*
X7141857Y-20255381D01*
X7141857Y-20198238D01*
X7151381Y-20179190D01*
X7160905Y-20169667D01*
X7179952Y-20160143D01*
X7208524Y-20160143D01*
X7227571Y-20169667D01*
X7237095Y-20179190D01*
X7246619Y-20198238D01*
X7246619Y-20255381D01*
X7237095Y-20274429D01*
X7227571Y-20283952D01*
X7208524Y-20293476D01*
X7179952Y-20293476D01*
X7360905Y-20293476D02*
X7341857Y-20283952D01*
X7332333Y-20264905D01*
X7332333Y-20093476D01*
X7513286Y-20283952D02*
X7494238Y-20293476D01*
X7456143Y-20293476D01*
X7437095Y-20283952D01*
X7427571Y-20264905D01*
X7427571Y-20188714D01*
X7437095Y-20169667D01*
X7456143Y-20160143D01*
X7494238Y-20160143D01*
X7513286Y-20169667D01*
X7522809Y-20188714D01*
X7522809Y-20207762D01*
X7427571Y-20226810D01*
X7599000Y-20283952D02*
X7618048Y-20293476D01*
X7656143Y-20293476D01*
X7675190Y-20283952D01*
X7684714Y-20264905D01*
X7684714Y-20255381D01*
X7675190Y-20236333D01*
X7656143Y-20226810D01*
X7627571Y-20226810D01*
X7608524Y-20217286D01*
X7599000Y-20198238D01*
X7599000Y-20188714D01*
X7608524Y-20169667D01*
X7627571Y-20160143D01*
X7656143Y-20160143D01*
X7675190Y-20169667D01*
X7751381Y-20369667D02*
X7760905Y-20360143D01*
X7779952Y-20331571D01*
X7789476Y-20312524D01*
X7799000Y-20283952D01*
X7808524Y-20236333D01*
X7808524Y-20198238D01*
X7799000Y-20150619D01*
X7789476Y-20122048D01*
X7779952Y-20103000D01*
X7760905Y-20074429D01*
X7751381Y-20064905D01*
D13*
X2789000Y-20467000D02*
G75*
G03*
X2789000Y-20467000I-36500J0D01*
G01*
D11*
X3084714Y-20357476D02*
X3103762Y-20357476D01*
X3122809Y-20367000D01*
X3132333Y-20376524D01*
X3141857Y-20395571D01*
X3151381Y-20433667D01*
X3151381Y-20481286D01*
X3141857Y-20519381D01*
X3132333Y-20538429D01*
X3122809Y-20547952D01*
X3103762Y-20557476D01*
X3084714Y-20557476D01*
X3065667Y-20547952D01*
X3056143Y-20538429D01*
X3046619Y-20519381D01*
X3037095Y-20481286D01*
X3037095Y-20433667D01*
X3046619Y-20395571D01*
X3056143Y-20376524D01*
X3065667Y-20367000D01*
X3084714Y-20357476D01*
X3237095Y-20538429D02*
X3246619Y-20547952D01*
X3237095Y-20557476D01*
X3227571Y-20547952D01*
X3237095Y-20538429D01*
X3237095Y-20557476D01*
X3313286Y-20357476D02*
X3446619Y-20357476D01*
X3360905Y-20557476D01*
X3503762Y-20357476D02*
X3627571Y-20357476D01*
X3560905Y-20433667D01*
X3589476Y-20433667D01*
X3608524Y-20443190D01*
X3618048Y-20452714D01*
X3627571Y-20471762D01*
X3627571Y-20519381D01*
X3618048Y-20538429D01*
X3608524Y-20547952D01*
X3589476Y-20557476D01*
X3532333Y-20557476D01*
X3513286Y-20547952D01*
X3503762Y-20538429D01*
X3751381Y-20357476D02*
X3770428Y-20357476D01*
X3789476Y-20367000D01*
X3799000Y-20376524D01*
X3808524Y-20395571D01*
X3818048Y-20433667D01*
X3818048Y-20481286D01*
X3808524Y-20519381D01*
X3799000Y-20538429D01*
X3789476Y-20547952D01*
X3770428Y-20557476D01*
X3751381Y-20557476D01*
X3732333Y-20547952D01*
X3722809Y-20538429D01*
X3713286Y-20519381D01*
X3703762Y-20481286D01*
X3703762Y-20433667D01*
X3713286Y-20395571D01*
X3722809Y-20376524D01*
X3732333Y-20367000D01*
X3751381Y-20357476D01*
X3903762Y-20557476D02*
X3903762Y-20424143D01*
X3903762Y-20443190D02*
X3913286Y-20433667D01*
X3932333Y-20424143D01*
X3960905Y-20424143D01*
X3979952Y-20433667D01*
X3989476Y-20452714D01*
X3989476Y-20557476D01*
X3989476Y-20452714D02*
X3999000Y-20433667D01*
X4018048Y-20424143D01*
X4046619Y-20424143D01*
X4065667Y-20433667D01*
X4075190Y-20452714D01*
X4075190Y-20557476D01*
X4170428Y-20557476D02*
X4170428Y-20424143D01*
X4170428Y-20443190D02*
X4179952Y-20433667D01*
X4199000Y-20424143D01*
X4227571Y-20424143D01*
X4246619Y-20433667D01*
X4256143Y-20452714D01*
X4256143Y-20557476D01*
X4256143Y-20452714D02*
X4265667Y-20433667D01*
X4284714Y-20424143D01*
X4313286Y-20424143D01*
X4332333Y-20433667D01*
X4341857Y-20452714D01*
X4341857Y-20557476D01*
X4732333Y-20347952D02*
X4560905Y-20605095D01*
X4989476Y-20357476D02*
X5008524Y-20357476D01*
X5027571Y-20367000D01*
X5037095Y-20376524D01*
X5046619Y-20395571D01*
X5056143Y-20433667D01*
X5056143Y-20481286D01*
X5046619Y-20519381D01*
X5037095Y-20538429D01*
X5027571Y-20547952D01*
X5008524Y-20557476D01*
X4989476Y-20557476D01*
X4970429Y-20547952D01*
X4960905Y-20538429D01*
X4951381Y-20519381D01*
X4941857Y-20481286D01*
X4941857Y-20433667D01*
X4951381Y-20395571D01*
X4960905Y-20376524D01*
X4970429Y-20367000D01*
X4989476Y-20357476D01*
X5141857Y-20538429D02*
X5151381Y-20547952D01*
X5141857Y-20557476D01*
X5132333Y-20547952D01*
X5141857Y-20538429D01*
X5141857Y-20557476D01*
X5275190Y-20357476D02*
X5294238Y-20357476D01*
X5313286Y-20367000D01*
X5322810Y-20376524D01*
X5332333Y-20395571D01*
X5341857Y-20433667D01*
X5341857Y-20481286D01*
X5332333Y-20519381D01*
X5322810Y-20538429D01*
X5313286Y-20547952D01*
X5294238Y-20557476D01*
X5275190Y-20557476D01*
X5256143Y-20547952D01*
X5246619Y-20538429D01*
X5237095Y-20519381D01*
X5227571Y-20481286D01*
X5227571Y-20433667D01*
X5237095Y-20395571D01*
X5246619Y-20376524D01*
X5256143Y-20367000D01*
X5275190Y-20357476D01*
X5418048Y-20376524D02*
X5427571Y-20367000D01*
X5446619Y-20357476D01*
X5494238Y-20357476D01*
X5513286Y-20367000D01*
X5522810Y-20376524D01*
X5532333Y-20395571D01*
X5532333Y-20414619D01*
X5522810Y-20443190D01*
X5408524Y-20557476D01*
X5532333Y-20557476D01*
X5646619Y-20443190D02*
X5627571Y-20433667D01*
X5618048Y-20424143D01*
X5608524Y-20405095D01*
X5608524Y-20395571D01*
X5618048Y-20376524D01*
X5627571Y-20367000D01*
X5646619Y-20357476D01*
X5684714Y-20357476D01*
X5703762Y-20367000D01*
X5713286Y-20376524D01*
X5722809Y-20395571D01*
X5722809Y-20405095D01*
X5713286Y-20424143D01*
X5703762Y-20433667D01*
X5684714Y-20443190D01*
X5646619Y-20443190D01*
X5627571Y-20452714D01*
X5618048Y-20462238D01*
X5608524Y-20481286D01*
X5608524Y-20519381D01*
X5618048Y-20538429D01*
X5627571Y-20547952D01*
X5646619Y-20557476D01*
X5684714Y-20557476D01*
X5703762Y-20547952D01*
X5713286Y-20538429D01*
X5722809Y-20519381D01*
X5722809Y-20481286D01*
X5713286Y-20462238D01*
X5703762Y-20452714D01*
X5684714Y-20443190D01*
X5789476Y-20357476D02*
X5922809Y-20357476D01*
X5837095Y-20557476D01*
X5989476Y-20357476D02*
X5989476Y-20395571D01*
X6065667Y-20357476D02*
X6065667Y-20395571D01*
X6360905Y-20633667D02*
X6351381Y-20624143D01*
X6332333Y-20595571D01*
X6322809Y-20576524D01*
X6313286Y-20547952D01*
X6303762Y-20500333D01*
X6303762Y-20462238D01*
X6313286Y-20414619D01*
X6322809Y-20386048D01*
X6332333Y-20367000D01*
X6351381Y-20338429D01*
X6360905Y-20328905D01*
X6427571Y-20376524D02*
X6437095Y-20367000D01*
X6456143Y-20357476D01*
X6503762Y-20357476D01*
X6522809Y-20367000D01*
X6532333Y-20376524D01*
X6541857Y-20395571D01*
X6541857Y-20414619D01*
X6532333Y-20443190D01*
X6418048Y-20557476D01*
X6541857Y-20557476D01*
X6665667Y-20357476D02*
X6684714Y-20357476D01*
X6703762Y-20367000D01*
X6713286Y-20376524D01*
X6722809Y-20395571D01*
X6732333Y-20433667D01*
X6732333Y-20481286D01*
X6722809Y-20519381D01*
X6713286Y-20538429D01*
X6703762Y-20547952D01*
X6684714Y-20557476D01*
X6665667Y-20557476D01*
X6646619Y-20547952D01*
X6637095Y-20538429D01*
X6627571Y-20519381D01*
X6618048Y-20481286D01*
X6618048Y-20433667D01*
X6627571Y-20395571D01*
X6637095Y-20376524D01*
X6646619Y-20367000D01*
X6665667Y-20357476D01*
X6846619Y-20443190D02*
X6827571Y-20433667D01*
X6818048Y-20424143D01*
X6808524Y-20405095D01*
X6808524Y-20395571D01*
X6818048Y-20376524D01*
X6827571Y-20367000D01*
X6846619Y-20357476D01*
X6884714Y-20357476D01*
X6903762Y-20367000D01*
X6913286Y-20376524D01*
X6922809Y-20395571D01*
X6922809Y-20405095D01*
X6913286Y-20424143D01*
X6903762Y-20433667D01*
X6884714Y-20443190D01*
X6846619Y-20443190D01*
X6827571Y-20452714D01*
X6818048Y-20462238D01*
X6808524Y-20481286D01*
X6808524Y-20519381D01*
X6818048Y-20538429D01*
X6827571Y-20547952D01*
X6846619Y-20557476D01*
X6884714Y-20557476D01*
X6903762Y-20547952D01*
X6913286Y-20538429D01*
X6922809Y-20519381D01*
X6922809Y-20481286D01*
X6913286Y-20462238D01*
X6903762Y-20452714D01*
X6884714Y-20443190D01*
X7160905Y-20557476D02*
X7160905Y-20357476D01*
X7246619Y-20557476D02*
X7246619Y-20452714D01*
X7237095Y-20433667D01*
X7218048Y-20424143D01*
X7189476Y-20424143D01*
X7170428Y-20433667D01*
X7160905Y-20443190D01*
X7370428Y-20557476D02*
X7351381Y-20547952D01*
X7341857Y-20538429D01*
X7332333Y-20519381D01*
X7332333Y-20462238D01*
X7341857Y-20443190D01*
X7351381Y-20433667D01*
X7370428Y-20424143D01*
X7399000Y-20424143D01*
X7418048Y-20433667D01*
X7427571Y-20443190D01*
X7437095Y-20462238D01*
X7437095Y-20519381D01*
X7427571Y-20538429D01*
X7418048Y-20547952D01*
X7399000Y-20557476D01*
X7370428Y-20557476D01*
X7551381Y-20557476D02*
X7532333Y-20547952D01*
X7522809Y-20528905D01*
X7522809Y-20357476D01*
X7703762Y-20547952D02*
X7684714Y-20557476D01*
X7646619Y-20557476D01*
X7627571Y-20547952D01*
X7618048Y-20528905D01*
X7618048Y-20452714D01*
X7627571Y-20433667D01*
X7646619Y-20424143D01*
X7684714Y-20424143D01*
X7703762Y-20433667D01*
X7713286Y-20452714D01*
X7713286Y-20471762D01*
X7618048Y-20490810D01*
X7789476Y-20547952D02*
X7808524Y-20557476D01*
X7846619Y-20557476D01*
X7865667Y-20547952D01*
X7875190Y-20528905D01*
X7875190Y-20519381D01*
X7865667Y-20500333D01*
X7846619Y-20490810D01*
X7818048Y-20490810D01*
X7799000Y-20481286D01*
X7789476Y-20462238D01*
X7789476Y-20452714D01*
X7799000Y-20433667D01*
X7818048Y-20424143D01*
X7846619Y-20424143D01*
X7865667Y-20433667D01*
X7941857Y-20633667D02*
X7951381Y-20624143D01*
X7970428Y-20595571D01*
X7979952Y-20576524D01*
X7989476Y-20547952D01*
X7999000Y-20500333D01*
X7999000Y-20462238D01*
X7989476Y-20414619D01*
X7979952Y-20386048D01*
X7970428Y-20367000D01*
X7951381Y-20338429D01*
X7941857Y-20328905D01*
D14*
X2751500Y-20693500D02*
X2751500Y-20768500D01*
X2714000Y-20731000D02*
X2789000Y-20731000D01*
D11*
X3084714Y-20621476D02*
X3103762Y-20621476D01*
X3122809Y-20631000D01*
X3132333Y-20640524D01*
X3141857Y-20659571D01*
X3151381Y-20697667D01*
X3151381Y-20745286D01*
X3141857Y-20783381D01*
X3132333Y-20802429D01*
X3122809Y-20811952D01*
X3103762Y-20821476D01*
X3084714Y-20821476D01*
X3065667Y-20811952D01*
X3056143Y-20802429D01*
X3046619Y-20783381D01*
X3037095Y-20745286D01*
X3037095Y-20697667D01*
X3046619Y-20659571D01*
X3056143Y-20640524D01*
X3065667Y-20631000D01*
X3084714Y-20621476D01*
X3237095Y-20802429D02*
X3246619Y-20811952D01*
X3237095Y-20821476D01*
X3227571Y-20811952D01*
X3237095Y-20802429D01*
X3237095Y-20821476D01*
X3313286Y-20621476D02*
X3446619Y-20621476D01*
X3360905Y-20821476D01*
X3618048Y-20621476D02*
X3522809Y-20621476D01*
X3513286Y-20716714D01*
X3522809Y-20707190D01*
X3541857Y-20697667D01*
X3589476Y-20697667D01*
X3608524Y-20707190D01*
X3618048Y-20716714D01*
X3627571Y-20735762D01*
X3627571Y-20783381D01*
X3618048Y-20802429D01*
X3608524Y-20811952D01*
X3589476Y-20821476D01*
X3541857Y-20821476D01*
X3522809Y-20811952D01*
X3513286Y-20802429D01*
X3751381Y-20621476D02*
X3770428Y-20621476D01*
X3789476Y-20631000D01*
X3799000Y-20640524D01*
X3808524Y-20659571D01*
X3818048Y-20697667D01*
X3818048Y-20745286D01*
X3808524Y-20783381D01*
X3799000Y-20802429D01*
X3789476Y-20811952D01*
X3770428Y-20821476D01*
X3751381Y-20821476D01*
X3732333Y-20811952D01*
X3722809Y-20802429D01*
X3713286Y-20783381D01*
X3703762Y-20745286D01*
X3703762Y-20697667D01*
X3713286Y-20659571D01*
X3722809Y-20640524D01*
X3732333Y-20631000D01*
X3751381Y-20621476D01*
X3903762Y-20821476D02*
X3903762Y-20688143D01*
X3903762Y-20707190D02*
X3913286Y-20697667D01*
X3932333Y-20688143D01*
X3960905Y-20688143D01*
X3979952Y-20697667D01*
X3989476Y-20716714D01*
X3989476Y-20821476D01*
X3989476Y-20716714D02*
X3999000Y-20697667D01*
X4018048Y-20688143D01*
X4046619Y-20688143D01*
X4065667Y-20697667D01*
X4075190Y-20716714D01*
X4075190Y-20821476D01*
X4170428Y-20821476D02*
X4170428Y-20688143D01*
X4170428Y-20707190D02*
X4179952Y-20697667D01*
X4199000Y-20688143D01*
X4227571Y-20688143D01*
X4246619Y-20697667D01*
X4256143Y-20716714D01*
X4256143Y-20821476D01*
X4256143Y-20716714D02*
X4265667Y-20697667D01*
X4284714Y-20688143D01*
X4313286Y-20688143D01*
X4332333Y-20697667D01*
X4341857Y-20716714D01*
X4341857Y-20821476D01*
X4732333Y-20611952D02*
X4560905Y-20869095D01*
X4989476Y-20621476D02*
X5008524Y-20621476D01*
X5027571Y-20631000D01*
X5037095Y-20640524D01*
X5046619Y-20659571D01*
X5056143Y-20697667D01*
X5056143Y-20745286D01*
X5046619Y-20783381D01*
X5037095Y-20802429D01*
X5027571Y-20811952D01*
X5008524Y-20821476D01*
X4989476Y-20821476D01*
X4970429Y-20811952D01*
X4960905Y-20802429D01*
X4951381Y-20783381D01*
X4941857Y-20745286D01*
X4941857Y-20697667D01*
X4951381Y-20659571D01*
X4960905Y-20640524D01*
X4970429Y-20631000D01*
X4989476Y-20621476D01*
X5141857Y-20802429D02*
X5151381Y-20811952D01*
X5141857Y-20821476D01*
X5132333Y-20811952D01*
X5141857Y-20802429D01*
X5141857Y-20821476D01*
X5275190Y-20621476D02*
X5294238Y-20621476D01*
X5313286Y-20631000D01*
X5322810Y-20640524D01*
X5332333Y-20659571D01*
X5341857Y-20697667D01*
X5341857Y-20745286D01*
X5332333Y-20783381D01*
X5322810Y-20802429D01*
X5313286Y-20811952D01*
X5294238Y-20821476D01*
X5275190Y-20821476D01*
X5256143Y-20811952D01*
X5246619Y-20802429D01*
X5237095Y-20783381D01*
X5227571Y-20745286D01*
X5227571Y-20697667D01*
X5237095Y-20659571D01*
X5246619Y-20640524D01*
X5256143Y-20631000D01*
X5275190Y-20621476D01*
X5418048Y-20640524D02*
X5427571Y-20631000D01*
X5446619Y-20621476D01*
X5494238Y-20621476D01*
X5513286Y-20631000D01*
X5522810Y-20640524D01*
X5532333Y-20659571D01*
X5532333Y-20678619D01*
X5522810Y-20707190D01*
X5408524Y-20821476D01*
X5532333Y-20821476D01*
X5627571Y-20821476D02*
X5665667Y-20821476D01*
X5684714Y-20811952D01*
X5694238Y-20802429D01*
X5713286Y-20773857D01*
X5722809Y-20735762D01*
X5722809Y-20659571D01*
X5713286Y-20640524D01*
X5703762Y-20631000D01*
X5684714Y-20621476D01*
X5646619Y-20621476D01*
X5627571Y-20631000D01*
X5618048Y-20640524D01*
X5608524Y-20659571D01*
X5608524Y-20707190D01*
X5618048Y-20726238D01*
X5627571Y-20735762D01*
X5646619Y-20745286D01*
X5684714Y-20745286D01*
X5703762Y-20735762D01*
X5713286Y-20726238D01*
X5722809Y-20707190D01*
X5903762Y-20621476D02*
X5808524Y-20621476D01*
X5799000Y-20716714D01*
X5808524Y-20707190D01*
X5827571Y-20697667D01*
X5875190Y-20697667D01*
X5894238Y-20707190D01*
X5903762Y-20716714D01*
X5913286Y-20735762D01*
X5913286Y-20783381D01*
X5903762Y-20802429D01*
X5894238Y-20811952D01*
X5875190Y-20821476D01*
X5827571Y-20821476D01*
X5808524Y-20811952D01*
X5799000Y-20802429D01*
X5989476Y-20621476D02*
X5989476Y-20659571D01*
X6065667Y-20621476D02*
X6065667Y-20659571D01*
X6360905Y-20897667D02*
X6351381Y-20888143D01*
X6332333Y-20859571D01*
X6322809Y-20840524D01*
X6313286Y-20811952D01*
X6303762Y-20764333D01*
X6303762Y-20726238D01*
X6313286Y-20678619D01*
X6322809Y-20650048D01*
X6332333Y-20631000D01*
X6351381Y-20602429D01*
X6360905Y-20592905D01*
X6541857Y-20821476D02*
X6427571Y-20821476D01*
X6484714Y-20821476D02*
X6484714Y-20621476D01*
X6465667Y-20650048D01*
X6446619Y-20669095D01*
X6427571Y-20678619D01*
X6618048Y-20640524D02*
X6627571Y-20631000D01*
X6646619Y-20621476D01*
X6694238Y-20621476D01*
X6713286Y-20631000D01*
X6722809Y-20640524D01*
X6732333Y-20659571D01*
X6732333Y-20678619D01*
X6722809Y-20707190D01*
X6608524Y-20821476D01*
X6732333Y-20821476D01*
X6970428Y-20821476D02*
X6970428Y-20621476D01*
X7056143Y-20821476D02*
X7056143Y-20716714D01*
X7046619Y-20697667D01*
X7027571Y-20688143D01*
X6999000Y-20688143D01*
X6979952Y-20697667D01*
X6970428Y-20707190D01*
X7179952Y-20821476D02*
X7160905Y-20811952D01*
X7151381Y-20802429D01*
X7141857Y-20783381D01*
X7141857Y-20726238D01*
X7151381Y-20707190D01*
X7160905Y-20697667D01*
X7179952Y-20688143D01*
X7208524Y-20688143D01*
X7227571Y-20697667D01*
X7237095Y-20707190D01*
X7246619Y-20726238D01*
X7246619Y-20783381D01*
X7237095Y-20802429D01*
X7227571Y-20811952D01*
X7208524Y-20821476D01*
X7179952Y-20821476D01*
X7360905Y-20821476D02*
X7341857Y-20811952D01*
X7332333Y-20792905D01*
X7332333Y-20621476D01*
X7513286Y-20811952D02*
X7494238Y-20821476D01*
X7456143Y-20821476D01*
X7437095Y-20811952D01*
X7427571Y-20792905D01*
X7427571Y-20716714D01*
X7437095Y-20697667D01*
X7456143Y-20688143D01*
X7494238Y-20688143D01*
X7513286Y-20697667D01*
X7522809Y-20716714D01*
X7522809Y-20735762D01*
X7427571Y-20754810D01*
X7599000Y-20811952D02*
X7618048Y-20821476D01*
X7656143Y-20821476D01*
X7675190Y-20811952D01*
X7684714Y-20792905D01*
X7684714Y-20783381D01*
X7675190Y-20764333D01*
X7656143Y-20754810D01*
X7627571Y-20754810D01*
X7608524Y-20745286D01*
X7599000Y-20726238D01*
X7599000Y-20716714D01*
X7608524Y-20697667D01*
X7627571Y-20688143D01*
X7656143Y-20688143D01*
X7675190Y-20697667D01*
X7751381Y-20897667D02*
X7760905Y-20888143D01*
X7779952Y-20859571D01*
X7789476Y-20840524D01*
X7799000Y-20811952D01*
X7808524Y-20764333D01*
X7808524Y-20726238D01*
X7799000Y-20678619D01*
X7789476Y-20650048D01*
X7779952Y-20631000D01*
X7760905Y-20602429D01*
X7751381Y-20592905D01*
D15*
X2777285Y-21023285D02*
X2777285Y-20966716D01*
X2720716Y-20966716D01*
X2720716Y-21023285D01*
X2777285Y-21023285D01*
D11*
X3084714Y-20885476D02*
X3103762Y-20885476D01*
X3122809Y-20895000D01*
X3132333Y-20904524D01*
X3141857Y-20923571D01*
X3151381Y-20961667D01*
X3151381Y-21009286D01*
X3141857Y-21047381D01*
X3132333Y-21066429D01*
X3122809Y-21075952D01*
X3103762Y-21085476D01*
X3084714Y-21085476D01*
X3065667Y-21075952D01*
X3056143Y-21066429D01*
X3046619Y-21047381D01*
X3037095Y-21009286D01*
X3037095Y-20961667D01*
X3046619Y-20923571D01*
X3056143Y-20904524D01*
X3065667Y-20895000D01*
X3084714Y-20885476D01*
X3237095Y-21066429D02*
X3246619Y-21075952D01*
X3237095Y-21085476D01*
X3227571Y-21075952D01*
X3237095Y-21066429D01*
X3237095Y-21085476D01*
X3360905Y-20971190D02*
X3341857Y-20961667D01*
X3332333Y-20952143D01*
X3322809Y-20933095D01*
X3322809Y-20923571D01*
X3332333Y-20904524D01*
X3341857Y-20895000D01*
X3360905Y-20885476D01*
X3399000Y-20885476D01*
X3418048Y-20895000D01*
X3427571Y-20904524D01*
X3437095Y-20923571D01*
X3437095Y-20933095D01*
X3427571Y-20952143D01*
X3418048Y-20961667D01*
X3399000Y-20971190D01*
X3360905Y-20971190D01*
X3341857Y-20980714D01*
X3332333Y-20990238D01*
X3322809Y-21009286D01*
X3322809Y-21047381D01*
X3332333Y-21066429D01*
X3341857Y-21075952D01*
X3360905Y-21085476D01*
X3399000Y-21085476D01*
X3418048Y-21075952D01*
X3427571Y-21066429D01*
X3437095Y-21047381D01*
X3437095Y-21009286D01*
X3427571Y-20990238D01*
X3418048Y-20980714D01*
X3399000Y-20971190D01*
X3560905Y-20885476D02*
X3579952Y-20885476D01*
X3599000Y-20895000D01*
X3608524Y-20904524D01*
X3618048Y-20923571D01*
X3627571Y-20961667D01*
X3627571Y-21009286D01*
X3618048Y-21047381D01*
X3608524Y-21066429D01*
X3599000Y-21075952D01*
X3579952Y-21085476D01*
X3560905Y-21085476D01*
X3541857Y-21075952D01*
X3532333Y-21066429D01*
X3522809Y-21047381D01*
X3513286Y-21009286D01*
X3513286Y-20961667D01*
X3522809Y-20923571D01*
X3532333Y-20904524D01*
X3541857Y-20895000D01*
X3560905Y-20885476D01*
X3751381Y-20885476D02*
X3770428Y-20885476D01*
X3789476Y-20895000D01*
X3799000Y-20904524D01*
X3808524Y-20923571D01*
X3818048Y-20961667D01*
X3818048Y-21009286D01*
X3808524Y-21047381D01*
X3799000Y-21066429D01*
X3789476Y-21075952D01*
X3770428Y-21085476D01*
X3751381Y-21085476D01*
X3732333Y-21075952D01*
X3722809Y-21066429D01*
X3713286Y-21047381D01*
X3703762Y-21009286D01*
X3703762Y-20961667D01*
X3713286Y-20923571D01*
X3722809Y-20904524D01*
X3732333Y-20895000D01*
X3751381Y-20885476D01*
X3903762Y-21085476D02*
X3903762Y-20952143D01*
X3903762Y-20971190D02*
X3913286Y-20961667D01*
X3932333Y-20952143D01*
X3960905Y-20952143D01*
X3979952Y-20961667D01*
X3989476Y-20980714D01*
X3989476Y-21085476D01*
X3989476Y-20980714D02*
X3999000Y-20961667D01*
X4018048Y-20952143D01*
X4046619Y-20952143D01*
X4065667Y-20961667D01*
X4075190Y-20980714D01*
X4075190Y-21085476D01*
X4170428Y-21085476D02*
X4170428Y-20952143D01*
X4170428Y-20971190D02*
X4179952Y-20961667D01*
X4199000Y-20952143D01*
X4227571Y-20952143D01*
X4246619Y-20961667D01*
X4256143Y-20980714D01*
X4256143Y-21085476D01*
X4256143Y-20980714D02*
X4265667Y-20961667D01*
X4284714Y-20952143D01*
X4313286Y-20952143D01*
X4332333Y-20961667D01*
X4341857Y-20980714D01*
X4341857Y-21085476D01*
X4732333Y-20875952D02*
X4560905Y-21133095D01*
X4989476Y-20885476D02*
X5008524Y-20885476D01*
X5027571Y-20895000D01*
X5037095Y-20904524D01*
X5046619Y-20923571D01*
X5056143Y-20961667D01*
X5056143Y-21009286D01*
X5046619Y-21047381D01*
X5037095Y-21066429D01*
X5027571Y-21075952D01*
X5008524Y-21085476D01*
X4989476Y-21085476D01*
X4970429Y-21075952D01*
X4960905Y-21066429D01*
X4951381Y-21047381D01*
X4941857Y-21009286D01*
X4941857Y-20961667D01*
X4951381Y-20923571D01*
X4960905Y-20904524D01*
X4970429Y-20895000D01*
X4989476Y-20885476D01*
X5141857Y-21066429D02*
X5151381Y-21075952D01*
X5141857Y-21085476D01*
X5132333Y-21075952D01*
X5141857Y-21066429D01*
X5141857Y-21085476D01*
X5275190Y-20885476D02*
X5294238Y-20885476D01*
X5313286Y-20895000D01*
X5322810Y-20904524D01*
X5332333Y-20923571D01*
X5341857Y-20961667D01*
X5341857Y-21009286D01*
X5332333Y-21047381D01*
X5322810Y-21066429D01*
X5313286Y-21075952D01*
X5294238Y-21085476D01*
X5275190Y-21085476D01*
X5256143Y-21075952D01*
X5246619Y-21066429D01*
X5237095Y-21047381D01*
X5227571Y-21009286D01*
X5227571Y-20961667D01*
X5237095Y-20923571D01*
X5246619Y-20904524D01*
X5256143Y-20895000D01*
X5275190Y-20885476D01*
X5408524Y-20885476D02*
X5532333Y-20885476D01*
X5465667Y-20961667D01*
X5494238Y-20961667D01*
X5513286Y-20971190D01*
X5522810Y-20980714D01*
X5532333Y-20999762D01*
X5532333Y-21047381D01*
X5522810Y-21066429D01*
X5513286Y-21075952D01*
X5494238Y-21085476D01*
X5437095Y-21085476D01*
X5418048Y-21075952D01*
X5408524Y-21066429D01*
X5722809Y-21085476D02*
X5608524Y-21085476D01*
X5665667Y-21085476D02*
X5665667Y-20885476D01*
X5646619Y-20914048D01*
X5627571Y-20933095D01*
X5608524Y-20942619D01*
X5903762Y-20885476D02*
X5808524Y-20885476D01*
X5799000Y-20980714D01*
X5808524Y-20971190D01*
X5827571Y-20961667D01*
X5875190Y-20961667D01*
X5894238Y-20971190D01*
X5903762Y-20980714D01*
X5913286Y-20999762D01*
X5913286Y-21047381D01*
X5903762Y-21066429D01*
X5894238Y-21075952D01*
X5875190Y-21085476D01*
X5827571Y-21085476D01*
X5808524Y-21075952D01*
X5799000Y-21066429D01*
X5989476Y-20885476D02*
X5989476Y-20923571D01*
X6065667Y-20885476D02*
X6065667Y-20923571D01*
X6360905Y-21161667D02*
X6351381Y-21152143D01*
X6332333Y-21123571D01*
X6322809Y-21104524D01*
X6313286Y-21075952D01*
X6303762Y-21028333D01*
X6303762Y-20990238D01*
X6313286Y-20942619D01*
X6322809Y-20914048D01*
X6332333Y-20895000D01*
X6351381Y-20866429D01*
X6360905Y-20856905D01*
X6427571Y-20904524D02*
X6437095Y-20895000D01*
X6456143Y-20885476D01*
X6503762Y-20885476D01*
X6522809Y-20895000D01*
X6532333Y-20904524D01*
X6541857Y-20923571D01*
X6541857Y-20942619D01*
X6532333Y-20971190D01*
X6418048Y-21085476D01*
X6541857Y-21085476D01*
X6608524Y-20885476D02*
X6741857Y-20885476D01*
X6656143Y-21085476D01*
X6903762Y-20885476D02*
X6865667Y-20885476D01*
X6846619Y-20895000D01*
X6837095Y-20904524D01*
X6818048Y-20933095D01*
X6808524Y-20971190D01*
X6808524Y-21047381D01*
X6818048Y-21066429D01*
X6827571Y-21075952D01*
X6846619Y-21085476D01*
X6884714Y-21085476D01*
X6903762Y-21075952D01*
X6913286Y-21066429D01*
X6922809Y-21047381D01*
X6922809Y-20999762D01*
X6913286Y-20980714D01*
X6903762Y-20971190D01*
X6884714Y-20961667D01*
X6846619Y-20961667D01*
X6827571Y-20971190D01*
X6818048Y-20980714D01*
X6808524Y-20999762D01*
X7160905Y-21085476D02*
X7160905Y-20885476D01*
X7246619Y-21085476D02*
X7246619Y-20980714D01*
X7237095Y-20961667D01*
X7218048Y-20952143D01*
X7189476Y-20952143D01*
X7170428Y-20961667D01*
X7160905Y-20971190D01*
X7370428Y-21085476D02*
X7351381Y-21075952D01*
X7341857Y-21066429D01*
X7332333Y-21047381D01*
X7332333Y-20990238D01*
X7341857Y-20971190D01*
X7351381Y-20961667D01*
X7370428Y-20952143D01*
X7399000Y-20952143D01*
X7418048Y-20961667D01*
X7427571Y-20971190D01*
X7437095Y-20990238D01*
X7437095Y-21047381D01*
X7427571Y-21066429D01*
X7418048Y-21075952D01*
X7399000Y-21085476D01*
X7370428Y-21085476D01*
X7551381Y-21085476D02*
X7532333Y-21075952D01*
X7522809Y-21056905D01*
X7522809Y-20885476D01*
X7703762Y-21075952D02*
X7684714Y-21085476D01*
X7646619Y-21085476D01*
X7627571Y-21075952D01*
X7618048Y-21056905D01*
X7618048Y-20980714D01*
X7627571Y-20961667D01*
X7646619Y-20952143D01*
X7684714Y-20952143D01*
X7703762Y-20961667D01*
X7713286Y-20980714D01*
X7713286Y-20999762D01*
X7618048Y-21018810D01*
X7789476Y-21075952D02*
X7808524Y-21085476D01*
X7846619Y-21085476D01*
X7865667Y-21075952D01*
X7875190Y-21056905D01*
X7875190Y-21047381D01*
X7865667Y-21028333D01*
X7846619Y-21018810D01*
X7818048Y-21018810D01*
X7799000Y-21009286D01*
X7789476Y-20990238D01*
X7789476Y-20980714D01*
X7799000Y-20961667D01*
X7818048Y-20952143D01*
X7846619Y-20952143D01*
X7865667Y-20961667D01*
X7941857Y-21161667D02*
X7951381Y-21152143D01*
X7970428Y-21123571D01*
X7979952Y-21104524D01*
X7989476Y-21075952D01*
X7999000Y-21028333D01*
X7999000Y-20990238D01*
X7989476Y-20942619D01*
X7979952Y-20914048D01*
X7970428Y-20895000D01*
X7951381Y-20866429D01*
X7941857Y-20856905D01*
D16*
X2746500Y-21301500D02*
X2789000Y-21259000D01*
X2746500Y-21216500D01*
X2704000Y-21259000D01*
X2746500Y-21301500D01*
D11*
X3084714Y-21149476D02*
X3103762Y-21149476D01*
X3122809Y-21159000D01*
X3132333Y-21168524D01*
X3141857Y-21187571D01*
X3151381Y-21225667D01*
X3151381Y-21273286D01*
X3141857Y-21311381D01*
X3132333Y-21330429D01*
X3122809Y-21339952D01*
X3103762Y-21349476D01*
X3084714Y-21349476D01*
X3065667Y-21339952D01*
X3056143Y-21330429D01*
X3046619Y-21311381D01*
X3037095Y-21273286D01*
X3037095Y-21225667D01*
X3046619Y-21187571D01*
X3056143Y-21168524D01*
X3065667Y-21159000D01*
X3084714Y-21149476D01*
X3237095Y-21330429D02*
X3246619Y-21339952D01*
X3237095Y-21349476D01*
X3227571Y-21339952D01*
X3237095Y-21330429D01*
X3237095Y-21349476D01*
X3360905Y-21235190D02*
X3341857Y-21225667D01*
X3332333Y-21216143D01*
X3322809Y-21197095D01*
X3322809Y-21187571D01*
X3332333Y-21168524D01*
X3341857Y-21159000D01*
X3360905Y-21149476D01*
X3399000Y-21149476D01*
X3418048Y-21159000D01*
X3427571Y-21168524D01*
X3437095Y-21187571D01*
X3437095Y-21197095D01*
X3427571Y-21216143D01*
X3418048Y-21225667D01*
X3399000Y-21235190D01*
X3360905Y-21235190D01*
X3341857Y-21244714D01*
X3332333Y-21254238D01*
X3322809Y-21273286D01*
X3322809Y-21311381D01*
X3332333Y-21330429D01*
X3341857Y-21339952D01*
X3360905Y-21349476D01*
X3399000Y-21349476D01*
X3418048Y-21339952D01*
X3427571Y-21330429D01*
X3437095Y-21311381D01*
X3437095Y-21273286D01*
X3427571Y-21254238D01*
X3418048Y-21244714D01*
X3399000Y-21235190D01*
X3618048Y-21149476D02*
X3522809Y-21149476D01*
X3513286Y-21244714D01*
X3522809Y-21235190D01*
X3541857Y-21225667D01*
X3589476Y-21225667D01*
X3608524Y-21235190D01*
X3618048Y-21244714D01*
X3627571Y-21263762D01*
X3627571Y-21311381D01*
X3618048Y-21330429D01*
X3608524Y-21339952D01*
X3589476Y-21349476D01*
X3541857Y-21349476D01*
X3522809Y-21339952D01*
X3513286Y-21330429D01*
X3751381Y-21149476D02*
X3770428Y-21149476D01*
X3789476Y-21159000D01*
X3799000Y-21168524D01*
X3808524Y-21187571D01*
X3818048Y-21225667D01*
X3818048Y-21273286D01*
X3808524Y-21311381D01*
X3799000Y-21330429D01*
X3789476Y-21339952D01*
X3770428Y-21349476D01*
X3751381Y-21349476D01*
X3732333Y-21339952D01*
X3722809Y-21330429D01*
X3713286Y-21311381D01*
X3703762Y-21273286D01*
X3703762Y-21225667D01*
X3713286Y-21187571D01*
X3722809Y-21168524D01*
X3732333Y-21159000D01*
X3751381Y-21149476D01*
X3903762Y-21349476D02*
X3903762Y-21216143D01*
X3903762Y-21235190D02*
X3913286Y-21225667D01*
X3932333Y-21216143D01*
X3960905Y-21216143D01*
X3979952Y-21225667D01*
X3989476Y-21244714D01*
X3989476Y-21349476D01*
X3989476Y-21244714D02*
X3999000Y-21225667D01*
X4018048Y-21216143D01*
X4046619Y-21216143D01*
X4065667Y-21225667D01*
X4075190Y-21244714D01*
X4075190Y-21349476D01*
X4170428Y-21349476D02*
X4170428Y-21216143D01*
X4170428Y-21235190D02*
X4179952Y-21225667D01*
X4199000Y-21216143D01*
X4227571Y-21216143D01*
X4246619Y-21225667D01*
X4256143Y-21244714D01*
X4256143Y-21349476D01*
X4256143Y-21244714D02*
X4265667Y-21225667D01*
X4284714Y-21216143D01*
X4313286Y-21216143D01*
X4332333Y-21225667D01*
X4341857Y-21244714D01*
X4341857Y-21349476D01*
X4732333Y-21139952D02*
X4560905Y-21397095D01*
X4989476Y-21149476D02*
X5008524Y-21149476D01*
X5027571Y-21159000D01*
X5037095Y-21168524D01*
X5046619Y-21187571D01*
X5056143Y-21225667D01*
X5056143Y-21273286D01*
X5046619Y-21311381D01*
X5037095Y-21330429D01*
X5027571Y-21339952D01*
X5008524Y-21349476D01*
X4989476Y-21349476D01*
X4970429Y-21339952D01*
X4960905Y-21330429D01*
X4951381Y-21311381D01*
X4941857Y-21273286D01*
X4941857Y-21225667D01*
X4951381Y-21187571D01*
X4960905Y-21168524D01*
X4970429Y-21159000D01*
X4989476Y-21149476D01*
X5141857Y-21330429D02*
X5151381Y-21339952D01*
X5141857Y-21349476D01*
X5132333Y-21339952D01*
X5141857Y-21330429D01*
X5141857Y-21349476D01*
X5275190Y-21149476D02*
X5294238Y-21149476D01*
X5313286Y-21159000D01*
X5322810Y-21168524D01*
X5332333Y-21187571D01*
X5341857Y-21225667D01*
X5341857Y-21273286D01*
X5332333Y-21311381D01*
X5322810Y-21330429D01*
X5313286Y-21339952D01*
X5294238Y-21349476D01*
X5275190Y-21349476D01*
X5256143Y-21339952D01*
X5246619Y-21330429D01*
X5237095Y-21311381D01*
X5227571Y-21273286D01*
X5227571Y-21225667D01*
X5237095Y-21187571D01*
X5246619Y-21168524D01*
X5256143Y-21159000D01*
X5275190Y-21149476D01*
X5408524Y-21149476D02*
X5532333Y-21149476D01*
X5465667Y-21225667D01*
X5494238Y-21225667D01*
X5513286Y-21235190D01*
X5522810Y-21244714D01*
X5532333Y-21263762D01*
X5532333Y-21311381D01*
X5522810Y-21330429D01*
X5513286Y-21339952D01*
X5494238Y-21349476D01*
X5437095Y-21349476D01*
X5418048Y-21339952D01*
X5408524Y-21330429D01*
X5599000Y-21149476D02*
X5722809Y-21149476D01*
X5656143Y-21225667D01*
X5684714Y-21225667D01*
X5703762Y-21235190D01*
X5713286Y-21244714D01*
X5722809Y-21263762D01*
X5722809Y-21311381D01*
X5713286Y-21330429D01*
X5703762Y-21339952D01*
X5684714Y-21349476D01*
X5627571Y-21349476D01*
X5608524Y-21339952D01*
X5599000Y-21330429D01*
X5903762Y-21149476D02*
X5808524Y-21149476D01*
X5799000Y-21244714D01*
X5808524Y-21235190D01*
X5827571Y-21225667D01*
X5875190Y-21225667D01*
X5894238Y-21235190D01*
X5903762Y-21244714D01*
X5913286Y-21263762D01*
X5913286Y-21311381D01*
X5903762Y-21330429D01*
X5894238Y-21339952D01*
X5875190Y-21349476D01*
X5827571Y-21349476D01*
X5808524Y-21339952D01*
X5799000Y-21330429D01*
X5989476Y-21149476D02*
X5989476Y-21187571D01*
X6065667Y-21149476D02*
X6065667Y-21187571D01*
X6360905Y-21425667D02*
X6351381Y-21416143D01*
X6332333Y-21387571D01*
X6322809Y-21368524D01*
X6313286Y-21339952D01*
X6303762Y-21292333D01*
X6303762Y-21254238D01*
X6313286Y-21206619D01*
X6322809Y-21178048D01*
X6332333Y-21159000D01*
X6351381Y-21130429D01*
X6360905Y-21120905D01*
X6427571Y-21168524D02*
X6437095Y-21159000D01*
X6456143Y-21149476D01*
X6503762Y-21149476D01*
X6522809Y-21159000D01*
X6532333Y-21168524D01*
X6541857Y-21187571D01*
X6541857Y-21206619D01*
X6532333Y-21235190D01*
X6418048Y-21349476D01*
X6541857Y-21349476D01*
X6779952Y-21349476D02*
X6779952Y-21149476D01*
X6865667Y-21349476D02*
X6865667Y-21244714D01*
X6856143Y-21225667D01*
X6837095Y-21216143D01*
X6808524Y-21216143D01*
X6789476Y-21225667D01*
X6779952Y-21235190D01*
X6989476Y-21349476D02*
X6970428Y-21339952D01*
X6960905Y-21330429D01*
X6951381Y-21311381D01*
X6951381Y-21254238D01*
X6960905Y-21235190D01*
X6970428Y-21225667D01*
X6989476Y-21216143D01*
X7018048Y-21216143D01*
X7037095Y-21225667D01*
X7046619Y-21235190D01*
X7056143Y-21254238D01*
X7056143Y-21311381D01*
X7046619Y-21330429D01*
X7037095Y-21339952D01*
X7018048Y-21349476D01*
X6989476Y-21349476D01*
X7170428Y-21349476D02*
X7151381Y-21339952D01*
X7141857Y-21320905D01*
X7141857Y-21149476D01*
X7322809Y-21339952D02*
X7303762Y-21349476D01*
X7265667Y-21349476D01*
X7246619Y-21339952D01*
X7237095Y-21320905D01*
X7237095Y-21244714D01*
X7246619Y-21225667D01*
X7265667Y-21216143D01*
X7303762Y-21216143D01*
X7322809Y-21225667D01*
X7332333Y-21244714D01*
X7332333Y-21263762D01*
X7237095Y-21282810D01*
X7408524Y-21339952D02*
X7427571Y-21349476D01*
X7465667Y-21349476D01*
X7484714Y-21339952D01*
X7494238Y-21320905D01*
X7494238Y-21311381D01*
X7484714Y-21292333D01*
X7465667Y-21282810D01*
X7437095Y-21282810D01*
X7418048Y-21273286D01*
X7408524Y-21254238D01*
X7408524Y-21244714D01*
X7418048Y-21225667D01*
X7437095Y-21216143D01*
X7465667Y-21216143D01*
X7484714Y-21225667D01*
X7560905Y-21425667D02*
X7570428Y-21416143D01*
X7589476Y-21387571D01*
X7599000Y-21368524D01*
X7608524Y-21339952D01*
X7618048Y-21292333D01*
X7618048Y-21254238D01*
X7608524Y-21206619D01*
X7599000Y-21178048D01*
X7589476Y-21159000D01*
X7570428Y-21130429D01*
X7560905Y-21120905D01*
D17*
X2689000Y-21473000D02*
X2789000Y-21573000D01*
X2789000Y-21473000D02*
X2689000Y-21573000D01*
X2789000Y-21523000D02*
G75*
G03*
X2789000Y-21523000I-50000J0D01*
G01*
D11*
X3151381Y-21613476D02*
X3037095Y-21613476D01*
X3094238Y-21613476D02*
X3094238Y-21413476D01*
X3075190Y-21442048D01*
X3056143Y-21461095D01*
X3037095Y-21470619D01*
X3237095Y-21594429D02*
X3246619Y-21603952D01*
X3237095Y-21613476D01*
X3227571Y-21603952D01*
X3237095Y-21594429D01*
X3237095Y-21613476D01*
X3370428Y-21413476D02*
X3389476Y-21413476D01*
X3408524Y-21423000D01*
X3418048Y-21432524D01*
X3427571Y-21451571D01*
X3437095Y-21489667D01*
X3437095Y-21537286D01*
X3427571Y-21575381D01*
X3418048Y-21594429D01*
X3408524Y-21603952D01*
X3389476Y-21613476D01*
X3370428Y-21613476D01*
X3351381Y-21603952D01*
X3341857Y-21594429D01*
X3332333Y-21575381D01*
X3322809Y-21537286D01*
X3322809Y-21489667D01*
X3332333Y-21451571D01*
X3341857Y-21432524D01*
X3351381Y-21423000D01*
X3370428Y-21413476D01*
X3560905Y-21413476D02*
X3579952Y-21413476D01*
X3599000Y-21423000D01*
X3608524Y-21432524D01*
X3618048Y-21451571D01*
X3627571Y-21489667D01*
X3627571Y-21537286D01*
X3618048Y-21575381D01*
X3608524Y-21594429D01*
X3599000Y-21603952D01*
X3579952Y-21613476D01*
X3560905Y-21613476D01*
X3541857Y-21603952D01*
X3532333Y-21594429D01*
X3522809Y-21575381D01*
X3513286Y-21537286D01*
X3513286Y-21489667D01*
X3522809Y-21451571D01*
X3532333Y-21432524D01*
X3541857Y-21423000D01*
X3560905Y-21413476D01*
X3751381Y-21413476D02*
X3770428Y-21413476D01*
X3789476Y-21423000D01*
X3799000Y-21432524D01*
X3808524Y-21451571D01*
X3818048Y-21489667D01*
X3818048Y-21537286D01*
X3808524Y-21575381D01*
X3799000Y-21594429D01*
X3789476Y-21603952D01*
X3770428Y-21613476D01*
X3751381Y-21613476D01*
X3732333Y-21603952D01*
X3722809Y-21594429D01*
X3713286Y-21575381D01*
X3703762Y-21537286D01*
X3703762Y-21489667D01*
X3713286Y-21451571D01*
X3722809Y-21432524D01*
X3732333Y-21423000D01*
X3751381Y-21413476D01*
X3903762Y-21613476D02*
X3903762Y-21480143D01*
X3903762Y-21499190D02*
X3913286Y-21489667D01*
X3932333Y-21480143D01*
X3960905Y-21480143D01*
X3979952Y-21489667D01*
X3989476Y-21508714D01*
X3989476Y-21613476D01*
X3989476Y-21508714D02*
X3999000Y-21489667D01*
X4018048Y-21480143D01*
X4046619Y-21480143D01*
X4065667Y-21489667D01*
X4075190Y-21508714D01*
X4075190Y-21613476D01*
X4170428Y-21613476D02*
X4170428Y-21480143D01*
X4170428Y-21499190D02*
X4179952Y-21489667D01*
X4199000Y-21480143D01*
X4227571Y-21480143D01*
X4246619Y-21489667D01*
X4256143Y-21508714D01*
X4256143Y-21613476D01*
X4256143Y-21508714D02*
X4265667Y-21489667D01*
X4284714Y-21480143D01*
X4313286Y-21480143D01*
X4332333Y-21489667D01*
X4341857Y-21508714D01*
X4341857Y-21613476D01*
X4732333Y-21403952D02*
X4560905Y-21661095D01*
X4989476Y-21413476D02*
X5008524Y-21413476D01*
X5027571Y-21423000D01*
X5037095Y-21432524D01*
X5046619Y-21451571D01*
X5056143Y-21489667D01*
X5056143Y-21537286D01*
X5046619Y-21575381D01*
X5037095Y-21594429D01*
X5027571Y-21603952D01*
X5008524Y-21613476D01*
X4989476Y-21613476D01*
X4970429Y-21603952D01*
X4960905Y-21594429D01*
X4951381Y-21575381D01*
X4941857Y-21537286D01*
X4941857Y-21489667D01*
X4951381Y-21451571D01*
X4960905Y-21432524D01*
X4970429Y-21423000D01*
X4989476Y-21413476D01*
X5141857Y-21594429D02*
X5151381Y-21603952D01*
X5141857Y-21613476D01*
X5132333Y-21603952D01*
X5141857Y-21594429D01*
X5141857Y-21613476D01*
X5275190Y-21413476D02*
X5294238Y-21413476D01*
X5313286Y-21423000D01*
X5322810Y-21432524D01*
X5332333Y-21451571D01*
X5341857Y-21489667D01*
X5341857Y-21537286D01*
X5332333Y-21575381D01*
X5322810Y-21594429D01*
X5313286Y-21603952D01*
X5294238Y-21613476D01*
X5275190Y-21613476D01*
X5256143Y-21603952D01*
X5246619Y-21594429D01*
X5237095Y-21575381D01*
X5227571Y-21537286D01*
X5227571Y-21489667D01*
X5237095Y-21451571D01*
X5246619Y-21432524D01*
X5256143Y-21423000D01*
X5275190Y-21413476D01*
X5408524Y-21413476D02*
X5532333Y-21413476D01*
X5465667Y-21489667D01*
X5494238Y-21489667D01*
X5513286Y-21499190D01*
X5522810Y-21508714D01*
X5532333Y-21527762D01*
X5532333Y-21575381D01*
X5522810Y-21594429D01*
X5513286Y-21603952D01*
X5494238Y-21613476D01*
X5437095Y-21613476D01*
X5418048Y-21603952D01*
X5408524Y-21594429D01*
X5627571Y-21613476D02*
X5665667Y-21613476D01*
X5684714Y-21603952D01*
X5694238Y-21594429D01*
X5713286Y-21565857D01*
X5722809Y-21527762D01*
X5722809Y-21451571D01*
X5713286Y-21432524D01*
X5703762Y-21423000D01*
X5684714Y-21413476D01*
X5646619Y-21413476D01*
X5627571Y-21423000D01*
X5618048Y-21432524D01*
X5608524Y-21451571D01*
X5608524Y-21499190D01*
X5618048Y-21518238D01*
X5627571Y-21527762D01*
X5646619Y-21537286D01*
X5684714Y-21537286D01*
X5703762Y-21527762D01*
X5713286Y-21518238D01*
X5722809Y-21499190D01*
X5894238Y-21480143D02*
X5894238Y-21613476D01*
X5846619Y-21403952D02*
X5799000Y-21546810D01*
X5922809Y-21546810D01*
X5989476Y-21413476D02*
X5989476Y-21451571D01*
X6065667Y-21413476D02*
X6065667Y-21451571D01*
X6360905Y-21689667D02*
X6351381Y-21680143D01*
X6332333Y-21651571D01*
X6322809Y-21632524D01*
X6313286Y-21603952D01*
X6303762Y-21556333D01*
X6303762Y-21518238D01*
X6313286Y-21470619D01*
X6322809Y-21442048D01*
X6332333Y-21423000D01*
X6351381Y-21394429D01*
X6360905Y-21384905D01*
X6446619Y-21613476D02*
X6484714Y-21613476D01*
X6503762Y-21603952D01*
X6513286Y-21594429D01*
X6532333Y-21565857D01*
X6541857Y-21527762D01*
X6541857Y-21451571D01*
X6532333Y-21432524D01*
X6522809Y-21423000D01*
X6503762Y-21413476D01*
X6465667Y-21413476D01*
X6446619Y-21423000D01*
X6437095Y-21432524D01*
X6427571Y-21451571D01*
X6427571Y-21499190D01*
X6437095Y-21518238D01*
X6446619Y-21527762D01*
X6465667Y-21537286D01*
X6503762Y-21537286D01*
X6522809Y-21527762D01*
X6532333Y-21518238D01*
X6541857Y-21499190D01*
X6722809Y-21413476D02*
X6627571Y-21413476D01*
X6618048Y-21508714D01*
X6627571Y-21499190D01*
X6646619Y-21489667D01*
X6694238Y-21489667D01*
X6713286Y-21499190D01*
X6722809Y-21508714D01*
X6732333Y-21527762D01*
X6732333Y-21575381D01*
X6722809Y-21594429D01*
X6713286Y-21603952D01*
X6694238Y-21613476D01*
X6646619Y-21613476D01*
X6627571Y-21603952D01*
X6618048Y-21594429D01*
X6970428Y-21613476D02*
X6970428Y-21413476D01*
X7056143Y-21613476D02*
X7056143Y-21508714D01*
X7046619Y-21489667D01*
X7027571Y-21480143D01*
X6999000Y-21480143D01*
X6979952Y-21489667D01*
X6970428Y-21499190D01*
X7179952Y-21613476D02*
X7160905Y-21603952D01*
X7151381Y-21594429D01*
X7141857Y-21575381D01*
X7141857Y-21518238D01*
X7151381Y-21499190D01*
X7160905Y-21489667D01*
X7179952Y-21480143D01*
X7208524Y-21480143D01*
X7227571Y-21489667D01*
X7237095Y-21499190D01*
X7246619Y-21518238D01*
X7246619Y-21575381D01*
X7237095Y-21594429D01*
X7227571Y-21603952D01*
X7208524Y-21613476D01*
X7179952Y-21613476D01*
X7360905Y-21613476D02*
X7341857Y-21603952D01*
X7332333Y-21584905D01*
X7332333Y-21413476D01*
X7513286Y-21603952D02*
X7494238Y-21613476D01*
X7456143Y-21613476D01*
X7437095Y-21603952D01*
X7427571Y-21584905D01*
X7427571Y-21508714D01*
X7437095Y-21489667D01*
X7456143Y-21480143D01*
X7494238Y-21480143D01*
X7513286Y-21489667D01*
X7522809Y-21508714D01*
X7522809Y-21527762D01*
X7427571Y-21546810D01*
X7599000Y-21603952D02*
X7618048Y-21613476D01*
X7656143Y-21613476D01*
X7675190Y-21603952D01*
X7684714Y-21584905D01*
X7684714Y-21575381D01*
X7675190Y-21556333D01*
X7656143Y-21546810D01*
X7627571Y-21546810D01*
X7608524Y-21537286D01*
X7599000Y-21518238D01*
X7599000Y-21508714D01*
X7608524Y-21489667D01*
X7627571Y-21480143D01*
X7656143Y-21480143D01*
X7675190Y-21489667D01*
X7751381Y-21689667D02*
X7760905Y-21680143D01*
X7779952Y-21651571D01*
X7789476Y-21632524D01*
X7799000Y-21603952D01*
X7808524Y-21556333D01*
X7808524Y-21518238D01*
X7799000Y-21470619D01*
X7789476Y-21442048D01*
X7779952Y-21423000D01*
X7760905Y-21394429D01*
X7751381Y-21384905D01*
D18*
X2679000Y-21732000D02*
X2789000Y-21842000D01*
X2789000Y-21732000D02*
X2679000Y-21842000D01*
X2734000Y-21732000D02*
X2734000Y-21842000D01*
X2679000Y-21787000D02*
X2789000Y-21787000D01*
D11*
X3151381Y-21877476D02*
X3037095Y-21877476D01*
X3094238Y-21877476D02*
X3094238Y-21677476D01*
X3075190Y-21706048D01*
X3056143Y-21725095D01*
X3037095Y-21734619D01*
X3237095Y-21858429D02*
X3246619Y-21867952D01*
X3237095Y-21877476D01*
X3227571Y-21867952D01*
X3237095Y-21858429D01*
X3237095Y-21877476D01*
X3437095Y-21877476D02*
X3322809Y-21877476D01*
X3379952Y-21877476D02*
X3379952Y-21677476D01*
X3360905Y-21706048D01*
X3341857Y-21725095D01*
X3322809Y-21734619D01*
X3560905Y-21677476D02*
X3579952Y-21677476D01*
X3599000Y-21687000D01*
X3608524Y-21696524D01*
X3618048Y-21715571D01*
X3627571Y-21753667D01*
X3627571Y-21801286D01*
X3618048Y-21839381D01*
X3608524Y-21858429D01*
X3599000Y-21867952D01*
X3579952Y-21877476D01*
X3560905Y-21877476D01*
X3541857Y-21867952D01*
X3532333Y-21858429D01*
X3522809Y-21839381D01*
X3513286Y-21801286D01*
X3513286Y-21753667D01*
X3522809Y-21715571D01*
X3532333Y-21696524D01*
X3541857Y-21687000D01*
X3560905Y-21677476D01*
X3751381Y-21677476D02*
X3770428Y-21677476D01*
X3789476Y-21687000D01*
X3799000Y-21696524D01*
X3808524Y-21715571D01*
X3818048Y-21753667D01*
X3818048Y-21801286D01*
X3808524Y-21839381D01*
X3799000Y-21858429D01*
X3789476Y-21867952D01*
X3770428Y-21877476D01*
X3751381Y-21877476D01*
X3732333Y-21867952D01*
X3722809Y-21858429D01*
X3713286Y-21839381D01*
X3703762Y-21801286D01*
X3703762Y-21753667D01*
X3713286Y-21715571D01*
X3722809Y-21696524D01*
X3732333Y-21687000D01*
X3751381Y-21677476D01*
X3903762Y-21877476D02*
X3903762Y-21744143D01*
X3903762Y-21763190D02*
X3913286Y-21753667D01*
X3932333Y-21744143D01*
X3960905Y-21744143D01*
X3979952Y-21753667D01*
X3989476Y-21772714D01*
X3989476Y-21877476D01*
X3989476Y-21772714D02*
X3999000Y-21753667D01*
X4018048Y-21744143D01*
X4046619Y-21744143D01*
X4065667Y-21753667D01*
X4075190Y-21772714D01*
X4075190Y-21877476D01*
X4170428Y-21877476D02*
X4170428Y-21744143D01*
X4170428Y-21763190D02*
X4179952Y-21753667D01*
X4199000Y-21744143D01*
X4227571Y-21744143D01*
X4246619Y-21753667D01*
X4256143Y-21772714D01*
X4256143Y-21877476D01*
X4256143Y-21772714D02*
X4265667Y-21753667D01*
X4284714Y-21744143D01*
X4313286Y-21744143D01*
X4332333Y-21753667D01*
X4341857Y-21772714D01*
X4341857Y-21877476D01*
X4732333Y-21667952D02*
X4560905Y-21925095D01*
X4989476Y-21677476D02*
X5008524Y-21677476D01*
X5027571Y-21687000D01*
X5037095Y-21696524D01*
X5046619Y-21715571D01*
X5056143Y-21753667D01*
X5056143Y-21801286D01*
X5046619Y-21839381D01*
X5037095Y-21858429D01*
X5027571Y-21867952D01*
X5008524Y-21877476D01*
X4989476Y-21877476D01*
X4970429Y-21867952D01*
X4960905Y-21858429D01*
X4951381Y-21839381D01*
X4941857Y-21801286D01*
X4941857Y-21753667D01*
X4951381Y-21715571D01*
X4960905Y-21696524D01*
X4970429Y-21687000D01*
X4989476Y-21677476D01*
X5141857Y-21858429D02*
X5151381Y-21867952D01*
X5141857Y-21877476D01*
X5132333Y-21867952D01*
X5141857Y-21858429D01*
X5141857Y-21877476D01*
X5275190Y-21677476D02*
X5294238Y-21677476D01*
X5313286Y-21687000D01*
X5322810Y-21696524D01*
X5332333Y-21715571D01*
X5341857Y-21753667D01*
X5341857Y-21801286D01*
X5332333Y-21839381D01*
X5322810Y-21858429D01*
X5313286Y-21867952D01*
X5294238Y-21877476D01*
X5275190Y-21877476D01*
X5256143Y-21867952D01*
X5246619Y-21858429D01*
X5237095Y-21839381D01*
X5227571Y-21801286D01*
X5227571Y-21753667D01*
X5237095Y-21715571D01*
X5246619Y-21696524D01*
X5256143Y-21687000D01*
X5275190Y-21677476D01*
X5513286Y-21744143D02*
X5513286Y-21877476D01*
X5465667Y-21667952D02*
X5418048Y-21810810D01*
X5541857Y-21810810D01*
X5599000Y-21677476D02*
X5722809Y-21677476D01*
X5656143Y-21753667D01*
X5684714Y-21753667D01*
X5703762Y-21763190D01*
X5713286Y-21772714D01*
X5722809Y-21791762D01*
X5722809Y-21839381D01*
X5713286Y-21858429D01*
X5703762Y-21867952D01*
X5684714Y-21877476D01*
X5627571Y-21877476D01*
X5608524Y-21867952D01*
X5599000Y-21858429D01*
X5789476Y-21677476D02*
X5913286Y-21677476D01*
X5846619Y-21753667D01*
X5875190Y-21753667D01*
X5894238Y-21763190D01*
X5903762Y-21772714D01*
X5913286Y-21791762D01*
X5913286Y-21839381D01*
X5903762Y-21858429D01*
X5894238Y-21867952D01*
X5875190Y-21877476D01*
X5818048Y-21877476D01*
X5799000Y-21867952D01*
X5789476Y-21858429D01*
X5989476Y-21677476D02*
X5989476Y-21715571D01*
X6065667Y-21677476D02*
X6065667Y-21715571D01*
X6360905Y-21953667D02*
X6351381Y-21944143D01*
X6332333Y-21915571D01*
X6322809Y-21896524D01*
X6313286Y-21867952D01*
X6303762Y-21820333D01*
X6303762Y-21782238D01*
X6313286Y-21734619D01*
X6322809Y-21706048D01*
X6332333Y-21687000D01*
X6351381Y-21658429D01*
X6360905Y-21648905D01*
X6522809Y-21677476D02*
X6484714Y-21677476D01*
X6465667Y-21687000D01*
X6456143Y-21696524D01*
X6437095Y-21725095D01*
X6427571Y-21763190D01*
X6427571Y-21839381D01*
X6437095Y-21858429D01*
X6446619Y-21867952D01*
X6465667Y-21877476D01*
X6503762Y-21877476D01*
X6522809Y-21867952D01*
X6532333Y-21858429D01*
X6541857Y-21839381D01*
X6541857Y-21791762D01*
X6532333Y-21772714D01*
X6522809Y-21763190D01*
X6503762Y-21753667D01*
X6465667Y-21753667D01*
X6446619Y-21763190D01*
X6437095Y-21772714D01*
X6427571Y-21791762D01*
X6618048Y-21696524D02*
X6627571Y-21687000D01*
X6646619Y-21677476D01*
X6694238Y-21677476D01*
X6713286Y-21687000D01*
X6722809Y-21696524D01*
X6732333Y-21715571D01*
X6732333Y-21734619D01*
X6722809Y-21763190D01*
X6608524Y-21877476D01*
X6732333Y-21877476D01*
X6970428Y-21877476D02*
X6970428Y-21677476D01*
X7056143Y-21877476D02*
X7056143Y-21772714D01*
X7046619Y-21753667D01*
X7027571Y-21744143D01*
X6999000Y-21744143D01*
X6979952Y-21753667D01*
X6970428Y-21763190D01*
X7179952Y-21877476D02*
X7160905Y-21867952D01*
X7151381Y-21858429D01*
X7141857Y-21839381D01*
X7141857Y-21782238D01*
X7151381Y-21763190D01*
X7160905Y-21753667D01*
X7179952Y-21744143D01*
X7208524Y-21744143D01*
X7227571Y-21753667D01*
X7237095Y-21763190D01*
X7246619Y-21782238D01*
X7246619Y-21839381D01*
X7237095Y-21858429D01*
X7227571Y-21867952D01*
X7208524Y-21877476D01*
X7179952Y-21877476D01*
X7360905Y-21877476D02*
X7341857Y-21867952D01*
X7332333Y-21848905D01*
X7332333Y-21677476D01*
X7513286Y-21867952D02*
X7494238Y-21877476D01*
X7456143Y-21877476D01*
X7437095Y-21867952D01*
X7427571Y-21848905D01*
X7427571Y-21772714D01*
X7437095Y-21753667D01*
X7456143Y-21744143D01*
X7494238Y-21744143D01*
X7513286Y-21753667D01*
X7522809Y-21772714D01*
X7522809Y-21791762D01*
X7427571Y-21810810D01*
X7599000Y-21867952D02*
X7618048Y-21877476D01*
X7656143Y-21877476D01*
X7675190Y-21867952D01*
X7684714Y-21848905D01*
X7684714Y-21839381D01*
X7675190Y-21820333D01*
X7656143Y-21810810D01*
X7627571Y-21810810D01*
X7608524Y-21801286D01*
X7599000Y-21782238D01*
X7599000Y-21772714D01*
X7608524Y-21753667D01*
X7627571Y-21744143D01*
X7656143Y-21744143D01*
X7675190Y-21753667D01*
X7751381Y-21953667D02*
X7760905Y-21944143D01*
X7779952Y-21915571D01*
X7789476Y-21896524D01*
X7799000Y-21867952D01*
X7808524Y-21820333D01*
X7808524Y-21782238D01*
X7799000Y-21734619D01*
X7789476Y-21706048D01*
X7779952Y-21687000D01*
X7760905Y-21658429D01*
X7751381Y-21648905D01*
D19*
X2634000Y-21973500D02*
X2789000Y-22128500D01*
X2789000Y-21973500D02*
X2634000Y-22128500D01*
X2766301Y-22105801D02*
X2766301Y-21996199D01*
X2656699Y-21996199D01*
X2656699Y-22105801D01*
X2766301Y-22105801D01*
D11*
X3151381Y-22141476D02*
X3037095Y-22141476D01*
X3094238Y-22141476D02*
X3094238Y-21941476D01*
X3075190Y-21970048D01*
X3056143Y-21989095D01*
X3037095Y-21998619D01*
X3237095Y-22122429D02*
X3246619Y-22131952D01*
X3237095Y-22141476D01*
X3227571Y-22131952D01*
X3237095Y-22122429D01*
X3237095Y-22141476D01*
X3427571Y-21941476D02*
X3332333Y-21941476D01*
X3322809Y-22036714D01*
X3332333Y-22027190D01*
X3351381Y-22017667D01*
X3399000Y-22017667D01*
X3418048Y-22027190D01*
X3427571Y-22036714D01*
X3437095Y-22055762D01*
X3437095Y-22103381D01*
X3427571Y-22122429D01*
X3418048Y-22131952D01*
X3399000Y-22141476D01*
X3351381Y-22141476D01*
X3332333Y-22131952D01*
X3322809Y-22122429D01*
X3618048Y-21941476D02*
X3522809Y-21941476D01*
X3513286Y-22036714D01*
X3522809Y-22027190D01*
X3541857Y-22017667D01*
X3589476Y-22017667D01*
X3608524Y-22027190D01*
X3618048Y-22036714D01*
X3627571Y-22055762D01*
X3627571Y-22103381D01*
X3618048Y-22122429D01*
X3608524Y-22131952D01*
X3589476Y-22141476D01*
X3541857Y-22141476D01*
X3522809Y-22131952D01*
X3513286Y-22122429D01*
X3751381Y-21941476D02*
X3770428Y-21941476D01*
X3789476Y-21951000D01*
X3799000Y-21960524D01*
X3808524Y-21979571D01*
X3818048Y-22017667D01*
X3818048Y-22065286D01*
X3808524Y-22103381D01*
X3799000Y-22122429D01*
X3789476Y-22131952D01*
X3770428Y-22141476D01*
X3751381Y-22141476D01*
X3732333Y-22131952D01*
X3722809Y-22122429D01*
X3713286Y-22103381D01*
X3703762Y-22065286D01*
X3703762Y-22017667D01*
X3713286Y-21979571D01*
X3722809Y-21960524D01*
X3732333Y-21951000D01*
X3751381Y-21941476D01*
X3903762Y-22141476D02*
X3903762Y-22008143D01*
X3903762Y-22027190D02*
X3913286Y-22017667D01*
X3932333Y-22008143D01*
X3960905Y-22008143D01*
X3979952Y-22017667D01*
X3989476Y-22036714D01*
X3989476Y-22141476D01*
X3989476Y-22036714D02*
X3999000Y-22017667D01*
X4018048Y-22008143D01*
X4046619Y-22008143D01*
X4065667Y-22017667D01*
X4075190Y-22036714D01*
X4075190Y-22141476D01*
X4170428Y-22141476D02*
X4170428Y-22008143D01*
X4170428Y-22027190D02*
X4179952Y-22017667D01*
X4199000Y-22008143D01*
X4227571Y-22008143D01*
X4246619Y-22017667D01*
X4256143Y-22036714D01*
X4256143Y-22141476D01*
X4256143Y-22036714D02*
X4265667Y-22017667D01*
X4284714Y-22008143D01*
X4313286Y-22008143D01*
X4332333Y-22017667D01*
X4341857Y-22036714D01*
X4341857Y-22141476D01*
X4732333Y-21931952D02*
X4560905Y-22189095D01*
X4989476Y-21941476D02*
X5008524Y-21941476D01*
X5027571Y-21951000D01*
X5037095Y-21960524D01*
X5046619Y-21979571D01*
X5056143Y-22017667D01*
X5056143Y-22065286D01*
X5046619Y-22103381D01*
X5037095Y-22122429D01*
X5027571Y-22131952D01*
X5008524Y-22141476D01*
X4989476Y-22141476D01*
X4970429Y-22131952D01*
X4960905Y-22122429D01*
X4951381Y-22103381D01*
X4941857Y-22065286D01*
X4941857Y-22017667D01*
X4951381Y-21979571D01*
X4960905Y-21960524D01*
X4970429Y-21951000D01*
X4989476Y-21941476D01*
X5141857Y-22122429D02*
X5151381Y-22131952D01*
X5141857Y-22141476D01*
X5132333Y-22131952D01*
X5141857Y-22122429D01*
X5141857Y-22141476D01*
X5275190Y-21941476D02*
X5294238Y-21941476D01*
X5313286Y-21951000D01*
X5322810Y-21960524D01*
X5332333Y-21979571D01*
X5341857Y-22017667D01*
X5341857Y-22065286D01*
X5332333Y-22103381D01*
X5322810Y-22122429D01*
X5313286Y-22131952D01*
X5294238Y-22141476D01*
X5275190Y-22141476D01*
X5256143Y-22131952D01*
X5246619Y-22122429D01*
X5237095Y-22103381D01*
X5227571Y-22065286D01*
X5227571Y-22017667D01*
X5237095Y-21979571D01*
X5246619Y-21960524D01*
X5256143Y-21951000D01*
X5275190Y-21941476D01*
X5513286Y-21941476D02*
X5475190Y-21941476D01*
X5456143Y-21951000D01*
X5446619Y-21960524D01*
X5427571Y-21989095D01*
X5418048Y-22027190D01*
X5418048Y-22103381D01*
X5427571Y-22122429D01*
X5437095Y-22131952D01*
X5456143Y-22141476D01*
X5494238Y-22141476D01*
X5513286Y-22131952D01*
X5522810Y-22122429D01*
X5532333Y-22103381D01*
X5532333Y-22055762D01*
X5522810Y-22036714D01*
X5513286Y-22027190D01*
X5494238Y-22017667D01*
X5456143Y-22017667D01*
X5437095Y-22027190D01*
X5427571Y-22036714D01*
X5418048Y-22055762D01*
X5722809Y-22141476D02*
X5608524Y-22141476D01*
X5665667Y-22141476D02*
X5665667Y-21941476D01*
X5646619Y-21970048D01*
X5627571Y-21989095D01*
X5608524Y-21998619D01*
X5846619Y-21941476D02*
X5865667Y-21941476D01*
X5884714Y-21951000D01*
X5894238Y-21960524D01*
X5903762Y-21979571D01*
X5913286Y-22017667D01*
X5913286Y-22065286D01*
X5903762Y-22103381D01*
X5894238Y-22122429D01*
X5884714Y-22131952D01*
X5865667Y-22141476D01*
X5846619Y-22141476D01*
X5827571Y-22131952D01*
X5818048Y-22122429D01*
X5808524Y-22103381D01*
X5799000Y-22065286D01*
X5799000Y-22017667D01*
X5808524Y-21979571D01*
X5818048Y-21960524D01*
X5827571Y-21951000D01*
X5846619Y-21941476D01*
X5989476Y-21941476D02*
X5989476Y-21979571D01*
X6065667Y-21941476D02*
X6065667Y-21979571D01*
X6360905Y-22217667D02*
X6351381Y-22208143D01*
X6332333Y-22179571D01*
X6322809Y-22160524D01*
X6313286Y-22131952D01*
X6303762Y-22084333D01*
X6303762Y-22046238D01*
X6313286Y-21998619D01*
X6322809Y-21970048D01*
X6332333Y-21951000D01*
X6351381Y-21922429D01*
X6360905Y-21912905D01*
X6532333Y-21941476D02*
X6437095Y-21941476D01*
X6427571Y-22036714D01*
X6437095Y-22027190D01*
X6456143Y-22017667D01*
X6503762Y-22017667D01*
X6522809Y-22027190D01*
X6532333Y-22036714D01*
X6541857Y-22055762D01*
X6541857Y-22103381D01*
X6532333Y-22122429D01*
X6522809Y-22131952D01*
X6503762Y-22141476D01*
X6456143Y-22141476D01*
X6437095Y-22131952D01*
X6427571Y-22122429D01*
X6779952Y-22141476D02*
X6779952Y-21941476D01*
X6865667Y-22141476D02*
X6865667Y-22036714D01*
X6856143Y-22017667D01*
X6837095Y-22008143D01*
X6808524Y-22008143D01*
X6789476Y-22017667D01*
X6779952Y-22027190D01*
X6989476Y-22141476D02*
X6970428Y-22131952D01*
X6960905Y-22122429D01*
X6951381Y-22103381D01*
X6951381Y-22046238D01*
X6960905Y-22027190D01*
X6970428Y-22017667D01*
X6989476Y-22008143D01*
X7018048Y-22008143D01*
X7037095Y-22017667D01*
X7046619Y-22027190D01*
X7056143Y-22046238D01*
X7056143Y-22103381D01*
X7046619Y-22122429D01*
X7037095Y-22131952D01*
X7018048Y-22141476D01*
X6989476Y-22141476D01*
X7170428Y-22141476D02*
X7151381Y-22131952D01*
X7141857Y-22112905D01*
X7141857Y-21941476D01*
X7322809Y-22131952D02*
X7303762Y-22141476D01*
X7265667Y-22141476D01*
X7246619Y-22131952D01*
X7237095Y-22112905D01*
X7237095Y-22036714D01*
X7246619Y-22017667D01*
X7265667Y-22008143D01*
X7303762Y-22008143D01*
X7322809Y-22017667D01*
X7332333Y-22036714D01*
X7332333Y-22055762D01*
X7237095Y-22074810D01*
X7408524Y-22131952D02*
X7427571Y-22141476D01*
X7465667Y-22141476D01*
X7484714Y-22131952D01*
X7494238Y-22112905D01*
X7494238Y-22103381D01*
X7484714Y-22084333D01*
X7465667Y-22074810D01*
X7437095Y-22074810D01*
X7418048Y-22065286D01*
X7408524Y-22046238D01*
X7408524Y-22036714D01*
X7418048Y-22017667D01*
X7437095Y-22008143D01*
X7465667Y-22008143D01*
X7484714Y-22017667D01*
X7560905Y-22217667D02*
X7570428Y-22208143D01*
X7589476Y-22179571D01*
X7599000Y-22160524D01*
X7608524Y-22131952D01*
X7618048Y-22084333D01*
X7618048Y-22046238D01*
X7608524Y-21998619D01*
X7599000Y-21970048D01*
X7589476Y-21951000D01*
X7570428Y-21922429D01*
X7560905Y-21912905D01*
X2589000Y-22226000D02*
X2789000Y-22426000D01*
X2789000Y-22226000D02*
X2589000Y-22426000D01*
X2689000Y-22426000D02*
X2789000Y-22326000D01*
X2689000Y-22226000D01*
X2589000Y-22326000D01*
X2689000Y-22426000D01*
X3027571Y-22216476D02*
X3151381Y-22216476D01*
X3084714Y-22292667D01*
X3113286Y-22292667D01*
X3132333Y-22302190D01*
X3141857Y-22311714D01*
X3151381Y-22330762D01*
X3151381Y-22378381D01*
X3141857Y-22397428D01*
X3132333Y-22406952D01*
X3113286Y-22416476D01*
X3056143Y-22416476D01*
X3037095Y-22406952D01*
X3027571Y-22397428D01*
X3237095Y-22397428D02*
X3246619Y-22406952D01*
X3237095Y-22416476D01*
X3227571Y-22406952D01*
X3237095Y-22397428D01*
X3237095Y-22416476D01*
X3322809Y-22235524D02*
X3332333Y-22226000D01*
X3351381Y-22216476D01*
X3399000Y-22216476D01*
X3418048Y-22226000D01*
X3427571Y-22235524D01*
X3437095Y-22254571D01*
X3437095Y-22273619D01*
X3427571Y-22302190D01*
X3313286Y-22416476D01*
X3437095Y-22416476D01*
X3560905Y-22216476D02*
X3579952Y-22216476D01*
X3599000Y-22226000D01*
X3608524Y-22235524D01*
X3618048Y-22254571D01*
X3627571Y-22292667D01*
X3627571Y-22340286D01*
X3618048Y-22378381D01*
X3608524Y-22397428D01*
X3599000Y-22406952D01*
X3579952Y-22416476D01*
X3560905Y-22416476D01*
X3541857Y-22406952D01*
X3532333Y-22397428D01*
X3522809Y-22378381D01*
X3513286Y-22340286D01*
X3513286Y-22292667D01*
X3522809Y-22254571D01*
X3532333Y-22235524D01*
X3541857Y-22226000D01*
X3560905Y-22216476D01*
X3751381Y-22216476D02*
X3770428Y-22216476D01*
X3789476Y-22226000D01*
X3799000Y-22235524D01*
X3808524Y-22254571D01*
X3818048Y-22292667D01*
X3818048Y-22340286D01*
X3808524Y-22378381D01*
X3799000Y-22397428D01*
X3789476Y-22406952D01*
X3770428Y-22416476D01*
X3751381Y-22416476D01*
X3732333Y-22406952D01*
X3722809Y-22397428D01*
X3713286Y-22378381D01*
X3703762Y-22340286D01*
X3703762Y-22292667D01*
X3713286Y-22254571D01*
X3722809Y-22235524D01*
X3732333Y-22226000D01*
X3751381Y-22216476D01*
X3903762Y-22416476D02*
X3903762Y-22283143D01*
X3903762Y-22302190D02*
X3913286Y-22292667D01*
X3932333Y-22283143D01*
X3960905Y-22283143D01*
X3979952Y-22292667D01*
X3989476Y-22311714D01*
X3989476Y-22416476D01*
X3989476Y-22311714D02*
X3999000Y-22292667D01*
X4018048Y-22283143D01*
X4046619Y-22283143D01*
X4065667Y-22292667D01*
X4075190Y-22311714D01*
X4075190Y-22416476D01*
X4170428Y-22416476D02*
X4170428Y-22283143D01*
X4170428Y-22302190D02*
X4179952Y-22292667D01*
X4199000Y-22283143D01*
X4227571Y-22283143D01*
X4246619Y-22292667D01*
X4256143Y-22311714D01*
X4256143Y-22416476D01*
X4256143Y-22311714D02*
X4265667Y-22292667D01*
X4284714Y-22283143D01*
X4313286Y-22283143D01*
X4332333Y-22292667D01*
X4341857Y-22311714D01*
X4341857Y-22416476D01*
X4732333Y-22206952D02*
X4560905Y-22464095D01*
X4989476Y-22216476D02*
X5008524Y-22216476D01*
X5027571Y-22226000D01*
X5037095Y-22235524D01*
X5046619Y-22254571D01*
X5056143Y-22292667D01*
X5056143Y-22340286D01*
X5046619Y-22378381D01*
X5037095Y-22397428D01*
X5027571Y-22406952D01*
X5008524Y-22416476D01*
X4989476Y-22416476D01*
X4970429Y-22406952D01*
X4960905Y-22397428D01*
X4951381Y-22378381D01*
X4941857Y-22340286D01*
X4941857Y-22292667D01*
X4951381Y-22254571D01*
X4960905Y-22235524D01*
X4970429Y-22226000D01*
X4989476Y-22216476D01*
X5141857Y-22397428D02*
X5151381Y-22406952D01*
X5141857Y-22416476D01*
X5132333Y-22406952D01*
X5141857Y-22397428D01*
X5141857Y-22416476D01*
X5341857Y-22416476D02*
X5227571Y-22416476D01*
X5284714Y-22416476D02*
X5284714Y-22216476D01*
X5265667Y-22245048D01*
X5246619Y-22264095D01*
X5227571Y-22273619D01*
X5418048Y-22235524D02*
X5427571Y-22226000D01*
X5446619Y-22216476D01*
X5494238Y-22216476D01*
X5513286Y-22226000D01*
X5522810Y-22235524D01*
X5532333Y-22254571D01*
X5532333Y-22273619D01*
X5522810Y-22302190D01*
X5408524Y-22416476D01*
X5532333Y-22416476D01*
X5703762Y-22216476D02*
X5665667Y-22216476D01*
X5646619Y-22226000D01*
X5637095Y-22235524D01*
X5618048Y-22264095D01*
X5608524Y-22302190D01*
X5608524Y-22378381D01*
X5618048Y-22397428D01*
X5627571Y-22406952D01*
X5646619Y-22416476D01*
X5684714Y-22416476D01*
X5703762Y-22406952D01*
X5713286Y-22397428D01*
X5722809Y-22378381D01*
X5722809Y-22330762D01*
X5713286Y-22311714D01*
X5703762Y-22302190D01*
X5684714Y-22292667D01*
X5646619Y-22292667D01*
X5627571Y-22302190D01*
X5618048Y-22311714D01*
X5608524Y-22330762D01*
X5846619Y-22216476D02*
X5865667Y-22216476D01*
X5884714Y-22226000D01*
X5894238Y-22235524D01*
X5903762Y-22254571D01*
X5913286Y-22292667D01*
X5913286Y-22340286D01*
X5903762Y-22378381D01*
X5894238Y-22397428D01*
X5884714Y-22406952D01*
X5865667Y-22416476D01*
X5846619Y-22416476D01*
X5827571Y-22406952D01*
X5818048Y-22397428D01*
X5808524Y-22378381D01*
X5799000Y-22340286D01*
X5799000Y-22292667D01*
X5808524Y-22254571D01*
X5818048Y-22235524D01*
X5827571Y-22226000D01*
X5846619Y-22216476D01*
X5989476Y-22216476D02*
X5989476Y-22254571D01*
X6065667Y-22216476D02*
X6065667Y-22254571D01*
X6360905Y-22492667D02*
X6351381Y-22483143D01*
X6332333Y-22454571D01*
X6322809Y-22435524D01*
X6313286Y-22406952D01*
X6303762Y-22359333D01*
X6303762Y-22321238D01*
X6313286Y-22273619D01*
X6322809Y-22245048D01*
X6332333Y-22226000D01*
X6351381Y-22197429D01*
X6360905Y-22187905D01*
X6522809Y-22283143D02*
X6522809Y-22416476D01*
X6475190Y-22206952D02*
X6427571Y-22349810D01*
X6551381Y-22349810D01*
X6779952Y-22416476D02*
X6779952Y-22216476D01*
X6865667Y-22416476D02*
X6865667Y-22311714D01*
X6856143Y-22292667D01*
X6837095Y-22283143D01*
X6808524Y-22283143D01*
X6789476Y-22292667D01*
X6779952Y-22302190D01*
X6989476Y-22416476D02*
X6970428Y-22406952D01*
X6960905Y-22397428D01*
X6951381Y-22378381D01*
X6951381Y-22321238D01*
X6960905Y-22302190D01*
X6970428Y-22292667D01*
X6989476Y-22283143D01*
X7018048Y-22283143D01*
X7037095Y-22292667D01*
X7046619Y-22302190D01*
X7056143Y-22321238D01*
X7056143Y-22378381D01*
X7046619Y-22397428D01*
X7037095Y-22406952D01*
X7018048Y-22416476D01*
X6989476Y-22416476D01*
X7170428Y-22416476D02*
X7151381Y-22406952D01*
X7141857Y-22387905D01*
X7141857Y-22216476D01*
X7322809Y-22406952D02*
X7303762Y-22416476D01*
X7265667Y-22416476D01*
X7246619Y-22406952D01*
X7237095Y-22387905D01*
X7237095Y-22311714D01*
X7246619Y-22292667D01*
X7265667Y-22283143D01*
X7303762Y-22283143D01*
X7322809Y-22292667D01*
X7332333Y-22311714D01*
X7332333Y-22330762D01*
X7237095Y-22349810D01*
X7408524Y-22406952D02*
X7427571Y-22416476D01*
X7465667Y-22416476D01*
X7484714Y-22406952D01*
X7494238Y-22387905D01*
X7494238Y-22378381D01*
X7484714Y-22359333D01*
X7465667Y-22349810D01*
X7437095Y-22349810D01*
X7418048Y-22340286D01*
X7408524Y-22321238D01*
X7408524Y-22311714D01*
X7418048Y-22292667D01*
X7437095Y-22283143D01*
X7465667Y-22283143D01*
X7484714Y-22292667D01*
X7560905Y-22492667D02*
X7570428Y-22483143D01*
X7589476Y-22454571D01*
X7599000Y-22435524D01*
X7608524Y-22406952D01*
X7618048Y-22359333D01*
X7618048Y-22321238D01*
X7608524Y-22273619D01*
X7599000Y-22245048D01*
X7589476Y-22226000D01*
X7570428Y-22197429D01*
X7560905Y-22187905D01*
M02*
