%TF.GenerationSoftware,KiCad,Pcbnew,(6.0.2)*%
%TF.CreationDate,2022-04-29T17:00:25+02:00*%
%TF.ProjectId,Kniffel_V1,4b6e6966-6665-46c5-9f56-312e6b696361,rev?*%
%TF.SameCoordinates,Original*%
%TF.FileFunction,Copper,L2,Bot*%
%TF.FilePolarity,Positive*%
%FSLAX46Y46*%
G04 Gerber Fmt 4.6, Leading zero omitted, Abs format (unit mm)*
G04 Created by KiCad (PCBNEW (6.0.2)) date 2022-04-29 17:00:25*
%MOMM*%
%LPD*%
G01*
G04 APERTURE LIST*
G04 Aperture macros list*
%AMRoundRect*
0 Rectangle with rounded corners*
0 $1 Rounding radius*
0 $2 $3 $4 $5 $6 $7 $8 $9 X,Y pos of 4 corners*
0 Add a 4 corners polygon primitive as box body*
4,1,4,$2,$3,$4,$5,$6,$7,$8,$9,$2,$3,0*
0 Add four circle primitives for the rounded corners*
1,1,$1+$1,$2,$3*
1,1,$1+$1,$4,$5*
1,1,$1+$1,$6,$7*
1,1,$1+$1,$8,$9*
0 Add four rect primitives between the rounded corners*
20,1,$1+$1,$2,$3,$4,$5,0*
20,1,$1+$1,$4,$5,$6,$7,0*
20,1,$1+$1,$6,$7,$8,$9,0*
20,1,$1+$1,$8,$9,$2,$3,0*%
G04 Aperture macros list end*
%TA.AperFunction,ComponentPad*%
%ADD10C,5.600000*%
%TD*%
%TA.AperFunction,ComponentPad*%
%ADD11C,1.600000*%
%TD*%
%TA.AperFunction,ComponentPad*%
%ADD12O,1.600000X1.600000*%
%TD*%
%TA.AperFunction,ComponentPad*%
%ADD13RoundRect,0.250002X-1.499998X-1.499998X1.499998X-1.499998X1.499998X1.499998X-1.499998X1.499998X0*%
%TD*%
%TA.AperFunction,ComponentPad*%
%ADD14R,1.130000X1.130000*%
%TD*%
%TA.AperFunction,ComponentPad*%
%ADD15C,1.130000*%
%TD*%
%TA.AperFunction,ComponentPad*%
%ADD16RoundRect,0.250001X-0.799999X0.799999X-0.799999X-0.799999X0.799999X-0.799999X0.799999X0.799999X0*%
%TD*%
%TA.AperFunction,ComponentPad*%
%ADD17C,2.100000*%
%TD*%
%TA.AperFunction,ComponentPad*%
%ADD18R,2.400000X1.600000*%
%TD*%
%TA.AperFunction,ComponentPad*%
%ADD19O,2.400000X1.600000*%
%TD*%
%TA.AperFunction,ComponentPad*%
%ADD20R,2.200000X2.200000*%
%TD*%
%TA.AperFunction,ComponentPad*%
%ADD21O,2.200000X2.200000*%
%TD*%
%TA.AperFunction,ComponentPad*%
%ADD22R,1.600000X1.600000*%
%TD*%
%TA.AperFunction,ComponentPad*%
%ADD23C,1.200000*%
%TD*%
%TA.AperFunction,ComponentPad*%
%ADD24RoundRect,0.249999X-1.025001X-1.025001X1.025001X-1.025001X1.025001X1.025001X-1.025001X1.025001X0*%
%TD*%
%TA.AperFunction,ComponentPad*%
%ADD25C,2.550000*%
%TD*%
%TA.AperFunction,ComponentPad*%
%ADD26RoundRect,0.250001X-0.799999X-0.799999X0.799999X-0.799999X0.799999X0.799999X-0.799999X0.799999X0*%
%TD*%
%TA.AperFunction,ComponentPad*%
%ADD27RoundRect,0.250001X0.799999X0.799999X-0.799999X0.799999X-0.799999X-0.799999X0.799999X-0.799999X0*%
%TD*%
%TA.AperFunction,ComponentPad*%
%ADD28R,1.150000X1.150000*%
%TD*%
%TA.AperFunction,ComponentPad*%
%ADD29C,1.150000*%
%TD*%
%TA.AperFunction,ComponentPad*%
%ADD30R,1.500000X2.300000*%
%TD*%
%TA.AperFunction,ComponentPad*%
%ADD31O,1.500000X2.300000*%
%TD*%
%TA.AperFunction,ComponentPad*%
%ADD32RoundRect,0.250001X0.799999X-0.799999X0.799999X0.799999X-0.799999X0.799999X-0.799999X-0.799999X0*%
%TD*%
%TA.AperFunction,ComponentPad*%
%ADD33R,1.275000X1.275000*%
%TD*%
%TA.AperFunction,ComponentPad*%
%ADD34C,1.275000*%
%TD*%
%TA.AperFunction,ComponentPad*%
%ADD35R,1.500000X1.500000*%
%TD*%
%TA.AperFunction,ComponentPad*%
%ADD36C,1.500000*%
%TD*%
%TA.AperFunction,Conductor*%
%ADD37C,0.500000*%
%TD*%
%TA.AperFunction,Conductor*%
%ADD38C,0.250000*%
%TD*%
G04 APERTURE END LIST*
D10*
%TO.P,REF2,1*%
%TO.N,N/C*%
X282500000Y-26500000D03*
%TD*%
%TO.P,REF1,1*%
%TO.N,N/C*%
X34000000Y-26000000D03*
%TD*%
%TO.P,REF4,1*%
%TO.N,N/C*%
X33000000Y-191000000D03*
%TD*%
%TO.P,REF3,1*%
%TO.N,N/C*%
X283500000Y-189000000D03*
%TD*%
D11*
%TO.P,R50,1*%
%TO.N,Net-(R50-Pad1)*%
X198120000Y-116840000D03*
D12*
%TO.P,R50,2*%
%TO.N,Net-(DS4-Pad1)*%
X198120000Y-106680000D03*
%TD*%
D11*
%TO.P,R47,1*%
%TO.N,Net-(R47-Pad1)*%
X165100000Y-116840000D03*
D12*
%TO.P,R47,2*%
%TO.N,Net-(DS3-Pad9)*%
X165100000Y-106680000D03*
%TD*%
D11*
%TO.P,R37,1*%
%TO.N,Net-(R37-Pad1)*%
X91440000Y-116840000D03*
D12*
%TO.P,R37,2*%
%TO.N,Net-(DS2-Pad5)*%
X91440000Y-106680000D03*
%TD*%
D13*
%TO.P,J1,1,Pin_1*%
%TO.N,Net-(D1-Pad2)*%
X228600000Y-180340000D03*
%TD*%
D11*
%TO.P,R18,1*%
%TO.N,+5V*%
X205740000Y-157480000D03*
D12*
%TO.P,R18,2*%
%TO.N,Net-(R18-Pad2)*%
X205740000Y-147320000D03*
%TD*%
D11*
%TO.P,R35,1*%
%TO.N,Net-(R35-Pad1)*%
X104140000Y-116840000D03*
D12*
%TO.P,R35,2*%
%TO.N,Net-(DS2-Pad2)*%
X104140000Y-106680000D03*
%TD*%
D14*
%TO.P,IC3,1,B_1*%
%TO.N,Net-(D6-Pad2)*%
X87470000Y-123190000D03*
D15*
%TO.P,IC3,2,C_1*%
%TO.N,Net-(D7-Pad2)*%
X87470000Y-125730000D03*
%TO.P,IC3,3,~{LT}*%
%TO.N,+5V*%
X87470000Y-128270000D03*
%TO.P,IC3,4,~{BL}*%
X87470000Y-130810000D03*
%TO.P,IC3,5,LE/~{STROBE}*%
%TO.N,/Dice1/D2Latch*%
X87470000Y-133350000D03*
%TO.P,IC3,6,D_1*%
%TO.N,GND*%
X87470000Y-135890000D03*
%TO.P,IC3,7,A_1*%
%TO.N,Net-(D5-Pad2)*%
X87470000Y-138430000D03*
%TO.P,IC3,8,VSS*%
%TO.N,GND*%
X87470000Y-140970000D03*
%TO.P,IC3,9,E*%
%TO.N,Net-(IC3-Pad9)*%
X95410000Y-140970000D03*
%TO.P,IC3,10,D_2*%
%TO.N,Net-(IC3-Pad10)*%
X95410000Y-138430000D03*
%TO.P,IC3,11,C_2*%
%TO.N,Net-(IC3-Pad11)*%
X95410000Y-135890000D03*
%TO.P,IC3,12,B_2*%
%TO.N,Net-(IC3-Pad12)*%
X95410000Y-133350000D03*
%TO.P,IC3,13,A_2*%
%TO.N,Net-(IC3-Pad13)*%
X95410000Y-130810000D03*
%TO.P,IC3,14,G*%
%TO.N,Net-(IC3-Pad14)*%
X95410000Y-128270000D03*
%TO.P,IC3,15,F*%
%TO.N,Net-(IC3-Pad15)*%
X95410000Y-125730000D03*
%TO.P,IC3,16,VDD*%
%TO.N,+5V*%
X95410000Y-123190000D03*
%TD*%
D16*
%TO.P,J6,1,Pin_1*%
%TO.N,+10V*%
X246380000Y-182880000D03*
D17*
%TO.P,J6,2,Pin_2*%
%TO.N,GND*%
X246380000Y-187480000D03*
%TD*%
D11*
%TO.P,R10,1*%
%TO.N,/Dice1/D2*%
X101600000Y-157480000D03*
D12*
%TO.P,R10,2*%
%TO.N,GND*%
X101600000Y-147320000D03*
%TD*%
D18*
%TO.P,U17,1,I1*%
%TO.N,Net-(IC3-Pad15)*%
X100315000Y-121930000D03*
D19*
%TO.P,U17,2,I2*%
%TO.N,Net-(IC3-Pad14)*%
X100315000Y-124470000D03*
%TO.P,U17,3,I3*%
%TO.N,Net-(IC3-Pad13)*%
X100315000Y-127010000D03*
%TO.P,U17,4,I4*%
%TO.N,Net-(IC3-Pad12)*%
X100315000Y-129550000D03*
%TO.P,U17,5,I5*%
%TO.N,Net-(IC3-Pad11)*%
X100315000Y-132090000D03*
%TO.P,U17,6,I6*%
%TO.N,Net-(IC3-Pad10)*%
X100315000Y-134630000D03*
%TO.P,U17,7,I7*%
%TO.N,Net-(IC3-Pad9)*%
X100315000Y-137170000D03*
%TO.P,U17,8,I8*%
%TO.N,/Dice1/D2Q*%
X100315000Y-139710000D03*
%TO.P,U17,9,GND*%
%TO.N,GND*%
X100315000Y-142250000D03*
%TO.P,U17,10,COM*%
%TO.N,unconnected-(U17-Pad10)*%
X107935000Y-142250000D03*
%TO.P,U17,11,O8*%
%TO.N,Net-(R37-Pad1)*%
X107935000Y-139710000D03*
%TO.P,U17,12,O7*%
%TO.N,Net-(R34-Pad1)*%
X107935000Y-137170000D03*
%TO.P,U17,13,O6*%
%TO.N,Net-(R35-Pad1)*%
X107935000Y-134630000D03*
%TO.P,U17,14,O5*%
%TO.N,Net-(R36-Pad1)*%
X107935000Y-132090000D03*
%TO.P,U17,15,O4*%
%TO.N,Net-(R41-Pad1)*%
X107935000Y-129550000D03*
%TO.P,U17,16,O3*%
%TO.N,Net-(R40-Pad1)*%
X107935000Y-127010000D03*
%TO.P,U17,17,O2*%
%TO.N,Net-(R38-Pad1)*%
X107935000Y-124470000D03*
%TO.P,U17,18,O1*%
%TO.N,Net-(R39-Pad1)*%
X107935000Y-121930000D03*
%TD*%
D16*
%TO.P,J5,1,Pin_1*%
%TO.N,+5V*%
X238760000Y-182880000D03*
D17*
%TO.P,J5,2,Pin_2*%
%TO.N,GND*%
X238760000Y-187480000D03*
%TD*%
D11*
%TO.P,R25,1*%
%TO.N,Net-(D14-Pad1)*%
X274320000Y-144780000D03*
D12*
%TO.P,R25,2*%
%TO.N,GND*%
X284480000Y-144780000D03*
%TD*%
D11*
%TO.P,R4,1*%
%TO.N,Net-(R3-Pad2)*%
X58420000Y-157480000D03*
D12*
%TO.P,R4,2*%
%TO.N,Net-(C4-Pad1)*%
X68580000Y-157480000D03*
%TD*%
D11*
%TO.P,R28,1*%
%TO.N,Net-(J7-Pad2)*%
X144780000Y-180340000D03*
D12*
%TO.P,R28,2*%
%TO.N,GND*%
X154940000Y-180340000D03*
%TD*%
D11*
%TO.P,R42,1*%
%TO.N,Net-(R42-Pad1)*%
X144780000Y-116840000D03*
D12*
%TO.P,R42,2*%
%TO.N,Net-(DS3-Pad1)*%
X144780000Y-106680000D03*
%TD*%
D11*
%TO.P,R60,1*%
%TO.N,Net-(R60-Pad1)*%
X238760000Y-116840000D03*
D12*
%TO.P,R60,2*%
%TO.N,Net-(DS5-Pad5)*%
X238760000Y-106680000D03*
%TD*%
D11*
%TO.P,R15,1*%
%TO.N,/Dice1/D3*%
X154940000Y-144780000D03*
D12*
%TO.P,R15,2*%
%TO.N,GND*%
X165100000Y-144780000D03*
%TD*%
D11*
%TO.P,R11,1*%
%TO.N,Net-(R11-Pad1)*%
X66040000Y-116840000D03*
D12*
%TO.P,R11,2*%
%TO.N,Net-(DS1-Pad1)*%
X66040000Y-106680000D03*
%TD*%
D11*
%TO.P,R20,1*%
%TO.N,/Dice1/D4*%
X213360000Y-132080000D03*
D12*
%TO.P,R20,2*%
%TO.N,GND*%
X223520000Y-132080000D03*
%TD*%
D11*
%TO.P,R3,1*%
%TO.N,+5V*%
X58420000Y-149860000D03*
D12*
%TO.P,R3,2*%
%TO.N,Net-(R3-Pad2)*%
X68580000Y-149860000D03*
%TD*%
D20*
%TO.P,D18,1,K*%
%TO.N,Net-(D17-Pad2)*%
X114300000Y-182880000D03*
D21*
%TO.P,D18,2,A*%
%TO.N,Net-(D18-Pad2)*%
X124460000Y-182880000D03*
%TD*%
D14*
%TO.P,IC5,1,B_1*%
%TO.N,Net-(D9-Pad2)*%
X130650000Y-123190000D03*
D15*
%TO.P,IC5,2,C_1*%
%TO.N,Net-(D10-Pad2)*%
X130650000Y-125730000D03*
%TO.P,IC5,3,~{LT}*%
%TO.N,+5V*%
X130650000Y-128270000D03*
%TO.P,IC5,4,~{BL}*%
X130650000Y-130810000D03*
%TO.P,IC5,5,LE/~{STROBE}*%
%TO.N,/Dice1/D3Latch*%
X130650000Y-133350000D03*
%TO.P,IC5,6,D_1*%
%TO.N,GND*%
X130650000Y-135890000D03*
%TO.P,IC5,7,A_1*%
%TO.N,Net-(D8-Pad2)*%
X130650000Y-138430000D03*
%TO.P,IC5,8,VSS*%
%TO.N,GND*%
X130650000Y-140970000D03*
%TO.P,IC5,9,E*%
%TO.N,Net-(IC5-Pad9)*%
X138590000Y-140970000D03*
%TO.P,IC5,10,D_2*%
%TO.N,Net-(IC5-Pad10)*%
X138590000Y-138430000D03*
%TO.P,IC5,11,C_2*%
%TO.N,Net-(IC5-Pad11)*%
X138590000Y-135890000D03*
%TO.P,IC5,12,B_2*%
%TO.N,Net-(IC5-Pad12)*%
X138590000Y-133350000D03*
%TO.P,IC5,13,A_2*%
%TO.N,Net-(IC5-Pad13)*%
X138590000Y-130810000D03*
%TO.P,IC5,14,G*%
%TO.N,Net-(IC5-Pad14)*%
X138590000Y-128270000D03*
%TO.P,IC5,15,F*%
%TO.N,Net-(IC5-Pad15)*%
X138590000Y-125730000D03*
%TO.P,IC5,16,VDD*%
%TO.N,+5V*%
X138590000Y-123190000D03*
%TD*%
D22*
%TO.P,U6,1,GND*%
%TO.N,GND*%
X115580000Y-148600000D03*
D12*
%TO.P,U6,2,TR*%
%TO.N,Net-(C6-Pad1)*%
X115580000Y-151140000D03*
%TO.P,U6,3,Q*%
%TO.N,Net-(U6-Pad3)*%
X115580000Y-153680000D03*
%TO.P,U6,4,R*%
%TO.N,+5V*%
X115580000Y-156220000D03*
%TO.P,U6,5,CV*%
%TO.N,Net-(C5-Pad1)*%
X123200000Y-156220000D03*
%TO.P,U6,6,THR*%
%TO.N,Net-(C6-Pad1)*%
X123200000Y-153680000D03*
%TO.P,U6,7,DIS*%
%TO.N,Net-(R8-Pad2)*%
X123200000Y-151140000D03*
%TO.P,U6,8,VCC*%
%TO.N,+5V*%
X123200000Y-148600000D03*
%TD*%
D23*
%TO.P,C3,1*%
%TO.N,Net-(C3-Pad1)*%
X66040000Y-167640000D03*
%TO.P,C3,2*%
%TO.N,GND*%
X71040000Y-167640000D03*
%TD*%
D11*
%TO.P,R2,1*%
%TO.N,Net-(IC1-Pad3)*%
X53340000Y-190500000D03*
D12*
%TO.P,R2,2*%
%TO.N,GND*%
X63500000Y-190500000D03*
%TD*%
D20*
%TO.P,D11,1,K*%
%TO.N,/Dice1/D4*%
X185420000Y-147320000D03*
D21*
%TO.P,D11,2,A*%
%TO.N,Net-(D11-Pad2)*%
X195580000Y-147320000D03*
%TD*%
D14*
%TO.P,IC8,1,B_1*%
%TO.N,Net-(D15-Pad2)*%
X237330000Y-120650000D03*
D15*
%TO.P,IC8,2,C_1*%
%TO.N,Net-(D16-Pad2)*%
X237330000Y-123190000D03*
%TO.P,IC8,3,~{LT}*%
%TO.N,+5V*%
X237330000Y-125730000D03*
%TO.P,IC8,4,~{BL}*%
X237330000Y-128270000D03*
%TO.P,IC8,5,LE/~{STROBE}*%
%TO.N,D5 Latch*%
X237330000Y-130810000D03*
%TO.P,IC8,6,D_1*%
%TO.N,GND*%
X237330000Y-133350000D03*
%TO.P,IC8,7,A_1*%
%TO.N,Net-(D14-Pad2)*%
X237330000Y-135890000D03*
%TO.P,IC8,8,VSS*%
%TO.N,GND*%
X237330000Y-138430000D03*
%TO.P,IC8,9,E*%
%TO.N,Net-(IC8-Pad9)*%
X245270000Y-138430000D03*
%TO.P,IC8,10,D_2*%
%TO.N,Net-(IC8-Pad10)*%
X245270000Y-135890000D03*
%TO.P,IC8,11,C_2*%
%TO.N,Net-(IC8-Pad11)*%
X245270000Y-133350000D03*
%TO.P,IC8,12,B_2*%
%TO.N,Net-(IC8-Pad12)*%
X245270000Y-130810000D03*
%TO.P,IC8,13,A_2*%
%TO.N,Net-(IC8-Pad13)*%
X245270000Y-128270000D03*
%TO.P,IC8,14,G*%
%TO.N,Net-(IC8-Pad14)*%
X245270000Y-125730000D03*
%TO.P,IC8,15,F*%
%TO.N,Net-(IC8-Pad15)*%
X245270000Y-123190000D03*
%TO.P,IC8,16,VDD*%
%TO.N,+5V*%
X245270000Y-120650000D03*
%TD*%
D11*
%TO.P,R54,1*%
%TO.N,Net-(R54-Pad1)*%
X213360000Y-116840000D03*
D12*
%TO.P,R54,2*%
%TO.N,Net-(DS4-Pad10)*%
X213360000Y-106680000D03*
%TD*%
D20*
%TO.P,D1,1,K*%
%TO.N,Net-(C1-Pad1)*%
X269240000Y-162560000D03*
D21*
%TO.P,D1,2,A*%
%TO.N,Net-(D1-Pad2)*%
X269240000Y-172720000D03*
%TD*%
D14*
%TO.P,IC2,1,B_1*%
%TO.N,Net-(D3-Pad2)*%
X31590000Y-123190000D03*
D15*
%TO.P,IC2,2,C_1*%
%TO.N,Net-(D4-Pad2)*%
X31590000Y-125730000D03*
%TO.P,IC2,3,~{LT}*%
%TO.N,+5V*%
X31590000Y-128270000D03*
%TO.P,IC2,4,~{BL}*%
X31590000Y-130810000D03*
%TO.P,IC2,5,LE/~{STROBE}*%
%TO.N,Net-(IC2-Pad5)*%
X31590000Y-133350000D03*
%TO.P,IC2,6,D_1*%
%TO.N,GND*%
X31590000Y-135890000D03*
%TO.P,IC2,7,A_1*%
%TO.N,Net-(D2-Pad2)*%
X31590000Y-138430000D03*
%TO.P,IC2,8,VSS*%
%TO.N,GND*%
X31590000Y-140970000D03*
%TO.P,IC2,9,E*%
%TO.N,Net-(IC2-Pad9)*%
X39530000Y-140970000D03*
%TO.P,IC2,10,D_2*%
%TO.N,Net-(IC2-Pad10)*%
X39530000Y-138430000D03*
%TO.P,IC2,11,C_2*%
%TO.N,Net-(IC2-Pad11)*%
X39530000Y-135890000D03*
%TO.P,IC2,12,B_2*%
%TO.N,Net-(IC2-Pad12)*%
X39530000Y-133350000D03*
%TO.P,IC2,13,A_2*%
%TO.N,Net-(IC2-Pad13)*%
X39530000Y-130810000D03*
%TO.P,IC2,14,G*%
%TO.N,Net-(IC2-Pad14)*%
X39530000Y-128270000D03*
%TO.P,IC2,15,F*%
%TO.N,Net-(IC2-Pad15)*%
X39530000Y-125730000D03*
%TO.P,IC2,16,VDD*%
%TO.N,+5V*%
X39530000Y-123190000D03*
%TD*%
D20*
%TO.P,D3,1,K*%
%TO.N,Net-(D2-Pad1)*%
X30480000Y-160020000D03*
D21*
%TO.P,D3,2,A*%
%TO.N,Net-(D3-Pad2)*%
X40640000Y-160020000D03*
%TD*%
D22*
%TO.P,U10,1,GND*%
%TO.N,GND*%
X222260000Y-148600000D03*
D12*
%TO.P,U10,2,TR*%
%TO.N,Net-(C10-Pad1)*%
X222260000Y-151140000D03*
%TO.P,U10,3,Q*%
%TO.N,Net-(U10-Pad3)*%
X222260000Y-153680000D03*
%TO.P,U10,4,R*%
%TO.N,+5V*%
X222260000Y-156220000D03*
%TO.P,U10,5,CV*%
%TO.N,Net-(C9-Pad1)*%
X229880000Y-156220000D03*
%TO.P,U10,6,THR*%
%TO.N,Net-(C10-Pad1)*%
X229880000Y-153680000D03*
%TO.P,U10,7,DIS*%
%TO.N,Net-(R18-Pad2)*%
X229880000Y-151140000D03*
%TO.P,U10,8,VCC*%
%TO.N,+5V*%
X229880000Y-148600000D03*
%TD*%
D24*
%TO.P,J4,1,Pin_1*%
%TO.N,Net-(C2-Pad1)*%
X264720000Y-187960000D03*
D25*
%TO.P,J4,2,Pin_2*%
%TO.N,+5V*%
X269520000Y-187960000D03*
%TO.P,J4,3,Pin_3*%
%TO.N,Net-(J3-Pad1)*%
X274320000Y-187960000D03*
%TD*%
D23*
%TO.P,C11,1*%
%TO.N,Net-(C11-Pad1)*%
X264160000Y-152400000D03*
%TO.P,C11,2*%
%TO.N,GND*%
X269160000Y-152400000D03*
%TD*%
D26*
%TO.P,J7,1,Pin_1*%
%TO.N,Net-(D17-Pad1)*%
X145260000Y-187960000D03*
D17*
%TO.P,J7,2,Pin_2*%
%TO.N,Net-(J7-Pad2)*%
X149860000Y-187960000D03*
%TD*%
D11*
%TO.P,R26,1*%
%TO.N,Net-(R26-Pad1)*%
X50800000Y-116840000D03*
D12*
%TO.P,R26,2*%
%TO.N,Net-(DS1-Pad10)*%
X50800000Y-106680000D03*
%TD*%
D27*
%TO.P,J11,1,Pin_1*%
%TO.N,+5V*%
X66040000Y-121920000D03*
D17*
%TO.P,J11,2,Pin_2*%
%TO.N,Net-(IC1-Pad3)*%
X61440000Y-121920000D03*
%TD*%
D20*
%TO.P,D10,1,K*%
%TO.N,/Dice1/D3*%
X134620000Y-157480000D03*
D21*
%TO.P,D10,2,A*%
%TO.N,Net-(D10-Pad2)*%
X144780000Y-157480000D03*
%TD*%
D14*
%TO.P,U7,1,PE*%
%TO.N,/Dice1/D2R*%
X82550000Y-171610000D03*
D15*
%TO.P,U7,2,Q4*%
%TO.N,unconnected-(U7-Pad2)*%
X85090000Y-171610000D03*
%TO.P,U7,3,J4*%
%TO.N,GND*%
X87630000Y-171610000D03*
%TO.P,U7,4,J1*%
X90170000Y-171610000D03*
%TO.P,U7,5,Cin*%
X92710000Y-171610000D03*
%TO.P,U7,6,Q1*%
%TO.N,Net-(D5-Pad2)*%
X95250000Y-171610000D03*
%TO.P,U7,7,Cout*%
%TO.N,unconnected-(U7-Pad7)*%
X97790000Y-171610000D03*
%TO.P,U7,8,VSS*%
%TO.N,GND*%
X100330000Y-171610000D03*
%TO.P,U7,9,B/D*%
%TO.N,+5V*%
X100330000Y-163670000D03*
%TO.P,U7,10,U/D*%
%TO.N,GND*%
X97790000Y-163670000D03*
%TO.P,U7,11,Q2*%
%TO.N,Net-(D6-Pad2)*%
X95250000Y-163670000D03*
%TO.P,U7,12,J2*%
%TO.N,+5V*%
X92710000Y-163670000D03*
%TO.P,U7,13,J3*%
X90170000Y-163670000D03*
%TO.P,U7,14,Q3*%
%TO.N,Net-(D7-Pad2)*%
X87630000Y-163670000D03*
%TO.P,U7,15,CK*%
%TO.N,Net-(U6-Pad3)*%
X85090000Y-163670000D03*
%TO.P,U7,16,VDD*%
%TO.N,+5V*%
X82550000Y-163670000D03*
%TD*%
D20*
%TO.P,D7,1,K*%
%TO.N,/Dice1/D2*%
X83820000Y-157480000D03*
D21*
%TO.P,D7,2,A*%
%TO.N,Net-(D7-Pad2)*%
X93980000Y-157480000D03*
%TD*%
D11*
%TO.P,R34,1*%
%TO.N,Net-(R34-Pad1)*%
X99060000Y-116840000D03*
D12*
%TO.P,R34,2*%
%TO.N,Net-(DS2-Pad1)*%
X99060000Y-106680000D03*
%TD*%
D26*
%TO.P,J10,1,Pin_1*%
%TO.N,+5V*%
X86840000Y-190500000D03*
D17*
%TO.P,J10,2,Pin_2*%
%TO.N,/Dice1/Roll*%
X91440000Y-190500000D03*
%TD*%
D18*
%TO.P,U19,1,I1*%
%TO.N,Net-(IC6-Pad15)*%
X201915000Y-121930000D03*
D19*
%TO.P,U19,2,I2*%
%TO.N,Net-(IC6-Pad14)*%
X201915000Y-124470000D03*
%TO.P,U19,3,I3*%
%TO.N,Net-(IC6-Pad13)*%
X201915000Y-127010000D03*
%TO.P,U19,4,I4*%
%TO.N,Net-(IC6-Pad12)*%
X201915000Y-129550000D03*
%TO.P,U19,5,I5*%
%TO.N,Net-(IC6-Pad11)*%
X201915000Y-132090000D03*
%TO.P,U19,6,I6*%
%TO.N,Net-(IC6-Pad10)*%
X201915000Y-134630000D03*
%TO.P,U19,7,I7*%
%TO.N,Net-(IC6-Pad9)*%
X201915000Y-137170000D03*
%TO.P,U19,8,I8*%
%TO.N,/Dice3/D4Q*%
X201915000Y-139710000D03*
%TO.P,U19,9,GND*%
%TO.N,GND*%
X201915000Y-142250000D03*
%TO.P,U19,10,COM*%
%TO.N,unconnected-(U19-Pad10)*%
X209535000Y-142250000D03*
%TO.P,U19,11,O8*%
%TO.N,Net-(R53-Pad1)*%
X209535000Y-139710000D03*
%TO.P,U19,12,O7*%
%TO.N,Net-(R50-Pad1)*%
X209535000Y-137170000D03*
%TO.P,U19,13,O6*%
%TO.N,Net-(R51-Pad1)*%
X209535000Y-134630000D03*
%TO.P,U19,14,O5*%
%TO.N,Net-(R52-Pad1)*%
X209535000Y-132090000D03*
%TO.P,U19,15,O4*%
%TO.N,Net-(R57-Pad1)*%
X209535000Y-129550000D03*
%TO.P,U19,16,O3*%
%TO.N,Net-(R56-Pad1)*%
X209535000Y-127010000D03*
%TO.P,U19,17,O2*%
%TO.N,Net-(R54-Pad1)*%
X209535000Y-124470000D03*
%TO.P,U19,18,O1*%
%TO.N,Net-(R55-Pad1)*%
X209535000Y-121930000D03*
%TD*%
D11*
%TO.P,R41,1*%
%TO.N,Net-(R41-Pad1)*%
X129540000Y-116840000D03*
D12*
%TO.P,R41,2*%
%TO.N,Net-(DS2-Pad6)*%
X129540000Y-106680000D03*
%TD*%
D11*
%TO.P,R38,1*%
%TO.N,Net-(R38-Pad1)*%
X114300000Y-116840000D03*
D12*
%TO.P,R38,2*%
%TO.N,Net-(DS2-Pad10)*%
X114300000Y-106680000D03*
%TD*%
D14*
%TO.P,IC4,1,Q2*%
%TO.N,Net-(IC4-Pad1)*%
X173830000Y-123190000D03*
D15*
%TO.P,IC4,2,~{Q2}*%
%TO.N,/Dice1/D3Hold*%
X173830000Y-125730000D03*
%TO.P,IC4,3,CLOCK2*%
%TO.N,Net-(IC4-Pad3)*%
X173830000Y-128270000D03*
%TO.P,IC4,4,RESET2*%
%TO.N,Reset*%
X173830000Y-130810000D03*
%TO.P,IC4,5,K2*%
%TO.N,+5V*%
X173830000Y-133350000D03*
%TO.P,IC4,6,J2*%
X173830000Y-135890000D03*
%TO.P,IC4,7,SET2*%
%TO.N,GND*%
X173830000Y-138430000D03*
%TO.P,IC4,8,VSS*%
X173830000Y-140970000D03*
%TO.P,IC4,9,SET1*%
X181770000Y-140970000D03*
%TO.P,IC4,10,J1*%
%TO.N,+5V*%
X181770000Y-138430000D03*
%TO.P,IC4,11,K1*%
X181770000Y-135890000D03*
%TO.P,IC4,12,RESET1*%
%TO.N,Reset*%
X181770000Y-133350000D03*
%TO.P,IC4,13,CLOCK1*%
%TO.N,/Dice3/D4Set*%
X181770000Y-130810000D03*
%TO.P,IC4,14,~{Q1}*%
%TO.N,/Dice1/D4Hold*%
X181770000Y-128270000D03*
%TO.P,IC4,15,Q1*%
%TO.N,/Dice3/D4Q*%
X181770000Y-125730000D03*
%TO.P,IC4,16,VDD*%
%TO.N,+5V*%
X181770000Y-123190000D03*
%TD*%
D11*
%TO.P,R45,1*%
%TO.N,Net-(R45-Pad1)*%
X137160000Y-116840000D03*
D12*
%TO.P,R45,2*%
%TO.N,Net-(DS3-Pad5)*%
X137160000Y-106680000D03*
%TD*%
D11*
%TO.P,R40,1*%
%TO.N,Net-(R40-Pad1)*%
X124460000Y-116840000D03*
D12*
%TO.P,R40,2*%
%TO.N,Net-(DS2-Pad7)*%
X124460000Y-106680000D03*
%TD*%
D11*
%TO.P,R63,1*%
%TO.N,Net-(R63-Pad1)*%
X266700000Y-116840000D03*
D12*
%TO.P,R63,2*%
%TO.N,Net-(DS5-Pad9)*%
X266700000Y-106680000D03*
%TD*%
D11*
%TO.P,R51,1*%
%TO.N,Net-(R51-Pad1)*%
X203200000Y-116840000D03*
D12*
%TO.P,R51,2*%
%TO.N,Net-(DS4-Pad2)*%
X203200000Y-106680000D03*
%TD*%
D11*
%TO.P,R62,1*%
%TO.N,Net-(R62-Pad1)*%
X261620000Y-116840000D03*
D12*
%TO.P,R62,2*%
%TO.N,Net-(DS5-Pad10)*%
X261620000Y-106680000D03*
%TD*%
D11*
%TO.P,R58,1*%
%TO.N,Net-(R58-Pad1)*%
X246380000Y-116840000D03*
D12*
%TO.P,R58,2*%
%TO.N,Net-(DS5-Pad1)*%
X246380000Y-106680000D03*
%TD*%
D20*
%TO.P,D16,1,K*%
%TO.N,Net-(D14-Pad1)*%
X236220000Y-154270000D03*
D21*
%TO.P,D16,2,A*%
%TO.N,Net-(D16-Pad2)*%
X246380000Y-154270000D03*
%TD*%
D18*
%TO.P,U20,1,I1*%
%TO.N,Net-(IC8-Pad15)*%
X252715000Y-121930000D03*
D19*
%TO.P,U20,2,I2*%
%TO.N,Net-(IC8-Pad14)*%
X252715000Y-124470000D03*
%TO.P,U20,3,I3*%
%TO.N,Net-(IC8-Pad13)*%
X252715000Y-127010000D03*
%TO.P,U20,4,I4*%
%TO.N,Net-(IC8-Pad12)*%
X252715000Y-129550000D03*
%TO.P,U20,5,I5*%
%TO.N,Net-(IC8-Pad11)*%
X252715000Y-132090000D03*
%TO.P,U20,6,I6*%
%TO.N,Net-(IC8-Pad10)*%
X252715000Y-134630000D03*
%TO.P,U20,7,I7*%
%TO.N,Net-(IC8-Pad9)*%
X252715000Y-137170000D03*
%TO.P,U20,8,I8*%
%TO.N,Net-(IC7-Pad1)*%
X252715000Y-139710000D03*
%TO.P,U20,9,GND*%
%TO.N,GND*%
X252715000Y-142250000D03*
%TO.P,U20,10,COM*%
%TO.N,unconnected-(U20-Pad10)*%
X260335000Y-142250000D03*
%TO.P,U20,11,O8*%
%TO.N,Net-(R60-Pad1)*%
X260335000Y-139710000D03*
%TO.P,U20,12,O7*%
%TO.N,Net-(R58-Pad1)*%
X260335000Y-137170000D03*
%TO.P,U20,13,O6*%
%TO.N,Net-(R59-Pad1)*%
X260335000Y-134630000D03*
%TO.P,U20,14,O5*%
%TO.N,Net-(R61-Pad1)*%
X260335000Y-132090000D03*
%TO.P,U20,15,O4*%
%TO.N,Net-(R65-Pad1)*%
X260335000Y-129550000D03*
%TO.P,U20,16,O3*%
%TO.N,Net-(R64-Pad1)*%
X260335000Y-127010000D03*
%TO.P,U20,17,O2*%
%TO.N,Net-(R62-Pad1)*%
X260335000Y-124470000D03*
%TO.P,U20,18,O1*%
%TO.N,Net-(R63-Pad1)*%
X260335000Y-121930000D03*
%TD*%
D13*
%TO.P,J2,1,Pin_1*%
%TO.N,GND*%
X228600000Y-187960000D03*
%TD*%
D11*
%TO.P,R16,1*%
%TO.N,Net-(R16-Pad1)*%
X33020000Y-116840000D03*
D12*
%TO.P,R16,2*%
%TO.N,Net-(DS1-Pad5)*%
X33020000Y-106680000D03*
%TD*%
D28*
%TO.P,C2,1*%
%TO.N,Net-(C2-Pad1)*%
X281940000Y-170180000D03*
D29*
%TO.P,C2,2*%
%TO.N,GND*%
X283940000Y-170180000D03*
%TD*%
D11*
%TO.P,R65,1*%
%TO.N,Net-(R65-Pad1)*%
X276860000Y-116840000D03*
D12*
%TO.P,R65,2*%
%TO.N,Net-(DS5-Pad6)*%
X276860000Y-106680000D03*
%TD*%
D11*
%TO.P,R56,1*%
%TO.N,Net-(R56-Pad1)*%
X223520000Y-116840000D03*
D12*
%TO.P,R56,2*%
%TO.N,Net-(DS4-Pad7)*%
X223520000Y-106680000D03*
%TD*%
D28*
%TO.P,C4,1*%
%TO.N,Net-(C4-Pad1)*%
X55880000Y-167640000D03*
D29*
%TO.P,C4,2*%
%TO.N,GND*%
X57880000Y-167640000D03*
%TD*%
D11*
%TO.P,R55,1*%
%TO.N,Net-(R55-Pad1)*%
X218440000Y-116840000D03*
D12*
%TO.P,R55,2*%
%TO.N,Net-(DS4-Pad9)*%
X218440000Y-106680000D03*
%TD*%
D11*
%TO.P,R30,1*%
%TO.N,Net-(J9-Pad2)*%
X157480000Y-180340000D03*
D12*
%TO.P,R30,2*%
%TO.N,GND*%
X167640000Y-180340000D03*
%TD*%
D22*
%TO.P,U4,1,A*%
%TO.N,Net-(IC1-Pad2)*%
X33020000Y-185420000D03*
D11*
%TO.P,U4,2,B*%
%TO.N,/Dice1/Roll*%
X35560000Y-185420000D03*
%TO.P,U4,3,J*%
%TO.N,Net-(IC2-Pad5)*%
X38100000Y-185420000D03*
%TO.P,U4,4,K*%
%TO.N,/Dice1/D2Latch*%
X40640000Y-185420000D03*
%TO.P,U4,5,C*%
%TO.N,/Dice1/D2Hold*%
X43180000Y-185420000D03*
%TO.P,U4,6,D*%
%TO.N,/Dice1/Roll*%
X45720000Y-185420000D03*
%TO.P,U4,7,VCC*%
%TO.N,GND*%
X48260000Y-185420000D03*
%TO.P,U4,8,E*%
%TO.N,/Dice1/D3Hold*%
X48260000Y-177800000D03*
%TO.P,U4,9,F*%
%TO.N,/Dice1/Roll*%
X45720000Y-177800000D03*
%TO.P,U4,10,L*%
%TO.N,/Dice1/D3Latch*%
X43180000Y-177800000D03*
%TO.P,U4,11,M*%
%TO.N,/Dice1/D4Latch*%
X40640000Y-177800000D03*
%TO.P,U4,12,G*%
%TO.N,/Dice1/D4Hold*%
X38100000Y-177800000D03*
%TO.P,U4,13,H*%
%TO.N,/Dice1/Roll*%
X35560000Y-177800000D03*
%TO.P,U4,14,VDD*%
%TO.N,+5V*%
X33020000Y-177800000D03*
%TD*%
%TO.P,R59,1*%
%TO.N,Net-(R59-Pad1)*%
X251460000Y-116840000D03*
D12*
%TO.P,R59,2*%
%TO.N,Net-(DS5-Pad2)*%
X251460000Y-106680000D03*
%TD*%
D20*
%TO.P,D8,1,K*%
%TO.N,/Dice1/D3*%
X134620000Y-147320000D03*
D21*
%TO.P,D8,2,A*%
%TO.N,Net-(D8-Pad2)*%
X144780000Y-147320000D03*
%TD*%
D22*
%TO.P,U15,1,Q5*%
%TO.N,unconnected-(U15-Pad1)*%
X90185000Y-184140000D03*
D12*
%TO.P,U15,2,Q1*%
%TO.N,Net-(D17-Pad2)*%
X92725000Y-184140000D03*
%TO.P,U15,3,Q0*%
%TO.N,Net-(D17-Pad1)*%
X95265000Y-184140000D03*
%TO.P,U15,4,Q2*%
%TO.N,Net-(D18-Pad2)*%
X97805000Y-184140000D03*
%TO.P,U15,5,Q6*%
%TO.N,unconnected-(U15-Pad5)*%
X100345000Y-184140000D03*
%TO.P,U15,6,Q7*%
%TO.N,unconnected-(U15-Pad6)*%
X102885000Y-184140000D03*
%TO.P,U15,7,Q3*%
%TO.N,unconnected-(U15-Pad7)*%
X105425000Y-184140000D03*
%TO.P,U15,8,VSS*%
%TO.N,GND*%
X107965000Y-184140000D03*
%TO.P,U15,9,Q8*%
%TO.N,unconnected-(U15-Pad9)*%
X107965000Y-176520000D03*
%TO.P,U15,10,Q4*%
%TO.N,unconnected-(U15-Pad10)*%
X105425000Y-176520000D03*
%TO.P,U15,11,Q9*%
%TO.N,unconnected-(U15-Pad11)*%
X102885000Y-176520000D03*
%TO.P,U15,12,Cout*%
%TO.N,unconnected-(U15-Pad12)*%
X100345000Y-176520000D03*
%TO.P,U15,13,CKEN*%
%TO.N,GND*%
X97805000Y-176520000D03*
%TO.P,U15,14,CLK*%
%TO.N,/Dice1/Roll*%
X95265000Y-176520000D03*
%TO.P,U15,15,Reset*%
%TO.N,Reset*%
X92725000Y-176520000D03*
%TO.P,U15,16,VDD*%
%TO.N,+5V*%
X90185000Y-176520000D03*
%TD*%
D11*
%TO.P,R9,1*%
%TO.N,Net-(R8-Pad2)*%
X129540000Y-185420000D03*
D12*
%TO.P,R9,2*%
%TO.N,Net-(C6-Pad1)*%
X139700000Y-185420000D03*
%TD*%
D20*
%TO.P,D6,1,K*%
%TO.N,/Dice1/D2*%
X83820000Y-152400000D03*
D21*
%TO.P,D6,2,A*%
%TO.N,Net-(D6-Pad2)*%
X93980000Y-152400000D03*
%TD*%
D11*
%TO.P,R22,1*%
%TO.N,Net-(IC7-Pad3)*%
X274320000Y-129540000D03*
D12*
%TO.P,R22,2*%
%TO.N,GND*%
X284480000Y-129540000D03*
%TD*%
D20*
%TO.P,D13,1,K*%
%TO.N,/Dice1/D4*%
X185420000Y-157480000D03*
D21*
%TO.P,D13,2,A*%
%TO.N,Net-(D13-Pad2)*%
X195580000Y-157480000D03*
%TD*%
D11*
%TO.P,R27,1*%
%TO.N,Reset*%
X238760000Y-175260000D03*
D12*
%TO.P,R27,2*%
%TO.N,GND*%
X248920000Y-175260000D03*
%TD*%
D22*
%TO.P,U2,1,GND*%
%TO.N,GND*%
X59700000Y-135900000D03*
D12*
%TO.P,U2,2,TR*%
%TO.N,Net-(C4-Pad1)*%
X59700000Y-138440000D03*
%TO.P,U2,3,Q*%
%TO.N,Net-(U2-Pad3)*%
X59700000Y-140980000D03*
%TO.P,U2,4,R*%
%TO.N,+5V*%
X59700000Y-143520000D03*
%TO.P,U2,5,CV*%
%TO.N,Net-(C3-Pad1)*%
X67320000Y-143520000D03*
%TO.P,U2,6,THR*%
%TO.N,Net-(C4-Pad1)*%
X67320000Y-140980000D03*
%TO.P,U2,7,DIS*%
%TO.N,Net-(R3-Pad2)*%
X67320000Y-138440000D03*
%TO.P,U2,8,VCC*%
%TO.N,+5V*%
X67320000Y-135900000D03*
%TD*%
D20*
%TO.P,D4,1,K*%
%TO.N,Net-(D2-Pad1)*%
X30480000Y-154940000D03*
D21*
%TO.P,D4,2,A*%
%TO.N,Net-(D4-Pad2)*%
X40640000Y-154940000D03*
%TD*%
D14*
%TO.P,U3,1,PE*%
%TO.N,Net-(U3-Pad1)*%
X31750000Y-171610000D03*
D15*
%TO.P,U3,2,Q4*%
%TO.N,unconnected-(U3-Pad2)*%
X34290000Y-171610000D03*
%TO.P,U3,3,J4*%
%TO.N,GND*%
X36830000Y-171610000D03*
%TO.P,U3,4,J1*%
X39370000Y-171610000D03*
%TO.P,U3,5,Cin*%
X41910000Y-171610000D03*
%TO.P,U3,6,Q1*%
%TO.N,Net-(D2-Pad2)*%
X44450000Y-171610000D03*
%TO.P,U3,7,Cout*%
%TO.N,unconnected-(U3-Pad7)*%
X46990000Y-171610000D03*
%TO.P,U3,8,VSS*%
%TO.N,GND*%
X49530000Y-171610000D03*
%TO.P,U3,9,B/D*%
%TO.N,+5V*%
X49530000Y-163670000D03*
%TO.P,U3,10,U/D*%
%TO.N,GND*%
X46990000Y-163670000D03*
%TO.P,U3,11,Q2*%
%TO.N,Net-(D3-Pad2)*%
X44450000Y-163670000D03*
%TO.P,U3,12,J2*%
%TO.N,+5V*%
X41910000Y-163670000D03*
%TO.P,U3,13,J3*%
X39370000Y-163670000D03*
%TO.P,U3,14,Q3*%
%TO.N,Net-(D4-Pad2)*%
X36830000Y-163670000D03*
%TO.P,U3,15,CK*%
%TO.N,Net-(U2-Pad3)*%
X34290000Y-163670000D03*
%TO.P,U3,16,VDD*%
%TO.N,+5V*%
X31750000Y-163670000D03*
%TD*%
D11*
%TO.P,R21,1*%
%TO.N,Net-(R21-Pad1)*%
X60960000Y-116840000D03*
D12*
%TO.P,R21,2*%
%TO.N,Net-(DS1-Pad2)*%
X60960000Y-106680000D03*
%TD*%
D11*
%TO.P,R8,1*%
%TO.N,+5V*%
X129540000Y-180340000D03*
D12*
%TO.P,R8,2*%
%TO.N,Net-(R8-Pad2)*%
X139700000Y-180340000D03*
%TD*%
D28*
%TO.P,C10,1*%
%TO.N,Net-(C10-Pad1)*%
X205740000Y-170180000D03*
D29*
%TO.P,C10,2*%
%TO.N,GND*%
X207740000Y-170180000D03*
%TD*%
D28*
%TO.P,C12,1*%
%TO.N,Net-(C12-Pad1)*%
X254000000Y-152400000D03*
D29*
%TO.P,C12,2*%
%TO.N,GND*%
X256000000Y-152400000D03*
%TD*%
D11*
%TO.P,R46,1*%
%TO.N,Net-(R46-Pad1)*%
X160020000Y-116840000D03*
D12*
%TO.P,R46,2*%
%TO.N,Net-(DS3-Pad10)*%
X160020000Y-106680000D03*
%TD*%
D11*
%TO.P,R31,1*%
%TO.N,Net-(R31-Pad1)*%
X71120000Y-116840000D03*
D12*
%TO.P,R31,2*%
%TO.N,Net-(DS1-Pad9)*%
X71120000Y-106680000D03*
%TD*%
D11*
%TO.P,R49,1*%
%TO.N,Net-(R49-Pad1)*%
X175260000Y-116840000D03*
D12*
%TO.P,R49,2*%
%TO.N,Net-(DS3-Pad6)*%
X175260000Y-106680000D03*
%TD*%
D11*
%TO.P,R12,1*%
%TO.N,Net-(IC4-Pad3)*%
X169580000Y-136000000D03*
D12*
%TO.P,R12,2*%
%TO.N,GND*%
X159420000Y-136000000D03*
%TD*%
D27*
%TO.P,J14,1,Pin_1*%
%TO.N,+5V*%
X167800000Y-129540000D03*
D17*
%TO.P,J14,2,Pin_2*%
%TO.N,/Dice3/D4Set*%
X163200000Y-129540000D03*
%TD*%
D18*
%TO.P,U18,1,I1*%
%TO.N,Net-(IC5-Pad15)*%
X143495000Y-121930000D03*
D19*
%TO.P,U18,2,I2*%
%TO.N,Net-(IC5-Pad14)*%
X143495000Y-124470000D03*
%TO.P,U18,3,I3*%
%TO.N,Net-(IC5-Pad13)*%
X143495000Y-127010000D03*
%TO.P,U18,4,I4*%
%TO.N,Net-(IC5-Pad12)*%
X143495000Y-129550000D03*
%TO.P,U18,5,I5*%
%TO.N,Net-(IC5-Pad11)*%
X143495000Y-132090000D03*
%TO.P,U18,6,I6*%
%TO.N,Net-(IC5-Pad10)*%
X143495000Y-134630000D03*
%TO.P,U18,7,I7*%
%TO.N,Net-(IC5-Pad9)*%
X143495000Y-137170000D03*
%TO.P,U18,8,I8*%
%TO.N,Net-(IC4-Pad1)*%
X143495000Y-139710000D03*
%TO.P,U18,9,GND*%
%TO.N,GND*%
X143495000Y-142250000D03*
%TO.P,U18,10,COM*%
%TO.N,unconnected-(U18-Pad10)*%
X151115000Y-142250000D03*
%TO.P,U18,11,O8*%
%TO.N,Net-(R45-Pad1)*%
X151115000Y-139710000D03*
%TO.P,U18,12,O7*%
%TO.N,Net-(R42-Pad1)*%
X151115000Y-137170000D03*
%TO.P,U18,13,O6*%
%TO.N,Net-(R43-Pad1)*%
X151115000Y-134630000D03*
%TO.P,U18,14,O5*%
%TO.N,Net-(R44-Pad1)*%
X151115000Y-132090000D03*
%TO.P,U18,15,O4*%
%TO.N,Net-(R49-Pad1)*%
X151115000Y-129550000D03*
%TO.P,U18,16,O3*%
%TO.N,Net-(R48-Pad1)*%
X151115000Y-127010000D03*
%TO.P,U18,17,O2*%
%TO.N,Net-(R46-Pad1)*%
X151115000Y-124470000D03*
%TO.P,U18,18,O1*%
%TO.N,Net-(R47-Pad1)*%
X151115000Y-121930000D03*
%TD*%
D11*
%TO.P,R7,1*%
%TO.N,/Dice1/D2Set*%
X83820000Y-116840000D03*
D12*
%TO.P,R7,2*%
%TO.N,GND*%
X83820000Y-106680000D03*
%TD*%
D11*
%TO.P,R33,1*%
%TO.N,Net-(R33-Pad1)*%
X40640000Y-116840000D03*
D12*
%TO.P,R33,2*%
%TO.N,Net-(DS1-Pad6)*%
X40640000Y-106680000D03*
%TD*%
D11*
%TO.P,R1,1*%
%TO.N,/Dice1/Roll*%
X175260000Y-190500000D03*
D12*
%TO.P,R1,2*%
%TO.N,GND*%
X175260000Y-180340000D03*
%TD*%
D11*
%TO.P,R36,1*%
%TO.N,Net-(R36-Pad1)*%
X109220000Y-116840000D03*
D12*
%TO.P,R36,2*%
%TO.N,Net-(DS2-Pad4)*%
X109220000Y-106680000D03*
%TD*%
D14*
%TO.P,U11,1,PE*%
%TO.N,/Dice1/D4R*%
X181610000Y-174150000D03*
D15*
%TO.P,U11,2,Q4*%
%TO.N,unconnected-(U11-Pad2)*%
X184150000Y-174150000D03*
%TO.P,U11,3,J4*%
%TO.N,GND*%
X186690000Y-174150000D03*
%TO.P,U11,4,J1*%
X189230000Y-174150000D03*
%TO.P,U11,5,Cin*%
X191770000Y-174150000D03*
%TO.P,U11,6,Q1*%
%TO.N,Net-(D11-Pad2)*%
X194310000Y-174150000D03*
%TO.P,U11,7,Cout*%
%TO.N,unconnected-(U11-Pad7)*%
X196850000Y-174150000D03*
%TO.P,U11,8,VSS*%
%TO.N,GND*%
X199390000Y-174150000D03*
%TO.P,U11,9,B/D*%
%TO.N,+5V*%
X199390000Y-166210000D03*
%TO.P,U11,10,U/D*%
%TO.N,GND*%
X196850000Y-166210000D03*
%TO.P,U11,11,Q2*%
%TO.N,Net-(D12-Pad2)*%
X194310000Y-166210000D03*
%TO.P,U11,12,J2*%
%TO.N,+5V*%
X191770000Y-166210000D03*
%TO.P,U11,13,J3*%
X189230000Y-166210000D03*
%TO.P,U11,14,Q3*%
%TO.N,Net-(D13-Pad2)*%
X186690000Y-166210000D03*
%TO.P,U11,15,CK*%
%TO.N,Net-(U10-Pad3)*%
X184150000Y-166210000D03*
%TO.P,U11,16,VDD*%
%TO.N,+5V*%
X181610000Y-166210000D03*
%TD*%
D14*
%TO.P,IC7,1,Q2*%
%TO.N,Net-(IC7-Pad1)*%
X204470000Y-186850000D03*
D15*
%TO.P,IC7,2,~{Q2}*%
%TO.N,D5Hold*%
X207010000Y-186850000D03*
%TO.P,IC7,3,CLOCK2*%
%TO.N,Net-(IC7-Pad3)*%
X209550000Y-186850000D03*
%TO.P,IC7,4,RESET2*%
%TO.N,Reset*%
X212090000Y-186850000D03*
%TO.P,IC7,5,K2*%
%TO.N,+5V*%
X214630000Y-186850000D03*
%TO.P,IC7,6,J2*%
X217170000Y-186850000D03*
%TO.P,IC7,7,SET2*%
%TO.N,GND*%
X219710000Y-186850000D03*
%TO.P,IC7,8,VSS*%
X222250000Y-186850000D03*
%TO.P,IC7,9,SET1*%
X222250000Y-178910000D03*
%TO.P,IC7,10,J1*%
%TO.N,+5V*%
X219710000Y-178910000D03*
%TO.P,IC7,11,K1*%
X217170000Y-178910000D03*
%TO.P,IC7,12,RESET1*%
%TO.N,GND*%
X214630000Y-178910000D03*
%TO.P,IC7,13,CLOCK1*%
X212090000Y-178910000D03*
%TO.P,IC7,14,~{Q1}*%
%TO.N,unconnected-(IC7-Pad14)*%
X209550000Y-178910000D03*
%TO.P,IC7,15,Q1*%
%TO.N,unconnected-(IC7-Pad15)*%
X207010000Y-178910000D03*
%TO.P,IC7,16,VDD*%
%TO.N,+5V*%
X204470000Y-178910000D03*
%TD*%
D27*
%TO.P,J12,1,Pin_1*%
%TO.N,+5V*%
X66040000Y-129540000D03*
D17*
%TO.P,J12,2,Pin_2*%
%TO.N,/Dice1/D2Set*%
X61440000Y-129540000D03*
%TD*%
D30*
%TO.P,U1,1,IN*%
%TO.N,Net-(C1-Pad1)*%
X276860000Y-157480000D03*
D31*
%TO.P,U1,2,GND*%
%TO.N,GND*%
X279400000Y-157480000D03*
%TO.P,U1,3,OUT*%
%TO.N,Net-(C2-Pad1)*%
X281940000Y-157480000D03*
%TD*%
D20*
%TO.P,D15,1,K*%
%TO.N,Net-(D14-Pad1)*%
X236220000Y-149190000D03*
D21*
%TO.P,D15,2,A*%
%TO.N,Net-(D15-Pad2)*%
X246380000Y-149190000D03*
%TD*%
D26*
%TO.P,J3,1,Pin_1*%
%TO.N,Net-(J3-Pad1)*%
X251940000Y-187960000D03*
D17*
%TO.P,J3,2,Pin_2*%
%TO.N,GND*%
X256540000Y-187960000D03*
%TD*%
D14*
%TO.P,IC6,1,B_1*%
%TO.N,Net-(D12-Pad2)*%
X189070000Y-123190000D03*
D15*
%TO.P,IC6,2,C_1*%
%TO.N,Net-(D13-Pad2)*%
X189070000Y-125730000D03*
%TO.P,IC6,3,~{LT}*%
%TO.N,+5V*%
X189070000Y-128270000D03*
%TO.P,IC6,4,~{BL}*%
X189070000Y-130810000D03*
%TO.P,IC6,5,LE/~{STROBE}*%
%TO.N,/Dice1/D4Latch*%
X189070000Y-133350000D03*
%TO.P,IC6,6,D_1*%
%TO.N,GND*%
X189070000Y-135890000D03*
%TO.P,IC6,7,A_1*%
%TO.N,Net-(D11-Pad2)*%
X189070000Y-138430000D03*
%TO.P,IC6,8,VSS*%
%TO.N,GND*%
X189070000Y-140970000D03*
%TO.P,IC6,9,E*%
%TO.N,Net-(IC6-Pad9)*%
X197010000Y-140970000D03*
%TO.P,IC6,10,D_2*%
%TO.N,Net-(IC6-Pad10)*%
X197010000Y-138430000D03*
%TO.P,IC6,11,C_2*%
%TO.N,Net-(IC6-Pad11)*%
X197010000Y-135890000D03*
%TO.P,IC6,12,B_2*%
%TO.N,Net-(IC6-Pad12)*%
X197010000Y-133350000D03*
%TO.P,IC6,13,A_2*%
%TO.N,Net-(IC6-Pad13)*%
X197010000Y-130810000D03*
%TO.P,IC6,14,G*%
%TO.N,Net-(IC6-Pad14)*%
X197010000Y-128270000D03*
%TO.P,IC6,15,F*%
%TO.N,Net-(IC6-Pad15)*%
X197010000Y-125730000D03*
%TO.P,IC6,16,VDD*%
%TO.N,+5V*%
X197010000Y-123190000D03*
%TD*%
D22*
%TO.P,U12,1,GND*%
%TO.N,GND*%
X255280000Y-161300000D03*
D12*
%TO.P,U12,2,TR*%
%TO.N,Net-(C12-Pad1)*%
X255280000Y-163840000D03*
%TO.P,U12,3,Q*%
%TO.N,Net-(U12-Pad3)*%
X255280000Y-166380000D03*
%TO.P,U12,4,R*%
%TO.N,+5V*%
X255280000Y-168920000D03*
%TO.P,U12,5,CV*%
%TO.N,Net-(C11-Pad1)*%
X262900000Y-168920000D03*
%TO.P,U12,6,THR*%
%TO.N,Net-(C12-Pad1)*%
X262900000Y-166380000D03*
%TO.P,U12,7,DIS*%
%TO.N,Net-(R23-Pad2)*%
X262900000Y-163840000D03*
%TO.P,U12,8,VCC*%
%TO.N,+5V*%
X262900000Y-161300000D03*
%TD*%
D22*
%TO.P,U5,1,A*%
%TO.N,Net-(D2-Pad1)*%
X66010000Y-184150000D03*
D11*
%TO.P,U5,2,B*%
X68550000Y-184150000D03*
%TO.P,U5,3,J*%
%TO.N,Net-(U3-Pad1)*%
X71090000Y-184150000D03*
%TO.P,U5,4,K*%
%TO.N,/Dice1/D2R*%
X73630000Y-184150000D03*
%TO.P,U5,5,C*%
%TO.N,/Dice1/D2*%
X76170000Y-184150000D03*
%TO.P,U5,6,D*%
X78710000Y-184150000D03*
%TO.P,U5,7,VCC*%
%TO.N,GND*%
X81250000Y-184150000D03*
%TO.P,U5,8,E*%
%TO.N,/Dice1/D3*%
X81250000Y-176530000D03*
%TO.P,U5,9,F*%
X78710000Y-176530000D03*
%TO.P,U5,10,L*%
%TO.N,/Dice1/D3R*%
X76170000Y-176530000D03*
%TO.P,U5,11,M*%
%TO.N,/Dice1/D4R*%
X73630000Y-176530000D03*
%TO.P,U5,12,G*%
%TO.N,/Dice1/D4*%
X71090000Y-176530000D03*
%TO.P,U5,13,H*%
X68550000Y-176530000D03*
%TO.P,U5,14,VDD*%
%TO.N,+5V*%
X66010000Y-176530000D03*
%TD*%
D23*
%TO.P,C5,1*%
%TO.N,Net-(C5-Pad1)*%
X121920000Y-167640000D03*
%TO.P,C5,2*%
%TO.N,GND*%
X126920000Y-167640000D03*
%TD*%
D20*
%TO.P,D2,1,K*%
%TO.N,Net-(D2-Pad1)*%
X30480000Y-149860000D03*
D21*
%TO.P,D2,2,A*%
%TO.N,Net-(D2-Pad2)*%
X40640000Y-149860000D03*
%TD*%
D32*
%TO.P,J15,1,Pin_1*%
%TO.N,+5V*%
X266700000Y-134620000D03*
D17*
%TO.P,J15,2,Pin_2*%
%TO.N,Net-(IC7-Pad3)*%
X266700000Y-130020000D03*
%TD*%
D11*
%TO.P,R5,1*%
%TO.N,Net-(D2-Pad1)*%
X53340000Y-149860000D03*
D12*
%TO.P,R5,2*%
%TO.N,GND*%
X53340000Y-160020000D03*
%TD*%
D23*
%TO.P,C7,1*%
%TO.N,Net-(C7-Pad1)*%
X167640000Y-170180000D03*
%TO.P,C7,2*%
%TO.N,GND*%
X172640000Y-170180000D03*
%TD*%
D11*
%TO.P,R32,1*%
%TO.N,Net-(R32-Pad1)*%
X45720000Y-116840000D03*
D12*
%TO.P,R32,2*%
%TO.N,Net-(DS1-Pad7)*%
X45720000Y-106680000D03*
%TD*%
D11*
%TO.P,R24,1*%
%TO.N,Net-(R23-Pad2)*%
X274320000Y-139700000D03*
D12*
%TO.P,R24,2*%
%TO.N,Net-(C12-Pad1)*%
X284480000Y-139700000D03*
%TD*%
D28*
%TO.P,C8,1*%
%TO.N,Net-(C8-Pad1)*%
X158020000Y-170180000D03*
D29*
%TO.P,C8,2*%
%TO.N,GND*%
X160020000Y-170180000D03*
%TD*%
D20*
%TO.P,D14,1,K*%
%TO.N,Net-(D14-Pad1)*%
X236220000Y-144110000D03*
D21*
%TO.P,D14,2,A*%
%TO.N,Net-(D14-Pad2)*%
X246380000Y-144110000D03*
%TD*%
D26*
%TO.P,J9,1,Pin_1*%
%TO.N,Net-(D18-Pad2)*%
X165100000Y-187960000D03*
D17*
%TO.P,J9,2,Pin_2*%
%TO.N,Net-(J9-Pad2)*%
X169700000Y-187960000D03*
%TD*%
D11*
%TO.P,R29,1*%
%TO.N,Net-(J8-Pad2)*%
X129540000Y-190500000D03*
D12*
%TO.P,R29,2*%
%TO.N,GND*%
X139700000Y-190500000D03*
%TD*%
D22*
%TO.P,U14,1,A*%
%TO.N,Net-(D14-Pad1)*%
X182850000Y-186690000D03*
D11*
%TO.P,U14,2,B*%
X185390000Y-186690000D03*
%TO.P,U14,3,J*%
%TO.N,Net-(U13-Pad1)*%
X187930000Y-186690000D03*
%TO.P,U14,4,K*%
%TO.N,D5Latch*%
X190470000Y-186690000D03*
%TO.P,U14,5,C*%
%TO.N,D5Hold*%
X193010000Y-186690000D03*
%TO.P,U14,6,D*%
%TO.N,/Dice1/Roll*%
X195550000Y-186690000D03*
%TO.P,U14,7,VCC*%
%TO.N,GND*%
X198090000Y-186690000D03*
%TO.P,U14,8,E*%
%TO.N,unconnected-(U14-Pad8)*%
X198090000Y-179070000D03*
%TO.P,U14,9,F*%
%TO.N,unconnected-(U14-Pad9)*%
X195550000Y-179070000D03*
%TO.P,U14,10,L*%
%TO.N,unconnected-(U14-Pad10)*%
X193010000Y-179070000D03*
%TO.P,U14,11,M*%
%TO.N,unconnected-(U14-Pad11)*%
X190470000Y-179070000D03*
%TO.P,U14,12,G*%
%TO.N,unconnected-(U14-Pad12)*%
X187930000Y-179070000D03*
%TO.P,U14,13,H*%
%TO.N,unconnected-(U14-Pad13)*%
X185390000Y-179070000D03*
%TO.P,U14,14,VDD*%
%TO.N,+5V*%
X182850000Y-179070000D03*
%TD*%
%TO.P,R43,1*%
%TO.N,Net-(R43-Pad1)*%
X149860000Y-116840000D03*
D12*
%TO.P,R43,2*%
%TO.N,Net-(DS3-Pad2)*%
X149860000Y-106680000D03*
%TD*%
D14*
%TO.P,IC1,1,Q2*%
%TO.N,Net-(IC1-Pad1)*%
X72230000Y-120650000D03*
D15*
%TO.P,IC1,2,~{Q2}*%
%TO.N,Net-(IC1-Pad2)*%
X72230000Y-123190000D03*
%TO.P,IC1,3,CLOCK2*%
%TO.N,Net-(IC1-Pad3)*%
X72230000Y-125730000D03*
%TO.P,IC1,4,RESET2*%
%TO.N,Reset*%
X72230000Y-128270000D03*
%TO.P,IC1,5,K2*%
%TO.N,+5V*%
X72230000Y-130810000D03*
%TO.P,IC1,6,J2*%
X72230000Y-133350000D03*
%TO.P,IC1,7,SET2*%
%TO.N,GND*%
X72230000Y-135890000D03*
%TO.P,IC1,8,VSS*%
X72230000Y-138430000D03*
%TO.P,IC1,9,SET1*%
X80170000Y-138430000D03*
%TO.P,IC1,10,J1*%
%TO.N,+5V*%
X80170000Y-135890000D03*
%TO.P,IC1,11,K1*%
X80170000Y-133350000D03*
%TO.P,IC1,12,RESET1*%
%TO.N,Reset*%
X80170000Y-130810000D03*
%TO.P,IC1,13,CLOCK1*%
%TO.N,/Dice1/D2Set*%
X80170000Y-128270000D03*
%TO.P,IC1,14,~{Q1}*%
%TO.N,/Dice1/D2Hold*%
X80170000Y-125730000D03*
%TO.P,IC1,15,Q1*%
%TO.N,/Dice1/D2Q*%
X80170000Y-123190000D03*
%TO.P,IC1,16,VDD*%
%TO.N,+5V*%
X80170000Y-120650000D03*
%TD*%
D11*
%TO.P,R23,1*%
%TO.N,+5V*%
X274320000Y-134620000D03*
D12*
%TO.P,R23,2*%
%TO.N,Net-(R23-Pad2)*%
X284480000Y-134620000D03*
%TD*%
D28*
%TO.P,C6,1*%
%TO.N,Net-(C6-Pad1)*%
X109220000Y-165100000D03*
D29*
%TO.P,C6,2*%
%TO.N,GND*%
X111220000Y-165100000D03*
%TD*%
D11*
%TO.P,R48,1*%
%TO.N,Net-(R48-Pad1)*%
X170180000Y-116840000D03*
D12*
%TO.P,R48,2*%
%TO.N,Net-(DS3-Pad7)*%
X170180000Y-106680000D03*
%TD*%
D20*
%TO.P,D5,1,K*%
%TO.N,/Dice1/D2*%
X83820000Y-147320000D03*
D21*
%TO.P,D5,2,A*%
%TO.N,Net-(D5-Pad2)*%
X93980000Y-147320000D03*
%TD*%
D11*
%TO.P,R17,1*%
%TO.N,/Dice3/D4Set*%
X213360000Y-142240000D03*
D12*
%TO.P,R17,2*%
%TO.N,GND*%
X223520000Y-142240000D03*
%TD*%
D20*
%TO.P,D12,1,K*%
%TO.N,/Dice1/D4*%
X185420000Y-152400000D03*
D21*
%TO.P,D12,2,A*%
%TO.N,Net-(D12-Pad2)*%
X195580000Y-152400000D03*
%TD*%
D11*
%TO.P,R64,1*%
%TO.N,Net-(R64-Pad1)*%
X271780000Y-116840000D03*
D12*
%TO.P,R64,2*%
%TO.N,Net-(DS5-Pad7)*%
X271780000Y-106680000D03*
%TD*%
D33*
%TO.P,C1,1*%
%TO.N,Net-(C1-Pad1)*%
X259080000Y-177800000D03*
D34*
%TO.P,C1,2*%
%TO.N,GND*%
X264080000Y-177800000D03*
%TD*%
D11*
%TO.P,R57,1*%
%TO.N,Net-(R57-Pad1)*%
X228600000Y-116840000D03*
D12*
%TO.P,R57,2*%
%TO.N,Net-(DS4-Pad6)*%
X228600000Y-106680000D03*
%TD*%
D11*
%TO.P,R6,1*%
%TO.N,Net-(R6-Pad1)*%
X55880000Y-116840000D03*
D12*
%TO.P,R6,2*%
%TO.N,Net-(DS1-Pad4)*%
X55880000Y-106680000D03*
%TD*%
D23*
%TO.P,C9,1*%
%TO.N,Net-(C9-Pad1)*%
X215900000Y-170180000D03*
%TO.P,C9,2*%
%TO.N,GND*%
X220900000Y-170180000D03*
%TD*%
D11*
%TO.P,R44,1*%
%TO.N,Net-(R44-Pad1)*%
X154940000Y-116840000D03*
D12*
%TO.P,R44,2*%
%TO.N,Net-(DS3-Pad4)*%
X154940000Y-106680000D03*
%TD*%
D11*
%TO.P,R13,1*%
%TO.N,+5V*%
X154940000Y-160020000D03*
D12*
%TO.P,R13,2*%
%TO.N,Net-(R13-Pad2)*%
X154940000Y-149860000D03*
%TD*%
D11*
%TO.P,R19,1*%
%TO.N,Net-(R18-Pad2)*%
X210820000Y-157480000D03*
D12*
%TO.P,R19,2*%
%TO.N,Net-(C10-Pad1)*%
X210820000Y-147320000D03*
%TD*%
D26*
%TO.P,J8,1,Pin_1*%
%TO.N,Net-(D17-Pad2)*%
X154940000Y-187960000D03*
D17*
%TO.P,J8,2,Pin_2*%
%TO.N,Net-(J8-Pad2)*%
X159540000Y-187960000D03*
%TD*%
D26*
%TO.P,J16,1,Pin_1*%
%TO.N,+5V*%
X99060000Y-190500000D03*
D17*
%TO.P,J16,2,Pin_2*%
%TO.N,Reset*%
X103660000Y-190500000D03*
%TD*%
D11*
%TO.P,R14,1*%
%TO.N,Net-(R13-Pad2)*%
X160020000Y-160020000D03*
D12*
%TO.P,R14,2*%
%TO.N,Net-(C8-Pad1)*%
X160020000Y-149860000D03*
%TD*%
D20*
%TO.P,D9,1,K*%
%TO.N,/Dice1/D3*%
X134620000Y-152400000D03*
D21*
%TO.P,D9,2,A*%
%TO.N,Net-(D9-Pad2)*%
X144780000Y-152400000D03*
%TD*%
D14*
%TO.P,U13,1,PE*%
%TO.N,Net-(U13-Pad1)*%
X232410000Y-169070000D03*
D15*
%TO.P,U13,2,Q4*%
%TO.N,unconnected-(U13-Pad2)*%
X234950000Y-169070000D03*
%TO.P,U13,3,J4*%
%TO.N,GND*%
X237490000Y-169070000D03*
%TO.P,U13,4,J1*%
X240030000Y-169070000D03*
%TO.P,U13,5,Cin*%
X242570000Y-169070000D03*
%TO.P,U13,6,Q1*%
%TO.N,Net-(D14-Pad2)*%
X245110000Y-169070000D03*
%TO.P,U13,7,Cout*%
%TO.N,unconnected-(U13-Pad7)*%
X247650000Y-169070000D03*
%TO.P,U13,8,VSS*%
%TO.N,GND*%
X250190000Y-169070000D03*
%TO.P,U13,9,B/D*%
%TO.N,+5V*%
X250190000Y-161130000D03*
%TO.P,U13,10,U/D*%
%TO.N,GND*%
X247650000Y-161130000D03*
%TO.P,U13,11,Q2*%
%TO.N,Net-(D15-Pad2)*%
X245110000Y-161130000D03*
%TO.P,U13,12,J2*%
%TO.N,+5V*%
X242570000Y-161130000D03*
%TO.P,U13,13,J3*%
X240030000Y-161130000D03*
%TO.P,U13,14,Q3*%
%TO.N,Net-(D16-Pad2)*%
X237490000Y-161130000D03*
%TO.P,U13,15,CK*%
%TO.N,Net-(U12-Pad3)*%
X234950000Y-161130000D03*
%TO.P,U13,16,VDD*%
%TO.N,+5V*%
X232410000Y-161130000D03*
%TD*%
D18*
%TO.P,U16,1,I1*%
%TO.N,Net-(IC2-Pad15)*%
X44435000Y-121930000D03*
D19*
%TO.P,U16,2,I2*%
%TO.N,Net-(IC2-Pad14)*%
X44435000Y-124470000D03*
%TO.P,U16,3,I3*%
%TO.N,Net-(IC2-Pad13)*%
X44435000Y-127010000D03*
%TO.P,U16,4,I4*%
%TO.N,Net-(IC2-Pad12)*%
X44435000Y-129550000D03*
%TO.P,U16,5,I5*%
%TO.N,Net-(IC2-Pad11)*%
X44435000Y-132090000D03*
%TO.P,U16,6,I6*%
%TO.N,Net-(IC2-Pad10)*%
X44435000Y-134630000D03*
%TO.P,U16,7,I7*%
%TO.N,Net-(IC2-Pad9)*%
X44435000Y-137170000D03*
%TO.P,U16,8,I8*%
%TO.N,Net-(IC1-Pad1)*%
X44435000Y-139710000D03*
%TO.P,U16,9,GND*%
%TO.N,GND*%
X44435000Y-142250000D03*
%TO.P,U16,10,COM*%
%TO.N,unconnected-(U16-Pad10)*%
X52055000Y-142250000D03*
%TO.P,U16,11,O8*%
%TO.N,Net-(R16-Pad1)*%
X52055000Y-139710000D03*
%TO.P,U16,12,O7*%
%TO.N,Net-(R11-Pad1)*%
X52055000Y-137170000D03*
%TO.P,U16,13,O6*%
%TO.N,Net-(R21-Pad1)*%
X52055000Y-134630000D03*
%TO.P,U16,14,O5*%
%TO.N,Net-(R6-Pad1)*%
X52055000Y-132090000D03*
%TO.P,U16,15,O4*%
%TO.N,Net-(R33-Pad1)*%
X52055000Y-129550000D03*
%TO.P,U16,16,O3*%
%TO.N,Net-(R32-Pad1)*%
X52055000Y-127010000D03*
%TO.P,U16,17,O2*%
%TO.N,Net-(R26-Pad1)*%
X52055000Y-124470000D03*
%TO.P,U16,18,O1*%
%TO.N,Net-(R31-Pad1)*%
X52055000Y-121930000D03*
%TD*%
D11*
%TO.P,R53,1*%
%TO.N,Net-(R53-Pad1)*%
X190500000Y-116840000D03*
D12*
%TO.P,R53,2*%
%TO.N,Net-(DS4-Pad5)*%
X190500000Y-106680000D03*
%TD*%
D11*
%TO.P,R61,1*%
%TO.N,Net-(R61-Pad1)*%
X256540000Y-116840000D03*
D12*
%TO.P,R61,2*%
%TO.N,Net-(DS5-Pad4)*%
X256540000Y-106680000D03*
%TD*%
D14*
%TO.P,U9,1,PE*%
%TO.N,/Dice1/D3R*%
X135890000Y-174150000D03*
D15*
%TO.P,U9,2,Q4*%
%TO.N,unconnected-(U9-Pad2)*%
X138430000Y-174150000D03*
%TO.P,U9,3,J4*%
%TO.N,GND*%
X140970000Y-174150000D03*
%TO.P,U9,4,J1*%
X143510000Y-174150000D03*
%TO.P,U9,5,Cin*%
X146050000Y-174150000D03*
%TO.P,U9,6,Q1*%
%TO.N,Net-(D8-Pad2)*%
X148590000Y-174150000D03*
%TO.P,U9,7,Cout*%
%TO.N,unconnected-(U9-Pad7)*%
X151130000Y-174150000D03*
%TO.P,U9,8,VSS*%
%TO.N,GND*%
X153670000Y-174150000D03*
%TO.P,U9,9,B/D*%
%TO.N,+5V*%
X153670000Y-166210000D03*
%TO.P,U9,10,U/D*%
%TO.N,GND*%
X151130000Y-166210000D03*
%TO.P,U9,11,Q2*%
%TO.N,Net-(D9-Pad2)*%
X148590000Y-166210000D03*
%TO.P,U9,12,J2*%
%TO.N,+5V*%
X146050000Y-166210000D03*
%TO.P,U9,13,J3*%
X143510000Y-166210000D03*
%TO.P,U9,14,Q3*%
%TO.N,Net-(D10-Pad2)*%
X140970000Y-166210000D03*
%TO.P,U9,15,CK*%
%TO.N,Net-(U8-Pad3)*%
X138430000Y-166210000D03*
%TO.P,U9,16,VDD*%
%TO.N,+5V*%
X135890000Y-166210000D03*
%TD*%
D27*
%TO.P,J13,1,Pin_1*%
%TO.N,+5V*%
X167386000Y-122301000D03*
D17*
%TO.P,J13,2,Pin_2*%
%TO.N,Net-(IC4-Pad3)*%
X162786000Y-122301000D03*
%TD*%
D20*
%TO.P,D17,1,K*%
%TO.N,Net-(D17-Pad1)*%
X114300000Y-177800000D03*
D21*
%TO.P,D17,2,A*%
%TO.N,Net-(D17-Pad2)*%
X124460000Y-177800000D03*
%TD*%
D22*
%TO.P,U8,1,GND*%
%TO.N,GND*%
X168920000Y-151140000D03*
D12*
%TO.P,U8,2,TR*%
%TO.N,Net-(C8-Pad1)*%
X168920000Y-153680000D03*
%TO.P,U8,3,Q*%
%TO.N,Net-(U8-Pad3)*%
X168920000Y-156220000D03*
%TO.P,U8,4,R*%
%TO.N,+5V*%
X168920000Y-158760000D03*
%TO.P,U8,5,CV*%
%TO.N,Net-(C7-Pad1)*%
X176540000Y-158760000D03*
%TO.P,U8,6,THR*%
%TO.N,Net-(C8-Pad1)*%
X176540000Y-156220000D03*
%TO.P,U8,7,DIS*%
%TO.N,Net-(R13-Pad2)*%
X176540000Y-153680000D03*
%TO.P,U8,8,VCC*%
%TO.N,+5V*%
X176540000Y-151140000D03*
%TD*%
D11*
%TO.P,R52,1*%
%TO.N,Net-(R52-Pad1)*%
X208280000Y-116840000D03*
D12*
%TO.P,R52,2*%
%TO.N,Net-(DS4-Pad4)*%
X208280000Y-106680000D03*
%TD*%
D11*
%TO.P,R39,1*%
%TO.N,Net-(R39-Pad1)*%
X119380000Y-116840000D03*
D12*
%TO.P,R39,2*%
%TO.N,Net-(DS2-Pad9)*%
X119380000Y-106680000D03*
%TD*%
D35*
%TO.P,DS1,1,K_E*%
%TO.N,Net-(DS1-Pad1)*%
X63500000Y-98630000D03*
D36*
%TO.P,DS1,2,K_D*%
%TO.N,Net-(DS1-Pad2)*%
X60960000Y-98630000D03*
%TO.P,DS1,3,COM_A_1*%
%TO.N,+10V*%
X58420000Y-98630000D03*
%TO.P,DS1,4,K_C*%
%TO.N,Net-(DS1-Pad4)*%
X55880000Y-98630000D03*
%TO.P,DS1,5,K_DP*%
%TO.N,Net-(DS1-Pad5)*%
X53340000Y-98630000D03*
%TO.P,DS1,6,K_B*%
%TO.N,Net-(DS1-Pad6)*%
X53340000Y-38530000D03*
%TO.P,DS1,7,K_A*%
%TO.N,Net-(DS1-Pad7)*%
X55880000Y-38530000D03*
%TO.P,DS1,8,COM_A_2*%
%TO.N,+10V*%
X58420000Y-38530000D03*
%TO.P,DS1,9,K_F*%
%TO.N,Net-(DS1-Pad9)*%
X60960000Y-38530000D03*
%TO.P,DS1,10,K_G*%
%TO.N,Net-(DS1-Pad10)*%
X63500000Y-38530000D03*
%TD*%
D35*
%TO.P,DS2,1,K_E*%
%TO.N,Net-(DS2-Pad1)*%
X114300000Y-98630000D03*
D36*
%TO.P,DS2,2,K_D*%
%TO.N,Net-(DS2-Pad2)*%
X111760000Y-98630000D03*
%TO.P,DS2,3,COM_A_1*%
%TO.N,+10V*%
X109220000Y-98630000D03*
%TO.P,DS2,4,K_C*%
%TO.N,Net-(DS2-Pad4)*%
X106680000Y-98630000D03*
%TO.P,DS2,5,K_DP*%
%TO.N,Net-(DS2-Pad5)*%
X104140000Y-98630000D03*
%TO.P,DS2,6,K_B*%
%TO.N,Net-(DS2-Pad6)*%
X104140000Y-38530000D03*
%TO.P,DS2,7,K_A*%
%TO.N,Net-(DS2-Pad7)*%
X106680000Y-38530000D03*
%TO.P,DS2,8,COM_A_2*%
%TO.N,+10V*%
X109220000Y-38530000D03*
%TO.P,DS2,9,K_F*%
%TO.N,Net-(DS2-Pad9)*%
X111760000Y-38530000D03*
%TO.P,DS2,10,K_G*%
%TO.N,Net-(DS2-Pad10)*%
X114300000Y-38530000D03*
%TD*%
D35*
%TO.P,DS4,1,K_E*%
%TO.N,Net-(DS4-Pad1)*%
X215900000Y-98630000D03*
D36*
%TO.P,DS4,2,K_D*%
%TO.N,Net-(DS4-Pad2)*%
X213360000Y-98630000D03*
%TO.P,DS4,3,COM_A_1*%
%TO.N,+10V*%
X210820000Y-98630000D03*
%TO.P,DS4,4,K_C*%
%TO.N,Net-(DS4-Pad4)*%
X208280000Y-98630000D03*
%TO.P,DS4,5,K_DP*%
%TO.N,Net-(DS4-Pad5)*%
X205740000Y-98630000D03*
%TO.P,DS4,6,K_B*%
%TO.N,Net-(DS4-Pad6)*%
X205740000Y-38530000D03*
%TO.P,DS4,7,K_A*%
%TO.N,Net-(DS4-Pad7)*%
X208280000Y-38530000D03*
%TO.P,DS4,8,COM_A_2*%
%TO.N,+10V*%
X210820000Y-38530000D03*
%TO.P,DS4,9,K_F*%
%TO.N,Net-(DS4-Pad9)*%
X213360000Y-38530000D03*
%TO.P,DS4,10,K_G*%
%TO.N,Net-(DS4-Pad10)*%
X215900000Y-38530000D03*
%TD*%
D35*
%TO.P,DS5,1,K_E*%
%TO.N,Net-(DS5-Pad1)*%
X266700000Y-98630000D03*
D36*
%TO.P,DS5,2,K_D*%
%TO.N,Net-(DS5-Pad2)*%
X264160000Y-98630000D03*
%TO.P,DS5,3,COM_A_1*%
%TO.N,+10V*%
X261620000Y-98630000D03*
%TO.P,DS5,4,K_C*%
%TO.N,Net-(DS5-Pad4)*%
X259080000Y-98630000D03*
%TO.P,DS5,5,K_DP*%
%TO.N,Net-(DS5-Pad5)*%
X256540000Y-98630000D03*
%TO.P,DS5,6,K_B*%
%TO.N,Net-(DS5-Pad6)*%
X256540000Y-38530000D03*
%TO.P,DS5,7,K_A*%
%TO.N,Net-(DS5-Pad7)*%
X259080000Y-38530000D03*
%TO.P,DS5,8,COM_A_2*%
%TO.N,+10V*%
X261620000Y-38530000D03*
%TO.P,DS5,9,K_F*%
%TO.N,Net-(DS5-Pad9)*%
X264160000Y-38530000D03*
%TO.P,DS5,10,K_G*%
%TO.N,Net-(DS5-Pad10)*%
X266700000Y-38530000D03*
%TD*%
D35*
%TO.P,DS3,1,K_E*%
%TO.N,Net-(DS3-Pad1)*%
X165100000Y-98630000D03*
D36*
%TO.P,DS3,2,K_D*%
%TO.N,Net-(DS3-Pad2)*%
X162560000Y-98630000D03*
%TO.P,DS3,3,COM_A_1*%
%TO.N,+10V*%
X160020000Y-98630000D03*
%TO.P,DS3,4,K_C*%
%TO.N,Net-(DS3-Pad4)*%
X157480000Y-98630000D03*
%TO.P,DS3,5,K_DP*%
%TO.N,Net-(DS3-Pad5)*%
X154940000Y-98630000D03*
%TO.P,DS3,6,K_B*%
%TO.N,Net-(DS3-Pad6)*%
X154940000Y-38530000D03*
%TO.P,DS3,7,K_A*%
%TO.N,Net-(DS3-Pad7)*%
X157480000Y-38530000D03*
%TO.P,DS3,8,COM_A_2*%
%TO.N,+10V*%
X160020000Y-38530000D03*
%TO.P,DS3,9,K_F*%
%TO.N,Net-(DS3-Pad9)*%
X162560000Y-38530000D03*
%TO.P,DS3,10,K_G*%
%TO.N,Net-(DS3-Pad10)*%
X165100000Y-38530000D03*
%TD*%
D37*
%TO.N,Net-(C1-Pad1)*%
X269240000Y-167640000D02*
X259080000Y-177800000D01*
X269240000Y-162560000D02*
X269240000Y-167640000D01*
X276860000Y-157480000D02*
X274320000Y-157480000D01*
X274320000Y-157480000D02*
X269240000Y-162560000D01*
%TO.N,Net-(C2-Pad1)*%
X281940000Y-170740000D02*
X264720000Y-187960000D01*
X281940000Y-170180000D02*
X281940000Y-170740000D01*
X281940000Y-157480000D02*
X281940000Y-170180000D01*
D38*
%TO.N,Net-(J9-Pad2)*%
X162080000Y-180340000D02*
X157480000Y-180340000D01*
X169700000Y-187960000D02*
X162080000Y-180340000D01*
%TO.N,Net-(J7-Pad2)*%
X149860000Y-185420000D02*
X144780000Y-180340000D01*
X149860000Y-187960000D02*
X149860000Y-185420000D01*
%TO.N,Net-(R65-Pad1)*%
X264150000Y-129550000D02*
X260335000Y-129550000D01*
X276860000Y-116840000D02*
X264150000Y-129550000D01*
%TO.N,Net-(R64-Pad1)*%
X261860300Y-126759700D02*
X261860300Y-127010000D01*
X271780000Y-116840000D02*
X261860300Y-126759700D01*
X260335000Y-127010000D02*
X261860300Y-127010000D01*
%TO.N,Net-(R63-Pad1)*%
X261860300Y-121679700D02*
X266700000Y-116840000D01*
X261860300Y-121930000D02*
X261860300Y-121679700D01*
X260335000Y-121930000D02*
X261860300Y-121930000D01*
%TO.N,Net-(R61-Pad1)*%
X260335000Y-132090000D02*
X258809700Y-132090000D01*
X256540000Y-129820300D02*
X256540000Y-116840000D01*
X258809700Y-132090000D02*
X256540000Y-129820300D01*
%TO.N,Net-(R59-Pad1)*%
X255819600Y-131639900D02*
X258809700Y-134630000D01*
X255819600Y-121199600D02*
X255819600Y-131639900D01*
X251460000Y-116840000D02*
X255819600Y-121199600D01*
X260335000Y-134630000D02*
X258809700Y-134630000D01*
%TO.N,Net-(R57-Pad1)*%
X215890000Y-129550000D02*
X209535000Y-129550000D01*
X228600000Y-116840000D02*
X215890000Y-129550000D01*
%TO.N,Net-(R56-Pad1)*%
X213350000Y-127010000D02*
X209535000Y-127010000D01*
X223520000Y-116840000D02*
X213350000Y-127010000D01*
%TO.N,Net-(R54-Pad1)*%
X211060300Y-119139700D02*
X213360000Y-116840000D01*
X211060300Y-124470000D02*
X211060300Y-119139700D01*
X209535000Y-124470000D02*
X211060300Y-124470000D01*
%TO.N,Net-(R53-Pad1)*%
X209535000Y-139710000D02*
X208009700Y-139710000D01*
X205961300Y-137661600D02*
X208009700Y-139710000D01*
X205961300Y-131537300D02*
X205961300Y-137661600D01*
X202704000Y-128280000D02*
X205961300Y-131537300D01*
X200819400Y-128280000D02*
X202704000Y-128280000D01*
X190500000Y-117960600D02*
X200819400Y-128280000D01*
X190500000Y-116840000D02*
X190500000Y-117960600D01*
%TO.N,Net-(R52-Pad1)*%
X208009700Y-117110300D02*
X208009700Y-132090000D01*
X208280000Y-116840000D02*
X208009700Y-117110300D01*
X209535000Y-132090000D02*
X208009700Y-132090000D01*
%TO.N,Net-(R51-Pad1)*%
X207487000Y-134107300D02*
X208009700Y-134630000D01*
X207487000Y-121127000D02*
X207487000Y-134107300D01*
X203200000Y-116840000D02*
X207487000Y-121127000D01*
X209535000Y-134630000D02*
X208009700Y-134630000D01*
%TO.N,Net-(R50-Pad1)*%
X198120000Y-122690200D02*
X198120000Y-116840000D01*
X201169800Y-125740000D02*
X198120000Y-122690200D01*
X202688800Y-125740000D02*
X201169800Y-125740000D01*
X206570900Y-129622100D02*
X202688800Y-125740000D01*
X206570900Y-135731200D02*
X206570900Y-129622100D01*
X208009700Y-137170000D02*
X206570900Y-135731200D01*
X209535000Y-137170000D02*
X208009700Y-137170000D01*
%TO.N,Net-(R45-Pad1)*%
X137160000Y-120164200D02*
X137160000Y-116840000D01*
X142735800Y-125740000D02*
X137160000Y-120164200D01*
X144221300Y-125740000D02*
X142735800Y-125740000D01*
X146244100Y-127762800D02*
X144221300Y-125740000D01*
X146244100Y-136364400D02*
X146244100Y-127762800D01*
X149589700Y-139710000D02*
X146244100Y-136364400D01*
X151115000Y-139710000D02*
X149589700Y-139710000D01*
%TO.N,Net-(R44-Pad1)*%
X154940000Y-129790300D02*
X152640300Y-132090000D01*
X154940000Y-116840000D02*
X154940000Y-129790300D01*
X151115000Y-132090000D02*
X152640300Y-132090000D01*
%TO.N,Net-(R43-Pad1)*%
X149589700Y-117110300D02*
X149589700Y-134630000D01*
X149860000Y-116840000D02*
X149589700Y-117110300D01*
X151115000Y-134630000D02*
X149589700Y-134630000D01*
%TO.N,Net-(R42-Pad1)*%
X148076200Y-120136200D02*
X144780000Y-116840000D01*
X148076200Y-135656500D02*
X148076200Y-120136200D01*
X149589700Y-137170000D02*
X148076200Y-135656500D01*
X151115000Y-137170000D02*
X149589700Y-137170000D01*
%TO.N,Net-(R38-Pad1)*%
X114300000Y-119630300D02*
X109460300Y-124470000D01*
X114300000Y-116840000D02*
X114300000Y-119630300D01*
X107935000Y-124470000D02*
X109460300Y-124470000D01*
%TO.N,Net-(R37-Pad1)*%
X91440000Y-117613300D02*
X91440000Y-116840000D01*
X99566700Y-125740000D02*
X91440000Y-117613300D01*
X101072200Y-125740000D02*
X99566700Y-125740000D01*
X103173200Y-127841000D02*
X101072200Y-125740000D01*
X103173200Y-136473500D02*
X103173200Y-127841000D01*
X106409700Y-139710000D02*
X103173200Y-136473500D01*
X107935000Y-139710000D02*
X106409700Y-139710000D01*
%TO.N,Net-(R36-Pad1)*%
X106409700Y-119650300D02*
X106409700Y-132090000D01*
X109220000Y-116840000D02*
X106409700Y-119650300D01*
X107935000Y-132090000D02*
X106409700Y-132090000D01*
%TO.N,Net-(R35-Pad1)*%
X107935000Y-134630000D02*
X106409700Y-134630000D01*
X105959400Y-134179700D02*
X106409700Y-134630000D01*
X105959400Y-118659400D02*
X105959400Y-134179700D01*
X104140000Y-116840000D02*
X105959400Y-118659400D01*
%TO.N,Net-(R34-Pad1)*%
X105280200Y-136040500D02*
X106409700Y-137170000D01*
X105280200Y-123060200D02*
X105280200Y-136040500D01*
X99060000Y-116840000D02*
X105280200Y-123060200D01*
X107935000Y-137170000D02*
X106409700Y-137170000D01*
%TO.N,Net-(R33-Pad1)*%
X40640000Y-120653200D02*
X40640000Y-116840000D01*
X43042200Y-123055400D02*
X40640000Y-120653200D01*
X45083700Y-123055400D02*
X43042200Y-123055400D01*
X50529700Y-128501400D02*
X45083700Y-123055400D01*
X50529700Y-129550000D02*
X50529700Y-128501400D01*
X52055000Y-129550000D02*
X50529700Y-129550000D01*
%TO.N,Net-(R32-Pad1)*%
X45720000Y-120675000D02*
X45720000Y-116840000D01*
X50529700Y-125484700D02*
X45720000Y-120675000D01*
X50529700Y-127010000D02*
X50529700Y-125484700D01*
X52055000Y-127010000D02*
X50529700Y-127010000D01*
%TO.N,Net-(R26-Pad1)*%
X50529700Y-117110300D02*
X50800000Y-116840000D01*
X50529700Y-124470000D02*
X50529700Y-117110300D01*
X52055000Y-124470000D02*
X50529700Y-124470000D01*
%TO.N,Net-(R21-Pad1)*%
X57504900Y-120295100D02*
X60960000Y-116840000D01*
X57504900Y-130705400D02*
X57504900Y-120295100D01*
X53580300Y-134630000D02*
X57504900Y-130705400D01*
X52055000Y-134630000D02*
X53580300Y-134630000D01*
%TO.N,Net-(R16-Pad1)*%
X33020000Y-123019200D02*
X33020000Y-116840000D01*
X43360800Y-133360000D02*
X33020000Y-123019200D01*
X45228300Y-133360000D02*
X43360800Y-133360000D01*
X50529700Y-138661400D02*
X45228300Y-133360000D01*
X50529700Y-139710000D02*
X50529700Y-138661400D01*
X52055000Y-139710000D02*
X50529700Y-139710000D01*
%TO.N,Net-(R11-Pad1)*%
X66040000Y-119505000D02*
X66040000Y-116840000D01*
X59188500Y-126356500D02*
X66040000Y-119505000D01*
X59188500Y-131561800D02*
X59188500Y-126356500D01*
X53580300Y-137170000D02*
X59188500Y-131561800D01*
X52055000Y-137170000D02*
X53580300Y-137170000D01*
%TO.N,Net-(R6-Pad1)*%
X53580300Y-119139700D02*
X55880000Y-116840000D01*
X53580300Y-132090000D02*
X53580300Y-119139700D01*
X52055000Y-132090000D02*
X53580300Y-132090000D01*
%TO.N,Net-(IC7-Pad3)*%
X212747100Y-190047100D02*
X209550000Y-186850000D01*
X241630300Y-190047100D02*
X212747100Y-190047100D01*
X257798500Y-173878900D02*
X241630300Y-190047100D01*
X257798500Y-158344900D02*
X257798500Y-173878900D01*
X262251800Y-153891600D02*
X257798500Y-158344900D01*
X262251800Y-134468200D02*
X262251800Y-153891600D01*
X266700000Y-130020000D02*
X262251800Y-134468200D01*
%TO.N,Net-(IC6-Pad9)*%
X200389700Y-137590300D02*
X200389700Y-137170000D01*
X197010000Y-140970000D02*
X200389700Y-137590300D01*
X201915000Y-137170000D02*
X200389700Y-137170000D01*
%TO.N,Net-(IC6-Pad10)*%
X200389700Y-135050300D02*
X200389700Y-134630000D01*
X197010000Y-138430000D02*
X200389700Y-135050300D01*
X201915000Y-134630000D02*
X200389700Y-134630000D01*
%TO.N,Net-(IC6-Pad11)*%
X200389700Y-132510300D02*
X200389700Y-132090000D01*
X197010000Y-135890000D02*
X200389700Y-132510300D01*
X201915000Y-132090000D02*
X200389700Y-132090000D01*
%TO.N,Net-(IC6-Pad12)*%
X200389700Y-129970300D02*
X200389700Y-129550000D01*
X197010000Y-133350000D02*
X200389700Y-129970300D01*
X201915000Y-129550000D02*
X200389700Y-129550000D01*
%TO.N,Net-(IC5-Pad10)*%
X141969700Y-135050300D02*
X138590000Y-138430000D01*
X141969700Y-134630000D02*
X141969700Y-135050300D01*
X143495000Y-134630000D02*
X141969700Y-134630000D01*
%TO.N,Net-(IC5-Pad11)*%
X141969700Y-132510300D02*
X138590000Y-135890000D01*
X141969700Y-132090000D02*
X141969700Y-132510300D01*
X143495000Y-132090000D02*
X141969700Y-132090000D01*
%TO.N,Net-(IC5-Pad12)*%
X141969700Y-129970300D02*
X138590000Y-133350000D01*
X141969700Y-129550000D02*
X141969700Y-129970300D01*
X143495000Y-129550000D02*
X141969700Y-129550000D01*
%TO.N,Net-(IC5-Pad13)*%
X141969700Y-127430300D02*
X138590000Y-130810000D01*
X141969700Y-127010000D02*
X141969700Y-127430300D01*
X143495000Y-127010000D02*
X141969700Y-127010000D01*
%TO.N,Net-(IC2-Pad9)*%
X42909700Y-137590300D02*
X39530000Y-140970000D01*
X42909700Y-137170000D02*
X42909700Y-137590300D01*
X44435000Y-137170000D02*
X42909700Y-137170000D01*
%TO.N,Net-(IC2-Pad10)*%
X42909700Y-135050300D02*
X39530000Y-138430000D01*
X42909700Y-134630000D02*
X42909700Y-135050300D01*
X44435000Y-134630000D02*
X42909700Y-134630000D01*
%TO.N,Net-(IC2-Pad14)*%
X42909700Y-124890300D02*
X39530000Y-128270000D01*
X42909700Y-124470000D02*
X42909700Y-124890300D01*
X44435000Y-124470000D02*
X42909700Y-124470000D01*
%TO.N,Net-(IC1-Pad1)*%
X67416300Y-126354000D02*
X72230000Y-121540300D01*
X67416300Y-130637600D02*
X67416300Y-126354000D01*
X60764500Y-137289400D02*
X67416300Y-130637600D01*
X56547500Y-137289400D02*
X60764500Y-137289400D01*
X52945500Y-140891400D02*
X56547500Y-137289400D01*
X47141700Y-140891400D02*
X52945500Y-140891400D01*
X45960300Y-139710000D02*
X47141700Y-140891400D01*
X44435000Y-139710000D02*
X45960300Y-139710000D01*
X72230000Y-120650000D02*
X72230000Y-121540300D01*
%TO.N,Net-(DS2-Pad5)*%
X100615300Y-98630000D02*
X92565300Y-106680000D01*
X104140000Y-98630000D02*
X100615300Y-98630000D01*
X91440000Y-106680000D02*
X92565300Y-106680000D01*
D37*
%TO.N,+10V*%
X248434500Y-157065500D02*
X248434500Y-111760000D01*
X246380000Y-159120000D02*
X248434500Y-157065500D01*
X246380000Y-182880000D02*
X246380000Y-159120000D01*
X253228300Y-111760000D02*
X248434500Y-111760000D01*
X261620000Y-103368300D02*
X253228300Y-111760000D01*
X261620000Y-98630000D02*
X261620000Y-103368300D01*
X210820000Y-105935400D02*
X210820000Y-98630000D01*
X216644600Y-111760000D02*
X210820000Y-105935400D01*
X248434500Y-111760000D02*
X216644600Y-111760000D01*
D38*
%TO.N,Reset*%
X93006300Y-177645300D02*
X92725000Y-177645300D01*
X99075000Y-183714000D02*
X93006300Y-177645300D01*
X99075000Y-185915000D02*
X99075000Y-183714000D01*
X103660000Y-190500000D02*
X99075000Y-185915000D01*
X92725000Y-176520000D02*
X92725000Y-177645300D01*
X91060400Y-173730100D02*
X92725000Y-175394700D01*
X91060400Y-161086100D02*
X91060400Y-173730100D01*
X85245400Y-155271100D02*
X91060400Y-161086100D01*
X85245400Y-135885400D02*
X85245400Y-155271100D01*
X80170000Y-130810000D02*
X85245400Y-135885400D01*
X92725000Y-176520000D02*
X92725000Y-175394700D01*
X181770000Y-132950100D02*
X181770000Y-133350000D01*
X183419600Y-131300500D02*
X181770000Y-132950100D01*
X183419600Y-127231400D02*
X183419600Y-131300500D01*
X188381400Y-122269600D02*
X183419600Y-127231400D01*
X189769300Y-122269600D02*
X188381400Y-122269600D01*
X196119600Y-128619900D02*
X189769300Y-122269600D01*
X196119600Y-143716200D02*
X196119600Y-128619900D01*
X198498800Y-146095400D02*
X196119600Y-143716200D01*
X198498800Y-166599500D02*
X198498800Y-146095400D01*
X201433300Y-169534000D02*
X198498800Y-166599500D01*
X201433300Y-177209000D02*
X201433300Y-169534000D01*
X211074300Y-186850000D02*
X201433300Y-177209000D01*
X212090000Y-186850000D02*
X211074300Y-186850000D01*
X175970100Y-132950100D02*
X173830000Y-130810000D01*
X181770000Y-132950100D02*
X175970100Y-132950100D01*
%TO.N,Net-(D17-Pad2)*%
X112874700Y-183236300D02*
X112874700Y-182880000D01*
X104233500Y-191877500D02*
X112874700Y-183236300D01*
X102904100Y-191877500D02*
X104233500Y-191877500D01*
X96291900Y-185265300D02*
X102904100Y-191877500D01*
X94694200Y-185265300D02*
X96291900Y-185265300D01*
X93850300Y-184421400D02*
X94694200Y-185265300D01*
X93850300Y-184140000D02*
X93850300Y-184421400D01*
X92725000Y-184140000D02*
X93850300Y-184140000D01*
X114300000Y-182880000D02*
X112874700Y-182880000D01*
%TO.N,Net-(D17-Pad1)*%
X141538800Y-191681200D02*
X145260000Y-187960000D01*
X129072000Y-191681200D02*
X141538800Y-191681200D01*
X115725300Y-178334500D02*
X129072000Y-191681200D01*
X115725300Y-177800000D02*
X115725300Y-178334500D01*
X114300000Y-177800000D02*
X115725300Y-177800000D01*
%TO.N,Net-(C7-Pad1)*%
X167640000Y-168785300D02*
X167640000Y-170180000D01*
X176540000Y-159885300D02*
X167640000Y-168785300D01*
X176540000Y-158760000D02*
X176540000Y-159885300D01*
%TO.N,Net-(C5-Pad1)*%
X121920000Y-158625300D02*
X123200000Y-157345300D01*
X121920000Y-167640000D02*
X121920000Y-158625300D01*
X123200000Y-156220000D02*
X123200000Y-157345300D01*
%TO.N,/Dice1/D2R*%
X79980000Y-175070300D02*
X82550000Y-172500300D01*
X79980000Y-177800000D02*
X79980000Y-175070300D01*
X73630000Y-184150000D02*
X79980000Y-177800000D01*
X82550000Y-171610000D02*
X82550000Y-172500300D01*
%TO.N,/Dice1/D2Hold*%
X49389200Y-191629200D02*
X43180000Y-185420000D01*
X53808100Y-191629200D02*
X49389200Y-191629200D01*
X63477000Y-181960300D02*
X53808100Y-191629200D01*
X63477000Y-173330600D02*
X63477000Y-181960300D01*
X76639500Y-160168100D02*
X63477000Y-173330600D01*
X76639500Y-129260500D02*
X76639500Y-160168100D01*
X80170000Y-125730000D02*
X76639500Y-129260500D01*
%TO.N,/Dice1/D2Latch*%
X84018500Y-129898500D02*
X87470000Y-133350000D01*
X79800800Y-129898500D02*
X84018500Y-129898500D01*
X79146800Y-130552500D02*
X79800800Y-129898500D01*
X79146800Y-161710800D02*
X79146800Y-130552500D01*
X64246700Y-176610900D02*
X79146800Y-161710800D01*
X64246700Y-181828100D02*
X64246700Y-176610900D01*
X53995200Y-192079600D02*
X64246700Y-181828100D01*
X47299600Y-192079600D02*
X53995200Y-192079600D01*
X40640000Y-185420000D02*
X47299600Y-192079600D01*
%TO.N,Net-(IC1-Pad2)*%
X30859600Y-182134300D02*
X33020000Y-184294700D01*
X30859600Y-163289400D02*
X30859600Y-182134300D01*
X32517600Y-161631400D02*
X30859600Y-163289400D01*
X41086500Y-161631400D02*
X32517600Y-161631400D01*
X43503500Y-159214400D02*
X41086500Y-161631400D01*
X43503500Y-155531300D02*
X43503500Y-159214400D01*
X59324800Y-139710000D02*
X43503500Y-155531300D01*
X60086600Y-139710000D02*
X59324800Y-139710000D01*
X69102000Y-130694600D02*
X60086600Y-139710000D01*
X69102000Y-126318000D02*
X69102000Y-130694600D01*
X72230000Y-123190000D02*
X69102000Y-126318000D01*
X33020000Y-185420000D02*
X33020000Y-184294700D01*
%TO.N,Net-(U2-Pad3)*%
X51408000Y-149272000D02*
X59700000Y-140980000D01*
X51408000Y-151946800D02*
X51408000Y-149272000D01*
X41273100Y-162081700D02*
X51408000Y-151946800D01*
X35878300Y-162081700D02*
X41273100Y-162081700D01*
X34290000Y-163670000D02*
X35878300Y-162081700D01*
%TO.N,Net-(C12-Pad1)*%
X263181400Y-165254700D02*
X262900000Y-165254700D01*
X283354700Y-145081400D02*
X263181400Y-165254700D01*
X283354700Y-141950600D02*
X283354700Y-145081400D01*
X284480000Y-140825300D02*
X283354700Y-141950600D01*
X284480000Y-139700000D02*
X284480000Y-140825300D01*
X262900000Y-166380000D02*
X262900000Y-165254700D01*
X254000000Y-162138000D02*
X254000000Y-152400000D01*
X254576700Y-162714700D02*
X254000000Y-162138000D01*
X255280000Y-162714700D02*
X254576700Y-162714700D01*
X255280000Y-163840000D02*
X255280000Y-162714700D01*
%TO.N,Net-(R23-Pad2)*%
X263181300Y-162714700D02*
X262900000Y-162714700D01*
X272466300Y-153429700D02*
X263181300Y-162714700D01*
X272466300Y-141553700D02*
X272466300Y-153429700D01*
X274320000Y-139700000D02*
X272466300Y-141553700D01*
X262900000Y-163840000D02*
X262900000Y-162714700D01*
%TO.N,Net-(C10-Pad1)*%
X211945300Y-149570600D02*
X210820000Y-148445300D01*
X211945300Y-163074400D02*
X211945300Y-149570600D01*
X205740000Y-169279700D02*
X211945300Y-163074400D01*
X205740000Y-170180000D02*
X205740000Y-169279700D01*
X210820000Y-147320000D02*
X210820000Y-148445300D01*
X225925300Y-153680000D02*
X229880000Y-153680000D01*
X223385300Y-151140000D02*
X225925300Y-153680000D01*
X222260000Y-151140000D02*
X223385300Y-151140000D01*
%TO.N,Net-(R18-Pad2)*%
X205740000Y-152400000D02*
X205740000Y-147320000D01*
X210820000Y-157480000D02*
X205740000Y-152400000D01*
%TO.N,Net-(C8-Pad1)*%
X176540000Y-156220000D02*
X175414700Y-156220000D01*
X168920000Y-153680000D02*
X168920000Y-154805300D01*
X158020000Y-170180000D02*
X158020000Y-169279700D01*
X167794600Y-159505100D02*
X158020000Y-169279700D01*
X167794600Y-159229800D02*
X167794600Y-159505100D01*
X167794700Y-159229800D02*
X167794600Y-159229800D01*
X168478100Y-159913200D02*
X167794700Y-159229800D01*
X171721500Y-159913200D02*
X168478100Y-159913200D01*
X175414700Y-156220000D02*
X171721500Y-159913200D01*
X168638600Y-154805300D02*
X168920000Y-154805300D01*
X167794700Y-155649200D02*
X168638600Y-154805300D01*
X167794700Y-159229800D02*
X167794700Y-155649200D01*
%TO.N,Net-(R13-Pad2)*%
X154940000Y-154940000D02*
X154940000Y-149860000D01*
X160020000Y-160020000D02*
X154940000Y-154940000D01*
%TO.N,Net-(IC4-Pad3)*%
X172180400Y-126620400D02*
X173830000Y-128270000D01*
X172180400Y-124666800D02*
X172180400Y-126620400D01*
X168399100Y-120885500D02*
X172180400Y-124666800D01*
X164201500Y-120885500D02*
X168399100Y-120885500D01*
X162786000Y-122301000D02*
X164201500Y-120885500D01*
%TO.N,Net-(C6-Pad1)*%
X109220000Y-165100000D02*
X110120300Y-165100000D01*
X139700000Y-185420000D02*
X138574700Y-185420000D01*
X115580000Y-151140000D02*
X115580000Y-152265300D01*
X111559100Y-166043200D02*
X113142700Y-164459600D01*
X110838400Y-166043200D02*
X111559100Y-166043200D01*
X110120300Y-165325100D02*
X110838400Y-166043200D01*
X110120300Y-165100000D02*
X110120300Y-165325100D01*
X115298600Y-152265300D02*
X115580000Y-152265300D01*
X114454700Y-153109200D02*
X115298600Y-152265300D01*
X114454700Y-163147600D02*
X114454700Y-153109200D01*
X113142700Y-164459600D02*
X114454700Y-163147600D01*
X137429400Y-186565300D02*
X138574700Y-185420000D01*
X129066000Y-186565300D02*
X137429400Y-186565300D01*
X127949400Y-185448700D02*
X129066000Y-186565300D01*
X127949400Y-180525500D02*
X127949400Y-185448700D01*
X127499100Y-180075200D02*
X127949400Y-180525500D01*
X127499100Y-178816100D02*
X127499100Y-180075200D01*
X113142700Y-164459600D02*
X127499100Y-178816100D01*
%TO.N,Net-(R8-Pad2)*%
X123200000Y-151140000D02*
X123200000Y-152265300D01*
X123481300Y-152265300D02*
X123200000Y-152265300D01*
X128399800Y-157183800D02*
X123481300Y-152265300D01*
X128399800Y-180861100D02*
X128399800Y-157183800D01*
X130754100Y-183215300D02*
X128399800Y-180861100D01*
X133629400Y-180340000D02*
X130754100Y-183215300D01*
X139700000Y-180340000D02*
X133629400Y-180340000D01*
X129540000Y-184429400D02*
X129540000Y-185420000D01*
X130754100Y-183215300D02*
X129540000Y-184429400D01*
%TO.N,Net-(C4-Pad1)*%
X56780300Y-167865200D02*
X56780300Y-167640000D01*
X57455400Y-168540300D02*
X56780300Y-167865200D01*
X58645000Y-168540300D02*
X57455400Y-168540300D01*
X68580000Y-158605300D02*
X58645000Y-168540300D01*
X68580000Y-157480000D02*
X68580000Y-158605300D01*
X55880000Y-167640000D02*
X56780300Y-167640000D01*
%TO.N,Net-(R3-Pad2)*%
X67320000Y-138440000D02*
X67320000Y-139565300D01*
X68457700Y-140421700D02*
X68457700Y-148692600D01*
X67601300Y-139565300D02*
X68457700Y-140421700D01*
X67320000Y-139565300D02*
X67601300Y-139565300D01*
X68499800Y-148734700D02*
X68457700Y-148692600D01*
X68580000Y-148734700D02*
X68499800Y-148734700D01*
X67207400Y-148692600D02*
X58420000Y-157480000D01*
X68457700Y-148692600D02*
X67207400Y-148692600D01*
X68580000Y-149860000D02*
X68580000Y-148734700D01*
%TO.N,Net-(IC1-Pad3)*%
X53340000Y-182379600D02*
X53340000Y-190500000D01*
X70745300Y-164974300D02*
X53340000Y-182379600D01*
X70745300Y-127214700D02*
X70745300Y-164974300D01*
X72230000Y-125730000D02*
X70745300Y-127214700D01*
%TO.N,/Dice1/Roll*%
X45720000Y-185420000D02*
X45720000Y-178931100D01*
X45720000Y-178931100D02*
X45720000Y-177800000D01*
X36691100Y-184288900D02*
X35560000Y-185420000D01*
X36691100Y-178931100D02*
X36691100Y-184288900D01*
X45720000Y-178931100D02*
X36691100Y-178931100D01*
X36691100Y-178931100D02*
X35560000Y-177800000D01*
D37*
%TO.N,+5V*%
X254736100Y-167669700D02*
X255280000Y-167669700D01*
X250190000Y-163123600D02*
X254736100Y-167669700D01*
X250190000Y-161130000D02*
X250190000Y-163123600D01*
X255280000Y-168920000D02*
X255280000Y-167669700D01*
X72230000Y-133350000D02*
X72230000Y-130810000D01*
X262900000Y-138420000D02*
X262900000Y-161300000D01*
X266700000Y-134620000D02*
X262900000Y-138420000D01*
X66040000Y-129540000D02*
X66040000Y-121920000D01*
X217170000Y-178910000D02*
X217170000Y-186850000D01*
X205542900Y-179982900D02*
X204470000Y-178910000D01*
X207762900Y-179982900D02*
X205542900Y-179982900D01*
X214630000Y-186850000D02*
X207762900Y-179982900D01*
X187990000Y-167450000D02*
X189230000Y-166210000D01*
X182850000Y-167450000D02*
X187990000Y-167450000D01*
X182850000Y-179070000D02*
X182850000Y-167450000D01*
X182850000Y-167450000D02*
X181610000Y-166210000D01*
X204470000Y-171290000D02*
X199390000Y-166210000D01*
X204470000Y-178910000D02*
X204470000Y-171290000D01*
X167800000Y-122715000D02*
X167800000Y-129540000D01*
X167386000Y-122301000D02*
X167800000Y-122715000D01*
X186850000Y-130810000D02*
X181770000Y-135890000D01*
X189070000Y-130810000D02*
X186850000Y-130810000D01*
X60243900Y-142269700D02*
X59700000Y-142269700D01*
X66069700Y-136443900D02*
X60243900Y-142269700D01*
X66069700Y-135900000D02*
X66069700Y-136443900D01*
X67320000Y-135900000D02*
X66069700Y-135900000D01*
X59700000Y-143520000D02*
X59700000Y-144770300D01*
X80170000Y-133350000D02*
X80170000Y-135890000D01*
X129540000Y-172560000D02*
X129540000Y-180340000D01*
X135890000Y-166210000D02*
X129540000Y-172560000D01*
X168920000Y-158760000D02*
X170170300Y-158760000D01*
X237330000Y-128270000D02*
X237330000Y-125730000D01*
X33020000Y-164720600D02*
X33020000Y-177800000D01*
X38319400Y-164720600D02*
X33020000Y-164720600D01*
X39370000Y-163670000D02*
X38319400Y-164720600D01*
X32800600Y-164720600D02*
X31750000Y-163670000D01*
X33020000Y-164720600D02*
X32800600Y-164720600D01*
X173980300Y-154950000D02*
X175289600Y-154950000D01*
X170170300Y-158760000D02*
X173980300Y-154950000D01*
X181610000Y-159457300D02*
X181610000Y-166210000D01*
X177102700Y-154950000D02*
X181610000Y-159457300D01*
X175289600Y-154950000D02*
X177102700Y-154950000D01*
X175289600Y-153093700D02*
X175289600Y-154950000D01*
X175993000Y-152390300D02*
X175289600Y-153093700D01*
X176540000Y-152390300D02*
X175993000Y-152390300D01*
X176540000Y-151140000D02*
X176540000Y-152390300D01*
X176540000Y-140134800D02*
X177307400Y-139367400D01*
X176540000Y-151140000D02*
X176540000Y-140134800D01*
X177307400Y-139367400D02*
X173830000Y-135890000D01*
X180832600Y-139367400D02*
X181770000Y-138430000D01*
X177307400Y-139367400D02*
X180832600Y-139367400D01*
X181770000Y-138430000D02*
X181770000Y-135890000D01*
X80170000Y-120970000D02*
X80170000Y-120650000D01*
X87470000Y-128270000D02*
X80170000Y-120970000D01*
X142459500Y-165159500D02*
X136940500Y-165159500D01*
X143510000Y-166210000D02*
X142459500Y-165159500D01*
X136940500Y-165159500D02*
X135890000Y-166210000D01*
X171610000Y-133350000D02*
X167800000Y-129540000D01*
X173830000Y-133350000D02*
X171610000Y-133350000D01*
X59700000Y-143520000D02*
X59700000Y-142269700D01*
X89147100Y-174231800D02*
X90185000Y-175269700D01*
X89147100Y-164692900D02*
X89147100Y-174231800D01*
X90170000Y-163670000D02*
X89147100Y-164692900D01*
X123200000Y-148600000D02*
X123200000Y-149841900D01*
X123735500Y-149841900D02*
X123200000Y-149841900D01*
X136940500Y-163046900D02*
X123735500Y-149841900D01*
X136940500Y-165159500D02*
X136940500Y-163046900D01*
X116830300Y-155675000D02*
X116830300Y-156220000D01*
X122663400Y-149841900D02*
X116830300Y-155675000D01*
X123200000Y-149841900D02*
X122663400Y-149841900D01*
X115580000Y-156220000D02*
X116830300Y-156220000D01*
X123200000Y-138260000D02*
X130650000Y-130810000D01*
X123200000Y-148600000D02*
X123200000Y-138260000D01*
X130650000Y-130810000D02*
X130650000Y-128270000D01*
X229880000Y-135720000D02*
X237330000Y-128270000D01*
X229880000Y-148600000D02*
X229880000Y-135720000D01*
X222260000Y-156220000D02*
X223510300Y-156220000D01*
X229880000Y-148600000D02*
X229880000Y-149850300D01*
X224814500Y-157524200D02*
X231169600Y-157524200D01*
X223510300Y-156220000D02*
X224814500Y-157524200D01*
X230423900Y-149850300D02*
X229880000Y-149850300D01*
X231169600Y-150596000D02*
X230423900Y-149850300D01*
X231169600Y-157524200D02*
X231169600Y-150596000D01*
X231169600Y-159889600D02*
X232410000Y-161130000D01*
X231169600Y-157524200D02*
X231169600Y-159889600D01*
X236458100Y-180578100D02*
X238760000Y-182880000D01*
X236458100Y-162199900D02*
X236458100Y-180578100D01*
X233479900Y-162199900D02*
X236458100Y-162199900D01*
X232410000Y-161130000D02*
X233479900Y-162199900D01*
X238960100Y-162199900D02*
X240030000Y-161130000D01*
X236458100Y-162199900D02*
X238960100Y-162199900D01*
X81214800Y-136934800D02*
X80170000Y-135890000D01*
X81214800Y-162334800D02*
X81214800Y-136934800D01*
X82550000Y-163670000D02*
X81214800Y-162334800D01*
X80205200Y-162334800D02*
X66010000Y-176530000D01*
X81214800Y-162334800D02*
X80205200Y-162334800D01*
X58420000Y-146050300D02*
X58420000Y-149860000D01*
X59700000Y-144770300D02*
X58420000Y-146050300D01*
X49530000Y-158750000D02*
X49530000Y-163670000D01*
X58420000Y-149860000D02*
X49530000Y-158750000D01*
X90185000Y-175894800D02*
X90185000Y-175269700D01*
X90185000Y-175894800D02*
X90185000Y-176520000D01*
X90185000Y-176520000D02*
X90185000Y-177770300D01*
X96030800Y-190500000D02*
X91435400Y-185904600D01*
X99060000Y-190500000D02*
X96030800Y-190500000D01*
X91435400Y-179020700D02*
X91435400Y-185904600D01*
X90185000Y-177770300D02*
X91435400Y-179020700D01*
X91435400Y-185904600D02*
X86840000Y-190500000D01*
D38*
%TO.N,Net-(DS5-Pad10)*%
X262745300Y-104429400D02*
X261620000Y-105554700D01*
X262745300Y-42484700D02*
X262745300Y-104429400D01*
X266700000Y-38530000D02*
X262745300Y-42484700D01*
X261620000Y-106680000D02*
X261620000Y-105554700D01*
%TO.N,Net-(DS5-Pad6)*%
X276860000Y-47132000D02*
X276860000Y-106680000D01*
X267141000Y-37413000D02*
X276860000Y-47132000D01*
X257657000Y-37413000D02*
X267141000Y-37413000D01*
X256540000Y-38530000D02*
X257657000Y-37413000D01*
%TO.N,Net-(DS5-Pad4)*%
X259080000Y-103014700D02*
X256540000Y-105554700D01*
X259080000Y-98630000D02*
X259080000Y-103014700D01*
X256540000Y-106680000D02*
X256540000Y-105554700D01*
%TO.N,Net-(DS4-Pad10)*%
X214485300Y-104429400D02*
X213360000Y-105554700D01*
X214485300Y-39944700D02*
X214485300Y-104429400D01*
X215900000Y-38530000D02*
X214485300Y-39944700D01*
X213360000Y-106680000D02*
X213360000Y-105554700D01*
%TO.N,Net-(DS4-Pad9)*%
X218440000Y-39515900D02*
X218440000Y-106680000D01*
X216368700Y-37444600D02*
X218440000Y-39515900D01*
X214445400Y-37444600D02*
X216368700Y-37444600D01*
X213360000Y-38530000D02*
X214445400Y-37444600D01*
%TO.N,Net-(DS4-Pad7)*%
X223520000Y-43959000D02*
X223520000Y-106680000D01*
X216498300Y-36937300D02*
X223520000Y-43959000D01*
X209872700Y-36937300D02*
X216498300Y-36937300D01*
X208280000Y-38530000D02*
X209872700Y-36937300D01*
%TO.N,Net-(DS4-Pad6)*%
X228600000Y-48365000D02*
X228600000Y-106680000D01*
X216690900Y-36455900D02*
X228600000Y-48365000D01*
X207814100Y-36455900D02*
X216690900Y-36455900D01*
X205740000Y-38530000D02*
X207814100Y-36455900D01*
%TO.N,Net-(DS4-Pad4)*%
X208280000Y-98630000D02*
X208280000Y-106680000D01*
%TO.N,Net-(DS4-Pad2)*%
X207010000Y-101744700D02*
X203200000Y-105554700D01*
X207010000Y-98366100D02*
X207010000Y-101744700D01*
X207840100Y-97536000D02*
X207010000Y-98366100D01*
X212266000Y-97536000D02*
X207840100Y-97536000D01*
X213360000Y-98630000D02*
X212266000Y-97536000D01*
X203200000Y-106680000D02*
X203200000Y-105554700D01*
%TO.N,Net-(DS3-Pad10)*%
X161145300Y-104429400D02*
X160020000Y-105554700D01*
X161145300Y-42484700D02*
X161145300Y-104429400D01*
X165100000Y-38530000D02*
X161145300Y-42484700D01*
X160020000Y-106680000D02*
X160020000Y-105554700D01*
%TO.N,Net-(DS3-Pad9)*%
X166175300Y-104479400D02*
X165100000Y-105554700D01*
X166175300Y-38072100D02*
X166175300Y-104479400D01*
X165522300Y-37419100D02*
X166175300Y-38072100D01*
X163670900Y-37419100D02*
X165522300Y-37419100D01*
X162560000Y-38530000D02*
X163670900Y-37419100D01*
X165100000Y-106680000D02*
X165100000Y-105554700D01*
%TO.N,Net-(DS3-Pad7)*%
X170180000Y-106680000D02*
X170180000Y-105554700D01*
X170180000Y-41439900D02*
X170180000Y-105554700D01*
X165697500Y-36957400D02*
X170180000Y-41439900D01*
X159052600Y-36957400D02*
X165697500Y-36957400D01*
X157480000Y-38530000D02*
X159052600Y-36957400D01*
%TO.N,Net-(DS3-Pad6)*%
X175260000Y-45880900D02*
X175260000Y-106680000D01*
X165845500Y-36466400D02*
X175260000Y-45880900D01*
X157003600Y-36466400D02*
X165845500Y-36466400D01*
X154940000Y-38530000D02*
X157003600Y-36466400D01*
%TO.N,Net-(DS3-Pad4)*%
X157480000Y-103014700D02*
X154940000Y-105554700D01*
X157480000Y-98630000D02*
X157480000Y-103014700D01*
X154940000Y-106680000D02*
X154940000Y-105554700D01*
%TO.N,Net-(DS2-Pad10)*%
X115375300Y-104479400D02*
X114300000Y-105554700D01*
X115375300Y-39605300D02*
X115375300Y-104479400D01*
X114300000Y-38530000D02*
X115375300Y-39605300D01*
X114300000Y-106680000D02*
X114300000Y-105554700D01*
%TO.N,Net-(DS2-Pad9)*%
X119380000Y-42060400D02*
X119380000Y-106680000D01*
X114771200Y-37451600D02*
X119380000Y-42060400D01*
X112838400Y-37451600D02*
X114771200Y-37451600D01*
X111760000Y-38530000D02*
X112838400Y-37451600D01*
%TO.N,Net-(DS2-Pad7)*%
X124460000Y-46466000D02*
X124460000Y-105554700D01*
X114941900Y-36947900D02*
X124460000Y-46466000D01*
X108262100Y-36947900D02*
X114941900Y-36947900D01*
X106680000Y-38530000D02*
X108262100Y-36947900D01*
X124460000Y-106680000D02*
X124460000Y-105554700D01*
%TO.N,Net-(DS2-Pad6)*%
X106172400Y-36497600D02*
X104140000Y-38530000D01*
X115128500Y-36497600D02*
X106172400Y-36497600D01*
X129540000Y-50909100D02*
X115128500Y-36497600D01*
X129540000Y-106680000D02*
X129540000Y-50909100D01*
%TO.N,/Dice1/D2Q*%
X97949300Y-139710000D02*
X100315000Y-139710000D01*
X87399700Y-129160400D02*
X97949300Y-139710000D01*
X86140400Y-129160400D02*
X87399700Y-129160400D01*
X80170000Y-123190000D02*
X86140400Y-129160400D01*
%TO.N,Net-(DS2-Pad4)*%
X106680000Y-103014700D02*
X109220000Y-105554700D01*
X106680000Y-98630000D02*
X106680000Y-103014700D01*
X109220000Y-106680000D02*
X109220000Y-105554700D01*
%TO.N,Net-(DS2-Pad2)*%
X105265300Y-104429400D02*
X104140000Y-105554700D01*
X105265300Y-98516700D02*
X105265300Y-104429400D01*
X106255200Y-97526800D02*
X105265300Y-98516700D01*
X110656800Y-97526800D02*
X106255200Y-97526800D01*
X111760000Y-98630000D02*
X110656800Y-97526800D01*
X104140000Y-106680000D02*
X104140000Y-105554700D01*
%TO.N,Net-(DS1-Pad10)*%
X50800000Y-51230000D02*
X63500000Y-38530000D01*
X50800000Y-106680000D02*
X50800000Y-51230000D01*
%TO.N,Net-(DS1-Pad9)*%
X71120000Y-44591600D02*
X71120000Y-106680000D01*
X63941100Y-37412700D02*
X71120000Y-44591600D01*
X62077300Y-37412700D02*
X63941100Y-37412700D01*
X60960000Y-38530000D02*
X62077300Y-37412700D01*
%TO.N,Net-(DS1-Pad7)*%
X45720000Y-48690000D02*
X55880000Y-38530000D01*
X45720000Y-106680000D02*
X45720000Y-48690000D01*
%TO.N,Net-(DS1-Pad6)*%
X40640000Y-51230000D02*
X40640000Y-106680000D01*
X53340000Y-38530000D02*
X40640000Y-51230000D01*
%TO.N,Net-(DS1-Pad4)*%
X55880000Y-98630000D02*
X55880000Y-106680000D01*
%TO.N,Net-(DS1-Pad2)*%
X60960000Y-98630000D02*
X60960000Y-106680000D01*
%TO.N,Net-(DS1-Pad1)*%
X66040000Y-102245300D02*
X66040000Y-106680000D01*
X63500000Y-99705300D02*
X66040000Y-102245300D01*
X63500000Y-98630000D02*
X63500000Y-99705300D01*
%TO.N,Net-(D16-Pad2)*%
X246380000Y-154270000D02*
X244954700Y-154270000D01*
X243053600Y-154270000D02*
X244954700Y-154270000D01*
X243053600Y-155566400D02*
X243053600Y-154270000D01*
X237490000Y-161130000D02*
X243053600Y-155566400D01*
X238226300Y-124086300D02*
X237330000Y-123190000D01*
X238226300Y-149442700D02*
X238226300Y-124086300D01*
X243053600Y-154270000D02*
X238226300Y-149442700D01*
%TO.N,Net-(D15-Pad2)*%
X238979600Y-123189900D02*
X237330000Y-121540300D01*
X238979600Y-133972800D02*
X238979600Y-123189900D01*
X247827200Y-142820400D02*
X238979600Y-133972800D01*
X247827200Y-146317500D02*
X247827200Y-142820400D01*
X246380000Y-147764700D02*
X247827200Y-146317500D01*
X246380000Y-149190000D02*
X246380000Y-147764700D01*
X237330000Y-120650000D02*
X237330000Y-121540300D01*
%TO.N,Net-(D14-Pad2)*%
X244954700Y-146960600D02*
X246380000Y-145535300D01*
X244954700Y-149910900D02*
X244954700Y-146960600D01*
X247806000Y-152762200D02*
X244954700Y-149910900D01*
X247806000Y-156095300D02*
X247806000Y-152762200D01*
X244212500Y-159688800D02*
X247806000Y-156095300D01*
X244212500Y-168172500D02*
X244212500Y-159688800D01*
X245110000Y-169070000D02*
X244212500Y-168172500D01*
X246380000Y-144110000D02*
X246380000Y-145535300D01*
%TO.N,Net-(D14-Pad1)*%
X236220000Y-149190000D02*
X236220000Y-154270000D01*
%TO.N,Net-(D13-Pad2)*%
X189994700Y-150469400D02*
X195580000Y-156054700D01*
X189994700Y-126654700D02*
X189994700Y-150469400D01*
X189070000Y-125730000D02*
X189994700Y-126654700D01*
X195580000Y-157480000D02*
X195580000Y-156054700D01*
X194154700Y-158745300D02*
X194154700Y-157480000D01*
X186690000Y-166210000D02*
X194154700Y-158745300D01*
X195580000Y-157480000D02*
X194154700Y-157480000D01*
%TO.N,Net-(D12-Pad2)*%
X194310000Y-161801700D02*
X194310000Y-166210000D01*
X197054400Y-159057300D02*
X194310000Y-161801700D01*
X197054400Y-155299700D02*
X197054400Y-159057300D01*
X195580000Y-153825300D02*
X197054400Y-155299700D01*
X195580000Y-152400000D02*
X195580000Y-153825300D01*
X194154700Y-149549400D02*
X195580000Y-150974700D01*
X194154700Y-129165000D02*
X194154700Y-149549400D01*
X189070000Y-124080300D02*
X194154700Y-129165000D01*
X189070000Y-123190000D02*
X189070000Y-124080300D01*
X195580000Y-152400000D02*
X195580000Y-150974700D01*
%TO.N,Net-(D11-Pad2)*%
X197504800Y-150670100D02*
X195580000Y-148745300D01*
X197504800Y-163333500D02*
X197504800Y-150670100D01*
X195677900Y-165160400D02*
X197504800Y-163333500D01*
X195677900Y-172782100D02*
X195677900Y-165160400D01*
X194310000Y-174150000D02*
X195677900Y-172782100D01*
X195580000Y-147320000D02*
X195580000Y-148745300D01*
%TO.N,/Dice1/D4*%
X185420000Y-157480000D02*
X185420000Y-152400000D01*
%TO.N,Net-(D10-Pad2)*%
X144780000Y-166220800D02*
X144780000Y-157480000D01*
X143875700Y-167125100D02*
X144780000Y-166220800D01*
X141885100Y-167125100D02*
X143875700Y-167125100D01*
X140970000Y-166210000D02*
X141885100Y-167125100D01*
X131881400Y-126961400D02*
X130650000Y-125730000D01*
X131881400Y-140886400D02*
X131881400Y-126961400D01*
X143354700Y-152359700D02*
X131881400Y-140886400D01*
X143354700Y-154629400D02*
X143354700Y-152359700D01*
X144780000Y-156054700D02*
X143354700Y-154629400D01*
X144780000Y-157480000D02*
X144780000Y-156054700D01*
%TO.N,Net-(D9-Pad2)*%
X144780000Y-152400000D02*
X144780000Y-150974700D01*
X130650000Y-123190000D02*
X130650000Y-124080300D01*
X148590000Y-157635300D02*
X144780000Y-153825300D01*
X148590000Y-166210000D02*
X148590000Y-157635300D01*
X144780000Y-152400000D02*
X144780000Y-153825300D01*
X132408700Y-125839000D02*
X130650000Y-124080300D01*
X132408800Y-125839000D02*
X132408700Y-125839000D01*
X132408800Y-138603500D02*
X132408800Y-125839000D01*
X144780000Y-150974700D02*
X132408800Y-138603500D01*
%TO.N,Net-(D8-Pad2)*%
X149505300Y-153470600D02*
X144780000Y-148745300D01*
X149505300Y-173234700D02*
X149505300Y-153470600D01*
X148590000Y-174150000D02*
X149505300Y-173234700D01*
X144780000Y-147320000D02*
X144780000Y-148745300D01*
%TO.N,/Dice1/D3*%
X134620000Y-147320000D02*
X134620000Y-152400000D01*
X134620000Y-152400000D02*
X134620000Y-157480000D01*
%TO.N,Net-(D7-Pad2)*%
X93980000Y-157480000D02*
X93980000Y-156054700D01*
X87470000Y-126669200D02*
X87470000Y-125730000D01*
X99240800Y-138440000D02*
X87470000Y-126669200D01*
X101095900Y-138440000D02*
X99240800Y-138440000D01*
X101854100Y-139198200D02*
X101095900Y-138440000D01*
X101854100Y-142708100D02*
X101854100Y-139198200D01*
X95034500Y-149527700D02*
X101854100Y-142708100D01*
X94779800Y-149527700D02*
X95034500Y-149527700D01*
X92516700Y-151790800D02*
X94779800Y-149527700D01*
X92516700Y-154591400D02*
X92516700Y-151790800D01*
X93980000Y-156054700D02*
X92516700Y-154591400D01*
%TO.N,Net-(D6-Pad2)*%
X93980000Y-152171600D02*
X93980000Y-150974700D01*
X87470000Y-124129200D02*
X87470000Y-123190000D01*
X99191800Y-135851000D02*
X87470000Y-124129200D01*
X101000500Y-135851000D02*
X99191800Y-135851000D01*
X102355100Y-137205600D02*
X101000500Y-135851000D01*
X102355100Y-142923900D02*
X102355100Y-137205600D01*
X94304300Y-150974700D02*
X102355100Y-142923900D01*
X93980000Y-150974700D02*
X94304300Y-150974700D01*
X93980000Y-152171600D02*
X93980000Y-152400000D01*
X95421700Y-163498300D02*
X95250000Y-163670000D01*
X95421700Y-155267000D02*
X95421700Y-163498300D01*
X93980000Y-153825300D02*
X95421700Y-155267000D01*
X93980000Y-152400000D02*
X93980000Y-153825300D01*
%TO.N,Net-(D5-Pad2)*%
X93980000Y-144940000D02*
X93980000Y-147320000D01*
X87470000Y-138430000D02*
X93980000Y-144940000D01*
X91819000Y-168179000D02*
X95250000Y-171610000D01*
X91819000Y-150906300D02*
X91819000Y-168179000D01*
X93980000Y-148745300D02*
X91819000Y-150906300D01*
X93980000Y-147320000D02*
X93980000Y-148745300D01*
%TO.N,/Dice1/D2*%
X83820000Y-147320000D02*
X83820000Y-152400000D01*
X83820000Y-152400000D02*
X83820000Y-157480000D01*
X83820000Y-179040000D02*
X78710000Y-184150000D01*
X83820000Y-157480000D02*
X83820000Y-179040000D01*
%TO.N,Net-(D4-Pad2)*%
X34648500Y-128788500D02*
X31590000Y-125730000D01*
X34648500Y-147523200D02*
X34648500Y-128788500D01*
X40640000Y-153514700D02*
X34648500Y-147523200D01*
X40640000Y-154940000D02*
X40640000Y-153514700D01*
%TO.N,Net-(D3-Pad2)*%
X30699700Y-124970600D02*
X31590000Y-124080300D01*
X30699700Y-143211800D02*
X30699700Y-124970600D01*
X34198100Y-146710200D02*
X30699700Y-143211800D01*
X34198100Y-152152800D02*
X34198100Y-146710200D01*
X40640000Y-158594700D02*
X34198100Y-152152800D01*
X40640000Y-160020000D02*
X40640000Y-158594700D01*
X31590000Y-123190000D02*
X31590000Y-124080300D01*
%TO.N,Net-(D2-Pad1)*%
X30480000Y-149860000D02*
X30480000Y-154940000D01*
X30480000Y-154940000D02*
X30480000Y-160020000D01*
D37*
%TO.N,GND*%
X168920000Y-151140000D02*
X168920000Y-149889700D01*
X154940000Y-180340000D02*
X154940000Y-179089700D01*
X147065400Y-175165400D02*
X153670000Y-175165400D01*
X146050000Y-174150000D02*
X147065400Y-175165400D01*
X153670000Y-174150000D02*
X153670000Y-175165400D01*
X153670000Y-177819700D02*
X154940000Y-179089700D01*
X153670000Y-175165400D02*
X153670000Y-177819700D01*
X264080000Y-180420000D02*
X256540000Y-187960000D01*
X264080000Y-177800000D02*
X264080000Y-180420000D01*
X140970000Y-187979700D02*
X140970000Y-174150000D01*
X139700000Y-189249700D02*
X140970000Y-187979700D01*
X139700000Y-190500000D02*
X139700000Y-189249700D01*
X53340000Y-160020000D02*
X53340000Y-161270300D01*
X222250000Y-178910000D02*
X222250000Y-186850000D01*
X199390000Y-168750000D02*
X199390000Y-174150000D01*
X196850000Y-166210000D02*
X199390000Y-168750000D01*
X73754600Y-134365400D02*
X72230000Y-135890000D01*
X73754600Y-117995700D02*
X73754600Y-134365400D01*
X83820000Y-107930300D02*
X73754600Y-117995700D01*
X83820000Y-106680000D02*
X83820000Y-107930300D01*
X285732200Y-142277500D02*
X284480000Y-143529700D01*
X285732200Y-132042500D02*
X285732200Y-142277500D01*
X284480000Y-130790300D02*
X285732200Y-132042500D01*
X284480000Y-129540000D02*
X284480000Y-130790300D01*
X284480000Y-144780000D02*
X284480000Y-143529700D01*
X158969600Y-171230400D02*
X153670000Y-171230400D01*
X160020000Y-170180000D02*
X158969600Y-171230400D01*
X153670000Y-168750000D02*
X153670000Y-171230400D01*
X151130000Y-166210000D02*
X153670000Y-168750000D01*
X153670000Y-171230400D02*
X153670000Y-174150000D01*
X201915000Y-142250000D02*
X203565300Y-142250000D01*
X129605200Y-136934800D02*
X130650000Y-135890000D01*
X129605200Y-139925200D02*
X129605200Y-136934800D01*
X130650000Y-140970000D02*
X129605200Y-139925200D01*
X222890000Y-143490300D02*
X223520000Y-143490300D01*
X222260000Y-144120300D02*
X222890000Y-143490300D01*
X205435600Y-144120300D02*
X203565300Y-142250000D01*
X222260000Y-144120300D02*
X205435600Y-144120300D01*
X223520000Y-142240000D02*
X223520000Y-143490300D01*
X248920000Y-175260000D02*
X248920000Y-174009700D01*
X255280000Y-161300000D02*
X255280000Y-160049700D01*
X256000000Y-159329700D02*
X256000000Y-152400000D01*
X255280000Y-160049700D02*
X256000000Y-159329700D01*
X95235000Y-174135000D02*
X97805000Y-174135000D01*
X92710000Y-171610000D02*
X95235000Y-174135000D01*
X97805000Y-174135000D02*
X97805000Y-176520000D01*
X106714700Y-183596100D02*
X106714700Y-184140000D01*
X100888900Y-177770300D02*
X106714700Y-183596100D01*
X99758500Y-177770300D02*
X100888900Y-177770300D01*
X99055300Y-177067100D02*
X99758500Y-177770300D01*
X99055300Y-176520000D02*
X99055300Y-177067100D01*
X97805000Y-176520000D02*
X99055300Y-176520000D01*
X107965000Y-184140000D02*
X106714700Y-184140000D01*
X97805000Y-174135000D02*
X100330000Y-171610000D01*
X175260000Y-180340000D02*
X175260000Y-179089700D01*
X168890300Y-180219400D02*
X172640000Y-176469700D01*
X168890300Y-180340000D02*
X168890300Y-180219400D01*
X172640000Y-170180000D02*
X172640000Y-176469700D01*
X172640000Y-176469700D02*
X175260000Y-179089700D01*
X167640000Y-180340000D02*
X168890300Y-180340000D01*
X192837800Y-175217800D02*
X191770000Y-174150000D01*
X199390000Y-175217800D02*
X192837800Y-175217800D01*
X199390000Y-185390000D02*
X199390000Y-175217800D01*
X198090000Y-186690000D02*
X199390000Y-185390000D01*
X199390000Y-175217800D02*
X199390000Y-174150000D01*
X250190000Y-172739700D02*
X248920000Y-174009700D01*
X250190000Y-169070000D02*
X250190000Y-172739700D01*
X247650000Y-166530000D02*
X247650000Y-161130000D01*
X250190000Y-169070000D02*
X247650000Y-166530000D01*
X32606200Y-136906200D02*
X31590000Y-135890000D01*
X32606200Y-139953800D02*
X32606200Y-136906200D01*
X31590000Y-140970000D02*
X32606200Y-139953800D01*
X87630000Y-177770000D02*
X81250000Y-184150000D01*
X87630000Y-171610000D02*
X87630000Y-177770000D01*
X165100000Y-146069700D02*
X165100000Y-144780000D01*
X168920000Y-149889700D02*
X165100000Y-146069700D01*
X165100000Y-144780000D02*
X165100000Y-143529700D01*
X173830000Y-140970000D02*
X173830000Y-138430000D01*
X212090000Y-174530000D02*
X207740000Y-170180000D01*
X212090000Y-178910000D02*
X212090000Y-174530000D01*
X212090000Y-178910000D02*
X214630000Y-178910000D01*
X222260000Y-148600000D02*
X222260000Y-144120300D01*
X220900000Y-150663300D02*
X220900000Y-170180000D01*
X221713000Y-149850300D02*
X220900000Y-150663300D01*
X222260000Y-149850300D02*
X221713000Y-149850300D01*
X222260000Y-148600000D02*
X222260000Y-149850300D01*
X220900000Y-177894600D02*
X220900000Y-170180000D01*
X215645400Y-177894600D02*
X220900000Y-177894600D01*
X214630000Y-178910000D02*
X215645400Y-177894600D01*
X221234600Y-177894600D02*
X222250000Y-178910000D01*
X220900000Y-177894600D02*
X221234600Y-177894600D01*
X159420000Y-136000000D02*
X160670300Y-136000000D01*
X166650000Y-141979700D02*
X160670300Y-136000000D01*
X167659700Y-140970000D02*
X166650000Y-141979700D01*
X173830000Y-140970000D02*
X167659700Y-140970000D01*
X166650000Y-141979700D02*
X165100000Y-143529700D01*
X153189700Y-140980000D02*
X158169700Y-136000000D01*
X146415300Y-140980000D02*
X153189700Y-140980000D01*
X145145300Y-142250000D02*
X146415300Y-140980000D01*
X143495000Y-142250000D02*
X145145300Y-142250000D01*
X159420000Y-136000000D02*
X158169700Y-136000000D01*
X42946500Y-172646500D02*
X41910000Y-171610000D01*
X49530000Y-172646500D02*
X42946500Y-172646500D01*
X49530000Y-171610000D02*
X49530000Y-172646500D01*
X49530000Y-184150000D02*
X48260000Y-185420000D01*
X49530000Y-172646500D02*
X49530000Y-184150000D01*
X46990000Y-163670000D02*
X49130200Y-165810200D01*
X49530000Y-166210000D02*
X49530000Y-171610000D01*
X49130200Y-165810200D02*
X49530000Y-166210000D01*
X52590200Y-162350200D02*
X57880000Y-167640000D01*
X49130200Y-165810200D02*
X52590200Y-162350200D01*
X53340000Y-161600400D02*
X53340000Y-161270300D01*
X52590200Y-162350200D02*
X53340000Y-161600400D01*
X101380900Y-170559100D02*
X101380900Y-164028100D01*
X100330000Y-171610000D02*
X101380900Y-170559100D01*
X110148100Y-164028100D02*
X111220000Y-165100000D01*
X101380900Y-164028100D02*
X110148100Y-164028100D01*
X101600000Y-147320000D02*
X101600000Y-148570300D01*
X100347600Y-149822700D02*
X100347600Y-162650800D01*
X101600000Y-148570300D02*
X100347600Y-149822700D01*
X100778400Y-162650800D02*
X100347600Y-162650800D01*
X101380900Y-163253300D02*
X100778400Y-162650800D01*
X101380900Y-164028100D02*
X101380900Y-163253300D01*
X98809200Y-162650800D02*
X97790000Y-163670000D01*
X100347600Y-162650800D02*
X98809200Y-162650800D01*
%TD*%
M02*
