%TF.GenerationSoftware,KiCad,Pcbnew,(6.0.2)*%
%TF.CreationDate,2022-03-04T23:41:04+01:00*%
%TF.ProjectId,Kniffel_V1,4b6e6966-6665-46c5-9f56-312e6b696361,rev?*%
%TF.SameCoordinates,Original*%
%TF.FileFunction,Legend,Top*%
%TF.FilePolarity,Positive*%
%FSLAX46Y46*%
G04 Gerber Fmt 4.6, Leading zero omitted, Abs format (unit mm)*
G04 Created by KiCad (PCBNEW (6.0.2)) date 2022-03-04 23:41:04*
%MOMM*%
%LPD*%
G01*
G04 APERTURE LIST*
%ADD10C,0.150000*%
%ADD11C,0.254000*%
%ADD12C,0.120000*%
%ADD13C,0.200000*%
%ADD14C,0.100000*%
%ADD15R,1.130000X1.130000*%
%ADD16C,1.130000*%
%ADD17C,1.200000*%
%ADD18R,1.150000X1.150000*%
%ADD19C,1.150000*%
G04 APERTURE END LIST*
D10*
%TO.C,J1*%
X22526666Y-143822380D02*
X22526666Y-144536666D01*
X22479047Y-144679523D01*
X22383809Y-144774761D01*
X22240952Y-144822380D01*
X22145714Y-144822380D01*
X23526666Y-144822380D02*
X22955238Y-144822380D01*
X23240952Y-144822380D02*
X23240952Y-143822380D01*
X23145714Y-143965238D01*
X23050476Y-144060476D01*
X22955238Y-144108095D01*
%TO.C,R18*%
X174617142Y-114922380D02*
X174283809Y-114446190D01*
X174045714Y-114922380D02*
X174045714Y-113922380D01*
X174426666Y-113922380D01*
X174521904Y-113970000D01*
X174569523Y-114017619D01*
X174617142Y-114112857D01*
X174617142Y-114255714D01*
X174569523Y-114350952D01*
X174521904Y-114398571D01*
X174426666Y-114446190D01*
X174045714Y-114446190D01*
X175569523Y-114922380D02*
X174998095Y-114922380D01*
X175283809Y-114922380D02*
X175283809Y-113922380D01*
X175188571Y-114065238D01*
X175093333Y-114160476D01*
X174998095Y-114208095D01*
X176140952Y-114350952D02*
X176045714Y-114303333D01*
X175998095Y-114255714D01*
X175950476Y-114160476D01*
X175950476Y-114112857D01*
X175998095Y-114017619D01*
X176045714Y-113970000D01*
X176140952Y-113922380D01*
X176331428Y-113922380D01*
X176426666Y-113970000D01*
X176474285Y-114017619D01*
X176521904Y-114112857D01*
X176521904Y-114160476D01*
X176474285Y-114255714D01*
X176426666Y-114303333D01*
X176331428Y-114350952D01*
X176140952Y-114350952D01*
X176045714Y-114398571D01*
X175998095Y-114446190D01*
X175950476Y-114541428D01*
X175950476Y-114731904D01*
X175998095Y-114827142D01*
X176045714Y-114874761D01*
X176140952Y-114922380D01*
X176331428Y-114922380D01*
X176426666Y-114874761D01*
X176474285Y-114827142D01*
X176521904Y-114731904D01*
X176521904Y-114541428D01*
X176474285Y-114446190D01*
X176426666Y-114398571D01*
X176331428Y-114350952D01*
D11*
%TO.C,IC3*%
X79314523Y-95219761D02*
X78044523Y-95219761D01*
X79193571Y-93889285D02*
X79254047Y-93949761D01*
X79314523Y-94131190D01*
X79314523Y-94252142D01*
X79254047Y-94433571D01*
X79133095Y-94554523D01*
X79012142Y-94615000D01*
X78770238Y-94675476D01*
X78588809Y-94675476D01*
X78346904Y-94615000D01*
X78225952Y-94554523D01*
X78105000Y-94433571D01*
X78044523Y-94252142D01*
X78044523Y-94131190D01*
X78105000Y-93949761D01*
X78165476Y-93889285D01*
X78044523Y-93465952D02*
X78044523Y-92679761D01*
X78528333Y-93103095D01*
X78528333Y-92921666D01*
X78588809Y-92800714D01*
X78649285Y-92740238D01*
X78770238Y-92679761D01*
X79072619Y-92679761D01*
X79193571Y-92740238D01*
X79254047Y-92800714D01*
X79314523Y-92921666D01*
X79314523Y-93284523D01*
X79254047Y-93405476D01*
X79193571Y-93465952D01*
D10*
%TO.C,R10*%
X101882380Y-109862857D02*
X101406190Y-110196190D01*
X101882380Y-110434285D02*
X100882380Y-110434285D01*
X100882380Y-110053333D01*
X100930000Y-109958095D01*
X100977619Y-109910476D01*
X101072857Y-109862857D01*
X101215714Y-109862857D01*
X101310952Y-109910476D01*
X101358571Y-109958095D01*
X101406190Y-110053333D01*
X101406190Y-110434285D01*
X101882380Y-108910476D02*
X101882380Y-109481904D01*
X101882380Y-109196190D02*
X100882380Y-109196190D01*
X101025238Y-109291428D01*
X101120476Y-109386666D01*
X101168095Y-109481904D01*
X100882380Y-108291428D02*
X100882380Y-108196190D01*
X100930000Y-108100952D01*
X100977619Y-108053333D01*
X101072857Y-108005714D01*
X101263333Y-107958095D01*
X101501428Y-107958095D01*
X101691904Y-108005714D01*
X101787142Y-108053333D01*
X101834761Y-108100952D01*
X101882380Y-108196190D01*
X101882380Y-108291428D01*
X101834761Y-108386666D01*
X101787142Y-108434285D01*
X101691904Y-108481904D01*
X101501428Y-108529523D01*
X101263333Y-108529523D01*
X101072857Y-108481904D01*
X100977619Y-108434285D01*
X100930000Y-108386666D01*
X100882380Y-108291428D01*
%TO.C,R25*%
X249542380Y-109862857D02*
X249066190Y-110196190D01*
X249542380Y-110434285D02*
X248542380Y-110434285D01*
X248542380Y-110053333D01*
X248590000Y-109958095D01*
X248637619Y-109910476D01*
X248732857Y-109862857D01*
X248875714Y-109862857D01*
X248970952Y-109910476D01*
X249018571Y-109958095D01*
X249066190Y-110053333D01*
X249066190Y-110434285D01*
X248637619Y-109481904D02*
X248590000Y-109434285D01*
X248542380Y-109339047D01*
X248542380Y-109100952D01*
X248590000Y-109005714D01*
X248637619Y-108958095D01*
X248732857Y-108910476D01*
X248828095Y-108910476D01*
X248970952Y-108958095D01*
X249542380Y-109529523D01*
X249542380Y-108910476D01*
X248542380Y-108005714D02*
X248542380Y-108481904D01*
X249018571Y-108529523D01*
X248970952Y-108481904D01*
X248923333Y-108386666D01*
X248923333Y-108148571D01*
X248970952Y-108053333D01*
X249018571Y-108005714D01*
X249113809Y-107958095D01*
X249351904Y-107958095D01*
X249447142Y-108005714D01*
X249494761Y-108053333D01*
X249542380Y-108148571D01*
X249542380Y-108386666D01*
X249494761Y-108481904D01*
X249447142Y-108529523D01*
%TO.C,R4*%
X22693333Y-120002380D02*
X22360000Y-119526190D01*
X22121904Y-120002380D02*
X22121904Y-119002380D01*
X22502857Y-119002380D01*
X22598095Y-119050000D01*
X22645714Y-119097619D01*
X22693333Y-119192857D01*
X22693333Y-119335714D01*
X22645714Y-119430952D01*
X22598095Y-119478571D01*
X22502857Y-119526190D01*
X22121904Y-119526190D01*
X23550476Y-119335714D02*
X23550476Y-120002380D01*
X23312380Y-118954761D02*
X23074285Y-119669047D01*
X23693333Y-119669047D01*
%TO.C,R15*%
X147942380Y-109862857D02*
X147466190Y-110196190D01*
X147942380Y-110434285D02*
X146942380Y-110434285D01*
X146942380Y-110053333D01*
X146990000Y-109958095D01*
X147037619Y-109910476D01*
X147132857Y-109862857D01*
X147275714Y-109862857D01*
X147370952Y-109910476D01*
X147418571Y-109958095D01*
X147466190Y-110053333D01*
X147466190Y-110434285D01*
X147942380Y-108910476D02*
X147942380Y-109481904D01*
X147942380Y-109196190D02*
X146942380Y-109196190D01*
X147085238Y-109291428D01*
X147180476Y-109386666D01*
X147228095Y-109481904D01*
X146942380Y-108005714D02*
X146942380Y-108481904D01*
X147418571Y-108529523D01*
X147370952Y-108481904D01*
X147323333Y-108386666D01*
X147323333Y-108148571D01*
X147370952Y-108053333D01*
X147418571Y-108005714D01*
X147513809Y-107958095D01*
X147751904Y-107958095D01*
X147847142Y-108005714D01*
X147894761Y-108053333D01*
X147942380Y-108148571D01*
X147942380Y-108386666D01*
X147894761Y-108481904D01*
X147847142Y-108529523D01*
%TO.C,R20*%
X198742380Y-109862857D02*
X198266190Y-110196190D01*
X198742380Y-110434285D02*
X197742380Y-110434285D01*
X197742380Y-110053333D01*
X197790000Y-109958095D01*
X197837619Y-109910476D01*
X197932857Y-109862857D01*
X198075714Y-109862857D01*
X198170952Y-109910476D01*
X198218571Y-109958095D01*
X198266190Y-110053333D01*
X198266190Y-110434285D01*
X197837619Y-109481904D02*
X197790000Y-109434285D01*
X197742380Y-109339047D01*
X197742380Y-109100952D01*
X197790000Y-109005714D01*
X197837619Y-108958095D01*
X197932857Y-108910476D01*
X198028095Y-108910476D01*
X198170952Y-108958095D01*
X198742380Y-109529523D01*
X198742380Y-108910476D01*
X197742380Y-108291428D02*
X197742380Y-108196190D01*
X197790000Y-108100952D01*
X197837619Y-108053333D01*
X197932857Y-108005714D01*
X198123333Y-107958095D01*
X198361428Y-107958095D01*
X198551904Y-108005714D01*
X198647142Y-108053333D01*
X198694761Y-108100952D01*
X198742380Y-108196190D01*
X198742380Y-108291428D01*
X198694761Y-108386666D01*
X198647142Y-108434285D01*
X198551904Y-108481904D01*
X198361428Y-108529523D01*
X198123333Y-108529523D01*
X197932857Y-108481904D01*
X197837619Y-108434285D01*
X197790000Y-108386666D01*
X197742380Y-108291428D01*
%TO.C,R3*%
X22693333Y-114922380D02*
X22360000Y-114446190D01*
X22121904Y-114922380D02*
X22121904Y-113922380D01*
X22502857Y-113922380D01*
X22598095Y-113970000D01*
X22645714Y-114017619D01*
X22693333Y-114112857D01*
X22693333Y-114255714D01*
X22645714Y-114350952D01*
X22598095Y-114398571D01*
X22502857Y-114446190D01*
X22121904Y-114446190D01*
X23026666Y-113922380D02*
X23645714Y-113922380D01*
X23312380Y-114303333D01*
X23455238Y-114303333D01*
X23550476Y-114350952D01*
X23598095Y-114398571D01*
X23645714Y-114493809D01*
X23645714Y-114731904D01*
X23598095Y-114827142D01*
X23550476Y-114874761D01*
X23455238Y-114922380D01*
X23169523Y-114922380D01*
X23074285Y-114874761D01*
X23026666Y-114827142D01*
D11*
%TO.C,IC5*%
X130114523Y-95219761D02*
X128844523Y-95219761D01*
X129993571Y-93889285D02*
X130054047Y-93949761D01*
X130114523Y-94131190D01*
X130114523Y-94252142D01*
X130054047Y-94433571D01*
X129933095Y-94554523D01*
X129812142Y-94615000D01*
X129570238Y-94675476D01*
X129388809Y-94675476D01*
X129146904Y-94615000D01*
X129025952Y-94554523D01*
X128905000Y-94433571D01*
X128844523Y-94252142D01*
X128844523Y-94131190D01*
X128905000Y-93949761D01*
X128965476Y-93889285D01*
X128844523Y-92740238D02*
X128844523Y-93345000D01*
X129449285Y-93405476D01*
X129388809Y-93345000D01*
X129328333Y-93224047D01*
X129328333Y-92921666D01*
X129388809Y-92800714D01*
X129449285Y-92740238D01*
X129570238Y-92679761D01*
X129872619Y-92679761D01*
X129993571Y-92740238D01*
X130054047Y-92800714D01*
X130114523Y-92921666D01*
X130114523Y-93224047D01*
X130054047Y-93345000D01*
X129993571Y-93405476D01*
D10*
%TO.C,U6*%
X72908095Y-100002380D02*
X72908095Y-100811904D01*
X72955714Y-100907142D01*
X73003333Y-100954761D01*
X73098571Y-101002380D01*
X73289047Y-101002380D01*
X73384285Y-100954761D01*
X73431904Y-100907142D01*
X73479523Y-100811904D01*
X73479523Y-100002380D01*
X74384285Y-100002380D02*
X74193809Y-100002380D01*
X74098571Y-100050000D01*
X74050952Y-100097619D01*
X73955714Y-100240476D01*
X73908095Y-100430952D01*
X73908095Y-100811904D01*
X73955714Y-100907142D01*
X74003333Y-100954761D01*
X74098571Y-101002380D01*
X74289047Y-101002380D01*
X74384285Y-100954761D01*
X74431904Y-100907142D01*
X74479523Y-100811904D01*
X74479523Y-100573809D01*
X74431904Y-100478571D01*
X74384285Y-100430952D01*
X74289047Y-100383333D01*
X74098571Y-100383333D01*
X74003333Y-100430952D01*
X73955714Y-100478571D01*
X73908095Y-100573809D01*
D11*
%TO.C,C3*%
X44843333Y-124913571D02*
X44782857Y-124974047D01*
X44601428Y-125034523D01*
X44480476Y-125034523D01*
X44299047Y-124974047D01*
X44178095Y-124853095D01*
X44117619Y-124732142D01*
X44057142Y-124490238D01*
X44057142Y-124308809D01*
X44117619Y-124066904D01*
X44178095Y-123945952D01*
X44299047Y-123825000D01*
X44480476Y-123764523D01*
X44601428Y-123764523D01*
X44782857Y-123825000D01*
X44843333Y-123885476D01*
X45266666Y-123764523D02*
X46052857Y-123764523D01*
X45629523Y-124248333D01*
X45810952Y-124248333D01*
X45931904Y-124308809D01*
X45992380Y-124369285D01*
X46052857Y-124490238D01*
X46052857Y-124792619D01*
X45992380Y-124913571D01*
X45931904Y-124974047D01*
X45810952Y-125034523D01*
X45448095Y-125034523D01*
X45327142Y-124974047D01*
X45266666Y-124913571D01*
D10*
%TO.C,R2*%
X58253333Y-94602380D02*
X57920000Y-94126190D01*
X57681904Y-94602380D02*
X57681904Y-93602380D01*
X58062857Y-93602380D01*
X58158095Y-93650000D01*
X58205714Y-93697619D01*
X58253333Y-93792857D01*
X58253333Y-93935714D01*
X58205714Y-94030952D01*
X58158095Y-94078571D01*
X58062857Y-94126190D01*
X57681904Y-94126190D01*
X58634285Y-93697619D02*
X58681904Y-93650000D01*
X58777142Y-93602380D01*
X59015238Y-93602380D01*
X59110476Y-93650000D01*
X59158095Y-93697619D01*
X59205714Y-93792857D01*
X59205714Y-93888095D01*
X59158095Y-94030952D01*
X58586666Y-94602380D01*
X59205714Y-94602380D01*
%TO.C,D11*%
X189285714Y-102122380D02*
X189285714Y-101122380D01*
X189523809Y-101122380D01*
X189666666Y-101170000D01*
X189761904Y-101265238D01*
X189809523Y-101360476D01*
X189857142Y-101550952D01*
X189857142Y-101693809D01*
X189809523Y-101884285D01*
X189761904Y-101979523D01*
X189666666Y-102074761D01*
X189523809Y-102122380D01*
X189285714Y-102122380D01*
X190809523Y-102122380D02*
X190238095Y-102122380D01*
X190523809Y-102122380D02*
X190523809Y-101122380D01*
X190428571Y-101265238D01*
X190333333Y-101360476D01*
X190238095Y-101408095D01*
X191761904Y-102122380D02*
X191190476Y-102122380D01*
X191476190Y-102122380D02*
X191476190Y-101122380D01*
X191380952Y-101265238D01*
X191285714Y-101360476D01*
X191190476Y-101408095D01*
X185158095Y-102492380D02*
X185158095Y-101492380D01*
X185729523Y-102492380D02*
X185300952Y-101920952D01*
X185729523Y-101492380D02*
X185158095Y-102063809D01*
D11*
%TO.C,IC8*%
X231714523Y-95219761D02*
X230444523Y-95219761D01*
X231593571Y-93889285D02*
X231654047Y-93949761D01*
X231714523Y-94131190D01*
X231714523Y-94252142D01*
X231654047Y-94433571D01*
X231533095Y-94554523D01*
X231412142Y-94615000D01*
X231170238Y-94675476D01*
X230988809Y-94675476D01*
X230746904Y-94615000D01*
X230625952Y-94554523D01*
X230505000Y-94433571D01*
X230444523Y-94252142D01*
X230444523Y-94131190D01*
X230505000Y-93949761D01*
X230565476Y-93889285D01*
X230988809Y-93163571D02*
X230928333Y-93284523D01*
X230867857Y-93345000D01*
X230746904Y-93405476D01*
X230686428Y-93405476D01*
X230565476Y-93345000D01*
X230505000Y-93284523D01*
X230444523Y-93163571D01*
X230444523Y-92921666D01*
X230505000Y-92800714D01*
X230565476Y-92740238D01*
X230686428Y-92679761D01*
X230746904Y-92679761D01*
X230867857Y-92740238D01*
X230928333Y-92800714D01*
X230988809Y-92921666D01*
X230988809Y-93163571D01*
X231049285Y-93284523D01*
X231109761Y-93345000D01*
X231230714Y-93405476D01*
X231472619Y-93405476D01*
X231593571Y-93345000D01*
X231654047Y-93284523D01*
X231714523Y-93163571D01*
X231714523Y-92921666D01*
X231654047Y-92800714D01*
X231593571Y-92740238D01*
X231472619Y-92679761D01*
X231230714Y-92679761D01*
X231109761Y-92740238D01*
X231049285Y-92800714D01*
X230988809Y-92921666D01*
D10*
%TO.C,D1*%
X34541904Y-145232380D02*
X34541904Y-144232380D01*
X34780000Y-144232380D01*
X34922857Y-144280000D01*
X35018095Y-144375238D01*
X35065714Y-144470476D01*
X35113333Y-144660952D01*
X35113333Y-144803809D01*
X35065714Y-144994285D01*
X35018095Y-145089523D01*
X34922857Y-145184761D01*
X34780000Y-145232380D01*
X34541904Y-145232380D01*
X36065714Y-145232380D02*
X35494285Y-145232380D01*
X35780000Y-145232380D02*
X35780000Y-144232380D01*
X35684761Y-144375238D01*
X35589523Y-144470476D01*
X35494285Y-144518095D01*
X40098095Y-144792380D02*
X40098095Y-143792380D01*
X40669523Y-144792380D02*
X40240952Y-144220952D01*
X40669523Y-143792380D02*
X40098095Y-144363809D01*
D11*
%TO.C,IC2*%
X28514523Y-95219761D02*
X27244523Y-95219761D01*
X28393571Y-93889285D02*
X28454047Y-93949761D01*
X28514523Y-94131190D01*
X28514523Y-94252142D01*
X28454047Y-94433571D01*
X28333095Y-94554523D01*
X28212142Y-94615000D01*
X27970238Y-94675476D01*
X27788809Y-94675476D01*
X27546904Y-94615000D01*
X27425952Y-94554523D01*
X27305000Y-94433571D01*
X27244523Y-94252142D01*
X27244523Y-94131190D01*
X27305000Y-93949761D01*
X27365476Y-93889285D01*
X27365476Y-93405476D02*
X27305000Y-93345000D01*
X27244523Y-93224047D01*
X27244523Y-92921666D01*
X27305000Y-92800714D01*
X27365476Y-92740238D01*
X27486428Y-92679761D01*
X27607380Y-92679761D01*
X27788809Y-92740238D01*
X28514523Y-93465952D01*
X28514523Y-92679761D01*
D10*
%TO.C,D3*%
X37361904Y-112282380D02*
X37361904Y-111282380D01*
X37600000Y-111282380D01*
X37742857Y-111330000D01*
X37838095Y-111425238D01*
X37885714Y-111520476D01*
X37933333Y-111710952D01*
X37933333Y-111853809D01*
X37885714Y-112044285D01*
X37838095Y-112139523D01*
X37742857Y-112234761D01*
X37600000Y-112282380D01*
X37361904Y-112282380D01*
X38266666Y-111282380D02*
X38885714Y-111282380D01*
X38552380Y-111663333D01*
X38695238Y-111663333D01*
X38790476Y-111710952D01*
X38838095Y-111758571D01*
X38885714Y-111853809D01*
X38885714Y-112091904D01*
X38838095Y-112187142D01*
X38790476Y-112234761D01*
X38695238Y-112282380D01*
X38409523Y-112282380D01*
X38314285Y-112234761D01*
X38266666Y-112187142D01*
X32758095Y-112652380D02*
X32758095Y-111652380D01*
X33329523Y-112652380D02*
X32900952Y-112080952D01*
X33329523Y-111652380D02*
X32758095Y-112223809D01*
%TO.C,U10*%
X174031904Y-100002380D02*
X174031904Y-100811904D01*
X174079523Y-100907142D01*
X174127142Y-100954761D01*
X174222380Y-101002380D01*
X174412857Y-101002380D01*
X174508095Y-100954761D01*
X174555714Y-100907142D01*
X174603333Y-100811904D01*
X174603333Y-100002380D01*
X175603333Y-101002380D02*
X175031904Y-101002380D01*
X175317619Y-101002380D02*
X175317619Y-100002380D01*
X175222380Y-100145238D01*
X175127142Y-100240476D01*
X175031904Y-100288095D01*
X176222380Y-100002380D02*
X176317619Y-100002380D01*
X176412857Y-100050000D01*
X176460476Y-100097619D01*
X176508095Y-100192857D01*
X176555714Y-100383333D01*
X176555714Y-100621428D01*
X176508095Y-100811904D01*
X176460476Y-100907142D01*
X176412857Y-100954761D01*
X176317619Y-101002380D01*
X176222380Y-101002380D01*
X176127142Y-100954761D01*
X176079523Y-100907142D01*
X176031904Y-100811904D01*
X175984285Y-100621428D01*
X175984285Y-100383333D01*
X176031904Y-100192857D01*
X176079523Y-100097619D01*
X176127142Y-100050000D01*
X176222380Y-100002380D01*
%TO.C,J4*%
X58366666Y-154462380D02*
X58366666Y-155176666D01*
X58319047Y-155319523D01*
X58223809Y-155414761D01*
X58080952Y-155462380D01*
X57985714Y-155462380D01*
X59271428Y-154795714D02*
X59271428Y-155462380D01*
X59033333Y-154414761D02*
X58795238Y-155129047D01*
X59414285Y-155129047D01*
D11*
%TO.C,C11*%
X247438571Y-124913571D02*
X247378095Y-124974047D01*
X247196666Y-125034523D01*
X247075714Y-125034523D01*
X246894285Y-124974047D01*
X246773333Y-124853095D01*
X246712857Y-124732142D01*
X246652380Y-124490238D01*
X246652380Y-124308809D01*
X246712857Y-124066904D01*
X246773333Y-123945952D01*
X246894285Y-123825000D01*
X247075714Y-123764523D01*
X247196666Y-123764523D01*
X247378095Y-123825000D01*
X247438571Y-123885476D01*
X248648095Y-125034523D02*
X247922380Y-125034523D01*
X248285238Y-125034523D02*
X248285238Y-123764523D01*
X248164285Y-123945952D01*
X248043333Y-124066904D01*
X247922380Y-124127380D01*
X249857619Y-125034523D02*
X249131904Y-125034523D01*
X249494761Y-125034523D02*
X249494761Y-123764523D01*
X249373809Y-123945952D01*
X249252857Y-124066904D01*
X249131904Y-124127380D01*
D10*
%TO.C,D10*%
X138485714Y-112282380D02*
X138485714Y-111282380D01*
X138723809Y-111282380D01*
X138866666Y-111330000D01*
X138961904Y-111425238D01*
X139009523Y-111520476D01*
X139057142Y-111710952D01*
X139057142Y-111853809D01*
X139009523Y-112044285D01*
X138961904Y-112139523D01*
X138866666Y-112234761D01*
X138723809Y-112282380D01*
X138485714Y-112282380D01*
X140009523Y-112282380D02*
X139438095Y-112282380D01*
X139723809Y-112282380D02*
X139723809Y-111282380D01*
X139628571Y-111425238D01*
X139533333Y-111520476D01*
X139438095Y-111568095D01*
X140628571Y-111282380D02*
X140723809Y-111282380D01*
X140819047Y-111330000D01*
X140866666Y-111377619D01*
X140914285Y-111472857D01*
X140961904Y-111663333D01*
X140961904Y-111901428D01*
X140914285Y-112091904D01*
X140866666Y-112187142D01*
X140819047Y-112234761D01*
X140723809Y-112282380D01*
X140628571Y-112282380D01*
X140533333Y-112234761D01*
X140485714Y-112187142D01*
X140438095Y-112091904D01*
X140390476Y-111901428D01*
X140390476Y-111663333D01*
X140438095Y-111472857D01*
X140485714Y-111377619D01*
X140533333Y-111330000D01*
X140628571Y-111282380D01*
X134358095Y-112652380D02*
X134358095Y-111652380D01*
X134929523Y-112652380D02*
X134500952Y-112080952D01*
X134929523Y-111652380D02*
X134358095Y-112223809D01*
D11*
%TO.C,U7*%
X78044523Y-130507619D02*
X79072619Y-130507619D01*
X79193571Y-130447142D01*
X79254047Y-130386666D01*
X79314523Y-130265714D01*
X79314523Y-130023809D01*
X79254047Y-129902857D01*
X79193571Y-129842380D01*
X79072619Y-129781904D01*
X78044523Y-129781904D01*
X78044523Y-129298095D02*
X78044523Y-128451428D01*
X79314523Y-128995714D01*
D10*
%TO.C,D7*%
X88161904Y-112282380D02*
X88161904Y-111282380D01*
X88400000Y-111282380D01*
X88542857Y-111330000D01*
X88638095Y-111425238D01*
X88685714Y-111520476D01*
X88733333Y-111710952D01*
X88733333Y-111853809D01*
X88685714Y-112044285D01*
X88638095Y-112139523D01*
X88542857Y-112234761D01*
X88400000Y-112282380D01*
X88161904Y-112282380D01*
X89066666Y-111282380D02*
X89733333Y-111282380D01*
X89304761Y-112282380D01*
X83558095Y-112652380D02*
X83558095Y-111652380D01*
X84129523Y-112652380D02*
X83700952Y-112080952D01*
X84129523Y-111652380D02*
X83558095Y-112223809D01*
D11*
%TO.C,IC4*%
X158780238Y-112334523D02*
X158780238Y-111064523D01*
X160110714Y-112213571D02*
X160050238Y-112274047D01*
X159868809Y-112334523D01*
X159747857Y-112334523D01*
X159566428Y-112274047D01*
X159445476Y-112153095D01*
X159385000Y-112032142D01*
X159324523Y-111790238D01*
X159324523Y-111608809D01*
X159385000Y-111366904D01*
X159445476Y-111245952D01*
X159566428Y-111125000D01*
X159747857Y-111064523D01*
X159868809Y-111064523D01*
X160050238Y-111125000D01*
X160110714Y-111185476D01*
X161199285Y-111487857D02*
X161199285Y-112334523D01*
X160896904Y-111004047D02*
X160594523Y-111911190D01*
X161380714Y-111911190D01*
D10*
%TO.C,R16*%
X156837142Y-89522380D02*
X156503809Y-89046190D01*
X156265714Y-89522380D02*
X156265714Y-88522380D01*
X156646666Y-88522380D01*
X156741904Y-88570000D01*
X156789523Y-88617619D01*
X156837142Y-88712857D01*
X156837142Y-88855714D01*
X156789523Y-88950952D01*
X156741904Y-88998571D01*
X156646666Y-89046190D01*
X156265714Y-89046190D01*
X157789523Y-89522380D02*
X157218095Y-89522380D01*
X157503809Y-89522380D02*
X157503809Y-88522380D01*
X157408571Y-88665238D01*
X157313333Y-88760476D01*
X157218095Y-88808095D01*
X158646666Y-88522380D02*
X158456190Y-88522380D01*
X158360952Y-88570000D01*
X158313333Y-88617619D01*
X158218095Y-88760476D01*
X158170476Y-88950952D01*
X158170476Y-89331904D01*
X158218095Y-89427142D01*
X158265714Y-89474761D01*
X158360952Y-89522380D01*
X158551428Y-89522380D01*
X158646666Y-89474761D01*
X158694285Y-89427142D01*
X158741904Y-89331904D01*
X158741904Y-89093809D01*
X158694285Y-88998571D01*
X158646666Y-88950952D01*
X158551428Y-88903333D01*
X158360952Y-88903333D01*
X158265714Y-88950952D01*
X158218095Y-88998571D01*
X158170476Y-89093809D01*
%TO.C,D16*%
X240085714Y-112282380D02*
X240085714Y-111282380D01*
X240323809Y-111282380D01*
X240466666Y-111330000D01*
X240561904Y-111425238D01*
X240609523Y-111520476D01*
X240657142Y-111710952D01*
X240657142Y-111853809D01*
X240609523Y-112044285D01*
X240561904Y-112139523D01*
X240466666Y-112234761D01*
X240323809Y-112282380D01*
X240085714Y-112282380D01*
X241609523Y-112282380D02*
X241038095Y-112282380D01*
X241323809Y-112282380D02*
X241323809Y-111282380D01*
X241228571Y-111425238D01*
X241133333Y-111520476D01*
X241038095Y-111568095D01*
X242466666Y-111282380D02*
X242276190Y-111282380D01*
X242180952Y-111330000D01*
X242133333Y-111377619D01*
X242038095Y-111520476D01*
X241990476Y-111710952D01*
X241990476Y-112091904D01*
X242038095Y-112187142D01*
X242085714Y-112234761D01*
X242180952Y-112282380D01*
X242371428Y-112282380D01*
X242466666Y-112234761D01*
X242514285Y-112187142D01*
X242561904Y-112091904D01*
X242561904Y-111853809D01*
X242514285Y-111758571D01*
X242466666Y-111710952D01*
X242371428Y-111663333D01*
X242180952Y-111663333D01*
X242085714Y-111710952D01*
X242038095Y-111758571D01*
X241990476Y-111853809D01*
X235958095Y-112652380D02*
X235958095Y-111652380D01*
X236529523Y-112652380D02*
X236100952Y-112080952D01*
X236529523Y-111652380D02*
X235958095Y-112223809D01*
%TO.C,J2*%
X22526666Y-151442380D02*
X22526666Y-152156666D01*
X22479047Y-152299523D01*
X22383809Y-152394761D01*
X22240952Y-152442380D01*
X22145714Y-152442380D01*
X22955238Y-151537619D02*
X23002857Y-151490000D01*
X23098095Y-151442380D01*
X23336190Y-151442380D01*
X23431428Y-151490000D01*
X23479047Y-151537619D01*
X23526666Y-151632857D01*
X23526666Y-151728095D01*
X23479047Y-151870952D01*
X22907619Y-152442380D01*
X23526666Y-152442380D01*
D11*
%TO.C,C2*%
X48048333Y-147773571D02*
X47987857Y-147834047D01*
X47806428Y-147894523D01*
X47685476Y-147894523D01*
X47504047Y-147834047D01*
X47383095Y-147713095D01*
X47322619Y-147592142D01*
X47262142Y-147350238D01*
X47262142Y-147168809D01*
X47322619Y-146926904D01*
X47383095Y-146805952D01*
X47504047Y-146685000D01*
X47685476Y-146624523D01*
X47806428Y-146624523D01*
X47987857Y-146685000D01*
X48048333Y-146745476D01*
X48532142Y-146745476D02*
X48592619Y-146685000D01*
X48713571Y-146624523D01*
X49015952Y-146624523D01*
X49136904Y-146685000D01*
X49197380Y-146745476D01*
X49257857Y-146866428D01*
X49257857Y-146987380D01*
X49197380Y-147168809D01*
X48471666Y-147894523D01*
X49257857Y-147894523D01*
%TO.C,C4*%
X42968333Y-135073571D02*
X42907857Y-135134047D01*
X42726428Y-135194523D01*
X42605476Y-135194523D01*
X42424047Y-135134047D01*
X42303095Y-135013095D01*
X42242619Y-134892142D01*
X42182142Y-134650238D01*
X42182142Y-134468809D01*
X42242619Y-134226904D01*
X42303095Y-134105952D01*
X42424047Y-133985000D01*
X42605476Y-133924523D01*
X42726428Y-133924523D01*
X42907857Y-133985000D01*
X42968333Y-134045476D01*
X44056904Y-134347857D02*
X44056904Y-135194523D01*
X43754523Y-133864047D02*
X43452142Y-134771190D01*
X44238333Y-134771190D01*
D10*
%TO.C,U4*%
X78108095Y-138462380D02*
X78108095Y-139271904D01*
X78155714Y-139367142D01*
X78203333Y-139414761D01*
X78298571Y-139462380D01*
X78489047Y-139462380D01*
X78584285Y-139414761D01*
X78631904Y-139367142D01*
X78679523Y-139271904D01*
X78679523Y-138462380D01*
X79584285Y-138795714D02*
X79584285Y-139462380D01*
X79346190Y-138414761D02*
X79108095Y-139129047D01*
X79727142Y-139129047D01*
%TO.C,D8*%
X138961904Y-102122380D02*
X138961904Y-101122380D01*
X139200000Y-101122380D01*
X139342857Y-101170000D01*
X139438095Y-101265238D01*
X139485714Y-101360476D01*
X139533333Y-101550952D01*
X139533333Y-101693809D01*
X139485714Y-101884285D01*
X139438095Y-101979523D01*
X139342857Y-102074761D01*
X139200000Y-102122380D01*
X138961904Y-102122380D01*
X140104761Y-101550952D02*
X140009523Y-101503333D01*
X139961904Y-101455714D01*
X139914285Y-101360476D01*
X139914285Y-101312857D01*
X139961904Y-101217619D01*
X140009523Y-101170000D01*
X140104761Y-101122380D01*
X140295238Y-101122380D01*
X140390476Y-101170000D01*
X140438095Y-101217619D01*
X140485714Y-101312857D01*
X140485714Y-101360476D01*
X140438095Y-101455714D01*
X140390476Y-101503333D01*
X140295238Y-101550952D01*
X140104761Y-101550952D01*
X140009523Y-101598571D01*
X139961904Y-101646190D01*
X139914285Y-101741428D01*
X139914285Y-101931904D01*
X139961904Y-102027142D01*
X140009523Y-102074761D01*
X140104761Y-102122380D01*
X140295238Y-102122380D01*
X140390476Y-102074761D01*
X140438095Y-102027142D01*
X140485714Y-101931904D01*
X140485714Y-101741428D01*
X140438095Y-101646190D01*
X140390476Y-101598571D01*
X140295238Y-101550952D01*
X134358095Y-102492380D02*
X134358095Y-101492380D01*
X134929523Y-102492380D02*
X134500952Y-101920952D01*
X134929523Y-101492380D02*
X134358095Y-102063809D01*
%TO.C,R9*%
X73493333Y-120002380D02*
X73160000Y-119526190D01*
X72921904Y-120002380D02*
X72921904Y-119002380D01*
X73302857Y-119002380D01*
X73398095Y-119050000D01*
X73445714Y-119097619D01*
X73493333Y-119192857D01*
X73493333Y-119335714D01*
X73445714Y-119430952D01*
X73398095Y-119478571D01*
X73302857Y-119526190D01*
X72921904Y-119526190D01*
X73969523Y-120002380D02*
X74160000Y-120002380D01*
X74255238Y-119954761D01*
X74302857Y-119907142D01*
X74398095Y-119764285D01*
X74445714Y-119573809D01*
X74445714Y-119192857D01*
X74398095Y-119097619D01*
X74350476Y-119050000D01*
X74255238Y-119002380D01*
X74064761Y-119002380D01*
X73969523Y-119050000D01*
X73921904Y-119097619D01*
X73874285Y-119192857D01*
X73874285Y-119430952D01*
X73921904Y-119526190D01*
X73969523Y-119573809D01*
X74064761Y-119621428D01*
X74255238Y-119621428D01*
X74350476Y-119573809D01*
X74398095Y-119526190D01*
X74445714Y-119430952D01*
%TO.C,D6*%
X88161904Y-107202380D02*
X88161904Y-106202380D01*
X88400000Y-106202380D01*
X88542857Y-106250000D01*
X88638095Y-106345238D01*
X88685714Y-106440476D01*
X88733333Y-106630952D01*
X88733333Y-106773809D01*
X88685714Y-106964285D01*
X88638095Y-107059523D01*
X88542857Y-107154761D01*
X88400000Y-107202380D01*
X88161904Y-107202380D01*
X89590476Y-106202380D02*
X89400000Y-106202380D01*
X89304761Y-106250000D01*
X89257142Y-106297619D01*
X89161904Y-106440476D01*
X89114285Y-106630952D01*
X89114285Y-107011904D01*
X89161904Y-107107142D01*
X89209523Y-107154761D01*
X89304761Y-107202380D01*
X89495238Y-107202380D01*
X89590476Y-107154761D01*
X89638095Y-107107142D01*
X89685714Y-107011904D01*
X89685714Y-106773809D01*
X89638095Y-106678571D01*
X89590476Y-106630952D01*
X89495238Y-106583333D01*
X89304761Y-106583333D01*
X89209523Y-106630952D01*
X89161904Y-106678571D01*
X89114285Y-106773809D01*
X83558095Y-107572380D02*
X83558095Y-106572380D01*
X84129523Y-107572380D02*
X83700952Y-107000952D01*
X84129523Y-106572380D02*
X83558095Y-107143809D01*
%TO.C,R22*%
X258437142Y-97142380D02*
X258103809Y-96666190D01*
X257865714Y-97142380D02*
X257865714Y-96142380D01*
X258246666Y-96142380D01*
X258341904Y-96190000D01*
X258389523Y-96237619D01*
X258437142Y-96332857D01*
X258437142Y-96475714D01*
X258389523Y-96570952D01*
X258341904Y-96618571D01*
X258246666Y-96666190D01*
X257865714Y-96666190D01*
X258818095Y-96237619D02*
X258865714Y-96190000D01*
X258960952Y-96142380D01*
X259199047Y-96142380D01*
X259294285Y-96190000D01*
X259341904Y-96237619D01*
X259389523Y-96332857D01*
X259389523Y-96428095D01*
X259341904Y-96570952D01*
X258770476Y-97142380D01*
X259389523Y-97142380D01*
X259770476Y-96237619D02*
X259818095Y-96190000D01*
X259913333Y-96142380D01*
X260151428Y-96142380D01*
X260246666Y-96190000D01*
X260294285Y-96237619D01*
X260341904Y-96332857D01*
X260341904Y-96428095D01*
X260294285Y-96570952D01*
X259722857Y-97142380D01*
X260341904Y-97142380D01*
%TO.C,D13*%
X189285714Y-112282380D02*
X189285714Y-111282380D01*
X189523809Y-111282380D01*
X189666666Y-111330000D01*
X189761904Y-111425238D01*
X189809523Y-111520476D01*
X189857142Y-111710952D01*
X189857142Y-111853809D01*
X189809523Y-112044285D01*
X189761904Y-112139523D01*
X189666666Y-112234761D01*
X189523809Y-112282380D01*
X189285714Y-112282380D01*
X190809523Y-112282380D02*
X190238095Y-112282380D01*
X190523809Y-112282380D02*
X190523809Y-111282380D01*
X190428571Y-111425238D01*
X190333333Y-111520476D01*
X190238095Y-111568095D01*
X191142857Y-111282380D02*
X191761904Y-111282380D01*
X191428571Y-111663333D01*
X191571428Y-111663333D01*
X191666666Y-111710952D01*
X191714285Y-111758571D01*
X191761904Y-111853809D01*
X191761904Y-112091904D01*
X191714285Y-112187142D01*
X191666666Y-112234761D01*
X191571428Y-112282380D01*
X191285714Y-112282380D01*
X191190476Y-112234761D01*
X191142857Y-112187142D01*
X185158095Y-112652380D02*
X185158095Y-111652380D01*
X185729523Y-112652380D02*
X185300952Y-112080952D01*
X185729523Y-111652380D02*
X185158095Y-112223809D01*
%TO.C,U2*%
X22108095Y-100002380D02*
X22108095Y-100811904D01*
X22155714Y-100907142D01*
X22203333Y-100954761D01*
X22298571Y-101002380D01*
X22489047Y-101002380D01*
X22584285Y-100954761D01*
X22631904Y-100907142D01*
X22679523Y-100811904D01*
X22679523Y-100002380D01*
X23108095Y-100097619D02*
X23155714Y-100050000D01*
X23250952Y-100002380D01*
X23489047Y-100002380D01*
X23584285Y-100050000D01*
X23631904Y-100097619D01*
X23679523Y-100192857D01*
X23679523Y-100288095D01*
X23631904Y-100430952D01*
X23060476Y-101002380D01*
X23679523Y-101002380D01*
%TO.C,D4*%
X37361904Y-107202380D02*
X37361904Y-106202380D01*
X37600000Y-106202380D01*
X37742857Y-106250000D01*
X37838095Y-106345238D01*
X37885714Y-106440476D01*
X37933333Y-106630952D01*
X37933333Y-106773809D01*
X37885714Y-106964285D01*
X37838095Y-107059523D01*
X37742857Y-107154761D01*
X37600000Y-107202380D01*
X37361904Y-107202380D01*
X38790476Y-106535714D02*
X38790476Y-107202380D01*
X38552380Y-106154761D02*
X38314285Y-106869047D01*
X38933333Y-106869047D01*
X32758095Y-107572380D02*
X32758095Y-106572380D01*
X33329523Y-107572380D02*
X32900952Y-107000952D01*
X33329523Y-106572380D02*
X32758095Y-107143809D01*
D11*
%TO.C,U3*%
X27244523Y-130507619D02*
X28272619Y-130507619D01*
X28393571Y-130447142D01*
X28454047Y-130386666D01*
X28514523Y-130265714D01*
X28514523Y-130023809D01*
X28454047Y-129902857D01*
X28393571Y-129842380D01*
X28272619Y-129781904D01*
X27244523Y-129781904D01*
X27244523Y-129298095D02*
X27244523Y-128511904D01*
X27728333Y-128935238D01*
X27728333Y-128753809D01*
X27788809Y-128632857D01*
X27849285Y-128572380D01*
X27970238Y-128511904D01*
X28272619Y-128511904D01*
X28393571Y-128572380D01*
X28454047Y-128632857D01*
X28514523Y-128753809D01*
X28514523Y-129116666D01*
X28454047Y-129237619D01*
X28393571Y-129298095D01*
D10*
%TO.C,R8*%
X73493333Y-114922380D02*
X73160000Y-114446190D01*
X72921904Y-114922380D02*
X72921904Y-113922380D01*
X73302857Y-113922380D01*
X73398095Y-113970000D01*
X73445714Y-114017619D01*
X73493333Y-114112857D01*
X73493333Y-114255714D01*
X73445714Y-114350952D01*
X73398095Y-114398571D01*
X73302857Y-114446190D01*
X72921904Y-114446190D01*
X74064761Y-114350952D02*
X73969523Y-114303333D01*
X73921904Y-114255714D01*
X73874285Y-114160476D01*
X73874285Y-114112857D01*
X73921904Y-114017619D01*
X73969523Y-113970000D01*
X74064761Y-113922380D01*
X74255238Y-113922380D01*
X74350476Y-113970000D01*
X74398095Y-114017619D01*
X74445714Y-114112857D01*
X74445714Y-114160476D01*
X74398095Y-114255714D01*
X74350476Y-114303333D01*
X74255238Y-114350952D01*
X74064761Y-114350952D01*
X73969523Y-114398571D01*
X73921904Y-114446190D01*
X73874285Y-114541428D01*
X73874285Y-114731904D01*
X73921904Y-114827142D01*
X73969523Y-114874761D01*
X74064761Y-114922380D01*
X74255238Y-114922380D01*
X74350476Y-114874761D01*
X74398095Y-114827142D01*
X74445714Y-114731904D01*
X74445714Y-114541428D01*
X74398095Y-114446190D01*
X74350476Y-114398571D01*
X74255238Y-114350952D01*
D11*
%TO.C,C10*%
X194763571Y-135073571D02*
X194703095Y-135134047D01*
X194521666Y-135194523D01*
X194400714Y-135194523D01*
X194219285Y-135134047D01*
X194098333Y-135013095D01*
X194037857Y-134892142D01*
X193977380Y-134650238D01*
X193977380Y-134468809D01*
X194037857Y-134226904D01*
X194098333Y-134105952D01*
X194219285Y-133985000D01*
X194400714Y-133924523D01*
X194521666Y-133924523D01*
X194703095Y-133985000D01*
X194763571Y-134045476D01*
X195973095Y-135194523D02*
X195247380Y-135194523D01*
X195610238Y-135194523D02*
X195610238Y-133924523D01*
X195489285Y-134105952D01*
X195368333Y-134226904D01*
X195247380Y-134287380D01*
X196759285Y-133924523D02*
X196880238Y-133924523D01*
X197001190Y-133985000D01*
X197061666Y-134045476D01*
X197122142Y-134166428D01*
X197182619Y-134408333D01*
X197182619Y-134710714D01*
X197122142Y-134952619D01*
X197061666Y-135073571D01*
X197001190Y-135134047D01*
X196880238Y-135194523D01*
X196759285Y-135194523D01*
X196638333Y-135134047D01*
X196577857Y-135073571D01*
X196517380Y-134952619D01*
X196456904Y-134710714D01*
X196456904Y-134408333D01*
X196517380Y-134166428D01*
X196577857Y-134045476D01*
X196638333Y-133985000D01*
X196759285Y-133924523D01*
D10*
%TO.C,R26*%
X258437142Y-89522380D02*
X258103809Y-89046190D01*
X257865714Y-89522380D02*
X257865714Y-88522380D01*
X258246666Y-88522380D01*
X258341904Y-88570000D01*
X258389523Y-88617619D01*
X258437142Y-88712857D01*
X258437142Y-88855714D01*
X258389523Y-88950952D01*
X258341904Y-88998571D01*
X258246666Y-89046190D01*
X257865714Y-89046190D01*
X258818095Y-88617619D02*
X258865714Y-88570000D01*
X258960952Y-88522380D01*
X259199047Y-88522380D01*
X259294285Y-88570000D01*
X259341904Y-88617619D01*
X259389523Y-88712857D01*
X259389523Y-88808095D01*
X259341904Y-88950952D01*
X258770476Y-89522380D01*
X259389523Y-89522380D01*
X260246666Y-88522380D02*
X260056190Y-88522380D01*
X259960952Y-88570000D01*
X259913333Y-88617619D01*
X259818095Y-88760476D01*
X259770476Y-88950952D01*
X259770476Y-89331904D01*
X259818095Y-89427142D01*
X259865714Y-89474761D01*
X259960952Y-89522380D01*
X260151428Y-89522380D01*
X260246666Y-89474761D01*
X260294285Y-89427142D01*
X260341904Y-89331904D01*
X260341904Y-89093809D01*
X260294285Y-88998571D01*
X260246666Y-88950952D01*
X260151428Y-88903333D01*
X259960952Y-88903333D01*
X259865714Y-88950952D01*
X259818095Y-88998571D01*
X259770476Y-89093809D01*
D11*
%TO.C,C12*%
X245563571Y-135073571D02*
X245503095Y-135134047D01*
X245321666Y-135194523D01*
X245200714Y-135194523D01*
X245019285Y-135134047D01*
X244898333Y-135013095D01*
X244837857Y-134892142D01*
X244777380Y-134650238D01*
X244777380Y-134468809D01*
X244837857Y-134226904D01*
X244898333Y-134105952D01*
X245019285Y-133985000D01*
X245200714Y-133924523D01*
X245321666Y-133924523D01*
X245503095Y-133985000D01*
X245563571Y-134045476D01*
X246773095Y-135194523D02*
X246047380Y-135194523D01*
X246410238Y-135194523D02*
X246410238Y-133924523D01*
X246289285Y-134105952D01*
X246168333Y-134226904D01*
X246047380Y-134287380D01*
X247256904Y-134045476D02*
X247317380Y-133985000D01*
X247438333Y-133924523D01*
X247740714Y-133924523D01*
X247861666Y-133985000D01*
X247922142Y-134045476D01*
X247982619Y-134166428D01*
X247982619Y-134287380D01*
X247922142Y-134468809D01*
X247196428Y-135194523D01*
X247982619Y-135194523D01*
D10*
%TO.C,R12*%
X156837142Y-94602380D02*
X156503809Y-94126190D01*
X156265714Y-94602380D02*
X156265714Y-93602380D01*
X156646666Y-93602380D01*
X156741904Y-93650000D01*
X156789523Y-93697619D01*
X156837142Y-93792857D01*
X156837142Y-93935714D01*
X156789523Y-94030952D01*
X156741904Y-94078571D01*
X156646666Y-94126190D01*
X156265714Y-94126190D01*
X157789523Y-94602380D02*
X157218095Y-94602380D01*
X157503809Y-94602380D02*
X157503809Y-93602380D01*
X157408571Y-93745238D01*
X157313333Y-93840476D01*
X157218095Y-93888095D01*
X158170476Y-93697619D02*
X158218095Y-93650000D01*
X158313333Y-93602380D01*
X158551428Y-93602380D01*
X158646666Y-93650000D01*
X158694285Y-93697619D01*
X158741904Y-93792857D01*
X158741904Y-93888095D01*
X158694285Y-94030952D01*
X158122857Y-94602380D01*
X158741904Y-94602380D01*
%TO.C,R7*%
X109053333Y-94602380D02*
X108720000Y-94126190D01*
X108481904Y-94602380D02*
X108481904Y-93602380D01*
X108862857Y-93602380D01*
X108958095Y-93650000D01*
X109005714Y-93697619D01*
X109053333Y-93792857D01*
X109053333Y-93935714D01*
X109005714Y-94030952D01*
X108958095Y-94078571D01*
X108862857Y-94126190D01*
X108481904Y-94126190D01*
X109386666Y-93602380D02*
X110053333Y-93602380D01*
X109624761Y-94602380D01*
%TO.C,R1*%
X150482380Y-147486666D02*
X150006190Y-147820000D01*
X150482380Y-148058095D02*
X149482380Y-148058095D01*
X149482380Y-147677142D01*
X149530000Y-147581904D01*
X149577619Y-147534285D01*
X149672857Y-147486666D01*
X149815714Y-147486666D01*
X149910952Y-147534285D01*
X149958571Y-147581904D01*
X150006190Y-147677142D01*
X150006190Y-148058095D01*
X150482380Y-146534285D02*
X150482380Y-147105714D01*
X150482380Y-146820000D02*
X149482380Y-146820000D01*
X149625238Y-146915238D01*
X149720476Y-147010476D01*
X149768095Y-147105714D01*
D11*
%TO.C,U11*%
X179644523Y-131112380D02*
X180672619Y-131112380D01*
X180793571Y-131051904D01*
X180854047Y-130991428D01*
X180914523Y-130870476D01*
X180914523Y-130628571D01*
X180854047Y-130507619D01*
X180793571Y-130447142D01*
X180672619Y-130386666D01*
X179644523Y-130386666D01*
X180914523Y-129116666D02*
X180914523Y-129842380D01*
X180914523Y-129479523D02*
X179644523Y-129479523D01*
X179825952Y-129600476D01*
X179946904Y-129721428D01*
X180007380Y-129842380D01*
X180914523Y-127907142D02*
X180914523Y-128632857D01*
X180914523Y-128270000D02*
X179644523Y-128270000D01*
X179825952Y-128390952D01*
X179946904Y-128511904D01*
X180007380Y-128632857D01*
%TO.C,IC7*%
X232440238Y-147894523D02*
X232440238Y-146624523D01*
X233770714Y-147773571D02*
X233710238Y-147834047D01*
X233528809Y-147894523D01*
X233407857Y-147894523D01*
X233226428Y-147834047D01*
X233105476Y-147713095D01*
X233045000Y-147592142D01*
X232984523Y-147350238D01*
X232984523Y-147168809D01*
X233045000Y-146926904D01*
X233105476Y-146805952D01*
X233226428Y-146685000D01*
X233407857Y-146624523D01*
X233528809Y-146624523D01*
X233710238Y-146685000D01*
X233770714Y-146745476D01*
X234194047Y-146624523D02*
X235040714Y-146624523D01*
X234496428Y-147894523D01*
D10*
%TO.C,U1*%
X60198095Y-138632380D02*
X60198095Y-139441904D01*
X60245714Y-139537142D01*
X60293333Y-139584761D01*
X60388571Y-139632380D01*
X60579047Y-139632380D01*
X60674285Y-139584761D01*
X60721904Y-139537142D01*
X60769523Y-139441904D01*
X60769523Y-138632380D01*
X61769523Y-139632380D02*
X61198095Y-139632380D01*
X61483809Y-139632380D02*
X61483809Y-138632380D01*
X61388571Y-138775238D01*
X61293333Y-138870476D01*
X61198095Y-138918095D01*
%TO.C,D15*%
X240085714Y-107202380D02*
X240085714Y-106202380D01*
X240323809Y-106202380D01*
X240466666Y-106250000D01*
X240561904Y-106345238D01*
X240609523Y-106440476D01*
X240657142Y-106630952D01*
X240657142Y-106773809D01*
X240609523Y-106964285D01*
X240561904Y-107059523D01*
X240466666Y-107154761D01*
X240323809Y-107202380D01*
X240085714Y-107202380D01*
X241609523Y-107202380D02*
X241038095Y-107202380D01*
X241323809Y-107202380D02*
X241323809Y-106202380D01*
X241228571Y-106345238D01*
X241133333Y-106440476D01*
X241038095Y-106488095D01*
X242514285Y-106202380D02*
X242038095Y-106202380D01*
X241990476Y-106678571D01*
X242038095Y-106630952D01*
X242133333Y-106583333D01*
X242371428Y-106583333D01*
X242466666Y-106630952D01*
X242514285Y-106678571D01*
X242561904Y-106773809D01*
X242561904Y-107011904D01*
X242514285Y-107107142D01*
X242466666Y-107154761D01*
X242371428Y-107202380D01*
X242133333Y-107202380D01*
X242038095Y-107154761D01*
X241990476Y-107107142D01*
X235958095Y-107572380D02*
X235958095Y-106572380D01*
X236529523Y-107572380D02*
X236100952Y-107000952D01*
X236529523Y-106572380D02*
X235958095Y-107143809D01*
%TO.C,J3*%
X40546666Y-154682380D02*
X40546666Y-155396666D01*
X40499047Y-155539523D01*
X40403809Y-155634761D01*
X40260952Y-155682380D01*
X40165714Y-155682380D01*
X40927619Y-154682380D02*
X41546666Y-154682380D01*
X41213333Y-155063333D01*
X41356190Y-155063333D01*
X41451428Y-155110952D01*
X41499047Y-155158571D01*
X41546666Y-155253809D01*
X41546666Y-155491904D01*
X41499047Y-155587142D01*
X41451428Y-155634761D01*
X41356190Y-155682380D01*
X41070476Y-155682380D01*
X40975238Y-155634761D01*
X40927619Y-155587142D01*
D11*
%TO.C,IC6*%
X180914523Y-95219761D02*
X179644523Y-95219761D01*
X180793571Y-93889285D02*
X180854047Y-93949761D01*
X180914523Y-94131190D01*
X180914523Y-94252142D01*
X180854047Y-94433571D01*
X180733095Y-94554523D01*
X180612142Y-94615000D01*
X180370238Y-94675476D01*
X180188809Y-94675476D01*
X179946904Y-94615000D01*
X179825952Y-94554523D01*
X179705000Y-94433571D01*
X179644523Y-94252142D01*
X179644523Y-94131190D01*
X179705000Y-93949761D01*
X179765476Y-93889285D01*
X179644523Y-92800714D02*
X179644523Y-93042619D01*
X179705000Y-93163571D01*
X179765476Y-93224047D01*
X179946904Y-93345000D01*
X180188809Y-93405476D01*
X180672619Y-93405476D01*
X180793571Y-93345000D01*
X180854047Y-93284523D01*
X180914523Y-93163571D01*
X180914523Y-92921666D01*
X180854047Y-92800714D01*
X180793571Y-92740238D01*
X180672619Y-92679761D01*
X180370238Y-92679761D01*
X180249285Y-92740238D01*
X180188809Y-92800714D01*
X180128333Y-92921666D01*
X180128333Y-93163571D01*
X180188809Y-93284523D01*
X180249285Y-93345000D01*
X180370238Y-93405476D01*
D10*
%TO.C,U12*%
X224831904Y-100002380D02*
X224831904Y-100811904D01*
X224879523Y-100907142D01*
X224927142Y-100954761D01*
X225022380Y-101002380D01*
X225212857Y-101002380D01*
X225308095Y-100954761D01*
X225355714Y-100907142D01*
X225403333Y-100811904D01*
X225403333Y-100002380D01*
X226403333Y-101002380D02*
X225831904Y-101002380D01*
X226117619Y-101002380D02*
X226117619Y-100002380D01*
X226022380Y-100145238D01*
X225927142Y-100240476D01*
X225831904Y-100288095D01*
X226784285Y-100097619D02*
X226831904Y-100050000D01*
X226927142Y-100002380D01*
X227165238Y-100002380D01*
X227260476Y-100050000D01*
X227308095Y-100097619D01*
X227355714Y-100192857D01*
X227355714Y-100288095D01*
X227308095Y-100430952D01*
X226736666Y-101002380D01*
X227355714Y-101002380D01*
%TO.C,U5*%
X90808095Y-138462380D02*
X90808095Y-139271904D01*
X90855714Y-139367142D01*
X90903333Y-139414761D01*
X90998571Y-139462380D01*
X91189047Y-139462380D01*
X91284285Y-139414761D01*
X91331904Y-139367142D01*
X91379523Y-139271904D01*
X91379523Y-138462380D01*
X92331904Y-138462380D02*
X91855714Y-138462380D01*
X91808095Y-138938571D01*
X91855714Y-138890952D01*
X91950952Y-138843333D01*
X92189047Y-138843333D01*
X92284285Y-138890952D01*
X92331904Y-138938571D01*
X92379523Y-139033809D01*
X92379523Y-139271904D01*
X92331904Y-139367142D01*
X92284285Y-139414761D01*
X92189047Y-139462380D01*
X91950952Y-139462380D01*
X91855714Y-139414761D01*
X91808095Y-139367142D01*
D11*
%TO.C,C5*%
X95643333Y-122373571D02*
X95582857Y-122434047D01*
X95401428Y-122494523D01*
X95280476Y-122494523D01*
X95099047Y-122434047D01*
X94978095Y-122313095D01*
X94917619Y-122192142D01*
X94857142Y-121950238D01*
X94857142Y-121768809D01*
X94917619Y-121526904D01*
X94978095Y-121405952D01*
X95099047Y-121285000D01*
X95280476Y-121224523D01*
X95401428Y-121224523D01*
X95582857Y-121285000D01*
X95643333Y-121345476D01*
X96792380Y-121224523D02*
X96187619Y-121224523D01*
X96127142Y-121829285D01*
X96187619Y-121768809D01*
X96308571Y-121708333D01*
X96610952Y-121708333D01*
X96731904Y-121768809D01*
X96792380Y-121829285D01*
X96852857Y-121950238D01*
X96852857Y-122252619D01*
X96792380Y-122373571D01*
X96731904Y-122434047D01*
X96610952Y-122494523D01*
X96308571Y-122494523D01*
X96187619Y-122434047D01*
X96127142Y-122373571D01*
D10*
%TO.C,D2*%
X37361904Y-102122380D02*
X37361904Y-101122380D01*
X37600000Y-101122380D01*
X37742857Y-101170000D01*
X37838095Y-101265238D01*
X37885714Y-101360476D01*
X37933333Y-101550952D01*
X37933333Y-101693809D01*
X37885714Y-101884285D01*
X37838095Y-101979523D01*
X37742857Y-102074761D01*
X37600000Y-102122380D01*
X37361904Y-102122380D01*
X38314285Y-101217619D02*
X38361904Y-101170000D01*
X38457142Y-101122380D01*
X38695238Y-101122380D01*
X38790476Y-101170000D01*
X38838095Y-101217619D01*
X38885714Y-101312857D01*
X38885714Y-101408095D01*
X38838095Y-101550952D01*
X38266666Y-102122380D01*
X38885714Y-102122380D01*
X32758095Y-102492380D02*
X32758095Y-101492380D01*
X33329523Y-102492380D02*
X32900952Y-101920952D01*
X33329523Y-101492380D02*
X32758095Y-102063809D01*
%TO.C,R5*%
X51082380Y-109386666D02*
X50606190Y-109720000D01*
X51082380Y-109958095D02*
X50082380Y-109958095D01*
X50082380Y-109577142D01*
X50130000Y-109481904D01*
X50177619Y-109434285D01*
X50272857Y-109386666D01*
X50415714Y-109386666D01*
X50510952Y-109434285D01*
X50558571Y-109481904D01*
X50606190Y-109577142D01*
X50606190Y-109958095D01*
X50082380Y-108481904D02*
X50082380Y-108958095D01*
X50558571Y-109005714D01*
X50510952Y-108958095D01*
X50463333Y-108862857D01*
X50463333Y-108624761D01*
X50510952Y-108529523D01*
X50558571Y-108481904D01*
X50653809Y-108434285D01*
X50891904Y-108434285D01*
X50987142Y-108481904D01*
X51034761Y-108529523D01*
X51082380Y-108624761D01*
X51082380Y-108862857D01*
X51034761Y-108958095D01*
X50987142Y-109005714D01*
D11*
%TO.C,C7*%
X146443333Y-124913571D02*
X146382857Y-124974047D01*
X146201428Y-125034523D01*
X146080476Y-125034523D01*
X145899047Y-124974047D01*
X145778095Y-124853095D01*
X145717619Y-124732142D01*
X145657142Y-124490238D01*
X145657142Y-124308809D01*
X145717619Y-124066904D01*
X145778095Y-123945952D01*
X145899047Y-123825000D01*
X146080476Y-123764523D01*
X146201428Y-123764523D01*
X146382857Y-123825000D01*
X146443333Y-123885476D01*
X146866666Y-123764523D02*
X147713333Y-123764523D01*
X147169047Y-125034523D01*
D10*
%TO.C,R24*%
X225417142Y-114922380D02*
X225083809Y-114446190D01*
X224845714Y-114922380D02*
X224845714Y-113922380D01*
X225226666Y-113922380D01*
X225321904Y-113970000D01*
X225369523Y-114017619D01*
X225417142Y-114112857D01*
X225417142Y-114255714D01*
X225369523Y-114350952D01*
X225321904Y-114398571D01*
X225226666Y-114446190D01*
X224845714Y-114446190D01*
X225798095Y-114017619D02*
X225845714Y-113970000D01*
X225940952Y-113922380D01*
X226179047Y-113922380D01*
X226274285Y-113970000D01*
X226321904Y-114017619D01*
X226369523Y-114112857D01*
X226369523Y-114208095D01*
X226321904Y-114350952D01*
X225750476Y-114922380D01*
X226369523Y-114922380D01*
X227226666Y-114255714D02*
X227226666Y-114922380D01*
X226988571Y-113874761D02*
X226750476Y-114589047D01*
X227369523Y-114589047D01*
D11*
%TO.C,C8*%
X145108333Y-135073571D02*
X145047857Y-135134047D01*
X144866428Y-135194523D01*
X144745476Y-135194523D01*
X144564047Y-135134047D01*
X144443095Y-135013095D01*
X144382619Y-134892142D01*
X144322142Y-134650238D01*
X144322142Y-134468809D01*
X144382619Y-134226904D01*
X144443095Y-134105952D01*
X144564047Y-133985000D01*
X144745476Y-133924523D01*
X144866428Y-133924523D01*
X145047857Y-133985000D01*
X145108333Y-134045476D01*
X145834047Y-134468809D02*
X145713095Y-134408333D01*
X145652619Y-134347857D01*
X145592142Y-134226904D01*
X145592142Y-134166428D01*
X145652619Y-134045476D01*
X145713095Y-133985000D01*
X145834047Y-133924523D01*
X146075952Y-133924523D01*
X146196904Y-133985000D01*
X146257380Y-134045476D01*
X146317857Y-134166428D01*
X146317857Y-134226904D01*
X146257380Y-134347857D01*
X146196904Y-134408333D01*
X146075952Y-134468809D01*
X145834047Y-134468809D01*
X145713095Y-134529285D01*
X145652619Y-134589761D01*
X145592142Y-134710714D01*
X145592142Y-134952619D01*
X145652619Y-135073571D01*
X145713095Y-135134047D01*
X145834047Y-135194523D01*
X146075952Y-135194523D01*
X146196904Y-135134047D01*
X146257380Y-135073571D01*
X146317857Y-134952619D01*
X146317857Y-134710714D01*
X146257380Y-134589761D01*
X146196904Y-134529285D01*
X146075952Y-134468809D01*
D10*
%TO.C,D14*%
X240085714Y-102122380D02*
X240085714Y-101122380D01*
X240323809Y-101122380D01*
X240466666Y-101170000D01*
X240561904Y-101265238D01*
X240609523Y-101360476D01*
X240657142Y-101550952D01*
X240657142Y-101693809D01*
X240609523Y-101884285D01*
X240561904Y-101979523D01*
X240466666Y-102074761D01*
X240323809Y-102122380D01*
X240085714Y-102122380D01*
X241609523Y-102122380D02*
X241038095Y-102122380D01*
X241323809Y-102122380D02*
X241323809Y-101122380D01*
X241228571Y-101265238D01*
X241133333Y-101360476D01*
X241038095Y-101408095D01*
X242466666Y-101455714D02*
X242466666Y-102122380D01*
X242228571Y-101074761D02*
X241990476Y-101789047D01*
X242609523Y-101789047D01*
X235958095Y-102492380D02*
X235958095Y-101492380D01*
X236529523Y-102492380D02*
X236100952Y-101920952D01*
X236529523Y-101492380D02*
X235958095Y-102063809D01*
%TO.C,U14*%
X214791904Y-135922380D02*
X214791904Y-136731904D01*
X214839523Y-136827142D01*
X214887142Y-136874761D01*
X214982380Y-136922380D01*
X215172857Y-136922380D01*
X215268095Y-136874761D01*
X215315714Y-136827142D01*
X215363333Y-136731904D01*
X215363333Y-135922380D01*
X216363333Y-136922380D02*
X215791904Y-136922380D01*
X216077619Y-136922380D02*
X216077619Y-135922380D01*
X215982380Y-136065238D01*
X215887142Y-136160476D01*
X215791904Y-136208095D01*
X217220476Y-136255714D02*
X217220476Y-136922380D01*
X216982380Y-135874761D02*
X216744285Y-136589047D01*
X217363333Y-136589047D01*
D11*
%TO.C,IC1*%
X57180238Y-114874523D02*
X57180238Y-113604523D01*
X58510714Y-114753571D02*
X58450238Y-114814047D01*
X58268809Y-114874523D01*
X58147857Y-114874523D01*
X57966428Y-114814047D01*
X57845476Y-114693095D01*
X57785000Y-114572142D01*
X57724523Y-114330238D01*
X57724523Y-114148809D01*
X57785000Y-113906904D01*
X57845476Y-113785952D01*
X57966428Y-113665000D01*
X58147857Y-113604523D01*
X58268809Y-113604523D01*
X58450238Y-113665000D01*
X58510714Y-113725476D01*
X59720238Y-114874523D02*
X58994523Y-114874523D01*
X59357380Y-114874523D02*
X59357380Y-113604523D01*
X59236428Y-113785952D01*
X59115476Y-113906904D01*
X58994523Y-113967380D01*
D10*
%TO.C,R23*%
X225417142Y-120002380D02*
X225083809Y-119526190D01*
X224845714Y-120002380D02*
X224845714Y-119002380D01*
X225226666Y-119002380D01*
X225321904Y-119050000D01*
X225369523Y-119097619D01*
X225417142Y-119192857D01*
X225417142Y-119335714D01*
X225369523Y-119430952D01*
X225321904Y-119478571D01*
X225226666Y-119526190D01*
X224845714Y-119526190D01*
X225798095Y-119097619D02*
X225845714Y-119050000D01*
X225940952Y-119002380D01*
X226179047Y-119002380D01*
X226274285Y-119050000D01*
X226321904Y-119097619D01*
X226369523Y-119192857D01*
X226369523Y-119288095D01*
X226321904Y-119430952D01*
X225750476Y-120002380D01*
X226369523Y-120002380D01*
X226702857Y-119002380D02*
X227321904Y-119002380D01*
X226988571Y-119383333D01*
X227131428Y-119383333D01*
X227226666Y-119430952D01*
X227274285Y-119478571D01*
X227321904Y-119573809D01*
X227321904Y-119811904D01*
X227274285Y-119907142D01*
X227226666Y-119954761D01*
X227131428Y-120002380D01*
X226845714Y-120002380D01*
X226750476Y-119954761D01*
X226702857Y-119907142D01*
D11*
%TO.C,C6*%
X93768333Y-135073571D02*
X93707857Y-135134047D01*
X93526428Y-135194523D01*
X93405476Y-135194523D01*
X93224047Y-135134047D01*
X93103095Y-135013095D01*
X93042619Y-134892142D01*
X92982142Y-134650238D01*
X92982142Y-134468809D01*
X93042619Y-134226904D01*
X93103095Y-134105952D01*
X93224047Y-133985000D01*
X93405476Y-133924523D01*
X93526428Y-133924523D01*
X93707857Y-133985000D01*
X93768333Y-134045476D01*
X94856904Y-133924523D02*
X94615000Y-133924523D01*
X94494047Y-133985000D01*
X94433571Y-134045476D01*
X94312619Y-134226904D01*
X94252142Y-134468809D01*
X94252142Y-134952619D01*
X94312619Y-135073571D01*
X94373095Y-135134047D01*
X94494047Y-135194523D01*
X94735952Y-135194523D01*
X94856904Y-135134047D01*
X94917380Y-135073571D01*
X94977857Y-134952619D01*
X94977857Y-134650238D01*
X94917380Y-134529285D01*
X94856904Y-134468809D01*
X94735952Y-134408333D01*
X94494047Y-134408333D01*
X94373095Y-134468809D01*
X94312619Y-134529285D01*
X94252142Y-134650238D01*
D10*
%TO.C,D5*%
X88161904Y-102122380D02*
X88161904Y-101122380D01*
X88400000Y-101122380D01*
X88542857Y-101170000D01*
X88638095Y-101265238D01*
X88685714Y-101360476D01*
X88733333Y-101550952D01*
X88733333Y-101693809D01*
X88685714Y-101884285D01*
X88638095Y-101979523D01*
X88542857Y-102074761D01*
X88400000Y-102122380D01*
X88161904Y-102122380D01*
X89638095Y-101122380D02*
X89161904Y-101122380D01*
X89114285Y-101598571D01*
X89161904Y-101550952D01*
X89257142Y-101503333D01*
X89495238Y-101503333D01*
X89590476Y-101550952D01*
X89638095Y-101598571D01*
X89685714Y-101693809D01*
X89685714Y-101931904D01*
X89638095Y-102027142D01*
X89590476Y-102074761D01*
X89495238Y-102122380D01*
X89257142Y-102122380D01*
X89161904Y-102074761D01*
X89114285Y-102027142D01*
X83558095Y-102492380D02*
X83558095Y-101492380D01*
X84129523Y-102492380D02*
X83700952Y-101920952D01*
X84129523Y-101492380D02*
X83558095Y-102063809D01*
%TO.C,R6*%
X58253333Y-89522380D02*
X57920000Y-89046190D01*
X57681904Y-89522380D02*
X57681904Y-88522380D01*
X58062857Y-88522380D01*
X58158095Y-88570000D01*
X58205714Y-88617619D01*
X58253333Y-88712857D01*
X58253333Y-88855714D01*
X58205714Y-88950952D01*
X58158095Y-88998571D01*
X58062857Y-89046190D01*
X57681904Y-89046190D01*
X59110476Y-88522380D02*
X58920000Y-88522380D01*
X58824761Y-88570000D01*
X58777142Y-88617619D01*
X58681904Y-88760476D01*
X58634285Y-88950952D01*
X58634285Y-89331904D01*
X58681904Y-89427142D01*
X58729523Y-89474761D01*
X58824761Y-89522380D01*
X59015238Y-89522380D01*
X59110476Y-89474761D01*
X59158095Y-89427142D01*
X59205714Y-89331904D01*
X59205714Y-89093809D01*
X59158095Y-88998571D01*
X59110476Y-88950952D01*
X59015238Y-88903333D01*
X58824761Y-88903333D01*
X58729523Y-88950952D01*
X58681904Y-88998571D01*
X58634285Y-89093809D01*
%TO.C,R17*%
X207637142Y-94602380D02*
X207303809Y-94126190D01*
X207065714Y-94602380D02*
X207065714Y-93602380D01*
X207446666Y-93602380D01*
X207541904Y-93650000D01*
X207589523Y-93697619D01*
X207637142Y-93792857D01*
X207637142Y-93935714D01*
X207589523Y-94030952D01*
X207541904Y-94078571D01*
X207446666Y-94126190D01*
X207065714Y-94126190D01*
X208589523Y-94602380D02*
X208018095Y-94602380D01*
X208303809Y-94602380D02*
X208303809Y-93602380D01*
X208208571Y-93745238D01*
X208113333Y-93840476D01*
X208018095Y-93888095D01*
X208922857Y-93602380D02*
X209589523Y-93602380D01*
X209160952Y-94602380D01*
%TO.C,R21*%
X207637142Y-89522380D02*
X207303809Y-89046190D01*
X207065714Y-89522380D02*
X207065714Y-88522380D01*
X207446666Y-88522380D01*
X207541904Y-88570000D01*
X207589523Y-88617619D01*
X207637142Y-88712857D01*
X207637142Y-88855714D01*
X207589523Y-88950952D01*
X207541904Y-88998571D01*
X207446666Y-89046190D01*
X207065714Y-89046190D01*
X208018095Y-88617619D02*
X208065714Y-88570000D01*
X208160952Y-88522380D01*
X208399047Y-88522380D01*
X208494285Y-88570000D01*
X208541904Y-88617619D01*
X208589523Y-88712857D01*
X208589523Y-88808095D01*
X208541904Y-88950952D01*
X207970476Y-89522380D01*
X208589523Y-89522380D01*
X209541904Y-89522380D02*
X208970476Y-89522380D01*
X209256190Y-89522380D02*
X209256190Y-88522380D01*
X209160952Y-88665238D01*
X209065714Y-88760476D01*
X208970476Y-88808095D01*
%TO.C,D12*%
X189285714Y-107202380D02*
X189285714Y-106202380D01*
X189523809Y-106202380D01*
X189666666Y-106250000D01*
X189761904Y-106345238D01*
X189809523Y-106440476D01*
X189857142Y-106630952D01*
X189857142Y-106773809D01*
X189809523Y-106964285D01*
X189761904Y-107059523D01*
X189666666Y-107154761D01*
X189523809Y-107202380D01*
X189285714Y-107202380D01*
X190809523Y-107202380D02*
X190238095Y-107202380D01*
X190523809Y-107202380D02*
X190523809Y-106202380D01*
X190428571Y-106345238D01*
X190333333Y-106440476D01*
X190238095Y-106488095D01*
X191190476Y-106297619D02*
X191238095Y-106250000D01*
X191333333Y-106202380D01*
X191571428Y-106202380D01*
X191666666Y-106250000D01*
X191714285Y-106297619D01*
X191761904Y-106392857D01*
X191761904Y-106488095D01*
X191714285Y-106630952D01*
X191142857Y-107202380D01*
X191761904Y-107202380D01*
X185158095Y-107572380D02*
X185158095Y-106572380D01*
X185729523Y-107572380D02*
X185300952Y-107000952D01*
X185729523Y-106572380D02*
X185158095Y-107143809D01*
D11*
%TO.C,C1*%
X32808333Y-150313571D02*
X32747857Y-150374047D01*
X32566428Y-150434523D01*
X32445476Y-150434523D01*
X32264047Y-150374047D01*
X32143095Y-150253095D01*
X32082619Y-150132142D01*
X32022142Y-149890238D01*
X32022142Y-149708809D01*
X32082619Y-149466904D01*
X32143095Y-149345952D01*
X32264047Y-149225000D01*
X32445476Y-149164523D01*
X32566428Y-149164523D01*
X32747857Y-149225000D01*
X32808333Y-149285476D01*
X34017857Y-150434523D02*
X33292142Y-150434523D01*
X33655000Y-150434523D02*
X33655000Y-149164523D01*
X33534047Y-149345952D01*
X33413095Y-149466904D01*
X33292142Y-149527380D01*
D10*
%TO.C,R11*%
X108577142Y-89522380D02*
X108243809Y-89046190D01*
X108005714Y-89522380D02*
X108005714Y-88522380D01*
X108386666Y-88522380D01*
X108481904Y-88570000D01*
X108529523Y-88617619D01*
X108577142Y-88712857D01*
X108577142Y-88855714D01*
X108529523Y-88950952D01*
X108481904Y-88998571D01*
X108386666Y-89046190D01*
X108005714Y-89046190D01*
X109529523Y-89522380D02*
X108958095Y-89522380D01*
X109243809Y-89522380D02*
X109243809Y-88522380D01*
X109148571Y-88665238D01*
X109053333Y-88760476D01*
X108958095Y-88808095D01*
X110481904Y-89522380D02*
X109910476Y-89522380D01*
X110196190Y-89522380D02*
X110196190Y-88522380D01*
X110100952Y-88665238D01*
X110005714Y-88760476D01*
X109910476Y-88808095D01*
D11*
%TO.C,C9*%
X197243333Y-124913571D02*
X197182857Y-124974047D01*
X197001428Y-125034523D01*
X196880476Y-125034523D01*
X196699047Y-124974047D01*
X196578095Y-124853095D01*
X196517619Y-124732142D01*
X196457142Y-124490238D01*
X196457142Y-124308809D01*
X196517619Y-124066904D01*
X196578095Y-123945952D01*
X196699047Y-123825000D01*
X196880476Y-123764523D01*
X197001428Y-123764523D01*
X197182857Y-123825000D01*
X197243333Y-123885476D01*
X197848095Y-125034523D02*
X198090000Y-125034523D01*
X198210952Y-124974047D01*
X198271428Y-124913571D01*
X198392380Y-124732142D01*
X198452857Y-124490238D01*
X198452857Y-124006428D01*
X198392380Y-123885476D01*
X198331904Y-123825000D01*
X198210952Y-123764523D01*
X197969047Y-123764523D01*
X197848095Y-123825000D01*
X197787619Y-123885476D01*
X197727142Y-124006428D01*
X197727142Y-124308809D01*
X197787619Y-124429761D01*
X197848095Y-124490238D01*
X197969047Y-124550714D01*
X198210952Y-124550714D01*
X198331904Y-124490238D01*
X198392380Y-124429761D01*
X198452857Y-124308809D01*
D10*
%TO.C,R13*%
X123817142Y-114922380D02*
X123483809Y-114446190D01*
X123245714Y-114922380D02*
X123245714Y-113922380D01*
X123626666Y-113922380D01*
X123721904Y-113970000D01*
X123769523Y-114017619D01*
X123817142Y-114112857D01*
X123817142Y-114255714D01*
X123769523Y-114350952D01*
X123721904Y-114398571D01*
X123626666Y-114446190D01*
X123245714Y-114446190D01*
X124769523Y-114922380D02*
X124198095Y-114922380D01*
X124483809Y-114922380D02*
X124483809Y-113922380D01*
X124388571Y-114065238D01*
X124293333Y-114160476D01*
X124198095Y-114208095D01*
X125102857Y-113922380D02*
X125721904Y-113922380D01*
X125388571Y-114303333D01*
X125531428Y-114303333D01*
X125626666Y-114350952D01*
X125674285Y-114398571D01*
X125721904Y-114493809D01*
X125721904Y-114731904D01*
X125674285Y-114827142D01*
X125626666Y-114874761D01*
X125531428Y-114922380D01*
X125245714Y-114922380D01*
X125150476Y-114874761D01*
X125102857Y-114827142D01*
%TO.C,R19*%
X174617142Y-120002380D02*
X174283809Y-119526190D01*
X174045714Y-120002380D02*
X174045714Y-119002380D01*
X174426666Y-119002380D01*
X174521904Y-119050000D01*
X174569523Y-119097619D01*
X174617142Y-119192857D01*
X174617142Y-119335714D01*
X174569523Y-119430952D01*
X174521904Y-119478571D01*
X174426666Y-119526190D01*
X174045714Y-119526190D01*
X175569523Y-120002380D02*
X174998095Y-120002380D01*
X175283809Y-120002380D02*
X175283809Y-119002380D01*
X175188571Y-119145238D01*
X175093333Y-119240476D01*
X174998095Y-119288095D01*
X176045714Y-120002380D02*
X176236190Y-120002380D01*
X176331428Y-119954761D01*
X176379047Y-119907142D01*
X176474285Y-119764285D01*
X176521904Y-119573809D01*
X176521904Y-119192857D01*
X176474285Y-119097619D01*
X176426666Y-119050000D01*
X176331428Y-119002380D01*
X176140952Y-119002380D01*
X176045714Y-119050000D01*
X175998095Y-119097619D01*
X175950476Y-119192857D01*
X175950476Y-119430952D01*
X175998095Y-119526190D01*
X176045714Y-119573809D01*
X176140952Y-119621428D01*
X176331428Y-119621428D01*
X176426666Y-119573809D01*
X176474285Y-119526190D01*
X176521904Y-119430952D01*
%TO.C,R14*%
X123817142Y-120002380D02*
X123483809Y-119526190D01*
X123245714Y-120002380D02*
X123245714Y-119002380D01*
X123626666Y-119002380D01*
X123721904Y-119050000D01*
X123769523Y-119097619D01*
X123817142Y-119192857D01*
X123817142Y-119335714D01*
X123769523Y-119430952D01*
X123721904Y-119478571D01*
X123626666Y-119526190D01*
X123245714Y-119526190D01*
X124769523Y-120002380D02*
X124198095Y-120002380D01*
X124483809Y-120002380D02*
X124483809Y-119002380D01*
X124388571Y-119145238D01*
X124293333Y-119240476D01*
X124198095Y-119288095D01*
X125626666Y-119335714D02*
X125626666Y-120002380D01*
X125388571Y-118954761D02*
X125150476Y-119669047D01*
X125769523Y-119669047D01*
%TO.C,D9*%
X138961904Y-107202380D02*
X138961904Y-106202380D01*
X139200000Y-106202380D01*
X139342857Y-106250000D01*
X139438095Y-106345238D01*
X139485714Y-106440476D01*
X139533333Y-106630952D01*
X139533333Y-106773809D01*
X139485714Y-106964285D01*
X139438095Y-107059523D01*
X139342857Y-107154761D01*
X139200000Y-107202380D01*
X138961904Y-107202380D01*
X140009523Y-107202380D02*
X140200000Y-107202380D01*
X140295238Y-107154761D01*
X140342857Y-107107142D01*
X140438095Y-106964285D01*
X140485714Y-106773809D01*
X140485714Y-106392857D01*
X140438095Y-106297619D01*
X140390476Y-106250000D01*
X140295238Y-106202380D01*
X140104761Y-106202380D01*
X140009523Y-106250000D01*
X139961904Y-106297619D01*
X139914285Y-106392857D01*
X139914285Y-106630952D01*
X139961904Y-106726190D01*
X140009523Y-106773809D01*
X140104761Y-106821428D01*
X140295238Y-106821428D01*
X140390476Y-106773809D01*
X140438095Y-106726190D01*
X140485714Y-106630952D01*
X134358095Y-107572380D02*
X134358095Y-106572380D01*
X134929523Y-107572380D02*
X134500952Y-107000952D01*
X134929523Y-106572380D02*
X134358095Y-107143809D01*
D11*
%TO.C,U13*%
X230444523Y-131112380D02*
X231472619Y-131112380D01*
X231593571Y-131051904D01*
X231654047Y-130991428D01*
X231714523Y-130870476D01*
X231714523Y-130628571D01*
X231654047Y-130507619D01*
X231593571Y-130447142D01*
X231472619Y-130386666D01*
X230444523Y-130386666D01*
X231714523Y-129116666D02*
X231714523Y-129842380D01*
X231714523Y-129479523D02*
X230444523Y-129479523D01*
X230625952Y-129600476D01*
X230746904Y-129721428D01*
X230807380Y-129842380D01*
X230444523Y-128693333D02*
X230444523Y-127907142D01*
X230928333Y-128330476D01*
X230928333Y-128149047D01*
X230988809Y-128028095D01*
X231049285Y-127967619D01*
X231170238Y-127907142D01*
X231472619Y-127907142D01*
X231593571Y-127967619D01*
X231654047Y-128028095D01*
X231714523Y-128149047D01*
X231714523Y-128511904D01*
X231654047Y-128632857D01*
X231593571Y-128693333D01*
%TO.C,U9*%
X128844523Y-130507619D02*
X129872619Y-130507619D01*
X129993571Y-130447142D01*
X130054047Y-130386666D01*
X130114523Y-130265714D01*
X130114523Y-130023809D01*
X130054047Y-129902857D01*
X129993571Y-129842380D01*
X129872619Y-129781904D01*
X128844523Y-129781904D01*
X130114523Y-129116666D02*
X130114523Y-128874761D01*
X130054047Y-128753809D01*
X129993571Y-128693333D01*
X129812142Y-128572380D01*
X129570238Y-128511904D01*
X129086428Y-128511904D01*
X128965476Y-128572380D01*
X128905000Y-128632857D01*
X128844523Y-128753809D01*
X128844523Y-128995714D01*
X128905000Y-129116666D01*
X128965476Y-129177142D01*
X129086428Y-129237619D01*
X129388809Y-129237619D01*
X129509761Y-129177142D01*
X129570238Y-129116666D01*
X129630714Y-128995714D01*
X129630714Y-128753809D01*
X129570238Y-128632857D01*
X129509761Y-128572380D01*
X129388809Y-128511904D01*
D10*
%TO.C,U8*%
X123708095Y-100002380D02*
X123708095Y-100811904D01*
X123755714Y-100907142D01*
X123803333Y-100954761D01*
X123898571Y-101002380D01*
X124089047Y-101002380D01*
X124184285Y-100954761D01*
X124231904Y-100907142D01*
X124279523Y-100811904D01*
X124279523Y-100002380D01*
X124898571Y-100430952D02*
X124803333Y-100383333D01*
X124755714Y-100335714D01*
X124708095Y-100240476D01*
X124708095Y-100192857D01*
X124755714Y-100097619D01*
X124803333Y-100050000D01*
X124898571Y-100002380D01*
X125089047Y-100002380D01*
X125184285Y-100050000D01*
X125231904Y-100097619D01*
X125279523Y-100192857D01*
X125279523Y-100240476D01*
X125231904Y-100335714D01*
X125184285Y-100383333D01*
X125089047Y-100430952D01*
X124898571Y-100430952D01*
X124803333Y-100478571D01*
X124755714Y-100526190D01*
X124708095Y-100621428D01*
X124708095Y-100811904D01*
X124755714Y-100907142D01*
X124803333Y-100954761D01*
X124898571Y-101002380D01*
X125089047Y-101002380D01*
X125184285Y-100954761D01*
X125231904Y-100907142D01*
X125279523Y-100811904D01*
X125279523Y-100621428D01*
X125231904Y-100526190D01*
X125184285Y-100478571D01*
X125089047Y-100430952D01*
D12*
%TO.C,R18*%
X178530000Y-118210000D02*
X178530000Y-115470000D01*
X178530000Y-115470000D02*
X171990000Y-115470000D01*
X171990000Y-115470000D02*
X171990000Y-118210000D01*
X171220000Y-116840000D02*
X171990000Y-116840000D01*
X171990000Y-118210000D02*
X178530000Y-118210000D01*
X179300000Y-116840000D02*
X178530000Y-116840000D01*
D13*
%TO.C,IC3*%
X68895000Y-98515000D02*
X68895000Y-90680000D01*
X88585000Y-97280000D02*
X88585000Y-90680000D01*
D12*
%TO.C,R10*%
X100430000Y-112490000D02*
X100430000Y-105950000D01*
X97690000Y-112490000D02*
X100430000Y-112490000D01*
X97690000Y-105950000D02*
X97690000Y-112490000D01*
X99060000Y-105180000D02*
X99060000Y-105950000D01*
X99060000Y-113260000D02*
X99060000Y-112490000D01*
X100430000Y-105950000D02*
X97690000Y-105950000D01*
%TO.C,R25*%
X250090000Y-105950000D02*
X250090000Y-112490000D01*
X252830000Y-105950000D02*
X250090000Y-105950000D01*
X251460000Y-113260000D02*
X251460000Y-112490000D01*
X252830000Y-112490000D02*
X252830000Y-105950000D01*
X251460000Y-105180000D02*
X251460000Y-105950000D01*
X250090000Y-112490000D02*
X252830000Y-112490000D01*
%TO.C,R4*%
X18820000Y-121920000D02*
X19590000Y-121920000D01*
X19590000Y-120550000D02*
X19590000Y-123290000D01*
X19590000Y-123290000D02*
X26130000Y-123290000D01*
X26130000Y-120550000D02*
X19590000Y-120550000D01*
X26130000Y-123290000D02*
X26130000Y-120550000D01*
X26900000Y-121920000D02*
X26130000Y-121920000D01*
%TO.C,R15*%
X149860000Y-105180000D02*
X149860000Y-105950000D01*
X151230000Y-112490000D02*
X151230000Y-105950000D01*
X149860000Y-113260000D02*
X149860000Y-112490000D01*
X151230000Y-105950000D02*
X148490000Y-105950000D01*
X148490000Y-105950000D02*
X148490000Y-112490000D01*
X148490000Y-112490000D02*
X151230000Y-112490000D01*
%TO.C,R20*%
X202030000Y-105950000D02*
X199290000Y-105950000D01*
X199290000Y-105950000D02*
X199290000Y-112490000D01*
X200660000Y-105180000D02*
X200660000Y-105950000D01*
X202030000Y-112490000D02*
X202030000Y-105950000D01*
X200660000Y-113260000D02*
X200660000Y-112490000D01*
X199290000Y-112490000D02*
X202030000Y-112490000D01*
%TO.C,R3*%
X26130000Y-118210000D02*
X26130000Y-115470000D01*
X26130000Y-115470000D02*
X19590000Y-115470000D01*
X19590000Y-118210000D02*
X26130000Y-118210000D01*
X26900000Y-116840000D02*
X26130000Y-116840000D01*
X18820000Y-116840000D02*
X19590000Y-116840000D01*
X19590000Y-115470000D02*
X19590000Y-118210000D01*
D13*
%TO.C,IC5*%
X139385000Y-97280000D02*
X139385000Y-90680000D01*
X119695000Y-98515000D02*
X119695000Y-90680000D01*
D12*
%TO.C,U6*%
X76320000Y-101550000D02*
X74670000Y-101550000D01*
X72670000Y-101550000D02*
X71020000Y-101550000D01*
X71020000Y-111830000D02*
X76320000Y-111830000D01*
X76320000Y-111830000D02*
X76320000Y-101550000D01*
X71020000Y-101550000D02*
X71020000Y-111830000D01*
X72670000Y-101550000D02*
G75*
G03*
X74670000Y-101550000I1000000J0D01*
G01*
D14*
%TO.C,C3*%
X42080000Y-128710000D02*
X42080000Y-120210000D01*
X42080000Y-120210000D02*
X49280000Y-120210000D01*
X49280000Y-128710000D02*
X42080000Y-128710000D01*
D13*
X40880000Y-124460000D02*
X40880000Y-124460000D01*
D14*
X49280000Y-120210000D02*
X49280000Y-128710000D01*
D13*
X40880000Y-124560000D02*
X40880000Y-124560000D01*
X40880000Y-124460000D02*
X40880000Y-124460000D01*
X40880000Y-124460000D02*
G75*
G03*
X40880000Y-124560000I0J-50000D01*
G01*
X40880000Y-124460000D02*
G75*
G03*
X40880000Y-124560000I0J-50000D01*
G01*
X40880000Y-124560000D02*
G75*
G03*
X40880000Y-124460000I0J50000D01*
G01*
D12*
%TO.C,R2*%
X61690000Y-95150000D02*
X55150000Y-95150000D01*
X61690000Y-97890000D02*
X61690000Y-95150000D01*
X55150000Y-95150000D02*
X55150000Y-97890000D01*
X54380000Y-96520000D02*
X55150000Y-96520000D01*
X62460000Y-96520000D02*
X61690000Y-96520000D01*
X55150000Y-97890000D02*
X61690000Y-97890000D01*
%TO.C,D11*%
X187780000Y-102670000D02*
X187780000Y-105610000D01*
X188680000Y-102670000D02*
X188680000Y-105610000D01*
X188560000Y-102670000D02*
X188560000Y-105610000D01*
X187780000Y-105610000D02*
X193220000Y-105610000D01*
X188800000Y-102670000D02*
X188800000Y-105610000D01*
X193220000Y-105610000D02*
X193220000Y-102670000D01*
X194240000Y-104140000D02*
X193220000Y-104140000D01*
X193220000Y-102670000D02*
X187780000Y-102670000D01*
X186760000Y-104140000D02*
X187780000Y-104140000D01*
D13*
%TO.C,IC8*%
X221295000Y-98515000D02*
X221295000Y-90680000D01*
X240985000Y-97280000D02*
X240985000Y-90680000D01*
D12*
%TO.C,D1*%
X39020000Y-142240000D02*
X38000000Y-142240000D01*
X37100000Y-143710000D02*
X37100000Y-140770000D01*
X37220000Y-143710000D02*
X37220000Y-140770000D01*
X38000000Y-143710000D02*
X38000000Y-140770000D01*
X32560000Y-143710000D02*
X38000000Y-143710000D01*
X32560000Y-140770000D02*
X32560000Y-143710000D01*
X31540000Y-142240000D02*
X32560000Y-142240000D01*
X38000000Y-140770000D02*
X32560000Y-140770000D01*
X36980000Y-143710000D02*
X36980000Y-140770000D01*
D13*
%TO.C,IC2*%
X37785000Y-97280000D02*
X37785000Y-90680000D01*
X18095000Y-98515000D02*
X18095000Y-90680000D01*
D12*
%TO.C,D3*%
X40820000Y-115770000D02*
X40820000Y-112830000D01*
X35380000Y-115770000D02*
X40820000Y-115770000D01*
X35380000Y-112830000D02*
X35380000Y-115770000D01*
X36400000Y-112830000D02*
X36400000Y-115770000D01*
X36280000Y-112830000D02*
X36280000Y-115770000D01*
X36160000Y-112830000D02*
X36160000Y-115770000D01*
X41840000Y-114300000D02*
X40820000Y-114300000D01*
X34360000Y-114300000D02*
X35380000Y-114300000D01*
X40820000Y-112830000D02*
X35380000Y-112830000D01*
%TO.C,U10*%
X174270000Y-101550000D02*
X172620000Y-101550000D01*
X177920000Y-111830000D02*
X177920000Y-101550000D01*
X172620000Y-101550000D02*
X172620000Y-111830000D01*
X172620000Y-111830000D02*
X177920000Y-111830000D01*
X177920000Y-101550000D02*
X176270000Y-101550000D01*
X174270000Y-101550000D02*
G75*
G03*
X176270000Y-101550000I1000000J0D01*
G01*
D14*
%TO.C,C11*%
X245280000Y-120210000D02*
X252480000Y-120210000D01*
D13*
X244080000Y-124460000D02*
X244080000Y-124460000D01*
X244080000Y-124560000D02*
X244080000Y-124560000D01*
X244080000Y-124460000D02*
X244080000Y-124460000D01*
D14*
X245280000Y-128710000D02*
X245280000Y-120210000D01*
X252480000Y-128710000D02*
X245280000Y-128710000D01*
X252480000Y-120210000D02*
X252480000Y-128710000D01*
D13*
X244080000Y-124460000D02*
G75*
G03*
X244080000Y-124560000I0J-50000D01*
G01*
X244080000Y-124560000D02*
G75*
G03*
X244080000Y-124460000I0J50000D01*
G01*
X244080000Y-124460000D02*
G75*
G03*
X244080000Y-124560000I0J-50000D01*
G01*
D12*
%TO.C,D10*%
X143440000Y-114300000D02*
X142420000Y-114300000D01*
X136980000Y-115770000D02*
X142420000Y-115770000D01*
X138000000Y-112830000D02*
X138000000Y-115770000D01*
X135960000Y-114300000D02*
X136980000Y-114300000D01*
X142420000Y-112830000D02*
X136980000Y-112830000D01*
X142420000Y-115770000D02*
X142420000Y-112830000D01*
X137880000Y-112830000D02*
X137880000Y-115770000D01*
X136980000Y-112830000D02*
X136980000Y-115770000D01*
X137760000Y-112830000D02*
X137760000Y-115770000D01*
D13*
%TO.C,U7*%
X68895000Y-134075000D02*
X68895000Y-126240000D01*
X88585000Y-132840000D02*
X88585000Y-126240000D01*
D12*
%TO.C,D7*%
X86180000Y-112830000D02*
X86180000Y-115770000D01*
X92640000Y-114300000D02*
X91620000Y-114300000D01*
X86960000Y-112830000D02*
X86960000Y-115770000D01*
X86180000Y-115770000D02*
X91620000Y-115770000D01*
X91620000Y-115770000D02*
X91620000Y-112830000D01*
X91620000Y-112830000D02*
X86180000Y-112830000D01*
X87080000Y-112830000D02*
X87080000Y-115770000D01*
X87200000Y-112830000D02*
X87200000Y-115770000D01*
X85160000Y-114300000D02*
X86180000Y-114300000D01*
D13*
%TO.C,IC4*%
X155485000Y-101915000D02*
X163320000Y-101915000D01*
X156720000Y-121605000D02*
X163320000Y-121605000D01*
D12*
%TO.C,R16*%
X153440000Y-91440000D02*
X154210000Y-91440000D01*
X154210000Y-92810000D02*
X160750000Y-92810000D01*
X154210000Y-90070000D02*
X154210000Y-92810000D01*
X161520000Y-91440000D02*
X160750000Y-91440000D01*
X160750000Y-90070000D02*
X154210000Y-90070000D01*
X160750000Y-92810000D02*
X160750000Y-90070000D01*
%TO.C,D16*%
X238580000Y-112830000D02*
X238580000Y-115770000D01*
X239600000Y-112830000D02*
X239600000Y-115770000D01*
X237560000Y-114300000D02*
X238580000Y-114300000D01*
X239360000Y-112830000D02*
X239360000Y-115770000D01*
X244020000Y-115770000D02*
X244020000Y-112830000D01*
X244020000Y-112830000D02*
X238580000Y-112830000D01*
X245040000Y-114300000D02*
X244020000Y-114300000D01*
X239480000Y-112830000D02*
X239480000Y-115770000D01*
X238580000Y-115770000D02*
X244020000Y-115770000D01*
D11*
%TO.C,C2*%
X51885000Y-147320000D02*
G75*
G03*
X51885000Y-147320000I-2625000J0D01*
G01*
%TO.C,C4*%
X46805000Y-134620000D02*
G75*
G03*
X46805000Y-134620000I-2625000J0D01*
G01*
D14*
%TO.C,U4*%
X75330000Y-159610000D02*
X75730000Y-159610000D01*
X75230000Y-141010000D02*
X74860000Y-141010000D01*
X76230000Y-140010000D02*
X75230000Y-141010000D01*
X82130000Y-140110000D02*
X81730000Y-140110000D01*
X74850000Y-141010000D02*
X74600000Y-141010000D01*
X81630000Y-159610000D02*
X82130000Y-159610000D01*
X82130000Y-140510000D02*
X82130000Y-140110000D01*
X76530000Y-140010000D02*
X76230000Y-140010000D01*
X75330000Y-159210000D02*
X75330000Y-159610000D01*
X82130000Y-159610000D02*
X82130000Y-159210000D01*
D12*
%TO.C,D8*%
X136980000Y-105610000D02*
X142420000Y-105610000D01*
X136980000Y-102670000D02*
X136980000Y-105610000D01*
X143440000Y-104140000D02*
X142420000Y-104140000D01*
X142420000Y-102670000D02*
X136980000Y-102670000D01*
X142420000Y-105610000D02*
X142420000Y-102670000D01*
X138000000Y-102670000D02*
X138000000Y-105610000D01*
X135960000Y-104140000D02*
X136980000Y-104140000D01*
X137880000Y-102670000D02*
X137880000Y-105610000D01*
X137760000Y-102670000D02*
X137760000Y-105610000D01*
%TO.C,R9*%
X70390000Y-123290000D02*
X76930000Y-123290000D01*
X77700000Y-121920000D02*
X76930000Y-121920000D01*
X76930000Y-120550000D02*
X70390000Y-120550000D01*
X69620000Y-121920000D02*
X70390000Y-121920000D01*
X70390000Y-120550000D02*
X70390000Y-123290000D01*
X76930000Y-123290000D02*
X76930000Y-120550000D01*
%TO.C,D6*%
X91620000Y-110690000D02*
X91620000Y-107750000D01*
X87080000Y-107750000D02*
X87080000Y-110690000D01*
X86180000Y-107750000D02*
X86180000Y-110690000D01*
X86960000Y-107750000D02*
X86960000Y-110690000D01*
X86180000Y-110690000D02*
X91620000Y-110690000D01*
X91620000Y-107750000D02*
X86180000Y-107750000D01*
X87200000Y-107750000D02*
X87200000Y-110690000D01*
X85160000Y-109220000D02*
X86180000Y-109220000D01*
X92640000Y-109220000D02*
X91620000Y-109220000D01*
%TO.C,R22*%
X263120000Y-99060000D02*
X262350000Y-99060000D01*
X255810000Y-97690000D02*
X255810000Y-100430000D01*
X262350000Y-97690000D02*
X255810000Y-97690000D01*
X255040000Y-99060000D02*
X255810000Y-99060000D01*
X262350000Y-100430000D02*
X262350000Y-97690000D01*
X255810000Y-100430000D02*
X262350000Y-100430000D01*
%TO.C,D13*%
X188560000Y-112830000D02*
X188560000Y-115770000D01*
X193220000Y-112830000D02*
X187780000Y-112830000D01*
X187780000Y-112830000D02*
X187780000Y-115770000D01*
X186760000Y-114300000D02*
X187780000Y-114300000D01*
X194240000Y-114300000D02*
X193220000Y-114300000D01*
X193220000Y-115770000D02*
X193220000Y-112830000D01*
X187780000Y-115770000D02*
X193220000Y-115770000D01*
X188800000Y-112830000D02*
X188800000Y-115770000D01*
X188680000Y-112830000D02*
X188680000Y-115770000D01*
%TO.C,U2*%
X25520000Y-111830000D02*
X25520000Y-101550000D01*
X21870000Y-101550000D02*
X20220000Y-101550000D01*
X25520000Y-101550000D02*
X23870000Y-101550000D01*
X20220000Y-111830000D02*
X25520000Y-111830000D01*
X20220000Y-101550000D02*
X20220000Y-111830000D01*
X21870000Y-101550000D02*
G75*
G03*
X23870000Y-101550000I1000000J0D01*
G01*
%TO.C,D4*%
X40820000Y-110690000D02*
X40820000Y-107750000D01*
X36400000Y-107750000D02*
X36400000Y-110690000D01*
X36160000Y-107750000D02*
X36160000Y-110690000D01*
X40820000Y-107750000D02*
X35380000Y-107750000D01*
X35380000Y-107750000D02*
X35380000Y-110690000D01*
X35380000Y-110690000D02*
X40820000Y-110690000D01*
X36280000Y-107750000D02*
X36280000Y-110690000D01*
X41840000Y-109220000D02*
X40820000Y-109220000D01*
X34360000Y-109220000D02*
X35380000Y-109220000D01*
D13*
%TO.C,U3*%
X37785000Y-132840000D02*
X37785000Y-126240000D01*
X18095000Y-134075000D02*
X18095000Y-126240000D01*
D12*
%TO.C,R8*%
X69620000Y-116840000D02*
X70390000Y-116840000D01*
X70390000Y-118210000D02*
X76930000Y-118210000D01*
X77700000Y-116840000D02*
X76930000Y-116840000D01*
X76930000Y-115470000D02*
X70390000Y-115470000D01*
X70390000Y-115470000D02*
X70390000Y-118210000D01*
X76930000Y-118210000D02*
X76930000Y-115470000D01*
D11*
%TO.C,C10*%
X199205000Y-134620000D02*
G75*
G03*
X199205000Y-134620000I-2625000J0D01*
G01*
D12*
%TO.C,R26*%
X255040000Y-91440000D02*
X255810000Y-91440000D01*
X262350000Y-90070000D02*
X255810000Y-90070000D01*
X262350000Y-92810000D02*
X262350000Y-90070000D01*
X263120000Y-91440000D02*
X262350000Y-91440000D01*
X255810000Y-90070000D02*
X255810000Y-92810000D01*
X255810000Y-92810000D02*
X262350000Y-92810000D01*
D11*
%TO.C,C12*%
X250005000Y-134620000D02*
G75*
G03*
X250005000Y-134620000I-2625000J0D01*
G01*
D12*
%TO.C,R12*%
X161520000Y-96520000D02*
X160750000Y-96520000D01*
X160750000Y-97890000D02*
X160750000Y-95150000D01*
X160750000Y-95150000D02*
X154210000Y-95150000D01*
X154210000Y-97890000D02*
X160750000Y-97890000D01*
X153440000Y-96520000D02*
X154210000Y-96520000D01*
X154210000Y-95150000D02*
X154210000Y-97890000D01*
%TO.C,R7*%
X113260000Y-96520000D02*
X112490000Y-96520000D01*
X112490000Y-95150000D02*
X105950000Y-95150000D01*
X105950000Y-95150000D02*
X105950000Y-97890000D01*
X105180000Y-96520000D02*
X105950000Y-96520000D01*
X105950000Y-97890000D02*
X112490000Y-97890000D01*
X112490000Y-97890000D02*
X112490000Y-95150000D01*
%TO.C,R1*%
X153770000Y-144050000D02*
X151030000Y-144050000D01*
X152400000Y-151360000D02*
X152400000Y-150590000D01*
X151030000Y-150590000D02*
X153770000Y-150590000D01*
X153770000Y-150590000D02*
X153770000Y-144050000D01*
X151030000Y-144050000D02*
X151030000Y-150590000D01*
X152400000Y-143280000D02*
X152400000Y-144050000D01*
D13*
%TO.C,U11*%
X190185000Y-132840000D02*
X190185000Y-126240000D01*
X170495000Y-134075000D02*
X170495000Y-126240000D01*
%TO.C,IC7*%
X230380000Y-157165000D02*
X236980000Y-157165000D01*
X229145000Y-137475000D02*
X236980000Y-137475000D01*
D12*
%TO.C,U1*%
X54910000Y-139940000D02*
X56150000Y-139940000D01*
X54910000Y-141180000D02*
X54910000Y-139940000D01*
X55150000Y-140180000D02*
X55150000Y-148800000D01*
X55150000Y-140180000D02*
X66770000Y-140180000D01*
X66770000Y-140180000D02*
X66770000Y-148800000D01*
X55150000Y-148800000D02*
X66770000Y-148800000D01*
%TO.C,D15*%
X245040000Y-109220000D02*
X244020000Y-109220000D01*
X239600000Y-107750000D02*
X239600000Y-110690000D01*
X239480000Y-107750000D02*
X239480000Y-110690000D01*
X237560000Y-109220000D02*
X238580000Y-109220000D01*
X239360000Y-107750000D02*
X239360000Y-110690000D01*
X238580000Y-110690000D02*
X244020000Y-110690000D01*
X244020000Y-110690000D02*
X244020000Y-107750000D01*
X238580000Y-107750000D02*
X238580000Y-110690000D01*
X244020000Y-107750000D02*
X238580000Y-107750000D01*
D13*
%TO.C,IC6*%
X190185000Y-97280000D02*
X190185000Y-90680000D01*
X170495000Y-98515000D02*
X170495000Y-90680000D01*
D12*
%TO.C,U12*%
X223420000Y-111830000D02*
X228720000Y-111830000D01*
X223420000Y-101550000D02*
X223420000Y-111830000D01*
X225070000Y-101550000D02*
X223420000Y-101550000D01*
X228720000Y-111830000D02*
X228720000Y-101550000D01*
X228720000Y-101550000D02*
X227070000Y-101550000D01*
X225070000Y-101550000D02*
G75*
G03*
X227070000Y-101550000I1000000J0D01*
G01*
D14*
%TO.C,U5*%
X94830000Y-159610000D02*
X94830000Y-159210000D01*
X89230000Y-140010000D02*
X88930000Y-140010000D01*
X88930000Y-140010000D02*
X87930000Y-141010000D01*
X94830000Y-140510000D02*
X94830000Y-140110000D01*
X87550000Y-141010000D02*
X87300000Y-141010000D01*
X88030000Y-159610000D02*
X88430000Y-159610000D01*
X94830000Y-140110000D02*
X94430000Y-140110000D01*
X88030000Y-159210000D02*
X88030000Y-159610000D01*
X87930000Y-141010000D02*
X87560000Y-141010000D01*
X94330000Y-159610000D02*
X94830000Y-159610000D01*
%TO.C,C5*%
X100080000Y-117670000D02*
X100080000Y-126170000D01*
X92880000Y-117670000D02*
X100080000Y-117670000D01*
X92880000Y-126170000D02*
X92880000Y-117670000D01*
D13*
X91680000Y-121920000D02*
X91680000Y-121920000D01*
X91680000Y-122020000D02*
X91680000Y-122020000D01*
D14*
X100080000Y-126170000D02*
X92880000Y-126170000D01*
D13*
X91680000Y-121920000D02*
X91680000Y-121920000D01*
X91680000Y-121920000D02*
G75*
G03*
X91680000Y-122020000I0J-50000D01*
G01*
X91680000Y-122020000D02*
G75*
G03*
X91680000Y-121920000I0J50000D01*
G01*
X91680000Y-121920000D02*
G75*
G03*
X91680000Y-122020000I0J-50000D01*
G01*
D12*
%TO.C,D2*%
X36400000Y-102670000D02*
X36400000Y-105610000D01*
X36280000Y-102670000D02*
X36280000Y-105610000D01*
X34360000Y-104140000D02*
X35380000Y-104140000D01*
X35380000Y-102670000D02*
X35380000Y-105610000D01*
X35380000Y-105610000D02*
X40820000Y-105610000D01*
X41840000Y-104140000D02*
X40820000Y-104140000D01*
X36160000Y-102670000D02*
X36160000Y-105610000D01*
X40820000Y-105610000D02*
X40820000Y-102670000D01*
X40820000Y-102670000D02*
X35380000Y-102670000D01*
%TO.C,R5*%
X49630000Y-105950000D02*
X46890000Y-105950000D01*
X48260000Y-105180000D02*
X48260000Y-105950000D01*
X49630000Y-112490000D02*
X49630000Y-105950000D01*
X46890000Y-105950000D02*
X46890000Y-112490000D01*
X48260000Y-113260000D02*
X48260000Y-112490000D01*
X46890000Y-112490000D02*
X49630000Y-112490000D01*
D14*
%TO.C,C7*%
X150880000Y-120210000D02*
X150880000Y-128710000D01*
X143680000Y-128710000D02*
X143680000Y-120210000D01*
X143680000Y-120210000D02*
X150880000Y-120210000D01*
X150880000Y-128710000D02*
X143680000Y-128710000D01*
D13*
X142480000Y-124460000D02*
X142480000Y-124460000D01*
X142480000Y-124460000D02*
X142480000Y-124460000D01*
X142480000Y-124560000D02*
X142480000Y-124560000D01*
X142480000Y-124560000D02*
G75*
G03*
X142480000Y-124460000I0J50000D01*
G01*
X142480000Y-124460000D02*
G75*
G03*
X142480000Y-124560000I0J-50000D01*
G01*
X142480000Y-124460000D02*
G75*
G03*
X142480000Y-124560000I0J-50000D01*
G01*
D12*
%TO.C,R24*%
X222790000Y-118210000D02*
X229330000Y-118210000D01*
X229330000Y-115470000D02*
X222790000Y-115470000D01*
X230100000Y-116840000D02*
X229330000Y-116840000D01*
X229330000Y-118210000D02*
X229330000Y-115470000D01*
X222790000Y-115470000D02*
X222790000Y-118210000D01*
X222020000Y-116840000D02*
X222790000Y-116840000D01*
D11*
%TO.C,C8*%
X148945000Y-134620000D02*
G75*
G03*
X148945000Y-134620000I-2625000J0D01*
G01*
D12*
%TO.C,D14*%
X239360000Y-102670000D02*
X239360000Y-105610000D01*
X238580000Y-102670000D02*
X238580000Y-105610000D01*
X237560000Y-104140000D02*
X238580000Y-104140000D01*
X238580000Y-105610000D02*
X244020000Y-105610000D01*
X244020000Y-102670000D02*
X238580000Y-102670000D01*
X239600000Y-102670000D02*
X239600000Y-105610000D01*
X245040000Y-104140000D02*
X244020000Y-104140000D01*
X244020000Y-105610000D02*
X244020000Y-102670000D01*
X239480000Y-102670000D02*
X239480000Y-105610000D01*
D14*
%TO.C,U14*%
X213390000Y-137470000D02*
X212390000Y-138470000D01*
X218790000Y-157070000D02*
X219290000Y-157070000D01*
X212010000Y-138470000D02*
X211760000Y-138470000D01*
X219290000Y-157070000D02*
X219290000Y-156670000D01*
X212390000Y-138470000D02*
X212020000Y-138470000D01*
X212490000Y-157070000D02*
X212890000Y-157070000D01*
X213690000Y-137470000D02*
X213390000Y-137470000D01*
X212490000Y-156670000D02*
X212490000Y-157070000D01*
X219290000Y-137570000D02*
X218890000Y-137570000D01*
X219290000Y-137970000D02*
X219290000Y-137570000D01*
D13*
%TO.C,IC1*%
X55120000Y-124145000D02*
X61720000Y-124145000D01*
X53885000Y-104455000D02*
X61720000Y-104455000D01*
D12*
%TO.C,R23*%
X230100000Y-121920000D02*
X229330000Y-121920000D01*
X229330000Y-120550000D02*
X222790000Y-120550000D01*
X222020000Y-121920000D02*
X222790000Y-121920000D01*
X229330000Y-123290000D02*
X229330000Y-120550000D01*
X222790000Y-123290000D02*
X229330000Y-123290000D01*
X222790000Y-120550000D02*
X222790000Y-123290000D01*
D11*
%TO.C,C6*%
X97605000Y-134620000D02*
G75*
G03*
X97605000Y-134620000I-2625000J0D01*
G01*
D12*
%TO.C,D5*%
X87080000Y-102670000D02*
X87080000Y-105610000D01*
X87200000Y-102670000D02*
X87200000Y-105610000D01*
X91620000Y-105610000D02*
X91620000Y-102670000D01*
X86960000Y-102670000D02*
X86960000Y-105610000D01*
X85160000Y-104140000D02*
X86180000Y-104140000D01*
X91620000Y-102670000D02*
X86180000Y-102670000D01*
X92640000Y-104140000D02*
X91620000Y-104140000D01*
X86180000Y-102670000D02*
X86180000Y-105610000D01*
X86180000Y-105610000D02*
X91620000Y-105610000D01*
%TO.C,R6*%
X62460000Y-91440000D02*
X61690000Y-91440000D01*
X54380000Y-91440000D02*
X55150000Y-91440000D01*
X55150000Y-92810000D02*
X61690000Y-92810000D01*
X61690000Y-90070000D02*
X55150000Y-90070000D01*
X55150000Y-90070000D02*
X55150000Y-92810000D01*
X61690000Y-92810000D02*
X61690000Y-90070000D01*
%TO.C,R17*%
X212320000Y-96520000D02*
X211550000Y-96520000D01*
X211550000Y-95150000D02*
X205010000Y-95150000D01*
X211550000Y-97890000D02*
X211550000Y-95150000D01*
X205010000Y-95150000D02*
X205010000Y-97890000D01*
X204240000Y-96520000D02*
X205010000Y-96520000D01*
X205010000Y-97890000D02*
X211550000Y-97890000D01*
%TO.C,R21*%
X205010000Y-92810000D02*
X211550000Y-92810000D01*
X204240000Y-91440000D02*
X205010000Y-91440000D01*
X211550000Y-90070000D02*
X205010000Y-90070000D01*
X212320000Y-91440000D02*
X211550000Y-91440000D01*
X205010000Y-90070000D02*
X205010000Y-92810000D01*
X211550000Y-92810000D02*
X211550000Y-90070000D01*
%TO.C,D12*%
X187780000Y-107750000D02*
X187780000Y-110690000D01*
X188680000Y-107750000D02*
X188680000Y-110690000D01*
X188560000Y-107750000D02*
X188560000Y-110690000D01*
X193220000Y-107750000D02*
X187780000Y-107750000D01*
X188800000Y-107750000D02*
X188800000Y-110690000D01*
X194240000Y-109220000D02*
X193220000Y-109220000D01*
X193220000Y-110690000D02*
X193220000Y-107750000D01*
X187780000Y-110690000D02*
X193220000Y-110690000D01*
X186760000Y-109220000D02*
X187780000Y-109220000D01*
D13*
%TO.C,C1*%
X40520000Y-149860000D02*
G75*
G03*
X40520000Y-149860000I-5000000J0D01*
G01*
D12*
%TO.C,R11*%
X105180000Y-91440000D02*
X105950000Y-91440000D01*
X112490000Y-92810000D02*
X112490000Y-90070000D01*
X105950000Y-92810000D02*
X112490000Y-92810000D01*
X113260000Y-91440000D02*
X112490000Y-91440000D01*
X105950000Y-90070000D02*
X105950000Y-92810000D01*
X112490000Y-90070000D02*
X105950000Y-90070000D01*
D14*
%TO.C,C9*%
X194480000Y-128710000D02*
X194480000Y-120210000D01*
X201680000Y-120210000D02*
X201680000Y-128710000D01*
D13*
X193280000Y-124560000D02*
X193280000Y-124560000D01*
D14*
X201680000Y-128710000D02*
X194480000Y-128710000D01*
D13*
X193280000Y-124460000D02*
X193280000Y-124460000D01*
X193280000Y-124460000D02*
X193280000Y-124460000D01*
D14*
X194480000Y-120210000D02*
X201680000Y-120210000D01*
D13*
X193280000Y-124460000D02*
G75*
G03*
X193280000Y-124560000I0J-50000D01*
G01*
X193280000Y-124460000D02*
G75*
G03*
X193280000Y-124560000I0J-50000D01*
G01*
X193280000Y-124560000D02*
G75*
G03*
X193280000Y-124460000I0J50000D01*
G01*
D12*
%TO.C,R13*%
X121190000Y-118210000D02*
X127730000Y-118210000D01*
X127730000Y-118210000D02*
X127730000Y-115470000D01*
X128500000Y-116840000D02*
X127730000Y-116840000D01*
X127730000Y-115470000D02*
X121190000Y-115470000D01*
X121190000Y-115470000D02*
X121190000Y-118210000D01*
X120420000Y-116840000D02*
X121190000Y-116840000D01*
%TO.C,R19*%
X178530000Y-123290000D02*
X178530000Y-120550000D01*
X179300000Y-121920000D02*
X178530000Y-121920000D01*
X171990000Y-120550000D02*
X171990000Y-123290000D01*
X178530000Y-120550000D02*
X171990000Y-120550000D01*
X171990000Y-123290000D02*
X178530000Y-123290000D01*
X171220000Y-121920000D02*
X171990000Y-121920000D01*
%TO.C,R14*%
X127730000Y-120550000D02*
X121190000Y-120550000D01*
X121190000Y-123290000D02*
X127730000Y-123290000D01*
X128500000Y-121920000D02*
X127730000Y-121920000D01*
X127730000Y-123290000D02*
X127730000Y-120550000D01*
X120420000Y-121920000D02*
X121190000Y-121920000D01*
X121190000Y-120550000D02*
X121190000Y-123290000D01*
%TO.C,D9*%
X137760000Y-107750000D02*
X137760000Y-110690000D01*
X142420000Y-107750000D02*
X136980000Y-107750000D01*
X137880000Y-107750000D02*
X137880000Y-110690000D01*
X142420000Y-110690000D02*
X142420000Y-107750000D01*
X136980000Y-110690000D02*
X142420000Y-110690000D01*
X138000000Y-107750000D02*
X138000000Y-110690000D01*
X143440000Y-109220000D02*
X142420000Y-109220000D01*
X135960000Y-109220000D02*
X136980000Y-109220000D01*
X136980000Y-107750000D02*
X136980000Y-110690000D01*
D13*
%TO.C,U13*%
X240985000Y-132840000D02*
X240985000Y-126240000D01*
X221295000Y-134075000D02*
X221295000Y-126240000D01*
%TO.C,U9*%
X139385000Y-132840000D02*
X139385000Y-126240000D01*
X119695000Y-134075000D02*
X119695000Y-126240000D01*
D12*
%TO.C,U8*%
X127120000Y-101550000D02*
X125470000Y-101550000D01*
X121820000Y-101550000D02*
X121820000Y-111830000D01*
X123470000Y-101550000D02*
X121820000Y-101550000D01*
X121820000Y-111830000D02*
X127120000Y-111830000D01*
X127120000Y-111830000D02*
X127120000Y-101550000D01*
X123470000Y-101550000D02*
G75*
G03*
X125470000Y-101550000I1000000J0D01*
G01*
%TD*%
D15*
%TO.C,IC3*%
X69850000Y-97950000D03*
D16*
X72390000Y-97950000D03*
X74930000Y-97950000D03*
X77470000Y-97950000D03*
X80010000Y-97950000D03*
X82550000Y-97950000D03*
X85090000Y-97950000D03*
X87630000Y-97950000D03*
X87630000Y-90010000D03*
X85090000Y-90010000D03*
X82550000Y-90010000D03*
X80010000Y-90010000D03*
X77470000Y-90010000D03*
X74930000Y-90010000D03*
X72390000Y-90010000D03*
X69850000Y-90010000D03*
%TD*%
D15*
%TO.C,IC5*%
X120650000Y-97950000D03*
D16*
X123190000Y-97950000D03*
X125730000Y-97950000D03*
X128270000Y-97950000D03*
X130810000Y-97950000D03*
X133350000Y-97950000D03*
X135890000Y-97950000D03*
X138430000Y-97950000D03*
X138430000Y-90010000D03*
X135890000Y-90010000D03*
X133350000Y-90010000D03*
X130810000Y-90010000D03*
X128270000Y-90010000D03*
X125730000Y-90010000D03*
X123190000Y-90010000D03*
X120650000Y-90010000D03*
%TD*%
D17*
%TO.C,C3*%
X43180000Y-124460000D03*
X48180000Y-124460000D03*
%TD*%
D15*
%TO.C,IC8*%
X222250000Y-97950000D03*
D16*
X224790000Y-97950000D03*
X227330000Y-97950000D03*
X229870000Y-97950000D03*
X232410000Y-97950000D03*
X234950000Y-97950000D03*
X237490000Y-97950000D03*
X240030000Y-97950000D03*
X240030000Y-90010000D03*
X237490000Y-90010000D03*
X234950000Y-90010000D03*
X232410000Y-90010000D03*
X229870000Y-90010000D03*
X227330000Y-90010000D03*
X224790000Y-90010000D03*
X222250000Y-90010000D03*
%TD*%
D15*
%TO.C,IC2*%
X19050000Y-97950000D03*
D16*
X21590000Y-97950000D03*
X24130000Y-97950000D03*
X26670000Y-97950000D03*
X29210000Y-97950000D03*
X31750000Y-97950000D03*
X34290000Y-97950000D03*
X36830000Y-97950000D03*
X36830000Y-90010000D03*
X34290000Y-90010000D03*
X31750000Y-90010000D03*
X29210000Y-90010000D03*
X26670000Y-90010000D03*
X24130000Y-90010000D03*
X21590000Y-90010000D03*
X19050000Y-90010000D03*
%TD*%
D17*
%TO.C,C11*%
X246380000Y-124460000D03*
X251380000Y-124460000D03*
%TD*%
D15*
%TO.C,U7*%
X69850000Y-133510000D03*
D16*
X72390000Y-133510000D03*
X74930000Y-133510000D03*
X77470000Y-133510000D03*
X80010000Y-133510000D03*
X82550000Y-133510000D03*
X85090000Y-133510000D03*
X87630000Y-133510000D03*
X87630000Y-125570000D03*
X85090000Y-125570000D03*
X82550000Y-125570000D03*
X80010000Y-125570000D03*
X77470000Y-125570000D03*
X74930000Y-125570000D03*
X72390000Y-125570000D03*
X69850000Y-125570000D03*
%TD*%
D15*
%TO.C,IC4*%
X156050000Y-102870000D03*
D16*
X156050000Y-105410000D03*
X156050000Y-107950000D03*
X156050000Y-110490000D03*
X156050000Y-113030000D03*
X156050000Y-115570000D03*
X156050000Y-118110000D03*
X156050000Y-120650000D03*
X163990000Y-120650000D03*
X163990000Y-118110000D03*
X163990000Y-115570000D03*
X163990000Y-113030000D03*
X163990000Y-110490000D03*
X163990000Y-107950000D03*
X163990000Y-105410000D03*
X163990000Y-102870000D03*
%TD*%
D18*
%TO.C,C2*%
X48260000Y-147320000D03*
D19*
X50260000Y-147320000D03*
%TD*%
D18*
%TO.C,C4*%
X43180000Y-134620000D03*
D19*
X45180000Y-134620000D03*
%TD*%
D15*
%TO.C,U3*%
X19050000Y-133510000D03*
D16*
X21590000Y-133510000D03*
X24130000Y-133510000D03*
X26670000Y-133510000D03*
X29210000Y-133510000D03*
X31750000Y-133510000D03*
X34290000Y-133510000D03*
X36830000Y-133510000D03*
X36830000Y-125570000D03*
X34290000Y-125570000D03*
X31750000Y-125570000D03*
X29210000Y-125570000D03*
X26670000Y-125570000D03*
X24130000Y-125570000D03*
X21590000Y-125570000D03*
X19050000Y-125570000D03*
%TD*%
D18*
%TO.C,C10*%
X195580000Y-134620000D03*
D19*
X197580000Y-134620000D03*
%TD*%
D18*
%TO.C,C12*%
X246380000Y-134620000D03*
D19*
X248380000Y-134620000D03*
%TD*%
D15*
%TO.C,U11*%
X171450000Y-133510000D03*
D16*
X173990000Y-133510000D03*
X176530000Y-133510000D03*
X179070000Y-133510000D03*
X181610000Y-133510000D03*
X184150000Y-133510000D03*
X186690000Y-133510000D03*
X189230000Y-133510000D03*
X189230000Y-125570000D03*
X186690000Y-125570000D03*
X184150000Y-125570000D03*
X181610000Y-125570000D03*
X179070000Y-125570000D03*
X176530000Y-125570000D03*
X173990000Y-125570000D03*
X171450000Y-125570000D03*
%TD*%
D15*
%TO.C,IC7*%
X229710000Y-138430000D03*
D16*
X229710000Y-140970000D03*
X229710000Y-143510000D03*
X229710000Y-146050000D03*
X229710000Y-148590000D03*
X229710000Y-151130000D03*
X229710000Y-153670000D03*
X229710000Y-156210000D03*
X237650000Y-156210000D03*
X237650000Y-153670000D03*
X237650000Y-151130000D03*
X237650000Y-148590000D03*
X237650000Y-146050000D03*
X237650000Y-143510000D03*
X237650000Y-140970000D03*
X237650000Y-138430000D03*
%TD*%
D15*
%TO.C,IC6*%
X171450000Y-97950000D03*
D16*
X173990000Y-97950000D03*
X176530000Y-97950000D03*
X179070000Y-97950000D03*
X181610000Y-97950000D03*
X184150000Y-97950000D03*
X186690000Y-97950000D03*
X189230000Y-97950000D03*
X189230000Y-90010000D03*
X186690000Y-90010000D03*
X184150000Y-90010000D03*
X181610000Y-90010000D03*
X179070000Y-90010000D03*
X176530000Y-90010000D03*
X173990000Y-90010000D03*
X171450000Y-90010000D03*
%TD*%
D17*
%TO.C,C5*%
X93980000Y-121920000D03*
X98980000Y-121920000D03*
%TD*%
%TO.C,C7*%
X144780000Y-124460000D03*
X149780000Y-124460000D03*
%TD*%
D18*
%TO.C,C8*%
X145320000Y-134620000D03*
D19*
X147320000Y-134620000D03*
%TD*%
D15*
%TO.C,IC1*%
X54450000Y-105410000D03*
D16*
X54450000Y-107950000D03*
X54450000Y-110490000D03*
X54450000Y-113030000D03*
X54450000Y-115570000D03*
X54450000Y-118110000D03*
X54450000Y-120650000D03*
X54450000Y-123190000D03*
X62390000Y-123190000D03*
X62390000Y-120650000D03*
X62390000Y-118110000D03*
X62390000Y-115570000D03*
X62390000Y-113030000D03*
X62390000Y-110490000D03*
X62390000Y-107950000D03*
X62390000Y-105410000D03*
%TD*%
D18*
%TO.C,C6*%
X93980000Y-134620000D03*
D19*
X95980000Y-134620000D03*
%TD*%
D17*
%TO.C,C9*%
X195580000Y-124460000D03*
X200580000Y-124460000D03*
%TD*%
D15*
%TO.C,U13*%
X222250000Y-133510000D03*
D16*
X224790000Y-133510000D03*
X227330000Y-133510000D03*
X229870000Y-133510000D03*
X232410000Y-133510000D03*
X234950000Y-133510000D03*
X237490000Y-133510000D03*
X240030000Y-133510000D03*
X240030000Y-125570000D03*
X237490000Y-125570000D03*
X234950000Y-125570000D03*
X232410000Y-125570000D03*
X229870000Y-125570000D03*
X227330000Y-125570000D03*
X224790000Y-125570000D03*
X222250000Y-125570000D03*
%TD*%
D15*
%TO.C,U9*%
X120650000Y-133510000D03*
D16*
X123190000Y-133510000D03*
X125730000Y-133510000D03*
X128270000Y-133510000D03*
X130810000Y-133510000D03*
X133350000Y-133510000D03*
X135890000Y-133510000D03*
X138430000Y-133510000D03*
X138430000Y-125570000D03*
X135890000Y-125570000D03*
X133350000Y-125570000D03*
X130810000Y-125570000D03*
X128270000Y-125570000D03*
X125730000Y-125570000D03*
X123190000Y-125570000D03*
X120650000Y-125570000D03*
%TD*%
M02*
