%TF.GenerationSoftware,KiCad,Pcbnew,(6.0.2)*%
%TF.CreationDate,2022-04-29T17:00:25+02:00*%
%TF.ProjectId,Kniffel_V1,4b6e6966-6665-46c5-9f56-312e6b696361,rev?*%
%TF.SameCoordinates,Original*%
%TF.FileFunction,Soldermask,Top*%
%TF.FilePolarity,Negative*%
%FSLAX46Y46*%
G04 Gerber Fmt 4.6, Leading zero omitted, Abs format (unit mm)*
G04 Created by KiCad (PCBNEW (6.0.2)) date 2022-04-29 17:00:25*
%MOMM*%
%LPD*%
G01*
G04 APERTURE LIST*
G04 Aperture macros list*
%AMRoundRect*
0 Rectangle with rounded corners*
0 $1 Rounding radius*
0 $2 $3 $4 $5 $6 $7 $8 $9 X,Y pos of 4 corners*
0 Add a 4 corners polygon primitive as box body*
4,1,4,$2,$3,$4,$5,$6,$7,$8,$9,$2,$3,0*
0 Add four circle primitives for the rounded corners*
1,1,$1+$1,$2,$3*
1,1,$1+$1,$4,$5*
1,1,$1+$1,$6,$7*
1,1,$1+$1,$8,$9*
0 Add four rect primitives between the rounded corners*
20,1,$1+$1,$2,$3,$4,$5,0*
20,1,$1+$1,$4,$5,$6,$7,0*
20,1,$1+$1,$6,$7,$8,$9,0*
20,1,$1+$1,$8,$9,$2,$3,0*%
G04 Aperture macros list end*
%ADD10C,5.600000*%
%ADD11C,1.600000*%
%ADD12O,1.600000X1.600000*%
%ADD13RoundRect,0.250002X-1.499998X-1.499998X1.499998X-1.499998X1.499998X1.499998X-1.499998X1.499998X0*%
%ADD14R,1.130000X1.130000*%
%ADD15C,1.130000*%
%ADD16RoundRect,0.250001X-0.799999X0.799999X-0.799999X-0.799999X0.799999X-0.799999X0.799999X0.799999X0*%
%ADD17C,2.100000*%
%ADD18R,2.400000X1.600000*%
%ADD19O,2.400000X1.600000*%
%ADD20R,2.200000X2.200000*%
%ADD21O,2.200000X2.200000*%
%ADD22R,1.600000X1.600000*%
%ADD23C,1.200000*%
%ADD24RoundRect,0.249999X-1.025001X-1.025001X1.025001X-1.025001X1.025001X1.025001X-1.025001X1.025001X0*%
%ADD25C,2.550000*%
%ADD26RoundRect,0.250001X-0.799999X-0.799999X0.799999X-0.799999X0.799999X0.799999X-0.799999X0.799999X0*%
%ADD27RoundRect,0.250001X0.799999X0.799999X-0.799999X0.799999X-0.799999X-0.799999X0.799999X-0.799999X0*%
%ADD28R,1.150000X1.150000*%
%ADD29C,1.150000*%
%ADD30R,1.500000X2.300000*%
%ADD31O,1.500000X2.300000*%
%ADD32RoundRect,0.250001X0.799999X-0.799999X0.799999X0.799999X-0.799999X0.799999X-0.799999X-0.799999X0*%
%ADD33R,1.275000X1.275000*%
%ADD34C,1.275000*%
%ADD35R,1.500000X1.500000*%
%ADD36C,1.500000*%
G04 APERTURE END LIST*
D10*
%TO.C,REF2*%
X282500000Y-26500000D03*
%TD*%
%TO.C,REF1*%
X34000000Y-26000000D03*
%TD*%
%TO.C,REF4*%
X33000000Y-191000000D03*
%TD*%
%TO.C,REF3*%
X283500000Y-189000000D03*
%TD*%
D11*
%TO.C,R50*%
X198120000Y-116840000D03*
D12*
X198120000Y-106680000D03*
%TD*%
D11*
%TO.C,R47*%
X165100000Y-116840000D03*
D12*
X165100000Y-106680000D03*
%TD*%
D11*
%TO.C,R37*%
X91440000Y-116840000D03*
D12*
X91440000Y-106680000D03*
%TD*%
D13*
%TO.C,J1*%
X228600000Y-180340000D03*
%TD*%
D11*
%TO.C,R18*%
X205740000Y-157480000D03*
D12*
X205740000Y-147320000D03*
%TD*%
D11*
%TO.C,R35*%
X104140000Y-116840000D03*
D12*
X104140000Y-106680000D03*
%TD*%
D14*
%TO.C,IC3*%
X87470000Y-123190000D03*
D15*
X87470000Y-125730000D03*
X87470000Y-128270000D03*
X87470000Y-130810000D03*
X87470000Y-133350000D03*
X87470000Y-135890000D03*
X87470000Y-138430000D03*
X87470000Y-140970000D03*
X95410000Y-140970000D03*
X95410000Y-138430000D03*
X95410000Y-135890000D03*
X95410000Y-133350000D03*
X95410000Y-130810000D03*
X95410000Y-128270000D03*
X95410000Y-125730000D03*
X95410000Y-123190000D03*
%TD*%
D16*
%TO.C,J6*%
X246380000Y-182880000D03*
D17*
X246380000Y-187480000D03*
%TD*%
D11*
%TO.C,R10*%
X101600000Y-157480000D03*
D12*
X101600000Y-147320000D03*
%TD*%
D18*
%TO.C,U17*%
X100315000Y-121930000D03*
D19*
X100315000Y-124470000D03*
X100315000Y-127010000D03*
X100315000Y-129550000D03*
X100315000Y-132090000D03*
X100315000Y-134630000D03*
X100315000Y-137170000D03*
X100315000Y-139710000D03*
X100315000Y-142250000D03*
X107935000Y-142250000D03*
X107935000Y-139710000D03*
X107935000Y-137170000D03*
X107935000Y-134630000D03*
X107935000Y-132090000D03*
X107935000Y-129550000D03*
X107935000Y-127010000D03*
X107935000Y-124470000D03*
X107935000Y-121930000D03*
%TD*%
D16*
%TO.C,J5*%
X238760000Y-182880000D03*
D17*
X238760000Y-187480000D03*
%TD*%
D11*
%TO.C,R25*%
X274320000Y-144780000D03*
D12*
X284480000Y-144780000D03*
%TD*%
D11*
%TO.C,R4*%
X58420000Y-157480000D03*
D12*
X68580000Y-157480000D03*
%TD*%
D11*
%TO.C,R28*%
X144780000Y-180340000D03*
D12*
X154940000Y-180340000D03*
%TD*%
D11*
%TO.C,R42*%
X144780000Y-116840000D03*
D12*
X144780000Y-106680000D03*
%TD*%
D11*
%TO.C,R60*%
X238760000Y-116840000D03*
D12*
X238760000Y-106680000D03*
%TD*%
D11*
%TO.C,R15*%
X154940000Y-144780000D03*
D12*
X165100000Y-144780000D03*
%TD*%
D11*
%TO.C,R11*%
X66040000Y-116840000D03*
D12*
X66040000Y-106680000D03*
%TD*%
D11*
%TO.C,R20*%
X213360000Y-132080000D03*
D12*
X223520000Y-132080000D03*
%TD*%
D11*
%TO.C,R3*%
X58420000Y-149860000D03*
D12*
X68580000Y-149860000D03*
%TD*%
D20*
%TO.C,D18*%
X114300000Y-182880000D03*
D21*
X124460000Y-182880000D03*
%TD*%
D14*
%TO.C,IC5*%
X130650000Y-123190000D03*
D15*
X130650000Y-125730000D03*
X130650000Y-128270000D03*
X130650000Y-130810000D03*
X130650000Y-133350000D03*
X130650000Y-135890000D03*
X130650000Y-138430000D03*
X130650000Y-140970000D03*
X138590000Y-140970000D03*
X138590000Y-138430000D03*
X138590000Y-135890000D03*
X138590000Y-133350000D03*
X138590000Y-130810000D03*
X138590000Y-128270000D03*
X138590000Y-125730000D03*
X138590000Y-123190000D03*
%TD*%
D22*
%TO.C,U6*%
X115580000Y-148600000D03*
D12*
X115580000Y-151140000D03*
X115580000Y-153680000D03*
X115580000Y-156220000D03*
X123200000Y-156220000D03*
X123200000Y-153680000D03*
X123200000Y-151140000D03*
X123200000Y-148600000D03*
%TD*%
D23*
%TO.C,C3*%
X66040000Y-167640000D03*
X71040000Y-167640000D03*
%TD*%
D11*
%TO.C,R2*%
X53340000Y-190500000D03*
D12*
X63500000Y-190500000D03*
%TD*%
D20*
%TO.C,D11*%
X185420000Y-147320000D03*
D21*
X195580000Y-147320000D03*
%TD*%
D14*
%TO.C,IC8*%
X237330000Y-120650000D03*
D15*
X237330000Y-123190000D03*
X237330000Y-125730000D03*
X237330000Y-128270000D03*
X237330000Y-130810000D03*
X237330000Y-133350000D03*
X237330000Y-135890000D03*
X237330000Y-138430000D03*
X245270000Y-138430000D03*
X245270000Y-135890000D03*
X245270000Y-133350000D03*
X245270000Y-130810000D03*
X245270000Y-128270000D03*
X245270000Y-125730000D03*
X245270000Y-123190000D03*
X245270000Y-120650000D03*
%TD*%
D11*
%TO.C,R54*%
X213360000Y-116840000D03*
D12*
X213360000Y-106680000D03*
%TD*%
D20*
%TO.C,D1*%
X269240000Y-162560000D03*
D21*
X269240000Y-172720000D03*
%TD*%
D14*
%TO.C,IC2*%
X31590000Y-123190000D03*
D15*
X31590000Y-125730000D03*
X31590000Y-128270000D03*
X31590000Y-130810000D03*
X31590000Y-133350000D03*
X31590000Y-135890000D03*
X31590000Y-138430000D03*
X31590000Y-140970000D03*
X39530000Y-140970000D03*
X39530000Y-138430000D03*
X39530000Y-135890000D03*
X39530000Y-133350000D03*
X39530000Y-130810000D03*
X39530000Y-128270000D03*
X39530000Y-125730000D03*
X39530000Y-123190000D03*
%TD*%
D20*
%TO.C,D3*%
X30480000Y-160020000D03*
D21*
X40640000Y-160020000D03*
%TD*%
D22*
%TO.C,U10*%
X222260000Y-148600000D03*
D12*
X222260000Y-151140000D03*
X222260000Y-153680000D03*
X222260000Y-156220000D03*
X229880000Y-156220000D03*
X229880000Y-153680000D03*
X229880000Y-151140000D03*
X229880000Y-148600000D03*
%TD*%
D24*
%TO.C,J4*%
X264720000Y-187960000D03*
D25*
X269520000Y-187960000D03*
X274320000Y-187960000D03*
%TD*%
D23*
%TO.C,C11*%
X264160000Y-152400000D03*
X269160000Y-152400000D03*
%TD*%
D26*
%TO.C,J7*%
X145260000Y-187960000D03*
D17*
X149860000Y-187960000D03*
%TD*%
D11*
%TO.C,R26*%
X50800000Y-116840000D03*
D12*
X50800000Y-106680000D03*
%TD*%
D27*
%TO.C,J11*%
X66040000Y-121920000D03*
D17*
X61440000Y-121920000D03*
%TD*%
D20*
%TO.C,D10*%
X134620000Y-157480000D03*
D21*
X144780000Y-157480000D03*
%TD*%
D14*
%TO.C,U7*%
X82550000Y-171610000D03*
D15*
X85090000Y-171610000D03*
X87630000Y-171610000D03*
X90170000Y-171610000D03*
X92710000Y-171610000D03*
X95250000Y-171610000D03*
X97790000Y-171610000D03*
X100330000Y-171610000D03*
X100330000Y-163670000D03*
X97790000Y-163670000D03*
X95250000Y-163670000D03*
X92710000Y-163670000D03*
X90170000Y-163670000D03*
X87630000Y-163670000D03*
X85090000Y-163670000D03*
X82550000Y-163670000D03*
%TD*%
D20*
%TO.C,D7*%
X83820000Y-157480000D03*
D21*
X93980000Y-157480000D03*
%TD*%
D11*
%TO.C,R34*%
X99060000Y-116840000D03*
D12*
X99060000Y-106680000D03*
%TD*%
D26*
%TO.C,J10*%
X86840000Y-190500000D03*
D17*
X91440000Y-190500000D03*
%TD*%
D18*
%TO.C,U19*%
X201915000Y-121930000D03*
D19*
X201915000Y-124470000D03*
X201915000Y-127010000D03*
X201915000Y-129550000D03*
X201915000Y-132090000D03*
X201915000Y-134630000D03*
X201915000Y-137170000D03*
X201915000Y-139710000D03*
X201915000Y-142250000D03*
X209535000Y-142250000D03*
X209535000Y-139710000D03*
X209535000Y-137170000D03*
X209535000Y-134630000D03*
X209535000Y-132090000D03*
X209535000Y-129550000D03*
X209535000Y-127010000D03*
X209535000Y-124470000D03*
X209535000Y-121930000D03*
%TD*%
D11*
%TO.C,R41*%
X129540000Y-116840000D03*
D12*
X129540000Y-106680000D03*
%TD*%
D11*
%TO.C,R38*%
X114300000Y-116840000D03*
D12*
X114300000Y-106680000D03*
%TD*%
D14*
%TO.C,IC4*%
X173830000Y-123190000D03*
D15*
X173830000Y-125730000D03*
X173830000Y-128270000D03*
X173830000Y-130810000D03*
X173830000Y-133350000D03*
X173830000Y-135890000D03*
X173830000Y-138430000D03*
X173830000Y-140970000D03*
X181770000Y-140970000D03*
X181770000Y-138430000D03*
X181770000Y-135890000D03*
X181770000Y-133350000D03*
X181770000Y-130810000D03*
X181770000Y-128270000D03*
X181770000Y-125730000D03*
X181770000Y-123190000D03*
%TD*%
D11*
%TO.C,R45*%
X137160000Y-116840000D03*
D12*
X137160000Y-106680000D03*
%TD*%
D11*
%TO.C,R40*%
X124460000Y-116840000D03*
D12*
X124460000Y-106680000D03*
%TD*%
D11*
%TO.C,R63*%
X266700000Y-116840000D03*
D12*
X266700000Y-106680000D03*
%TD*%
D11*
%TO.C,R51*%
X203200000Y-116840000D03*
D12*
X203200000Y-106680000D03*
%TD*%
D11*
%TO.C,R62*%
X261620000Y-116840000D03*
D12*
X261620000Y-106680000D03*
%TD*%
D11*
%TO.C,R58*%
X246380000Y-116840000D03*
D12*
X246380000Y-106680000D03*
%TD*%
D20*
%TO.C,D16*%
X236220000Y-154270000D03*
D21*
X246380000Y-154270000D03*
%TD*%
D18*
%TO.C,U20*%
X252715000Y-121930000D03*
D19*
X252715000Y-124470000D03*
X252715000Y-127010000D03*
X252715000Y-129550000D03*
X252715000Y-132090000D03*
X252715000Y-134630000D03*
X252715000Y-137170000D03*
X252715000Y-139710000D03*
X252715000Y-142250000D03*
X260335000Y-142250000D03*
X260335000Y-139710000D03*
X260335000Y-137170000D03*
X260335000Y-134630000D03*
X260335000Y-132090000D03*
X260335000Y-129550000D03*
X260335000Y-127010000D03*
X260335000Y-124470000D03*
X260335000Y-121930000D03*
%TD*%
D13*
%TO.C,J2*%
X228600000Y-187960000D03*
%TD*%
D11*
%TO.C,R16*%
X33020000Y-116840000D03*
D12*
X33020000Y-106680000D03*
%TD*%
D28*
%TO.C,C2*%
X281940000Y-170180000D03*
D29*
X283940000Y-170180000D03*
%TD*%
D11*
%TO.C,R65*%
X276860000Y-116840000D03*
D12*
X276860000Y-106680000D03*
%TD*%
D11*
%TO.C,R56*%
X223520000Y-116840000D03*
D12*
X223520000Y-106680000D03*
%TD*%
D28*
%TO.C,C4*%
X55880000Y-167640000D03*
D29*
X57880000Y-167640000D03*
%TD*%
D11*
%TO.C,R55*%
X218440000Y-116840000D03*
D12*
X218440000Y-106680000D03*
%TD*%
D11*
%TO.C,R30*%
X157480000Y-180340000D03*
D12*
X167640000Y-180340000D03*
%TD*%
D22*
%TO.C,U4*%
X33020000Y-185420000D03*
D11*
X35560000Y-185420000D03*
X38100000Y-185420000D03*
X40640000Y-185420000D03*
X43180000Y-185420000D03*
X45720000Y-185420000D03*
X48260000Y-185420000D03*
X48260000Y-177800000D03*
X45720000Y-177800000D03*
X43180000Y-177800000D03*
X40640000Y-177800000D03*
X38100000Y-177800000D03*
X35560000Y-177800000D03*
X33020000Y-177800000D03*
%TD*%
%TO.C,R59*%
X251460000Y-116840000D03*
D12*
X251460000Y-106680000D03*
%TD*%
D20*
%TO.C,D8*%
X134620000Y-147320000D03*
D21*
X144780000Y-147320000D03*
%TD*%
D22*
%TO.C,U15*%
X90185000Y-184140000D03*
D12*
X92725000Y-184140000D03*
X95265000Y-184140000D03*
X97805000Y-184140000D03*
X100345000Y-184140000D03*
X102885000Y-184140000D03*
X105425000Y-184140000D03*
X107965000Y-184140000D03*
X107965000Y-176520000D03*
X105425000Y-176520000D03*
X102885000Y-176520000D03*
X100345000Y-176520000D03*
X97805000Y-176520000D03*
X95265000Y-176520000D03*
X92725000Y-176520000D03*
X90185000Y-176520000D03*
%TD*%
D11*
%TO.C,R9*%
X129540000Y-185420000D03*
D12*
X139700000Y-185420000D03*
%TD*%
D20*
%TO.C,D6*%
X83820000Y-152400000D03*
D21*
X93980000Y-152400000D03*
%TD*%
D11*
%TO.C,R22*%
X274320000Y-129540000D03*
D12*
X284480000Y-129540000D03*
%TD*%
D20*
%TO.C,D13*%
X185420000Y-157480000D03*
D21*
X195580000Y-157480000D03*
%TD*%
D11*
%TO.C,R27*%
X238760000Y-175260000D03*
D12*
X248920000Y-175260000D03*
%TD*%
D22*
%TO.C,U2*%
X59700000Y-135900000D03*
D12*
X59700000Y-138440000D03*
X59700000Y-140980000D03*
X59700000Y-143520000D03*
X67320000Y-143520000D03*
X67320000Y-140980000D03*
X67320000Y-138440000D03*
X67320000Y-135900000D03*
%TD*%
D20*
%TO.C,D4*%
X30480000Y-154940000D03*
D21*
X40640000Y-154940000D03*
%TD*%
D14*
%TO.C,U3*%
X31750000Y-171610000D03*
D15*
X34290000Y-171610000D03*
X36830000Y-171610000D03*
X39370000Y-171610000D03*
X41910000Y-171610000D03*
X44450000Y-171610000D03*
X46990000Y-171610000D03*
X49530000Y-171610000D03*
X49530000Y-163670000D03*
X46990000Y-163670000D03*
X44450000Y-163670000D03*
X41910000Y-163670000D03*
X39370000Y-163670000D03*
X36830000Y-163670000D03*
X34290000Y-163670000D03*
X31750000Y-163670000D03*
%TD*%
D11*
%TO.C,R21*%
X60960000Y-116840000D03*
D12*
X60960000Y-106680000D03*
%TD*%
D11*
%TO.C,R8*%
X129540000Y-180340000D03*
D12*
X139700000Y-180340000D03*
%TD*%
D28*
%TO.C,C10*%
X205740000Y-170180000D03*
D29*
X207740000Y-170180000D03*
%TD*%
D28*
%TO.C,C12*%
X254000000Y-152400000D03*
D29*
X256000000Y-152400000D03*
%TD*%
D11*
%TO.C,R46*%
X160020000Y-116840000D03*
D12*
X160020000Y-106680000D03*
%TD*%
D11*
%TO.C,R31*%
X71120000Y-116840000D03*
D12*
X71120000Y-106680000D03*
%TD*%
D11*
%TO.C,R49*%
X175260000Y-116840000D03*
D12*
X175260000Y-106680000D03*
%TD*%
D11*
%TO.C,R12*%
X169580000Y-136000000D03*
D12*
X159420000Y-136000000D03*
%TD*%
D27*
%TO.C,J14*%
X167800000Y-129540000D03*
D17*
X163200000Y-129540000D03*
%TD*%
D18*
%TO.C,U18*%
X143495000Y-121930000D03*
D19*
X143495000Y-124470000D03*
X143495000Y-127010000D03*
X143495000Y-129550000D03*
X143495000Y-132090000D03*
X143495000Y-134630000D03*
X143495000Y-137170000D03*
X143495000Y-139710000D03*
X143495000Y-142250000D03*
X151115000Y-142250000D03*
X151115000Y-139710000D03*
X151115000Y-137170000D03*
X151115000Y-134630000D03*
X151115000Y-132090000D03*
X151115000Y-129550000D03*
X151115000Y-127010000D03*
X151115000Y-124470000D03*
X151115000Y-121930000D03*
%TD*%
D11*
%TO.C,R7*%
X83820000Y-116840000D03*
D12*
X83820000Y-106680000D03*
%TD*%
D11*
%TO.C,R33*%
X40640000Y-116840000D03*
D12*
X40640000Y-106680000D03*
%TD*%
D11*
%TO.C,R1*%
X175260000Y-190500000D03*
D12*
X175260000Y-180340000D03*
%TD*%
D11*
%TO.C,R36*%
X109220000Y-116840000D03*
D12*
X109220000Y-106680000D03*
%TD*%
D14*
%TO.C,U11*%
X181610000Y-174150000D03*
D15*
X184150000Y-174150000D03*
X186690000Y-174150000D03*
X189230000Y-174150000D03*
X191770000Y-174150000D03*
X194310000Y-174150000D03*
X196850000Y-174150000D03*
X199390000Y-174150000D03*
X199390000Y-166210000D03*
X196850000Y-166210000D03*
X194310000Y-166210000D03*
X191770000Y-166210000D03*
X189230000Y-166210000D03*
X186690000Y-166210000D03*
X184150000Y-166210000D03*
X181610000Y-166210000D03*
%TD*%
D14*
%TO.C,IC7*%
X204470000Y-186850000D03*
D15*
X207010000Y-186850000D03*
X209550000Y-186850000D03*
X212090000Y-186850000D03*
X214630000Y-186850000D03*
X217170000Y-186850000D03*
X219710000Y-186850000D03*
X222250000Y-186850000D03*
X222250000Y-178910000D03*
X219710000Y-178910000D03*
X217170000Y-178910000D03*
X214630000Y-178910000D03*
X212090000Y-178910000D03*
X209550000Y-178910000D03*
X207010000Y-178910000D03*
X204470000Y-178910000D03*
%TD*%
D27*
%TO.C,J12*%
X66040000Y-129540000D03*
D17*
X61440000Y-129540000D03*
%TD*%
D30*
%TO.C,U1*%
X276860000Y-157480000D03*
D31*
X279400000Y-157480000D03*
X281940000Y-157480000D03*
%TD*%
D20*
%TO.C,D15*%
X236220000Y-149190000D03*
D21*
X246380000Y-149190000D03*
%TD*%
D26*
%TO.C,J3*%
X251940000Y-187960000D03*
D17*
X256540000Y-187960000D03*
%TD*%
D14*
%TO.C,IC6*%
X189070000Y-123190000D03*
D15*
X189070000Y-125730000D03*
X189070000Y-128270000D03*
X189070000Y-130810000D03*
X189070000Y-133350000D03*
X189070000Y-135890000D03*
X189070000Y-138430000D03*
X189070000Y-140970000D03*
X197010000Y-140970000D03*
X197010000Y-138430000D03*
X197010000Y-135890000D03*
X197010000Y-133350000D03*
X197010000Y-130810000D03*
X197010000Y-128270000D03*
X197010000Y-125730000D03*
X197010000Y-123190000D03*
%TD*%
D22*
%TO.C,U12*%
X255280000Y-161300000D03*
D12*
X255280000Y-163840000D03*
X255280000Y-166380000D03*
X255280000Y-168920000D03*
X262900000Y-168920000D03*
X262900000Y-166380000D03*
X262900000Y-163840000D03*
X262900000Y-161300000D03*
%TD*%
D22*
%TO.C,U5*%
X66010000Y-184150000D03*
D11*
X68550000Y-184150000D03*
X71090000Y-184150000D03*
X73630000Y-184150000D03*
X76170000Y-184150000D03*
X78710000Y-184150000D03*
X81250000Y-184150000D03*
X81250000Y-176530000D03*
X78710000Y-176530000D03*
X76170000Y-176530000D03*
X73630000Y-176530000D03*
X71090000Y-176530000D03*
X68550000Y-176530000D03*
X66010000Y-176530000D03*
%TD*%
D23*
%TO.C,C5*%
X121920000Y-167640000D03*
X126920000Y-167640000D03*
%TD*%
D20*
%TO.C,D2*%
X30480000Y-149860000D03*
D21*
X40640000Y-149860000D03*
%TD*%
D32*
%TO.C,J15*%
X266700000Y-134620000D03*
D17*
X266700000Y-130020000D03*
%TD*%
D11*
%TO.C,R5*%
X53340000Y-149860000D03*
D12*
X53340000Y-160020000D03*
%TD*%
D23*
%TO.C,C7*%
X167640000Y-170180000D03*
X172640000Y-170180000D03*
%TD*%
D11*
%TO.C,R32*%
X45720000Y-116840000D03*
D12*
X45720000Y-106680000D03*
%TD*%
D11*
%TO.C,R24*%
X274320000Y-139700000D03*
D12*
X284480000Y-139700000D03*
%TD*%
D28*
%TO.C,C8*%
X158020000Y-170180000D03*
D29*
X160020000Y-170180000D03*
%TD*%
D20*
%TO.C,D14*%
X236220000Y-144110000D03*
D21*
X246380000Y-144110000D03*
%TD*%
D26*
%TO.C,J9*%
X165100000Y-187960000D03*
D17*
X169700000Y-187960000D03*
%TD*%
D11*
%TO.C,R29*%
X129540000Y-190500000D03*
D12*
X139700000Y-190500000D03*
%TD*%
D22*
%TO.C,U14*%
X182850000Y-186690000D03*
D11*
X185390000Y-186690000D03*
X187930000Y-186690000D03*
X190470000Y-186690000D03*
X193010000Y-186690000D03*
X195550000Y-186690000D03*
X198090000Y-186690000D03*
X198090000Y-179070000D03*
X195550000Y-179070000D03*
X193010000Y-179070000D03*
X190470000Y-179070000D03*
X187930000Y-179070000D03*
X185390000Y-179070000D03*
X182850000Y-179070000D03*
%TD*%
%TO.C,R43*%
X149860000Y-116840000D03*
D12*
X149860000Y-106680000D03*
%TD*%
D14*
%TO.C,IC1*%
X72230000Y-120650000D03*
D15*
X72230000Y-123190000D03*
X72230000Y-125730000D03*
X72230000Y-128270000D03*
X72230000Y-130810000D03*
X72230000Y-133350000D03*
X72230000Y-135890000D03*
X72230000Y-138430000D03*
X80170000Y-138430000D03*
X80170000Y-135890000D03*
X80170000Y-133350000D03*
X80170000Y-130810000D03*
X80170000Y-128270000D03*
X80170000Y-125730000D03*
X80170000Y-123190000D03*
X80170000Y-120650000D03*
%TD*%
D11*
%TO.C,R23*%
X274320000Y-134620000D03*
D12*
X284480000Y-134620000D03*
%TD*%
D28*
%TO.C,C6*%
X109220000Y-165100000D03*
D29*
X111220000Y-165100000D03*
%TD*%
D11*
%TO.C,R48*%
X170180000Y-116840000D03*
D12*
X170180000Y-106680000D03*
%TD*%
D20*
%TO.C,D5*%
X83820000Y-147320000D03*
D21*
X93980000Y-147320000D03*
%TD*%
D11*
%TO.C,R17*%
X213360000Y-142240000D03*
D12*
X223520000Y-142240000D03*
%TD*%
D20*
%TO.C,D12*%
X185420000Y-152400000D03*
D21*
X195580000Y-152400000D03*
%TD*%
D11*
%TO.C,R64*%
X271780000Y-116840000D03*
D12*
X271780000Y-106680000D03*
%TD*%
D33*
%TO.C,C1*%
X259080000Y-177800000D03*
D34*
X264080000Y-177800000D03*
%TD*%
D11*
%TO.C,R57*%
X228600000Y-116840000D03*
D12*
X228600000Y-106680000D03*
%TD*%
D11*
%TO.C,R6*%
X55880000Y-116840000D03*
D12*
X55880000Y-106680000D03*
%TD*%
D23*
%TO.C,C9*%
X215900000Y-170180000D03*
X220900000Y-170180000D03*
%TD*%
D11*
%TO.C,R44*%
X154940000Y-116840000D03*
D12*
X154940000Y-106680000D03*
%TD*%
D11*
%TO.C,R13*%
X154940000Y-160020000D03*
D12*
X154940000Y-149860000D03*
%TD*%
D11*
%TO.C,R19*%
X210820000Y-157480000D03*
D12*
X210820000Y-147320000D03*
%TD*%
D26*
%TO.C,J8*%
X154940000Y-187960000D03*
D17*
X159540000Y-187960000D03*
%TD*%
D26*
%TO.C,J16*%
X99060000Y-190500000D03*
D17*
X103660000Y-190500000D03*
%TD*%
D11*
%TO.C,R14*%
X160020000Y-160020000D03*
D12*
X160020000Y-149860000D03*
%TD*%
D20*
%TO.C,D9*%
X134620000Y-152400000D03*
D21*
X144780000Y-152400000D03*
%TD*%
D14*
%TO.C,U13*%
X232410000Y-169070000D03*
D15*
X234950000Y-169070000D03*
X237490000Y-169070000D03*
X240030000Y-169070000D03*
X242570000Y-169070000D03*
X245110000Y-169070000D03*
X247650000Y-169070000D03*
X250190000Y-169070000D03*
X250190000Y-161130000D03*
X247650000Y-161130000D03*
X245110000Y-161130000D03*
X242570000Y-161130000D03*
X240030000Y-161130000D03*
X237490000Y-161130000D03*
X234950000Y-161130000D03*
X232410000Y-161130000D03*
%TD*%
D18*
%TO.C,U16*%
X44435000Y-121930000D03*
D19*
X44435000Y-124470000D03*
X44435000Y-127010000D03*
X44435000Y-129550000D03*
X44435000Y-132090000D03*
X44435000Y-134630000D03*
X44435000Y-137170000D03*
X44435000Y-139710000D03*
X44435000Y-142250000D03*
X52055000Y-142250000D03*
X52055000Y-139710000D03*
X52055000Y-137170000D03*
X52055000Y-134630000D03*
X52055000Y-132090000D03*
X52055000Y-129550000D03*
X52055000Y-127010000D03*
X52055000Y-124470000D03*
X52055000Y-121930000D03*
%TD*%
D11*
%TO.C,R53*%
X190500000Y-116840000D03*
D12*
X190500000Y-106680000D03*
%TD*%
D11*
%TO.C,R61*%
X256540000Y-116840000D03*
D12*
X256540000Y-106680000D03*
%TD*%
D14*
%TO.C,U9*%
X135890000Y-174150000D03*
D15*
X138430000Y-174150000D03*
X140970000Y-174150000D03*
X143510000Y-174150000D03*
X146050000Y-174150000D03*
X148590000Y-174150000D03*
X151130000Y-174150000D03*
X153670000Y-174150000D03*
X153670000Y-166210000D03*
X151130000Y-166210000D03*
X148590000Y-166210000D03*
X146050000Y-166210000D03*
X143510000Y-166210000D03*
X140970000Y-166210000D03*
X138430000Y-166210000D03*
X135890000Y-166210000D03*
%TD*%
D27*
%TO.C,J13*%
X167386000Y-122301000D03*
D17*
X162786000Y-122301000D03*
%TD*%
D20*
%TO.C,D17*%
X114300000Y-177800000D03*
D21*
X124460000Y-177800000D03*
%TD*%
D22*
%TO.C,U8*%
X168920000Y-151140000D03*
D12*
X168920000Y-153680000D03*
X168920000Y-156220000D03*
X168920000Y-158760000D03*
X176540000Y-158760000D03*
X176540000Y-156220000D03*
X176540000Y-153680000D03*
X176540000Y-151140000D03*
%TD*%
D11*
%TO.C,R52*%
X208280000Y-116840000D03*
D12*
X208280000Y-106680000D03*
%TD*%
D11*
%TO.C,R39*%
X119380000Y-116840000D03*
D12*
X119380000Y-106680000D03*
%TD*%
D35*
%TO.C,DS1*%
X63500000Y-98630000D03*
D36*
X60960000Y-98630000D03*
X58420000Y-98630000D03*
X55880000Y-98630000D03*
X53340000Y-98630000D03*
X53340000Y-38530000D03*
X55880000Y-38530000D03*
X58420000Y-38530000D03*
X60960000Y-38530000D03*
X63500000Y-38530000D03*
%TD*%
D35*
%TO.C,DS2*%
X114300000Y-98630000D03*
D36*
X111760000Y-98630000D03*
X109220000Y-98630000D03*
X106680000Y-98630000D03*
X104140000Y-98630000D03*
X104140000Y-38530000D03*
X106680000Y-38530000D03*
X109220000Y-38530000D03*
X111760000Y-38530000D03*
X114300000Y-38530000D03*
%TD*%
D35*
%TO.C,DS4*%
X215900000Y-98630000D03*
D36*
X213360000Y-98630000D03*
X210820000Y-98630000D03*
X208280000Y-98630000D03*
X205740000Y-98630000D03*
X205740000Y-38530000D03*
X208280000Y-38530000D03*
X210820000Y-38530000D03*
X213360000Y-38530000D03*
X215900000Y-38530000D03*
%TD*%
D35*
%TO.C,DS5*%
X266700000Y-98630000D03*
D36*
X264160000Y-98630000D03*
X261620000Y-98630000D03*
X259080000Y-98630000D03*
X256540000Y-98630000D03*
X256540000Y-38530000D03*
X259080000Y-38530000D03*
X261620000Y-38530000D03*
X264160000Y-38530000D03*
X266700000Y-38530000D03*
%TD*%
D35*
%TO.C,DS3*%
X165100000Y-98630000D03*
D36*
X162560000Y-98630000D03*
X160020000Y-98630000D03*
X157480000Y-98630000D03*
X154940000Y-98630000D03*
X154940000Y-38530000D03*
X157480000Y-38530000D03*
X160020000Y-38530000D03*
X162560000Y-38530000D03*
X165100000Y-38530000D03*
%TD*%
M02*
