M48
; DRILL file {KiCad (6.0.2)} date Fri Mar  4 23:41:04 2022
; FORMAT={-:-/ absolute / inch / decimal}
; #@! TF.CreationDate,2022-03-04T23:41:04+01:00
; #@! TF.GenerationSoftware,Kicad,Pcbnew,(6.0.2)
; #@! TF.FileFunction,Plated,1,2,PTH
FMAT,2
INCH
; #@! TA.AperFunction,Plated,PTH,ViaDrill
T1C0.0157
; #@! TA.AperFunction,Plated,PTH,ComponentDrill
T2C0.0276
; #@! TA.AperFunction,Plated,PTH,ComponentDrill
T3C0.0287
; #@! TA.AperFunction,Plated,PTH,ComponentDrill
T4C0.0295
; #@! TA.AperFunction,Plated,PTH,ComponentDrill
T5C0.0315
; #@! TA.AperFunction,Plated,PTH,ComponentDrill
T6C0.0335
; #@! TA.AperFunction,Plated,PTH,ComponentDrill
T7C0.0394
; #@! TA.AperFunction,Plated,PTH,ComponentDrill
T8C0.0433
; #@! TA.AperFunction,Plated,PTH,ComponentDrill
T9C0.0610
%
G90
G05
T1
X1.1024Y-3.8976
X1.1811Y-3.9764
X1.6929Y-4.2126
X1.7717Y-4.1732
X1.811Y-4.4488
T2
X1.7Y-4.9
X1.8969Y-4.9
X3.7Y-4.8
X3.8969Y-4.8
X5.7Y-4.9
X5.8969Y-4.9
X7.7Y-4.9
X7.8969Y-4.9
X9.7Y-4.9
X9.8969Y-4.9
T3
X0.75Y-3.5437
X0.75Y-3.8563
X0.75Y-4.9437
X0.75Y-5.2563
X0.85Y-3.5437
X0.85Y-3.8563
X0.85Y-4.9437
X0.85Y-5.2563
X0.95Y-3.5437
X0.95Y-3.8563
X0.95Y-4.9437
X0.95Y-5.2563
X1.05Y-3.5437
X1.05Y-3.8563
X1.05Y-4.9437
X1.05Y-5.2563
X1.15Y-3.5437
X1.15Y-3.8563
X1.15Y-4.9437
X1.15Y-5.2563
X1.25Y-3.5437
X1.25Y-3.8563
X1.25Y-4.9437
X1.25Y-5.2563
X1.35Y-3.5437
X1.35Y-3.8563
X1.35Y-4.9437
X1.35Y-5.2563
X1.45Y-3.5437
X1.45Y-3.8563
X1.45Y-4.9437
X1.45Y-5.2563
X2.1437Y-4.15
X2.1437Y-4.25
X2.1437Y-4.35
X2.1437Y-4.45
X2.1437Y-4.55
X2.1437Y-4.65
X2.1437Y-4.75
X2.1437Y-4.85
X2.4563Y-4.15
X2.4563Y-4.25
X2.4563Y-4.35
X2.4563Y-4.45
X2.4563Y-4.55
X2.4563Y-4.65
X2.4563Y-4.75
X2.4563Y-4.85
X2.75Y-3.5437
X2.75Y-3.8563
X2.75Y-4.9437
X2.75Y-5.2563
X2.85Y-3.5437
X2.85Y-3.8563
X2.85Y-4.9437
X2.85Y-5.2563
X2.95Y-3.5437
X2.95Y-3.8563
X2.95Y-4.9437
X2.95Y-5.2563
X3.05Y-3.5437
X3.05Y-3.8563
X3.05Y-4.9437
X3.05Y-5.2563
X3.15Y-3.5437
X3.15Y-3.8563
X3.15Y-4.9437
X3.15Y-5.2563
X3.25Y-3.5437
X3.25Y-3.8563
X3.25Y-4.9437
X3.25Y-5.2563
X3.35Y-3.5437
X3.35Y-3.8563
X3.35Y-4.9437
X3.35Y-5.2563
X3.45Y-3.5437
X3.45Y-3.8563
X3.45Y-4.9437
X3.45Y-5.2563
X4.75Y-3.5437
X4.75Y-3.8563
X4.75Y-4.9437
X4.75Y-5.2563
X4.85Y-3.5437
X4.85Y-3.8563
X4.85Y-4.9437
X4.85Y-5.2563
X4.95Y-3.5437
X4.95Y-3.8563
X4.95Y-4.9437
X4.95Y-5.2563
X5.05Y-3.5437
X5.05Y-3.8563
X5.05Y-4.9437
X5.05Y-5.2563
X5.15Y-3.5437
X5.15Y-3.8563
X5.15Y-4.9437
X5.15Y-5.2563
X5.25Y-3.5437
X5.25Y-3.8563
X5.25Y-4.9437
X5.25Y-5.2563
X5.35Y-3.5437
X5.35Y-3.8563
X5.35Y-4.9437
X5.35Y-5.2563
X5.45Y-3.5437
X5.45Y-3.8563
X5.45Y-4.9437
X5.45Y-5.2563
X6.1437Y-4.05
X6.1437Y-4.15
X6.1437Y-4.25
X6.1437Y-4.35
X6.1437Y-4.45
X6.1437Y-4.55
X6.1437Y-4.65
X6.1437Y-4.75
X6.4563Y-4.05
X6.4563Y-4.15
X6.4563Y-4.25
X6.4563Y-4.35
X6.4563Y-4.45
X6.4563Y-4.55
X6.4563Y-4.65
X6.4563Y-4.75
X6.75Y-3.5437
X6.75Y-3.8563
X6.75Y-4.9437
X6.75Y-5.2563
X6.85Y-3.5437
X6.85Y-3.8563
X6.85Y-4.9437
X6.85Y-5.2563
X6.95Y-3.5437
X6.95Y-3.8563
X6.95Y-4.9437
X6.95Y-5.2563
X7.05Y-3.5437
X7.05Y-3.8563
X7.05Y-4.9437
X7.05Y-5.2563
X7.15Y-3.5437
X7.15Y-3.8563
X7.15Y-4.9437
X7.15Y-5.2563
X7.25Y-3.5437
X7.25Y-3.8563
X7.25Y-4.9437
X7.25Y-5.2563
X7.35Y-3.5437
X7.35Y-3.8563
X7.35Y-4.9437
X7.35Y-5.2563
X7.45Y-3.5437
X7.45Y-3.8563
X7.45Y-4.9437
X7.45Y-5.2563
X8.75Y-3.5437
X8.75Y-3.8563
X8.75Y-4.9437
X8.75Y-5.2563
X8.85Y-3.5437
X8.85Y-3.8563
X8.85Y-4.9437
X8.85Y-5.2563
X8.95Y-3.5437
X8.95Y-3.8563
X8.95Y-4.9437
X8.95Y-5.2563
X9.0437Y-5.45
X9.0437Y-5.55
X9.0437Y-5.65
X9.0437Y-5.75
X9.0437Y-5.85
X9.0437Y-5.95
X9.0437Y-6.05
X9.0437Y-6.15
X9.05Y-3.5437
X9.05Y-3.8563
X9.05Y-4.9437
X9.05Y-5.2563
X9.15Y-3.5437
X9.15Y-3.8563
X9.15Y-4.9437
X9.15Y-5.2563
X9.25Y-3.5437
X9.25Y-3.8563
X9.25Y-4.9437
X9.25Y-5.2563
X9.35Y-3.5437
X9.35Y-3.8563
X9.35Y-4.9437
X9.35Y-5.2563
X9.3563Y-5.45
X9.3563Y-5.55
X9.3563Y-5.65
X9.3563Y-5.75
X9.3563Y-5.85
X9.3563Y-5.95
X9.3563Y-6.05
X9.3563Y-6.15
X9.45Y-3.5437
X9.45Y-3.8563
X9.45Y-4.9437
X9.45Y-5.2563
T4
X1.7Y-5.3
X1.7787Y-5.3
X1.9Y-5.8
X1.9787Y-5.8
X3.7Y-5.3
X3.7787Y-5.3
X5.7213Y-5.3
X5.8Y-5.3
X7.7Y-5.3
X7.7787Y-5.3
X9.7Y-5.3
X9.7787Y-5.3
T5
X0.7Y-4.6
X0.7Y-4.8
X0.7504Y-4.0504
X0.7504Y-4.1504
X0.7504Y-4.2504
X0.7504Y-4.3504
X1.0504Y-4.0504
X1.0504Y-4.1504
X1.0504Y-4.2504
X1.0504Y-4.3504
X1.1Y-4.6
X1.1Y-4.8
X1.9Y-4.1
X1.9Y-4.5
X2.1Y-3.6
X2.1Y-3.8
X2.5Y-3.6
X2.5Y-3.8
X2.7Y-4.6
X2.7Y-4.8
X2.7504Y-4.0504
X2.7504Y-4.1504
X2.7504Y-4.2504
X2.7504Y-4.3504
X3.0504Y-4.0504
X3.0504Y-4.1504
X3.0504Y-4.2504
X3.0504Y-4.3504
X3.1Y-4.6
X3.1Y-4.8
X3.9Y-4.1
X3.9Y-4.5
X4.1Y-3.6
X4.1Y-3.8
X4.5Y-3.6
X4.5Y-3.8
X4.7Y-4.6
X4.7Y-4.8
X4.7504Y-4.0504
X4.7504Y-4.1504
X4.7504Y-4.2504
X4.7504Y-4.3504
X5.0504Y-4.0504
X5.0504Y-4.1504
X5.0504Y-4.2504
X5.0504Y-4.3504
X5.1Y-4.6
X5.1Y-4.8
X5.9Y-4.1
X5.9Y-4.5
X6.0Y-3.6
X6.0Y-3.8
X6.0Y-5.6
X6.0Y-6.0
X6.4Y-3.6
X6.4Y-3.8
X6.7Y-4.6
X6.7Y-4.8
X6.7504Y-4.0504
X6.7504Y-4.1504
X6.7504Y-4.2504
X6.7504Y-4.3504
X7.0504Y-4.0504
X7.0504Y-4.1504
X7.0504Y-4.2504
X7.0504Y-4.3504
X7.1Y-4.6
X7.1Y-4.8
X7.9Y-4.1
X7.9Y-4.5
X8.0Y-3.6
X8.0Y-3.8
X8.4Y-3.6
X8.4Y-3.8
X8.7Y-4.6
X8.7Y-4.8
X8.7504Y-4.0504
X8.7504Y-4.1504
X8.7504Y-4.2504
X8.7504Y-4.3504
X9.0504Y-4.0504
X9.0504Y-4.1504
X9.0504Y-4.2504
X9.0504Y-4.3504
X9.1Y-4.6
X9.1Y-4.8
X9.9Y-4.1
X9.9Y-4.5
X10.0Y-3.6
X10.0Y-3.9
X10.4Y-3.6
X10.4Y-3.9
T6
X1.3Y-5.9
X1.4969Y-5.9
T7
X1.5Y-0.8169
X1.5Y-3.1831
X1.572Y-3.6114
X1.572Y-3.7886
X1.6Y-0.8169
X1.6Y-3.1831
X1.7Y-0.8169
X1.7Y-3.1831
X1.8Y-0.8169
X1.8Y-3.1831
X1.828Y-3.6114
X1.828Y-3.7886
X1.9Y-0.8169
X1.9Y-3.1831
X2.3Y-5.6
X2.4Y-5.6
X2.5Y-5.6
X2.95Y-5.5988
X2.95Y-5.6988
X2.95Y-5.7988
X2.95Y-5.8988
X2.95Y-5.9988
X2.95Y-6.0988
X2.95Y-6.1988
X3.25Y-5.5988
X3.25Y-5.6988
X3.25Y-5.7988
X3.25Y-5.8988
X3.25Y-5.9988
X3.25Y-6.0988
X3.25Y-6.1988
X3.45Y-5.5988
X3.45Y-5.6988
X3.45Y-5.7988
X3.45Y-5.8988
X3.45Y-5.9988
X3.45Y-6.0988
X3.45Y-6.1988
X3.5Y-0.8169
X3.5Y-3.1831
X3.572Y-3.6114
X3.572Y-3.7886
X3.6Y-0.8169
X3.6Y-3.1831
X3.7Y-0.8169
X3.7Y-3.1831
X3.75Y-5.5988
X3.75Y-5.6988
X3.75Y-5.7988
X3.75Y-5.8988
X3.75Y-5.9988
X3.75Y-6.0988
X3.75Y-6.1988
X3.8Y-0.8169
X3.8Y-3.1831
X3.828Y-3.6114
X3.828Y-3.7886
X3.9Y-0.8169
X3.9Y-3.1831
X5.5Y-0.8169
X5.5Y-3.1831
X5.5Y-5.7228
X5.5Y-5.9
X5.572Y-3.6114
X5.572Y-3.7886
X5.6Y-0.8169
X5.6Y-3.1831
X5.7Y-0.8169
X5.7Y-3.1831
X5.7559Y-5.7228
X5.7559Y-5.9
X5.8Y-0.8169
X5.8Y-3.1831
X5.828Y-3.6114
X5.828Y-3.7886
X5.9Y-0.8169
X5.9Y-3.1831
X7.5Y-0.8169
X7.5Y-3.1831
X7.572Y-3.6114
X7.572Y-3.7886
X7.6Y-0.8169
X7.6Y-3.1831
X7.7Y-0.8169
X7.7Y-3.1831
X7.8Y-0.8169
X7.8Y-3.1831
X7.828Y-3.6114
X7.828Y-3.7886
X7.9Y-0.8169
X7.9Y-3.1831
X8.35Y-5.4988
X8.35Y-5.5988
X8.35Y-5.6988
X8.35Y-5.7988
X8.35Y-5.8988
X8.35Y-5.9988
X8.35Y-6.0988
X8.65Y-5.4988
X8.65Y-5.5988
X8.65Y-5.6988
X8.65Y-5.7988
X8.65Y-5.8988
X8.65Y-5.9988
X8.65Y-6.0988
X9.5Y-0.8169
X9.5Y-3.1831
X9.572Y-3.6114
X9.572Y-3.7886
X9.6Y-0.8169
X9.6Y-3.1831
X9.7Y-0.8169
X9.7Y-3.1831
X9.8Y-0.8169
X9.8Y-3.1831
X9.828Y-3.6114
X9.828Y-3.7886
X9.9Y-0.8169
X9.9Y-3.1831
T8
X1.189Y-5.6
X1.3Y-4.1
X1.3Y-4.3
X1.3Y-4.5
X1.5189Y-6.2
X1.589Y-5.6
X1.7Y-4.1
X1.7Y-4.3
X1.7Y-4.5
X1.7Y-6.2
X3.3Y-4.1
X3.3Y-4.3
X3.3Y-4.5
X3.7Y-4.1
X3.7Y-4.3
X3.7Y-4.5
X5.3Y-4.1
X5.3Y-4.3
X5.3Y-4.5
X5.7Y-4.1
X5.7Y-4.3
X5.7Y-4.5
X7.3Y-4.1
X7.3Y-4.3
X7.3Y-4.5
X7.7Y-4.1
X7.7Y-4.3
X7.7Y-4.5
X9.3Y-4.1
X9.3Y-4.3
X9.3Y-4.5
X9.7Y-4.1
X9.7Y-4.3
X9.7Y-4.5
T9
X0.9Y-5.8
X0.9Y-6.1
X2.122Y-6.2
X2.311Y-6.2
X2.5Y-6.2
T0
M30
