%TF.GenerationSoftware,KiCad,Pcbnew,(6.0.2)*%
%TF.CreationDate,2022-04-29T17:00:25+02:00*%
%TF.ProjectId,Kniffel_V1,4b6e6966-6665-46c5-9f56-312e6b696361,rev?*%
%TF.SameCoordinates,Original*%
%TF.FileFunction,Copper,L1,Top*%
%TF.FilePolarity,Positive*%
%FSLAX46Y46*%
G04 Gerber Fmt 4.6, Leading zero omitted, Abs format (unit mm)*
G04 Created by KiCad (PCBNEW (6.0.2)) date 2022-04-29 17:00:25*
%MOMM*%
%LPD*%
G01*
G04 APERTURE LIST*
G04 Aperture macros list*
%AMRoundRect*
0 Rectangle with rounded corners*
0 $1 Rounding radius*
0 $2 $3 $4 $5 $6 $7 $8 $9 X,Y pos of 4 corners*
0 Add a 4 corners polygon primitive as box body*
4,1,4,$2,$3,$4,$5,$6,$7,$8,$9,$2,$3,0*
0 Add four circle primitives for the rounded corners*
1,1,$1+$1,$2,$3*
1,1,$1+$1,$4,$5*
1,1,$1+$1,$6,$7*
1,1,$1+$1,$8,$9*
0 Add four rect primitives between the rounded corners*
20,1,$1+$1,$2,$3,$4,$5,0*
20,1,$1+$1,$4,$5,$6,$7,0*
20,1,$1+$1,$6,$7,$8,$9,0*
20,1,$1+$1,$8,$9,$2,$3,0*%
G04 Aperture macros list end*
%TA.AperFunction,ComponentPad*%
%ADD10C,5.600000*%
%TD*%
%TA.AperFunction,ComponentPad*%
%ADD11C,1.600000*%
%TD*%
%TA.AperFunction,ComponentPad*%
%ADD12O,1.600000X1.600000*%
%TD*%
%TA.AperFunction,ComponentPad*%
%ADD13RoundRect,0.250002X-1.499998X-1.499998X1.499998X-1.499998X1.499998X1.499998X-1.499998X1.499998X0*%
%TD*%
%TA.AperFunction,ComponentPad*%
%ADD14R,1.130000X1.130000*%
%TD*%
%TA.AperFunction,ComponentPad*%
%ADD15C,1.130000*%
%TD*%
%TA.AperFunction,ComponentPad*%
%ADD16RoundRect,0.250001X-0.799999X0.799999X-0.799999X-0.799999X0.799999X-0.799999X0.799999X0.799999X0*%
%TD*%
%TA.AperFunction,ComponentPad*%
%ADD17C,2.100000*%
%TD*%
%TA.AperFunction,ComponentPad*%
%ADD18R,2.400000X1.600000*%
%TD*%
%TA.AperFunction,ComponentPad*%
%ADD19O,2.400000X1.600000*%
%TD*%
%TA.AperFunction,ComponentPad*%
%ADD20R,2.200000X2.200000*%
%TD*%
%TA.AperFunction,ComponentPad*%
%ADD21O,2.200000X2.200000*%
%TD*%
%TA.AperFunction,ComponentPad*%
%ADD22R,1.600000X1.600000*%
%TD*%
%TA.AperFunction,ComponentPad*%
%ADD23C,1.200000*%
%TD*%
%TA.AperFunction,ComponentPad*%
%ADD24RoundRect,0.249999X-1.025001X-1.025001X1.025001X-1.025001X1.025001X1.025001X-1.025001X1.025001X0*%
%TD*%
%TA.AperFunction,ComponentPad*%
%ADD25C,2.550000*%
%TD*%
%TA.AperFunction,ComponentPad*%
%ADD26RoundRect,0.250001X-0.799999X-0.799999X0.799999X-0.799999X0.799999X0.799999X-0.799999X0.799999X0*%
%TD*%
%TA.AperFunction,ComponentPad*%
%ADD27RoundRect,0.250001X0.799999X0.799999X-0.799999X0.799999X-0.799999X-0.799999X0.799999X-0.799999X0*%
%TD*%
%TA.AperFunction,ComponentPad*%
%ADD28R,1.150000X1.150000*%
%TD*%
%TA.AperFunction,ComponentPad*%
%ADD29C,1.150000*%
%TD*%
%TA.AperFunction,ComponentPad*%
%ADD30R,1.500000X2.300000*%
%TD*%
%TA.AperFunction,ComponentPad*%
%ADD31O,1.500000X2.300000*%
%TD*%
%TA.AperFunction,ComponentPad*%
%ADD32RoundRect,0.250001X0.799999X-0.799999X0.799999X0.799999X-0.799999X0.799999X-0.799999X-0.799999X0*%
%TD*%
%TA.AperFunction,ComponentPad*%
%ADD33R,1.275000X1.275000*%
%TD*%
%TA.AperFunction,ComponentPad*%
%ADD34C,1.275000*%
%TD*%
%TA.AperFunction,ComponentPad*%
%ADD35R,1.500000X1.500000*%
%TD*%
%TA.AperFunction,ComponentPad*%
%ADD36C,1.500000*%
%TD*%
%TA.AperFunction,Conductor*%
%ADD37C,0.500000*%
%TD*%
%TA.AperFunction,Conductor*%
%ADD38C,0.250000*%
%TD*%
G04 APERTURE END LIST*
D10*
%TO.P,REF2,1*%
%TO.N,N/C*%
X282500000Y-26500000D03*
%TD*%
%TO.P,REF1,1*%
%TO.N,N/C*%
X34000000Y-26000000D03*
%TD*%
%TO.P,REF4,1*%
%TO.N,N/C*%
X33000000Y-191000000D03*
%TD*%
%TO.P,REF3,1*%
%TO.N,N/C*%
X283500000Y-189000000D03*
%TD*%
D11*
%TO.P,R50,1*%
%TO.N,Net-(R50-Pad1)*%
X198120000Y-116840000D03*
D12*
%TO.P,R50,2*%
%TO.N,Net-(DS4-Pad1)*%
X198120000Y-106680000D03*
%TD*%
D11*
%TO.P,R47,1*%
%TO.N,Net-(R47-Pad1)*%
X165100000Y-116840000D03*
D12*
%TO.P,R47,2*%
%TO.N,Net-(DS3-Pad9)*%
X165100000Y-106680000D03*
%TD*%
D11*
%TO.P,R37,1*%
%TO.N,Net-(R37-Pad1)*%
X91440000Y-116840000D03*
D12*
%TO.P,R37,2*%
%TO.N,Net-(DS2-Pad5)*%
X91440000Y-106680000D03*
%TD*%
D13*
%TO.P,J1,1,Pin_1*%
%TO.N,Net-(D1-Pad2)*%
X228600000Y-180340000D03*
%TD*%
D11*
%TO.P,R18,1*%
%TO.N,+5V*%
X205740000Y-157480000D03*
D12*
%TO.P,R18,2*%
%TO.N,Net-(R18-Pad2)*%
X205740000Y-147320000D03*
%TD*%
D11*
%TO.P,R35,1*%
%TO.N,Net-(R35-Pad1)*%
X104140000Y-116840000D03*
D12*
%TO.P,R35,2*%
%TO.N,Net-(DS2-Pad2)*%
X104140000Y-106680000D03*
%TD*%
D14*
%TO.P,IC3,1,B_1*%
%TO.N,Net-(D6-Pad2)*%
X87470000Y-123190000D03*
D15*
%TO.P,IC3,2,C_1*%
%TO.N,Net-(D7-Pad2)*%
X87470000Y-125730000D03*
%TO.P,IC3,3,~{LT}*%
%TO.N,+5V*%
X87470000Y-128270000D03*
%TO.P,IC3,4,~{BL}*%
X87470000Y-130810000D03*
%TO.P,IC3,5,LE/~{STROBE}*%
%TO.N,/Dice1/D2Latch*%
X87470000Y-133350000D03*
%TO.P,IC3,6,D_1*%
%TO.N,GND*%
X87470000Y-135890000D03*
%TO.P,IC3,7,A_1*%
%TO.N,Net-(D5-Pad2)*%
X87470000Y-138430000D03*
%TO.P,IC3,8,VSS*%
%TO.N,GND*%
X87470000Y-140970000D03*
%TO.P,IC3,9,E*%
%TO.N,Net-(IC3-Pad9)*%
X95410000Y-140970000D03*
%TO.P,IC3,10,D_2*%
%TO.N,Net-(IC3-Pad10)*%
X95410000Y-138430000D03*
%TO.P,IC3,11,C_2*%
%TO.N,Net-(IC3-Pad11)*%
X95410000Y-135890000D03*
%TO.P,IC3,12,B_2*%
%TO.N,Net-(IC3-Pad12)*%
X95410000Y-133350000D03*
%TO.P,IC3,13,A_2*%
%TO.N,Net-(IC3-Pad13)*%
X95410000Y-130810000D03*
%TO.P,IC3,14,G*%
%TO.N,Net-(IC3-Pad14)*%
X95410000Y-128270000D03*
%TO.P,IC3,15,F*%
%TO.N,Net-(IC3-Pad15)*%
X95410000Y-125730000D03*
%TO.P,IC3,16,VDD*%
%TO.N,+5V*%
X95410000Y-123190000D03*
%TD*%
D16*
%TO.P,J6,1,Pin_1*%
%TO.N,+10V*%
X246380000Y-182880000D03*
D17*
%TO.P,J6,2,Pin_2*%
%TO.N,GND*%
X246380000Y-187480000D03*
%TD*%
D11*
%TO.P,R10,1*%
%TO.N,/Dice1/D2*%
X101600000Y-157480000D03*
D12*
%TO.P,R10,2*%
%TO.N,GND*%
X101600000Y-147320000D03*
%TD*%
D18*
%TO.P,U17,1,I1*%
%TO.N,Net-(IC3-Pad15)*%
X100315000Y-121930000D03*
D19*
%TO.P,U17,2,I2*%
%TO.N,Net-(IC3-Pad14)*%
X100315000Y-124470000D03*
%TO.P,U17,3,I3*%
%TO.N,Net-(IC3-Pad13)*%
X100315000Y-127010000D03*
%TO.P,U17,4,I4*%
%TO.N,Net-(IC3-Pad12)*%
X100315000Y-129550000D03*
%TO.P,U17,5,I5*%
%TO.N,Net-(IC3-Pad11)*%
X100315000Y-132090000D03*
%TO.P,U17,6,I6*%
%TO.N,Net-(IC3-Pad10)*%
X100315000Y-134630000D03*
%TO.P,U17,7,I7*%
%TO.N,Net-(IC3-Pad9)*%
X100315000Y-137170000D03*
%TO.P,U17,8,I8*%
%TO.N,/Dice1/D2Q*%
X100315000Y-139710000D03*
%TO.P,U17,9,GND*%
%TO.N,GND*%
X100315000Y-142250000D03*
%TO.P,U17,10,COM*%
%TO.N,unconnected-(U17-Pad10)*%
X107935000Y-142250000D03*
%TO.P,U17,11,O8*%
%TO.N,Net-(R37-Pad1)*%
X107935000Y-139710000D03*
%TO.P,U17,12,O7*%
%TO.N,Net-(R34-Pad1)*%
X107935000Y-137170000D03*
%TO.P,U17,13,O6*%
%TO.N,Net-(R35-Pad1)*%
X107935000Y-134630000D03*
%TO.P,U17,14,O5*%
%TO.N,Net-(R36-Pad1)*%
X107935000Y-132090000D03*
%TO.P,U17,15,O4*%
%TO.N,Net-(R41-Pad1)*%
X107935000Y-129550000D03*
%TO.P,U17,16,O3*%
%TO.N,Net-(R40-Pad1)*%
X107935000Y-127010000D03*
%TO.P,U17,17,O2*%
%TO.N,Net-(R38-Pad1)*%
X107935000Y-124470000D03*
%TO.P,U17,18,O1*%
%TO.N,Net-(R39-Pad1)*%
X107935000Y-121930000D03*
%TD*%
D16*
%TO.P,J5,1,Pin_1*%
%TO.N,+5V*%
X238760000Y-182880000D03*
D17*
%TO.P,J5,2,Pin_2*%
%TO.N,GND*%
X238760000Y-187480000D03*
%TD*%
D11*
%TO.P,R25,1*%
%TO.N,Net-(D14-Pad1)*%
X274320000Y-144780000D03*
D12*
%TO.P,R25,2*%
%TO.N,GND*%
X284480000Y-144780000D03*
%TD*%
D11*
%TO.P,R4,1*%
%TO.N,Net-(R3-Pad2)*%
X58420000Y-157480000D03*
D12*
%TO.P,R4,2*%
%TO.N,Net-(C4-Pad1)*%
X68580000Y-157480000D03*
%TD*%
D11*
%TO.P,R28,1*%
%TO.N,Net-(J7-Pad2)*%
X144780000Y-180340000D03*
D12*
%TO.P,R28,2*%
%TO.N,GND*%
X154940000Y-180340000D03*
%TD*%
D11*
%TO.P,R42,1*%
%TO.N,Net-(R42-Pad1)*%
X144780000Y-116840000D03*
D12*
%TO.P,R42,2*%
%TO.N,Net-(DS3-Pad1)*%
X144780000Y-106680000D03*
%TD*%
D11*
%TO.P,R60,1*%
%TO.N,Net-(R60-Pad1)*%
X238760000Y-116840000D03*
D12*
%TO.P,R60,2*%
%TO.N,Net-(DS5-Pad5)*%
X238760000Y-106680000D03*
%TD*%
D11*
%TO.P,R15,1*%
%TO.N,/Dice1/D3*%
X154940000Y-144780000D03*
D12*
%TO.P,R15,2*%
%TO.N,GND*%
X165100000Y-144780000D03*
%TD*%
D11*
%TO.P,R11,1*%
%TO.N,Net-(R11-Pad1)*%
X66040000Y-116840000D03*
D12*
%TO.P,R11,2*%
%TO.N,Net-(DS1-Pad1)*%
X66040000Y-106680000D03*
%TD*%
D11*
%TO.P,R20,1*%
%TO.N,/Dice1/D4*%
X213360000Y-132080000D03*
D12*
%TO.P,R20,2*%
%TO.N,GND*%
X223520000Y-132080000D03*
%TD*%
D11*
%TO.P,R3,1*%
%TO.N,+5V*%
X58420000Y-149860000D03*
D12*
%TO.P,R3,2*%
%TO.N,Net-(R3-Pad2)*%
X68580000Y-149860000D03*
%TD*%
D20*
%TO.P,D18,1,K*%
%TO.N,Net-(D17-Pad2)*%
X114300000Y-182880000D03*
D21*
%TO.P,D18,2,A*%
%TO.N,Net-(D18-Pad2)*%
X124460000Y-182880000D03*
%TD*%
D14*
%TO.P,IC5,1,B_1*%
%TO.N,Net-(D9-Pad2)*%
X130650000Y-123190000D03*
D15*
%TO.P,IC5,2,C_1*%
%TO.N,Net-(D10-Pad2)*%
X130650000Y-125730000D03*
%TO.P,IC5,3,~{LT}*%
%TO.N,+5V*%
X130650000Y-128270000D03*
%TO.P,IC5,4,~{BL}*%
X130650000Y-130810000D03*
%TO.P,IC5,5,LE/~{STROBE}*%
%TO.N,/Dice1/D3Latch*%
X130650000Y-133350000D03*
%TO.P,IC5,6,D_1*%
%TO.N,GND*%
X130650000Y-135890000D03*
%TO.P,IC5,7,A_1*%
%TO.N,Net-(D8-Pad2)*%
X130650000Y-138430000D03*
%TO.P,IC5,8,VSS*%
%TO.N,GND*%
X130650000Y-140970000D03*
%TO.P,IC5,9,E*%
%TO.N,Net-(IC5-Pad9)*%
X138590000Y-140970000D03*
%TO.P,IC5,10,D_2*%
%TO.N,Net-(IC5-Pad10)*%
X138590000Y-138430000D03*
%TO.P,IC5,11,C_2*%
%TO.N,Net-(IC5-Pad11)*%
X138590000Y-135890000D03*
%TO.P,IC5,12,B_2*%
%TO.N,Net-(IC5-Pad12)*%
X138590000Y-133350000D03*
%TO.P,IC5,13,A_2*%
%TO.N,Net-(IC5-Pad13)*%
X138590000Y-130810000D03*
%TO.P,IC5,14,G*%
%TO.N,Net-(IC5-Pad14)*%
X138590000Y-128270000D03*
%TO.P,IC5,15,F*%
%TO.N,Net-(IC5-Pad15)*%
X138590000Y-125730000D03*
%TO.P,IC5,16,VDD*%
%TO.N,+5V*%
X138590000Y-123190000D03*
%TD*%
D22*
%TO.P,U6,1,GND*%
%TO.N,GND*%
X115580000Y-148600000D03*
D12*
%TO.P,U6,2,TR*%
%TO.N,Net-(C6-Pad1)*%
X115580000Y-151140000D03*
%TO.P,U6,3,Q*%
%TO.N,Net-(U6-Pad3)*%
X115580000Y-153680000D03*
%TO.P,U6,4,R*%
%TO.N,+5V*%
X115580000Y-156220000D03*
%TO.P,U6,5,CV*%
%TO.N,Net-(C5-Pad1)*%
X123200000Y-156220000D03*
%TO.P,U6,6,THR*%
%TO.N,Net-(C6-Pad1)*%
X123200000Y-153680000D03*
%TO.P,U6,7,DIS*%
%TO.N,Net-(R8-Pad2)*%
X123200000Y-151140000D03*
%TO.P,U6,8,VCC*%
%TO.N,+5V*%
X123200000Y-148600000D03*
%TD*%
D23*
%TO.P,C3,1*%
%TO.N,Net-(C3-Pad1)*%
X66040000Y-167640000D03*
%TO.P,C3,2*%
%TO.N,GND*%
X71040000Y-167640000D03*
%TD*%
D11*
%TO.P,R2,1*%
%TO.N,Net-(IC1-Pad3)*%
X53340000Y-190500000D03*
D12*
%TO.P,R2,2*%
%TO.N,GND*%
X63500000Y-190500000D03*
%TD*%
D20*
%TO.P,D11,1,K*%
%TO.N,/Dice1/D4*%
X185420000Y-147320000D03*
D21*
%TO.P,D11,2,A*%
%TO.N,Net-(D11-Pad2)*%
X195580000Y-147320000D03*
%TD*%
D14*
%TO.P,IC8,1,B_1*%
%TO.N,Net-(D15-Pad2)*%
X237330000Y-120650000D03*
D15*
%TO.P,IC8,2,C_1*%
%TO.N,Net-(D16-Pad2)*%
X237330000Y-123190000D03*
%TO.P,IC8,3,~{LT}*%
%TO.N,+5V*%
X237330000Y-125730000D03*
%TO.P,IC8,4,~{BL}*%
X237330000Y-128270000D03*
%TO.P,IC8,5,LE/~{STROBE}*%
%TO.N,D5 Latch*%
X237330000Y-130810000D03*
%TO.P,IC8,6,D_1*%
%TO.N,GND*%
X237330000Y-133350000D03*
%TO.P,IC8,7,A_1*%
%TO.N,Net-(D14-Pad2)*%
X237330000Y-135890000D03*
%TO.P,IC8,8,VSS*%
%TO.N,GND*%
X237330000Y-138430000D03*
%TO.P,IC8,9,E*%
%TO.N,Net-(IC8-Pad9)*%
X245270000Y-138430000D03*
%TO.P,IC8,10,D_2*%
%TO.N,Net-(IC8-Pad10)*%
X245270000Y-135890000D03*
%TO.P,IC8,11,C_2*%
%TO.N,Net-(IC8-Pad11)*%
X245270000Y-133350000D03*
%TO.P,IC8,12,B_2*%
%TO.N,Net-(IC8-Pad12)*%
X245270000Y-130810000D03*
%TO.P,IC8,13,A_2*%
%TO.N,Net-(IC8-Pad13)*%
X245270000Y-128270000D03*
%TO.P,IC8,14,G*%
%TO.N,Net-(IC8-Pad14)*%
X245270000Y-125730000D03*
%TO.P,IC8,15,F*%
%TO.N,Net-(IC8-Pad15)*%
X245270000Y-123190000D03*
%TO.P,IC8,16,VDD*%
%TO.N,+5V*%
X245270000Y-120650000D03*
%TD*%
D11*
%TO.P,R54,1*%
%TO.N,Net-(R54-Pad1)*%
X213360000Y-116840000D03*
D12*
%TO.P,R54,2*%
%TO.N,Net-(DS4-Pad10)*%
X213360000Y-106680000D03*
%TD*%
D20*
%TO.P,D1,1,K*%
%TO.N,Net-(C1-Pad1)*%
X269240000Y-162560000D03*
D21*
%TO.P,D1,2,A*%
%TO.N,Net-(D1-Pad2)*%
X269240000Y-172720000D03*
%TD*%
D14*
%TO.P,IC2,1,B_1*%
%TO.N,Net-(D3-Pad2)*%
X31590000Y-123190000D03*
D15*
%TO.P,IC2,2,C_1*%
%TO.N,Net-(D4-Pad2)*%
X31590000Y-125730000D03*
%TO.P,IC2,3,~{LT}*%
%TO.N,+5V*%
X31590000Y-128270000D03*
%TO.P,IC2,4,~{BL}*%
X31590000Y-130810000D03*
%TO.P,IC2,5,LE/~{STROBE}*%
%TO.N,Net-(IC2-Pad5)*%
X31590000Y-133350000D03*
%TO.P,IC2,6,D_1*%
%TO.N,GND*%
X31590000Y-135890000D03*
%TO.P,IC2,7,A_1*%
%TO.N,Net-(D2-Pad2)*%
X31590000Y-138430000D03*
%TO.P,IC2,8,VSS*%
%TO.N,GND*%
X31590000Y-140970000D03*
%TO.P,IC2,9,E*%
%TO.N,Net-(IC2-Pad9)*%
X39530000Y-140970000D03*
%TO.P,IC2,10,D_2*%
%TO.N,Net-(IC2-Pad10)*%
X39530000Y-138430000D03*
%TO.P,IC2,11,C_2*%
%TO.N,Net-(IC2-Pad11)*%
X39530000Y-135890000D03*
%TO.P,IC2,12,B_2*%
%TO.N,Net-(IC2-Pad12)*%
X39530000Y-133350000D03*
%TO.P,IC2,13,A_2*%
%TO.N,Net-(IC2-Pad13)*%
X39530000Y-130810000D03*
%TO.P,IC2,14,G*%
%TO.N,Net-(IC2-Pad14)*%
X39530000Y-128270000D03*
%TO.P,IC2,15,F*%
%TO.N,Net-(IC2-Pad15)*%
X39530000Y-125730000D03*
%TO.P,IC2,16,VDD*%
%TO.N,+5V*%
X39530000Y-123190000D03*
%TD*%
D20*
%TO.P,D3,1,K*%
%TO.N,Net-(D2-Pad1)*%
X30480000Y-160020000D03*
D21*
%TO.P,D3,2,A*%
%TO.N,Net-(D3-Pad2)*%
X40640000Y-160020000D03*
%TD*%
D22*
%TO.P,U10,1,GND*%
%TO.N,GND*%
X222260000Y-148600000D03*
D12*
%TO.P,U10,2,TR*%
%TO.N,Net-(C10-Pad1)*%
X222260000Y-151140000D03*
%TO.P,U10,3,Q*%
%TO.N,Net-(U10-Pad3)*%
X222260000Y-153680000D03*
%TO.P,U10,4,R*%
%TO.N,+5V*%
X222260000Y-156220000D03*
%TO.P,U10,5,CV*%
%TO.N,Net-(C9-Pad1)*%
X229880000Y-156220000D03*
%TO.P,U10,6,THR*%
%TO.N,Net-(C10-Pad1)*%
X229880000Y-153680000D03*
%TO.P,U10,7,DIS*%
%TO.N,Net-(R18-Pad2)*%
X229880000Y-151140000D03*
%TO.P,U10,8,VCC*%
%TO.N,+5V*%
X229880000Y-148600000D03*
%TD*%
D24*
%TO.P,J4,1,Pin_1*%
%TO.N,Net-(C2-Pad1)*%
X264720000Y-187960000D03*
D25*
%TO.P,J4,2,Pin_2*%
%TO.N,+5V*%
X269520000Y-187960000D03*
%TO.P,J4,3,Pin_3*%
%TO.N,Net-(J3-Pad1)*%
X274320000Y-187960000D03*
%TD*%
D23*
%TO.P,C11,1*%
%TO.N,Net-(C11-Pad1)*%
X264160000Y-152400000D03*
%TO.P,C11,2*%
%TO.N,GND*%
X269160000Y-152400000D03*
%TD*%
D26*
%TO.P,J7,1,Pin_1*%
%TO.N,Net-(D17-Pad1)*%
X145260000Y-187960000D03*
D17*
%TO.P,J7,2,Pin_2*%
%TO.N,Net-(J7-Pad2)*%
X149860000Y-187960000D03*
%TD*%
D11*
%TO.P,R26,1*%
%TO.N,Net-(R26-Pad1)*%
X50800000Y-116840000D03*
D12*
%TO.P,R26,2*%
%TO.N,Net-(DS1-Pad10)*%
X50800000Y-106680000D03*
%TD*%
D27*
%TO.P,J11,1,Pin_1*%
%TO.N,+5V*%
X66040000Y-121920000D03*
D17*
%TO.P,J11,2,Pin_2*%
%TO.N,Net-(IC1-Pad3)*%
X61440000Y-121920000D03*
%TD*%
D20*
%TO.P,D10,1,K*%
%TO.N,/Dice1/D3*%
X134620000Y-157480000D03*
D21*
%TO.P,D10,2,A*%
%TO.N,Net-(D10-Pad2)*%
X144780000Y-157480000D03*
%TD*%
D14*
%TO.P,U7,1,PE*%
%TO.N,/Dice1/D2R*%
X82550000Y-171610000D03*
D15*
%TO.P,U7,2,Q4*%
%TO.N,unconnected-(U7-Pad2)*%
X85090000Y-171610000D03*
%TO.P,U7,3,J4*%
%TO.N,GND*%
X87630000Y-171610000D03*
%TO.P,U7,4,J1*%
X90170000Y-171610000D03*
%TO.P,U7,5,Cin*%
X92710000Y-171610000D03*
%TO.P,U7,6,Q1*%
%TO.N,Net-(D5-Pad2)*%
X95250000Y-171610000D03*
%TO.P,U7,7,Cout*%
%TO.N,unconnected-(U7-Pad7)*%
X97790000Y-171610000D03*
%TO.P,U7,8,VSS*%
%TO.N,GND*%
X100330000Y-171610000D03*
%TO.P,U7,9,B/D*%
%TO.N,+5V*%
X100330000Y-163670000D03*
%TO.P,U7,10,U/D*%
%TO.N,GND*%
X97790000Y-163670000D03*
%TO.P,U7,11,Q2*%
%TO.N,Net-(D6-Pad2)*%
X95250000Y-163670000D03*
%TO.P,U7,12,J2*%
%TO.N,+5V*%
X92710000Y-163670000D03*
%TO.P,U7,13,J3*%
X90170000Y-163670000D03*
%TO.P,U7,14,Q3*%
%TO.N,Net-(D7-Pad2)*%
X87630000Y-163670000D03*
%TO.P,U7,15,CK*%
%TO.N,Net-(U6-Pad3)*%
X85090000Y-163670000D03*
%TO.P,U7,16,VDD*%
%TO.N,+5V*%
X82550000Y-163670000D03*
%TD*%
D20*
%TO.P,D7,1,K*%
%TO.N,/Dice1/D2*%
X83820000Y-157480000D03*
D21*
%TO.P,D7,2,A*%
%TO.N,Net-(D7-Pad2)*%
X93980000Y-157480000D03*
%TD*%
D11*
%TO.P,R34,1*%
%TO.N,Net-(R34-Pad1)*%
X99060000Y-116840000D03*
D12*
%TO.P,R34,2*%
%TO.N,Net-(DS2-Pad1)*%
X99060000Y-106680000D03*
%TD*%
D26*
%TO.P,J10,1,Pin_1*%
%TO.N,+5V*%
X86840000Y-190500000D03*
D17*
%TO.P,J10,2,Pin_2*%
%TO.N,/Dice1/Roll*%
X91440000Y-190500000D03*
%TD*%
D18*
%TO.P,U19,1,I1*%
%TO.N,Net-(IC6-Pad15)*%
X201915000Y-121930000D03*
D19*
%TO.P,U19,2,I2*%
%TO.N,Net-(IC6-Pad14)*%
X201915000Y-124470000D03*
%TO.P,U19,3,I3*%
%TO.N,Net-(IC6-Pad13)*%
X201915000Y-127010000D03*
%TO.P,U19,4,I4*%
%TO.N,Net-(IC6-Pad12)*%
X201915000Y-129550000D03*
%TO.P,U19,5,I5*%
%TO.N,Net-(IC6-Pad11)*%
X201915000Y-132090000D03*
%TO.P,U19,6,I6*%
%TO.N,Net-(IC6-Pad10)*%
X201915000Y-134630000D03*
%TO.P,U19,7,I7*%
%TO.N,Net-(IC6-Pad9)*%
X201915000Y-137170000D03*
%TO.P,U19,8,I8*%
%TO.N,/Dice3/D4Q*%
X201915000Y-139710000D03*
%TO.P,U19,9,GND*%
%TO.N,GND*%
X201915000Y-142250000D03*
%TO.P,U19,10,COM*%
%TO.N,unconnected-(U19-Pad10)*%
X209535000Y-142250000D03*
%TO.P,U19,11,O8*%
%TO.N,Net-(R53-Pad1)*%
X209535000Y-139710000D03*
%TO.P,U19,12,O7*%
%TO.N,Net-(R50-Pad1)*%
X209535000Y-137170000D03*
%TO.P,U19,13,O6*%
%TO.N,Net-(R51-Pad1)*%
X209535000Y-134630000D03*
%TO.P,U19,14,O5*%
%TO.N,Net-(R52-Pad1)*%
X209535000Y-132090000D03*
%TO.P,U19,15,O4*%
%TO.N,Net-(R57-Pad1)*%
X209535000Y-129550000D03*
%TO.P,U19,16,O3*%
%TO.N,Net-(R56-Pad1)*%
X209535000Y-127010000D03*
%TO.P,U19,17,O2*%
%TO.N,Net-(R54-Pad1)*%
X209535000Y-124470000D03*
%TO.P,U19,18,O1*%
%TO.N,Net-(R55-Pad1)*%
X209535000Y-121930000D03*
%TD*%
D11*
%TO.P,R41,1*%
%TO.N,Net-(R41-Pad1)*%
X129540000Y-116840000D03*
D12*
%TO.P,R41,2*%
%TO.N,Net-(DS2-Pad6)*%
X129540000Y-106680000D03*
%TD*%
D11*
%TO.P,R38,1*%
%TO.N,Net-(R38-Pad1)*%
X114300000Y-116840000D03*
D12*
%TO.P,R38,2*%
%TO.N,Net-(DS2-Pad10)*%
X114300000Y-106680000D03*
%TD*%
D14*
%TO.P,IC4,1,Q2*%
%TO.N,Net-(IC4-Pad1)*%
X173830000Y-123190000D03*
D15*
%TO.P,IC4,2,~{Q2}*%
%TO.N,/Dice1/D3Hold*%
X173830000Y-125730000D03*
%TO.P,IC4,3,CLOCK2*%
%TO.N,Net-(IC4-Pad3)*%
X173830000Y-128270000D03*
%TO.P,IC4,4,RESET2*%
%TO.N,Reset*%
X173830000Y-130810000D03*
%TO.P,IC4,5,K2*%
%TO.N,+5V*%
X173830000Y-133350000D03*
%TO.P,IC4,6,J2*%
X173830000Y-135890000D03*
%TO.P,IC4,7,SET2*%
%TO.N,GND*%
X173830000Y-138430000D03*
%TO.P,IC4,8,VSS*%
X173830000Y-140970000D03*
%TO.P,IC4,9,SET1*%
X181770000Y-140970000D03*
%TO.P,IC4,10,J1*%
%TO.N,+5V*%
X181770000Y-138430000D03*
%TO.P,IC4,11,K1*%
X181770000Y-135890000D03*
%TO.P,IC4,12,RESET1*%
%TO.N,Reset*%
X181770000Y-133350000D03*
%TO.P,IC4,13,CLOCK1*%
%TO.N,/Dice3/D4Set*%
X181770000Y-130810000D03*
%TO.P,IC4,14,~{Q1}*%
%TO.N,/Dice1/D4Hold*%
X181770000Y-128270000D03*
%TO.P,IC4,15,Q1*%
%TO.N,/Dice3/D4Q*%
X181770000Y-125730000D03*
%TO.P,IC4,16,VDD*%
%TO.N,+5V*%
X181770000Y-123190000D03*
%TD*%
D11*
%TO.P,R45,1*%
%TO.N,Net-(R45-Pad1)*%
X137160000Y-116840000D03*
D12*
%TO.P,R45,2*%
%TO.N,Net-(DS3-Pad5)*%
X137160000Y-106680000D03*
%TD*%
D11*
%TO.P,R40,1*%
%TO.N,Net-(R40-Pad1)*%
X124460000Y-116840000D03*
D12*
%TO.P,R40,2*%
%TO.N,Net-(DS2-Pad7)*%
X124460000Y-106680000D03*
%TD*%
D11*
%TO.P,R63,1*%
%TO.N,Net-(R63-Pad1)*%
X266700000Y-116840000D03*
D12*
%TO.P,R63,2*%
%TO.N,Net-(DS5-Pad9)*%
X266700000Y-106680000D03*
%TD*%
D11*
%TO.P,R51,1*%
%TO.N,Net-(R51-Pad1)*%
X203200000Y-116840000D03*
D12*
%TO.P,R51,2*%
%TO.N,Net-(DS4-Pad2)*%
X203200000Y-106680000D03*
%TD*%
D11*
%TO.P,R62,1*%
%TO.N,Net-(R62-Pad1)*%
X261620000Y-116840000D03*
D12*
%TO.P,R62,2*%
%TO.N,Net-(DS5-Pad10)*%
X261620000Y-106680000D03*
%TD*%
D11*
%TO.P,R58,1*%
%TO.N,Net-(R58-Pad1)*%
X246380000Y-116840000D03*
D12*
%TO.P,R58,2*%
%TO.N,Net-(DS5-Pad1)*%
X246380000Y-106680000D03*
%TD*%
D20*
%TO.P,D16,1,K*%
%TO.N,Net-(D14-Pad1)*%
X236220000Y-154270000D03*
D21*
%TO.P,D16,2,A*%
%TO.N,Net-(D16-Pad2)*%
X246380000Y-154270000D03*
%TD*%
D18*
%TO.P,U20,1,I1*%
%TO.N,Net-(IC8-Pad15)*%
X252715000Y-121930000D03*
D19*
%TO.P,U20,2,I2*%
%TO.N,Net-(IC8-Pad14)*%
X252715000Y-124470000D03*
%TO.P,U20,3,I3*%
%TO.N,Net-(IC8-Pad13)*%
X252715000Y-127010000D03*
%TO.P,U20,4,I4*%
%TO.N,Net-(IC8-Pad12)*%
X252715000Y-129550000D03*
%TO.P,U20,5,I5*%
%TO.N,Net-(IC8-Pad11)*%
X252715000Y-132090000D03*
%TO.P,U20,6,I6*%
%TO.N,Net-(IC8-Pad10)*%
X252715000Y-134630000D03*
%TO.P,U20,7,I7*%
%TO.N,Net-(IC8-Pad9)*%
X252715000Y-137170000D03*
%TO.P,U20,8,I8*%
%TO.N,Net-(IC7-Pad1)*%
X252715000Y-139710000D03*
%TO.P,U20,9,GND*%
%TO.N,GND*%
X252715000Y-142250000D03*
%TO.P,U20,10,COM*%
%TO.N,unconnected-(U20-Pad10)*%
X260335000Y-142250000D03*
%TO.P,U20,11,O8*%
%TO.N,Net-(R60-Pad1)*%
X260335000Y-139710000D03*
%TO.P,U20,12,O7*%
%TO.N,Net-(R58-Pad1)*%
X260335000Y-137170000D03*
%TO.P,U20,13,O6*%
%TO.N,Net-(R59-Pad1)*%
X260335000Y-134630000D03*
%TO.P,U20,14,O5*%
%TO.N,Net-(R61-Pad1)*%
X260335000Y-132090000D03*
%TO.P,U20,15,O4*%
%TO.N,Net-(R65-Pad1)*%
X260335000Y-129550000D03*
%TO.P,U20,16,O3*%
%TO.N,Net-(R64-Pad1)*%
X260335000Y-127010000D03*
%TO.P,U20,17,O2*%
%TO.N,Net-(R62-Pad1)*%
X260335000Y-124470000D03*
%TO.P,U20,18,O1*%
%TO.N,Net-(R63-Pad1)*%
X260335000Y-121930000D03*
%TD*%
D13*
%TO.P,J2,1,Pin_1*%
%TO.N,GND*%
X228600000Y-187960000D03*
%TD*%
D11*
%TO.P,R16,1*%
%TO.N,Net-(R16-Pad1)*%
X33020000Y-116840000D03*
D12*
%TO.P,R16,2*%
%TO.N,Net-(DS1-Pad5)*%
X33020000Y-106680000D03*
%TD*%
D28*
%TO.P,C2,1*%
%TO.N,Net-(C2-Pad1)*%
X281940000Y-170180000D03*
D29*
%TO.P,C2,2*%
%TO.N,GND*%
X283940000Y-170180000D03*
%TD*%
D11*
%TO.P,R65,1*%
%TO.N,Net-(R65-Pad1)*%
X276860000Y-116840000D03*
D12*
%TO.P,R65,2*%
%TO.N,Net-(DS5-Pad6)*%
X276860000Y-106680000D03*
%TD*%
D11*
%TO.P,R56,1*%
%TO.N,Net-(R56-Pad1)*%
X223520000Y-116840000D03*
D12*
%TO.P,R56,2*%
%TO.N,Net-(DS4-Pad7)*%
X223520000Y-106680000D03*
%TD*%
D28*
%TO.P,C4,1*%
%TO.N,Net-(C4-Pad1)*%
X55880000Y-167640000D03*
D29*
%TO.P,C4,2*%
%TO.N,GND*%
X57880000Y-167640000D03*
%TD*%
D11*
%TO.P,R55,1*%
%TO.N,Net-(R55-Pad1)*%
X218440000Y-116840000D03*
D12*
%TO.P,R55,2*%
%TO.N,Net-(DS4-Pad9)*%
X218440000Y-106680000D03*
%TD*%
D11*
%TO.P,R30,1*%
%TO.N,Net-(J9-Pad2)*%
X157480000Y-180340000D03*
D12*
%TO.P,R30,2*%
%TO.N,GND*%
X167640000Y-180340000D03*
%TD*%
D22*
%TO.P,U4,1,A*%
%TO.N,Net-(IC1-Pad2)*%
X33020000Y-185420000D03*
D11*
%TO.P,U4,2,B*%
%TO.N,/Dice1/Roll*%
X35560000Y-185420000D03*
%TO.P,U4,3,J*%
%TO.N,Net-(IC2-Pad5)*%
X38100000Y-185420000D03*
%TO.P,U4,4,K*%
%TO.N,/Dice1/D2Latch*%
X40640000Y-185420000D03*
%TO.P,U4,5,C*%
%TO.N,/Dice1/D2Hold*%
X43180000Y-185420000D03*
%TO.P,U4,6,D*%
%TO.N,/Dice1/Roll*%
X45720000Y-185420000D03*
%TO.P,U4,7,VCC*%
%TO.N,GND*%
X48260000Y-185420000D03*
%TO.P,U4,8,E*%
%TO.N,/Dice1/D3Hold*%
X48260000Y-177800000D03*
%TO.P,U4,9,F*%
%TO.N,/Dice1/Roll*%
X45720000Y-177800000D03*
%TO.P,U4,10,L*%
%TO.N,/Dice1/D3Latch*%
X43180000Y-177800000D03*
%TO.P,U4,11,M*%
%TO.N,/Dice1/D4Latch*%
X40640000Y-177800000D03*
%TO.P,U4,12,G*%
%TO.N,/Dice1/D4Hold*%
X38100000Y-177800000D03*
%TO.P,U4,13,H*%
%TO.N,/Dice1/Roll*%
X35560000Y-177800000D03*
%TO.P,U4,14,VDD*%
%TO.N,+5V*%
X33020000Y-177800000D03*
%TD*%
%TO.P,R59,1*%
%TO.N,Net-(R59-Pad1)*%
X251460000Y-116840000D03*
D12*
%TO.P,R59,2*%
%TO.N,Net-(DS5-Pad2)*%
X251460000Y-106680000D03*
%TD*%
D20*
%TO.P,D8,1,K*%
%TO.N,/Dice1/D3*%
X134620000Y-147320000D03*
D21*
%TO.P,D8,2,A*%
%TO.N,Net-(D8-Pad2)*%
X144780000Y-147320000D03*
%TD*%
D22*
%TO.P,U15,1,Q5*%
%TO.N,unconnected-(U15-Pad1)*%
X90185000Y-184140000D03*
D12*
%TO.P,U15,2,Q1*%
%TO.N,Net-(D17-Pad2)*%
X92725000Y-184140000D03*
%TO.P,U15,3,Q0*%
%TO.N,Net-(D17-Pad1)*%
X95265000Y-184140000D03*
%TO.P,U15,4,Q2*%
%TO.N,Net-(D18-Pad2)*%
X97805000Y-184140000D03*
%TO.P,U15,5,Q6*%
%TO.N,unconnected-(U15-Pad5)*%
X100345000Y-184140000D03*
%TO.P,U15,6,Q7*%
%TO.N,unconnected-(U15-Pad6)*%
X102885000Y-184140000D03*
%TO.P,U15,7,Q3*%
%TO.N,unconnected-(U15-Pad7)*%
X105425000Y-184140000D03*
%TO.P,U15,8,VSS*%
%TO.N,GND*%
X107965000Y-184140000D03*
%TO.P,U15,9,Q8*%
%TO.N,unconnected-(U15-Pad9)*%
X107965000Y-176520000D03*
%TO.P,U15,10,Q4*%
%TO.N,unconnected-(U15-Pad10)*%
X105425000Y-176520000D03*
%TO.P,U15,11,Q9*%
%TO.N,unconnected-(U15-Pad11)*%
X102885000Y-176520000D03*
%TO.P,U15,12,Cout*%
%TO.N,unconnected-(U15-Pad12)*%
X100345000Y-176520000D03*
%TO.P,U15,13,CKEN*%
%TO.N,GND*%
X97805000Y-176520000D03*
%TO.P,U15,14,CLK*%
%TO.N,/Dice1/Roll*%
X95265000Y-176520000D03*
%TO.P,U15,15,Reset*%
%TO.N,Reset*%
X92725000Y-176520000D03*
%TO.P,U15,16,VDD*%
%TO.N,+5V*%
X90185000Y-176520000D03*
%TD*%
D11*
%TO.P,R9,1*%
%TO.N,Net-(R8-Pad2)*%
X129540000Y-185420000D03*
D12*
%TO.P,R9,2*%
%TO.N,Net-(C6-Pad1)*%
X139700000Y-185420000D03*
%TD*%
D20*
%TO.P,D6,1,K*%
%TO.N,/Dice1/D2*%
X83820000Y-152400000D03*
D21*
%TO.P,D6,2,A*%
%TO.N,Net-(D6-Pad2)*%
X93980000Y-152400000D03*
%TD*%
D11*
%TO.P,R22,1*%
%TO.N,Net-(IC7-Pad3)*%
X274320000Y-129540000D03*
D12*
%TO.P,R22,2*%
%TO.N,GND*%
X284480000Y-129540000D03*
%TD*%
D20*
%TO.P,D13,1,K*%
%TO.N,/Dice1/D4*%
X185420000Y-157480000D03*
D21*
%TO.P,D13,2,A*%
%TO.N,Net-(D13-Pad2)*%
X195580000Y-157480000D03*
%TD*%
D11*
%TO.P,R27,1*%
%TO.N,Reset*%
X238760000Y-175260000D03*
D12*
%TO.P,R27,2*%
%TO.N,GND*%
X248920000Y-175260000D03*
%TD*%
D22*
%TO.P,U2,1,GND*%
%TO.N,GND*%
X59700000Y-135900000D03*
D12*
%TO.P,U2,2,TR*%
%TO.N,Net-(C4-Pad1)*%
X59700000Y-138440000D03*
%TO.P,U2,3,Q*%
%TO.N,Net-(U2-Pad3)*%
X59700000Y-140980000D03*
%TO.P,U2,4,R*%
%TO.N,+5V*%
X59700000Y-143520000D03*
%TO.P,U2,5,CV*%
%TO.N,Net-(C3-Pad1)*%
X67320000Y-143520000D03*
%TO.P,U2,6,THR*%
%TO.N,Net-(C4-Pad1)*%
X67320000Y-140980000D03*
%TO.P,U2,7,DIS*%
%TO.N,Net-(R3-Pad2)*%
X67320000Y-138440000D03*
%TO.P,U2,8,VCC*%
%TO.N,+5V*%
X67320000Y-135900000D03*
%TD*%
D20*
%TO.P,D4,1,K*%
%TO.N,Net-(D2-Pad1)*%
X30480000Y-154940000D03*
D21*
%TO.P,D4,2,A*%
%TO.N,Net-(D4-Pad2)*%
X40640000Y-154940000D03*
%TD*%
D14*
%TO.P,U3,1,PE*%
%TO.N,Net-(U3-Pad1)*%
X31750000Y-171610000D03*
D15*
%TO.P,U3,2,Q4*%
%TO.N,unconnected-(U3-Pad2)*%
X34290000Y-171610000D03*
%TO.P,U3,3,J4*%
%TO.N,GND*%
X36830000Y-171610000D03*
%TO.P,U3,4,J1*%
X39370000Y-171610000D03*
%TO.P,U3,5,Cin*%
X41910000Y-171610000D03*
%TO.P,U3,6,Q1*%
%TO.N,Net-(D2-Pad2)*%
X44450000Y-171610000D03*
%TO.P,U3,7,Cout*%
%TO.N,unconnected-(U3-Pad7)*%
X46990000Y-171610000D03*
%TO.P,U3,8,VSS*%
%TO.N,GND*%
X49530000Y-171610000D03*
%TO.P,U3,9,B/D*%
%TO.N,+5V*%
X49530000Y-163670000D03*
%TO.P,U3,10,U/D*%
%TO.N,GND*%
X46990000Y-163670000D03*
%TO.P,U3,11,Q2*%
%TO.N,Net-(D3-Pad2)*%
X44450000Y-163670000D03*
%TO.P,U3,12,J2*%
%TO.N,+5V*%
X41910000Y-163670000D03*
%TO.P,U3,13,J3*%
X39370000Y-163670000D03*
%TO.P,U3,14,Q3*%
%TO.N,Net-(D4-Pad2)*%
X36830000Y-163670000D03*
%TO.P,U3,15,CK*%
%TO.N,Net-(U2-Pad3)*%
X34290000Y-163670000D03*
%TO.P,U3,16,VDD*%
%TO.N,+5V*%
X31750000Y-163670000D03*
%TD*%
D11*
%TO.P,R21,1*%
%TO.N,Net-(R21-Pad1)*%
X60960000Y-116840000D03*
D12*
%TO.P,R21,2*%
%TO.N,Net-(DS1-Pad2)*%
X60960000Y-106680000D03*
%TD*%
D11*
%TO.P,R8,1*%
%TO.N,+5V*%
X129540000Y-180340000D03*
D12*
%TO.P,R8,2*%
%TO.N,Net-(R8-Pad2)*%
X139700000Y-180340000D03*
%TD*%
D28*
%TO.P,C10,1*%
%TO.N,Net-(C10-Pad1)*%
X205740000Y-170180000D03*
D29*
%TO.P,C10,2*%
%TO.N,GND*%
X207740000Y-170180000D03*
%TD*%
D28*
%TO.P,C12,1*%
%TO.N,Net-(C12-Pad1)*%
X254000000Y-152400000D03*
D29*
%TO.P,C12,2*%
%TO.N,GND*%
X256000000Y-152400000D03*
%TD*%
D11*
%TO.P,R46,1*%
%TO.N,Net-(R46-Pad1)*%
X160020000Y-116840000D03*
D12*
%TO.P,R46,2*%
%TO.N,Net-(DS3-Pad10)*%
X160020000Y-106680000D03*
%TD*%
D11*
%TO.P,R31,1*%
%TO.N,Net-(R31-Pad1)*%
X71120000Y-116840000D03*
D12*
%TO.P,R31,2*%
%TO.N,Net-(DS1-Pad9)*%
X71120000Y-106680000D03*
%TD*%
D11*
%TO.P,R49,1*%
%TO.N,Net-(R49-Pad1)*%
X175260000Y-116840000D03*
D12*
%TO.P,R49,2*%
%TO.N,Net-(DS3-Pad6)*%
X175260000Y-106680000D03*
%TD*%
D11*
%TO.P,R12,1*%
%TO.N,Net-(IC4-Pad3)*%
X169580000Y-136000000D03*
D12*
%TO.P,R12,2*%
%TO.N,GND*%
X159420000Y-136000000D03*
%TD*%
D27*
%TO.P,J14,1,Pin_1*%
%TO.N,+5V*%
X167800000Y-129540000D03*
D17*
%TO.P,J14,2,Pin_2*%
%TO.N,/Dice3/D4Set*%
X163200000Y-129540000D03*
%TD*%
D18*
%TO.P,U18,1,I1*%
%TO.N,Net-(IC5-Pad15)*%
X143495000Y-121930000D03*
D19*
%TO.P,U18,2,I2*%
%TO.N,Net-(IC5-Pad14)*%
X143495000Y-124470000D03*
%TO.P,U18,3,I3*%
%TO.N,Net-(IC5-Pad13)*%
X143495000Y-127010000D03*
%TO.P,U18,4,I4*%
%TO.N,Net-(IC5-Pad12)*%
X143495000Y-129550000D03*
%TO.P,U18,5,I5*%
%TO.N,Net-(IC5-Pad11)*%
X143495000Y-132090000D03*
%TO.P,U18,6,I6*%
%TO.N,Net-(IC5-Pad10)*%
X143495000Y-134630000D03*
%TO.P,U18,7,I7*%
%TO.N,Net-(IC5-Pad9)*%
X143495000Y-137170000D03*
%TO.P,U18,8,I8*%
%TO.N,Net-(IC4-Pad1)*%
X143495000Y-139710000D03*
%TO.P,U18,9,GND*%
%TO.N,GND*%
X143495000Y-142250000D03*
%TO.P,U18,10,COM*%
%TO.N,unconnected-(U18-Pad10)*%
X151115000Y-142250000D03*
%TO.P,U18,11,O8*%
%TO.N,Net-(R45-Pad1)*%
X151115000Y-139710000D03*
%TO.P,U18,12,O7*%
%TO.N,Net-(R42-Pad1)*%
X151115000Y-137170000D03*
%TO.P,U18,13,O6*%
%TO.N,Net-(R43-Pad1)*%
X151115000Y-134630000D03*
%TO.P,U18,14,O5*%
%TO.N,Net-(R44-Pad1)*%
X151115000Y-132090000D03*
%TO.P,U18,15,O4*%
%TO.N,Net-(R49-Pad1)*%
X151115000Y-129550000D03*
%TO.P,U18,16,O3*%
%TO.N,Net-(R48-Pad1)*%
X151115000Y-127010000D03*
%TO.P,U18,17,O2*%
%TO.N,Net-(R46-Pad1)*%
X151115000Y-124470000D03*
%TO.P,U18,18,O1*%
%TO.N,Net-(R47-Pad1)*%
X151115000Y-121930000D03*
%TD*%
D11*
%TO.P,R7,1*%
%TO.N,/Dice1/D2Set*%
X83820000Y-116840000D03*
D12*
%TO.P,R7,2*%
%TO.N,GND*%
X83820000Y-106680000D03*
%TD*%
D11*
%TO.P,R33,1*%
%TO.N,Net-(R33-Pad1)*%
X40640000Y-116840000D03*
D12*
%TO.P,R33,2*%
%TO.N,Net-(DS1-Pad6)*%
X40640000Y-106680000D03*
%TD*%
D11*
%TO.P,R1,1*%
%TO.N,/Dice1/Roll*%
X175260000Y-190500000D03*
D12*
%TO.P,R1,2*%
%TO.N,GND*%
X175260000Y-180340000D03*
%TD*%
D11*
%TO.P,R36,1*%
%TO.N,Net-(R36-Pad1)*%
X109220000Y-116840000D03*
D12*
%TO.P,R36,2*%
%TO.N,Net-(DS2-Pad4)*%
X109220000Y-106680000D03*
%TD*%
D14*
%TO.P,U11,1,PE*%
%TO.N,/Dice1/D4R*%
X181610000Y-174150000D03*
D15*
%TO.P,U11,2,Q4*%
%TO.N,unconnected-(U11-Pad2)*%
X184150000Y-174150000D03*
%TO.P,U11,3,J4*%
%TO.N,GND*%
X186690000Y-174150000D03*
%TO.P,U11,4,J1*%
X189230000Y-174150000D03*
%TO.P,U11,5,Cin*%
X191770000Y-174150000D03*
%TO.P,U11,6,Q1*%
%TO.N,Net-(D11-Pad2)*%
X194310000Y-174150000D03*
%TO.P,U11,7,Cout*%
%TO.N,unconnected-(U11-Pad7)*%
X196850000Y-174150000D03*
%TO.P,U11,8,VSS*%
%TO.N,GND*%
X199390000Y-174150000D03*
%TO.P,U11,9,B/D*%
%TO.N,+5V*%
X199390000Y-166210000D03*
%TO.P,U11,10,U/D*%
%TO.N,GND*%
X196850000Y-166210000D03*
%TO.P,U11,11,Q2*%
%TO.N,Net-(D12-Pad2)*%
X194310000Y-166210000D03*
%TO.P,U11,12,J2*%
%TO.N,+5V*%
X191770000Y-166210000D03*
%TO.P,U11,13,J3*%
X189230000Y-166210000D03*
%TO.P,U11,14,Q3*%
%TO.N,Net-(D13-Pad2)*%
X186690000Y-166210000D03*
%TO.P,U11,15,CK*%
%TO.N,Net-(U10-Pad3)*%
X184150000Y-166210000D03*
%TO.P,U11,16,VDD*%
%TO.N,+5V*%
X181610000Y-166210000D03*
%TD*%
D14*
%TO.P,IC7,1,Q2*%
%TO.N,Net-(IC7-Pad1)*%
X204470000Y-186850000D03*
D15*
%TO.P,IC7,2,~{Q2}*%
%TO.N,D5Hold*%
X207010000Y-186850000D03*
%TO.P,IC7,3,CLOCK2*%
%TO.N,Net-(IC7-Pad3)*%
X209550000Y-186850000D03*
%TO.P,IC7,4,RESET2*%
%TO.N,Reset*%
X212090000Y-186850000D03*
%TO.P,IC7,5,K2*%
%TO.N,+5V*%
X214630000Y-186850000D03*
%TO.P,IC7,6,J2*%
X217170000Y-186850000D03*
%TO.P,IC7,7,SET2*%
%TO.N,GND*%
X219710000Y-186850000D03*
%TO.P,IC7,8,VSS*%
X222250000Y-186850000D03*
%TO.P,IC7,9,SET1*%
X222250000Y-178910000D03*
%TO.P,IC7,10,J1*%
%TO.N,+5V*%
X219710000Y-178910000D03*
%TO.P,IC7,11,K1*%
X217170000Y-178910000D03*
%TO.P,IC7,12,RESET1*%
%TO.N,GND*%
X214630000Y-178910000D03*
%TO.P,IC7,13,CLOCK1*%
X212090000Y-178910000D03*
%TO.P,IC7,14,~{Q1}*%
%TO.N,unconnected-(IC7-Pad14)*%
X209550000Y-178910000D03*
%TO.P,IC7,15,Q1*%
%TO.N,unconnected-(IC7-Pad15)*%
X207010000Y-178910000D03*
%TO.P,IC7,16,VDD*%
%TO.N,+5V*%
X204470000Y-178910000D03*
%TD*%
D27*
%TO.P,J12,1,Pin_1*%
%TO.N,+5V*%
X66040000Y-129540000D03*
D17*
%TO.P,J12,2,Pin_2*%
%TO.N,/Dice1/D2Set*%
X61440000Y-129540000D03*
%TD*%
D30*
%TO.P,U1,1,IN*%
%TO.N,Net-(C1-Pad1)*%
X276860000Y-157480000D03*
D31*
%TO.P,U1,2,GND*%
%TO.N,GND*%
X279400000Y-157480000D03*
%TO.P,U1,3,OUT*%
%TO.N,Net-(C2-Pad1)*%
X281940000Y-157480000D03*
%TD*%
D20*
%TO.P,D15,1,K*%
%TO.N,Net-(D14-Pad1)*%
X236220000Y-149190000D03*
D21*
%TO.P,D15,2,A*%
%TO.N,Net-(D15-Pad2)*%
X246380000Y-149190000D03*
%TD*%
D26*
%TO.P,J3,1,Pin_1*%
%TO.N,Net-(J3-Pad1)*%
X251940000Y-187960000D03*
D17*
%TO.P,J3,2,Pin_2*%
%TO.N,GND*%
X256540000Y-187960000D03*
%TD*%
D14*
%TO.P,IC6,1,B_1*%
%TO.N,Net-(D12-Pad2)*%
X189070000Y-123190000D03*
D15*
%TO.P,IC6,2,C_1*%
%TO.N,Net-(D13-Pad2)*%
X189070000Y-125730000D03*
%TO.P,IC6,3,~{LT}*%
%TO.N,+5V*%
X189070000Y-128270000D03*
%TO.P,IC6,4,~{BL}*%
X189070000Y-130810000D03*
%TO.P,IC6,5,LE/~{STROBE}*%
%TO.N,/Dice1/D4Latch*%
X189070000Y-133350000D03*
%TO.P,IC6,6,D_1*%
%TO.N,GND*%
X189070000Y-135890000D03*
%TO.P,IC6,7,A_1*%
%TO.N,Net-(D11-Pad2)*%
X189070000Y-138430000D03*
%TO.P,IC6,8,VSS*%
%TO.N,GND*%
X189070000Y-140970000D03*
%TO.P,IC6,9,E*%
%TO.N,Net-(IC6-Pad9)*%
X197010000Y-140970000D03*
%TO.P,IC6,10,D_2*%
%TO.N,Net-(IC6-Pad10)*%
X197010000Y-138430000D03*
%TO.P,IC6,11,C_2*%
%TO.N,Net-(IC6-Pad11)*%
X197010000Y-135890000D03*
%TO.P,IC6,12,B_2*%
%TO.N,Net-(IC6-Pad12)*%
X197010000Y-133350000D03*
%TO.P,IC6,13,A_2*%
%TO.N,Net-(IC6-Pad13)*%
X197010000Y-130810000D03*
%TO.P,IC6,14,G*%
%TO.N,Net-(IC6-Pad14)*%
X197010000Y-128270000D03*
%TO.P,IC6,15,F*%
%TO.N,Net-(IC6-Pad15)*%
X197010000Y-125730000D03*
%TO.P,IC6,16,VDD*%
%TO.N,+5V*%
X197010000Y-123190000D03*
%TD*%
D22*
%TO.P,U12,1,GND*%
%TO.N,GND*%
X255280000Y-161300000D03*
D12*
%TO.P,U12,2,TR*%
%TO.N,Net-(C12-Pad1)*%
X255280000Y-163840000D03*
%TO.P,U12,3,Q*%
%TO.N,Net-(U12-Pad3)*%
X255280000Y-166380000D03*
%TO.P,U12,4,R*%
%TO.N,+5V*%
X255280000Y-168920000D03*
%TO.P,U12,5,CV*%
%TO.N,Net-(C11-Pad1)*%
X262900000Y-168920000D03*
%TO.P,U12,6,THR*%
%TO.N,Net-(C12-Pad1)*%
X262900000Y-166380000D03*
%TO.P,U12,7,DIS*%
%TO.N,Net-(R23-Pad2)*%
X262900000Y-163840000D03*
%TO.P,U12,8,VCC*%
%TO.N,+5V*%
X262900000Y-161300000D03*
%TD*%
D22*
%TO.P,U5,1,A*%
%TO.N,Net-(D2-Pad1)*%
X66010000Y-184150000D03*
D11*
%TO.P,U5,2,B*%
X68550000Y-184150000D03*
%TO.P,U5,3,J*%
%TO.N,Net-(U3-Pad1)*%
X71090000Y-184150000D03*
%TO.P,U5,4,K*%
%TO.N,/Dice1/D2R*%
X73630000Y-184150000D03*
%TO.P,U5,5,C*%
%TO.N,/Dice1/D2*%
X76170000Y-184150000D03*
%TO.P,U5,6,D*%
X78710000Y-184150000D03*
%TO.P,U5,7,VCC*%
%TO.N,GND*%
X81250000Y-184150000D03*
%TO.P,U5,8,E*%
%TO.N,/Dice1/D3*%
X81250000Y-176530000D03*
%TO.P,U5,9,F*%
X78710000Y-176530000D03*
%TO.P,U5,10,L*%
%TO.N,/Dice1/D3R*%
X76170000Y-176530000D03*
%TO.P,U5,11,M*%
%TO.N,/Dice1/D4R*%
X73630000Y-176530000D03*
%TO.P,U5,12,G*%
%TO.N,/Dice1/D4*%
X71090000Y-176530000D03*
%TO.P,U5,13,H*%
X68550000Y-176530000D03*
%TO.P,U5,14,VDD*%
%TO.N,+5V*%
X66010000Y-176530000D03*
%TD*%
D23*
%TO.P,C5,1*%
%TO.N,Net-(C5-Pad1)*%
X121920000Y-167640000D03*
%TO.P,C5,2*%
%TO.N,GND*%
X126920000Y-167640000D03*
%TD*%
D20*
%TO.P,D2,1,K*%
%TO.N,Net-(D2-Pad1)*%
X30480000Y-149860000D03*
D21*
%TO.P,D2,2,A*%
%TO.N,Net-(D2-Pad2)*%
X40640000Y-149860000D03*
%TD*%
D32*
%TO.P,J15,1,Pin_1*%
%TO.N,+5V*%
X266700000Y-134620000D03*
D17*
%TO.P,J15,2,Pin_2*%
%TO.N,Net-(IC7-Pad3)*%
X266700000Y-130020000D03*
%TD*%
D11*
%TO.P,R5,1*%
%TO.N,Net-(D2-Pad1)*%
X53340000Y-149860000D03*
D12*
%TO.P,R5,2*%
%TO.N,GND*%
X53340000Y-160020000D03*
%TD*%
D23*
%TO.P,C7,1*%
%TO.N,Net-(C7-Pad1)*%
X167640000Y-170180000D03*
%TO.P,C7,2*%
%TO.N,GND*%
X172640000Y-170180000D03*
%TD*%
D11*
%TO.P,R32,1*%
%TO.N,Net-(R32-Pad1)*%
X45720000Y-116840000D03*
D12*
%TO.P,R32,2*%
%TO.N,Net-(DS1-Pad7)*%
X45720000Y-106680000D03*
%TD*%
D11*
%TO.P,R24,1*%
%TO.N,Net-(R23-Pad2)*%
X274320000Y-139700000D03*
D12*
%TO.P,R24,2*%
%TO.N,Net-(C12-Pad1)*%
X284480000Y-139700000D03*
%TD*%
D28*
%TO.P,C8,1*%
%TO.N,Net-(C8-Pad1)*%
X158020000Y-170180000D03*
D29*
%TO.P,C8,2*%
%TO.N,GND*%
X160020000Y-170180000D03*
%TD*%
D20*
%TO.P,D14,1,K*%
%TO.N,Net-(D14-Pad1)*%
X236220000Y-144110000D03*
D21*
%TO.P,D14,2,A*%
%TO.N,Net-(D14-Pad2)*%
X246380000Y-144110000D03*
%TD*%
D26*
%TO.P,J9,1,Pin_1*%
%TO.N,Net-(D18-Pad2)*%
X165100000Y-187960000D03*
D17*
%TO.P,J9,2,Pin_2*%
%TO.N,Net-(J9-Pad2)*%
X169700000Y-187960000D03*
%TD*%
D11*
%TO.P,R29,1*%
%TO.N,Net-(J8-Pad2)*%
X129540000Y-190500000D03*
D12*
%TO.P,R29,2*%
%TO.N,GND*%
X139700000Y-190500000D03*
%TD*%
D22*
%TO.P,U14,1,A*%
%TO.N,Net-(D14-Pad1)*%
X182850000Y-186690000D03*
D11*
%TO.P,U14,2,B*%
X185390000Y-186690000D03*
%TO.P,U14,3,J*%
%TO.N,Net-(U13-Pad1)*%
X187930000Y-186690000D03*
%TO.P,U14,4,K*%
%TO.N,D5Latch*%
X190470000Y-186690000D03*
%TO.P,U14,5,C*%
%TO.N,D5Hold*%
X193010000Y-186690000D03*
%TO.P,U14,6,D*%
%TO.N,/Dice1/Roll*%
X195550000Y-186690000D03*
%TO.P,U14,7,VCC*%
%TO.N,GND*%
X198090000Y-186690000D03*
%TO.P,U14,8,E*%
%TO.N,unconnected-(U14-Pad8)*%
X198090000Y-179070000D03*
%TO.P,U14,9,F*%
%TO.N,unconnected-(U14-Pad9)*%
X195550000Y-179070000D03*
%TO.P,U14,10,L*%
%TO.N,unconnected-(U14-Pad10)*%
X193010000Y-179070000D03*
%TO.P,U14,11,M*%
%TO.N,unconnected-(U14-Pad11)*%
X190470000Y-179070000D03*
%TO.P,U14,12,G*%
%TO.N,unconnected-(U14-Pad12)*%
X187930000Y-179070000D03*
%TO.P,U14,13,H*%
%TO.N,unconnected-(U14-Pad13)*%
X185390000Y-179070000D03*
%TO.P,U14,14,VDD*%
%TO.N,+5V*%
X182850000Y-179070000D03*
%TD*%
%TO.P,R43,1*%
%TO.N,Net-(R43-Pad1)*%
X149860000Y-116840000D03*
D12*
%TO.P,R43,2*%
%TO.N,Net-(DS3-Pad2)*%
X149860000Y-106680000D03*
%TD*%
D14*
%TO.P,IC1,1,Q2*%
%TO.N,Net-(IC1-Pad1)*%
X72230000Y-120650000D03*
D15*
%TO.P,IC1,2,~{Q2}*%
%TO.N,Net-(IC1-Pad2)*%
X72230000Y-123190000D03*
%TO.P,IC1,3,CLOCK2*%
%TO.N,Net-(IC1-Pad3)*%
X72230000Y-125730000D03*
%TO.P,IC1,4,RESET2*%
%TO.N,Reset*%
X72230000Y-128270000D03*
%TO.P,IC1,5,K2*%
%TO.N,+5V*%
X72230000Y-130810000D03*
%TO.P,IC1,6,J2*%
X72230000Y-133350000D03*
%TO.P,IC1,7,SET2*%
%TO.N,GND*%
X72230000Y-135890000D03*
%TO.P,IC1,8,VSS*%
X72230000Y-138430000D03*
%TO.P,IC1,9,SET1*%
X80170000Y-138430000D03*
%TO.P,IC1,10,J1*%
%TO.N,+5V*%
X80170000Y-135890000D03*
%TO.P,IC1,11,K1*%
X80170000Y-133350000D03*
%TO.P,IC1,12,RESET1*%
%TO.N,Reset*%
X80170000Y-130810000D03*
%TO.P,IC1,13,CLOCK1*%
%TO.N,/Dice1/D2Set*%
X80170000Y-128270000D03*
%TO.P,IC1,14,~{Q1}*%
%TO.N,/Dice1/D2Hold*%
X80170000Y-125730000D03*
%TO.P,IC1,15,Q1*%
%TO.N,/Dice1/D2Q*%
X80170000Y-123190000D03*
%TO.P,IC1,16,VDD*%
%TO.N,+5V*%
X80170000Y-120650000D03*
%TD*%
D11*
%TO.P,R23,1*%
%TO.N,+5V*%
X274320000Y-134620000D03*
D12*
%TO.P,R23,2*%
%TO.N,Net-(R23-Pad2)*%
X284480000Y-134620000D03*
%TD*%
D28*
%TO.P,C6,1*%
%TO.N,Net-(C6-Pad1)*%
X109220000Y-165100000D03*
D29*
%TO.P,C6,2*%
%TO.N,GND*%
X111220000Y-165100000D03*
%TD*%
D11*
%TO.P,R48,1*%
%TO.N,Net-(R48-Pad1)*%
X170180000Y-116840000D03*
D12*
%TO.P,R48,2*%
%TO.N,Net-(DS3-Pad7)*%
X170180000Y-106680000D03*
%TD*%
D20*
%TO.P,D5,1,K*%
%TO.N,/Dice1/D2*%
X83820000Y-147320000D03*
D21*
%TO.P,D5,2,A*%
%TO.N,Net-(D5-Pad2)*%
X93980000Y-147320000D03*
%TD*%
D11*
%TO.P,R17,1*%
%TO.N,/Dice3/D4Set*%
X213360000Y-142240000D03*
D12*
%TO.P,R17,2*%
%TO.N,GND*%
X223520000Y-142240000D03*
%TD*%
D20*
%TO.P,D12,1,K*%
%TO.N,/Dice1/D4*%
X185420000Y-152400000D03*
D21*
%TO.P,D12,2,A*%
%TO.N,Net-(D12-Pad2)*%
X195580000Y-152400000D03*
%TD*%
D11*
%TO.P,R64,1*%
%TO.N,Net-(R64-Pad1)*%
X271780000Y-116840000D03*
D12*
%TO.P,R64,2*%
%TO.N,Net-(DS5-Pad7)*%
X271780000Y-106680000D03*
%TD*%
D33*
%TO.P,C1,1*%
%TO.N,Net-(C1-Pad1)*%
X259080000Y-177800000D03*
D34*
%TO.P,C1,2*%
%TO.N,GND*%
X264080000Y-177800000D03*
%TD*%
D11*
%TO.P,R57,1*%
%TO.N,Net-(R57-Pad1)*%
X228600000Y-116840000D03*
D12*
%TO.P,R57,2*%
%TO.N,Net-(DS4-Pad6)*%
X228600000Y-106680000D03*
%TD*%
D11*
%TO.P,R6,1*%
%TO.N,Net-(R6-Pad1)*%
X55880000Y-116840000D03*
D12*
%TO.P,R6,2*%
%TO.N,Net-(DS1-Pad4)*%
X55880000Y-106680000D03*
%TD*%
D23*
%TO.P,C9,1*%
%TO.N,Net-(C9-Pad1)*%
X215900000Y-170180000D03*
%TO.P,C9,2*%
%TO.N,GND*%
X220900000Y-170180000D03*
%TD*%
D11*
%TO.P,R44,1*%
%TO.N,Net-(R44-Pad1)*%
X154940000Y-116840000D03*
D12*
%TO.P,R44,2*%
%TO.N,Net-(DS3-Pad4)*%
X154940000Y-106680000D03*
%TD*%
D11*
%TO.P,R13,1*%
%TO.N,+5V*%
X154940000Y-160020000D03*
D12*
%TO.P,R13,2*%
%TO.N,Net-(R13-Pad2)*%
X154940000Y-149860000D03*
%TD*%
D11*
%TO.P,R19,1*%
%TO.N,Net-(R18-Pad2)*%
X210820000Y-157480000D03*
D12*
%TO.P,R19,2*%
%TO.N,Net-(C10-Pad1)*%
X210820000Y-147320000D03*
%TD*%
D26*
%TO.P,J8,1,Pin_1*%
%TO.N,Net-(D17-Pad2)*%
X154940000Y-187960000D03*
D17*
%TO.P,J8,2,Pin_2*%
%TO.N,Net-(J8-Pad2)*%
X159540000Y-187960000D03*
%TD*%
D26*
%TO.P,J16,1,Pin_1*%
%TO.N,+5V*%
X99060000Y-190500000D03*
D17*
%TO.P,J16,2,Pin_2*%
%TO.N,Reset*%
X103660000Y-190500000D03*
%TD*%
D11*
%TO.P,R14,1*%
%TO.N,Net-(R13-Pad2)*%
X160020000Y-160020000D03*
D12*
%TO.P,R14,2*%
%TO.N,Net-(C8-Pad1)*%
X160020000Y-149860000D03*
%TD*%
D20*
%TO.P,D9,1,K*%
%TO.N,/Dice1/D3*%
X134620000Y-152400000D03*
D21*
%TO.P,D9,2,A*%
%TO.N,Net-(D9-Pad2)*%
X144780000Y-152400000D03*
%TD*%
D14*
%TO.P,U13,1,PE*%
%TO.N,Net-(U13-Pad1)*%
X232410000Y-169070000D03*
D15*
%TO.P,U13,2,Q4*%
%TO.N,unconnected-(U13-Pad2)*%
X234950000Y-169070000D03*
%TO.P,U13,3,J4*%
%TO.N,GND*%
X237490000Y-169070000D03*
%TO.P,U13,4,J1*%
X240030000Y-169070000D03*
%TO.P,U13,5,Cin*%
X242570000Y-169070000D03*
%TO.P,U13,6,Q1*%
%TO.N,Net-(D14-Pad2)*%
X245110000Y-169070000D03*
%TO.P,U13,7,Cout*%
%TO.N,unconnected-(U13-Pad7)*%
X247650000Y-169070000D03*
%TO.P,U13,8,VSS*%
%TO.N,GND*%
X250190000Y-169070000D03*
%TO.P,U13,9,B/D*%
%TO.N,+5V*%
X250190000Y-161130000D03*
%TO.P,U13,10,U/D*%
%TO.N,GND*%
X247650000Y-161130000D03*
%TO.P,U13,11,Q2*%
%TO.N,Net-(D15-Pad2)*%
X245110000Y-161130000D03*
%TO.P,U13,12,J2*%
%TO.N,+5V*%
X242570000Y-161130000D03*
%TO.P,U13,13,J3*%
X240030000Y-161130000D03*
%TO.P,U13,14,Q3*%
%TO.N,Net-(D16-Pad2)*%
X237490000Y-161130000D03*
%TO.P,U13,15,CK*%
%TO.N,Net-(U12-Pad3)*%
X234950000Y-161130000D03*
%TO.P,U13,16,VDD*%
%TO.N,+5V*%
X232410000Y-161130000D03*
%TD*%
D18*
%TO.P,U16,1,I1*%
%TO.N,Net-(IC2-Pad15)*%
X44435000Y-121930000D03*
D19*
%TO.P,U16,2,I2*%
%TO.N,Net-(IC2-Pad14)*%
X44435000Y-124470000D03*
%TO.P,U16,3,I3*%
%TO.N,Net-(IC2-Pad13)*%
X44435000Y-127010000D03*
%TO.P,U16,4,I4*%
%TO.N,Net-(IC2-Pad12)*%
X44435000Y-129550000D03*
%TO.P,U16,5,I5*%
%TO.N,Net-(IC2-Pad11)*%
X44435000Y-132090000D03*
%TO.P,U16,6,I6*%
%TO.N,Net-(IC2-Pad10)*%
X44435000Y-134630000D03*
%TO.P,U16,7,I7*%
%TO.N,Net-(IC2-Pad9)*%
X44435000Y-137170000D03*
%TO.P,U16,8,I8*%
%TO.N,Net-(IC1-Pad1)*%
X44435000Y-139710000D03*
%TO.P,U16,9,GND*%
%TO.N,GND*%
X44435000Y-142250000D03*
%TO.P,U16,10,COM*%
%TO.N,unconnected-(U16-Pad10)*%
X52055000Y-142250000D03*
%TO.P,U16,11,O8*%
%TO.N,Net-(R16-Pad1)*%
X52055000Y-139710000D03*
%TO.P,U16,12,O7*%
%TO.N,Net-(R11-Pad1)*%
X52055000Y-137170000D03*
%TO.P,U16,13,O6*%
%TO.N,Net-(R21-Pad1)*%
X52055000Y-134630000D03*
%TO.P,U16,14,O5*%
%TO.N,Net-(R6-Pad1)*%
X52055000Y-132090000D03*
%TO.P,U16,15,O4*%
%TO.N,Net-(R33-Pad1)*%
X52055000Y-129550000D03*
%TO.P,U16,16,O3*%
%TO.N,Net-(R32-Pad1)*%
X52055000Y-127010000D03*
%TO.P,U16,17,O2*%
%TO.N,Net-(R26-Pad1)*%
X52055000Y-124470000D03*
%TO.P,U16,18,O1*%
%TO.N,Net-(R31-Pad1)*%
X52055000Y-121930000D03*
%TD*%
D11*
%TO.P,R53,1*%
%TO.N,Net-(R53-Pad1)*%
X190500000Y-116840000D03*
D12*
%TO.P,R53,2*%
%TO.N,Net-(DS4-Pad5)*%
X190500000Y-106680000D03*
%TD*%
D11*
%TO.P,R61,1*%
%TO.N,Net-(R61-Pad1)*%
X256540000Y-116840000D03*
D12*
%TO.P,R61,2*%
%TO.N,Net-(DS5-Pad4)*%
X256540000Y-106680000D03*
%TD*%
D14*
%TO.P,U9,1,PE*%
%TO.N,/Dice1/D3R*%
X135890000Y-174150000D03*
D15*
%TO.P,U9,2,Q4*%
%TO.N,unconnected-(U9-Pad2)*%
X138430000Y-174150000D03*
%TO.P,U9,3,J4*%
%TO.N,GND*%
X140970000Y-174150000D03*
%TO.P,U9,4,J1*%
X143510000Y-174150000D03*
%TO.P,U9,5,Cin*%
X146050000Y-174150000D03*
%TO.P,U9,6,Q1*%
%TO.N,Net-(D8-Pad2)*%
X148590000Y-174150000D03*
%TO.P,U9,7,Cout*%
%TO.N,unconnected-(U9-Pad7)*%
X151130000Y-174150000D03*
%TO.P,U9,8,VSS*%
%TO.N,GND*%
X153670000Y-174150000D03*
%TO.P,U9,9,B/D*%
%TO.N,+5V*%
X153670000Y-166210000D03*
%TO.P,U9,10,U/D*%
%TO.N,GND*%
X151130000Y-166210000D03*
%TO.P,U9,11,Q2*%
%TO.N,Net-(D9-Pad2)*%
X148590000Y-166210000D03*
%TO.P,U9,12,J2*%
%TO.N,+5V*%
X146050000Y-166210000D03*
%TO.P,U9,13,J3*%
X143510000Y-166210000D03*
%TO.P,U9,14,Q3*%
%TO.N,Net-(D10-Pad2)*%
X140970000Y-166210000D03*
%TO.P,U9,15,CK*%
%TO.N,Net-(U8-Pad3)*%
X138430000Y-166210000D03*
%TO.P,U9,16,VDD*%
%TO.N,+5V*%
X135890000Y-166210000D03*
%TD*%
D27*
%TO.P,J13,1,Pin_1*%
%TO.N,+5V*%
X167386000Y-122301000D03*
D17*
%TO.P,J13,2,Pin_2*%
%TO.N,Net-(IC4-Pad3)*%
X162786000Y-122301000D03*
%TD*%
D20*
%TO.P,D17,1,K*%
%TO.N,Net-(D17-Pad1)*%
X114300000Y-177800000D03*
D21*
%TO.P,D17,2,A*%
%TO.N,Net-(D17-Pad2)*%
X124460000Y-177800000D03*
%TD*%
D22*
%TO.P,U8,1,GND*%
%TO.N,GND*%
X168920000Y-151140000D03*
D12*
%TO.P,U8,2,TR*%
%TO.N,Net-(C8-Pad1)*%
X168920000Y-153680000D03*
%TO.P,U8,3,Q*%
%TO.N,Net-(U8-Pad3)*%
X168920000Y-156220000D03*
%TO.P,U8,4,R*%
%TO.N,+5V*%
X168920000Y-158760000D03*
%TO.P,U8,5,CV*%
%TO.N,Net-(C7-Pad1)*%
X176540000Y-158760000D03*
%TO.P,U8,6,THR*%
%TO.N,Net-(C8-Pad1)*%
X176540000Y-156220000D03*
%TO.P,U8,7,DIS*%
%TO.N,Net-(R13-Pad2)*%
X176540000Y-153680000D03*
%TO.P,U8,8,VCC*%
%TO.N,+5V*%
X176540000Y-151140000D03*
%TD*%
D11*
%TO.P,R52,1*%
%TO.N,Net-(R52-Pad1)*%
X208280000Y-116840000D03*
D12*
%TO.P,R52,2*%
%TO.N,Net-(DS4-Pad4)*%
X208280000Y-106680000D03*
%TD*%
D11*
%TO.P,R39,1*%
%TO.N,Net-(R39-Pad1)*%
X119380000Y-116840000D03*
D12*
%TO.P,R39,2*%
%TO.N,Net-(DS2-Pad9)*%
X119380000Y-106680000D03*
%TD*%
D35*
%TO.P,DS1,1,K_E*%
%TO.N,Net-(DS1-Pad1)*%
X63500000Y-98630000D03*
D36*
%TO.P,DS1,2,K_D*%
%TO.N,Net-(DS1-Pad2)*%
X60960000Y-98630000D03*
%TO.P,DS1,3,COM_A_1*%
%TO.N,+10V*%
X58420000Y-98630000D03*
%TO.P,DS1,4,K_C*%
%TO.N,Net-(DS1-Pad4)*%
X55880000Y-98630000D03*
%TO.P,DS1,5,K_DP*%
%TO.N,Net-(DS1-Pad5)*%
X53340000Y-98630000D03*
%TO.P,DS1,6,K_B*%
%TO.N,Net-(DS1-Pad6)*%
X53340000Y-38530000D03*
%TO.P,DS1,7,K_A*%
%TO.N,Net-(DS1-Pad7)*%
X55880000Y-38530000D03*
%TO.P,DS1,8,COM_A_2*%
%TO.N,+10V*%
X58420000Y-38530000D03*
%TO.P,DS1,9,K_F*%
%TO.N,Net-(DS1-Pad9)*%
X60960000Y-38530000D03*
%TO.P,DS1,10,K_G*%
%TO.N,Net-(DS1-Pad10)*%
X63500000Y-38530000D03*
%TD*%
D35*
%TO.P,DS2,1,K_E*%
%TO.N,Net-(DS2-Pad1)*%
X114300000Y-98630000D03*
D36*
%TO.P,DS2,2,K_D*%
%TO.N,Net-(DS2-Pad2)*%
X111760000Y-98630000D03*
%TO.P,DS2,3,COM_A_1*%
%TO.N,+10V*%
X109220000Y-98630000D03*
%TO.P,DS2,4,K_C*%
%TO.N,Net-(DS2-Pad4)*%
X106680000Y-98630000D03*
%TO.P,DS2,5,K_DP*%
%TO.N,Net-(DS2-Pad5)*%
X104140000Y-98630000D03*
%TO.P,DS2,6,K_B*%
%TO.N,Net-(DS2-Pad6)*%
X104140000Y-38530000D03*
%TO.P,DS2,7,K_A*%
%TO.N,Net-(DS2-Pad7)*%
X106680000Y-38530000D03*
%TO.P,DS2,8,COM_A_2*%
%TO.N,+10V*%
X109220000Y-38530000D03*
%TO.P,DS2,9,K_F*%
%TO.N,Net-(DS2-Pad9)*%
X111760000Y-38530000D03*
%TO.P,DS2,10,K_G*%
%TO.N,Net-(DS2-Pad10)*%
X114300000Y-38530000D03*
%TD*%
D35*
%TO.P,DS4,1,K_E*%
%TO.N,Net-(DS4-Pad1)*%
X215900000Y-98630000D03*
D36*
%TO.P,DS4,2,K_D*%
%TO.N,Net-(DS4-Pad2)*%
X213360000Y-98630000D03*
%TO.P,DS4,3,COM_A_1*%
%TO.N,+10V*%
X210820000Y-98630000D03*
%TO.P,DS4,4,K_C*%
%TO.N,Net-(DS4-Pad4)*%
X208280000Y-98630000D03*
%TO.P,DS4,5,K_DP*%
%TO.N,Net-(DS4-Pad5)*%
X205740000Y-98630000D03*
%TO.P,DS4,6,K_B*%
%TO.N,Net-(DS4-Pad6)*%
X205740000Y-38530000D03*
%TO.P,DS4,7,K_A*%
%TO.N,Net-(DS4-Pad7)*%
X208280000Y-38530000D03*
%TO.P,DS4,8,COM_A_2*%
%TO.N,+10V*%
X210820000Y-38530000D03*
%TO.P,DS4,9,K_F*%
%TO.N,Net-(DS4-Pad9)*%
X213360000Y-38530000D03*
%TO.P,DS4,10,K_G*%
%TO.N,Net-(DS4-Pad10)*%
X215900000Y-38530000D03*
%TD*%
D35*
%TO.P,DS5,1,K_E*%
%TO.N,Net-(DS5-Pad1)*%
X266700000Y-98630000D03*
D36*
%TO.P,DS5,2,K_D*%
%TO.N,Net-(DS5-Pad2)*%
X264160000Y-98630000D03*
%TO.P,DS5,3,COM_A_1*%
%TO.N,+10V*%
X261620000Y-98630000D03*
%TO.P,DS5,4,K_C*%
%TO.N,Net-(DS5-Pad4)*%
X259080000Y-98630000D03*
%TO.P,DS5,5,K_DP*%
%TO.N,Net-(DS5-Pad5)*%
X256540000Y-98630000D03*
%TO.P,DS5,6,K_B*%
%TO.N,Net-(DS5-Pad6)*%
X256540000Y-38530000D03*
%TO.P,DS5,7,K_A*%
%TO.N,Net-(DS5-Pad7)*%
X259080000Y-38530000D03*
%TO.P,DS5,8,COM_A_2*%
%TO.N,+10V*%
X261620000Y-38530000D03*
%TO.P,DS5,9,K_F*%
%TO.N,Net-(DS5-Pad9)*%
X264160000Y-38530000D03*
%TO.P,DS5,10,K_G*%
%TO.N,Net-(DS5-Pad10)*%
X266700000Y-38530000D03*
%TD*%
D35*
%TO.P,DS3,1,K_E*%
%TO.N,Net-(DS3-Pad1)*%
X165100000Y-98630000D03*
D36*
%TO.P,DS3,2,K_D*%
%TO.N,Net-(DS3-Pad2)*%
X162560000Y-98630000D03*
%TO.P,DS3,3,COM_A_1*%
%TO.N,+10V*%
X160020000Y-98630000D03*
%TO.P,DS3,4,K_C*%
%TO.N,Net-(DS3-Pad4)*%
X157480000Y-98630000D03*
%TO.P,DS3,5,K_DP*%
%TO.N,Net-(DS3-Pad5)*%
X154940000Y-98630000D03*
%TO.P,DS3,6,K_B*%
%TO.N,Net-(DS3-Pad6)*%
X154940000Y-38530000D03*
%TO.P,DS3,7,K_A*%
%TO.N,Net-(DS3-Pad7)*%
X157480000Y-38530000D03*
%TO.P,DS3,8,COM_A_2*%
%TO.N,+10V*%
X160020000Y-38530000D03*
%TO.P,DS3,9,K_F*%
%TO.N,Net-(DS3-Pad9)*%
X162560000Y-38530000D03*
%TO.P,DS3,10,K_G*%
%TO.N,Net-(DS3-Pad10)*%
X165100000Y-38530000D03*
%TD*%
D37*
%TO.N,Net-(D1-Pad2)*%
X246280000Y-172720000D02*
X269240000Y-172720000D01*
X228600000Y-180340000D02*
X238660000Y-180340000D01*
X238660000Y-180340000D02*
X246280000Y-172720000D01*
%TO.N,Net-(J3-Pad1)*%
X274320000Y-187960000D02*
X272595480Y-189684520D01*
X272595480Y-189684520D02*
X253664520Y-189684520D01*
X253664520Y-189684520D02*
X251940000Y-187960000D01*
D38*
%TO.N,Net-(J8-Pad2)*%
X157675200Y-189824800D02*
X159540000Y-187960000D01*
X143922200Y-189824800D02*
X157675200Y-189824800D01*
X143471900Y-189374500D02*
X143922200Y-189824800D01*
X130665500Y-189374500D02*
X143471900Y-189374500D01*
X129540000Y-190500000D02*
X130665500Y-189374500D01*
%TO.N,Net-(R62-Pad1)*%
X261860300Y-117080300D02*
X261620000Y-116840000D01*
X261860300Y-124470000D02*
X261860300Y-117080300D01*
X260335000Y-124470000D02*
X261860300Y-124470000D01*
%TO.N,Net-(R60-Pad1)*%
X236439600Y-119160400D02*
X238760000Y-116840000D01*
X236439600Y-126142300D02*
X236439600Y-119160400D01*
X237089200Y-126791900D02*
X236439600Y-126142300D01*
X237182100Y-126791900D02*
X237089200Y-126791900D01*
X244635800Y-134245600D02*
X237182100Y-126791900D01*
X245655200Y-134245600D02*
X244635800Y-134245600D01*
X246410200Y-133490600D02*
X245655200Y-134245600D01*
X253638900Y-133490600D02*
X246410200Y-133490600D01*
X258809700Y-138661400D02*
X253638900Y-133490600D01*
X258809700Y-139710000D02*
X258809700Y-138661400D01*
X260335000Y-139710000D02*
X258809700Y-139710000D01*
%TO.N,Net-(R58-Pad1)*%
X249084300Y-119544300D02*
X246380000Y-116840000D01*
X252800900Y-119544300D02*
X249084300Y-119544300D01*
X258809700Y-125553100D02*
X252800900Y-119544300D01*
X258809700Y-137170000D02*
X258809700Y-125553100D01*
X260335000Y-137170000D02*
X258809700Y-137170000D01*
%TO.N,Net-(R55-Pad1)*%
X213350000Y-121930000D02*
X209535000Y-121930000D01*
X218440000Y-116840000D02*
X213350000Y-121930000D01*
%TO.N,Net-(R49-Pad1)*%
X172021500Y-120078500D02*
X175260000Y-116840000D01*
X166953600Y-120078500D02*
X172021500Y-120078500D01*
X157482100Y-129550000D02*
X166953600Y-120078500D01*
X151115000Y-129550000D02*
X157482100Y-129550000D01*
%TO.N,Net-(R48-Pad1)*%
X156124200Y-127010000D02*
X151115000Y-127010000D01*
X164897500Y-118236700D02*
X156124200Y-127010000D01*
X168783300Y-118236700D02*
X164897500Y-118236700D01*
X170180000Y-116840000D02*
X168783300Y-118236700D01*
%TO.N,Net-(R47-Pad1)*%
X160010000Y-121930000D02*
X165100000Y-116840000D01*
X151115000Y-121930000D02*
X160010000Y-121930000D01*
%TO.N,Net-(R46-Pad1)*%
X157401100Y-119458900D02*
X160020000Y-116840000D01*
X151594100Y-119458900D02*
X157401100Y-119458900D01*
X149589700Y-121463300D02*
X151594100Y-119458900D01*
X149589700Y-124470000D02*
X149589700Y-121463300D01*
X151115000Y-124470000D02*
X149589700Y-124470000D01*
%TO.N,Net-(R41-Pad1)*%
X116830000Y-129550000D02*
X107935000Y-129550000D01*
X129540000Y-116840000D02*
X116830000Y-129550000D01*
%TO.N,Net-(R40-Pad1)*%
X114290000Y-127010000D02*
X107935000Y-127010000D01*
X124460000Y-116840000D02*
X114290000Y-127010000D01*
%TO.N,Net-(R39-Pad1)*%
X114290000Y-121930000D02*
X107935000Y-121930000D01*
X119380000Y-116840000D02*
X114290000Y-121930000D01*
%TO.N,Net-(R31-Pad1)*%
X52055000Y-121930000D02*
X53580300Y-121930000D01*
X55105600Y-120404700D02*
X53580300Y-121930000D01*
X64251800Y-120404700D02*
X55105600Y-120404700D01*
X67816500Y-116840000D02*
X64251800Y-120404700D01*
X71120000Y-116840000D02*
X67816500Y-116840000D01*
%TO.N,Net-(IC8-Pad9)*%
X246530000Y-137170000D02*
X245270000Y-138430000D01*
X252715000Y-137170000D02*
X246530000Y-137170000D01*
%TO.N,Net-(IC8-Pad10)*%
X246530000Y-134630000D02*
X252715000Y-134630000D01*
X245270000Y-135890000D02*
X246530000Y-134630000D01*
%TO.N,Net-(IC8-Pad11)*%
X246530000Y-132090000D02*
X245270000Y-133350000D01*
X252715000Y-132090000D02*
X246530000Y-132090000D01*
%TO.N,Net-(IC8-Pad12)*%
X246530000Y-129550000D02*
X245270000Y-130810000D01*
X252715000Y-129550000D02*
X246530000Y-129550000D01*
%TO.N,Net-(IC8-Pad13)*%
X246530000Y-127010000D02*
X245270000Y-128270000D01*
X252715000Y-127010000D02*
X246530000Y-127010000D01*
%TO.N,Net-(IC8-Pad14)*%
X246530000Y-124470000D02*
X245270000Y-125730000D01*
X252715000Y-124470000D02*
X246530000Y-124470000D01*
%TO.N,Net-(IC8-Pad15)*%
X246530000Y-121930000D02*
X245270000Y-123190000D01*
X252715000Y-121930000D02*
X246530000Y-121930000D01*
%TO.N,Net-(IC7-Pad1)*%
X250648600Y-141776400D02*
X252715000Y-139710000D01*
X250648600Y-142526400D02*
X250648600Y-141776400D01*
X233680100Y-159494900D02*
X250648600Y-142526400D01*
X233680100Y-169448700D02*
X233680100Y-159494900D01*
X231137300Y-171991500D02*
X233680100Y-169448700D01*
X227909200Y-171991500D02*
X231137300Y-171991500D01*
X219882600Y-180018100D02*
X227909200Y-171991500D01*
X215122600Y-180018100D02*
X219882600Y-180018100D01*
X207368400Y-187772300D02*
X215122600Y-180018100D01*
X206282600Y-187772300D02*
X207368400Y-187772300D01*
X205360300Y-186850000D02*
X206282600Y-187772300D01*
X204470000Y-186850000D02*
X205360300Y-186850000D01*
%TO.N,Net-(IC7-Pad3)*%
X273840000Y-130020000D02*
X274320000Y-129540000D01*
X266700000Y-130020000D02*
X273840000Y-130020000D01*
%TO.N,Net-(IC6-Pad13)*%
X200389700Y-127430300D02*
X200389700Y-127010000D01*
X197010000Y-130810000D02*
X200389700Y-127430300D01*
X201915000Y-127010000D02*
X200389700Y-127010000D01*
%TO.N,Net-(IC6-Pad14)*%
X200389700Y-124890300D02*
X200389700Y-124470000D01*
X197010000Y-128270000D02*
X200389700Y-124890300D01*
X201915000Y-124470000D02*
X200389700Y-124470000D01*
%TO.N,Net-(IC6-Pad15)*%
X200389700Y-122350300D02*
X200389700Y-121930000D01*
X197010000Y-125730000D02*
X200389700Y-122350300D01*
X201915000Y-121930000D02*
X200389700Y-121930000D01*
%TO.N,Net-(IC5-Pad9)*%
X141969700Y-137590300D02*
X138590000Y-140970000D01*
X141969700Y-137170000D02*
X141969700Y-137590300D01*
X143495000Y-137170000D02*
X141969700Y-137170000D01*
%TO.N,Net-(IC5-Pad14)*%
X141969700Y-124890300D02*
X138590000Y-128270000D01*
X141969700Y-124470000D02*
X141969700Y-124890300D01*
X143495000Y-124470000D02*
X141969700Y-124470000D01*
%TO.N,Net-(IC5-Pad15)*%
X141969700Y-122350300D02*
X138590000Y-125730000D01*
X141969700Y-121930000D02*
X141969700Y-122350300D01*
X143495000Y-121930000D02*
X141969700Y-121930000D01*
%TO.N,Net-(IC4-Pad1)*%
X172049400Y-124080300D02*
X172939700Y-123190000D01*
X163683800Y-124080300D02*
X172049400Y-124080300D01*
X151864100Y-135900000D02*
X163683800Y-124080300D01*
X148830300Y-135900000D02*
X151864100Y-135900000D01*
X145020300Y-139710000D02*
X148830300Y-135900000D01*
X143495000Y-139710000D02*
X145020300Y-139710000D01*
X173830000Y-123190000D02*
X172939700Y-123190000D01*
%TO.N,Net-(IC3-Pad9)*%
X98789700Y-137590300D02*
X95410000Y-140970000D01*
X98789700Y-137170000D02*
X98789700Y-137590300D01*
X100315000Y-137170000D02*
X98789700Y-137170000D01*
%TO.N,Net-(IC3-Pad10)*%
X98789700Y-135050300D02*
X95410000Y-138430000D01*
X98789700Y-134630000D02*
X98789700Y-135050300D01*
X100315000Y-134630000D02*
X98789700Y-134630000D01*
%TO.N,Net-(IC3-Pad11)*%
X98789700Y-132510300D02*
X95410000Y-135890000D01*
X98789700Y-132090000D02*
X98789700Y-132510300D01*
X100315000Y-132090000D02*
X98789700Y-132090000D01*
%TO.N,Net-(IC3-Pad12)*%
X98789700Y-129970300D02*
X95410000Y-133350000D01*
X98789700Y-129550000D02*
X98789700Y-129970300D01*
X100315000Y-129550000D02*
X98789700Y-129550000D01*
%TO.N,Net-(IC3-Pad13)*%
X98789700Y-127430300D02*
X95410000Y-130810000D01*
X98789700Y-127010000D02*
X98789700Y-127430300D01*
X100315000Y-127010000D02*
X98789700Y-127010000D01*
%TO.N,Net-(IC3-Pad14)*%
X98789700Y-124890300D02*
X95410000Y-128270000D01*
X98789700Y-124470000D02*
X98789700Y-124890300D01*
X100315000Y-124470000D02*
X98789700Y-124470000D01*
%TO.N,Net-(IC3-Pad15)*%
X98789700Y-122350300D02*
X95410000Y-125730000D01*
X98789700Y-121930000D02*
X98789700Y-122350300D01*
X100315000Y-121930000D02*
X98789700Y-121930000D01*
%TO.N,Net-(IC2-Pad11)*%
X42909700Y-132510300D02*
X39530000Y-135890000D01*
X42909700Y-132090000D02*
X42909700Y-132510300D01*
X44435000Y-132090000D02*
X42909700Y-132090000D01*
%TO.N,Net-(IC2-Pad12)*%
X42909700Y-129970300D02*
X39530000Y-133350000D01*
X42909700Y-129550000D02*
X42909700Y-129970300D01*
X44435000Y-129550000D02*
X42909700Y-129550000D01*
%TO.N,Net-(IC2-Pad13)*%
X42909700Y-127430300D02*
X39530000Y-130810000D01*
X42909700Y-127010000D02*
X42909700Y-127430300D01*
X44435000Y-127010000D02*
X42909700Y-127010000D01*
%TO.N,Net-(IC2-Pad15)*%
X42909700Y-122350300D02*
X39530000Y-125730000D01*
X42909700Y-121930000D02*
X42909700Y-122350300D01*
X44435000Y-121930000D02*
X42909700Y-121930000D01*
%TO.N,Net-(DS4-Pad5)*%
X199675300Y-98630000D02*
X191625300Y-106680000D01*
X205740000Y-98630000D02*
X199675300Y-98630000D01*
X190500000Y-106680000D02*
X191625300Y-106680000D01*
D37*
%TO.N,+10V*%
X109220000Y-98630000D02*
X109220000Y-97429600D01*
X59682900Y-99892900D02*
X58420000Y-98630000D01*
X65978700Y-99892900D02*
X59682900Y-99892900D01*
X68442000Y-97429600D02*
X65978700Y-99892900D01*
X109220000Y-97429600D02*
X68442000Y-97429600D01*
X158819600Y-97429600D02*
X109220000Y-97429600D01*
X160020000Y-98630000D02*
X158819600Y-97429600D01*
X110466300Y-37283700D02*
X109220000Y-38530000D01*
X158773700Y-37283700D02*
X110466300Y-37283700D01*
X160020000Y-38530000D02*
X158773700Y-37283700D01*
X59630700Y-37319300D02*
X58420000Y-38530000D01*
X108009300Y-37319300D02*
X59630700Y-37319300D01*
X109220000Y-38530000D02*
X108009300Y-37319300D01*
X209619600Y-37329600D02*
X210820000Y-38530000D01*
X161220400Y-37329600D02*
X209619600Y-37329600D01*
X160020000Y-38530000D02*
X161220400Y-37329600D01*
X161690000Y-96960000D02*
X209150000Y-96960000D01*
X160020000Y-98630000D02*
X161690000Y-96960000D01*
X209150000Y-96960000D02*
X210820000Y-98630000D01*
X212020300Y-94089700D02*
X212020300Y-39730300D01*
X209150000Y-96960000D02*
X212020300Y-94089700D01*
X210820000Y-38530000D02*
X212020300Y-39730300D01*
X260419700Y-39730300D02*
X261620000Y-38530000D01*
X212020300Y-39730300D02*
X260419700Y-39730300D01*
D38*
%TO.N,Reset*%
X77630000Y-128270000D02*
X72230000Y-128270000D01*
X80170000Y-130810000D02*
X77630000Y-128270000D01*
X227865700Y-175260000D02*
X238760000Y-175260000D01*
X221998900Y-181126800D02*
X227865700Y-175260000D01*
X217813200Y-181126800D02*
X221998900Y-181126800D01*
X212090000Y-186850000D02*
X217813200Y-181126800D01*
X206862600Y-192077400D02*
X212090000Y-186850000D01*
X105237400Y-192077400D02*
X206862600Y-192077400D01*
X103660000Y-190500000D02*
X105237400Y-192077400D01*
%TO.N,Net-(D18-Pad2)*%
X120648300Y-185266400D02*
X123034700Y-182880000D01*
X99775400Y-185266400D02*
X120648300Y-185266400D01*
X98930300Y-184421300D02*
X99775400Y-185266400D01*
X98930300Y-184140000D02*
X98930300Y-184421300D01*
X97805000Y-184140000D02*
X98930300Y-184140000D01*
X124460000Y-182880000D02*
X123034700Y-182880000D01*
X146969700Y-182880000D02*
X125885300Y-182880000D01*
X153445000Y-189355300D02*
X146969700Y-182880000D01*
X156198100Y-189355300D02*
X153445000Y-189355300D01*
X158969800Y-186583600D02*
X156198100Y-189355300D01*
X163723600Y-186583600D02*
X158969800Y-186583600D01*
X165100000Y-187960000D02*
X163723600Y-186583600D01*
X124460000Y-182880000D02*
X125885300Y-182880000D01*
%TO.N,Net-(D17-Pad2)*%
X117954700Y-182880000D02*
X114300000Y-182880000D01*
X123034700Y-177800000D02*
X117954700Y-182880000D01*
X124460000Y-177800000D02*
X123034700Y-177800000D01*
X144780000Y-177800000D02*
X124460000Y-177800000D01*
X154940000Y-187960000D02*
X144780000Y-177800000D01*
%TO.N,Net-(D17-Pad1)*%
X96390300Y-183858700D02*
X96390300Y-184140000D01*
X102449000Y-177800000D02*
X96390300Y-183858700D01*
X114300000Y-177800000D02*
X102449000Y-177800000D01*
X95265000Y-184140000D02*
X96390300Y-184140000D01*
%TO.N,D5Hold*%
X205722500Y-185562500D02*
X207010000Y-186850000D01*
X194137500Y-185562500D02*
X205722500Y-185562500D01*
X193010000Y-186690000D02*
X194137500Y-185562500D01*
%TO.N,Net-(U13-Pad1)*%
X232410000Y-169070000D02*
X231519700Y-169070000D01*
X190325400Y-184294600D02*
X187930000Y-186690000D01*
X207964800Y-184294600D02*
X190325400Y-184294600D01*
X214515400Y-177744000D02*
X207964800Y-184294600D01*
X220343200Y-177744000D02*
X214515400Y-177744000D01*
X229017200Y-169070000D02*
X220343200Y-177744000D01*
X231519700Y-169070000D02*
X229017200Y-169070000D01*
%TO.N,Net-(C11-Pad1)*%
X264160000Y-166816000D02*
X264160000Y-152400000D01*
X263181300Y-167794700D02*
X264160000Y-166816000D01*
X262900000Y-167794700D02*
X263181300Y-167794700D01*
X262900000Y-168920000D02*
X262900000Y-167794700D01*
%TO.N,Net-(U12-Pad3)*%
X240200000Y-166380000D02*
X234950000Y-161130000D01*
X254154700Y-166380000D02*
X240200000Y-166380000D01*
X255280000Y-166380000D02*
X254154700Y-166380000D01*
%TO.N,Net-(C9-Pad1)*%
X228754700Y-157325300D02*
X228754700Y-156220000D01*
X215900000Y-170180000D02*
X228754700Y-157325300D01*
X229880000Y-156220000D02*
X228754700Y-156220000D01*
%TO.N,Net-(U10-Pad3)*%
X196680000Y-153680000D02*
X222260000Y-153680000D01*
X184150000Y-166210000D02*
X196680000Y-153680000D01*
%TO.N,Net-(U8-Pad3)*%
X148420000Y-156220000D02*
X138430000Y-166210000D01*
X168920000Y-156220000D02*
X148420000Y-156220000D01*
%TO.N,Net-(U6-Pad3)*%
X115580000Y-153680000D02*
X114454700Y-153680000D01*
X82394600Y-160974600D02*
X85090000Y-163670000D01*
X82394600Y-156218700D02*
X82394600Y-160974600D01*
X83346600Y-155266700D02*
X82394600Y-156218700D01*
X112868000Y-155266700D02*
X83346600Y-155266700D01*
X114454700Y-153680000D02*
X112868000Y-155266700D01*
%TO.N,/Dice1/D4R*%
X181610000Y-174150000D02*
X180719700Y-174150000D01*
X179490500Y-175379200D02*
X180719700Y-174150000D01*
X89617300Y-175379200D02*
X179490500Y-175379200D01*
X86852700Y-178143800D02*
X89617300Y-175379200D01*
X75243800Y-178143800D02*
X86852700Y-178143800D01*
X73630000Y-176530000D02*
X75243800Y-178143800D01*
%TO.N,/Dice1/D3R*%
X135890000Y-174150000D02*
X134999700Y-174150000D01*
X89572700Y-174150000D02*
X134999700Y-174150000D01*
X86029300Y-177693400D02*
X89572700Y-174150000D01*
X77333400Y-177693400D02*
X86029300Y-177693400D01*
X76170000Y-176530000D02*
X77333400Y-177693400D01*
%TO.N,Net-(U3-Pad1)*%
X34434600Y-175184900D02*
X31750000Y-172500300D01*
X34434600Y-178312000D02*
X34434600Y-175184900D01*
X36039800Y-179917200D02*
X34434600Y-178312000D01*
X66857200Y-179917200D02*
X36039800Y-179917200D01*
X71090000Y-184150000D02*
X66857200Y-179917200D01*
X31750000Y-171610000D02*
X31750000Y-172500300D01*
%TO.N,/Dice1/D4Hold*%
X177629400Y-128270000D02*
X181770000Y-128270000D01*
X171816200Y-134083200D02*
X177629400Y-128270000D01*
X171816200Y-135427700D02*
X171816200Y-134083200D01*
X169342400Y-137901500D02*
X171816200Y-135427700D01*
X159110100Y-137901500D02*
X169342400Y-137901500D01*
X146967800Y-150043800D02*
X159110100Y-137901500D01*
X132931100Y-150043800D02*
X146967800Y-150043800D01*
X123744200Y-159230700D02*
X132931100Y-150043800D01*
X109043400Y-159230700D02*
X123744200Y-159230700D01*
X99519800Y-168754300D02*
X109043400Y-159230700D01*
X72549800Y-168754300D02*
X99519800Y-168754300D01*
X70464400Y-170839700D02*
X72549800Y-168754300D01*
X57977100Y-170839700D02*
X70464400Y-170839700D01*
X49871000Y-178945800D02*
X57977100Y-170839700D01*
X42663900Y-178945800D02*
X49871000Y-178945800D01*
X41910000Y-178191900D02*
X42663900Y-178945800D01*
X41910000Y-177468400D02*
X41910000Y-178191900D01*
X41071500Y-176629900D02*
X41910000Y-177468400D01*
X39270100Y-176629900D02*
X41071500Y-176629900D01*
X38100000Y-177800000D02*
X39270100Y-176629900D01*
%TO.N,/Dice1/D4Latch*%
X182586200Y-139833800D02*
X189070000Y-133350000D01*
X161948900Y-139833800D02*
X182586200Y-139833800D01*
X147957300Y-153825400D02*
X161948900Y-139833800D01*
X130253000Y-153825400D02*
X147957300Y-153825400D01*
X122208100Y-161870300D02*
X130253000Y-153825400D01*
X108868600Y-161870300D02*
X122208100Y-161870300D01*
X101534200Y-169204700D02*
X108868600Y-161870300D01*
X75506000Y-169204700D02*
X101534200Y-169204700D01*
X73420600Y-171290100D02*
X75506000Y-169204700D01*
X60920200Y-171290100D02*
X73420600Y-171290100D01*
X52814100Y-179396200D02*
X60920200Y-171290100D01*
X42236200Y-179396200D02*
X52814100Y-179396200D01*
X40640000Y-177800000D02*
X42236200Y-179396200D01*
%TO.N,/Dice1/D3Latch*%
X129000400Y-134999600D02*
X130650000Y-133350000D01*
X129000400Y-137241500D02*
X129000400Y-134999600D01*
X116516500Y-149725400D02*
X129000400Y-137241500D01*
X115194400Y-149725400D02*
X116516500Y-149725400D01*
X110439700Y-154480100D02*
X115194400Y-149725400D01*
X83377800Y-154480100D02*
X110439700Y-154480100D01*
X81620400Y-156237500D02*
X83377800Y-154480100D01*
X81620400Y-158409900D02*
X81620400Y-156237500D01*
X70409300Y-169621000D02*
X81620400Y-158409900D01*
X54064900Y-169621000D02*
X70409300Y-169621000D01*
X48512000Y-175173900D02*
X54064900Y-169621000D01*
X45806100Y-175173900D02*
X48512000Y-175173900D01*
X43180000Y-177800000D02*
X45806100Y-175173900D01*
%TO.N,/Dice1/D3Hold*%
X55895700Y-170164300D02*
X48260000Y-177800000D01*
X70502900Y-170164300D02*
X55895700Y-170164300D01*
X74795700Y-165871500D02*
X70502900Y-170164300D01*
X100201200Y-165871500D02*
X74795700Y-165871500D01*
X108592900Y-157479800D02*
X100201200Y-165871500D01*
X123531800Y-157479800D02*
X108592900Y-157479800D01*
X132217300Y-148794300D02*
X123531800Y-157479800D01*
X146602700Y-148794300D02*
X132217300Y-148794300D01*
X154750300Y-140646700D02*
X146602700Y-148794300D01*
X154750300Y-136044600D02*
X154750300Y-140646700D01*
X165064900Y-125730000D02*
X154750300Y-136044600D01*
X173830000Y-125730000D02*
X165064900Y-125730000D01*
%TO.N,Net-(IC2-Pad5)*%
X28587200Y-136352800D02*
X31590000Y-133350000D01*
X28587200Y-175907200D02*
X28587200Y-136352800D01*
X38100000Y-185420000D02*
X28587200Y-175907200D01*
%TO.N,Net-(C3-Pad1)*%
X66040000Y-145925300D02*
X66040000Y-167640000D01*
X67320000Y-144645300D02*
X66040000Y-145925300D01*
X67320000Y-143520000D02*
X67320000Y-144645300D01*
%TO.N,Net-(C12-Pad1)*%
X259234700Y-163840000D02*
X255280000Y-163840000D01*
X261774700Y-166380000D02*
X259234700Y-163840000D01*
X262900000Y-166380000D02*
X261774700Y-166380000D01*
%TO.N,Net-(R23-Pad2)*%
X284480000Y-134620000D02*
X283354700Y-134620000D01*
X278274700Y-139700000D02*
X283354700Y-134620000D01*
X274320000Y-139700000D02*
X278274700Y-139700000D01*
%TO.N,Net-(C10-Pad1)*%
X210820000Y-147320000D02*
X211945300Y-147320000D01*
X215765300Y-151140000D02*
X222260000Y-151140000D01*
X211945300Y-147320000D02*
X215765300Y-151140000D01*
%TO.N,Net-(R18-Pad2)*%
X222696000Y-157480000D02*
X210820000Y-157480000D01*
X228754700Y-151421300D02*
X222696000Y-157480000D01*
X228754700Y-151140000D02*
X228754700Y-151421300D01*
X229880000Y-151140000D02*
X228754700Y-151140000D01*
%TO.N,/Dice3/D4Set*%
X212100000Y-140980000D02*
X213360000Y-142240000D01*
X198300900Y-140980000D02*
X212100000Y-140980000D01*
X189780500Y-132459600D02*
X198300900Y-140980000D01*
X183419600Y-132459600D02*
X189780500Y-132459600D01*
X181770000Y-130810000D02*
X183419600Y-132459600D01*
X182673400Y-129906600D02*
X181770000Y-130810000D01*
X182673400Y-127910500D02*
X182673400Y-129906600D01*
X182096900Y-127334000D02*
X182673400Y-127910500D01*
X165406000Y-127334000D02*
X182096900Y-127334000D01*
X163200000Y-129540000D02*
X165406000Y-127334000D01*
%TO.N,Net-(C8-Pad1)*%
X164965300Y-153680000D02*
X161145300Y-149860000D01*
X168920000Y-153680000D02*
X164965300Y-153680000D01*
X160020000Y-149860000D02*
X161145300Y-149860000D01*
%TO.N,Net-(R13-Pad2)*%
X169356000Y-160020000D02*
X160020000Y-160020000D01*
X175414700Y-153961300D02*
X169356000Y-160020000D01*
X175414700Y-153680000D02*
X175414700Y-153961300D01*
X176540000Y-153680000D02*
X175414700Y-153680000D01*
%TO.N,Net-(IC4-Pad3)*%
X169580000Y-132520000D02*
X173830000Y-128270000D01*
X169580000Y-136000000D02*
X169580000Y-132520000D01*
%TO.N,Net-(C6-Pad1)*%
X119534700Y-151140000D02*
X115580000Y-151140000D01*
X122074700Y-153680000D02*
X119534700Y-151140000D01*
X123200000Y-153680000D02*
X122074700Y-153680000D01*
%TO.N,/Dice1/D2Set*%
X83820000Y-123375700D02*
X83820000Y-116840000D01*
X79547900Y-127647800D02*
X83820000Y-123375700D01*
X80170000Y-128270000D02*
X79547900Y-127647800D01*
X63600400Y-127379600D02*
X61440000Y-129540000D01*
X79279600Y-127379600D02*
X63600400Y-127379600D01*
X79547900Y-127647800D02*
X79279600Y-127379600D01*
%TO.N,Net-(C4-Pad1)*%
X63654700Y-138440000D02*
X59700000Y-138440000D01*
X66194700Y-140980000D02*
X63654700Y-138440000D01*
X66757400Y-140980000D02*
X66194700Y-140980000D01*
X66757400Y-140980000D02*
X67320000Y-140980000D01*
X67454700Y-155229400D02*
X68580000Y-156354700D01*
X67454700Y-148582700D02*
X67454700Y-155229400D01*
X68451400Y-147586000D02*
X67454700Y-148582700D01*
X68451400Y-142955400D02*
X68451400Y-147586000D01*
X67601300Y-142105300D02*
X68451400Y-142955400D01*
X67320000Y-142105300D02*
X67601300Y-142105300D01*
X67320000Y-140980000D02*
X67320000Y-142105300D01*
X68580000Y-157480000D02*
X68580000Y-156354700D01*
%TO.N,Net-(IC1-Pad3)*%
X63595200Y-121920000D02*
X61440000Y-121920000D01*
X65025700Y-120489500D02*
X63595200Y-121920000D01*
X67127200Y-120489500D02*
X65025700Y-120489500D01*
X72230000Y-125592300D02*
X67127200Y-120489500D01*
X72230000Y-125730000D02*
X72230000Y-125592300D01*
%TO.N,/Dice1/Roll*%
X95265000Y-176520000D02*
X95265000Y-177645300D01*
X94139700Y-178770600D02*
X94139700Y-189079500D01*
X95265000Y-177645300D02*
X94139700Y-178770600D01*
X108615200Y-189079500D02*
X94139700Y-189079500D01*
X111161100Y-191625400D02*
X108615200Y-189079500D01*
X174134600Y-191625400D02*
X111161100Y-191625400D01*
X175260000Y-190500000D02*
X174134600Y-191625400D01*
X191740000Y-190500000D02*
X175260000Y-190500000D01*
X195550000Y-186690000D02*
X191740000Y-190500000D01*
X92860500Y-189079500D02*
X91440000Y-190500000D01*
X94139700Y-189079500D02*
X92860500Y-189079500D01*
X52188400Y-191888400D02*
X45720000Y-185420000D01*
X90051600Y-191888400D02*
X52188400Y-191888400D01*
X91440000Y-190500000D02*
X90051600Y-191888400D01*
D37*
%TO.N,+5V*%
X143510000Y-166210000D02*
X146050000Y-166210000D01*
X240030000Y-161130000D02*
X242570000Y-161130000D01*
X249134700Y-162185300D02*
X250190000Y-161130000D01*
X243625300Y-162185300D02*
X249134700Y-162185300D01*
X242570000Y-161130000D02*
X243625300Y-162185300D01*
X274320000Y-134620000D02*
X266700000Y-134620000D01*
X251610400Y-162550400D02*
X250190000Y-161130000D01*
X260399300Y-162550400D02*
X251610400Y-162550400D01*
X261649700Y-161300000D02*
X260399300Y-162550400D01*
X262900000Y-161300000D02*
X261649700Y-161300000D01*
X189230000Y-166210000D02*
X191770000Y-166210000D01*
X173830000Y-135890000D02*
X173830000Y-133350000D01*
X133510000Y-128270000D02*
X130650000Y-128270000D01*
X138590000Y-123190000D02*
X133510000Y-128270000D01*
X90330000Y-128270000D02*
X87470000Y-128270000D01*
X95410000Y-123190000D02*
X90330000Y-128270000D01*
X87470000Y-130810000D02*
X87470000Y-128270000D01*
X31590000Y-130810000D02*
X31590000Y-128270000D01*
X34450000Y-128270000D02*
X39530000Y-123190000D01*
X31590000Y-128270000D02*
X34450000Y-128270000D01*
X183990000Y-123190000D02*
X181770000Y-123190000D01*
X189070000Y-128270000D02*
X183990000Y-123190000D01*
X191930000Y-128270000D02*
X189070000Y-128270000D01*
X197010000Y-123190000D02*
X191930000Y-128270000D01*
X214630000Y-186850000D02*
X217170000Y-186850000D01*
X241149600Y-185269600D02*
X238760000Y-182880000D01*
X266829600Y-185269600D02*
X241149600Y-185269600D01*
X269520000Y-187960000D02*
X266829600Y-185269600D01*
X67320000Y-135900000D02*
X67320000Y-134649700D01*
X67320000Y-130810000D02*
X67320000Y-134649700D01*
X72230000Y-130810000D02*
X67320000Y-130810000D01*
X67310000Y-130810000D02*
X66040000Y-129540000D01*
X67320000Y-130810000D02*
X67310000Y-130810000D01*
X152636700Y-162323300D02*
X152636700Y-165176700D01*
X154940000Y-160020000D02*
X152636700Y-162323300D01*
X147083300Y-165176700D02*
X152636700Y-165176700D01*
X146050000Y-166210000D02*
X147083300Y-165176700D01*
X152636700Y-165176700D02*
X153670000Y-166210000D01*
X198362800Y-164857200D02*
X205740000Y-157480000D01*
X198362800Y-165182800D02*
X198362800Y-164857200D01*
X192797200Y-165182800D02*
X198362800Y-165182800D01*
X191770000Y-166210000D02*
X192797200Y-165182800D01*
X198362800Y-165182800D02*
X199390000Y-166210000D01*
X42955700Y-164715700D02*
X41910000Y-163670000D01*
X48484300Y-164715700D02*
X42955700Y-164715700D01*
X49530000Y-163670000D02*
X48484300Y-164715700D01*
X41910000Y-163670000D02*
X39370000Y-163670000D01*
X42066100Y-120653900D02*
X39530000Y-123190000D01*
X47765600Y-120653900D02*
X42066100Y-120653900D01*
X50311700Y-123200000D02*
X47765600Y-120653900D01*
X60598100Y-123200000D02*
X50311700Y-123200000D01*
X60843000Y-123444900D02*
X60598100Y-123200000D01*
X64515100Y-123444900D02*
X60843000Y-123444900D01*
X66040000Y-121920000D02*
X64515100Y-123444900D01*
X189070000Y-130810000D02*
X189070000Y-128270000D01*
X217170000Y-178910000D02*
X219710000Y-178910000D01*
X207000000Y-156220000D02*
X205740000Y-157480000D01*
X222260000Y-156220000D02*
X207000000Y-156220000D01*
X240190000Y-125730000D02*
X245270000Y-120650000D01*
X237330000Y-125730000D02*
X240190000Y-125730000D01*
X156200000Y-158760000D02*
X154940000Y-160020000D01*
X168920000Y-158760000D02*
X156200000Y-158760000D01*
X72230000Y-133350000D02*
X80170000Y-133350000D01*
X82710000Y-130810000D02*
X87470000Y-130810000D01*
X80170000Y-133350000D02*
X82710000Y-130810000D01*
X92710000Y-163670000D02*
X90170000Y-163670000D01*
X83566600Y-164686600D02*
X82550000Y-163670000D01*
X89153400Y-164686600D02*
X83566600Y-164686600D01*
X90170000Y-163670000D02*
X89153400Y-164686600D01*
X107780000Y-156220000D02*
X100330000Y-163670000D01*
X115580000Y-156220000D02*
X107780000Y-156220000D01*
X93726600Y-164686600D02*
X92710000Y-163670000D01*
X99313400Y-164686600D02*
X93726600Y-164686600D01*
X100330000Y-163670000D02*
X99313400Y-164686600D01*
D38*
%TO.N,Net-(DS5-Pad9)*%
X266700000Y-106680000D02*
X266700000Y-105554700D01*
X267775300Y-104479400D02*
X266700000Y-105554700D01*
X267775300Y-42145300D02*
X267775300Y-104479400D01*
X264160000Y-38530000D02*
X267775300Y-42145300D01*
%TO.N,Net-(DS5-Pad7)*%
X271780000Y-45130800D02*
X271780000Y-106680000D01*
X265430000Y-38780800D02*
X271780000Y-45130800D01*
X265430000Y-38253700D02*
X265430000Y-38780800D01*
X264620500Y-37444200D02*
X265430000Y-38253700D01*
X260165800Y-37444200D02*
X264620500Y-37444200D01*
X259080000Y-38530000D02*
X260165800Y-37444200D01*
%TO.N,Net-(DS5-Pad5)*%
X247935300Y-98630000D02*
X239885300Y-106680000D01*
X256540000Y-98630000D02*
X247935300Y-98630000D01*
X238760000Y-106680000D02*
X239885300Y-106680000D01*
%TO.N,Net-(DS5-Pad2)*%
X253710600Y-105554700D02*
X252585300Y-106680000D01*
X257235300Y-105554700D02*
X253710600Y-105554700D01*
X264160000Y-98630000D02*
X257235300Y-105554700D01*
X251460000Y-106680000D02*
X252585300Y-106680000D01*
%TO.N,Net-(DS5-Pad1)*%
X249853900Y-104331400D02*
X247505300Y-106680000D01*
X257483700Y-104331400D02*
X249853900Y-104331400D01*
X262890000Y-98925100D02*
X257483700Y-104331400D01*
X262890000Y-98361700D02*
X262890000Y-98925100D01*
X263720100Y-97531600D02*
X262890000Y-98361700D01*
X264660700Y-97531600D02*
X263720100Y-97531600D01*
X265624700Y-98495600D02*
X264660700Y-97531600D01*
X265624700Y-98630000D02*
X265624700Y-98495600D01*
X266700000Y-98630000D02*
X265624700Y-98630000D01*
X246380000Y-106680000D02*
X247505300Y-106680000D01*
%TO.N,/Dice3/D4Q*%
X199549300Y-139710000D02*
X200389700Y-139710000D01*
X191539700Y-131700400D02*
X199549300Y-139710000D01*
X187740400Y-131700400D02*
X191539700Y-131700400D01*
X181770000Y-125730000D02*
X187740400Y-131700400D01*
X201915000Y-139710000D02*
X200389700Y-139710000D01*
%TO.N,Net-(DS4-Pad1)*%
X200370600Y-105554700D02*
X199245300Y-106680000D01*
X208034500Y-105554700D02*
X200370600Y-105554700D01*
X214824700Y-98764500D02*
X208034500Y-105554700D01*
X214824700Y-98630000D02*
X214824700Y-98764500D01*
X215900000Y-98630000D02*
X214824700Y-98630000D01*
X198120000Y-106680000D02*
X199245300Y-106680000D01*
%TO.N,Net-(DS3-Pad5)*%
X146335300Y-98630000D02*
X138285300Y-106680000D01*
X154940000Y-98630000D02*
X146335300Y-98630000D01*
X137160000Y-106680000D02*
X138285300Y-106680000D01*
%TO.N,Net-(DS3-Pad2)*%
X152110600Y-105554700D02*
X150985300Y-106680000D01*
X155635300Y-105554700D02*
X152110600Y-105554700D01*
X162560000Y-98630000D02*
X155635300Y-105554700D01*
X149860000Y-106680000D02*
X150985300Y-106680000D01*
%TO.N,Net-(DS3-Pad1)*%
X148253900Y-104331400D02*
X145905300Y-106680000D01*
X155879100Y-104331400D02*
X148253900Y-104331400D01*
X161290000Y-98920500D02*
X155879100Y-104331400D01*
X161290000Y-98349600D02*
X161290000Y-98920500D01*
X162095900Y-97543700D02*
X161290000Y-98349600D01*
X163072800Y-97543700D02*
X162095900Y-97543700D01*
X164024700Y-98495600D02*
X163072800Y-97543700D01*
X164024700Y-98630000D02*
X164024700Y-98495600D01*
X165100000Y-98630000D02*
X164024700Y-98630000D01*
X144780000Y-106680000D02*
X145905300Y-106680000D01*
%TO.N,Net-(DS2-Pad1)*%
X101310600Y-105554700D02*
X100185300Y-106680000D01*
X106434500Y-105554700D02*
X101310600Y-105554700D01*
X113224700Y-98764500D02*
X106434500Y-105554700D01*
X113224700Y-98630000D02*
X113224700Y-98764500D01*
X114300000Y-98630000D02*
X113224700Y-98630000D01*
X99060000Y-106680000D02*
X100185300Y-106680000D01*
%TO.N,Net-(DS1-Pad5)*%
X42195300Y-98630000D02*
X34145300Y-106680000D01*
X53340000Y-98630000D02*
X42195300Y-98630000D01*
X33020000Y-106680000D02*
X34145300Y-106680000D01*
%TO.N,Net-(D15-Pad2)*%
X244954700Y-152040600D02*
X246380000Y-150615300D01*
X244954700Y-160974700D02*
X244954700Y-152040600D01*
X245110000Y-161130000D02*
X244954700Y-160974700D01*
X246380000Y-149190000D02*
X246380000Y-150615300D01*
%TO.N,Net-(D14-Pad2)*%
X244954700Y-143514700D02*
X237330000Y-135890000D01*
X244954700Y-144110000D02*
X244954700Y-143514700D01*
X246380000Y-144110000D02*
X244954700Y-144110000D01*
%TO.N,Net-(D14-Pad1)*%
X236220000Y-154270000D02*
X234794700Y-154270000D01*
X182850000Y-186690000D02*
X183975300Y-186690000D01*
X190531000Y-181549000D02*
X185390000Y-186690000D01*
X197644400Y-181549000D02*
X190531000Y-181549000D01*
X206848500Y-172344900D02*
X197644400Y-181549000D01*
X216719800Y-172344900D02*
X206848500Y-172344900D01*
X234794700Y-154270000D02*
X216719800Y-172344900D01*
X185390000Y-186690000D02*
X183975300Y-186690000D01*
X236220000Y-144110000D02*
X237645300Y-144110000D01*
X236220000Y-149190000D02*
X236220000Y-147764700D01*
X236220000Y-147764700D02*
X238760000Y-145224700D01*
X237645300Y-144110000D02*
X238760000Y-145224700D01*
X270520000Y-140980000D02*
X274320000Y-144780000D01*
X258436700Y-140980000D02*
X270520000Y-140980000D01*
X256037000Y-138580300D02*
X258436700Y-140980000D01*
X251845800Y-138580300D02*
X256037000Y-138580300D01*
X248211300Y-142214800D02*
X251845800Y-138580300D01*
X248211300Y-144326800D02*
X248211300Y-142214800D01*
X246987800Y-145550300D02*
X248211300Y-144326800D01*
X239085600Y-145550300D02*
X246987800Y-145550300D01*
X238760000Y-145224700D02*
X239085600Y-145550300D01*
%TO.N,Net-(D11-Pad2)*%
X195580000Y-144940000D02*
X195580000Y-147320000D01*
X189070000Y-138430000D02*
X195580000Y-144940000D01*
%TO.N,/Dice1/D4*%
X71090000Y-176530000D02*
X68550000Y-176530000D01*
X185420000Y-152400000D02*
X185420000Y-150974700D01*
X185420000Y-150974700D02*
X187785400Y-148609300D01*
X187960000Y-148783900D02*
X187785400Y-148609300D01*
X200417700Y-148783900D02*
X187960000Y-148783900D01*
X204279100Y-144922500D02*
X200417700Y-148783900D01*
X212292200Y-144922500D02*
X204279100Y-144922500D01*
X214541200Y-142673500D02*
X212292200Y-144922500D01*
X214541200Y-133261200D02*
X214541200Y-142673500D01*
X213360000Y-132080000D02*
X214541200Y-133261200D01*
X186845300Y-147669200D02*
X186845300Y-147320000D01*
X187785400Y-148609300D02*
X186845300Y-147669200D01*
X185420000Y-147320000D02*
X186845300Y-147320000D01*
X160784000Y-147320000D02*
X185420000Y-147320000D01*
X152527100Y-155576900D02*
X160784000Y-147320000D01*
X129138400Y-155576900D02*
X152527100Y-155576900D01*
X122394700Y-162320600D02*
X129138400Y-155576900D01*
X109428700Y-162320600D02*
X122394700Y-162320600D01*
X102087300Y-169662000D02*
X109428700Y-162320600D01*
X77958000Y-169662000D02*
X102087300Y-169662000D01*
X71090000Y-176530000D02*
X77958000Y-169662000D01*
%TO.N,Net-(D8-Pad2)*%
X129750600Y-139329400D02*
X130650000Y-138430000D01*
X129750600Y-141400800D02*
X129750600Y-139329400D01*
X134244500Y-145894700D02*
X129750600Y-141400800D01*
X141929400Y-145894700D02*
X134244500Y-145894700D01*
X143354700Y-147320000D02*
X141929400Y-145894700D01*
X144780000Y-147320000D02*
X143354700Y-147320000D01*
%TO.N,/Dice1/D3*%
X78710000Y-176530000D02*
X81250000Y-176530000D01*
X134620000Y-157480000D02*
X133194700Y-157480000D01*
X148745300Y-150974700D02*
X154940000Y-144780000D01*
X137470600Y-150974700D02*
X148745300Y-150974700D01*
X136045300Y-152400000D02*
X137470600Y-150974700D01*
X134620000Y-152400000D02*
X136045300Y-152400000D01*
X127744800Y-162929900D02*
X133194700Y-157480000D01*
X109456300Y-162929900D02*
X127744800Y-162929900D01*
X101777100Y-170609100D02*
X109456300Y-162929900D01*
X100050300Y-170609100D02*
X101777100Y-170609100D01*
X97088900Y-173570500D02*
X100050300Y-170609100D01*
X84209500Y-173570500D02*
X97088900Y-173570500D01*
X81250000Y-176530000D02*
X84209500Y-173570500D01*
%TO.N,Net-(D7-Pad2)*%
X92554700Y-158745300D02*
X87630000Y-163670000D01*
X92554700Y-157480000D02*
X92554700Y-158745300D01*
X93980000Y-157480000D02*
X92554700Y-157480000D01*
%TO.N,/Dice1/D2*%
X78710000Y-184150000D02*
X76170000Y-184150000D01*
X100169700Y-156049700D02*
X101600000Y-157480000D01*
X86675600Y-156049700D02*
X100169700Y-156049700D01*
X85245300Y-157480000D02*
X86675600Y-156049700D01*
X83820000Y-157480000D02*
X85245300Y-157480000D01*
%TO.N,Net-(D4-Pad2)*%
X36830000Y-160175300D02*
X40640000Y-156365300D01*
X36830000Y-163670000D02*
X36830000Y-160175300D01*
X40640000Y-154940000D02*
X40640000Y-156365300D01*
%TO.N,Net-(D3-Pad2)*%
X42065300Y-161285300D02*
X42065300Y-160020000D01*
X44450000Y-163670000D02*
X42065300Y-161285300D01*
X40640000Y-160020000D02*
X42065300Y-160020000D01*
%TO.N,Net-(D2-Pad2)*%
X30698600Y-139321400D02*
X30698600Y-148434600D01*
X31590000Y-138430000D02*
X30698600Y-139321400D01*
X37789300Y-148434600D02*
X30698600Y-148434600D01*
X39214700Y-149860000D02*
X37789300Y-148434600D01*
X43444300Y-171610000D02*
X44450000Y-171610000D01*
X35180400Y-163346100D02*
X43444300Y-171610000D01*
X35180400Y-156979900D02*
X35180400Y-163346100D01*
X29936200Y-151735700D02*
X35180400Y-156979900D01*
X29654900Y-151735700D02*
X29936200Y-151735700D01*
X29054600Y-151135400D02*
X29654900Y-151735700D01*
X29054600Y-148537300D02*
X29054600Y-151135400D01*
X29157300Y-148434600D02*
X29054600Y-148537300D01*
X30698600Y-148434600D02*
X29157300Y-148434600D01*
X40640000Y-149860000D02*
X39214700Y-149860000D01*
%TO.N,Net-(D2-Pad1)*%
X33330600Y-151285300D02*
X31905300Y-149860000D01*
X51914700Y-151285300D02*
X33330600Y-151285300D01*
X53340000Y-149860000D02*
X51914700Y-151285300D01*
X30480000Y-149860000D02*
X31905300Y-149860000D01*
X68550000Y-184150000D02*
X66010000Y-184150000D01*
X37768400Y-184150000D02*
X66010000Y-184150000D01*
X30480000Y-176861600D02*
X37768400Y-184150000D01*
X30480000Y-160020000D02*
X30480000Y-176861600D01*
D37*
%TO.N,GND*%
X146050000Y-174150000D02*
X143510000Y-174150000D01*
X131930000Y-142250000D02*
X130650000Y-140970000D01*
X143495000Y-142250000D02*
X131930000Y-142250000D01*
X39370000Y-171610000D02*
X36830000Y-171610000D01*
X57169700Y-185420000D02*
X62249700Y-190500000D01*
X48260000Y-185420000D02*
X57169700Y-185420000D01*
X63500000Y-190500000D02*
X62249700Y-190500000D01*
X154940000Y-180340000D02*
X156190300Y-180340000D01*
X156190300Y-179796100D02*
X156190300Y-180340000D01*
X156896800Y-179089600D02*
X156190300Y-179796100D01*
X165139300Y-179089600D02*
X156896800Y-179089600D01*
X166389700Y-180340000D02*
X165139300Y-179089600D01*
X167640000Y-180340000D02*
X166389700Y-180340000D01*
X92710000Y-171610000D02*
X90170000Y-171610000D01*
X90170000Y-171610000D02*
X87630000Y-171610000D01*
X32870000Y-142250000D02*
X44435000Y-142250000D01*
X31590000Y-140970000D02*
X32870000Y-142250000D01*
X223520000Y-132080000D02*
X224770300Y-132080000D01*
X236281800Y-137381800D02*
X236281800Y-134398200D01*
X237330000Y-138430000D02*
X236281800Y-137381800D01*
X236281800Y-134398200D02*
X237330000Y-133350000D01*
X113049700Y-147320000D02*
X101600000Y-147320000D01*
X114329700Y-148600000D02*
X113049700Y-147320000D01*
X115580000Y-148600000D02*
X114329700Y-148600000D01*
X101600000Y-147320000D02*
X101600000Y-146069700D01*
X203770000Y-174150000D02*
X199390000Y-174150000D01*
X207740000Y-170180000D02*
X203770000Y-174150000D01*
X261540000Y-175260000D02*
X248920000Y-175260000D01*
X264080000Y-177800000D02*
X261540000Y-175260000D01*
X124380000Y-165100000D02*
X111220000Y-165100000D01*
X126920000Y-167640000D02*
X124380000Y-165100000D01*
X101965300Y-145704400D02*
X101965300Y-142250000D01*
X101600000Y-146069700D02*
X101965300Y-145704400D01*
X100315000Y-142250000D02*
X101965300Y-142250000D01*
X240030000Y-169070000D02*
X237490000Y-169070000D01*
X252844400Y-160114700D02*
X254029700Y-161300000D01*
X248665300Y-160114700D02*
X252844400Y-160114700D01*
X247650000Y-161130000D02*
X248665300Y-160114700D01*
X255280000Y-161300000D02*
X254029700Y-161300000D01*
X41910000Y-171610000D02*
X39370000Y-171610000D01*
X88750000Y-142250000D02*
X87470000Y-140970000D01*
X100315000Y-142250000D02*
X88750000Y-142250000D01*
X85583500Y-139083500D02*
X85583500Y-138430000D01*
X87470000Y-140970000D02*
X85583500Y-139083500D01*
X85583500Y-137776500D02*
X87470000Y-135890000D01*
X85583500Y-138430000D02*
X85583500Y-137776500D01*
X189230000Y-174150000D02*
X186690000Y-174150000D01*
X181684900Y-175165400D02*
X176510300Y-180340000D01*
X185674600Y-175165400D02*
X181684900Y-175165400D01*
X186690000Y-174150000D02*
X185674600Y-175165400D01*
X175260000Y-180340000D02*
X176510300Y-180340000D01*
X191770000Y-174150000D02*
X189230000Y-174150000D01*
X236281800Y-134398200D02*
X225883200Y-134398200D01*
X225883200Y-138626500D02*
X225883200Y-134398200D01*
X223520000Y-140989700D02*
X225883200Y-138626500D01*
X225883200Y-133192900D02*
X224770300Y-132080000D01*
X225883200Y-134398200D02*
X225883200Y-133192900D01*
X223520000Y-142240000D02*
X223520000Y-140989700D01*
X219710000Y-186850000D02*
X222250000Y-186850000D01*
X227490000Y-186850000D02*
X228600000Y-187960000D01*
X222250000Y-186850000D02*
X227490000Y-186850000D01*
X238280000Y-187960000D02*
X238760000Y-187480000D01*
X228600000Y-187960000D02*
X238280000Y-187960000D01*
X85583500Y-138430000D02*
X80170000Y-138430000D01*
X80170000Y-138430000D02*
X72230000Y-138430000D01*
X173830000Y-140970000D02*
X181770000Y-140970000D01*
X195430000Y-142250000D02*
X189596100Y-136416000D01*
X201915000Y-142250000D02*
X195430000Y-142250000D01*
X189596100Y-136416000D02*
X189070000Y-135890000D01*
X188046400Y-137965700D02*
X188046400Y-140970000D01*
X189596100Y-136416000D02*
X188046400Y-137965700D01*
X181770000Y-140970000D02*
X188046400Y-140970000D01*
X188046400Y-140970000D02*
X189070000Y-140970000D01*
X279400000Y-165640000D02*
X283940000Y-170180000D01*
X279400000Y-157480000D02*
X279400000Y-165640000D01*
X279400000Y-157480000D02*
X278199700Y-157480000D01*
X284480000Y-144780000D02*
X284480000Y-146030300D01*
X284480000Y-146030300D02*
X276215200Y-154295100D01*
X278199700Y-156279700D02*
X276215200Y-154295100D01*
X278199700Y-157480000D02*
X278199700Y-156279700D01*
X274320000Y-152400000D02*
X269160000Y-152400000D01*
X276215200Y-154295100D02*
X274320000Y-152400000D01*
X46085300Y-140934500D02*
X46085300Y-142250000D01*
X51119800Y-135900000D02*
X46085300Y-140934500D01*
X59700000Y-135900000D02*
X51119800Y-135900000D01*
X44435000Y-142250000D02*
X46085300Y-142250000D01*
X74900000Y-190500000D02*
X63500000Y-190500000D01*
X81250000Y-184150000D02*
X74900000Y-190500000D01*
X70970000Y-137150000D02*
X72230000Y-135890000D01*
X70970000Y-137170000D02*
X70970000Y-137150000D01*
X62220300Y-137170000D02*
X60950300Y-135900000D01*
X70970000Y-137170000D02*
X62220300Y-137170000D01*
X72230000Y-138430000D02*
X70970000Y-137170000D01*
X59700000Y-135900000D02*
X60950300Y-135900000D01*
X243593200Y-168046800D02*
X242570000Y-169070000D01*
X249166800Y-168046800D02*
X243593200Y-168046800D01*
X250190000Y-169070000D02*
X249166800Y-168046800D01*
X242570000Y-169070000D02*
X240030000Y-169070000D01*
X252715000Y-142250000D02*
X254365300Y-142250000D01*
X268090400Y-151330400D02*
X269160000Y-152400000D01*
X256872400Y-151330400D02*
X268090400Y-151330400D01*
X256872400Y-151527600D02*
X256872400Y-151330400D01*
X256000000Y-152400000D02*
X256872400Y-151527600D01*
X256872400Y-144757100D02*
X254365300Y-142250000D01*
X256872400Y-151330400D02*
X256872400Y-144757100D01*
X143510000Y-174150000D02*
X140970000Y-174150000D01*
X134460000Y-167640000D02*
X126920000Y-167640000D01*
X140970000Y-174150000D02*
X134460000Y-167640000D01*
X58936200Y-168696200D02*
X57880000Y-167640000D01*
X69983800Y-168696200D02*
X58936200Y-168696200D01*
X71040000Y-167640000D02*
X69983800Y-168696200D01*
X238760000Y-187480000D02*
X246380000Y-187480000D01*
X255021900Y-186441900D02*
X256540000Y-187960000D01*
X247418100Y-186441900D02*
X255021900Y-186441900D01*
X246380000Y-187480000D02*
X247418100Y-186441900D01*
%TD*%
M02*
