%TF.GenerationSoftware,KiCad,Pcbnew,(6.0.2)*%
%TF.CreationDate,2022-04-29T17:00:25+02:00*%
%TF.ProjectId,Kniffel_V1,4b6e6966-6665-46c5-9f56-312e6b696361,rev?*%
%TF.SameCoordinates,Original*%
%TF.FileFunction,Legend,Top*%
%TF.FilePolarity,Positive*%
%FSLAX46Y46*%
G04 Gerber Fmt 4.6, Leading zero omitted, Abs format (unit mm)*
G04 Created by KiCad (PCBNEW (6.0.2)) date 2022-04-29 17:00:25*
%MOMM*%
%LPD*%
G01*
G04 APERTURE LIST*
%ADD10C,0.150000*%
%ADD11C,0.254000*%
%ADD12C,0.120000*%
%ADD13C,0.200000*%
%ADD14C,0.100000*%
%ADD15R,1.130000X1.130000*%
%ADD16C,1.130000*%
%ADD17C,1.200000*%
%ADD18R,1.150000X1.150000*%
%ADD19C,1.150000*%
G04 APERTURE END LIST*
D10*
%TO.C,REF2*%
X281452380Y-23152380D02*
X281119047Y-22676190D01*
X280880952Y-23152380D02*
X280880952Y-22152380D01*
X281261904Y-22152380D01*
X281357142Y-22200000D01*
X281404761Y-22247619D01*
X281452380Y-22342857D01*
X281452380Y-22485714D01*
X281404761Y-22580952D01*
X281357142Y-22628571D01*
X281261904Y-22676190D01*
X280880952Y-22676190D01*
X281880952Y-22628571D02*
X282214285Y-22628571D01*
X282357142Y-23152380D02*
X281880952Y-23152380D01*
X281880952Y-22152380D01*
X282357142Y-22152380D01*
X283119047Y-22628571D02*
X282785714Y-22628571D01*
X282785714Y-23152380D02*
X282785714Y-22152380D01*
X283261904Y-22152380D01*
X283595238Y-22247619D02*
X283642857Y-22200000D01*
X283738095Y-22152380D01*
X283976190Y-22152380D01*
X284071428Y-22200000D01*
X284119047Y-22247619D01*
X284166666Y-22342857D01*
X284166666Y-22438095D01*
X284119047Y-22580952D01*
X283547619Y-23152380D01*
X284166666Y-23152380D01*
%TO.C,REF1*%
X32952380Y-22652380D02*
X32619047Y-22176190D01*
X32380952Y-22652380D02*
X32380952Y-21652380D01*
X32761904Y-21652380D01*
X32857142Y-21700000D01*
X32904761Y-21747619D01*
X32952380Y-21842857D01*
X32952380Y-21985714D01*
X32904761Y-22080952D01*
X32857142Y-22128571D01*
X32761904Y-22176190D01*
X32380952Y-22176190D01*
X33380952Y-22128571D02*
X33714285Y-22128571D01*
X33857142Y-22652380D02*
X33380952Y-22652380D01*
X33380952Y-21652380D01*
X33857142Y-21652380D01*
X34619047Y-22128571D02*
X34285714Y-22128571D01*
X34285714Y-22652380D02*
X34285714Y-21652380D01*
X34761904Y-21652380D01*
X35666666Y-22652380D02*
X35095238Y-22652380D01*
X35380952Y-22652380D02*
X35380952Y-21652380D01*
X35285714Y-21795238D01*
X35190476Y-21890476D01*
X35095238Y-21938095D01*
%TO.C,REF4*%
X31952380Y-187652380D02*
X31619047Y-187176190D01*
X31380952Y-187652380D02*
X31380952Y-186652380D01*
X31761904Y-186652380D01*
X31857142Y-186700000D01*
X31904761Y-186747619D01*
X31952380Y-186842857D01*
X31952380Y-186985714D01*
X31904761Y-187080952D01*
X31857142Y-187128571D01*
X31761904Y-187176190D01*
X31380952Y-187176190D01*
X32380952Y-187128571D02*
X32714285Y-187128571D01*
X32857142Y-187652380D02*
X32380952Y-187652380D01*
X32380952Y-186652380D01*
X32857142Y-186652380D01*
X33619047Y-187128571D02*
X33285714Y-187128571D01*
X33285714Y-187652380D02*
X33285714Y-186652380D01*
X33761904Y-186652380D01*
X34571428Y-186985714D02*
X34571428Y-187652380D01*
X34333333Y-186604761D02*
X34095238Y-187319047D01*
X34714285Y-187319047D01*
%TO.C,REF3*%
X282452380Y-185652380D02*
X282119047Y-185176190D01*
X281880952Y-185652380D02*
X281880952Y-184652380D01*
X282261904Y-184652380D01*
X282357142Y-184700000D01*
X282404761Y-184747619D01*
X282452380Y-184842857D01*
X282452380Y-184985714D01*
X282404761Y-185080952D01*
X282357142Y-185128571D01*
X282261904Y-185176190D01*
X281880952Y-185176190D01*
X282880952Y-185128571D02*
X283214285Y-185128571D01*
X283357142Y-185652380D02*
X282880952Y-185652380D01*
X282880952Y-184652380D01*
X283357142Y-184652380D01*
X284119047Y-185128571D02*
X283785714Y-185128571D01*
X283785714Y-185652380D02*
X283785714Y-184652380D01*
X284261904Y-184652380D01*
X284547619Y-184652380D02*
X285166666Y-184652380D01*
X284833333Y-185033333D01*
X284976190Y-185033333D01*
X285071428Y-185080952D01*
X285119047Y-185128571D01*
X285166666Y-185223809D01*
X285166666Y-185461904D01*
X285119047Y-185557142D01*
X285071428Y-185604761D01*
X284976190Y-185652380D01*
X284690476Y-185652380D01*
X284595238Y-185604761D01*
X284547619Y-185557142D01*
%TO.C,R50*%
X196202380Y-112402857D02*
X195726190Y-112736190D01*
X196202380Y-112974285D02*
X195202380Y-112974285D01*
X195202380Y-112593333D01*
X195250000Y-112498095D01*
X195297619Y-112450476D01*
X195392857Y-112402857D01*
X195535714Y-112402857D01*
X195630952Y-112450476D01*
X195678571Y-112498095D01*
X195726190Y-112593333D01*
X195726190Y-112974285D01*
X195202380Y-111498095D02*
X195202380Y-111974285D01*
X195678571Y-112021904D01*
X195630952Y-111974285D01*
X195583333Y-111879047D01*
X195583333Y-111640952D01*
X195630952Y-111545714D01*
X195678571Y-111498095D01*
X195773809Y-111450476D01*
X196011904Y-111450476D01*
X196107142Y-111498095D01*
X196154761Y-111545714D01*
X196202380Y-111640952D01*
X196202380Y-111879047D01*
X196154761Y-111974285D01*
X196107142Y-112021904D01*
X195202380Y-110831428D02*
X195202380Y-110736190D01*
X195250000Y-110640952D01*
X195297619Y-110593333D01*
X195392857Y-110545714D01*
X195583333Y-110498095D01*
X195821428Y-110498095D01*
X196011904Y-110545714D01*
X196107142Y-110593333D01*
X196154761Y-110640952D01*
X196202380Y-110736190D01*
X196202380Y-110831428D01*
X196154761Y-110926666D01*
X196107142Y-110974285D01*
X196011904Y-111021904D01*
X195821428Y-111069523D01*
X195583333Y-111069523D01*
X195392857Y-111021904D01*
X195297619Y-110974285D01*
X195250000Y-110926666D01*
X195202380Y-110831428D01*
%TO.C,R47*%
X163182380Y-112402857D02*
X162706190Y-112736190D01*
X163182380Y-112974285D02*
X162182380Y-112974285D01*
X162182380Y-112593333D01*
X162230000Y-112498095D01*
X162277619Y-112450476D01*
X162372857Y-112402857D01*
X162515714Y-112402857D01*
X162610952Y-112450476D01*
X162658571Y-112498095D01*
X162706190Y-112593333D01*
X162706190Y-112974285D01*
X162515714Y-111545714D02*
X163182380Y-111545714D01*
X162134761Y-111783809D02*
X162849047Y-112021904D01*
X162849047Y-111402857D01*
X162182380Y-111117142D02*
X162182380Y-110450476D01*
X163182380Y-110879047D01*
%TO.C,R37*%
X89522380Y-112402857D02*
X89046190Y-112736190D01*
X89522380Y-112974285D02*
X88522380Y-112974285D01*
X88522380Y-112593333D01*
X88570000Y-112498095D01*
X88617619Y-112450476D01*
X88712857Y-112402857D01*
X88855714Y-112402857D01*
X88950952Y-112450476D01*
X88998571Y-112498095D01*
X89046190Y-112593333D01*
X89046190Y-112974285D01*
X88522380Y-112069523D02*
X88522380Y-111450476D01*
X88903333Y-111783809D01*
X88903333Y-111640952D01*
X88950952Y-111545714D01*
X88998571Y-111498095D01*
X89093809Y-111450476D01*
X89331904Y-111450476D01*
X89427142Y-111498095D01*
X89474761Y-111545714D01*
X89522380Y-111640952D01*
X89522380Y-111926666D01*
X89474761Y-112021904D01*
X89427142Y-112069523D01*
X88522380Y-111117142D02*
X88522380Y-110450476D01*
X89522380Y-110879047D01*
%TO.C,J1*%
X228266666Y-176842380D02*
X228266666Y-177556666D01*
X228219047Y-177699523D01*
X228123809Y-177794761D01*
X227980952Y-177842380D01*
X227885714Y-177842380D01*
X229266666Y-177842380D02*
X228695238Y-177842380D01*
X228980952Y-177842380D02*
X228980952Y-176842380D01*
X228885714Y-176985238D01*
X228790476Y-177080476D01*
X228695238Y-177128095D01*
%TO.C,R18*%
X203822380Y-153042857D02*
X203346190Y-153376190D01*
X203822380Y-153614285D02*
X202822380Y-153614285D01*
X202822380Y-153233333D01*
X202870000Y-153138095D01*
X202917619Y-153090476D01*
X203012857Y-153042857D01*
X203155714Y-153042857D01*
X203250952Y-153090476D01*
X203298571Y-153138095D01*
X203346190Y-153233333D01*
X203346190Y-153614285D01*
X203822380Y-152090476D02*
X203822380Y-152661904D01*
X203822380Y-152376190D02*
X202822380Y-152376190D01*
X202965238Y-152471428D01*
X203060476Y-152566666D01*
X203108095Y-152661904D01*
X203250952Y-151519047D02*
X203203333Y-151614285D01*
X203155714Y-151661904D01*
X203060476Y-151709523D01*
X203012857Y-151709523D01*
X202917619Y-151661904D01*
X202870000Y-151614285D01*
X202822380Y-151519047D01*
X202822380Y-151328571D01*
X202870000Y-151233333D01*
X202917619Y-151185714D01*
X203012857Y-151138095D01*
X203060476Y-151138095D01*
X203155714Y-151185714D01*
X203203333Y-151233333D01*
X203250952Y-151328571D01*
X203250952Y-151519047D01*
X203298571Y-151614285D01*
X203346190Y-151661904D01*
X203441428Y-151709523D01*
X203631904Y-151709523D01*
X203727142Y-151661904D01*
X203774761Y-151614285D01*
X203822380Y-151519047D01*
X203822380Y-151328571D01*
X203774761Y-151233333D01*
X203727142Y-151185714D01*
X203631904Y-151138095D01*
X203441428Y-151138095D01*
X203346190Y-151185714D01*
X203298571Y-151233333D01*
X203250952Y-151328571D01*
%TO.C,R35*%
X102222380Y-112402857D02*
X101746190Y-112736190D01*
X102222380Y-112974285D02*
X101222380Y-112974285D01*
X101222380Y-112593333D01*
X101270000Y-112498095D01*
X101317619Y-112450476D01*
X101412857Y-112402857D01*
X101555714Y-112402857D01*
X101650952Y-112450476D01*
X101698571Y-112498095D01*
X101746190Y-112593333D01*
X101746190Y-112974285D01*
X101222380Y-112069523D02*
X101222380Y-111450476D01*
X101603333Y-111783809D01*
X101603333Y-111640952D01*
X101650952Y-111545714D01*
X101698571Y-111498095D01*
X101793809Y-111450476D01*
X102031904Y-111450476D01*
X102127142Y-111498095D01*
X102174761Y-111545714D01*
X102222380Y-111640952D01*
X102222380Y-111926666D01*
X102174761Y-112021904D01*
X102127142Y-112069523D01*
X101222380Y-110545714D02*
X101222380Y-111021904D01*
X101698571Y-111069523D01*
X101650952Y-111021904D01*
X101603333Y-110926666D01*
X101603333Y-110688571D01*
X101650952Y-110593333D01*
X101698571Y-110545714D01*
X101793809Y-110498095D01*
X102031904Y-110498095D01*
X102127142Y-110545714D01*
X102174761Y-110593333D01*
X102222380Y-110688571D01*
X102222380Y-110926666D01*
X102174761Y-111021904D01*
X102127142Y-111069523D01*
D11*
%TO.C,IC3*%
X90200238Y-132654523D02*
X90200238Y-131384523D01*
X91530714Y-132533571D02*
X91470238Y-132594047D01*
X91288809Y-132654523D01*
X91167857Y-132654523D01*
X90986428Y-132594047D01*
X90865476Y-132473095D01*
X90805000Y-132352142D01*
X90744523Y-132110238D01*
X90744523Y-131928809D01*
X90805000Y-131686904D01*
X90865476Y-131565952D01*
X90986428Y-131445000D01*
X91167857Y-131384523D01*
X91288809Y-131384523D01*
X91470238Y-131445000D01*
X91530714Y-131505476D01*
X91954047Y-131384523D02*
X92740238Y-131384523D01*
X92316904Y-131868333D01*
X92498333Y-131868333D01*
X92619285Y-131928809D01*
X92679761Y-131989285D01*
X92740238Y-132110238D01*
X92740238Y-132412619D01*
X92679761Y-132533571D01*
X92619285Y-132594047D01*
X92498333Y-132654523D01*
X92135476Y-132654523D01*
X92014523Y-132594047D01*
X91954047Y-132533571D01*
D10*
%TO.C,J6*%
X248082380Y-185513333D02*
X248796666Y-185513333D01*
X248939523Y-185560952D01*
X249034761Y-185656190D01*
X249082380Y-185799047D01*
X249082380Y-185894285D01*
X248082380Y-184608571D02*
X248082380Y-184799047D01*
X248130000Y-184894285D01*
X248177619Y-184941904D01*
X248320476Y-185037142D01*
X248510952Y-185084761D01*
X248891904Y-185084761D01*
X248987142Y-185037142D01*
X249034761Y-184989523D01*
X249082380Y-184894285D01*
X249082380Y-184703809D01*
X249034761Y-184608571D01*
X248987142Y-184560952D01*
X248891904Y-184513333D01*
X248653809Y-184513333D01*
X248558571Y-184560952D01*
X248510952Y-184608571D01*
X248463333Y-184703809D01*
X248463333Y-184894285D01*
X248510952Y-184989523D01*
X248558571Y-185037142D01*
X248653809Y-185084761D01*
%TO.C,R10*%
X99682380Y-153042857D02*
X99206190Y-153376190D01*
X99682380Y-153614285D02*
X98682380Y-153614285D01*
X98682380Y-153233333D01*
X98730000Y-153138095D01*
X98777619Y-153090476D01*
X98872857Y-153042857D01*
X99015714Y-153042857D01*
X99110952Y-153090476D01*
X99158571Y-153138095D01*
X99206190Y-153233333D01*
X99206190Y-153614285D01*
X99682380Y-152090476D02*
X99682380Y-152661904D01*
X99682380Y-152376190D02*
X98682380Y-152376190D01*
X98825238Y-152471428D01*
X98920476Y-152566666D01*
X98968095Y-152661904D01*
X98682380Y-151471428D02*
X98682380Y-151376190D01*
X98730000Y-151280952D01*
X98777619Y-151233333D01*
X98872857Y-151185714D01*
X99063333Y-151138095D01*
X99301428Y-151138095D01*
X99491904Y-151185714D01*
X99587142Y-151233333D01*
X99634761Y-151280952D01*
X99682380Y-151376190D01*
X99682380Y-151471428D01*
X99634761Y-151566666D01*
X99587142Y-151614285D01*
X99491904Y-151661904D01*
X99301428Y-151709523D01*
X99063333Y-151709523D01*
X98872857Y-151661904D01*
X98777619Y-151614285D01*
X98730000Y-151566666D01*
X98682380Y-151471428D01*
%TO.C,U17*%
X100346904Y-119052380D02*
X100346904Y-119861904D01*
X100394523Y-119957142D01*
X100442142Y-120004761D01*
X100537380Y-120052380D01*
X100727857Y-120052380D01*
X100823095Y-120004761D01*
X100870714Y-119957142D01*
X100918333Y-119861904D01*
X100918333Y-119052380D01*
X101918333Y-120052380D02*
X101346904Y-120052380D01*
X101632619Y-120052380D02*
X101632619Y-119052380D01*
X101537380Y-119195238D01*
X101442142Y-119290476D01*
X101346904Y-119338095D01*
X102251666Y-119052380D02*
X102918333Y-119052380D01*
X102489761Y-120052380D01*
%TO.C,J5*%
X240462380Y-185513333D02*
X241176666Y-185513333D01*
X241319523Y-185560952D01*
X241414761Y-185656190D01*
X241462380Y-185799047D01*
X241462380Y-185894285D01*
X240462380Y-184560952D02*
X240462380Y-185037142D01*
X240938571Y-185084761D01*
X240890952Y-185037142D01*
X240843333Y-184941904D01*
X240843333Y-184703809D01*
X240890952Y-184608571D01*
X240938571Y-184560952D01*
X241033809Y-184513333D01*
X241271904Y-184513333D01*
X241367142Y-184560952D01*
X241414761Y-184608571D01*
X241462380Y-184703809D01*
X241462380Y-184941904D01*
X241414761Y-185037142D01*
X241367142Y-185084761D01*
%TO.C,R25*%
X278757142Y-142692380D02*
X278423809Y-142216190D01*
X278185714Y-142692380D02*
X278185714Y-141692380D01*
X278566666Y-141692380D01*
X278661904Y-141740000D01*
X278709523Y-141787619D01*
X278757142Y-141882857D01*
X278757142Y-142025714D01*
X278709523Y-142120952D01*
X278661904Y-142168571D01*
X278566666Y-142216190D01*
X278185714Y-142216190D01*
X279138095Y-141787619D02*
X279185714Y-141740000D01*
X279280952Y-141692380D01*
X279519047Y-141692380D01*
X279614285Y-141740000D01*
X279661904Y-141787619D01*
X279709523Y-141882857D01*
X279709523Y-141978095D01*
X279661904Y-142120952D01*
X279090476Y-142692380D01*
X279709523Y-142692380D01*
X280614285Y-141692380D02*
X280138095Y-141692380D01*
X280090476Y-142168571D01*
X280138095Y-142120952D01*
X280233333Y-142073333D01*
X280471428Y-142073333D01*
X280566666Y-142120952D01*
X280614285Y-142168571D01*
X280661904Y-142263809D01*
X280661904Y-142501904D01*
X280614285Y-142597142D01*
X280566666Y-142644761D01*
X280471428Y-142692380D01*
X280233333Y-142692380D01*
X280138095Y-142644761D01*
X280090476Y-142597142D01*
%TO.C,R4*%
X63333333Y-155562380D02*
X63000000Y-155086190D01*
X62761904Y-155562380D02*
X62761904Y-154562380D01*
X63142857Y-154562380D01*
X63238095Y-154610000D01*
X63285714Y-154657619D01*
X63333333Y-154752857D01*
X63333333Y-154895714D01*
X63285714Y-154990952D01*
X63238095Y-155038571D01*
X63142857Y-155086190D01*
X62761904Y-155086190D01*
X64190476Y-154895714D02*
X64190476Y-155562380D01*
X63952380Y-154514761D02*
X63714285Y-155229047D01*
X64333333Y-155229047D01*
%TO.C,R28*%
X149217142Y-178422380D02*
X148883809Y-177946190D01*
X148645714Y-178422380D02*
X148645714Y-177422380D01*
X149026666Y-177422380D01*
X149121904Y-177470000D01*
X149169523Y-177517619D01*
X149217142Y-177612857D01*
X149217142Y-177755714D01*
X149169523Y-177850952D01*
X149121904Y-177898571D01*
X149026666Y-177946190D01*
X148645714Y-177946190D01*
X149598095Y-177517619D02*
X149645714Y-177470000D01*
X149740952Y-177422380D01*
X149979047Y-177422380D01*
X150074285Y-177470000D01*
X150121904Y-177517619D01*
X150169523Y-177612857D01*
X150169523Y-177708095D01*
X150121904Y-177850952D01*
X149550476Y-178422380D01*
X150169523Y-178422380D01*
X150740952Y-177850952D02*
X150645714Y-177803333D01*
X150598095Y-177755714D01*
X150550476Y-177660476D01*
X150550476Y-177612857D01*
X150598095Y-177517619D01*
X150645714Y-177470000D01*
X150740952Y-177422380D01*
X150931428Y-177422380D01*
X151026666Y-177470000D01*
X151074285Y-177517619D01*
X151121904Y-177612857D01*
X151121904Y-177660476D01*
X151074285Y-177755714D01*
X151026666Y-177803333D01*
X150931428Y-177850952D01*
X150740952Y-177850952D01*
X150645714Y-177898571D01*
X150598095Y-177946190D01*
X150550476Y-178041428D01*
X150550476Y-178231904D01*
X150598095Y-178327142D01*
X150645714Y-178374761D01*
X150740952Y-178422380D01*
X150931428Y-178422380D01*
X151026666Y-178374761D01*
X151074285Y-178327142D01*
X151121904Y-178231904D01*
X151121904Y-178041428D01*
X151074285Y-177946190D01*
X151026666Y-177898571D01*
X150931428Y-177850952D01*
%TO.C,R42*%
X142862380Y-112402857D02*
X142386190Y-112736190D01*
X142862380Y-112974285D02*
X141862380Y-112974285D01*
X141862380Y-112593333D01*
X141910000Y-112498095D01*
X141957619Y-112450476D01*
X142052857Y-112402857D01*
X142195714Y-112402857D01*
X142290952Y-112450476D01*
X142338571Y-112498095D01*
X142386190Y-112593333D01*
X142386190Y-112974285D01*
X142195714Y-111545714D02*
X142862380Y-111545714D01*
X141814761Y-111783809D02*
X142529047Y-112021904D01*
X142529047Y-111402857D01*
X141957619Y-111069523D02*
X141910000Y-111021904D01*
X141862380Y-110926666D01*
X141862380Y-110688571D01*
X141910000Y-110593333D01*
X141957619Y-110545714D01*
X142052857Y-110498095D01*
X142148095Y-110498095D01*
X142290952Y-110545714D01*
X142862380Y-111117142D01*
X142862380Y-110498095D01*
%TO.C,R60*%
X236842380Y-112402857D02*
X236366190Y-112736190D01*
X236842380Y-112974285D02*
X235842380Y-112974285D01*
X235842380Y-112593333D01*
X235890000Y-112498095D01*
X235937619Y-112450476D01*
X236032857Y-112402857D01*
X236175714Y-112402857D01*
X236270952Y-112450476D01*
X236318571Y-112498095D01*
X236366190Y-112593333D01*
X236366190Y-112974285D01*
X235842380Y-111545714D02*
X235842380Y-111736190D01*
X235890000Y-111831428D01*
X235937619Y-111879047D01*
X236080476Y-111974285D01*
X236270952Y-112021904D01*
X236651904Y-112021904D01*
X236747142Y-111974285D01*
X236794761Y-111926666D01*
X236842380Y-111831428D01*
X236842380Y-111640952D01*
X236794761Y-111545714D01*
X236747142Y-111498095D01*
X236651904Y-111450476D01*
X236413809Y-111450476D01*
X236318571Y-111498095D01*
X236270952Y-111545714D01*
X236223333Y-111640952D01*
X236223333Y-111831428D01*
X236270952Y-111926666D01*
X236318571Y-111974285D01*
X236413809Y-112021904D01*
X235842380Y-110831428D02*
X235842380Y-110736190D01*
X235890000Y-110640952D01*
X235937619Y-110593333D01*
X236032857Y-110545714D01*
X236223333Y-110498095D01*
X236461428Y-110498095D01*
X236651904Y-110545714D01*
X236747142Y-110593333D01*
X236794761Y-110640952D01*
X236842380Y-110736190D01*
X236842380Y-110831428D01*
X236794761Y-110926666D01*
X236747142Y-110974285D01*
X236651904Y-111021904D01*
X236461428Y-111069523D01*
X236223333Y-111069523D01*
X236032857Y-111021904D01*
X235937619Y-110974285D01*
X235890000Y-110926666D01*
X235842380Y-110831428D01*
%TO.C,R15*%
X159377142Y-142862380D02*
X159043809Y-142386190D01*
X158805714Y-142862380D02*
X158805714Y-141862380D01*
X159186666Y-141862380D01*
X159281904Y-141910000D01*
X159329523Y-141957619D01*
X159377142Y-142052857D01*
X159377142Y-142195714D01*
X159329523Y-142290952D01*
X159281904Y-142338571D01*
X159186666Y-142386190D01*
X158805714Y-142386190D01*
X160329523Y-142862380D02*
X159758095Y-142862380D01*
X160043809Y-142862380D02*
X160043809Y-141862380D01*
X159948571Y-142005238D01*
X159853333Y-142100476D01*
X159758095Y-142148095D01*
X161234285Y-141862380D02*
X160758095Y-141862380D01*
X160710476Y-142338571D01*
X160758095Y-142290952D01*
X160853333Y-142243333D01*
X161091428Y-142243333D01*
X161186666Y-142290952D01*
X161234285Y-142338571D01*
X161281904Y-142433809D01*
X161281904Y-142671904D01*
X161234285Y-142767142D01*
X161186666Y-142814761D01*
X161091428Y-142862380D01*
X160853333Y-142862380D01*
X160758095Y-142814761D01*
X160710476Y-142767142D01*
%TO.C,R11*%
X64122380Y-112402857D02*
X63646190Y-112736190D01*
X64122380Y-112974285D02*
X63122380Y-112974285D01*
X63122380Y-112593333D01*
X63170000Y-112498095D01*
X63217619Y-112450476D01*
X63312857Y-112402857D01*
X63455714Y-112402857D01*
X63550952Y-112450476D01*
X63598571Y-112498095D01*
X63646190Y-112593333D01*
X63646190Y-112974285D01*
X64122380Y-111450476D02*
X64122380Y-112021904D01*
X64122380Y-111736190D02*
X63122380Y-111736190D01*
X63265238Y-111831428D01*
X63360476Y-111926666D01*
X63408095Y-112021904D01*
X64122380Y-110498095D02*
X64122380Y-111069523D01*
X64122380Y-110783809D02*
X63122380Y-110783809D01*
X63265238Y-110879047D01*
X63360476Y-110974285D01*
X63408095Y-111069523D01*
%TO.C,R20*%
X217797142Y-130162380D02*
X217463809Y-129686190D01*
X217225714Y-130162380D02*
X217225714Y-129162380D01*
X217606666Y-129162380D01*
X217701904Y-129210000D01*
X217749523Y-129257619D01*
X217797142Y-129352857D01*
X217797142Y-129495714D01*
X217749523Y-129590952D01*
X217701904Y-129638571D01*
X217606666Y-129686190D01*
X217225714Y-129686190D01*
X218178095Y-129257619D02*
X218225714Y-129210000D01*
X218320952Y-129162380D01*
X218559047Y-129162380D01*
X218654285Y-129210000D01*
X218701904Y-129257619D01*
X218749523Y-129352857D01*
X218749523Y-129448095D01*
X218701904Y-129590952D01*
X218130476Y-130162380D01*
X218749523Y-130162380D01*
X219368571Y-129162380D02*
X219463809Y-129162380D01*
X219559047Y-129210000D01*
X219606666Y-129257619D01*
X219654285Y-129352857D01*
X219701904Y-129543333D01*
X219701904Y-129781428D01*
X219654285Y-129971904D01*
X219606666Y-130067142D01*
X219559047Y-130114761D01*
X219463809Y-130162380D01*
X219368571Y-130162380D01*
X219273333Y-130114761D01*
X219225714Y-130067142D01*
X219178095Y-129971904D01*
X219130476Y-129781428D01*
X219130476Y-129543333D01*
X219178095Y-129352857D01*
X219225714Y-129257619D01*
X219273333Y-129210000D01*
X219368571Y-129162380D01*
%TO.C,R3*%
X63333333Y-147942380D02*
X63000000Y-147466190D01*
X62761904Y-147942380D02*
X62761904Y-146942380D01*
X63142857Y-146942380D01*
X63238095Y-146990000D01*
X63285714Y-147037619D01*
X63333333Y-147132857D01*
X63333333Y-147275714D01*
X63285714Y-147370952D01*
X63238095Y-147418571D01*
X63142857Y-147466190D01*
X62761904Y-147466190D01*
X63666666Y-146942380D02*
X64285714Y-146942380D01*
X63952380Y-147323333D01*
X64095238Y-147323333D01*
X64190476Y-147370952D01*
X64238095Y-147418571D01*
X64285714Y-147513809D01*
X64285714Y-147751904D01*
X64238095Y-147847142D01*
X64190476Y-147894761D01*
X64095238Y-147942380D01*
X63809523Y-147942380D01*
X63714285Y-147894761D01*
X63666666Y-147847142D01*
%TO.C,D18*%
X118165714Y-180862380D02*
X118165714Y-179862380D01*
X118403809Y-179862380D01*
X118546666Y-179910000D01*
X118641904Y-180005238D01*
X118689523Y-180100476D01*
X118737142Y-180290952D01*
X118737142Y-180433809D01*
X118689523Y-180624285D01*
X118641904Y-180719523D01*
X118546666Y-180814761D01*
X118403809Y-180862380D01*
X118165714Y-180862380D01*
X119689523Y-180862380D02*
X119118095Y-180862380D01*
X119403809Y-180862380D02*
X119403809Y-179862380D01*
X119308571Y-180005238D01*
X119213333Y-180100476D01*
X119118095Y-180148095D01*
X120260952Y-180290952D02*
X120165714Y-180243333D01*
X120118095Y-180195714D01*
X120070476Y-180100476D01*
X120070476Y-180052857D01*
X120118095Y-179957619D01*
X120165714Y-179910000D01*
X120260952Y-179862380D01*
X120451428Y-179862380D01*
X120546666Y-179910000D01*
X120594285Y-179957619D01*
X120641904Y-180052857D01*
X120641904Y-180100476D01*
X120594285Y-180195714D01*
X120546666Y-180243333D01*
X120451428Y-180290952D01*
X120260952Y-180290952D01*
X120165714Y-180338571D01*
X120118095Y-180386190D01*
X120070476Y-180481428D01*
X120070476Y-180671904D01*
X120118095Y-180767142D01*
X120165714Y-180814761D01*
X120260952Y-180862380D01*
X120451428Y-180862380D01*
X120546666Y-180814761D01*
X120594285Y-180767142D01*
X120641904Y-180671904D01*
X120641904Y-180481428D01*
X120594285Y-180386190D01*
X120546666Y-180338571D01*
X120451428Y-180290952D01*
X114038095Y-181232380D02*
X114038095Y-180232380D01*
X114609523Y-181232380D02*
X114180952Y-180660952D01*
X114609523Y-180232380D02*
X114038095Y-180803809D01*
D11*
%TO.C,IC5*%
X133380238Y-132654523D02*
X133380238Y-131384523D01*
X134710714Y-132533571D02*
X134650238Y-132594047D01*
X134468809Y-132654523D01*
X134347857Y-132654523D01*
X134166428Y-132594047D01*
X134045476Y-132473095D01*
X133985000Y-132352142D01*
X133924523Y-132110238D01*
X133924523Y-131928809D01*
X133985000Y-131686904D01*
X134045476Y-131565952D01*
X134166428Y-131445000D01*
X134347857Y-131384523D01*
X134468809Y-131384523D01*
X134650238Y-131445000D01*
X134710714Y-131505476D01*
X135859761Y-131384523D02*
X135255000Y-131384523D01*
X135194523Y-131989285D01*
X135255000Y-131928809D01*
X135375952Y-131868333D01*
X135678333Y-131868333D01*
X135799285Y-131928809D01*
X135859761Y-131989285D01*
X135920238Y-132110238D01*
X135920238Y-132412619D01*
X135859761Y-132533571D01*
X135799285Y-132594047D01*
X135678333Y-132654523D01*
X135375952Y-132654523D01*
X135255000Y-132594047D01*
X135194523Y-132533571D01*
D10*
%TO.C,U6*%
X118628095Y-145722380D02*
X118628095Y-146531904D01*
X118675714Y-146627142D01*
X118723333Y-146674761D01*
X118818571Y-146722380D01*
X119009047Y-146722380D01*
X119104285Y-146674761D01*
X119151904Y-146627142D01*
X119199523Y-146531904D01*
X119199523Y-145722380D01*
X120104285Y-145722380D02*
X119913809Y-145722380D01*
X119818571Y-145770000D01*
X119770952Y-145817619D01*
X119675714Y-145960476D01*
X119628095Y-146150952D01*
X119628095Y-146531904D01*
X119675714Y-146627142D01*
X119723333Y-146674761D01*
X119818571Y-146722380D01*
X120009047Y-146722380D01*
X120104285Y-146674761D01*
X120151904Y-146627142D01*
X120199523Y-146531904D01*
X120199523Y-146293809D01*
X120151904Y-146198571D01*
X120104285Y-146150952D01*
X120009047Y-146103333D01*
X119818571Y-146103333D01*
X119723333Y-146150952D01*
X119675714Y-146198571D01*
X119628095Y-146293809D01*
D11*
%TO.C,C3*%
X67703333Y-168093571D02*
X67642857Y-168154047D01*
X67461428Y-168214523D01*
X67340476Y-168214523D01*
X67159047Y-168154047D01*
X67038095Y-168033095D01*
X66977619Y-167912142D01*
X66917142Y-167670238D01*
X66917142Y-167488809D01*
X66977619Y-167246904D01*
X67038095Y-167125952D01*
X67159047Y-167005000D01*
X67340476Y-166944523D01*
X67461428Y-166944523D01*
X67642857Y-167005000D01*
X67703333Y-167065476D01*
X68126666Y-166944523D02*
X68912857Y-166944523D01*
X68489523Y-167428333D01*
X68670952Y-167428333D01*
X68791904Y-167488809D01*
X68852380Y-167549285D01*
X68912857Y-167670238D01*
X68912857Y-167972619D01*
X68852380Y-168093571D01*
X68791904Y-168154047D01*
X68670952Y-168214523D01*
X68308095Y-168214523D01*
X68187142Y-168154047D01*
X68126666Y-168093571D01*
D10*
%TO.C,R2*%
X58253333Y-188582380D02*
X57920000Y-188106190D01*
X57681904Y-188582380D02*
X57681904Y-187582380D01*
X58062857Y-187582380D01*
X58158095Y-187630000D01*
X58205714Y-187677619D01*
X58253333Y-187772857D01*
X58253333Y-187915714D01*
X58205714Y-188010952D01*
X58158095Y-188058571D01*
X58062857Y-188106190D01*
X57681904Y-188106190D01*
X58634285Y-187677619D02*
X58681904Y-187630000D01*
X58777142Y-187582380D01*
X59015238Y-187582380D01*
X59110476Y-187630000D01*
X59158095Y-187677619D01*
X59205714Y-187772857D01*
X59205714Y-187868095D01*
X59158095Y-188010952D01*
X58586666Y-188582380D01*
X59205714Y-188582380D01*
%TO.C,D11*%
X189285714Y-145302380D02*
X189285714Y-144302380D01*
X189523809Y-144302380D01*
X189666666Y-144350000D01*
X189761904Y-144445238D01*
X189809523Y-144540476D01*
X189857142Y-144730952D01*
X189857142Y-144873809D01*
X189809523Y-145064285D01*
X189761904Y-145159523D01*
X189666666Y-145254761D01*
X189523809Y-145302380D01*
X189285714Y-145302380D01*
X190809523Y-145302380D02*
X190238095Y-145302380D01*
X190523809Y-145302380D02*
X190523809Y-144302380D01*
X190428571Y-144445238D01*
X190333333Y-144540476D01*
X190238095Y-144588095D01*
X191761904Y-145302380D02*
X191190476Y-145302380D01*
X191476190Y-145302380D02*
X191476190Y-144302380D01*
X191380952Y-144445238D01*
X191285714Y-144540476D01*
X191190476Y-144588095D01*
X185158095Y-145672380D02*
X185158095Y-144672380D01*
X185729523Y-145672380D02*
X185300952Y-145100952D01*
X185729523Y-144672380D02*
X185158095Y-145243809D01*
D11*
%TO.C,IC8*%
X240060238Y-130114523D02*
X240060238Y-128844523D01*
X241390714Y-129993571D02*
X241330238Y-130054047D01*
X241148809Y-130114523D01*
X241027857Y-130114523D01*
X240846428Y-130054047D01*
X240725476Y-129933095D01*
X240665000Y-129812142D01*
X240604523Y-129570238D01*
X240604523Y-129388809D01*
X240665000Y-129146904D01*
X240725476Y-129025952D01*
X240846428Y-128905000D01*
X241027857Y-128844523D01*
X241148809Y-128844523D01*
X241330238Y-128905000D01*
X241390714Y-128965476D01*
X242116428Y-129388809D02*
X241995476Y-129328333D01*
X241935000Y-129267857D01*
X241874523Y-129146904D01*
X241874523Y-129086428D01*
X241935000Y-128965476D01*
X241995476Y-128905000D01*
X242116428Y-128844523D01*
X242358333Y-128844523D01*
X242479285Y-128905000D01*
X242539761Y-128965476D01*
X242600238Y-129086428D01*
X242600238Y-129146904D01*
X242539761Y-129267857D01*
X242479285Y-129328333D01*
X242358333Y-129388809D01*
X242116428Y-129388809D01*
X241995476Y-129449285D01*
X241935000Y-129509761D01*
X241874523Y-129630714D01*
X241874523Y-129872619D01*
X241935000Y-129993571D01*
X241995476Y-130054047D01*
X242116428Y-130114523D01*
X242358333Y-130114523D01*
X242479285Y-130054047D01*
X242539761Y-129993571D01*
X242600238Y-129872619D01*
X242600238Y-129630714D01*
X242539761Y-129509761D01*
X242479285Y-129449285D01*
X242358333Y-129388809D01*
D10*
%TO.C,R54*%
X211442380Y-112402857D02*
X210966190Y-112736190D01*
X211442380Y-112974285D02*
X210442380Y-112974285D01*
X210442380Y-112593333D01*
X210490000Y-112498095D01*
X210537619Y-112450476D01*
X210632857Y-112402857D01*
X210775714Y-112402857D01*
X210870952Y-112450476D01*
X210918571Y-112498095D01*
X210966190Y-112593333D01*
X210966190Y-112974285D01*
X210442380Y-111498095D02*
X210442380Y-111974285D01*
X210918571Y-112021904D01*
X210870952Y-111974285D01*
X210823333Y-111879047D01*
X210823333Y-111640952D01*
X210870952Y-111545714D01*
X210918571Y-111498095D01*
X211013809Y-111450476D01*
X211251904Y-111450476D01*
X211347142Y-111498095D01*
X211394761Y-111545714D01*
X211442380Y-111640952D01*
X211442380Y-111879047D01*
X211394761Y-111974285D01*
X211347142Y-112021904D01*
X210775714Y-110593333D02*
X211442380Y-110593333D01*
X210394761Y-110831428D02*
X211109047Y-111069523D01*
X211109047Y-110450476D01*
%TO.C,D1*%
X269692380Y-168378095D02*
X268692380Y-168378095D01*
X268692380Y-168140000D01*
X268740000Y-167997142D01*
X268835238Y-167901904D01*
X268930476Y-167854285D01*
X269120952Y-167806666D01*
X269263809Y-167806666D01*
X269454285Y-167854285D01*
X269549523Y-167901904D01*
X269644761Y-167997142D01*
X269692380Y-168140000D01*
X269692380Y-168378095D01*
X269692380Y-166854285D02*
X269692380Y-167425714D01*
X269692380Y-167140000D02*
X268692380Y-167140000D01*
X268835238Y-167235238D01*
X268930476Y-167330476D01*
X268978095Y-167425714D01*
X272232380Y-167901904D02*
X271232380Y-167901904D01*
X272232380Y-167330476D02*
X271660952Y-167759047D01*
X271232380Y-167330476D02*
X271803809Y-167901904D01*
D11*
%TO.C,IC2*%
X34320238Y-132654523D02*
X34320238Y-131384523D01*
X35650714Y-132533571D02*
X35590238Y-132594047D01*
X35408809Y-132654523D01*
X35287857Y-132654523D01*
X35106428Y-132594047D01*
X34985476Y-132473095D01*
X34925000Y-132352142D01*
X34864523Y-132110238D01*
X34864523Y-131928809D01*
X34925000Y-131686904D01*
X34985476Y-131565952D01*
X35106428Y-131445000D01*
X35287857Y-131384523D01*
X35408809Y-131384523D01*
X35590238Y-131445000D01*
X35650714Y-131505476D01*
X36134523Y-131505476D02*
X36195000Y-131445000D01*
X36315952Y-131384523D01*
X36618333Y-131384523D01*
X36739285Y-131445000D01*
X36799761Y-131505476D01*
X36860238Y-131626428D01*
X36860238Y-131747380D01*
X36799761Y-131928809D01*
X36074047Y-132654523D01*
X36860238Y-132654523D01*
D10*
%TO.C,D3*%
X34821904Y-158002380D02*
X34821904Y-157002380D01*
X35060000Y-157002380D01*
X35202857Y-157050000D01*
X35298095Y-157145238D01*
X35345714Y-157240476D01*
X35393333Y-157430952D01*
X35393333Y-157573809D01*
X35345714Y-157764285D01*
X35298095Y-157859523D01*
X35202857Y-157954761D01*
X35060000Y-158002380D01*
X34821904Y-158002380D01*
X35726666Y-157002380D02*
X36345714Y-157002380D01*
X36012380Y-157383333D01*
X36155238Y-157383333D01*
X36250476Y-157430952D01*
X36298095Y-157478571D01*
X36345714Y-157573809D01*
X36345714Y-157811904D01*
X36298095Y-157907142D01*
X36250476Y-157954761D01*
X36155238Y-158002380D01*
X35869523Y-158002380D01*
X35774285Y-157954761D01*
X35726666Y-157907142D01*
X30218095Y-158372380D02*
X30218095Y-157372380D01*
X30789523Y-158372380D02*
X30360952Y-157800952D01*
X30789523Y-157372380D02*
X30218095Y-157943809D01*
%TO.C,U10*%
X224831904Y-145722380D02*
X224831904Y-146531904D01*
X224879523Y-146627142D01*
X224927142Y-146674761D01*
X225022380Y-146722380D01*
X225212857Y-146722380D01*
X225308095Y-146674761D01*
X225355714Y-146627142D01*
X225403333Y-146531904D01*
X225403333Y-145722380D01*
X226403333Y-146722380D02*
X225831904Y-146722380D01*
X226117619Y-146722380D02*
X226117619Y-145722380D01*
X226022380Y-145865238D01*
X225927142Y-145960476D01*
X225831904Y-146008095D01*
X227022380Y-145722380D02*
X227117619Y-145722380D01*
X227212857Y-145770000D01*
X227260476Y-145817619D01*
X227308095Y-145912857D01*
X227355714Y-146103333D01*
X227355714Y-146341428D01*
X227308095Y-146531904D01*
X227260476Y-146627142D01*
X227212857Y-146674761D01*
X227117619Y-146722380D01*
X227022380Y-146722380D01*
X226927142Y-146674761D01*
X226879523Y-146627142D01*
X226831904Y-146531904D01*
X226784285Y-146341428D01*
X226784285Y-146103333D01*
X226831904Y-145912857D01*
X226879523Y-145817619D01*
X226927142Y-145770000D01*
X227022380Y-145722380D01*
%TO.C,J4*%
X269186666Y-184942380D02*
X269186666Y-185656666D01*
X269139047Y-185799523D01*
X269043809Y-185894761D01*
X268900952Y-185942380D01*
X268805714Y-185942380D01*
X270091428Y-185275714D02*
X270091428Y-185942380D01*
X269853333Y-184894761D02*
X269615238Y-185609047D01*
X270234285Y-185609047D01*
D11*
%TO.C,C11*%
X265843571Y-146249571D02*
X265783095Y-146310047D01*
X265601666Y-146370523D01*
X265480714Y-146370523D01*
X265299285Y-146310047D01*
X265178333Y-146189095D01*
X265117857Y-146068142D01*
X265057380Y-145826238D01*
X265057380Y-145644809D01*
X265117857Y-145402904D01*
X265178333Y-145281952D01*
X265299285Y-145161000D01*
X265480714Y-145100523D01*
X265601666Y-145100523D01*
X265783095Y-145161000D01*
X265843571Y-145221476D01*
X267053095Y-146370523D02*
X266327380Y-146370523D01*
X266690238Y-146370523D02*
X266690238Y-145100523D01*
X266569285Y-145281952D01*
X266448333Y-145402904D01*
X266327380Y-145463380D01*
X268262619Y-146370523D02*
X267536904Y-146370523D01*
X267899761Y-146370523D02*
X267899761Y-145100523D01*
X267778809Y-145281952D01*
X267657857Y-145402904D01*
X267536904Y-145463380D01*
D10*
%TO.C,J7*%
X147226666Y-185162380D02*
X147226666Y-185876666D01*
X147179047Y-186019523D01*
X147083809Y-186114761D01*
X146940952Y-186162380D01*
X146845714Y-186162380D01*
X147607619Y-185162380D02*
X148274285Y-185162380D01*
X147845714Y-186162380D01*
%TO.C,R26*%
X48882380Y-112402857D02*
X48406190Y-112736190D01*
X48882380Y-112974285D02*
X47882380Y-112974285D01*
X47882380Y-112593333D01*
X47930000Y-112498095D01*
X47977619Y-112450476D01*
X48072857Y-112402857D01*
X48215714Y-112402857D01*
X48310952Y-112450476D01*
X48358571Y-112498095D01*
X48406190Y-112593333D01*
X48406190Y-112974285D01*
X47977619Y-112021904D02*
X47930000Y-111974285D01*
X47882380Y-111879047D01*
X47882380Y-111640952D01*
X47930000Y-111545714D01*
X47977619Y-111498095D01*
X48072857Y-111450476D01*
X48168095Y-111450476D01*
X48310952Y-111498095D01*
X48882380Y-112069523D01*
X48882380Y-111450476D01*
X47882380Y-110593333D02*
X47882380Y-110783809D01*
X47930000Y-110879047D01*
X47977619Y-110926666D01*
X48120476Y-111021904D01*
X48310952Y-111069523D01*
X48691904Y-111069523D01*
X48787142Y-111021904D01*
X48834761Y-110974285D01*
X48882380Y-110879047D01*
X48882380Y-110688571D01*
X48834761Y-110593333D01*
X48787142Y-110545714D01*
X48691904Y-110498095D01*
X48453809Y-110498095D01*
X48358571Y-110545714D01*
X48310952Y-110593333D01*
X48263333Y-110688571D01*
X48263333Y-110879047D01*
X48310952Y-110974285D01*
X48358571Y-111021904D01*
X48453809Y-111069523D01*
%TO.C,D10*%
X138485714Y-155462380D02*
X138485714Y-154462380D01*
X138723809Y-154462380D01*
X138866666Y-154510000D01*
X138961904Y-154605238D01*
X139009523Y-154700476D01*
X139057142Y-154890952D01*
X139057142Y-155033809D01*
X139009523Y-155224285D01*
X138961904Y-155319523D01*
X138866666Y-155414761D01*
X138723809Y-155462380D01*
X138485714Y-155462380D01*
X140009523Y-155462380D02*
X139438095Y-155462380D01*
X139723809Y-155462380D02*
X139723809Y-154462380D01*
X139628571Y-154605238D01*
X139533333Y-154700476D01*
X139438095Y-154748095D01*
X140628571Y-154462380D02*
X140723809Y-154462380D01*
X140819047Y-154510000D01*
X140866666Y-154557619D01*
X140914285Y-154652857D01*
X140961904Y-154843333D01*
X140961904Y-155081428D01*
X140914285Y-155271904D01*
X140866666Y-155367142D01*
X140819047Y-155414761D01*
X140723809Y-155462380D01*
X140628571Y-155462380D01*
X140533333Y-155414761D01*
X140485714Y-155367142D01*
X140438095Y-155271904D01*
X140390476Y-155081428D01*
X140390476Y-154843333D01*
X140438095Y-154652857D01*
X140485714Y-154557619D01*
X140533333Y-154510000D01*
X140628571Y-154462380D01*
X134358095Y-155832380D02*
X134358095Y-154832380D01*
X134929523Y-155832380D02*
X134500952Y-155260952D01*
X134929523Y-154832380D02*
X134358095Y-155403809D01*
D11*
%TO.C,U7*%
X90744523Y-168607619D02*
X91772619Y-168607619D01*
X91893571Y-168547142D01*
X91954047Y-168486666D01*
X92014523Y-168365714D01*
X92014523Y-168123809D01*
X91954047Y-168002857D01*
X91893571Y-167942380D01*
X91772619Y-167881904D01*
X90744523Y-167881904D01*
X90744523Y-167398095D02*
X90744523Y-166551428D01*
X92014523Y-167095714D01*
D10*
%TO.C,D7*%
X88161904Y-155462380D02*
X88161904Y-154462380D01*
X88400000Y-154462380D01*
X88542857Y-154510000D01*
X88638095Y-154605238D01*
X88685714Y-154700476D01*
X88733333Y-154890952D01*
X88733333Y-155033809D01*
X88685714Y-155224285D01*
X88638095Y-155319523D01*
X88542857Y-155414761D01*
X88400000Y-155462380D01*
X88161904Y-155462380D01*
X89066666Y-154462380D02*
X89733333Y-154462380D01*
X89304761Y-155462380D01*
X83558095Y-155832380D02*
X83558095Y-154832380D01*
X84129523Y-155832380D02*
X83700952Y-155260952D01*
X84129523Y-154832380D02*
X83558095Y-155403809D01*
%TO.C,R34*%
X97142380Y-112402857D02*
X96666190Y-112736190D01*
X97142380Y-112974285D02*
X96142380Y-112974285D01*
X96142380Y-112593333D01*
X96190000Y-112498095D01*
X96237619Y-112450476D01*
X96332857Y-112402857D01*
X96475714Y-112402857D01*
X96570952Y-112450476D01*
X96618571Y-112498095D01*
X96666190Y-112593333D01*
X96666190Y-112974285D01*
X96142380Y-112069523D02*
X96142380Y-111450476D01*
X96523333Y-111783809D01*
X96523333Y-111640952D01*
X96570952Y-111545714D01*
X96618571Y-111498095D01*
X96713809Y-111450476D01*
X96951904Y-111450476D01*
X97047142Y-111498095D01*
X97094761Y-111545714D01*
X97142380Y-111640952D01*
X97142380Y-111926666D01*
X97094761Y-112021904D01*
X97047142Y-112069523D01*
X96475714Y-110593333D02*
X97142380Y-110593333D01*
X96094761Y-110831428D02*
X96809047Y-111069523D01*
X96809047Y-110450476D01*
%TO.C,J10*%
X88330476Y-187702380D02*
X88330476Y-188416666D01*
X88282857Y-188559523D01*
X88187619Y-188654761D01*
X88044761Y-188702380D01*
X87949523Y-188702380D01*
X89330476Y-188702380D02*
X88759047Y-188702380D01*
X89044761Y-188702380D02*
X89044761Y-187702380D01*
X88949523Y-187845238D01*
X88854285Y-187940476D01*
X88759047Y-187988095D01*
X89949523Y-187702380D02*
X90044761Y-187702380D01*
X90140000Y-187750000D01*
X90187619Y-187797619D01*
X90235238Y-187892857D01*
X90282857Y-188083333D01*
X90282857Y-188321428D01*
X90235238Y-188511904D01*
X90187619Y-188607142D01*
X90140000Y-188654761D01*
X90044761Y-188702380D01*
X89949523Y-188702380D01*
X89854285Y-188654761D01*
X89806666Y-188607142D01*
X89759047Y-188511904D01*
X89711428Y-188321428D01*
X89711428Y-188083333D01*
X89759047Y-187892857D01*
X89806666Y-187797619D01*
X89854285Y-187750000D01*
X89949523Y-187702380D01*
%TO.C,U19*%
X204486904Y-119052380D02*
X204486904Y-119861904D01*
X204534523Y-119957142D01*
X204582142Y-120004761D01*
X204677380Y-120052380D01*
X204867857Y-120052380D01*
X204963095Y-120004761D01*
X205010714Y-119957142D01*
X205058333Y-119861904D01*
X205058333Y-119052380D01*
X206058333Y-120052380D02*
X205486904Y-120052380D01*
X205772619Y-120052380D02*
X205772619Y-119052380D01*
X205677380Y-119195238D01*
X205582142Y-119290476D01*
X205486904Y-119338095D01*
X206534523Y-120052380D02*
X206725000Y-120052380D01*
X206820238Y-120004761D01*
X206867857Y-119957142D01*
X206963095Y-119814285D01*
X207010714Y-119623809D01*
X207010714Y-119242857D01*
X206963095Y-119147619D01*
X206915476Y-119100000D01*
X206820238Y-119052380D01*
X206629761Y-119052380D01*
X206534523Y-119100000D01*
X206486904Y-119147619D01*
X206439285Y-119242857D01*
X206439285Y-119480952D01*
X206486904Y-119576190D01*
X206534523Y-119623809D01*
X206629761Y-119671428D01*
X206820238Y-119671428D01*
X206915476Y-119623809D01*
X206963095Y-119576190D01*
X207010714Y-119480952D01*
%TO.C,R41*%
X127622380Y-112402857D02*
X127146190Y-112736190D01*
X127622380Y-112974285D02*
X126622380Y-112974285D01*
X126622380Y-112593333D01*
X126670000Y-112498095D01*
X126717619Y-112450476D01*
X126812857Y-112402857D01*
X126955714Y-112402857D01*
X127050952Y-112450476D01*
X127098571Y-112498095D01*
X127146190Y-112593333D01*
X127146190Y-112974285D01*
X126955714Y-111545714D02*
X127622380Y-111545714D01*
X126574761Y-111783809D02*
X127289047Y-112021904D01*
X127289047Y-111402857D01*
X127622380Y-110498095D02*
X127622380Y-111069523D01*
X127622380Y-110783809D02*
X126622380Y-110783809D01*
X126765238Y-110879047D01*
X126860476Y-110974285D01*
X126908095Y-111069523D01*
%TO.C,R38*%
X112382380Y-112402857D02*
X111906190Y-112736190D01*
X112382380Y-112974285D02*
X111382380Y-112974285D01*
X111382380Y-112593333D01*
X111430000Y-112498095D01*
X111477619Y-112450476D01*
X111572857Y-112402857D01*
X111715714Y-112402857D01*
X111810952Y-112450476D01*
X111858571Y-112498095D01*
X111906190Y-112593333D01*
X111906190Y-112974285D01*
X111382380Y-112069523D02*
X111382380Y-111450476D01*
X111763333Y-111783809D01*
X111763333Y-111640952D01*
X111810952Y-111545714D01*
X111858571Y-111498095D01*
X111953809Y-111450476D01*
X112191904Y-111450476D01*
X112287142Y-111498095D01*
X112334761Y-111545714D01*
X112382380Y-111640952D01*
X112382380Y-111926666D01*
X112334761Y-112021904D01*
X112287142Y-112069523D01*
X111810952Y-110879047D02*
X111763333Y-110974285D01*
X111715714Y-111021904D01*
X111620476Y-111069523D01*
X111572857Y-111069523D01*
X111477619Y-111021904D01*
X111430000Y-110974285D01*
X111382380Y-110879047D01*
X111382380Y-110688571D01*
X111430000Y-110593333D01*
X111477619Y-110545714D01*
X111572857Y-110498095D01*
X111620476Y-110498095D01*
X111715714Y-110545714D01*
X111763333Y-110593333D01*
X111810952Y-110688571D01*
X111810952Y-110879047D01*
X111858571Y-110974285D01*
X111906190Y-111021904D01*
X112001428Y-111069523D01*
X112191904Y-111069523D01*
X112287142Y-111021904D01*
X112334761Y-110974285D01*
X112382380Y-110879047D01*
X112382380Y-110688571D01*
X112334761Y-110593333D01*
X112287142Y-110545714D01*
X112191904Y-110498095D01*
X112001428Y-110498095D01*
X111906190Y-110545714D01*
X111858571Y-110593333D01*
X111810952Y-110688571D01*
D11*
%TO.C,IC4*%
X176560238Y-132654523D02*
X176560238Y-131384523D01*
X177890714Y-132533571D02*
X177830238Y-132594047D01*
X177648809Y-132654523D01*
X177527857Y-132654523D01*
X177346428Y-132594047D01*
X177225476Y-132473095D01*
X177165000Y-132352142D01*
X177104523Y-132110238D01*
X177104523Y-131928809D01*
X177165000Y-131686904D01*
X177225476Y-131565952D01*
X177346428Y-131445000D01*
X177527857Y-131384523D01*
X177648809Y-131384523D01*
X177830238Y-131445000D01*
X177890714Y-131505476D01*
X178979285Y-131807857D02*
X178979285Y-132654523D01*
X178676904Y-131324047D02*
X178374523Y-132231190D01*
X179160714Y-132231190D01*
D10*
%TO.C,R45*%
X135242380Y-112402857D02*
X134766190Y-112736190D01*
X135242380Y-112974285D02*
X134242380Y-112974285D01*
X134242380Y-112593333D01*
X134290000Y-112498095D01*
X134337619Y-112450476D01*
X134432857Y-112402857D01*
X134575714Y-112402857D01*
X134670952Y-112450476D01*
X134718571Y-112498095D01*
X134766190Y-112593333D01*
X134766190Y-112974285D01*
X134575714Y-111545714D02*
X135242380Y-111545714D01*
X134194761Y-111783809D02*
X134909047Y-112021904D01*
X134909047Y-111402857D01*
X134242380Y-110545714D02*
X134242380Y-111021904D01*
X134718571Y-111069523D01*
X134670952Y-111021904D01*
X134623333Y-110926666D01*
X134623333Y-110688571D01*
X134670952Y-110593333D01*
X134718571Y-110545714D01*
X134813809Y-110498095D01*
X135051904Y-110498095D01*
X135147142Y-110545714D01*
X135194761Y-110593333D01*
X135242380Y-110688571D01*
X135242380Y-110926666D01*
X135194761Y-111021904D01*
X135147142Y-111069523D01*
%TO.C,R40*%
X122542380Y-112402857D02*
X122066190Y-112736190D01*
X122542380Y-112974285D02*
X121542380Y-112974285D01*
X121542380Y-112593333D01*
X121590000Y-112498095D01*
X121637619Y-112450476D01*
X121732857Y-112402857D01*
X121875714Y-112402857D01*
X121970952Y-112450476D01*
X122018571Y-112498095D01*
X122066190Y-112593333D01*
X122066190Y-112974285D01*
X121875714Y-111545714D02*
X122542380Y-111545714D01*
X121494761Y-111783809D02*
X122209047Y-112021904D01*
X122209047Y-111402857D01*
X121542380Y-110831428D02*
X121542380Y-110736190D01*
X121590000Y-110640952D01*
X121637619Y-110593333D01*
X121732857Y-110545714D01*
X121923333Y-110498095D01*
X122161428Y-110498095D01*
X122351904Y-110545714D01*
X122447142Y-110593333D01*
X122494761Y-110640952D01*
X122542380Y-110736190D01*
X122542380Y-110831428D01*
X122494761Y-110926666D01*
X122447142Y-110974285D01*
X122351904Y-111021904D01*
X122161428Y-111069523D01*
X121923333Y-111069523D01*
X121732857Y-111021904D01*
X121637619Y-110974285D01*
X121590000Y-110926666D01*
X121542380Y-110831428D01*
%TO.C,R63*%
X264782380Y-112402857D02*
X264306190Y-112736190D01*
X264782380Y-112974285D02*
X263782380Y-112974285D01*
X263782380Y-112593333D01*
X263830000Y-112498095D01*
X263877619Y-112450476D01*
X263972857Y-112402857D01*
X264115714Y-112402857D01*
X264210952Y-112450476D01*
X264258571Y-112498095D01*
X264306190Y-112593333D01*
X264306190Y-112974285D01*
X263782380Y-111545714D02*
X263782380Y-111736190D01*
X263830000Y-111831428D01*
X263877619Y-111879047D01*
X264020476Y-111974285D01*
X264210952Y-112021904D01*
X264591904Y-112021904D01*
X264687142Y-111974285D01*
X264734761Y-111926666D01*
X264782380Y-111831428D01*
X264782380Y-111640952D01*
X264734761Y-111545714D01*
X264687142Y-111498095D01*
X264591904Y-111450476D01*
X264353809Y-111450476D01*
X264258571Y-111498095D01*
X264210952Y-111545714D01*
X264163333Y-111640952D01*
X264163333Y-111831428D01*
X264210952Y-111926666D01*
X264258571Y-111974285D01*
X264353809Y-112021904D01*
X263782380Y-111117142D02*
X263782380Y-110498095D01*
X264163333Y-110831428D01*
X264163333Y-110688571D01*
X264210952Y-110593333D01*
X264258571Y-110545714D01*
X264353809Y-110498095D01*
X264591904Y-110498095D01*
X264687142Y-110545714D01*
X264734761Y-110593333D01*
X264782380Y-110688571D01*
X264782380Y-110974285D01*
X264734761Y-111069523D01*
X264687142Y-111117142D01*
%TO.C,R51*%
X201282380Y-112402857D02*
X200806190Y-112736190D01*
X201282380Y-112974285D02*
X200282380Y-112974285D01*
X200282380Y-112593333D01*
X200330000Y-112498095D01*
X200377619Y-112450476D01*
X200472857Y-112402857D01*
X200615714Y-112402857D01*
X200710952Y-112450476D01*
X200758571Y-112498095D01*
X200806190Y-112593333D01*
X200806190Y-112974285D01*
X200282380Y-111498095D02*
X200282380Y-111974285D01*
X200758571Y-112021904D01*
X200710952Y-111974285D01*
X200663333Y-111879047D01*
X200663333Y-111640952D01*
X200710952Y-111545714D01*
X200758571Y-111498095D01*
X200853809Y-111450476D01*
X201091904Y-111450476D01*
X201187142Y-111498095D01*
X201234761Y-111545714D01*
X201282380Y-111640952D01*
X201282380Y-111879047D01*
X201234761Y-111974285D01*
X201187142Y-112021904D01*
X201282380Y-110498095D02*
X201282380Y-111069523D01*
X201282380Y-110783809D02*
X200282380Y-110783809D01*
X200425238Y-110879047D01*
X200520476Y-110974285D01*
X200568095Y-111069523D01*
%TO.C,R62*%
X259702380Y-112402857D02*
X259226190Y-112736190D01*
X259702380Y-112974285D02*
X258702380Y-112974285D01*
X258702380Y-112593333D01*
X258750000Y-112498095D01*
X258797619Y-112450476D01*
X258892857Y-112402857D01*
X259035714Y-112402857D01*
X259130952Y-112450476D01*
X259178571Y-112498095D01*
X259226190Y-112593333D01*
X259226190Y-112974285D01*
X258702380Y-111545714D02*
X258702380Y-111736190D01*
X258750000Y-111831428D01*
X258797619Y-111879047D01*
X258940476Y-111974285D01*
X259130952Y-112021904D01*
X259511904Y-112021904D01*
X259607142Y-111974285D01*
X259654761Y-111926666D01*
X259702380Y-111831428D01*
X259702380Y-111640952D01*
X259654761Y-111545714D01*
X259607142Y-111498095D01*
X259511904Y-111450476D01*
X259273809Y-111450476D01*
X259178571Y-111498095D01*
X259130952Y-111545714D01*
X259083333Y-111640952D01*
X259083333Y-111831428D01*
X259130952Y-111926666D01*
X259178571Y-111974285D01*
X259273809Y-112021904D01*
X258797619Y-111069523D02*
X258750000Y-111021904D01*
X258702380Y-110926666D01*
X258702380Y-110688571D01*
X258750000Y-110593333D01*
X258797619Y-110545714D01*
X258892857Y-110498095D01*
X258988095Y-110498095D01*
X259130952Y-110545714D01*
X259702380Y-111117142D01*
X259702380Y-110498095D01*
%TO.C,R58*%
X244462380Y-112402857D02*
X243986190Y-112736190D01*
X244462380Y-112974285D02*
X243462380Y-112974285D01*
X243462380Y-112593333D01*
X243510000Y-112498095D01*
X243557619Y-112450476D01*
X243652857Y-112402857D01*
X243795714Y-112402857D01*
X243890952Y-112450476D01*
X243938571Y-112498095D01*
X243986190Y-112593333D01*
X243986190Y-112974285D01*
X243462380Y-111498095D02*
X243462380Y-111974285D01*
X243938571Y-112021904D01*
X243890952Y-111974285D01*
X243843333Y-111879047D01*
X243843333Y-111640952D01*
X243890952Y-111545714D01*
X243938571Y-111498095D01*
X244033809Y-111450476D01*
X244271904Y-111450476D01*
X244367142Y-111498095D01*
X244414761Y-111545714D01*
X244462380Y-111640952D01*
X244462380Y-111879047D01*
X244414761Y-111974285D01*
X244367142Y-112021904D01*
X243890952Y-110879047D02*
X243843333Y-110974285D01*
X243795714Y-111021904D01*
X243700476Y-111069523D01*
X243652857Y-111069523D01*
X243557619Y-111021904D01*
X243510000Y-110974285D01*
X243462380Y-110879047D01*
X243462380Y-110688571D01*
X243510000Y-110593333D01*
X243557619Y-110545714D01*
X243652857Y-110498095D01*
X243700476Y-110498095D01*
X243795714Y-110545714D01*
X243843333Y-110593333D01*
X243890952Y-110688571D01*
X243890952Y-110879047D01*
X243938571Y-110974285D01*
X243986190Y-111021904D01*
X244081428Y-111069523D01*
X244271904Y-111069523D01*
X244367142Y-111021904D01*
X244414761Y-110974285D01*
X244462380Y-110879047D01*
X244462380Y-110688571D01*
X244414761Y-110593333D01*
X244367142Y-110545714D01*
X244271904Y-110498095D01*
X244081428Y-110498095D01*
X243986190Y-110545714D01*
X243938571Y-110593333D01*
X243890952Y-110688571D01*
%TO.C,D16*%
X240085714Y-152252380D02*
X240085714Y-151252380D01*
X240323809Y-151252380D01*
X240466666Y-151300000D01*
X240561904Y-151395238D01*
X240609523Y-151490476D01*
X240657142Y-151680952D01*
X240657142Y-151823809D01*
X240609523Y-152014285D01*
X240561904Y-152109523D01*
X240466666Y-152204761D01*
X240323809Y-152252380D01*
X240085714Y-152252380D01*
X241609523Y-152252380D02*
X241038095Y-152252380D01*
X241323809Y-152252380D02*
X241323809Y-151252380D01*
X241228571Y-151395238D01*
X241133333Y-151490476D01*
X241038095Y-151538095D01*
X242466666Y-151252380D02*
X242276190Y-151252380D01*
X242180952Y-151300000D01*
X242133333Y-151347619D01*
X242038095Y-151490476D01*
X241990476Y-151680952D01*
X241990476Y-152061904D01*
X242038095Y-152157142D01*
X242085714Y-152204761D01*
X242180952Y-152252380D01*
X242371428Y-152252380D01*
X242466666Y-152204761D01*
X242514285Y-152157142D01*
X242561904Y-152061904D01*
X242561904Y-151823809D01*
X242514285Y-151728571D01*
X242466666Y-151680952D01*
X242371428Y-151633333D01*
X242180952Y-151633333D01*
X242085714Y-151680952D01*
X242038095Y-151728571D01*
X241990476Y-151823809D01*
X235958095Y-152622380D02*
X235958095Y-151622380D01*
X236529523Y-152622380D02*
X236100952Y-152050952D01*
X236529523Y-151622380D02*
X235958095Y-152193809D01*
%TO.C,U20*%
X255286904Y-119052380D02*
X255286904Y-119861904D01*
X255334523Y-119957142D01*
X255382142Y-120004761D01*
X255477380Y-120052380D01*
X255667857Y-120052380D01*
X255763095Y-120004761D01*
X255810714Y-119957142D01*
X255858333Y-119861904D01*
X255858333Y-119052380D01*
X256286904Y-119147619D02*
X256334523Y-119100000D01*
X256429761Y-119052380D01*
X256667857Y-119052380D01*
X256763095Y-119100000D01*
X256810714Y-119147619D01*
X256858333Y-119242857D01*
X256858333Y-119338095D01*
X256810714Y-119480952D01*
X256239285Y-120052380D01*
X256858333Y-120052380D01*
X257477380Y-119052380D02*
X257572619Y-119052380D01*
X257667857Y-119100000D01*
X257715476Y-119147619D01*
X257763095Y-119242857D01*
X257810714Y-119433333D01*
X257810714Y-119671428D01*
X257763095Y-119861904D01*
X257715476Y-119957142D01*
X257667857Y-120004761D01*
X257572619Y-120052380D01*
X257477380Y-120052380D01*
X257382142Y-120004761D01*
X257334523Y-119957142D01*
X257286904Y-119861904D01*
X257239285Y-119671428D01*
X257239285Y-119433333D01*
X257286904Y-119242857D01*
X257334523Y-119147619D01*
X257382142Y-119100000D01*
X257477380Y-119052380D01*
%TO.C,J2*%
X228266666Y-184462380D02*
X228266666Y-185176666D01*
X228219047Y-185319523D01*
X228123809Y-185414761D01*
X227980952Y-185462380D01*
X227885714Y-185462380D01*
X228695238Y-184557619D02*
X228742857Y-184510000D01*
X228838095Y-184462380D01*
X229076190Y-184462380D01*
X229171428Y-184510000D01*
X229219047Y-184557619D01*
X229266666Y-184652857D01*
X229266666Y-184748095D01*
X229219047Y-184890952D01*
X228647619Y-185462380D01*
X229266666Y-185462380D01*
%TO.C,R16*%
X31102380Y-112402857D02*
X30626190Y-112736190D01*
X31102380Y-112974285D02*
X30102380Y-112974285D01*
X30102380Y-112593333D01*
X30150000Y-112498095D01*
X30197619Y-112450476D01*
X30292857Y-112402857D01*
X30435714Y-112402857D01*
X30530952Y-112450476D01*
X30578571Y-112498095D01*
X30626190Y-112593333D01*
X30626190Y-112974285D01*
X31102380Y-111450476D02*
X31102380Y-112021904D01*
X31102380Y-111736190D02*
X30102380Y-111736190D01*
X30245238Y-111831428D01*
X30340476Y-111926666D01*
X30388095Y-112021904D01*
X30102380Y-110593333D02*
X30102380Y-110783809D01*
X30150000Y-110879047D01*
X30197619Y-110926666D01*
X30340476Y-111021904D01*
X30530952Y-111069523D01*
X30911904Y-111069523D01*
X31007142Y-111021904D01*
X31054761Y-110974285D01*
X31102380Y-110879047D01*
X31102380Y-110688571D01*
X31054761Y-110593333D01*
X31007142Y-110545714D01*
X30911904Y-110498095D01*
X30673809Y-110498095D01*
X30578571Y-110545714D01*
X30530952Y-110593333D01*
X30483333Y-110688571D01*
X30483333Y-110879047D01*
X30530952Y-110974285D01*
X30578571Y-111021904D01*
X30673809Y-111069523D01*
D11*
%TO.C,C2*%
X282728333Y-166696571D02*
X282667857Y-166757047D01*
X282486428Y-166817523D01*
X282365476Y-166817523D01*
X282184047Y-166757047D01*
X282063095Y-166636095D01*
X282002619Y-166515142D01*
X281942142Y-166273238D01*
X281942142Y-166091809D01*
X282002619Y-165849904D01*
X282063095Y-165728952D01*
X282184047Y-165608000D01*
X282365476Y-165547523D01*
X282486428Y-165547523D01*
X282667857Y-165608000D01*
X282728333Y-165668476D01*
X283212142Y-165668476D02*
X283272619Y-165608000D01*
X283393571Y-165547523D01*
X283695952Y-165547523D01*
X283816904Y-165608000D01*
X283877380Y-165668476D01*
X283937857Y-165789428D01*
X283937857Y-165910380D01*
X283877380Y-166091809D01*
X283151666Y-166817523D01*
X283937857Y-166817523D01*
D10*
%TO.C,R65*%
X274942380Y-112402857D02*
X274466190Y-112736190D01*
X274942380Y-112974285D02*
X273942380Y-112974285D01*
X273942380Y-112593333D01*
X273990000Y-112498095D01*
X274037619Y-112450476D01*
X274132857Y-112402857D01*
X274275714Y-112402857D01*
X274370952Y-112450476D01*
X274418571Y-112498095D01*
X274466190Y-112593333D01*
X274466190Y-112974285D01*
X273942380Y-111545714D02*
X273942380Y-111736190D01*
X273990000Y-111831428D01*
X274037619Y-111879047D01*
X274180476Y-111974285D01*
X274370952Y-112021904D01*
X274751904Y-112021904D01*
X274847142Y-111974285D01*
X274894761Y-111926666D01*
X274942380Y-111831428D01*
X274942380Y-111640952D01*
X274894761Y-111545714D01*
X274847142Y-111498095D01*
X274751904Y-111450476D01*
X274513809Y-111450476D01*
X274418571Y-111498095D01*
X274370952Y-111545714D01*
X274323333Y-111640952D01*
X274323333Y-111831428D01*
X274370952Y-111926666D01*
X274418571Y-111974285D01*
X274513809Y-112021904D01*
X273942380Y-110545714D02*
X273942380Y-111021904D01*
X274418571Y-111069523D01*
X274370952Y-111021904D01*
X274323333Y-110926666D01*
X274323333Y-110688571D01*
X274370952Y-110593333D01*
X274418571Y-110545714D01*
X274513809Y-110498095D01*
X274751904Y-110498095D01*
X274847142Y-110545714D01*
X274894761Y-110593333D01*
X274942380Y-110688571D01*
X274942380Y-110926666D01*
X274894761Y-111021904D01*
X274847142Y-111069523D01*
%TO.C,R56*%
X221602380Y-112402857D02*
X221126190Y-112736190D01*
X221602380Y-112974285D02*
X220602380Y-112974285D01*
X220602380Y-112593333D01*
X220650000Y-112498095D01*
X220697619Y-112450476D01*
X220792857Y-112402857D01*
X220935714Y-112402857D01*
X221030952Y-112450476D01*
X221078571Y-112498095D01*
X221126190Y-112593333D01*
X221126190Y-112974285D01*
X220602380Y-111498095D02*
X220602380Y-111974285D01*
X221078571Y-112021904D01*
X221030952Y-111974285D01*
X220983333Y-111879047D01*
X220983333Y-111640952D01*
X221030952Y-111545714D01*
X221078571Y-111498095D01*
X221173809Y-111450476D01*
X221411904Y-111450476D01*
X221507142Y-111498095D01*
X221554761Y-111545714D01*
X221602380Y-111640952D01*
X221602380Y-111879047D01*
X221554761Y-111974285D01*
X221507142Y-112021904D01*
X220602380Y-110593333D02*
X220602380Y-110783809D01*
X220650000Y-110879047D01*
X220697619Y-110926666D01*
X220840476Y-111021904D01*
X221030952Y-111069523D01*
X221411904Y-111069523D01*
X221507142Y-111021904D01*
X221554761Y-110974285D01*
X221602380Y-110879047D01*
X221602380Y-110688571D01*
X221554761Y-110593333D01*
X221507142Y-110545714D01*
X221411904Y-110498095D01*
X221173809Y-110498095D01*
X221078571Y-110545714D01*
X221030952Y-110593333D01*
X220983333Y-110688571D01*
X220983333Y-110879047D01*
X221030952Y-110974285D01*
X221078571Y-111021904D01*
X221173809Y-111069523D01*
D11*
%TO.C,C4*%
X56668333Y-164283571D02*
X56607857Y-164344047D01*
X56426428Y-164404523D01*
X56305476Y-164404523D01*
X56124047Y-164344047D01*
X56003095Y-164223095D01*
X55942619Y-164102142D01*
X55882142Y-163860238D01*
X55882142Y-163678809D01*
X55942619Y-163436904D01*
X56003095Y-163315952D01*
X56124047Y-163195000D01*
X56305476Y-163134523D01*
X56426428Y-163134523D01*
X56607857Y-163195000D01*
X56668333Y-163255476D01*
X57756904Y-163557857D02*
X57756904Y-164404523D01*
X57454523Y-163074047D02*
X57152142Y-163981190D01*
X57938333Y-163981190D01*
D10*
%TO.C,R55*%
X216522380Y-112402857D02*
X216046190Y-112736190D01*
X216522380Y-112974285D02*
X215522380Y-112974285D01*
X215522380Y-112593333D01*
X215570000Y-112498095D01*
X215617619Y-112450476D01*
X215712857Y-112402857D01*
X215855714Y-112402857D01*
X215950952Y-112450476D01*
X215998571Y-112498095D01*
X216046190Y-112593333D01*
X216046190Y-112974285D01*
X215522380Y-111498095D02*
X215522380Y-111974285D01*
X215998571Y-112021904D01*
X215950952Y-111974285D01*
X215903333Y-111879047D01*
X215903333Y-111640952D01*
X215950952Y-111545714D01*
X215998571Y-111498095D01*
X216093809Y-111450476D01*
X216331904Y-111450476D01*
X216427142Y-111498095D01*
X216474761Y-111545714D01*
X216522380Y-111640952D01*
X216522380Y-111879047D01*
X216474761Y-111974285D01*
X216427142Y-112021904D01*
X215522380Y-110545714D02*
X215522380Y-111021904D01*
X215998571Y-111069523D01*
X215950952Y-111021904D01*
X215903333Y-110926666D01*
X215903333Y-110688571D01*
X215950952Y-110593333D01*
X215998571Y-110545714D01*
X216093809Y-110498095D01*
X216331904Y-110498095D01*
X216427142Y-110545714D01*
X216474761Y-110593333D01*
X216522380Y-110688571D01*
X216522380Y-110926666D01*
X216474761Y-111021904D01*
X216427142Y-111069523D01*
%TO.C,R30*%
X161917142Y-178422380D02*
X161583809Y-177946190D01*
X161345714Y-178422380D02*
X161345714Y-177422380D01*
X161726666Y-177422380D01*
X161821904Y-177470000D01*
X161869523Y-177517619D01*
X161917142Y-177612857D01*
X161917142Y-177755714D01*
X161869523Y-177850952D01*
X161821904Y-177898571D01*
X161726666Y-177946190D01*
X161345714Y-177946190D01*
X162250476Y-177422380D02*
X162869523Y-177422380D01*
X162536190Y-177803333D01*
X162679047Y-177803333D01*
X162774285Y-177850952D01*
X162821904Y-177898571D01*
X162869523Y-177993809D01*
X162869523Y-178231904D01*
X162821904Y-178327142D01*
X162774285Y-178374761D01*
X162679047Y-178422380D01*
X162393333Y-178422380D01*
X162298095Y-178374761D01*
X162250476Y-178327142D01*
X163488571Y-177422380D02*
X163583809Y-177422380D01*
X163679047Y-177470000D01*
X163726666Y-177517619D01*
X163774285Y-177612857D01*
X163821904Y-177803333D01*
X163821904Y-178041428D01*
X163774285Y-178231904D01*
X163726666Y-178327142D01*
X163679047Y-178374761D01*
X163583809Y-178422380D01*
X163488571Y-178422380D01*
X163393333Y-178374761D01*
X163345714Y-178327142D01*
X163298095Y-178231904D01*
X163250476Y-178041428D01*
X163250476Y-177803333D01*
X163298095Y-177612857D01*
X163345714Y-177517619D01*
X163393333Y-177470000D01*
X163488571Y-177422380D01*
%TO.C,U4*%
X29272380Y-182241904D02*
X30081904Y-182241904D01*
X30177142Y-182194285D01*
X30224761Y-182146666D01*
X30272380Y-182051428D01*
X30272380Y-181860952D01*
X30224761Y-181765714D01*
X30177142Y-181718095D01*
X30081904Y-181670476D01*
X29272380Y-181670476D01*
X29605714Y-180765714D02*
X30272380Y-180765714D01*
X29224761Y-181003809D02*
X29939047Y-181241904D01*
X29939047Y-180622857D01*
%TO.C,R59*%
X249542380Y-112402857D02*
X249066190Y-112736190D01*
X249542380Y-112974285D02*
X248542380Y-112974285D01*
X248542380Y-112593333D01*
X248590000Y-112498095D01*
X248637619Y-112450476D01*
X248732857Y-112402857D01*
X248875714Y-112402857D01*
X248970952Y-112450476D01*
X249018571Y-112498095D01*
X249066190Y-112593333D01*
X249066190Y-112974285D01*
X248542380Y-111498095D02*
X248542380Y-111974285D01*
X249018571Y-112021904D01*
X248970952Y-111974285D01*
X248923333Y-111879047D01*
X248923333Y-111640952D01*
X248970952Y-111545714D01*
X249018571Y-111498095D01*
X249113809Y-111450476D01*
X249351904Y-111450476D01*
X249447142Y-111498095D01*
X249494761Y-111545714D01*
X249542380Y-111640952D01*
X249542380Y-111879047D01*
X249494761Y-111974285D01*
X249447142Y-112021904D01*
X249542380Y-110974285D02*
X249542380Y-110783809D01*
X249494761Y-110688571D01*
X249447142Y-110640952D01*
X249304285Y-110545714D01*
X249113809Y-110498095D01*
X248732857Y-110498095D01*
X248637619Y-110545714D01*
X248590000Y-110593333D01*
X248542380Y-110688571D01*
X248542380Y-110879047D01*
X248590000Y-110974285D01*
X248637619Y-111021904D01*
X248732857Y-111069523D01*
X248970952Y-111069523D01*
X249066190Y-111021904D01*
X249113809Y-110974285D01*
X249161428Y-110879047D01*
X249161428Y-110688571D01*
X249113809Y-110593333D01*
X249066190Y-110545714D01*
X248970952Y-110498095D01*
%TO.C,D8*%
X138961904Y-145232380D02*
X138961904Y-144232380D01*
X139200000Y-144232380D01*
X139342857Y-144280000D01*
X139438095Y-144375238D01*
X139485714Y-144470476D01*
X139533333Y-144660952D01*
X139533333Y-144803809D01*
X139485714Y-144994285D01*
X139438095Y-145089523D01*
X139342857Y-145184761D01*
X139200000Y-145232380D01*
X138961904Y-145232380D01*
X140104761Y-144660952D02*
X140009523Y-144613333D01*
X139961904Y-144565714D01*
X139914285Y-144470476D01*
X139914285Y-144422857D01*
X139961904Y-144327619D01*
X140009523Y-144280000D01*
X140104761Y-144232380D01*
X140295238Y-144232380D01*
X140390476Y-144280000D01*
X140438095Y-144327619D01*
X140485714Y-144422857D01*
X140485714Y-144470476D01*
X140438095Y-144565714D01*
X140390476Y-144613333D01*
X140295238Y-144660952D01*
X140104761Y-144660952D01*
X140009523Y-144708571D01*
X139961904Y-144756190D01*
X139914285Y-144851428D01*
X139914285Y-145041904D01*
X139961904Y-145137142D01*
X140009523Y-145184761D01*
X140104761Y-145232380D01*
X140295238Y-145232380D01*
X140390476Y-145184761D01*
X140438095Y-145137142D01*
X140485714Y-145041904D01*
X140485714Y-144851428D01*
X140438095Y-144756190D01*
X140390476Y-144708571D01*
X140295238Y-144660952D01*
X134358095Y-145672380D02*
X134358095Y-144672380D01*
X134929523Y-145672380D02*
X134500952Y-145100952D01*
X134929523Y-144672380D02*
X134358095Y-145243809D01*
%TO.C,U15*%
X87307380Y-181568095D02*
X88116904Y-181568095D01*
X88212142Y-181520476D01*
X88259761Y-181472857D01*
X88307380Y-181377619D01*
X88307380Y-181187142D01*
X88259761Y-181091904D01*
X88212142Y-181044285D01*
X88116904Y-180996666D01*
X87307380Y-180996666D01*
X88307380Y-179996666D02*
X88307380Y-180568095D01*
X88307380Y-180282380D02*
X87307380Y-180282380D01*
X87450238Y-180377619D01*
X87545476Y-180472857D01*
X87593095Y-180568095D01*
X87307380Y-179091904D02*
X87307380Y-179568095D01*
X87783571Y-179615714D01*
X87735952Y-179568095D01*
X87688333Y-179472857D01*
X87688333Y-179234761D01*
X87735952Y-179139523D01*
X87783571Y-179091904D01*
X87878809Y-179044285D01*
X88116904Y-179044285D01*
X88212142Y-179091904D01*
X88259761Y-179139523D01*
X88307380Y-179234761D01*
X88307380Y-179472857D01*
X88259761Y-179568095D01*
X88212142Y-179615714D01*
%TO.C,R9*%
X134453333Y-183502380D02*
X134120000Y-183026190D01*
X133881904Y-183502380D02*
X133881904Y-182502380D01*
X134262857Y-182502380D01*
X134358095Y-182550000D01*
X134405714Y-182597619D01*
X134453333Y-182692857D01*
X134453333Y-182835714D01*
X134405714Y-182930952D01*
X134358095Y-182978571D01*
X134262857Y-183026190D01*
X133881904Y-183026190D01*
X134929523Y-183502380D02*
X135120000Y-183502380D01*
X135215238Y-183454761D01*
X135262857Y-183407142D01*
X135358095Y-183264285D01*
X135405714Y-183073809D01*
X135405714Y-182692857D01*
X135358095Y-182597619D01*
X135310476Y-182550000D01*
X135215238Y-182502380D01*
X135024761Y-182502380D01*
X134929523Y-182550000D01*
X134881904Y-182597619D01*
X134834285Y-182692857D01*
X134834285Y-182930952D01*
X134881904Y-183026190D01*
X134929523Y-183073809D01*
X135024761Y-183121428D01*
X135215238Y-183121428D01*
X135310476Y-183073809D01*
X135358095Y-183026190D01*
X135405714Y-182930952D01*
%TO.C,D6*%
X88161904Y-150382380D02*
X88161904Y-149382380D01*
X88400000Y-149382380D01*
X88542857Y-149430000D01*
X88638095Y-149525238D01*
X88685714Y-149620476D01*
X88733333Y-149810952D01*
X88733333Y-149953809D01*
X88685714Y-150144285D01*
X88638095Y-150239523D01*
X88542857Y-150334761D01*
X88400000Y-150382380D01*
X88161904Y-150382380D01*
X89590476Y-149382380D02*
X89400000Y-149382380D01*
X89304761Y-149430000D01*
X89257142Y-149477619D01*
X89161904Y-149620476D01*
X89114285Y-149810952D01*
X89114285Y-150191904D01*
X89161904Y-150287142D01*
X89209523Y-150334761D01*
X89304761Y-150382380D01*
X89495238Y-150382380D01*
X89590476Y-150334761D01*
X89638095Y-150287142D01*
X89685714Y-150191904D01*
X89685714Y-149953809D01*
X89638095Y-149858571D01*
X89590476Y-149810952D01*
X89495238Y-149763333D01*
X89304761Y-149763333D01*
X89209523Y-149810952D01*
X89161904Y-149858571D01*
X89114285Y-149953809D01*
X83558095Y-150752380D02*
X83558095Y-149752380D01*
X84129523Y-150752380D02*
X83700952Y-150180952D01*
X84129523Y-149752380D02*
X83558095Y-150323809D01*
%TO.C,R22*%
X278757142Y-127622380D02*
X278423809Y-127146190D01*
X278185714Y-127622380D02*
X278185714Y-126622380D01*
X278566666Y-126622380D01*
X278661904Y-126670000D01*
X278709523Y-126717619D01*
X278757142Y-126812857D01*
X278757142Y-126955714D01*
X278709523Y-127050952D01*
X278661904Y-127098571D01*
X278566666Y-127146190D01*
X278185714Y-127146190D01*
X279138095Y-126717619D02*
X279185714Y-126670000D01*
X279280952Y-126622380D01*
X279519047Y-126622380D01*
X279614285Y-126670000D01*
X279661904Y-126717619D01*
X279709523Y-126812857D01*
X279709523Y-126908095D01*
X279661904Y-127050952D01*
X279090476Y-127622380D01*
X279709523Y-127622380D01*
X280090476Y-126717619D02*
X280138095Y-126670000D01*
X280233333Y-126622380D01*
X280471428Y-126622380D01*
X280566666Y-126670000D01*
X280614285Y-126717619D01*
X280661904Y-126812857D01*
X280661904Y-126908095D01*
X280614285Y-127050952D01*
X280042857Y-127622380D01*
X280661904Y-127622380D01*
%TO.C,D13*%
X189285714Y-155462380D02*
X189285714Y-154462380D01*
X189523809Y-154462380D01*
X189666666Y-154510000D01*
X189761904Y-154605238D01*
X189809523Y-154700476D01*
X189857142Y-154890952D01*
X189857142Y-155033809D01*
X189809523Y-155224285D01*
X189761904Y-155319523D01*
X189666666Y-155414761D01*
X189523809Y-155462380D01*
X189285714Y-155462380D01*
X190809523Y-155462380D02*
X190238095Y-155462380D01*
X190523809Y-155462380D02*
X190523809Y-154462380D01*
X190428571Y-154605238D01*
X190333333Y-154700476D01*
X190238095Y-154748095D01*
X191142857Y-154462380D02*
X191761904Y-154462380D01*
X191428571Y-154843333D01*
X191571428Y-154843333D01*
X191666666Y-154890952D01*
X191714285Y-154938571D01*
X191761904Y-155033809D01*
X191761904Y-155271904D01*
X191714285Y-155367142D01*
X191666666Y-155414761D01*
X191571428Y-155462380D01*
X191285714Y-155462380D01*
X191190476Y-155414761D01*
X191142857Y-155367142D01*
X185158095Y-155832380D02*
X185158095Y-154832380D01*
X185729523Y-155832380D02*
X185300952Y-155260952D01*
X185729523Y-154832380D02*
X185158095Y-155403809D01*
%TO.C,R27*%
X243197142Y-173342380D02*
X242863809Y-172866190D01*
X242625714Y-173342380D02*
X242625714Y-172342380D01*
X243006666Y-172342380D01*
X243101904Y-172390000D01*
X243149523Y-172437619D01*
X243197142Y-172532857D01*
X243197142Y-172675714D01*
X243149523Y-172770952D01*
X243101904Y-172818571D01*
X243006666Y-172866190D01*
X242625714Y-172866190D01*
X243578095Y-172437619D02*
X243625714Y-172390000D01*
X243720952Y-172342380D01*
X243959047Y-172342380D01*
X244054285Y-172390000D01*
X244101904Y-172437619D01*
X244149523Y-172532857D01*
X244149523Y-172628095D01*
X244101904Y-172770952D01*
X243530476Y-173342380D01*
X244149523Y-173342380D01*
X244482857Y-172342380D02*
X245149523Y-172342380D01*
X244720952Y-173342380D01*
%TO.C,U2*%
X62748095Y-133022380D02*
X62748095Y-133831904D01*
X62795714Y-133927142D01*
X62843333Y-133974761D01*
X62938571Y-134022380D01*
X63129047Y-134022380D01*
X63224285Y-133974761D01*
X63271904Y-133927142D01*
X63319523Y-133831904D01*
X63319523Y-133022380D01*
X63748095Y-133117619D02*
X63795714Y-133070000D01*
X63890952Y-133022380D01*
X64129047Y-133022380D01*
X64224285Y-133070000D01*
X64271904Y-133117619D01*
X64319523Y-133212857D01*
X64319523Y-133308095D01*
X64271904Y-133450952D01*
X63700476Y-134022380D01*
X64319523Y-134022380D01*
%TO.C,D4*%
X34821904Y-152922380D02*
X34821904Y-151922380D01*
X35060000Y-151922380D01*
X35202857Y-151970000D01*
X35298095Y-152065238D01*
X35345714Y-152160476D01*
X35393333Y-152350952D01*
X35393333Y-152493809D01*
X35345714Y-152684285D01*
X35298095Y-152779523D01*
X35202857Y-152874761D01*
X35060000Y-152922380D01*
X34821904Y-152922380D01*
X36250476Y-152255714D02*
X36250476Y-152922380D01*
X36012380Y-151874761D02*
X35774285Y-152589047D01*
X36393333Y-152589047D01*
X30218095Y-153292380D02*
X30218095Y-152292380D01*
X30789523Y-153292380D02*
X30360952Y-152720952D01*
X30789523Y-152292380D02*
X30218095Y-152863809D01*
D11*
%TO.C,U3*%
X39944523Y-168607619D02*
X40972619Y-168607619D01*
X41093571Y-168547142D01*
X41154047Y-168486666D01*
X41214523Y-168365714D01*
X41214523Y-168123809D01*
X41154047Y-168002857D01*
X41093571Y-167942380D01*
X40972619Y-167881904D01*
X39944523Y-167881904D01*
X39944523Y-167398095D02*
X39944523Y-166611904D01*
X40428333Y-167035238D01*
X40428333Y-166853809D01*
X40488809Y-166732857D01*
X40549285Y-166672380D01*
X40670238Y-166611904D01*
X40972619Y-166611904D01*
X41093571Y-166672380D01*
X41154047Y-166732857D01*
X41214523Y-166853809D01*
X41214523Y-167216666D01*
X41154047Y-167337619D01*
X41093571Y-167398095D01*
D10*
%TO.C,R21*%
X59042380Y-112402857D02*
X58566190Y-112736190D01*
X59042380Y-112974285D02*
X58042380Y-112974285D01*
X58042380Y-112593333D01*
X58090000Y-112498095D01*
X58137619Y-112450476D01*
X58232857Y-112402857D01*
X58375714Y-112402857D01*
X58470952Y-112450476D01*
X58518571Y-112498095D01*
X58566190Y-112593333D01*
X58566190Y-112974285D01*
X58137619Y-112021904D02*
X58090000Y-111974285D01*
X58042380Y-111879047D01*
X58042380Y-111640952D01*
X58090000Y-111545714D01*
X58137619Y-111498095D01*
X58232857Y-111450476D01*
X58328095Y-111450476D01*
X58470952Y-111498095D01*
X59042380Y-112069523D01*
X59042380Y-111450476D01*
X59042380Y-110498095D02*
X59042380Y-111069523D01*
X59042380Y-110783809D02*
X58042380Y-110783809D01*
X58185238Y-110879047D01*
X58280476Y-110974285D01*
X58328095Y-111069523D01*
%TO.C,R8*%
X134453333Y-178422380D02*
X134120000Y-177946190D01*
X133881904Y-178422380D02*
X133881904Y-177422380D01*
X134262857Y-177422380D01*
X134358095Y-177470000D01*
X134405714Y-177517619D01*
X134453333Y-177612857D01*
X134453333Y-177755714D01*
X134405714Y-177850952D01*
X134358095Y-177898571D01*
X134262857Y-177946190D01*
X133881904Y-177946190D01*
X135024761Y-177850952D02*
X134929523Y-177803333D01*
X134881904Y-177755714D01*
X134834285Y-177660476D01*
X134834285Y-177612857D01*
X134881904Y-177517619D01*
X134929523Y-177470000D01*
X135024761Y-177422380D01*
X135215238Y-177422380D01*
X135310476Y-177470000D01*
X135358095Y-177517619D01*
X135405714Y-177612857D01*
X135405714Y-177660476D01*
X135358095Y-177755714D01*
X135310476Y-177803333D01*
X135215238Y-177850952D01*
X135024761Y-177850952D01*
X134929523Y-177898571D01*
X134881904Y-177946190D01*
X134834285Y-178041428D01*
X134834285Y-178231904D01*
X134881904Y-178327142D01*
X134929523Y-178374761D01*
X135024761Y-178422380D01*
X135215238Y-178422380D01*
X135310476Y-178374761D01*
X135358095Y-178327142D01*
X135405714Y-178231904D01*
X135405714Y-178041428D01*
X135358095Y-177946190D01*
X135310476Y-177898571D01*
X135215238Y-177850952D01*
D11*
%TO.C,C10*%
X205923571Y-166823571D02*
X205863095Y-166884047D01*
X205681666Y-166944523D01*
X205560714Y-166944523D01*
X205379285Y-166884047D01*
X205258333Y-166763095D01*
X205197857Y-166642142D01*
X205137380Y-166400238D01*
X205137380Y-166218809D01*
X205197857Y-165976904D01*
X205258333Y-165855952D01*
X205379285Y-165735000D01*
X205560714Y-165674523D01*
X205681666Y-165674523D01*
X205863095Y-165735000D01*
X205923571Y-165795476D01*
X207133095Y-166944523D02*
X206407380Y-166944523D01*
X206770238Y-166944523D02*
X206770238Y-165674523D01*
X206649285Y-165855952D01*
X206528333Y-165976904D01*
X206407380Y-166037380D01*
X207919285Y-165674523D02*
X208040238Y-165674523D01*
X208161190Y-165735000D01*
X208221666Y-165795476D01*
X208282142Y-165916428D01*
X208342619Y-166158333D01*
X208342619Y-166460714D01*
X208282142Y-166702619D01*
X208221666Y-166823571D01*
X208161190Y-166884047D01*
X208040238Y-166944523D01*
X207919285Y-166944523D01*
X207798333Y-166884047D01*
X207737857Y-166823571D01*
X207677380Y-166702619D01*
X207616904Y-166460714D01*
X207616904Y-166158333D01*
X207677380Y-165916428D01*
X207737857Y-165795476D01*
X207798333Y-165735000D01*
X207919285Y-165674523D01*
%TO.C,C12*%
X254183571Y-148662571D02*
X254123095Y-148723047D01*
X253941666Y-148783523D01*
X253820714Y-148783523D01*
X253639285Y-148723047D01*
X253518333Y-148602095D01*
X253457857Y-148481142D01*
X253397380Y-148239238D01*
X253397380Y-148057809D01*
X253457857Y-147815904D01*
X253518333Y-147694952D01*
X253639285Y-147574000D01*
X253820714Y-147513523D01*
X253941666Y-147513523D01*
X254123095Y-147574000D01*
X254183571Y-147634476D01*
X255393095Y-148783523D02*
X254667380Y-148783523D01*
X255030238Y-148783523D02*
X255030238Y-147513523D01*
X254909285Y-147694952D01*
X254788333Y-147815904D01*
X254667380Y-147876380D01*
X255876904Y-147634476D02*
X255937380Y-147574000D01*
X256058333Y-147513523D01*
X256360714Y-147513523D01*
X256481666Y-147574000D01*
X256542142Y-147634476D01*
X256602619Y-147755428D01*
X256602619Y-147876380D01*
X256542142Y-148057809D01*
X255816428Y-148783523D01*
X256602619Y-148783523D01*
D10*
%TO.C,R46*%
X158102380Y-112402857D02*
X157626190Y-112736190D01*
X158102380Y-112974285D02*
X157102380Y-112974285D01*
X157102380Y-112593333D01*
X157150000Y-112498095D01*
X157197619Y-112450476D01*
X157292857Y-112402857D01*
X157435714Y-112402857D01*
X157530952Y-112450476D01*
X157578571Y-112498095D01*
X157626190Y-112593333D01*
X157626190Y-112974285D01*
X157435714Y-111545714D02*
X158102380Y-111545714D01*
X157054761Y-111783809D02*
X157769047Y-112021904D01*
X157769047Y-111402857D01*
X157102380Y-110593333D02*
X157102380Y-110783809D01*
X157150000Y-110879047D01*
X157197619Y-110926666D01*
X157340476Y-111021904D01*
X157530952Y-111069523D01*
X157911904Y-111069523D01*
X158007142Y-111021904D01*
X158054761Y-110974285D01*
X158102380Y-110879047D01*
X158102380Y-110688571D01*
X158054761Y-110593333D01*
X158007142Y-110545714D01*
X157911904Y-110498095D01*
X157673809Y-110498095D01*
X157578571Y-110545714D01*
X157530952Y-110593333D01*
X157483333Y-110688571D01*
X157483333Y-110879047D01*
X157530952Y-110974285D01*
X157578571Y-111021904D01*
X157673809Y-111069523D01*
%TO.C,R31*%
X69202380Y-112402857D02*
X68726190Y-112736190D01*
X69202380Y-112974285D02*
X68202380Y-112974285D01*
X68202380Y-112593333D01*
X68250000Y-112498095D01*
X68297619Y-112450476D01*
X68392857Y-112402857D01*
X68535714Y-112402857D01*
X68630952Y-112450476D01*
X68678571Y-112498095D01*
X68726190Y-112593333D01*
X68726190Y-112974285D01*
X68202380Y-112069523D02*
X68202380Y-111450476D01*
X68583333Y-111783809D01*
X68583333Y-111640952D01*
X68630952Y-111545714D01*
X68678571Y-111498095D01*
X68773809Y-111450476D01*
X69011904Y-111450476D01*
X69107142Y-111498095D01*
X69154761Y-111545714D01*
X69202380Y-111640952D01*
X69202380Y-111926666D01*
X69154761Y-112021904D01*
X69107142Y-112069523D01*
X69202380Y-110498095D02*
X69202380Y-111069523D01*
X69202380Y-110783809D02*
X68202380Y-110783809D01*
X68345238Y-110879047D01*
X68440476Y-110974285D01*
X68488095Y-111069523D01*
%TO.C,R49*%
X173342380Y-112402857D02*
X172866190Y-112736190D01*
X173342380Y-112974285D02*
X172342380Y-112974285D01*
X172342380Y-112593333D01*
X172390000Y-112498095D01*
X172437619Y-112450476D01*
X172532857Y-112402857D01*
X172675714Y-112402857D01*
X172770952Y-112450476D01*
X172818571Y-112498095D01*
X172866190Y-112593333D01*
X172866190Y-112974285D01*
X172675714Y-111545714D02*
X173342380Y-111545714D01*
X172294761Y-111783809D02*
X173009047Y-112021904D01*
X173009047Y-111402857D01*
X173342380Y-110974285D02*
X173342380Y-110783809D01*
X173294761Y-110688571D01*
X173247142Y-110640952D01*
X173104285Y-110545714D01*
X172913809Y-110498095D01*
X172532857Y-110498095D01*
X172437619Y-110545714D01*
X172390000Y-110593333D01*
X172342380Y-110688571D01*
X172342380Y-110879047D01*
X172390000Y-110974285D01*
X172437619Y-111021904D01*
X172532857Y-111069523D01*
X172770952Y-111069523D01*
X172866190Y-111021904D01*
X172913809Y-110974285D01*
X172961428Y-110879047D01*
X172961428Y-110688571D01*
X172913809Y-110593333D01*
X172866190Y-110545714D01*
X172770952Y-110498095D01*
%TO.C,R12*%
X163857142Y-138822380D02*
X163523809Y-138346190D01*
X163285714Y-138822380D02*
X163285714Y-137822380D01*
X163666666Y-137822380D01*
X163761904Y-137870000D01*
X163809523Y-137917619D01*
X163857142Y-138012857D01*
X163857142Y-138155714D01*
X163809523Y-138250952D01*
X163761904Y-138298571D01*
X163666666Y-138346190D01*
X163285714Y-138346190D01*
X164809523Y-138822380D02*
X164238095Y-138822380D01*
X164523809Y-138822380D02*
X164523809Y-137822380D01*
X164428571Y-137965238D01*
X164333333Y-138060476D01*
X164238095Y-138108095D01*
X165190476Y-137917619D02*
X165238095Y-137870000D01*
X165333333Y-137822380D01*
X165571428Y-137822380D01*
X165666666Y-137870000D01*
X165714285Y-137917619D01*
X165761904Y-138012857D01*
X165761904Y-138108095D01*
X165714285Y-138250952D01*
X165142857Y-138822380D01*
X165761904Y-138822380D01*
%TO.C,U18*%
X156226904Y-118832380D02*
X156226904Y-119641904D01*
X156274523Y-119737142D01*
X156322142Y-119784761D01*
X156417380Y-119832380D01*
X156607857Y-119832380D01*
X156703095Y-119784761D01*
X156750714Y-119737142D01*
X156798333Y-119641904D01*
X156798333Y-118832380D01*
X157798333Y-119832380D02*
X157226904Y-119832380D01*
X157512619Y-119832380D02*
X157512619Y-118832380D01*
X157417380Y-118975238D01*
X157322142Y-119070476D01*
X157226904Y-119118095D01*
X158369761Y-119260952D02*
X158274523Y-119213333D01*
X158226904Y-119165714D01*
X158179285Y-119070476D01*
X158179285Y-119022857D01*
X158226904Y-118927619D01*
X158274523Y-118880000D01*
X158369761Y-118832380D01*
X158560238Y-118832380D01*
X158655476Y-118880000D01*
X158703095Y-118927619D01*
X158750714Y-119022857D01*
X158750714Y-119070476D01*
X158703095Y-119165714D01*
X158655476Y-119213333D01*
X158560238Y-119260952D01*
X158369761Y-119260952D01*
X158274523Y-119308571D01*
X158226904Y-119356190D01*
X158179285Y-119451428D01*
X158179285Y-119641904D01*
X158226904Y-119737142D01*
X158274523Y-119784761D01*
X158369761Y-119832380D01*
X158560238Y-119832380D01*
X158655476Y-119784761D01*
X158703095Y-119737142D01*
X158750714Y-119641904D01*
X158750714Y-119451428D01*
X158703095Y-119356190D01*
X158655476Y-119308571D01*
X158560238Y-119260952D01*
%TO.C,R7*%
X81902380Y-111926666D02*
X81426190Y-112260000D01*
X81902380Y-112498095D02*
X80902380Y-112498095D01*
X80902380Y-112117142D01*
X80950000Y-112021904D01*
X80997619Y-111974285D01*
X81092857Y-111926666D01*
X81235714Y-111926666D01*
X81330952Y-111974285D01*
X81378571Y-112021904D01*
X81426190Y-112117142D01*
X81426190Y-112498095D01*
X80902380Y-111593333D02*
X80902380Y-110926666D01*
X81902380Y-111355238D01*
%TO.C,R33*%
X38722380Y-112402857D02*
X38246190Y-112736190D01*
X38722380Y-112974285D02*
X37722380Y-112974285D01*
X37722380Y-112593333D01*
X37770000Y-112498095D01*
X37817619Y-112450476D01*
X37912857Y-112402857D01*
X38055714Y-112402857D01*
X38150952Y-112450476D01*
X38198571Y-112498095D01*
X38246190Y-112593333D01*
X38246190Y-112974285D01*
X37722380Y-112069523D02*
X37722380Y-111450476D01*
X38103333Y-111783809D01*
X38103333Y-111640952D01*
X38150952Y-111545714D01*
X38198571Y-111498095D01*
X38293809Y-111450476D01*
X38531904Y-111450476D01*
X38627142Y-111498095D01*
X38674761Y-111545714D01*
X38722380Y-111640952D01*
X38722380Y-111926666D01*
X38674761Y-112021904D01*
X38627142Y-112069523D01*
X37722380Y-111117142D02*
X37722380Y-110498095D01*
X38103333Y-110831428D01*
X38103333Y-110688571D01*
X38150952Y-110593333D01*
X38198571Y-110545714D01*
X38293809Y-110498095D01*
X38531904Y-110498095D01*
X38627142Y-110545714D01*
X38674761Y-110593333D01*
X38722380Y-110688571D01*
X38722380Y-110974285D01*
X38674761Y-111069523D01*
X38627142Y-111117142D01*
%TO.C,R1*%
X173172380Y-185586666D02*
X172696190Y-185920000D01*
X173172380Y-186158095D02*
X172172380Y-186158095D01*
X172172380Y-185777142D01*
X172220000Y-185681904D01*
X172267619Y-185634285D01*
X172362857Y-185586666D01*
X172505714Y-185586666D01*
X172600952Y-185634285D01*
X172648571Y-185681904D01*
X172696190Y-185777142D01*
X172696190Y-186158095D01*
X173172380Y-184634285D02*
X173172380Y-185205714D01*
X173172380Y-184920000D02*
X172172380Y-184920000D01*
X172315238Y-185015238D01*
X172410476Y-185110476D01*
X172458095Y-185205714D01*
%TO.C,R36*%
X107302380Y-112402857D02*
X106826190Y-112736190D01*
X107302380Y-112974285D02*
X106302380Y-112974285D01*
X106302380Y-112593333D01*
X106350000Y-112498095D01*
X106397619Y-112450476D01*
X106492857Y-112402857D01*
X106635714Y-112402857D01*
X106730952Y-112450476D01*
X106778571Y-112498095D01*
X106826190Y-112593333D01*
X106826190Y-112974285D01*
X106302380Y-112069523D02*
X106302380Y-111450476D01*
X106683333Y-111783809D01*
X106683333Y-111640952D01*
X106730952Y-111545714D01*
X106778571Y-111498095D01*
X106873809Y-111450476D01*
X107111904Y-111450476D01*
X107207142Y-111498095D01*
X107254761Y-111545714D01*
X107302380Y-111640952D01*
X107302380Y-111926666D01*
X107254761Y-112021904D01*
X107207142Y-112069523D01*
X106302380Y-110593333D02*
X106302380Y-110783809D01*
X106350000Y-110879047D01*
X106397619Y-110926666D01*
X106540476Y-111021904D01*
X106730952Y-111069523D01*
X107111904Y-111069523D01*
X107207142Y-111021904D01*
X107254761Y-110974285D01*
X107302380Y-110879047D01*
X107302380Y-110688571D01*
X107254761Y-110593333D01*
X107207142Y-110545714D01*
X107111904Y-110498095D01*
X106873809Y-110498095D01*
X106778571Y-110545714D01*
X106730952Y-110593333D01*
X106683333Y-110688571D01*
X106683333Y-110879047D01*
X106730952Y-110974285D01*
X106778571Y-111021904D01*
X106873809Y-111069523D01*
D11*
%TO.C,U11*%
X189804523Y-171752380D02*
X190832619Y-171752380D01*
X190953571Y-171691904D01*
X191014047Y-171631428D01*
X191074523Y-171510476D01*
X191074523Y-171268571D01*
X191014047Y-171147619D01*
X190953571Y-171087142D01*
X190832619Y-171026666D01*
X189804523Y-171026666D01*
X191074523Y-169756666D02*
X191074523Y-170482380D01*
X191074523Y-170119523D02*
X189804523Y-170119523D01*
X189985952Y-170240476D01*
X190106904Y-170361428D01*
X190167380Y-170482380D01*
X191074523Y-168547142D02*
X191074523Y-169272857D01*
X191074523Y-168910000D02*
X189804523Y-168910000D01*
X189985952Y-169030952D01*
X190106904Y-169151904D01*
X190167380Y-169272857D01*
%TO.C,IC7*%
X213934523Y-184119761D02*
X212664523Y-184119761D01*
X213813571Y-182789285D02*
X213874047Y-182849761D01*
X213934523Y-183031190D01*
X213934523Y-183152142D01*
X213874047Y-183333571D01*
X213753095Y-183454523D01*
X213632142Y-183515000D01*
X213390238Y-183575476D01*
X213208809Y-183575476D01*
X212966904Y-183515000D01*
X212845952Y-183454523D01*
X212725000Y-183333571D01*
X212664523Y-183152142D01*
X212664523Y-183031190D01*
X212725000Y-182849761D01*
X212785476Y-182789285D01*
X212664523Y-182365952D02*
X212664523Y-181519285D01*
X213934523Y-182063571D01*
D10*
%TO.C,U1*%
X278638095Y-153872380D02*
X278638095Y-154681904D01*
X278685714Y-154777142D01*
X278733333Y-154824761D01*
X278828571Y-154872380D01*
X279019047Y-154872380D01*
X279114285Y-154824761D01*
X279161904Y-154777142D01*
X279209523Y-154681904D01*
X279209523Y-153872380D01*
X280209523Y-154872380D02*
X279638095Y-154872380D01*
X279923809Y-154872380D02*
X279923809Y-153872380D01*
X279828571Y-154015238D01*
X279733333Y-154110476D01*
X279638095Y-154158095D01*
%TO.C,D15*%
X240085714Y-147172380D02*
X240085714Y-146172380D01*
X240323809Y-146172380D01*
X240466666Y-146220000D01*
X240561904Y-146315238D01*
X240609523Y-146410476D01*
X240657142Y-146600952D01*
X240657142Y-146743809D01*
X240609523Y-146934285D01*
X240561904Y-147029523D01*
X240466666Y-147124761D01*
X240323809Y-147172380D01*
X240085714Y-147172380D01*
X241609523Y-147172380D02*
X241038095Y-147172380D01*
X241323809Y-147172380D02*
X241323809Y-146172380D01*
X241228571Y-146315238D01*
X241133333Y-146410476D01*
X241038095Y-146458095D01*
X242514285Y-146172380D02*
X242038095Y-146172380D01*
X241990476Y-146648571D01*
X242038095Y-146600952D01*
X242133333Y-146553333D01*
X242371428Y-146553333D01*
X242466666Y-146600952D01*
X242514285Y-146648571D01*
X242561904Y-146743809D01*
X242561904Y-146981904D01*
X242514285Y-147077142D01*
X242466666Y-147124761D01*
X242371428Y-147172380D01*
X242133333Y-147172380D01*
X242038095Y-147124761D01*
X241990476Y-147077142D01*
X235958095Y-147542380D02*
X235958095Y-146542380D01*
X236529523Y-147542380D02*
X236100952Y-146970952D01*
X236529523Y-146542380D02*
X235958095Y-147113809D01*
%TO.C,J3*%
X253906666Y-185162380D02*
X253906666Y-185876666D01*
X253859047Y-186019523D01*
X253763809Y-186114761D01*
X253620952Y-186162380D01*
X253525714Y-186162380D01*
X254287619Y-185162380D02*
X254906666Y-185162380D01*
X254573333Y-185543333D01*
X254716190Y-185543333D01*
X254811428Y-185590952D01*
X254859047Y-185638571D01*
X254906666Y-185733809D01*
X254906666Y-185971904D01*
X254859047Y-186067142D01*
X254811428Y-186114761D01*
X254716190Y-186162380D01*
X254430476Y-186162380D01*
X254335238Y-186114761D01*
X254287619Y-186067142D01*
D11*
%TO.C,IC6*%
X191800238Y-132654523D02*
X191800238Y-131384523D01*
X193130714Y-132533571D02*
X193070238Y-132594047D01*
X192888809Y-132654523D01*
X192767857Y-132654523D01*
X192586428Y-132594047D01*
X192465476Y-132473095D01*
X192405000Y-132352142D01*
X192344523Y-132110238D01*
X192344523Y-131928809D01*
X192405000Y-131686904D01*
X192465476Y-131565952D01*
X192586428Y-131445000D01*
X192767857Y-131384523D01*
X192888809Y-131384523D01*
X193070238Y-131445000D01*
X193130714Y-131505476D01*
X194219285Y-131384523D02*
X193977380Y-131384523D01*
X193856428Y-131445000D01*
X193795952Y-131505476D01*
X193675000Y-131686904D01*
X193614523Y-131928809D01*
X193614523Y-132412619D01*
X193675000Y-132533571D01*
X193735476Y-132594047D01*
X193856428Y-132654523D01*
X194098333Y-132654523D01*
X194219285Y-132594047D01*
X194279761Y-132533571D01*
X194340238Y-132412619D01*
X194340238Y-132110238D01*
X194279761Y-131989285D01*
X194219285Y-131928809D01*
X194098333Y-131868333D01*
X193856428Y-131868333D01*
X193735476Y-131928809D01*
X193675000Y-131989285D01*
X193614523Y-132110238D01*
D10*
%TO.C,U12*%
X257851904Y-158422380D02*
X257851904Y-159231904D01*
X257899523Y-159327142D01*
X257947142Y-159374761D01*
X258042380Y-159422380D01*
X258232857Y-159422380D01*
X258328095Y-159374761D01*
X258375714Y-159327142D01*
X258423333Y-159231904D01*
X258423333Y-158422380D01*
X259423333Y-159422380D02*
X258851904Y-159422380D01*
X259137619Y-159422380D02*
X259137619Y-158422380D01*
X259042380Y-158565238D01*
X258947142Y-158660476D01*
X258851904Y-158708095D01*
X259804285Y-158517619D02*
X259851904Y-158470000D01*
X259947142Y-158422380D01*
X260185238Y-158422380D01*
X260280476Y-158470000D01*
X260328095Y-158517619D01*
X260375714Y-158612857D01*
X260375714Y-158708095D01*
X260328095Y-158850952D01*
X259756666Y-159422380D01*
X260375714Y-159422380D01*
%TO.C,U5*%
X62262380Y-180971904D02*
X63071904Y-180971904D01*
X63167142Y-180924285D01*
X63214761Y-180876666D01*
X63262380Y-180781428D01*
X63262380Y-180590952D01*
X63214761Y-180495714D01*
X63167142Y-180448095D01*
X63071904Y-180400476D01*
X62262380Y-180400476D01*
X62262380Y-179448095D02*
X62262380Y-179924285D01*
X62738571Y-179971904D01*
X62690952Y-179924285D01*
X62643333Y-179829047D01*
X62643333Y-179590952D01*
X62690952Y-179495714D01*
X62738571Y-179448095D01*
X62833809Y-179400476D01*
X63071904Y-179400476D01*
X63167142Y-179448095D01*
X63214761Y-179495714D01*
X63262380Y-179590952D01*
X63262380Y-179829047D01*
X63214761Y-179924285D01*
X63167142Y-179971904D01*
D11*
%TO.C,C5*%
X123583333Y-168093571D02*
X123522857Y-168154047D01*
X123341428Y-168214523D01*
X123220476Y-168214523D01*
X123039047Y-168154047D01*
X122918095Y-168033095D01*
X122857619Y-167912142D01*
X122797142Y-167670238D01*
X122797142Y-167488809D01*
X122857619Y-167246904D01*
X122918095Y-167125952D01*
X123039047Y-167005000D01*
X123220476Y-166944523D01*
X123341428Y-166944523D01*
X123522857Y-167005000D01*
X123583333Y-167065476D01*
X124732380Y-166944523D02*
X124127619Y-166944523D01*
X124067142Y-167549285D01*
X124127619Y-167488809D01*
X124248571Y-167428333D01*
X124550952Y-167428333D01*
X124671904Y-167488809D01*
X124732380Y-167549285D01*
X124792857Y-167670238D01*
X124792857Y-167972619D01*
X124732380Y-168093571D01*
X124671904Y-168154047D01*
X124550952Y-168214523D01*
X124248571Y-168214523D01*
X124127619Y-168154047D01*
X124067142Y-168093571D01*
D10*
%TO.C,D2*%
X34821904Y-147842380D02*
X34821904Y-146842380D01*
X35060000Y-146842380D01*
X35202857Y-146890000D01*
X35298095Y-146985238D01*
X35345714Y-147080476D01*
X35393333Y-147270952D01*
X35393333Y-147413809D01*
X35345714Y-147604285D01*
X35298095Y-147699523D01*
X35202857Y-147794761D01*
X35060000Y-147842380D01*
X34821904Y-147842380D01*
X35774285Y-146937619D02*
X35821904Y-146890000D01*
X35917142Y-146842380D01*
X36155238Y-146842380D01*
X36250476Y-146890000D01*
X36298095Y-146937619D01*
X36345714Y-147032857D01*
X36345714Y-147128095D01*
X36298095Y-147270952D01*
X35726666Y-147842380D01*
X36345714Y-147842380D01*
X30218095Y-148212380D02*
X30218095Y-147212380D01*
X30789523Y-148212380D02*
X30360952Y-147640952D01*
X30789523Y-147212380D02*
X30218095Y-147783809D01*
%TO.C,R5*%
X56162380Y-155106666D02*
X55686190Y-155440000D01*
X56162380Y-155678095D02*
X55162380Y-155678095D01*
X55162380Y-155297142D01*
X55210000Y-155201904D01*
X55257619Y-155154285D01*
X55352857Y-155106666D01*
X55495714Y-155106666D01*
X55590952Y-155154285D01*
X55638571Y-155201904D01*
X55686190Y-155297142D01*
X55686190Y-155678095D01*
X55162380Y-154201904D02*
X55162380Y-154678095D01*
X55638571Y-154725714D01*
X55590952Y-154678095D01*
X55543333Y-154582857D01*
X55543333Y-154344761D01*
X55590952Y-154249523D01*
X55638571Y-154201904D01*
X55733809Y-154154285D01*
X55971904Y-154154285D01*
X56067142Y-154201904D01*
X56114761Y-154249523D01*
X56162380Y-154344761D01*
X56162380Y-154582857D01*
X56114761Y-154678095D01*
X56067142Y-154725714D01*
D11*
%TO.C,C7*%
X169303333Y-170633571D02*
X169242857Y-170694047D01*
X169061428Y-170754523D01*
X168940476Y-170754523D01*
X168759047Y-170694047D01*
X168638095Y-170573095D01*
X168577619Y-170452142D01*
X168517142Y-170210238D01*
X168517142Y-170028809D01*
X168577619Y-169786904D01*
X168638095Y-169665952D01*
X168759047Y-169545000D01*
X168940476Y-169484523D01*
X169061428Y-169484523D01*
X169242857Y-169545000D01*
X169303333Y-169605476D01*
X169726666Y-169484523D02*
X170573333Y-169484523D01*
X170029047Y-170754523D01*
D10*
%TO.C,R32*%
X43802380Y-112402857D02*
X43326190Y-112736190D01*
X43802380Y-112974285D02*
X42802380Y-112974285D01*
X42802380Y-112593333D01*
X42850000Y-112498095D01*
X42897619Y-112450476D01*
X42992857Y-112402857D01*
X43135714Y-112402857D01*
X43230952Y-112450476D01*
X43278571Y-112498095D01*
X43326190Y-112593333D01*
X43326190Y-112974285D01*
X42802380Y-112069523D02*
X42802380Y-111450476D01*
X43183333Y-111783809D01*
X43183333Y-111640952D01*
X43230952Y-111545714D01*
X43278571Y-111498095D01*
X43373809Y-111450476D01*
X43611904Y-111450476D01*
X43707142Y-111498095D01*
X43754761Y-111545714D01*
X43802380Y-111640952D01*
X43802380Y-111926666D01*
X43754761Y-112021904D01*
X43707142Y-112069523D01*
X42897619Y-111069523D02*
X42850000Y-111021904D01*
X42802380Y-110926666D01*
X42802380Y-110688571D01*
X42850000Y-110593333D01*
X42897619Y-110545714D01*
X42992857Y-110498095D01*
X43088095Y-110498095D01*
X43230952Y-110545714D01*
X43802380Y-111117142D01*
X43802380Y-110498095D01*
%TO.C,R24*%
X278757142Y-137782380D02*
X278423809Y-137306190D01*
X278185714Y-137782380D02*
X278185714Y-136782380D01*
X278566666Y-136782380D01*
X278661904Y-136830000D01*
X278709523Y-136877619D01*
X278757142Y-136972857D01*
X278757142Y-137115714D01*
X278709523Y-137210952D01*
X278661904Y-137258571D01*
X278566666Y-137306190D01*
X278185714Y-137306190D01*
X279138095Y-136877619D02*
X279185714Y-136830000D01*
X279280952Y-136782380D01*
X279519047Y-136782380D01*
X279614285Y-136830000D01*
X279661904Y-136877619D01*
X279709523Y-136972857D01*
X279709523Y-137068095D01*
X279661904Y-137210952D01*
X279090476Y-137782380D01*
X279709523Y-137782380D01*
X280566666Y-137115714D02*
X280566666Y-137782380D01*
X280328571Y-136734761D02*
X280090476Y-137449047D01*
X280709523Y-137449047D01*
D11*
%TO.C,C8*%
X158808333Y-166950571D02*
X158747857Y-167011047D01*
X158566428Y-167071523D01*
X158445476Y-167071523D01*
X158264047Y-167011047D01*
X158143095Y-166890095D01*
X158082619Y-166769142D01*
X158022142Y-166527238D01*
X158022142Y-166345809D01*
X158082619Y-166103904D01*
X158143095Y-165982952D01*
X158264047Y-165862000D01*
X158445476Y-165801523D01*
X158566428Y-165801523D01*
X158747857Y-165862000D01*
X158808333Y-165922476D01*
X159534047Y-166345809D02*
X159413095Y-166285333D01*
X159352619Y-166224857D01*
X159292142Y-166103904D01*
X159292142Y-166043428D01*
X159352619Y-165922476D01*
X159413095Y-165862000D01*
X159534047Y-165801523D01*
X159775952Y-165801523D01*
X159896904Y-165862000D01*
X159957380Y-165922476D01*
X160017857Y-166043428D01*
X160017857Y-166103904D01*
X159957380Y-166224857D01*
X159896904Y-166285333D01*
X159775952Y-166345809D01*
X159534047Y-166345809D01*
X159413095Y-166406285D01*
X159352619Y-166466761D01*
X159292142Y-166587714D01*
X159292142Y-166829619D01*
X159352619Y-166950571D01*
X159413095Y-167011047D01*
X159534047Y-167071523D01*
X159775952Y-167071523D01*
X159896904Y-167011047D01*
X159957380Y-166950571D01*
X160017857Y-166829619D01*
X160017857Y-166587714D01*
X159957380Y-166466761D01*
X159896904Y-166406285D01*
X159775952Y-166345809D01*
D10*
%TO.C,D14*%
X240085714Y-142092380D02*
X240085714Y-141092380D01*
X240323809Y-141092380D01*
X240466666Y-141140000D01*
X240561904Y-141235238D01*
X240609523Y-141330476D01*
X240657142Y-141520952D01*
X240657142Y-141663809D01*
X240609523Y-141854285D01*
X240561904Y-141949523D01*
X240466666Y-142044761D01*
X240323809Y-142092380D01*
X240085714Y-142092380D01*
X241609523Y-142092380D02*
X241038095Y-142092380D01*
X241323809Y-142092380D02*
X241323809Y-141092380D01*
X241228571Y-141235238D01*
X241133333Y-141330476D01*
X241038095Y-141378095D01*
X242466666Y-141425714D02*
X242466666Y-142092380D01*
X242228571Y-141044761D02*
X241990476Y-141759047D01*
X242609523Y-141759047D01*
X235958095Y-142462380D02*
X235958095Y-141462380D01*
X236529523Y-142462380D02*
X236100952Y-141890952D01*
X236529523Y-141462380D02*
X235958095Y-142033809D01*
%TO.C,J9*%
X167066666Y-185162380D02*
X167066666Y-185876666D01*
X167019047Y-186019523D01*
X166923809Y-186114761D01*
X166780952Y-186162380D01*
X166685714Y-186162380D01*
X167590476Y-186162380D02*
X167780952Y-186162380D01*
X167876190Y-186114761D01*
X167923809Y-186067142D01*
X168019047Y-185924285D01*
X168066666Y-185733809D01*
X168066666Y-185352857D01*
X168019047Y-185257619D01*
X167971428Y-185210000D01*
X167876190Y-185162380D01*
X167685714Y-185162380D01*
X167590476Y-185210000D01*
X167542857Y-185257619D01*
X167495238Y-185352857D01*
X167495238Y-185590952D01*
X167542857Y-185686190D01*
X167590476Y-185733809D01*
X167685714Y-185781428D01*
X167876190Y-185781428D01*
X167971428Y-185733809D01*
X168019047Y-185686190D01*
X168066666Y-185590952D01*
%TO.C,R29*%
X133977142Y-188582380D02*
X133643809Y-188106190D01*
X133405714Y-188582380D02*
X133405714Y-187582380D01*
X133786666Y-187582380D01*
X133881904Y-187630000D01*
X133929523Y-187677619D01*
X133977142Y-187772857D01*
X133977142Y-187915714D01*
X133929523Y-188010952D01*
X133881904Y-188058571D01*
X133786666Y-188106190D01*
X133405714Y-188106190D01*
X134358095Y-187677619D02*
X134405714Y-187630000D01*
X134500952Y-187582380D01*
X134739047Y-187582380D01*
X134834285Y-187630000D01*
X134881904Y-187677619D01*
X134929523Y-187772857D01*
X134929523Y-187868095D01*
X134881904Y-188010952D01*
X134310476Y-188582380D01*
X134929523Y-188582380D01*
X135405714Y-188582380D02*
X135596190Y-188582380D01*
X135691428Y-188534761D01*
X135739047Y-188487142D01*
X135834285Y-188344285D01*
X135881904Y-188153809D01*
X135881904Y-187772857D01*
X135834285Y-187677619D01*
X135786666Y-187630000D01*
X135691428Y-187582380D01*
X135500952Y-187582380D01*
X135405714Y-187630000D01*
X135358095Y-187677619D01*
X135310476Y-187772857D01*
X135310476Y-188010952D01*
X135358095Y-188106190D01*
X135405714Y-188153809D01*
X135500952Y-188201428D01*
X135691428Y-188201428D01*
X135786666Y-188153809D01*
X135834285Y-188106190D01*
X135881904Y-188010952D01*
%TO.C,U14*%
X179102380Y-183988095D02*
X179911904Y-183988095D01*
X180007142Y-183940476D01*
X180054761Y-183892857D01*
X180102380Y-183797619D01*
X180102380Y-183607142D01*
X180054761Y-183511904D01*
X180007142Y-183464285D01*
X179911904Y-183416666D01*
X179102380Y-183416666D01*
X180102380Y-182416666D02*
X180102380Y-182988095D01*
X180102380Y-182702380D02*
X179102380Y-182702380D01*
X179245238Y-182797619D01*
X179340476Y-182892857D01*
X179388095Y-182988095D01*
X179435714Y-181559523D02*
X180102380Y-181559523D01*
X179054761Y-181797619D02*
X179769047Y-182035714D01*
X179769047Y-181416666D01*
%TO.C,R43*%
X147942380Y-112402857D02*
X147466190Y-112736190D01*
X147942380Y-112974285D02*
X146942380Y-112974285D01*
X146942380Y-112593333D01*
X146990000Y-112498095D01*
X147037619Y-112450476D01*
X147132857Y-112402857D01*
X147275714Y-112402857D01*
X147370952Y-112450476D01*
X147418571Y-112498095D01*
X147466190Y-112593333D01*
X147466190Y-112974285D01*
X147275714Y-111545714D02*
X147942380Y-111545714D01*
X146894761Y-111783809D02*
X147609047Y-112021904D01*
X147609047Y-111402857D01*
X146942380Y-111117142D02*
X146942380Y-110498095D01*
X147323333Y-110831428D01*
X147323333Y-110688571D01*
X147370952Y-110593333D01*
X147418571Y-110545714D01*
X147513809Y-110498095D01*
X147751904Y-110498095D01*
X147847142Y-110545714D01*
X147894761Y-110593333D01*
X147942380Y-110688571D01*
X147942380Y-110974285D01*
X147894761Y-111069523D01*
X147847142Y-111117142D01*
D11*
%TO.C,IC1*%
X74960238Y-130114523D02*
X74960238Y-128844523D01*
X76290714Y-129993571D02*
X76230238Y-130054047D01*
X76048809Y-130114523D01*
X75927857Y-130114523D01*
X75746428Y-130054047D01*
X75625476Y-129933095D01*
X75565000Y-129812142D01*
X75504523Y-129570238D01*
X75504523Y-129388809D01*
X75565000Y-129146904D01*
X75625476Y-129025952D01*
X75746428Y-128905000D01*
X75927857Y-128844523D01*
X76048809Y-128844523D01*
X76230238Y-128905000D01*
X76290714Y-128965476D01*
X77500238Y-130114523D02*
X76774523Y-130114523D01*
X77137380Y-130114523D02*
X77137380Y-128844523D01*
X77016428Y-129025952D01*
X76895476Y-129146904D01*
X76774523Y-129207380D01*
D10*
%TO.C,R23*%
X278757142Y-132702380D02*
X278423809Y-132226190D01*
X278185714Y-132702380D02*
X278185714Y-131702380D01*
X278566666Y-131702380D01*
X278661904Y-131750000D01*
X278709523Y-131797619D01*
X278757142Y-131892857D01*
X278757142Y-132035714D01*
X278709523Y-132130952D01*
X278661904Y-132178571D01*
X278566666Y-132226190D01*
X278185714Y-132226190D01*
X279138095Y-131797619D02*
X279185714Y-131750000D01*
X279280952Y-131702380D01*
X279519047Y-131702380D01*
X279614285Y-131750000D01*
X279661904Y-131797619D01*
X279709523Y-131892857D01*
X279709523Y-131988095D01*
X279661904Y-132130952D01*
X279090476Y-132702380D01*
X279709523Y-132702380D01*
X280042857Y-131702380D02*
X280661904Y-131702380D01*
X280328571Y-132083333D01*
X280471428Y-132083333D01*
X280566666Y-132130952D01*
X280614285Y-132178571D01*
X280661904Y-132273809D01*
X280661904Y-132511904D01*
X280614285Y-132607142D01*
X280566666Y-132654761D01*
X280471428Y-132702380D01*
X280185714Y-132702380D01*
X280090476Y-132654761D01*
X280042857Y-132607142D01*
D11*
%TO.C,C6*%
X110008333Y-161997571D02*
X109947857Y-162058047D01*
X109766428Y-162118523D01*
X109645476Y-162118523D01*
X109464047Y-162058047D01*
X109343095Y-161937095D01*
X109282619Y-161816142D01*
X109222142Y-161574238D01*
X109222142Y-161392809D01*
X109282619Y-161150904D01*
X109343095Y-161029952D01*
X109464047Y-160909000D01*
X109645476Y-160848523D01*
X109766428Y-160848523D01*
X109947857Y-160909000D01*
X110008333Y-160969476D01*
X111096904Y-160848523D02*
X110855000Y-160848523D01*
X110734047Y-160909000D01*
X110673571Y-160969476D01*
X110552619Y-161150904D01*
X110492142Y-161392809D01*
X110492142Y-161876619D01*
X110552619Y-161997571D01*
X110613095Y-162058047D01*
X110734047Y-162118523D01*
X110975952Y-162118523D01*
X111096904Y-162058047D01*
X111157380Y-161997571D01*
X111217857Y-161876619D01*
X111217857Y-161574238D01*
X111157380Y-161453285D01*
X111096904Y-161392809D01*
X110975952Y-161332333D01*
X110734047Y-161332333D01*
X110613095Y-161392809D01*
X110552619Y-161453285D01*
X110492142Y-161574238D01*
D10*
%TO.C,R48*%
X168262380Y-112402857D02*
X167786190Y-112736190D01*
X168262380Y-112974285D02*
X167262380Y-112974285D01*
X167262380Y-112593333D01*
X167310000Y-112498095D01*
X167357619Y-112450476D01*
X167452857Y-112402857D01*
X167595714Y-112402857D01*
X167690952Y-112450476D01*
X167738571Y-112498095D01*
X167786190Y-112593333D01*
X167786190Y-112974285D01*
X167595714Y-111545714D02*
X168262380Y-111545714D01*
X167214761Y-111783809D02*
X167929047Y-112021904D01*
X167929047Y-111402857D01*
X167690952Y-110879047D02*
X167643333Y-110974285D01*
X167595714Y-111021904D01*
X167500476Y-111069523D01*
X167452857Y-111069523D01*
X167357619Y-111021904D01*
X167310000Y-110974285D01*
X167262380Y-110879047D01*
X167262380Y-110688571D01*
X167310000Y-110593333D01*
X167357619Y-110545714D01*
X167452857Y-110498095D01*
X167500476Y-110498095D01*
X167595714Y-110545714D01*
X167643333Y-110593333D01*
X167690952Y-110688571D01*
X167690952Y-110879047D01*
X167738571Y-110974285D01*
X167786190Y-111021904D01*
X167881428Y-111069523D01*
X168071904Y-111069523D01*
X168167142Y-111021904D01*
X168214761Y-110974285D01*
X168262380Y-110879047D01*
X168262380Y-110688571D01*
X168214761Y-110593333D01*
X168167142Y-110545714D01*
X168071904Y-110498095D01*
X167881428Y-110498095D01*
X167786190Y-110545714D01*
X167738571Y-110593333D01*
X167690952Y-110688571D01*
%TO.C,D5*%
X88161904Y-145302380D02*
X88161904Y-144302380D01*
X88400000Y-144302380D01*
X88542857Y-144350000D01*
X88638095Y-144445238D01*
X88685714Y-144540476D01*
X88733333Y-144730952D01*
X88733333Y-144873809D01*
X88685714Y-145064285D01*
X88638095Y-145159523D01*
X88542857Y-145254761D01*
X88400000Y-145302380D01*
X88161904Y-145302380D01*
X89638095Y-144302380D02*
X89161904Y-144302380D01*
X89114285Y-144778571D01*
X89161904Y-144730952D01*
X89257142Y-144683333D01*
X89495238Y-144683333D01*
X89590476Y-144730952D01*
X89638095Y-144778571D01*
X89685714Y-144873809D01*
X89685714Y-145111904D01*
X89638095Y-145207142D01*
X89590476Y-145254761D01*
X89495238Y-145302380D01*
X89257142Y-145302380D01*
X89161904Y-145254761D01*
X89114285Y-145207142D01*
X83558095Y-145672380D02*
X83558095Y-144672380D01*
X84129523Y-145672380D02*
X83700952Y-145100952D01*
X84129523Y-144672380D02*
X83558095Y-145243809D01*
%TO.C,R17*%
X217797142Y-140322380D02*
X217463809Y-139846190D01*
X217225714Y-140322380D02*
X217225714Y-139322380D01*
X217606666Y-139322380D01*
X217701904Y-139370000D01*
X217749523Y-139417619D01*
X217797142Y-139512857D01*
X217797142Y-139655714D01*
X217749523Y-139750952D01*
X217701904Y-139798571D01*
X217606666Y-139846190D01*
X217225714Y-139846190D01*
X218749523Y-140322380D02*
X218178095Y-140322380D01*
X218463809Y-140322380D02*
X218463809Y-139322380D01*
X218368571Y-139465238D01*
X218273333Y-139560476D01*
X218178095Y-139608095D01*
X219082857Y-139322380D02*
X219749523Y-139322380D01*
X219320952Y-140322380D01*
%TO.C,D12*%
X189285714Y-150382380D02*
X189285714Y-149382380D01*
X189523809Y-149382380D01*
X189666666Y-149430000D01*
X189761904Y-149525238D01*
X189809523Y-149620476D01*
X189857142Y-149810952D01*
X189857142Y-149953809D01*
X189809523Y-150144285D01*
X189761904Y-150239523D01*
X189666666Y-150334761D01*
X189523809Y-150382380D01*
X189285714Y-150382380D01*
X190809523Y-150382380D02*
X190238095Y-150382380D01*
X190523809Y-150382380D02*
X190523809Y-149382380D01*
X190428571Y-149525238D01*
X190333333Y-149620476D01*
X190238095Y-149668095D01*
X191190476Y-149477619D02*
X191238095Y-149430000D01*
X191333333Y-149382380D01*
X191571428Y-149382380D01*
X191666666Y-149430000D01*
X191714285Y-149477619D01*
X191761904Y-149572857D01*
X191761904Y-149668095D01*
X191714285Y-149810952D01*
X191142857Y-150382380D01*
X191761904Y-150382380D01*
X185158095Y-150752380D02*
X185158095Y-149752380D01*
X185729523Y-150752380D02*
X185300952Y-150180952D01*
X185729523Y-149752380D02*
X185158095Y-150323809D01*
%TO.C,R64*%
X269862380Y-112402857D02*
X269386190Y-112736190D01*
X269862380Y-112974285D02*
X268862380Y-112974285D01*
X268862380Y-112593333D01*
X268910000Y-112498095D01*
X268957619Y-112450476D01*
X269052857Y-112402857D01*
X269195714Y-112402857D01*
X269290952Y-112450476D01*
X269338571Y-112498095D01*
X269386190Y-112593333D01*
X269386190Y-112974285D01*
X268862380Y-111545714D02*
X268862380Y-111736190D01*
X268910000Y-111831428D01*
X268957619Y-111879047D01*
X269100476Y-111974285D01*
X269290952Y-112021904D01*
X269671904Y-112021904D01*
X269767142Y-111974285D01*
X269814761Y-111926666D01*
X269862380Y-111831428D01*
X269862380Y-111640952D01*
X269814761Y-111545714D01*
X269767142Y-111498095D01*
X269671904Y-111450476D01*
X269433809Y-111450476D01*
X269338571Y-111498095D01*
X269290952Y-111545714D01*
X269243333Y-111640952D01*
X269243333Y-111831428D01*
X269290952Y-111926666D01*
X269338571Y-111974285D01*
X269433809Y-112021904D01*
X269195714Y-110593333D02*
X269862380Y-110593333D01*
X268814761Y-110831428D02*
X269529047Y-111069523D01*
X269529047Y-110450476D01*
D11*
%TO.C,C1*%
X254677333Y-178253571D02*
X254616857Y-178314047D01*
X254435428Y-178374523D01*
X254314476Y-178374523D01*
X254133047Y-178314047D01*
X254012095Y-178193095D01*
X253951619Y-178072142D01*
X253891142Y-177830238D01*
X253891142Y-177648809D01*
X253951619Y-177406904D01*
X254012095Y-177285952D01*
X254133047Y-177165000D01*
X254314476Y-177104523D01*
X254435428Y-177104523D01*
X254616857Y-177165000D01*
X254677333Y-177225476D01*
X255886857Y-178374523D02*
X255161142Y-178374523D01*
X255524000Y-178374523D02*
X255524000Y-177104523D01*
X255403047Y-177285952D01*
X255282095Y-177406904D01*
X255161142Y-177467380D01*
D10*
%TO.C,R57*%
X226682380Y-112402857D02*
X226206190Y-112736190D01*
X226682380Y-112974285D02*
X225682380Y-112974285D01*
X225682380Y-112593333D01*
X225730000Y-112498095D01*
X225777619Y-112450476D01*
X225872857Y-112402857D01*
X226015714Y-112402857D01*
X226110952Y-112450476D01*
X226158571Y-112498095D01*
X226206190Y-112593333D01*
X226206190Y-112974285D01*
X225682380Y-111498095D02*
X225682380Y-111974285D01*
X226158571Y-112021904D01*
X226110952Y-111974285D01*
X226063333Y-111879047D01*
X226063333Y-111640952D01*
X226110952Y-111545714D01*
X226158571Y-111498095D01*
X226253809Y-111450476D01*
X226491904Y-111450476D01*
X226587142Y-111498095D01*
X226634761Y-111545714D01*
X226682380Y-111640952D01*
X226682380Y-111879047D01*
X226634761Y-111974285D01*
X226587142Y-112021904D01*
X225682380Y-111117142D02*
X225682380Y-110450476D01*
X226682380Y-110879047D01*
%TO.C,R6*%
X53962380Y-111926666D02*
X53486190Y-112260000D01*
X53962380Y-112498095D02*
X52962380Y-112498095D01*
X52962380Y-112117142D01*
X53010000Y-112021904D01*
X53057619Y-111974285D01*
X53152857Y-111926666D01*
X53295714Y-111926666D01*
X53390952Y-111974285D01*
X53438571Y-112021904D01*
X53486190Y-112117142D01*
X53486190Y-112498095D01*
X52962380Y-111069523D02*
X52962380Y-111260000D01*
X53010000Y-111355238D01*
X53057619Y-111402857D01*
X53200476Y-111498095D01*
X53390952Y-111545714D01*
X53771904Y-111545714D01*
X53867142Y-111498095D01*
X53914761Y-111450476D01*
X53962380Y-111355238D01*
X53962380Y-111164761D01*
X53914761Y-111069523D01*
X53867142Y-111021904D01*
X53771904Y-110974285D01*
X53533809Y-110974285D01*
X53438571Y-111021904D01*
X53390952Y-111069523D01*
X53343333Y-111164761D01*
X53343333Y-111355238D01*
X53390952Y-111450476D01*
X53438571Y-111498095D01*
X53533809Y-111545714D01*
D11*
%TO.C,C9*%
X217563333Y-170633571D02*
X217502857Y-170694047D01*
X217321428Y-170754523D01*
X217200476Y-170754523D01*
X217019047Y-170694047D01*
X216898095Y-170573095D01*
X216837619Y-170452142D01*
X216777142Y-170210238D01*
X216777142Y-170028809D01*
X216837619Y-169786904D01*
X216898095Y-169665952D01*
X217019047Y-169545000D01*
X217200476Y-169484523D01*
X217321428Y-169484523D01*
X217502857Y-169545000D01*
X217563333Y-169605476D01*
X218168095Y-170754523D02*
X218410000Y-170754523D01*
X218530952Y-170694047D01*
X218591428Y-170633571D01*
X218712380Y-170452142D01*
X218772857Y-170210238D01*
X218772857Y-169726428D01*
X218712380Y-169605476D01*
X218651904Y-169545000D01*
X218530952Y-169484523D01*
X218289047Y-169484523D01*
X218168095Y-169545000D01*
X218107619Y-169605476D01*
X218047142Y-169726428D01*
X218047142Y-170028809D01*
X218107619Y-170149761D01*
X218168095Y-170210238D01*
X218289047Y-170270714D01*
X218530952Y-170270714D01*
X218651904Y-170210238D01*
X218712380Y-170149761D01*
X218772857Y-170028809D01*
D10*
%TO.C,R44*%
X153022380Y-112402857D02*
X152546190Y-112736190D01*
X153022380Y-112974285D02*
X152022380Y-112974285D01*
X152022380Y-112593333D01*
X152070000Y-112498095D01*
X152117619Y-112450476D01*
X152212857Y-112402857D01*
X152355714Y-112402857D01*
X152450952Y-112450476D01*
X152498571Y-112498095D01*
X152546190Y-112593333D01*
X152546190Y-112974285D01*
X152355714Y-111545714D02*
X153022380Y-111545714D01*
X151974761Y-111783809D02*
X152689047Y-112021904D01*
X152689047Y-111402857D01*
X152355714Y-110593333D02*
X153022380Y-110593333D01*
X151974761Y-110831428D02*
X152689047Y-111069523D01*
X152689047Y-110450476D01*
%TO.C,R13*%
X153022380Y-155582857D02*
X152546190Y-155916190D01*
X153022380Y-156154285D02*
X152022380Y-156154285D01*
X152022380Y-155773333D01*
X152070000Y-155678095D01*
X152117619Y-155630476D01*
X152212857Y-155582857D01*
X152355714Y-155582857D01*
X152450952Y-155630476D01*
X152498571Y-155678095D01*
X152546190Y-155773333D01*
X152546190Y-156154285D01*
X153022380Y-154630476D02*
X153022380Y-155201904D01*
X153022380Y-154916190D02*
X152022380Y-154916190D01*
X152165238Y-155011428D01*
X152260476Y-155106666D01*
X152308095Y-155201904D01*
X152022380Y-154297142D02*
X152022380Y-153678095D01*
X152403333Y-154011428D01*
X152403333Y-153868571D01*
X152450952Y-153773333D01*
X152498571Y-153725714D01*
X152593809Y-153678095D01*
X152831904Y-153678095D01*
X152927142Y-153725714D01*
X152974761Y-153773333D01*
X153022380Y-153868571D01*
X153022380Y-154154285D01*
X152974761Y-154249523D01*
X152927142Y-154297142D01*
%TO.C,R19*%
X208902380Y-153042857D02*
X208426190Y-153376190D01*
X208902380Y-153614285D02*
X207902380Y-153614285D01*
X207902380Y-153233333D01*
X207950000Y-153138095D01*
X207997619Y-153090476D01*
X208092857Y-153042857D01*
X208235714Y-153042857D01*
X208330952Y-153090476D01*
X208378571Y-153138095D01*
X208426190Y-153233333D01*
X208426190Y-153614285D01*
X208902380Y-152090476D02*
X208902380Y-152661904D01*
X208902380Y-152376190D02*
X207902380Y-152376190D01*
X208045238Y-152471428D01*
X208140476Y-152566666D01*
X208188095Y-152661904D01*
X208902380Y-151614285D02*
X208902380Y-151423809D01*
X208854761Y-151328571D01*
X208807142Y-151280952D01*
X208664285Y-151185714D01*
X208473809Y-151138095D01*
X208092857Y-151138095D01*
X207997619Y-151185714D01*
X207950000Y-151233333D01*
X207902380Y-151328571D01*
X207902380Y-151519047D01*
X207950000Y-151614285D01*
X207997619Y-151661904D01*
X208092857Y-151709523D01*
X208330952Y-151709523D01*
X208426190Y-151661904D01*
X208473809Y-151614285D01*
X208521428Y-151519047D01*
X208521428Y-151328571D01*
X208473809Y-151233333D01*
X208426190Y-151185714D01*
X208330952Y-151138095D01*
%TO.C,J8*%
X156906666Y-185162380D02*
X156906666Y-185876666D01*
X156859047Y-186019523D01*
X156763809Y-186114761D01*
X156620952Y-186162380D01*
X156525714Y-186162380D01*
X157525714Y-185590952D02*
X157430476Y-185543333D01*
X157382857Y-185495714D01*
X157335238Y-185400476D01*
X157335238Y-185352857D01*
X157382857Y-185257619D01*
X157430476Y-185210000D01*
X157525714Y-185162380D01*
X157716190Y-185162380D01*
X157811428Y-185210000D01*
X157859047Y-185257619D01*
X157906666Y-185352857D01*
X157906666Y-185400476D01*
X157859047Y-185495714D01*
X157811428Y-185543333D01*
X157716190Y-185590952D01*
X157525714Y-185590952D01*
X157430476Y-185638571D01*
X157382857Y-185686190D01*
X157335238Y-185781428D01*
X157335238Y-185971904D01*
X157382857Y-186067142D01*
X157430476Y-186114761D01*
X157525714Y-186162380D01*
X157716190Y-186162380D01*
X157811428Y-186114761D01*
X157859047Y-186067142D01*
X157906666Y-185971904D01*
X157906666Y-185781428D01*
X157859047Y-185686190D01*
X157811428Y-185638571D01*
X157716190Y-185590952D01*
%TO.C,J16*%
X100550476Y-187702380D02*
X100550476Y-188416666D01*
X100502857Y-188559523D01*
X100407619Y-188654761D01*
X100264761Y-188702380D01*
X100169523Y-188702380D01*
X101550476Y-188702380D02*
X100979047Y-188702380D01*
X101264761Y-188702380D02*
X101264761Y-187702380D01*
X101169523Y-187845238D01*
X101074285Y-187940476D01*
X100979047Y-187988095D01*
X102407619Y-187702380D02*
X102217142Y-187702380D01*
X102121904Y-187750000D01*
X102074285Y-187797619D01*
X101979047Y-187940476D01*
X101931428Y-188130952D01*
X101931428Y-188511904D01*
X101979047Y-188607142D01*
X102026666Y-188654761D01*
X102121904Y-188702380D01*
X102312380Y-188702380D01*
X102407619Y-188654761D01*
X102455238Y-188607142D01*
X102502857Y-188511904D01*
X102502857Y-188273809D01*
X102455238Y-188178571D01*
X102407619Y-188130952D01*
X102312380Y-188083333D01*
X102121904Y-188083333D01*
X102026666Y-188130952D01*
X101979047Y-188178571D01*
X101931428Y-188273809D01*
%TO.C,R14*%
X158102380Y-155582857D02*
X157626190Y-155916190D01*
X158102380Y-156154285D02*
X157102380Y-156154285D01*
X157102380Y-155773333D01*
X157150000Y-155678095D01*
X157197619Y-155630476D01*
X157292857Y-155582857D01*
X157435714Y-155582857D01*
X157530952Y-155630476D01*
X157578571Y-155678095D01*
X157626190Y-155773333D01*
X157626190Y-156154285D01*
X158102380Y-154630476D02*
X158102380Y-155201904D01*
X158102380Y-154916190D02*
X157102380Y-154916190D01*
X157245238Y-155011428D01*
X157340476Y-155106666D01*
X157388095Y-155201904D01*
X157435714Y-153773333D02*
X158102380Y-153773333D01*
X157054761Y-154011428D02*
X157769047Y-154249523D01*
X157769047Y-153630476D01*
%TO.C,D9*%
X138961904Y-150382380D02*
X138961904Y-149382380D01*
X139200000Y-149382380D01*
X139342857Y-149430000D01*
X139438095Y-149525238D01*
X139485714Y-149620476D01*
X139533333Y-149810952D01*
X139533333Y-149953809D01*
X139485714Y-150144285D01*
X139438095Y-150239523D01*
X139342857Y-150334761D01*
X139200000Y-150382380D01*
X138961904Y-150382380D01*
X140009523Y-150382380D02*
X140200000Y-150382380D01*
X140295238Y-150334761D01*
X140342857Y-150287142D01*
X140438095Y-150144285D01*
X140485714Y-149953809D01*
X140485714Y-149572857D01*
X140438095Y-149477619D01*
X140390476Y-149430000D01*
X140295238Y-149382380D01*
X140104761Y-149382380D01*
X140009523Y-149430000D01*
X139961904Y-149477619D01*
X139914285Y-149572857D01*
X139914285Y-149810952D01*
X139961904Y-149906190D01*
X140009523Y-149953809D01*
X140104761Y-150001428D01*
X140295238Y-150001428D01*
X140390476Y-149953809D01*
X140438095Y-149906190D01*
X140485714Y-149810952D01*
X134358095Y-150752380D02*
X134358095Y-149752380D01*
X134929523Y-150752380D02*
X134500952Y-150180952D01*
X134929523Y-149752380D02*
X134358095Y-150323809D01*
D11*
%TO.C,U13*%
X240604523Y-166672380D02*
X241632619Y-166672380D01*
X241753571Y-166611904D01*
X241814047Y-166551428D01*
X241874523Y-166430476D01*
X241874523Y-166188571D01*
X241814047Y-166067619D01*
X241753571Y-166007142D01*
X241632619Y-165946666D01*
X240604523Y-165946666D01*
X241874523Y-164676666D02*
X241874523Y-165402380D01*
X241874523Y-165039523D02*
X240604523Y-165039523D01*
X240785952Y-165160476D01*
X240906904Y-165281428D01*
X240967380Y-165402380D01*
X240604523Y-164253333D02*
X240604523Y-163467142D01*
X241088333Y-163890476D01*
X241088333Y-163709047D01*
X241148809Y-163588095D01*
X241209285Y-163527619D01*
X241330238Y-163467142D01*
X241632619Y-163467142D01*
X241753571Y-163527619D01*
X241814047Y-163588095D01*
X241874523Y-163709047D01*
X241874523Y-164071904D01*
X241814047Y-164192857D01*
X241753571Y-164253333D01*
D10*
%TO.C,U16*%
X47006904Y-119052380D02*
X47006904Y-119861904D01*
X47054523Y-119957142D01*
X47102142Y-120004761D01*
X47197380Y-120052380D01*
X47387857Y-120052380D01*
X47483095Y-120004761D01*
X47530714Y-119957142D01*
X47578333Y-119861904D01*
X47578333Y-119052380D01*
X48578333Y-120052380D02*
X48006904Y-120052380D01*
X48292619Y-120052380D02*
X48292619Y-119052380D01*
X48197380Y-119195238D01*
X48102142Y-119290476D01*
X48006904Y-119338095D01*
X49435476Y-119052380D02*
X49245000Y-119052380D01*
X49149761Y-119100000D01*
X49102142Y-119147619D01*
X49006904Y-119290476D01*
X48959285Y-119480952D01*
X48959285Y-119861904D01*
X49006904Y-119957142D01*
X49054523Y-120004761D01*
X49149761Y-120052380D01*
X49340238Y-120052380D01*
X49435476Y-120004761D01*
X49483095Y-119957142D01*
X49530714Y-119861904D01*
X49530714Y-119623809D01*
X49483095Y-119528571D01*
X49435476Y-119480952D01*
X49340238Y-119433333D01*
X49149761Y-119433333D01*
X49054523Y-119480952D01*
X49006904Y-119528571D01*
X48959285Y-119623809D01*
%TO.C,R53*%
X188582380Y-112402857D02*
X188106190Y-112736190D01*
X188582380Y-112974285D02*
X187582380Y-112974285D01*
X187582380Y-112593333D01*
X187630000Y-112498095D01*
X187677619Y-112450476D01*
X187772857Y-112402857D01*
X187915714Y-112402857D01*
X188010952Y-112450476D01*
X188058571Y-112498095D01*
X188106190Y-112593333D01*
X188106190Y-112974285D01*
X187582380Y-111498095D02*
X187582380Y-111974285D01*
X188058571Y-112021904D01*
X188010952Y-111974285D01*
X187963333Y-111879047D01*
X187963333Y-111640952D01*
X188010952Y-111545714D01*
X188058571Y-111498095D01*
X188153809Y-111450476D01*
X188391904Y-111450476D01*
X188487142Y-111498095D01*
X188534761Y-111545714D01*
X188582380Y-111640952D01*
X188582380Y-111879047D01*
X188534761Y-111974285D01*
X188487142Y-112021904D01*
X187582380Y-111117142D02*
X187582380Y-110498095D01*
X187963333Y-110831428D01*
X187963333Y-110688571D01*
X188010952Y-110593333D01*
X188058571Y-110545714D01*
X188153809Y-110498095D01*
X188391904Y-110498095D01*
X188487142Y-110545714D01*
X188534761Y-110593333D01*
X188582380Y-110688571D01*
X188582380Y-110974285D01*
X188534761Y-111069523D01*
X188487142Y-111117142D01*
%TO.C,R61*%
X254622380Y-112402857D02*
X254146190Y-112736190D01*
X254622380Y-112974285D02*
X253622380Y-112974285D01*
X253622380Y-112593333D01*
X253670000Y-112498095D01*
X253717619Y-112450476D01*
X253812857Y-112402857D01*
X253955714Y-112402857D01*
X254050952Y-112450476D01*
X254098571Y-112498095D01*
X254146190Y-112593333D01*
X254146190Y-112974285D01*
X253622380Y-111545714D02*
X253622380Y-111736190D01*
X253670000Y-111831428D01*
X253717619Y-111879047D01*
X253860476Y-111974285D01*
X254050952Y-112021904D01*
X254431904Y-112021904D01*
X254527142Y-111974285D01*
X254574761Y-111926666D01*
X254622380Y-111831428D01*
X254622380Y-111640952D01*
X254574761Y-111545714D01*
X254527142Y-111498095D01*
X254431904Y-111450476D01*
X254193809Y-111450476D01*
X254098571Y-111498095D01*
X254050952Y-111545714D01*
X254003333Y-111640952D01*
X254003333Y-111831428D01*
X254050952Y-111926666D01*
X254098571Y-111974285D01*
X254193809Y-112021904D01*
X254622380Y-110498095D02*
X254622380Y-111069523D01*
X254622380Y-110783809D02*
X253622380Y-110783809D01*
X253765238Y-110879047D01*
X253860476Y-110974285D01*
X253908095Y-111069523D01*
D11*
%TO.C,U9*%
X144084523Y-171147619D02*
X145112619Y-171147619D01*
X145233571Y-171087142D01*
X145294047Y-171026666D01*
X145354523Y-170905714D01*
X145354523Y-170663809D01*
X145294047Y-170542857D01*
X145233571Y-170482380D01*
X145112619Y-170421904D01*
X144084523Y-170421904D01*
X145354523Y-169756666D02*
X145354523Y-169514761D01*
X145294047Y-169393809D01*
X145233571Y-169333333D01*
X145052142Y-169212380D01*
X144810238Y-169151904D01*
X144326428Y-169151904D01*
X144205476Y-169212380D01*
X144145000Y-169272857D01*
X144084523Y-169393809D01*
X144084523Y-169635714D01*
X144145000Y-169756666D01*
X144205476Y-169817142D01*
X144326428Y-169877619D01*
X144628809Y-169877619D01*
X144749761Y-169817142D01*
X144810238Y-169756666D01*
X144870714Y-169635714D01*
X144870714Y-169393809D01*
X144810238Y-169272857D01*
X144749761Y-169212380D01*
X144628809Y-169151904D01*
D10*
%TO.C,D17*%
X118165714Y-175782380D02*
X118165714Y-174782380D01*
X118403809Y-174782380D01*
X118546666Y-174830000D01*
X118641904Y-174925238D01*
X118689523Y-175020476D01*
X118737142Y-175210952D01*
X118737142Y-175353809D01*
X118689523Y-175544285D01*
X118641904Y-175639523D01*
X118546666Y-175734761D01*
X118403809Y-175782380D01*
X118165714Y-175782380D01*
X119689523Y-175782380D02*
X119118095Y-175782380D01*
X119403809Y-175782380D02*
X119403809Y-174782380D01*
X119308571Y-174925238D01*
X119213333Y-175020476D01*
X119118095Y-175068095D01*
X120022857Y-174782380D02*
X120689523Y-174782380D01*
X120260952Y-175782380D01*
X114038095Y-176152380D02*
X114038095Y-175152380D01*
X114609523Y-176152380D02*
X114180952Y-175580952D01*
X114609523Y-175152380D02*
X114038095Y-175723809D01*
%TO.C,U8*%
X171968095Y-148262380D02*
X171968095Y-149071904D01*
X172015714Y-149167142D01*
X172063333Y-149214761D01*
X172158571Y-149262380D01*
X172349047Y-149262380D01*
X172444285Y-149214761D01*
X172491904Y-149167142D01*
X172539523Y-149071904D01*
X172539523Y-148262380D01*
X173158571Y-148690952D02*
X173063333Y-148643333D01*
X173015714Y-148595714D01*
X172968095Y-148500476D01*
X172968095Y-148452857D01*
X173015714Y-148357619D01*
X173063333Y-148310000D01*
X173158571Y-148262380D01*
X173349047Y-148262380D01*
X173444285Y-148310000D01*
X173491904Y-148357619D01*
X173539523Y-148452857D01*
X173539523Y-148500476D01*
X173491904Y-148595714D01*
X173444285Y-148643333D01*
X173349047Y-148690952D01*
X173158571Y-148690952D01*
X173063333Y-148738571D01*
X173015714Y-148786190D01*
X172968095Y-148881428D01*
X172968095Y-149071904D01*
X173015714Y-149167142D01*
X173063333Y-149214761D01*
X173158571Y-149262380D01*
X173349047Y-149262380D01*
X173444285Y-149214761D01*
X173491904Y-149167142D01*
X173539523Y-149071904D01*
X173539523Y-148881428D01*
X173491904Y-148786190D01*
X173444285Y-148738571D01*
X173349047Y-148690952D01*
%TO.C,R52*%
X206362380Y-112402857D02*
X205886190Y-112736190D01*
X206362380Y-112974285D02*
X205362380Y-112974285D01*
X205362380Y-112593333D01*
X205410000Y-112498095D01*
X205457619Y-112450476D01*
X205552857Y-112402857D01*
X205695714Y-112402857D01*
X205790952Y-112450476D01*
X205838571Y-112498095D01*
X205886190Y-112593333D01*
X205886190Y-112974285D01*
X205362380Y-111498095D02*
X205362380Y-111974285D01*
X205838571Y-112021904D01*
X205790952Y-111974285D01*
X205743333Y-111879047D01*
X205743333Y-111640952D01*
X205790952Y-111545714D01*
X205838571Y-111498095D01*
X205933809Y-111450476D01*
X206171904Y-111450476D01*
X206267142Y-111498095D01*
X206314761Y-111545714D01*
X206362380Y-111640952D01*
X206362380Y-111879047D01*
X206314761Y-111974285D01*
X206267142Y-112021904D01*
X205457619Y-111069523D02*
X205410000Y-111021904D01*
X205362380Y-110926666D01*
X205362380Y-110688571D01*
X205410000Y-110593333D01*
X205457619Y-110545714D01*
X205552857Y-110498095D01*
X205648095Y-110498095D01*
X205790952Y-110545714D01*
X206362380Y-111117142D01*
X206362380Y-110498095D01*
%TO.C,R39*%
X117462380Y-112402857D02*
X116986190Y-112736190D01*
X117462380Y-112974285D02*
X116462380Y-112974285D01*
X116462380Y-112593333D01*
X116510000Y-112498095D01*
X116557619Y-112450476D01*
X116652857Y-112402857D01*
X116795714Y-112402857D01*
X116890952Y-112450476D01*
X116938571Y-112498095D01*
X116986190Y-112593333D01*
X116986190Y-112974285D01*
X116462380Y-112069523D02*
X116462380Y-111450476D01*
X116843333Y-111783809D01*
X116843333Y-111640952D01*
X116890952Y-111545714D01*
X116938571Y-111498095D01*
X117033809Y-111450476D01*
X117271904Y-111450476D01*
X117367142Y-111498095D01*
X117414761Y-111545714D01*
X117462380Y-111640952D01*
X117462380Y-111926666D01*
X117414761Y-112021904D01*
X117367142Y-112069523D01*
X117462380Y-110974285D02*
X117462380Y-110783809D01*
X117414761Y-110688571D01*
X117367142Y-110640952D01*
X117224285Y-110545714D01*
X117033809Y-110498095D01*
X116652857Y-110498095D01*
X116557619Y-110545714D01*
X116510000Y-110593333D01*
X116462380Y-110688571D01*
X116462380Y-110879047D01*
X116510000Y-110974285D01*
X116557619Y-111021904D01*
X116652857Y-111069523D01*
X116890952Y-111069523D01*
X116986190Y-111021904D01*
X117033809Y-110974285D01*
X117081428Y-110879047D01*
X117081428Y-110688571D01*
X117033809Y-110593333D01*
X116986190Y-110545714D01*
X116890952Y-110498095D01*
D12*
%TO.C,R50*%
X198120000Y-107720000D02*
X198120000Y-108490000D01*
X196750000Y-115030000D02*
X199490000Y-115030000D01*
X199490000Y-108490000D02*
X196750000Y-108490000D01*
X198120000Y-115800000D02*
X198120000Y-115030000D01*
X199490000Y-115030000D02*
X199490000Y-108490000D01*
X196750000Y-108490000D02*
X196750000Y-115030000D01*
%TO.C,R47*%
X165100000Y-115800000D02*
X165100000Y-115030000D01*
X166470000Y-108490000D02*
X163730000Y-108490000D01*
X166470000Y-115030000D02*
X166470000Y-108490000D01*
X163730000Y-115030000D02*
X166470000Y-115030000D01*
X165100000Y-107720000D02*
X165100000Y-108490000D01*
X163730000Y-108490000D02*
X163730000Y-115030000D01*
%TO.C,R37*%
X91440000Y-107720000D02*
X91440000Y-108490000D01*
X90070000Y-115030000D02*
X92810000Y-115030000D01*
X92810000Y-108490000D02*
X90070000Y-108490000D01*
X92810000Y-115030000D02*
X92810000Y-108490000D01*
X91440000Y-115800000D02*
X91440000Y-115030000D01*
X90070000Y-108490000D02*
X90070000Y-115030000D01*
%TO.C,R18*%
X207110000Y-149130000D02*
X204370000Y-149130000D01*
X204370000Y-149130000D02*
X204370000Y-155670000D01*
X204370000Y-155670000D02*
X207110000Y-155670000D01*
X205740000Y-156440000D02*
X205740000Y-155670000D01*
X207110000Y-155670000D02*
X207110000Y-149130000D01*
X205740000Y-148360000D02*
X205740000Y-149130000D01*
%TO.C,R35*%
X104140000Y-107720000D02*
X104140000Y-108490000D01*
X105510000Y-115030000D02*
X105510000Y-108490000D01*
X105510000Y-108490000D02*
X102770000Y-108490000D01*
X104140000Y-115800000D02*
X104140000Y-115030000D01*
X102770000Y-115030000D02*
X105510000Y-115030000D01*
X102770000Y-108490000D02*
X102770000Y-115030000D01*
D13*
%TO.C,IC3*%
X86905000Y-122235000D02*
X94740000Y-122235000D01*
X88140000Y-141925000D02*
X94740000Y-141925000D01*
D12*
%TO.C,R10*%
X100230000Y-149130000D02*
X100230000Y-155670000D01*
X102970000Y-149130000D02*
X100230000Y-149130000D01*
X102970000Y-155670000D02*
X102970000Y-149130000D01*
X101600000Y-156440000D02*
X101600000Y-155670000D01*
X101600000Y-148360000D02*
X101600000Y-149130000D01*
X100230000Y-155670000D02*
X102970000Y-155670000D01*
%TO.C,U17*%
X106375000Y-120600000D02*
X105125000Y-120600000D01*
X101875000Y-143580000D02*
X106375000Y-143580000D01*
X106375000Y-143580000D02*
X106375000Y-120600000D01*
X103125000Y-120600000D02*
X101875000Y-120600000D01*
X101875000Y-120600000D02*
X101875000Y-143580000D01*
X103125000Y-120600000D02*
G75*
G03*
X105125000Y-120600000I1000000J0D01*
G01*
%TO.C,R25*%
X282670000Y-143410000D02*
X276130000Y-143410000D01*
X282670000Y-146150000D02*
X282670000Y-143410000D01*
X275360000Y-144780000D02*
X276130000Y-144780000D01*
X276130000Y-146150000D02*
X282670000Y-146150000D01*
X283440000Y-144780000D02*
X282670000Y-144780000D01*
X276130000Y-143410000D02*
X276130000Y-146150000D01*
%TO.C,R4*%
X59460000Y-157480000D02*
X60230000Y-157480000D01*
X60230000Y-156110000D02*
X60230000Y-158850000D01*
X60230000Y-158850000D02*
X66770000Y-158850000D01*
X66770000Y-156110000D02*
X60230000Y-156110000D01*
X66770000Y-158850000D02*
X66770000Y-156110000D01*
X67540000Y-157480000D02*
X66770000Y-157480000D01*
%TO.C,R28*%
X153130000Y-181710000D02*
X153130000Y-178970000D01*
X145820000Y-180340000D02*
X146590000Y-180340000D01*
X146590000Y-181710000D02*
X153130000Y-181710000D01*
X146590000Y-178970000D02*
X146590000Y-181710000D01*
X153130000Y-178970000D02*
X146590000Y-178970000D01*
X153900000Y-180340000D02*
X153130000Y-180340000D01*
%TO.C,R42*%
X143410000Y-108490000D02*
X143410000Y-115030000D01*
X143410000Y-115030000D02*
X146150000Y-115030000D01*
X146150000Y-108490000D02*
X143410000Y-108490000D01*
X144780000Y-107720000D02*
X144780000Y-108490000D01*
X146150000Y-115030000D02*
X146150000Y-108490000D01*
X144780000Y-115800000D02*
X144780000Y-115030000D01*
%TO.C,R60*%
X238760000Y-107720000D02*
X238760000Y-108490000D01*
X238760000Y-115800000D02*
X238760000Y-115030000D01*
X237390000Y-108490000D02*
X237390000Y-115030000D01*
X240130000Y-115030000D02*
X240130000Y-108490000D01*
X240130000Y-108490000D02*
X237390000Y-108490000D01*
X237390000Y-115030000D02*
X240130000Y-115030000D01*
%TO.C,R15*%
X164060000Y-144780000D02*
X163290000Y-144780000D01*
X156750000Y-146150000D02*
X163290000Y-146150000D01*
X155980000Y-144780000D02*
X156750000Y-144780000D01*
X163290000Y-146150000D02*
X163290000Y-143410000D01*
X163290000Y-143410000D02*
X156750000Y-143410000D01*
X156750000Y-143410000D02*
X156750000Y-146150000D01*
%TO.C,R11*%
X64670000Y-108490000D02*
X64670000Y-115030000D01*
X66040000Y-107720000D02*
X66040000Y-108490000D01*
X67410000Y-108490000D02*
X64670000Y-108490000D01*
X67410000Y-115030000D02*
X67410000Y-108490000D01*
X64670000Y-115030000D02*
X67410000Y-115030000D01*
X66040000Y-115800000D02*
X66040000Y-115030000D01*
%TO.C,R20*%
X221710000Y-133450000D02*
X221710000Y-130710000D01*
X221710000Y-130710000D02*
X215170000Y-130710000D01*
X222480000Y-132080000D02*
X221710000Y-132080000D01*
X215170000Y-133450000D02*
X221710000Y-133450000D01*
X214400000Y-132080000D02*
X215170000Y-132080000D01*
X215170000Y-130710000D02*
X215170000Y-133450000D01*
%TO.C,R3*%
X66770000Y-151230000D02*
X66770000Y-148490000D01*
X66770000Y-148490000D02*
X60230000Y-148490000D01*
X60230000Y-151230000D02*
X66770000Y-151230000D01*
X67540000Y-149860000D02*
X66770000Y-149860000D01*
X59460000Y-149860000D02*
X60230000Y-149860000D01*
X60230000Y-148490000D02*
X60230000Y-151230000D01*
%TO.C,D18*%
X117680000Y-181410000D02*
X117680000Y-184350000D01*
X117560000Y-181410000D02*
X117560000Y-184350000D01*
X116660000Y-184350000D02*
X122100000Y-184350000D01*
X115640000Y-182880000D02*
X116660000Y-182880000D01*
X116660000Y-181410000D02*
X116660000Y-184350000D01*
X122100000Y-184350000D02*
X122100000Y-181410000D01*
X122100000Y-181410000D02*
X116660000Y-181410000D01*
X123120000Y-182880000D02*
X122100000Y-182880000D01*
X117440000Y-181410000D02*
X117440000Y-184350000D01*
D13*
%TO.C,IC5*%
X131320000Y-141925000D02*
X137920000Y-141925000D01*
X130085000Y-122235000D02*
X137920000Y-122235000D01*
D12*
%TO.C,U6*%
X122040000Y-147270000D02*
X120390000Y-147270000D01*
X118390000Y-147270000D02*
X116740000Y-147270000D01*
X116740000Y-157550000D02*
X122040000Y-157550000D01*
X122040000Y-157550000D02*
X122040000Y-147270000D01*
X116740000Y-147270000D02*
X116740000Y-157550000D01*
X118390000Y-147270000D02*
G75*
G03*
X120390000Y-147270000I1000000J0D01*
G01*
D13*
%TO.C,C3*%
X63740000Y-167640000D02*
X63740000Y-167640000D01*
D14*
X64940000Y-171890000D02*
X64940000Y-163390000D01*
X72140000Y-171890000D02*
X64940000Y-171890000D01*
X72140000Y-163390000D02*
X72140000Y-171890000D01*
D13*
X63740000Y-167740000D02*
X63740000Y-167740000D01*
D14*
X64940000Y-163390000D02*
X72140000Y-163390000D01*
D13*
X63740000Y-167640000D02*
X63740000Y-167640000D01*
X63740000Y-167640000D02*
G75*
G03*
X63740000Y-167740000I0J-50000D01*
G01*
X63740000Y-167740000D02*
G75*
G03*
X63740000Y-167640000I0J50000D01*
G01*
X63740000Y-167640000D02*
G75*
G03*
X63740000Y-167740000I0J-50000D01*
G01*
D12*
%TO.C,R2*%
X61690000Y-189130000D02*
X55150000Y-189130000D01*
X61690000Y-191870000D02*
X61690000Y-189130000D01*
X55150000Y-189130000D02*
X55150000Y-191870000D01*
X54380000Y-190500000D02*
X55150000Y-190500000D01*
X62460000Y-190500000D02*
X61690000Y-190500000D01*
X55150000Y-191870000D02*
X61690000Y-191870000D01*
%TO.C,D11*%
X187780000Y-145850000D02*
X187780000Y-148790000D01*
X188680000Y-145850000D02*
X188680000Y-148790000D01*
X188560000Y-145850000D02*
X188560000Y-148790000D01*
X187780000Y-148790000D02*
X193220000Y-148790000D01*
X188800000Y-145850000D02*
X188800000Y-148790000D01*
X193220000Y-148790000D02*
X193220000Y-145850000D01*
X194240000Y-147320000D02*
X193220000Y-147320000D01*
X193220000Y-145850000D02*
X187780000Y-145850000D01*
X186760000Y-147320000D02*
X187780000Y-147320000D01*
D13*
%TO.C,IC8*%
X238000000Y-139385000D02*
X244600000Y-139385000D01*
X236765000Y-119695000D02*
X244600000Y-119695000D01*
D12*
%TO.C,R54*%
X211990000Y-115030000D02*
X214730000Y-115030000D01*
X214730000Y-115030000D02*
X214730000Y-108490000D01*
X214730000Y-108490000D02*
X211990000Y-108490000D01*
X213360000Y-115800000D02*
X213360000Y-115030000D01*
X213360000Y-107720000D02*
X213360000Y-108490000D01*
X211990000Y-108490000D02*
X211990000Y-115030000D01*
%TO.C,D1*%
X269240000Y-163900000D02*
X269240000Y-164920000D01*
X270710000Y-165820000D02*
X267770000Y-165820000D01*
X270710000Y-165700000D02*
X267770000Y-165700000D01*
X270710000Y-164920000D02*
X267770000Y-164920000D01*
X270710000Y-170360000D02*
X270710000Y-164920000D01*
X267770000Y-170360000D02*
X270710000Y-170360000D01*
X269240000Y-171380000D02*
X269240000Y-170360000D01*
X267770000Y-164920000D02*
X267770000Y-170360000D01*
X270710000Y-165940000D02*
X267770000Y-165940000D01*
D13*
%TO.C,IC2*%
X31025000Y-122235000D02*
X38860000Y-122235000D01*
X32260000Y-141925000D02*
X38860000Y-141925000D01*
D12*
%TO.C,D3*%
X38280000Y-161490000D02*
X38280000Y-158550000D01*
X32840000Y-161490000D02*
X38280000Y-161490000D01*
X32840000Y-158550000D02*
X32840000Y-161490000D01*
X33860000Y-158550000D02*
X33860000Y-161490000D01*
X33740000Y-158550000D02*
X33740000Y-161490000D01*
X33620000Y-158550000D02*
X33620000Y-161490000D01*
X39300000Y-160020000D02*
X38280000Y-160020000D01*
X31820000Y-160020000D02*
X32840000Y-160020000D01*
X38280000Y-158550000D02*
X32840000Y-158550000D01*
%TO.C,U10*%
X225070000Y-147270000D02*
X223420000Y-147270000D01*
X228720000Y-157550000D02*
X228720000Y-147270000D01*
X223420000Y-147270000D02*
X223420000Y-157550000D01*
X223420000Y-157550000D02*
X228720000Y-157550000D01*
X228720000Y-147270000D02*
X227070000Y-147270000D01*
X225070000Y-147270000D02*
G75*
G03*
X227070000Y-147270000I1000000J0D01*
G01*
D14*
%TO.C,C11*%
X263060000Y-156650000D02*
X263060000Y-148150000D01*
D13*
X261860000Y-152500000D02*
X261860000Y-152500000D01*
D14*
X270260000Y-148150000D02*
X270260000Y-156650000D01*
D13*
X261860000Y-152400000D02*
X261860000Y-152400000D01*
X261860000Y-152400000D02*
X261860000Y-152400000D01*
D14*
X270260000Y-156650000D02*
X263060000Y-156650000D01*
X263060000Y-148150000D02*
X270260000Y-148150000D01*
D13*
X261860000Y-152400000D02*
G75*
G03*
X261860000Y-152500000I0J-50000D01*
G01*
X261860000Y-152500000D02*
G75*
G03*
X261860000Y-152400000I0J50000D01*
G01*
X261860000Y-152400000D02*
G75*
G03*
X261860000Y-152500000I0J-50000D01*
G01*
D12*
%TO.C,R26*%
X49430000Y-108490000D02*
X49430000Y-115030000D01*
X50800000Y-115800000D02*
X50800000Y-115030000D01*
X52170000Y-115030000D02*
X52170000Y-108490000D01*
X50800000Y-107720000D02*
X50800000Y-108490000D01*
X49430000Y-115030000D02*
X52170000Y-115030000D01*
X52170000Y-108490000D02*
X49430000Y-108490000D01*
%TO.C,D10*%
X143440000Y-157480000D02*
X142420000Y-157480000D01*
X136980000Y-158950000D02*
X142420000Y-158950000D01*
X138000000Y-156010000D02*
X138000000Y-158950000D01*
X135960000Y-157480000D02*
X136980000Y-157480000D01*
X142420000Y-156010000D02*
X136980000Y-156010000D01*
X142420000Y-158950000D02*
X142420000Y-156010000D01*
X137880000Y-156010000D02*
X137880000Y-158950000D01*
X136980000Y-156010000D02*
X136980000Y-158950000D01*
X137760000Y-156010000D02*
X137760000Y-158950000D01*
D13*
%TO.C,U7*%
X81595000Y-172175000D02*
X81595000Y-164340000D01*
X101285000Y-170940000D02*
X101285000Y-164340000D01*
D12*
%TO.C,D7*%
X86180000Y-156010000D02*
X86180000Y-158950000D01*
X92640000Y-157480000D02*
X91620000Y-157480000D01*
X86960000Y-156010000D02*
X86960000Y-158950000D01*
X86180000Y-158950000D02*
X91620000Y-158950000D01*
X91620000Y-158950000D02*
X91620000Y-156010000D01*
X91620000Y-156010000D02*
X86180000Y-156010000D01*
X87080000Y-156010000D02*
X87080000Y-158950000D01*
X87200000Y-156010000D02*
X87200000Y-158950000D01*
X85160000Y-157480000D02*
X86180000Y-157480000D01*
%TO.C,R34*%
X99060000Y-115800000D02*
X99060000Y-115030000D01*
X100430000Y-108490000D02*
X97690000Y-108490000D01*
X97690000Y-108490000D02*
X97690000Y-115030000D01*
X97690000Y-115030000D02*
X100430000Y-115030000D01*
X100430000Y-115030000D02*
X100430000Y-108490000D01*
X99060000Y-107720000D02*
X99060000Y-108490000D01*
%TO.C,U19*%
X203475000Y-120600000D02*
X203475000Y-143580000D01*
X207975000Y-143580000D02*
X207975000Y-120600000D01*
X203475000Y-143580000D02*
X207975000Y-143580000D01*
X207975000Y-120600000D02*
X206725000Y-120600000D01*
X204725000Y-120600000D02*
X203475000Y-120600000D01*
X204725000Y-120600000D02*
G75*
G03*
X206725000Y-120600000I1000000J0D01*
G01*
%TO.C,R41*%
X130910000Y-115030000D02*
X130910000Y-108490000D01*
X130910000Y-108490000D02*
X128170000Y-108490000D01*
X129540000Y-107720000D02*
X129540000Y-108490000D01*
X128170000Y-108490000D02*
X128170000Y-115030000D01*
X129540000Y-115800000D02*
X129540000Y-115030000D01*
X128170000Y-115030000D02*
X130910000Y-115030000D01*
%TO.C,R38*%
X112930000Y-115030000D02*
X115670000Y-115030000D01*
X114300000Y-115800000D02*
X114300000Y-115030000D01*
X115670000Y-108490000D02*
X112930000Y-108490000D01*
X114300000Y-107720000D02*
X114300000Y-108490000D01*
X112930000Y-108490000D02*
X112930000Y-115030000D01*
X115670000Y-115030000D02*
X115670000Y-108490000D01*
D13*
%TO.C,IC4*%
X174500000Y-141925000D02*
X181100000Y-141925000D01*
X173265000Y-122235000D02*
X181100000Y-122235000D01*
D12*
%TO.C,R45*%
X135790000Y-115030000D02*
X138530000Y-115030000D01*
X138530000Y-115030000D02*
X138530000Y-108490000D01*
X137160000Y-107720000D02*
X137160000Y-108490000D01*
X135790000Y-108490000D02*
X135790000Y-115030000D01*
X137160000Y-115800000D02*
X137160000Y-115030000D01*
X138530000Y-108490000D02*
X135790000Y-108490000D01*
%TO.C,R40*%
X124460000Y-107720000D02*
X124460000Y-108490000D01*
X123090000Y-108490000D02*
X123090000Y-115030000D01*
X123090000Y-115030000D02*
X125830000Y-115030000D01*
X124460000Y-115800000D02*
X124460000Y-115030000D01*
X125830000Y-108490000D02*
X123090000Y-108490000D01*
X125830000Y-115030000D02*
X125830000Y-108490000D01*
%TO.C,R63*%
X266700000Y-107720000D02*
X266700000Y-108490000D01*
X265330000Y-108490000D02*
X265330000Y-115030000D01*
X268070000Y-115030000D02*
X268070000Y-108490000D01*
X265330000Y-115030000D02*
X268070000Y-115030000D01*
X266700000Y-115800000D02*
X266700000Y-115030000D01*
X268070000Y-108490000D02*
X265330000Y-108490000D01*
%TO.C,R51*%
X203200000Y-107720000D02*
X203200000Y-108490000D01*
X203200000Y-115800000D02*
X203200000Y-115030000D01*
X204570000Y-108490000D02*
X201830000Y-108490000D01*
X204570000Y-115030000D02*
X204570000Y-108490000D01*
X201830000Y-108490000D02*
X201830000Y-115030000D01*
X201830000Y-115030000D02*
X204570000Y-115030000D01*
%TO.C,R62*%
X262990000Y-115030000D02*
X262990000Y-108490000D01*
X260250000Y-115030000D02*
X262990000Y-115030000D01*
X260250000Y-108490000D02*
X260250000Y-115030000D01*
X262990000Y-108490000D02*
X260250000Y-108490000D01*
X261620000Y-107720000D02*
X261620000Y-108490000D01*
X261620000Y-115800000D02*
X261620000Y-115030000D01*
%TO.C,R58*%
X246380000Y-115800000D02*
X246380000Y-115030000D01*
X245010000Y-115030000D02*
X247750000Y-115030000D01*
X247750000Y-108490000D02*
X245010000Y-108490000D01*
X245010000Y-108490000D02*
X245010000Y-115030000D01*
X247750000Y-115030000D02*
X247750000Y-108490000D01*
X246380000Y-107720000D02*
X246380000Y-108490000D01*
%TO.C,D16*%
X238580000Y-152800000D02*
X238580000Y-155740000D01*
X239600000Y-152800000D02*
X239600000Y-155740000D01*
X237560000Y-154270000D02*
X238580000Y-154270000D01*
X239360000Y-152800000D02*
X239360000Y-155740000D01*
X244020000Y-155740000D02*
X244020000Y-152800000D01*
X244020000Y-152800000D02*
X238580000Y-152800000D01*
X245040000Y-154270000D02*
X244020000Y-154270000D01*
X239480000Y-152800000D02*
X239480000Y-155740000D01*
X238580000Y-155740000D02*
X244020000Y-155740000D01*
%TO.C,U20*%
X254275000Y-120600000D02*
X254275000Y-143580000D01*
X258775000Y-143580000D02*
X258775000Y-120600000D01*
X258775000Y-120600000D02*
X257525000Y-120600000D01*
X254275000Y-143580000D02*
X258775000Y-143580000D01*
X255525000Y-120600000D02*
X254275000Y-120600000D01*
X255525000Y-120600000D02*
G75*
G03*
X257525000Y-120600000I1000000J0D01*
G01*
%TO.C,R16*%
X34390000Y-115030000D02*
X34390000Y-108490000D01*
X33020000Y-115800000D02*
X33020000Y-115030000D01*
X31650000Y-115030000D02*
X34390000Y-115030000D01*
X34390000Y-108490000D02*
X31650000Y-108490000D01*
X31650000Y-108490000D02*
X31650000Y-115030000D01*
X33020000Y-107720000D02*
X33020000Y-108490000D01*
D11*
%TO.C,C2*%
X285565000Y-170180000D02*
G75*
G03*
X285565000Y-170180000I-2625000J0D01*
G01*
D12*
%TO.C,R65*%
X278230000Y-108490000D02*
X275490000Y-108490000D01*
X278230000Y-115030000D02*
X278230000Y-108490000D01*
X276860000Y-115800000D02*
X276860000Y-115030000D01*
X276860000Y-107720000D02*
X276860000Y-108490000D01*
X275490000Y-108490000D02*
X275490000Y-115030000D01*
X275490000Y-115030000D02*
X278230000Y-115030000D01*
%TO.C,R56*%
X222150000Y-115030000D02*
X224890000Y-115030000D01*
X223520000Y-115800000D02*
X223520000Y-115030000D01*
X224890000Y-108490000D02*
X222150000Y-108490000D01*
X224890000Y-115030000D02*
X224890000Y-108490000D01*
X222150000Y-108490000D02*
X222150000Y-115030000D01*
X223520000Y-107720000D02*
X223520000Y-108490000D01*
D11*
%TO.C,C4*%
X59505000Y-167640000D02*
G75*
G03*
X59505000Y-167640000I-2625000J0D01*
G01*
D12*
%TO.C,R55*%
X218440000Y-107720000D02*
X218440000Y-108490000D01*
X218440000Y-115800000D02*
X218440000Y-115030000D01*
X217070000Y-115030000D02*
X219810000Y-115030000D01*
X219810000Y-115030000D02*
X219810000Y-108490000D01*
X219810000Y-108490000D02*
X217070000Y-108490000D01*
X217070000Y-108490000D02*
X217070000Y-115030000D01*
%TO.C,R30*%
X159290000Y-181710000D02*
X165830000Y-181710000D01*
X159290000Y-178970000D02*
X159290000Y-181710000D01*
X165830000Y-181710000D02*
X165830000Y-178970000D01*
X158520000Y-180340000D02*
X159290000Y-180340000D01*
X165830000Y-178970000D02*
X159290000Y-178970000D01*
X166600000Y-180340000D02*
X165830000Y-180340000D01*
D14*
%TO.C,U4*%
X50420000Y-185020000D02*
X50420000Y-184620000D01*
X31820000Y-185120000D02*
X31820000Y-185490000D01*
X30820000Y-184120000D02*
X31820000Y-185120000D01*
X30920000Y-178220000D02*
X30920000Y-178620000D01*
X31820000Y-185500000D02*
X31820000Y-185750000D01*
X50420000Y-178720000D02*
X50420000Y-178220000D01*
X31320000Y-178220000D02*
X30920000Y-178220000D01*
X30820000Y-183820000D02*
X30820000Y-184120000D01*
X50020000Y-185020000D02*
X50420000Y-185020000D01*
X50420000Y-178220000D02*
X50020000Y-178220000D01*
D12*
%TO.C,R59*%
X250090000Y-108490000D02*
X250090000Y-115030000D01*
X250090000Y-115030000D02*
X252830000Y-115030000D01*
X251460000Y-107720000D02*
X251460000Y-108490000D01*
X252830000Y-115030000D02*
X252830000Y-108490000D01*
X252830000Y-108490000D02*
X250090000Y-108490000D01*
X251460000Y-115800000D02*
X251460000Y-115030000D01*
%TO.C,D8*%
X136980000Y-148790000D02*
X142420000Y-148790000D01*
X136980000Y-145850000D02*
X136980000Y-148790000D01*
X143440000Y-147320000D02*
X142420000Y-147320000D01*
X142420000Y-145850000D02*
X136980000Y-145850000D01*
X142420000Y-148790000D02*
X142420000Y-145850000D01*
X138000000Y-145850000D02*
X138000000Y-148790000D01*
X135960000Y-147320000D02*
X136980000Y-147320000D01*
X137880000Y-145850000D02*
X137880000Y-148790000D01*
X137760000Y-145850000D02*
X137760000Y-148790000D01*
%TO.C,U15*%
X109295000Y-177680000D02*
X88855000Y-177680000D01*
X88855000Y-177680000D02*
X88855000Y-179330000D01*
X109295000Y-182980000D02*
X109295000Y-177680000D01*
X88855000Y-181330000D02*
X88855000Y-182980000D01*
X88855000Y-182980000D02*
X109295000Y-182980000D01*
X88855000Y-181330000D02*
G75*
G03*
X88855000Y-179330000I0J1000000D01*
G01*
%TO.C,R9*%
X131350000Y-186790000D02*
X137890000Y-186790000D01*
X138660000Y-185420000D02*
X137890000Y-185420000D01*
X137890000Y-184050000D02*
X131350000Y-184050000D01*
X130580000Y-185420000D02*
X131350000Y-185420000D01*
X131350000Y-184050000D02*
X131350000Y-186790000D01*
X137890000Y-186790000D02*
X137890000Y-184050000D01*
%TO.C,D6*%
X91620000Y-153870000D02*
X91620000Y-150930000D01*
X87080000Y-150930000D02*
X87080000Y-153870000D01*
X86180000Y-150930000D02*
X86180000Y-153870000D01*
X86960000Y-150930000D02*
X86960000Y-153870000D01*
X86180000Y-153870000D02*
X91620000Y-153870000D01*
X91620000Y-150930000D02*
X86180000Y-150930000D01*
X87200000Y-150930000D02*
X87200000Y-153870000D01*
X85160000Y-152400000D02*
X86180000Y-152400000D01*
X92640000Y-152400000D02*
X91620000Y-152400000D01*
%TO.C,R22*%
X283440000Y-129540000D02*
X282670000Y-129540000D01*
X276130000Y-128170000D02*
X276130000Y-130910000D01*
X282670000Y-128170000D02*
X276130000Y-128170000D01*
X275360000Y-129540000D02*
X276130000Y-129540000D01*
X282670000Y-130910000D02*
X282670000Y-128170000D01*
X276130000Y-130910000D02*
X282670000Y-130910000D01*
%TO.C,D13*%
X188560000Y-156010000D02*
X188560000Y-158950000D01*
X193220000Y-156010000D02*
X187780000Y-156010000D01*
X187780000Y-156010000D02*
X187780000Y-158950000D01*
X186760000Y-157480000D02*
X187780000Y-157480000D01*
X194240000Y-157480000D02*
X193220000Y-157480000D01*
X193220000Y-158950000D02*
X193220000Y-156010000D01*
X187780000Y-158950000D02*
X193220000Y-158950000D01*
X188800000Y-156010000D02*
X188800000Y-158950000D01*
X188680000Y-156010000D02*
X188680000Y-158950000D01*
%TO.C,R27*%
X240570000Y-173890000D02*
X240570000Y-176630000D01*
X247880000Y-175260000D02*
X247110000Y-175260000D01*
X240570000Y-176630000D02*
X247110000Y-176630000D01*
X247110000Y-173890000D02*
X240570000Y-173890000D01*
X239800000Y-175260000D02*
X240570000Y-175260000D01*
X247110000Y-176630000D02*
X247110000Y-173890000D01*
%TO.C,U2*%
X66160000Y-144850000D02*
X66160000Y-134570000D01*
X62510000Y-134570000D02*
X60860000Y-134570000D01*
X66160000Y-134570000D02*
X64510000Y-134570000D01*
X60860000Y-144850000D02*
X66160000Y-144850000D01*
X60860000Y-134570000D02*
X60860000Y-144850000D01*
X62510000Y-134570000D02*
G75*
G03*
X64510000Y-134570000I1000000J0D01*
G01*
%TO.C,D4*%
X38280000Y-156410000D02*
X38280000Y-153470000D01*
X33860000Y-153470000D02*
X33860000Y-156410000D01*
X33620000Y-153470000D02*
X33620000Y-156410000D01*
X38280000Y-153470000D02*
X32840000Y-153470000D01*
X32840000Y-153470000D02*
X32840000Y-156410000D01*
X32840000Y-156410000D02*
X38280000Y-156410000D01*
X33740000Y-153470000D02*
X33740000Y-156410000D01*
X39300000Y-154940000D02*
X38280000Y-154940000D01*
X31820000Y-154940000D02*
X32840000Y-154940000D01*
D13*
%TO.C,U3*%
X50485000Y-170940000D02*
X50485000Y-164340000D01*
X30795000Y-172175000D02*
X30795000Y-164340000D01*
D12*
%TO.C,R21*%
X60960000Y-107720000D02*
X60960000Y-108490000D01*
X59590000Y-115030000D02*
X62330000Y-115030000D01*
X62330000Y-115030000D02*
X62330000Y-108490000D01*
X62330000Y-108490000D02*
X59590000Y-108490000D01*
X59590000Y-108490000D02*
X59590000Y-115030000D01*
X60960000Y-115800000D02*
X60960000Y-115030000D01*
%TO.C,R8*%
X130580000Y-180340000D02*
X131350000Y-180340000D01*
X131350000Y-181710000D02*
X137890000Y-181710000D01*
X138660000Y-180340000D02*
X137890000Y-180340000D01*
X137890000Y-178970000D02*
X131350000Y-178970000D01*
X131350000Y-178970000D02*
X131350000Y-181710000D01*
X137890000Y-181710000D02*
X137890000Y-178970000D01*
D11*
%TO.C,C10*%
X209365000Y-170180000D02*
G75*
G03*
X209365000Y-170180000I-2625000J0D01*
G01*
%TO.C,C12*%
X257625000Y-152400000D02*
G75*
G03*
X257625000Y-152400000I-2625000J0D01*
G01*
D12*
%TO.C,R46*%
X161390000Y-108490000D02*
X158650000Y-108490000D01*
X160020000Y-107720000D02*
X160020000Y-108490000D01*
X160020000Y-115800000D02*
X160020000Y-115030000D01*
X161390000Y-115030000D02*
X161390000Y-108490000D01*
X158650000Y-108490000D02*
X158650000Y-115030000D01*
X158650000Y-115030000D02*
X161390000Y-115030000D01*
%TO.C,R31*%
X71120000Y-115800000D02*
X71120000Y-115030000D01*
X71120000Y-107720000D02*
X71120000Y-108490000D01*
X69750000Y-115030000D02*
X72490000Y-115030000D01*
X72490000Y-108490000D02*
X69750000Y-108490000D01*
X69750000Y-108490000D02*
X69750000Y-115030000D01*
X72490000Y-115030000D02*
X72490000Y-108490000D01*
%TO.C,R49*%
X173890000Y-108490000D02*
X173890000Y-115030000D01*
X176630000Y-115030000D02*
X176630000Y-108490000D01*
X176630000Y-108490000D02*
X173890000Y-108490000D01*
X175260000Y-107720000D02*
X175260000Y-108490000D01*
X175260000Y-115800000D02*
X175260000Y-115030000D01*
X173890000Y-115030000D02*
X176630000Y-115030000D01*
%TO.C,R12*%
X160460000Y-136000000D02*
X161230000Y-136000000D01*
X161230000Y-134630000D02*
X161230000Y-137370000D01*
X161230000Y-137370000D02*
X167770000Y-137370000D01*
X167770000Y-134630000D02*
X161230000Y-134630000D01*
X168540000Y-136000000D02*
X167770000Y-136000000D01*
X167770000Y-137370000D02*
X167770000Y-134630000D01*
%TO.C,U18*%
X149555000Y-120600000D02*
X148305000Y-120600000D01*
X145055000Y-120600000D02*
X145055000Y-143580000D01*
X146305000Y-120600000D02*
X145055000Y-120600000D01*
X149555000Y-143580000D02*
X149555000Y-120600000D01*
X145055000Y-143580000D02*
X149555000Y-143580000D01*
X146305000Y-120600000D02*
G75*
G03*
X148305000Y-120600000I1000000J0D01*
G01*
%TO.C,R7*%
X83820000Y-107720000D02*
X83820000Y-108490000D01*
X82450000Y-108490000D02*
X82450000Y-115030000D01*
X82450000Y-115030000D02*
X85190000Y-115030000D01*
X83820000Y-115800000D02*
X83820000Y-115030000D01*
X85190000Y-115030000D02*
X85190000Y-108490000D01*
X85190000Y-108490000D02*
X82450000Y-108490000D01*
%TO.C,R33*%
X42010000Y-115030000D02*
X42010000Y-108490000D01*
X39270000Y-115030000D02*
X42010000Y-115030000D01*
X40640000Y-107720000D02*
X40640000Y-108490000D01*
X40640000Y-115800000D02*
X40640000Y-115030000D01*
X39270000Y-108490000D02*
X39270000Y-115030000D01*
X42010000Y-108490000D02*
X39270000Y-108490000D01*
%TO.C,R1*%
X176630000Y-182150000D02*
X173890000Y-182150000D01*
X175260000Y-189460000D02*
X175260000Y-188690000D01*
X173890000Y-188690000D02*
X176630000Y-188690000D01*
X176630000Y-188690000D02*
X176630000Y-182150000D01*
X173890000Y-182150000D02*
X173890000Y-188690000D01*
X175260000Y-181380000D02*
X175260000Y-182150000D01*
%TO.C,R36*%
X110590000Y-115030000D02*
X110590000Y-108490000D01*
X110590000Y-108490000D02*
X107850000Y-108490000D01*
X107850000Y-108490000D02*
X107850000Y-115030000D01*
X109220000Y-115800000D02*
X109220000Y-115030000D01*
X109220000Y-107720000D02*
X109220000Y-108490000D01*
X107850000Y-115030000D02*
X110590000Y-115030000D01*
D13*
%TO.C,U11*%
X200345000Y-173480000D02*
X200345000Y-166880000D01*
X180655000Y-174715000D02*
X180655000Y-166880000D01*
%TO.C,IC7*%
X203515000Y-187415000D02*
X203515000Y-179580000D01*
X223205000Y-186180000D02*
X223205000Y-179580000D01*
D12*
%TO.C,U1*%
X273350000Y-155180000D02*
X274590000Y-155180000D01*
X273350000Y-156420000D02*
X273350000Y-155180000D01*
X273590000Y-155420000D02*
X273590000Y-164040000D01*
X273590000Y-155420000D02*
X285210000Y-155420000D01*
X285210000Y-155420000D02*
X285210000Y-164040000D01*
X273590000Y-164040000D02*
X285210000Y-164040000D01*
%TO.C,D15*%
X245040000Y-149190000D02*
X244020000Y-149190000D01*
X239600000Y-147720000D02*
X239600000Y-150660000D01*
X239480000Y-147720000D02*
X239480000Y-150660000D01*
X237560000Y-149190000D02*
X238580000Y-149190000D01*
X239360000Y-147720000D02*
X239360000Y-150660000D01*
X238580000Y-150660000D02*
X244020000Y-150660000D01*
X244020000Y-150660000D02*
X244020000Y-147720000D01*
X238580000Y-147720000D02*
X238580000Y-150660000D01*
X244020000Y-147720000D02*
X238580000Y-147720000D01*
D13*
%TO.C,IC6*%
X188505000Y-122235000D02*
X196340000Y-122235000D01*
X189740000Y-141925000D02*
X196340000Y-141925000D01*
D12*
%TO.C,U12*%
X256440000Y-170250000D02*
X261740000Y-170250000D01*
X256440000Y-159970000D02*
X256440000Y-170250000D01*
X258090000Y-159970000D02*
X256440000Y-159970000D01*
X261740000Y-170250000D02*
X261740000Y-159970000D01*
X261740000Y-159970000D02*
X260090000Y-159970000D01*
X258090000Y-159970000D02*
G75*
G03*
X260090000Y-159970000I1000000J0D01*
G01*
D14*
%TO.C,U5*%
X83410000Y-176950000D02*
X83010000Y-176950000D01*
X63810000Y-182550000D02*
X63810000Y-182850000D01*
X63810000Y-182850000D02*
X64810000Y-183850000D01*
X64310000Y-176950000D02*
X63910000Y-176950000D01*
X64810000Y-184230000D02*
X64810000Y-184480000D01*
X83410000Y-183750000D02*
X83410000Y-183350000D01*
X63910000Y-176950000D02*
X63910000Y-177350000D01*
X83010000Y-183750000D02*
X83410000Y-183750000D01*
X64810000Y-183850000D02*
X64810000Y-184220000D01*
X83410000Y-177450000D02*
X83410000Y-176950000D01*
D13*
%TO.C,C5*%
X119620000Y-167640000D02*
X119620000Y-167640000D01*
D14*
X128020000Y-163390000D02*
X128020000Y-171890000D01*
D13*
X119620000Y-167740000D02*
X119620000Y-167740000D01*
D14*
X120820000Y-171890000D02*
X120820000Y-163390000D01*
D13*
X119620000Y-167640000D02*
X119620000Y-167640000D01*
D14*
X128020000Y-171890000D02*
X120820000Y-171890000D01*
X120820000Y-163390000D02*
X128020000Y-163390000D01*
D13*
X119620000Y-167740000D02*
G75*
G03*
X119620000Y-167640000I0J50000D01*
G01*
X119620000Y-167640000D02*
G75*
G03*
X119620000Y-167740000I0J-50000D01*
G01*
X119620000Y-167640000D02*
G75*
G03*
X119620000Y-167740000I0J-50000D01*
G01*
D12*
%TO.C,D2*%
X33860000Y-148390000D02*
X33860000Y-151330000D01*
X33740000Y-148390000D02*
X33740000Y-151330000D01*
X31820000Y-149860000D02*
X32840000Y-149860000D01*
X32840000Y-148390000D02*
X32840000Y-151330000D01*
X32840000Y-151330000D02*
X38280000Y-151330000D01*
X39300000Y-149860000D02*
X38280000Y-149860000D01*
X33620000Y-148390000D02*
X33620000Y-151330000D01*
X38280000Y-151330000D02*
X38280000Y-148390000D01*
X38280000Y-148390000D02*
X32840000Y-148390000D01*
%TO.C,R5*%
X54710000Y-151670000D02*
X51970000Y-151670000D01*
X53340000Y-150900000D02*
X53340000Y-151670000D01*
X54710000Y-158210000D02*
X54710000Y-151670000D01*
X51970000Y-151670000D02*
X51970000Y-158210000D01*
X53340000Y-158980000D02*
X53340000Y-158210000D01*
X51970000Y-158210000D02*
X54710000Y-158210000D01*
D14*
%TO.C,C7*%
X166540000Y-174430000D02*
X166540000Y-165930000D01*
D13*
X165340000Y-170280000D02*
X165340000Y-170280000D01*
D14*
X173740000Y-165930000D02*
X173740000Y-174430000D01*
X166540000Y-165930000D02*
X173740000Y-165930000D01*
X173740000Y-174430000D02*
X166540000Y-174430000D01*
D13*
X165340000Y-170180000D02*
X165340000Y-170180000D01*
X165340000Y-170180000D02*
X165340000Y-170180000D01*
X165340000Y-170180000D02*
G75*
G03*
X165340000Y-170280000I0J-50000D01*
G01*
X165340000Y-170180000D02*
G75*
G03*
X165340000Y-170280000I0J-50000D01*
G01*
X165340000Y-170280000D02*
G75*
G03*
X165340000Y-170180000I0J50000D01*
G01*
D12*
%TO.C,R32*%
X44350000Y-108490000D02*
X44350000Y-115030000D01*
X47090000Y-108490000D02*
X44350000Y-108490000D01*
X44350000Y-115030000D02*
X47090000Y-115030000D01*
X45720000Y-107720000D02*
X45720000Y-108490000D01*
X45720000Y-115800000D02*
X45720000Y-115030000D01*
X47090000Y-115030000D02*
X47090000Y-108490000D01*
%TO.C,R24*%
X276130000Y-141070000D02*
X282670000Y-141070000D01*
X282670000Y-138330000D02*
X276130000Y-138330000D01*
X283440000Y-139700000D02*
X282670000Y-139700000D01*
X282670000Y-141070000D02*
X282670000Y-138330000D01*
X276130000Y-138330000D02*
X276130000Y-141070000D01*
X275360000Y-139700000D02*
X276130000Y-139700000D01*
D11*
%TO.C,C8*%
X161645000Y-170180000D02*
G75*
G03*
X161645000Y-170180000I-2625000J0D01*
G01*
D12*
%TO.C,D14*%
X239360000Y-142640000D02*
X239360000Y-145580000D01*
X238580000Y-142640000D02*
X238580000Y-145580000D01*
X237560000Y-144110000D02*
X238580000Y-144110000D01*
X238580000Y-145580000D02*
X244020000Y-145580000D01*
X244020000Y-142640000D02*
X238580000Y-142640000D01*
X239600000Y-142640000D02*
X239600000Y-145580000D01*
X245040000Y-144110000D02*
X244020000Y-144110000D01*
X244020000Y-145580000D02*
X244020000Y-142640000D01*
X239480000Y-142640000D02*
X239480000Y-145580000D01*
%TO.C,R29*%
X138660000Y-190500000D02*
X137890000Y-190500000D01*
X131350000Y-191870000D02*
X137890000Y-191870000D01*
X130580000Y-190500000D02*
X131350000Y-190500000D01*
X137890000Y-191870000D02*
X137890000Y-189130000D01*
X137890000Y-189130000D02*
X131350000Y-189130000D01*
X131350000Y-189130000D02*
X131350000Y-191870000D01*
D14*
%TO.C,U14*%
X180650000Y-185390000D02*
X181650000Y-186390000D01*
X200250000Y-179990000D02*
X200250000Y-179490000D01*
X181650000Y-186770000D02*
X181650000Y-187020000D01*
X200250000Y-179490000D02*
X199850000Y-179490000D01*
X181650000Y-186390000D02*
X181650000Y-186760000D01*
X200250000Y-186290000D02*
X200250000Y-185890000D01*
X180650000Y-185090000D02*
X180650000Y-185390000D01*
X199850000Y-186290000D02*
X200250000Y-186290000D01*
X180750000Y-179490000D02*
X180750000Y-179890000D01*
X181150000Y-179490000D02*
X180750000Y-179490000D01*
D12*
%TO.C,R43*%
X149860000Y-115800000D02*
X149860000Y-115030000D01*
X151230000Y-115030000D02*
X151230000Y-108490000D01*
X148490000Y-108490000D02*
X148490000Y-115030000D01*
X148490000Y-115030000D02*
X151230000Y-115030000D01*
X151230000Y-108490000D02*
X148490000Y-108490000D01*
X149860000Y-107720000D02*
X149860000Y-108490000D01*
D13*
%TO.C,IC1*%
X71665000Y-119695000D02*
X79500000Y-119695000D01*
X72900000Y-139385000D02*
X79500000Y-139385000D01*
D12*
%TO.C,R23*%
X283440000Y-134620000D02*
X282670000Y-134620000D01*
X282670000Y-133250000D02*
X276130000Y-133250000D01*
X275360000Y-134620000D02*
X276130000Y-134620000D01*
X282670000Y-135990000D02*
X282670000Y-133250000D01*
X276130000Y-135990000D02*
X282670000Y-135990000D01*
X276130000Y-133250000D02*
X276130000Y-135990000D01*
D11*
%TO.C,C6*%
X112845000Y-165100000D02*
G75*
G03*
X112845000Y-165100000I-2625000J0D01*
G01*
D12*
%TO.C,R48*%
X170180000Y-107720000D02*
X170180000Y-108490000D01*
X168810000Y-108490000D02*
X168810000Y-115030000D01*
X171550000Y-108490000D02*
X168810000Y-108490000D01*
X171550000Y-115030000D02*
X171550000Y-108490000D01*
X168810000Y-115030000D02*
X171550000Y-115030000D01*
X170180000Y-115800000D02*
X170180000Y-115030000D01*
%TO.C,D5*%
X87080000Y-145850000D02*
X87080000Y-148790000D01*
X87200000Y-145850000D02*
X87200000Y-148790000D01*
X91620000Y-148790000D02*
X91620000Y-145850000D01*
X86960000Y-145850000D02*
X86960000Y-148790000D01*
X85160000Y-147320000D02*
X86180000Y-147320000D01*
X91620000Y-145850000D02*
X86180000Y-145850000D01*
X92640000Y-147320000D02*
X91620000Y-147320000D01*
X86180000Y-145850000D02*
X86180000Y-148790000D01*
X86180000Y-148790000D02*
X91620000Y-148790000D01*
%TO.C,R17*%
X222480000Y-142240000D02*
X221710000Y-142240000D01*
X221710000Y-140870000D02*
X215170000Y-140870000D01*
X221710000Y-143610000D02*
X221710000Y-140870000D01*
X215170000Y-140870000D02*
X215170000Y-143610000D01*
X214400000Y-142240000D02*
X215170000Y-142240000D01*
X215170000Y-143610000D02*
X221710000Y-143610000D01*
%TO.C,D12*%
X187780000Y-150930000D02*
X187780000Y-153870000D01*
X188680000Y-150930000D02*
X188680000Y-153870000D01*
X188560000Y-150930000D02*
X188560000Y-153870000D01*
X193220000Y-150930000D02*
X187780000Y-150930000D01*
X188800000Y-150930000D02*
X188800000Y-153870000D01*
X194240000Y-152400000D02*
X193220000Y-152400000D01*
X193220000Y-153870000D02*
X193220000Y-150930000D01*
X187780000Y-153870000D02*
X193220000Y-153870000D01*
X186760000Y-152400000D02*
X187780000Y-152400000D01*
%TO.C,R64*%
X273150000Y-108490000D02*
X270410000Y-108490000D01*
X270410000Y-115030000D02*
X273150000Y-115030000D01*
X271780000Y-115800000D02*
X271780000Y-115030000D01*
X271780000Y-107720000D02*
X271780000Y-108490000D01*
X270410000Y-108490000D02*
X270410000Y-115030000D01*
X273150000Y-115030000D02*
X273150000Y-108490000D01*
D13*
%TO.C,C1*%
X266580000Y-177800000D02*
G75*
G03*
X266580000Y-177800000I-5000000J0D01*
G01*
D12*
%TO.C,R57*%
X227230000Y-115030000D02*
X229970000Y-115030000D01*
X228600000Y-107720000D02*
X228600000Y-108490000D01*
X227230000Y-108490000D02*
X227230000Y-115030000D01*
X229970000Y-108490000D02*
X227230000Y-108490000D01*
X228600000Y-115800000D02*
X228600000Y-115030000D01*
X229970000Y-115030000D02*
X229970000Y-108490000D01*
%TO.C,R6*%
X55880000Y-107720000D02*
X55880000Y-108490000D01*
X57250000Y-115030000D02*
X57250000Y-108490000D01*
X55880000Y-115800000D02*
X55880000Y-115030000D01*
X54510000Y-115030000D02*
X57250000Y-115030000D01*
X54510000Y-108490000D02*
X54510000Y-115030000D01*
X57250000Y-108490000D02*
X54510000Y-108490000D01*
D14*
%TO.C,C9*%
X214800000Y-165930000D02*
X222000000Y-165930000D01*
X214800000Y-174430000D02*
X214800000Y-165930000D01*
X222000000Y-165930000D02*
X222000000Y-174430000D01*
D13*
X213600000Y-170180000D02*
X213600000Y-170180000D01*
X213600000Y-170180000D02*
X213600000Y-170180000D01*
X213600000Y-170280000D02*
X213600000Y-170280000D01*
D14*
X222000000Y-174430000D02*
X214800000Y-174430000D01*
D13*
X213600000Y-170280000D02*
G75*
G03*
X213600000Y-170180000I0J50000D01*
G01*
X213600000Y-170180000D02*
G75*
G03*
X213600000Y-170280000I0J-50000D01*
G01*
X213600000Y-170180000D02*
G75*
G03*
X213600000Y-170280000I0J-50000D01*
G01*
D12*
%TO.C,R44*%
X153570000Y-115030000D02*
X156310000Y-115030000D01*
X153570000Y-108490000D02*
X153570000Y-115030000D01*
X154940000Y-107720000D02*
X154940000Y-108490000D01*
X156310000Y-108490000D02*
X153570000Y-108490000D01*
X154940000Y-115800000D02*
X154940000Y-115030000D01*
X156310000Y-115030000D02*
X156310000Y-108490000D01*
%TO.C,R13*%
X156310000Y-158210000D02*
X156310000Y-151670000D01*
X156310000Y-151670000D02*
X153570000Y-151670000D01*
X154940000Y-150900000D02*
X154940000Y-151670000D01*
X153570000Y-151670000D02*
X153570000Y-158210000D01*
X153570000Y-158210000D02*
X156310000Y-158210000D01*
X154940000Y-158980000D02*
X154940000Y-158210000D01*
%TO.C,R19*%
X212190000Y-149130000D02*
X209450000Y-149130000D01*
X210820000Y-148360000D02*
X210820000Y-149130000D01*
X209450000Y-155670000D02*
X212190000Y-155670000D01*
X209450000Y-149130000D02*
X209450000Y-155670000D01*
X212190000Y-155670000D02*
X212190000Y-149130000D01*
X210820000Y-156440000D02*
X210820000Y-155670000D01*
%TO.C,R14*%
X158650000Y-151670000D02*
X158650000Y-158210000D01*
X161390000Y-158210000D02*
X161390000Y-151670000D01*
X160020000Y-150900000D02*
X160020000Y-151670000D01*
X161390000Y-151670000D02*
X158650000Y-151670000D01*
X160020000Y-158980000D02*
X160020000Y-158210000D01*
X158650000Y-158210000D02*
X161390000Y-158210000D01*
%TO.C,D9*%
X137760000Y-150930000D02*
X137760000Y-153870000D01*
X142420000Y-150930000D02*
X136980000Y-150930000D01*
X137880000Y-150930000D02*
X137880000Y-153870000D01*
X142420000Y-153870000D02*
X142420000Y-150930000D01*
X136980000Y-153870000D02*
X142420000Y-153870000D01*
X138000000Y-150930000D02*
X138000000Y-153870000D01*
X143440000Y-152400000D02*
X142420000Y-152400000D01*
X135960000Y-152400000D02*
X136980000Y-152400000D01*
X136980000Y-150930000D02*
X136980000Y-153870000D01*
D13*
%TO.C,U13*%
X251145000Y-168400000D02*
X251145000Y-161800000D01*
X231455000Y-169635000D02*
X231455000Y-161800000D01*
D12*
%TO.C,U16*%
X45995000Y-143580000D02*
X50495000Y-143580000D01*
X45995000Y-120600000D02*
X45995000Y-143580000D01*
X50495000Y-143580000D02*
X50495000Y-120600000D01*
X50495000Y-120600000D02*
X49245000Y-120600000D01*
X47245000Y-120600000D02*
X45995000Y-120600000D01*
X47245000Y-120600000D02*
G75*
G03*
X49245000Y-120600000I1000000J0D01*
G01*
%TO.C,R53*%
X189130000Y-115030000D02*
X191870000Y-115030000D01*
X189130000Y-108490000D02*
X189130000Y-115030000D01*
X191870000Y-115030000D02*
X191870000Y-108490000D01*
X190500000Y-115800000D02*
X190500000Y-115030000D01*
X190500000Y-107720000D02*
X190500000Y-108490000D01*
X191870000Y-108490000D02*
X189130000Y-108490000D01*
%TO.C,R61*%
X255170000Y-115030000D02*
X257910000Y-115030000D01*
X256540000Y-115800000D02*
X256540000Y-115030000D01*
X257910000Y-115030000D02*
X257910000Y-108490000D01*
X256540000Y-107720000D02*
X256540000Y-108490000D01*
X255170000Y-108490000D02*
X255170000Y-115030000D01*
X257910000Y-108490000D02*
X255170000Y-108490000D01*
D13*
%TO.C,U9*%
X154625000Y-173480000D02*
X154625000Y-166880000D01*
X134935000Y-174715000D02*
X134935000Y-166880000D01*
D12*
%TO.C,D17*%
X117560000Y-176330000D02*
X117560000Y-179270000D01*
X117440000Y-176330000D02*
X117440000Y-179270000D01*
X117680000Y-176330000D02*
X117680000Y-179270000D01*
X123120000Y-177800000D02*
X122100000Y-177800000D01*
X122100000Y-176330000D02*
X116660000Y-176330000D01*
X115640000Y-177800000D02*
X116660000Y-177800000D01*
X116660000Y-176330000D02*
X116660000Y-179270000D01*
X122100000Y-179270000D02*
X122100000Y-176330000D01*
X116660000Y-179270000D02*
X122100000Y-179270000D01*
%TO.C,U8*%
X175380000Y-149810000D02*
X173730000Y-149810000D01*
X170080000Y-149810000D02*
X170080000Y-160090000D01*
X171730000Y-149810000D02*
X170080000Y-149810000D01*
X170080000Y-160090000D02*
X175380000Y-160090000D01*
X175380000Y-160090000D02*
X175380000Y-149810000D01*
X171730000Y-149810000D02*
G75*
G03*
X173730000Y-149810000I1000000J0D01*
G01*
%TO.C,R52*%
X209650000Y-108490000D02*
X206910000Y-108490000D01*
X209650000Y-115030000D02*
X209650000Y-108490000D01*
X208280000Y-107720000D02*
X208280000Y-108490000D01*
X206910000Y-115030000D02*
X209650000Y-115030000D01*
X206910000Y-108490000D02*
X206910000Y-115030000D01*
X208280000Y-115800000D02*
X208280000Y-115030000D01*
%TO.C,R39*%
X119380000Y-107720000D02*
X119380000Y-108490000D01*
X118010000Y-115030000D02*
X120750000Y-115030000D01*
X118010000Y-108490000D02*
X118010000Y-115030000D01*
X120750000Y-108490000D02*
X118010000Y-108490000D01*
X119380000Y-115800000D02*
X119380000Y-115030000D01*
X120750000Y-115030000D02*
X120750000Y-108490000D01*
%TD*%
D15*
%TO.C,IC3*%
X87470000Y-123190000D03*
D16*
X87470000Y-125730000D03*
X87470000Y-128270000D03*
X87470000Y-130810000D03*
X87470000Y-133350000D03*
X87470000Y-135890000D03*
X87470000Y-138430000D03*
X87470000Y-140970000D03*
X95410000Y-140970000D03*
X95410000Y-138430000D03*
X95410000Y-135890000D03*
X95410000Y-133350000D03*
X95410000Y-130810000D03*
X95410000Y-128270000D03*
X95410000Y-125730000D03*
X95410000Y-123190000D03*
%TD*%
D15*
%TO.C,IC5*%
X130650000Y-123190000D03*
D16*
X130650000Y-125730000D03*
X130650000Y-128270000D03*
X130650000Y-130810000D03*
X130650000Y-133350000D03*
X130650000Y-135890000D03*
X130650000Y-138430000D03*
X130650000Y-140970000D03*
X138590000Y-140970000D03*
X138590000Y-138430000D03*
X138590000Y-135890000D03*
X138590000Y-133350000D03*
X138590000Y-130810000D03*
X138590000Y-128270000D03*
X138590000Y-125730000D03*
X138590000Y-123190000D03*
%TD*%
D17*
%TO.C,C3*%
X66040000Y-167640000D03*
X71040000Y-167640000D03*
%TD*%
D15*
%TO.C,IC8*%
X237330000Y-120650000D03*
D16*
X237330000Y-123190000D03*
X237330000Y-125730000D03*
X237330000Y-128270000D03*
X237330000Y-130810000D03*
X237330000Y-133350000D03*
X237330000Y-135890000D03*
X237330000Y-138430000D03*
X245270000Y-138430000D03*
X245270000Y-135890000D03*
X245270000Y-133350000D03*
X245270000Y-130810000D03*
X245270000Y-128270000D03*
X245270000Y-125730000D03*
X245270000Y-123190000D03*
X245270000Y-120650000D03*
%TD*%
D15*
%TO.C,IC2*%
X31590000Y-123190000D03*
D16*
X31590000Y-125730000D03*
X31590000Y-128270000D03*
X31590000Y-130810000D03*
X31590000Y-133350000D03*
X31590000Y-135890000D03*
X31590000Y-138430000D03*
X31590000Y-140970000D03*
X39530000Y-140970000D03*
X39530000Y-138430000D03*
X39530000Y-135890000D03*
X39530000Y-133350000D03*
X39530000Y-130810000D03*
X39530000Y-128270000D03*
X39530000Y-125730000D03*
X39530000Y-123190000D03*
%TD*%
D17*
%TO.C,C11*%
X264160000Y-152400000D03*
X269160000Y-152400000D03*
%TD*%
D15*
%TO.C,U7*%
X82550000Y-171610000D03*
D16*
X85090000Y-171610000D03*
X87630000Y-171610000D03*
X90170000Y-171610000D03*
X92710000Y-171610000D03*
X95250000Y-171610000D03*
X97790000Y-171610000D03*
X100330000Y-171610000D03*
X100330000Y-163670000D03*
X97790000Y-163670000D03*
X95250000Y-163670000D03*
X92710000Y-163670000D03*
X90170000Y-163670000D03*
X87630000Y-163670000D03*
X85090000Y-163670000D03*
X82550000Y-163670000D03*
%TD*%
D15*
%TO.C,IC4*%
X173830000Y-123190000D03*
D16*
X173830000Y-125730000D03*
X173830000Y-128270000D03*
X173830000Y-130810000D03*
X173830000Y-133350000D03*
X173830000Y-135890000D03*
X173830000Y-138430000D03*
X173830000Y-140970000D03*
X181770000Y-140970000D03*
X181770000Y-138430000D03*
X181770000Y-135890000D03*
X181770000Y-133350000D03*
X181770000Y-130810000D03*
X181770000Y-128270000D03*
X181770000Y-125730000D03*
X181770000Y-123190000D03*
%TD*%
D18*
%TO.C,C2*%
X281940000Y-170180000D03*
D19*
X283940000Y-170180000D03*
%TD*%
D18*
%TO.C,C4*%
X55880000Y-167640000D03*
D19*
X57880000Y-167640000D03*
%TD*%
D15*
%TO.C,U3*%
X31750000Y-171610000D03*
D16*
X34290000Y-171610000D03*
X36830000Y-171610000D03*
X39370000Y-171610000D03*
X41910000Y-171610000D03*
X44450000Y-171610000D03*
X46990000Y-171610000D03*
X49530000Y-171610000D03*
X49530000Y-163670000D03*
X46990000Y-163670000D03*
X44450000Y-163670000D03*
X41910000Y-163670000D03*
X39370000Y-163670000D03*
X36830000Y-163670000D03*
X34290000Y-163670000D03*
X31750000Y-163670000D03*
%TD*%
D18*
%TO.C,C10*%
X205740000Y-170180000D03*
D19*
X207740000Y-170180000D03*
%TD*%
D18*
%TO.C,C12*%
X254000000Y-152400000D03*
D19*
X256000000Y-152400000D03*
%TD*%
D15*
%TO.C,U11*%
X181610000Y-174150000D03*
D16*
X184150000Y-174150000D03*
X186690000Y-174150000D03*
X189230000Y-174150000D03*
X191770000Y-174150000D03*
X194310000Y-174150000D03*
X196850000Y-174150000D03*
X199390000Y-174150000D03*
X199390000Y-166210000D03*
X196850000Y-166210000D03*
X194310000Y-166210000D03*
X191770000Y-166210000D03*
X189230000Y-166210000D03*
X186690000Y-166210000D03*
X184150000Y-166210000D03*
X181610000Y-166210000D03*
%TD*%
D15*
%TO.C,IC7*%
X204470000Y-186850000D03*
D16*
X207010000Y-186850000D03*
X209550000Y-186850000D03*
X212090000Y-186850000D03*
X214630000Y-186850000D03*
X217170000Y-186850000D03*
X219710000Y-186850000D03*
X222250000Y-186850000D03*
X222250000Y-178910000D03*
X219710000Y-178910000D03*
X217170000Y-178910000D03*
X214630000Y-178910000D03*
X212090000Y-178910000D03*
X209550000Y-178910000D03*
X207010000Y-178910000D03*
X204470000Y-178910000D03*
%TD*%
D15*
%TO.C,IC6*%
X189070000Y-123190000D03*
D16*
X189070000Y-125730000D03*
X189070000Y-128270000D03*
X189070000Y-130810000D03*
X189070000Y-133350000D03*
X189070000Y-135890000D03*
X189070000Y-138430000D03*
X189070000Y-140970000D03*
X197010000Y-140970000D03*
X197010000Y-138430000D03*
X197010000Y-135890000D03*
X197010000Y-133350000D03*
X197010000Y-130810000D03*
X197010000Y-128270000D03*
X197010000Y-125730000D03*
X197010000Y-123190000D03*
%TD*%
D17*
%TO.C,C5*%
X121920000Y-167640000D03*
X126920000Y-167640000D03*
%TD*%
%TO.C,C7*%
X167640000Y-170180000D03*
X172640000Y-170180000D03*
%TD*%
D18*
%TO.C,C8*%
X158020000Y-170180000D03*
D19*
X160020000Y-170180000D03*
%TD*%
D15*
%TO.C,IC1*%
X72230000Y-120650000D03*
D16*
X72230000Y-123190000D03*
X72230000Y-125730000D03*
X72230000Y-128270000D03*
X72230000Y-130810000D03*
X72230000Y-133350000D03*
X72230000Y-135890000D03*
X72230000Y-138430000D03*
X80170000Y-138430000D03*
X80170000Y-135890000D03*
X80170000Y-133350000D03*
X80170000Y-130810000D03*
X80170000Y-128270000D03*
X80170000Y-125730000D03*
X80170000Y-123190000D03*
X80170000Y-120650000D03*
%TD*%
D18*
%TO.C,C6*%
X109220000Y-165100000D03*
D19*
X111220000Y-165100000D03*
%TD*%
D17*
%TO.C,C9*%
X215900000Y-170180000D03*
X220900000Y-170180000D03*
%TD*%
D15*
%TO.C,U13*%
X232410000Y-169070000D03*
D16*
X234950000Y-169070000D03*
X237490000Y-169070000D03*
X240030000Y-169070000D03*
X242570000Y-169070000D03*
X245110000Y-169070000D03*
X247650000Y-169070000D03*
X250190000Y-169070000D03*
X250190000Y-161130000D03*
X247650000Y-161130000D03*
X245110000Y-161130000D03*
X242570000Y-161130000D03*
X240030000Y-161130000D03*
X237490000Y-161130000D03*
X234950000Y-161130000D03*
X232410000Y-161130000D03*
%TD*%
D15*
%TO.C,U9*%
X135890000Y-174150000D03*
D16*
X138430000Y-174150000D03*
X140970000Y-174150000D03*
X143510000Y-174150000D03*
X146050000Y-174150000D03*
X148590000Y-174150000D03*
X151130000Y-174150000D03*
X153670000Y-174150000D03*
X153670000Y-166210000D03*
X151130000Y-166210000D03*
X148590000Y-166210000D03*
X146050000Y-166210000D03*
X143510000Y-166210000D03*
X140970000Y-166210000D03*
X138430000Y-166210000D03*
X135890000Y-166210000D03*
%TD*%
M02*
